G04*
G04 #@! TF.GenerationSoftware,Altium Limited,Altium Designer,22.10.1 (41)*
G04*
G04 Layer_Color=8388736*
%FSAX44Y44*%
%MOMM*%
G71*
G04*
G04 #@! TF.SameCoordinates,19A9066D-69EC-4412-BDAA-CEE194C5A0F3*
G04*
G04*
G04 #@! TF.FilePolarity,Negative*
G04*
G01*
G75*
G04:AMPARAMS|DCode=27|XSize=1.5376mm|YSize=0.2525mm|CornerRadius=0.1262mm|HoleSize=0mm|Usage=FLASHONLY|Rotation=270.000|XOffset=0mm|YOffset=0mm|HoleType=Round|Shape=RoundedRectangle|*
%AMROUNDEDRECTD27*
21,1,1.5376,0.0000,0,0,270.0*
21,1,1.2851,0.2525,0,0,270.0*
1,1,0.2525,0.0000,-0.6425*
1,1,0.2525,0.0000,0.6425*
1,1,0.2525,0.0000,0.6425*
1,1,0.2525,0.0000,-0.6425*
%
%ADD27ROUNDEDRECTD27*%
%ADD28R,0.2525X1.5376*%
%ADD54R,4.3000X0.3000*%
%ADD55R,0.6000X0.7000*%
%ADD56R,0.3000X0.8000*%
%ADD57R,0.5000X0.9000*%
%ADD58R,0.9000X0.5000*%
%ADD59R,0.7000X0.6500*%
%ADD60R,1.3000X1.1000*%
%ADD61R,0.5000X2.2000*%
%ADD62R,2.0000X2.0000*%
%ADD63R,0.4000X2.7000*%
%ADD64R,0.5800X0.4800*%
%ADD65R,0.6500X0.7000*%
%ADD66R,0.7000X0.6000*%
%ADD67R,0.7400X1.8800*%
%ADD68R,0.6500X0.9000*%
%ADD69R,1.7000X0.8000*%
%ADD70R,2.3000X1.3000*%
%ADD71R,1.6000X1.3000*%
%ADD72R,1.6000X1.7000*%
%ADD73R,1.2000X0.6500*%
%ADD74R,2.9000X1.5000*%
%ADD75R,0.9000X0.8500*%
%ADD76R,0.3500X0.4500*%
%ADD77R,1.7000X1.3000*%
%ADD78R,3.1000X1.7000*%
%ADD79R,0.8500X0.9000*%
%ADD80R,3.3500X5.1000*%
%ADD81C,0.9000*%
%ADD82R,1.1000X1.3500*%
%ADD83R,0.9000X0.3800*%
%ADD84R,0.3800X0.9000*%
%ADD85R,2.1500X2.1500*%
%ADD86O,1.3000X2.2500*%
%ADD87R,0.1000X0.1000*%
%ADD88O,1.6000X3.2000*%
%ADD89O,1.6000X2.4000*%
%ADD90O,1.7032X2.5032*%
%ADD91C,1.1000*%
%ADD92C,1.6000*%
%ADD93C,1.5000*%
%ADD94C,2.9000*%
%ADD95C,3.3000*%
%ADD96C,2.1000*%
%ADD97R,2.1000X2.1000*%
%ADD98C,6.1000*%
%ADD99O,2.3000X4.1000*%
%ADD100O,2.1000X4.6000*%
%ADD101O,4.1000X2.1000*%
%ADD102C,3.9000*%
%ADD103C,1.6240*%
%ADD104C,0.7000*%
G36*
X00042612Y00827878D02*
X00043379D01*
X00043379Y00827725D01*
X00043839Y00827725D01*
Y00827571D01*
X00044299D01*
X00044299Y00827418D01*
X00044606D01*
X00044606Y00827265D01*
X00044912Y00827265D01*
Y00827111D01*
X00045219D01*
Y00826958D01*
X00045526D01*
X00045526Y00826805D01*
X00045679Y00826805D01*
X00045679Y00826651D01*
X00045986Y00826651D01*
Y00826498D01*
X00046139D01*
X00046139Y00826345D01*
X00046292Y00826345D01*
Y00826191D01*
X00046446Y00826191D01*
Y00826038D01*
X00046599Y00826038D01*
X00046599Y00825884D01*
X00046752Y00825885D01*
X00046753Y00825731D01*
X00046906D01*
Y00825578D01*
X00047059D01*
Y00825424D01*
X00047213D01*
X00047212Y00825271D01*
X00047366Y00825271D01*
Y00825118D01*
X00047519D01*
X00047519Y00824965D01*
X00047519Y00824811D01*
X00047673Y00824811D01*
Y00824658D01*
X00047826D01*
Y00824504D01*
X00047826Y00824351D01*
X00047979D01*
X00047979Y00824198D01*
X00048133D01*
Y00824044D01*
Y00823891D01*
Y00823738D01*
X00048286Y00823738D01*
X00048286Y00823584D01*
Y00823431D01*
X00048439Y00823431D01*
Y00823278D01*
X00048439Y00823124D01*
X00048593Y00823124D01*
Y00822971D01*
Y00822818D01*
Y00822664D01*
X00048746D01*
Y00822511D01*
X00048746Y00822358D01*
X00048746Y00822204D01*
X00048746Y00822051D01*
X00048899Y00822051D01*
X00048899Y00821898D01*
Y00821744D01*
X00048899Y00821591D01*
X00048899Y00821438D01*
X00048899Y00821284D01*
X00048899Y00821131D01*
X00048899Y00820977D01*
X00048899Y00820824D01*
X00049053D01*
X00049053Y00820671D01*
X00049053Y00820518D01*
Y00820364D01*
Y00820211D01*
Y00820058D01*
X00049053Y00819904D01*
X00048899D01*
X00048899Y00819751D01*
X00048899Y00819597D01*
Y00819444D01*
X00048899Y00819291D01*
Y00819137D01*
Y00818984D01*
Y00818831D01*
Y00818677D01*
X00048746Y00818677D01*
Y00818524D01*
Y00818371D01*
Y00818217D01*
Y00818064D01*
X00048593Y00818064D01*
Y00817911D01*
X00048593Y00817757D01*
X00048593Y00817604D01*
X00048439Y00817604D01*
X00048439Y00817451D01*
X00048439Y00817297D01*
X00048439Y00817144D01*
X00048286Y00817144D01*
X00048286Y00816991D01*
X00048286Y00816837D01*
X00048133D01*
X00048133Y00816684D01*
X00048133Y00816531D01*
X00047979D01*
Y00816377D01*
Y00816224D01*
X00047826D01*
Y00816070D01*
X00047673Y00816070D01*
Y00815917D01*
Y00815764D01*
X00047519D01*
X00047519Y00815611D01*
X00047366Y00815611D01*
X00047366Y00815457D01*
X00047213D01*
X00047213Y00815304D01*
X00047059D01*
X00047059Y00815151D01*
Y00814997D01*
X00046906D01*
X00046906Y00814844D01*
X00046752Y00814844D01*
X00046753Y00814690D01*
X00046446Y00814690D01*
Y00814537D01*
X00046292D01*
X00046292Y00814384D01*
X00046139Y00814384D01*
X00046139Y00814230D01*
X00045986D01*
X00045986Y00814077D01*
X00045679D01*
Y00813924D01*
X00045526D01*
X00045526Y00813770D01*
X00045219Y00813770D01*
Y00813617D01*
X00044759Y00813617D01*
Y00813464D01*
X00044452Y00813464D01*
X00044452Y00813310D01*
X00043992D01*
X00043992Y00813157D01*
X00043532D01*
Y00813003D01*
X00042765Y00813004D01*
Y00812850D01*
X00037245D01*
X00037245Y00812697D01*
X00037092D01*
X00037092Y00812543D01*
Y00812390D01*
Y00812237D01*
X00037092Y00812084D01*
Y00811930D01*
Y00811777D01*
Y00811624D01*
X00037092Y00811470D01*
Y00811317D01*
Y00811163D01*
Y00811010D01*
Y00810857D01*
Y00810703D01*
X00037092Y00810550D01*
Y00810397D01*
X00037092Y00810244D01*
X00037092Y00810090D01*
X00037092Y00809937D01*
Y00809783D01*
Y00809630D01*
Y00809477D01*
Y00809323D01*
Y00809170D01*
Y00809017D01*
Y00808863D01*
Y00808710D01*
Y00808557D01*
Y00808403D01*
Y00808250D01*
Y00808097D01*
Y00807943D01*
Y00807790D01*
Y00807636D01*
Y00807483D01*
Y00807330D01*
X00037092Y00807177D01*
X00037092Y00807023D01*
Y00806870D01*
Y00806716D01*
Y00806563D01*
Y00806410D01*
Y00806256D01*
Y00806103D01*
X00037092Y00805950D01*
X00037092Y00805796D01*
X00037092Y00805643D01*
X00032491Y00805643D01*
X00032491Y00805796D01*
X00032491Y00805950D01*
Y00806103D01*
X00032491Y00806256D01*
X00032491Y00806410D01*
X00032491Y00806563D01*
X00032491Y00806716D01*
Y00806870D01*
X00032491Y00807023D01*
X00032491Y00807177D01*
Y00807330D01*
X00032491Y00807483D01*
Y00807636D01*
X00032491Y00807790D01*
Y00807943D01*
X00032491Y00808097D01*
Y00808250D01*
X00032491Y00808403D01*
X00032491Y00808557D01*
Y00808710D01*
X00032491Y00808863D01*
Y00809017D01*
X00032491Y00809170D01*
X00032491Y00809323D01*
X00032491Y00809477D01*
Y00809630D01*
X00032491Y00809783D01*
X00032491Y00809937D01*
X00032491Y00810090D01*
Y00810243D01*
X00032491Y00810397D01*
Y00810550D01*
X00032491Y00810703D01*
X00032491Y00810857D01*
X00032491Y00811010D01*
X00032491Y00811163D01*
X00032491Y00811317D01*
X00032491Y00811470D01*
X00032491Y00811624D01*
Y00811777D01*
X00032491Y00811930D01*
Y00812084D01*
Y00812237D01*
X00032491Y00812390D01*
X00032491Y00812543D01*
Y00812697D01*
X00032491Y00812850D01*
X00032491Y00813004D01*
Y00813157D01*
X00032491Y00813310D01*
X00032491Y00813464D01*
X00032491Y00813617D01*
Y00813770D01*
Y00813924D01*
X00032491Y00814077D01*
X00032491Y00814230D01*
Y00814384D01*
Y00814537D01*
X00032491Y00814690D01*
X00032491Y00814844D01*
Y00814997D01*
Y00815150D01*
Y00815304D01*
Y00815457D01*
X00032491Y00815611D01*
X00032491Y00815764D01*
X00032491Y00815917D01*
X00032491Y00816070D01*
X00032491Y00816224D01*
X00032491Y00816377D01*
X00032491Y00816531D01*
X00032491Y00816684D01*
X00032491Y00816837D01*
X00032491Y00816991D01*
X00041999D01*
X00041999Y00817144D01*
X00042305Y00817144D01*
Y00817297D01*
X00042612Y00817297D01*
Y00817451D01*
X00042919Y00817451D01*
X00042919Y00817604D01*
X00043072D01*
X00043072Y00817757D01*
X00043225Y00817757D01*
X00043226Y00817911D01*
X00043379D01*
Y00818064D01*
X00043532Y00818064D01*
X00043532Y00818217D01*
X00043685Y00818217D01*
X00043685Y00818371D01*
X00043839D01*
X00043839Y00818524D01*
X00043839Y00818677D01*
X00043992D01*
X00043992Y00818831D01*
X00044146D01*
X00044146Y00818984D01*
X00044146Y00819137D01*
X00044146Y00819291D01*
X00044299D01*
Y00819444D01*
Y00819597D01*
Y00819751D01*
Y00819904D01*
X00044299Y00820058D01*
X00044452Y00820058D01*
X00044452Y00820211D01*
Y00820364D01*
X00044452Y00820518D01*
Y00820671D01*
X00044299Y00820671D01*
Y00820824D01*
X00044299Y00820977D01*
Y00821131D01*
X00044299Y00821284D01*
X00044299Y00821438D01*
X00044146Y00821438D01*
X00044146Y00821591D01*
X00044146Y00821744D01*
X00044146Y00821898D01*
X00043992D01*
X00043992Y00822051D01*
X00043839Y00822051D01*
X00043839Y00822204D01*
X00043839Y00822358D01*
X00043686Y00822358D01*
Y00822511D01*
X00043532D01*
X00043532Y00822664D01*
X00043379D01*
X00043379Y00822818D01*
X00043225Y00822818D01*
Y00822971D01*
X00043072D01*
X00043072Y00823124D01*
X00042765Y00823124D01*
Y00823278D01*
X00042459Y00823278D01*
X00042459Y00823431D01*
X00041999Y00823431D01*
Y00823584D01*
X00041232D01*
X00041232Y00823738D01*
X00030038Y00823738D01*
Y00823891D01*
X00030191Y00823891D01*
X00030191Y00824044D01*
Y00824198D01*
X00030345Y00824198D01*
Y00824351D01*
Y00824504D01*
X00030498Y00824504D01*
Y00824658D01*
X00030498Y00824811D01*
X00030498Y00824965D01*
X00030651D01*
X00030651Y00825118D01*
X00030651Y00825271D01*
X00030805D01*
X00030805Y00825425D01*
Y00825578D01*
Y00825731D01*
X00030958Y00825731D01*
Y00825884D01*
X00030958Y00826038D01*
X00031111Y00826038D01*
Y00826191D01*
X00031111Y00826345D01*
X00031111Y00826498D01*
X00031265Y00826498D01*
Y00826651D01*
Y00826805D01*
X00031418Y00826805D01*
X00031418Y00826958D01*
X00031418Y00827111D01*
X00031418Y00827265D01*
X00031571D01*
X00031571Y00827418D01*
X00031571Y00827571D01*
X00031725D01*
Y00827725D01*
Y00827878D01*
X00031878Y00827878D01*
Y00828031D01*
X00042612D01*
Y00827878D01*
D02*
G37*
G36*
X00064694Y00828338D02*
X00065614D01*
Y00828185D01*
X00066227D01*
X00066227Y00828031D01*
X00066687D01*
X00066687Y00827878D01*
X00067147Y00827878D01*
X00067147Y00827725D01*
X00067607D01*
X00067607Y00827571D01*
X00067914Y00827571D01*
X00067914Y00827418D01*
X00068221D01*
Y00827265D01*
X00068527Y00827265D01*
X00068527Y00827111D01*
X00068834D01*
X00068834Y00826958D01*
X00068987Y00826958D01*
Y00826805D01*
X00069294Y00826805D01*
Y00826651D01*
X00069601Y00826651D01*
X00069601Y00826498D01*
X00069754Y00826498D01*
X00069754Y00826345D01*
X00069908D01*
X00069907Y00826191D01*
X00070214D01*
Y00826038D01*
X00070368D01*
X00070368Y00825885D01*
X00070521D01*
X00070521Y00825731D01*
X00070674Y00825731D01*
Y00825578D01*
X00070828D01*
X00070828Y00825425D01*
X00070981D01*
X00070981Y00825271D01*
X00071134Y00825271D01*
X00071134Y00825118D01*
X00071288Y00825118D01*
Y00824965D01*
X00071441Y00824965D01*
X00071441Y00824811D01*
X00071594Y00824811D01*
Y00824658D01*
X00071748D01*
Y00824504D01*
X00071901D01*
X00071901Y00824351D01*
X00072054D01*
Y00824198D01*
X00072208Y00824198D01*
Y00824044D01*
Y00823891D01*
X00072361D01*
Y00823738D01*
X00072514Y00823738D01*
X00072515Y00823584D01*
X00072668D01*
Y00823431D01*
X00072668Y00823278D01*
X00072821Y00823278D01*
Y00823124D01*
X00072975Y00823124D01*
X00072975Y00822971D01*
Y00822818D01*
X00073128D01*
Y00822664D01*
X00073128Y00822511D01*
X00073281Y00822511D01*
Y00822358D01*
X00073435Y00822358D01*
Y00822204D01*
Y00822051D01*
X00073588D01*
X00073588Y00821898D01*
X00073588Y00821744D01*
X00073741Y00821744D01*
Y00821591D01*
X00073741Y00821438D01*
Y00821284D01*
X00073895Y00821284D01*
X00073895Y00821131D01*
Y00820977D01*
Y00820824D01*
X00074048Y00820824D01*
X00074048Y00820671D01*
Y00820518D01*
X00074048Y00820364D01*
X00074201D01*
X00074201Y00820211D01*
Y00820058D01*
Y00819904D01*
X00074355D01*
X00074355Y00819751D01*
X00069448Y00819751D01*
X00069447Y00819904D01*
X00069294D01*
Y00820058D01*
X00069294Y00820211D01*
X00069141Y00820211D01*
X00069141Y00820364D01*
Y00820518D01*
X00068987Y00820518D01*
Y00820671D01*
Y00820824D01*
X00068834Y00820824D01*
X00068834Y00820977D01*
X00068681D01*
Y00821131D01*
X00068527D01*
Y00821284D01*
X00068374Y00821284D01*
X00068374Y00821438D01*
X00068374Y00821591D01*
X00068221Y00821591D01*
Y00821744D01*
X00068067Y00821744D01*
Y00821898D01*
X00067914Y00821898D01*
Y00822051D01*
X00067761Y00822051D01*
X00067761Y00822204D01*
X00067607Y00822204D01*
Y00822358D01*
X00067301Y00822358D01*
X00067301Y00822511D01*
X00067147D01*
X00067147Y00822664D01*
X00066994D01*
Y00822818D01*
X00066687Y00822818D01*
Y00822971D01*
X00066381D01*
X00066381Y00823124D01*
X00066074Y00823124D01*
X00066074Y00823278D01*
X00065767Y00823278D01*
Y00823431D01*
X00065307D01*
Y00823584D01*
X00064847D01*
X00064847Y00823738D01*
X00064081Y00823738D01*
Y00823891D01*
X00061934D01*
Y00823738D01*
X00061167D01*
X00061167Y00823584D01*
X00060707Y00823584D01*
Y00823431D01*
X00060400Y00823431D01*
Y00823278D01*
X00059940Y00823278D01*
Y00823124D01*
X00059633Y00823124D01*
X00059633Y00822971D01*
X00059480D01*
Y00822818D01*
X00059173Y00822818D01*
X00059173Y00822664D01*
X00059020D01*
Y00822511D01*
X00058713Y00822511D01*
X00058713Y00822358D01*
X00058560D01*
X00058560Y00822204D01*
X00058407D01*
Y00822051D01*
X00058253Y00822051D01*
Y00821898D01*
X00058100D01*
Y00821744D01*
X00057947Y00821744D01*
X00057947Y00821591D01*
X00057793D01*
Y00821438D01*
X00057640D01*
Y00821284D01*
X00057487D01*
X00057487Y00821131D01*
X00057333Y00821131D01*
Y00820977D01*
X00057180D01*
Y00820824D01*
X00057027D01*
Y00820671D01*
Y00820518D01*
X00056873Y00820517D01*
X00056873Y00820364D01*
X00056720D01*
Y00820211D01*
X00056720Y00820058D01*
X00056567D01*
X00056567Y00819904D01*
X00056567Y00819751D01*
X00056567Y00819597D01*
X00056413D01*
X00056413Y00819444D01*
Y00819291D01*
X00056260Y00819291D01*
X00056260Y00819137D01*
X00056260Y00818984D01*
X00056260Y00818831D01*
X00056107D01*
Y00818677D01*
Y00818524D01*
X00056107Y00818371D01*
X00056107Y00818217D01*
X00055953Y00818217D01*
Y00818064D01*
Y00817911D01*
Y00817757D01*
Y00817604D01*
Y00817451D01*
Y00817297D01*
Y00817144D01*
Y00816991D01*
Y00816837D01*
X00055953Y00816684D01*
X00055953Y00816531D01*
Y00816377D01*
Y00816224D01*
Y00816070D01*
Y00815917D01*
Y00815764D01*
X00055953Y00815611D01*
Y00815457D01*
X00056107D01*
Y00815304D01*
X00056107Y00815151D01*
Y00814997D01*
X00056107Y00814844D01*
X00056260D01*
X00056260Y00814690D01*
X00056260Y00814537D01*
X00056260Y00814384D01*
X00056413D01*
Y00814230D01*
Y00814077D01*
X00056413Y00813924D01*
X00056567D01*
X00056567Y00813770D01*
X00056720D01*
Y00813617D01*
Y00813464D01*
X00056873D01*
Y00813310D01*
Y00813157D01*
X00057027D01*
Y00813003D01*
X00057180D01*
X00057180Y00812850D01*
Y00812697D01*
X00057333D01*
Y00812543D01*
X00057487D01*
X00057487Y00812390D01*
X00057640Y00812390D01*
Y00812237D01*
X00057640Y00812084D01*
X00057793D01*
X00057793Y00811930D01*
X00057947D01*
X00057947Y00811777D01*
X00058100Y00811777D01*
X00058100Y00811624D01*
X00058253D01*
X00058253Y00811470D01*
X00058560Y00811470D01*
X00058560Y00811317D01*
X00058713Y00811317D01*
Y00811163D01*
X00058867D01*
Y00811010D01*
X00059173Y00811010D01*
X00059173Y00810857D01*
X00059327Y00810857D01*
X00059327Y00810703D01*
X00059633Y00810703D01*
Y00810550D01*
X00059940Y00810550D01*
Y00810397D01*
X00060094D01*
X00060093Y00810243D01*
X00060553Y00810243D01*
Y00810090D01*
X00061013Y00810090D01*
Y00809937D01*
X00061474D01*
X00061474Y00809783D01*
X00062700D01*
X00062700Y00809630D01*
X00063314D01*
X00063314Y00809783D01*
X00064387D01*
X00064387Y00809937D01*
X00065001D01*
Y00810090D01*
X00065461Y00810090D01*
X00065461Y00810243D01*
X00065921Y00810243D01*
Y00810397D01*
X00066227Y00810397D01*
X00066227Y00810550D01*
X00066534Y00810550D01*
X00066534Y00810703D01*
X00066687D01*
X00066687Y00810857D01*
X00066994Y00810857D01*
X00066994Y00811010D01*
X00067147D01*
Y00811163D01*
X00067301D01*
X00067301Y00811317D01*
X00067454Y00811317D01*
X00067454Y00811470D01*
X00067761Y00811470D01*
X00067761Y00811624D01*
X00067914D01*
Y00811777D01*
X00068067D01*
Y00811930D01*
X00068221Y00811930D01*
X00068221Y00812084D01*
X00068221Y00812237D01*
X00068374D01*
Y00812390D01*
X00068527D01*
X00068527Y00812543D01*
X00068681D01*
X00068681Y00812697D01*
X00068834D01*
Y00812850D01*
X00068834Y00813003D01*
X00068987Y00813004D01*
Y00813157D01*
X00069141D01*
X00069141Y00813310D01*
X00069141Y00813464D01*
X00069294D01*
Y00813617D01*
X00069294Y00813770D01*
X00069447Y00813770D01*
Y00813924D01*
X00069447Y00814077D01*
X00074355D01*
Y00813924D01*
Y00813770D01*
X00074201D01*
Y00813617D01*
Y00813464D01*
Y00813310D01*
X00074048D01*
X00074048Y00813157D01*
Y00813003D01*
X00074048Y00812850D01*
X00073895Y00812850D01*
Y00812697D01*
Y00812543D01*
Y00812390D01*
X00073741D01*
Y00812237D01*
X00073741Y00812084D01*
Y00811930D01*
X00073588D01*
Y00811777D01*
X00073588Y00811624D01*
X00073435D01*
Y00811470D01*
X00073435Y00811317D01*
X00073281D01*
Y00811163D01*
X00073281Y00811010D01*
X00073128D01*
X00073128Y00810857D01*
X00072975Y00810857D01*
X00072975Y00810703D01*
Y00810550D01*
X00072821D01*
Y00810397D01*
X00072668D01*
X00072668Y00810243D01*
X00072668Y00810090D01*
X00072514Y00810090D01*
Y00809937D01*
X00072361Y00809937D01*
Y00809783D01*
X00072361Y00809630D01*
X00072208Y00809630D01*
Y00809477D01*
X00072054Y00809477D01*
Y00809323D01*
X00071901D01*
X00071901Y00809170D01*
X00071748Y00809170D01*
X00071748Y00809017D01*
X00071594D01*
Y00808863D01*
X00071441D01*
Y00808710D01*
X00071288Y00808710D01*
Y00808557D01*
X00071134Y00808557D01*
Y00808403D01*
X00070981Y00808403D01*
Y00808250D01*
X00070828D01*
X00070828Y00808097D01*
X00070674Y00808096D01*
Y00807943D01*
X00070521Y00807943D01*
Y00807790D01*
X00070368Y00807790D01*
Y00807636D01*
X00070061Y00807636D01*
Y00807483D01*
X00069908Y00807483D01*
Y00807330D01*
X00069754Y00807330D01*
Y00807177D01*
X00069447D01*
Y00807023D01*
X00069294Y00807023D01*
X00069294Y00806870D01*
X00068987Y00806870D01*
Y00806716D01*
X00068681D01*
Y00806563D01*
X00068374D01*
Y00806410D01*
X00068067Y00806410D01*
X00068067Y00806256D01*
X00067607Y00806256D01*
Y00806103D01*
X00067147Y00806103D01*
X00067147Y00805950D01*
X00066687D01*
Y00805796D01*
X00066227Y00805796D01*
X00066227Y00805643D01*
X00065614Y00805643D01*
X00065614Y00805490D01*
X00064541D01*
X00064541Y00805336D01*
X00064234Y00805336D01*
Y00805183D01*
X00061780Y00805183D01*
X00061780Y00805336D01*
X00061474Y00805336D01*
Y00805490D01*
X00060400Y00805490D01*
Y00805643D01*
X00059787D01*
Y00805796D01*
X00059327D01*
Y00805950D01*
X00058867Y00805950D01*
Y00806103D01*
X00058407D01*
Y00806256D01*
X00057947D01*
Y00806410D01*
X00057640Y00806410D01*
Y00806563D01*
X00057333D01*
X00057333Y00806716D01*
X00057027D01*
Y00806870D01*
X00056873Y00806870D01*
Y00807023D01*
X00056567D01*
X00056567Y00807177D01*
X00056260D01*
X00056260Y00807330D01*
X00056107Y00807330D01*
X00056107Y00807483D01*
X00055953Y00807483D01*
Y00807636D01*
X00055646D01*
X00055647Y00807790D01*
X00055493D01*
Y00807943D01*
X00055340D01*
X00055340Y00808096D01*
X00055186Y00808097D01*
X00055187Y00808250D01*
X00055033D01*
Y00808403D01*
X00054880D01*
Y00808557D01*
X00054727Y00808557D01*
X00054727Y00808710D01*
X00054573D01*
Y00808863D01*
X00054420D01*
X00054420Y00809017D01*
X00054266D01*
X00054266Y00809170D01*
X00054113D01*
Y00809323D01*
X00053960Y00809323D01*
Y00809477D01*
X00053806Y00809477D01*
Y00809630D01*
Y00809783D01*
X00053653D01*
X00053653Y00809937D01*
X00053500Y00809937D01*
Y00810090D01*
Y00810243D01*
X00053346Y00810243D01*
Y00810397D01*
X00053193D01*
X00053193Y00810550D01*
X00053193Y00810703D01*
X00053040Y00810703D01*
Y00810857D01*
X00052886D01*
X00052886Y00811010D01*
Y00811163D01*
X00052733Y00811163D01*
Y00811317D01*
Y00811470D01*
X00052580Y00811470D01*
Y00811624D01*
Y00811777D01*
X00052579Y00811930D01*
X00052426Y00811930D01*
X00052426Y00812084D01*
X00052426Y00812237D01*
X00052273D01*
X00052273Y00812390D01*
X00052273Y00812543D01*
X00052273Y00812697D01*
X00052120Y00812697D01*
X00052119Y00812850D01*
X00052119Y00813004D01*
X00052119Y00813157D01*
X00051966D01*
X00051966Y00813310D01*
Y00813464D01*
Y00813617D01*
X00051813Y00813617D01*
Y00813770D01*
Y00813924D01*
Y00814077D01*
Y00814230D01*
Y00814384D01*
X00051659D01*
X00051659Y00814537D01*
X00051659Y00814690D01*
Y00814844D01*
Y00814997D01*
X00051659Y00815151D01*
X00051506Y00815150D01*
X00051506Y00815304D01*
X00051506Y00815457D01*
Y00815611D01*
X00051506Y00815764D01*
Y00815917D01*
X00051506Y00816070D01*
Y00816224D01*
Y00816377D01*
Y00816531D01*
X00051506Y00816684D01*
X00051506Y00816837D01*
Y00816991D01*
Y00817144D01*
Y00817297D01*
Y00817451D01*
Y00817604D01*
X00051506Y00817757D01*
X00051506Y00817911D01*
Y00818064D01*
X00051506Y00818217D01*
X00051506Y00818371D01*
Y00818524D01*
X00051659D01*
Y00818677D01*
Y00818831D01*
Y00818984D01*
Y00819137D01*
Y00819291D01*
X00051813Y00819291D01*
X00051813Y00819444D01*
X00051813Y00819597D01*
Y00819751D01*
X00051813Y00819904D01*
X00051966D01*
Y00820058D01*
Y00820211D01*
Y00820364D01*
Y00820518D01*
X00052119Y00820518D01*
X00052119Y00820671D01*
X00052119Y00820824D01*
X00052120Y00820977D01*
X00052273D01*
Y00821131D01*
X00052273Y00821284D01*
Y00821438D01*
X00052426D01*
Y00821591D01*
X00052426Y00821744D01*
X00052579D01*
Y00821898D01*
X00052580Y00822051D01*
X00052733D01*
X00052733Y00822204D01*
X00052733Y00822358D01*
X00052886Y00822358D01*
Y00822511D01*
Y00822664D01*
X00053040Y00822664D01*
X00053040Y00822818D01*
X00053040Y00822971D01*
X00053193Y00822971D01*
X00053193Y00823124D01*
X00053346Y00823124D01*
X00053346Y00823278D01*
X00053346Y00823431D01*
X00053500Y00823431D01*
Y00823584D01*
Y00823738D01*
X00053653D01*
X00053653Y00823891D01*
X00053806Y00823891D01*
X00053806Y00824044D01*
X00053960Y00824044D01*
X00053960Y00824198D01*
Y00824351D01*
X00054113Y00824351D01*
Y00824504D01*
X00054266Y00824504D01*
X00054266Y00824658D01*
X00054420Y00824658D01*
X00054420Y00824811D01*
X00054573Y00824811D01*
Y00824965D01*
X00054727Y00824965D01*
X00054726Y00825118D01*
X00054880D01*
Y00825271D01*
X00055033Y00825271D01*
X00055033Y00825424D01*
X00055187Y00825425D01*
Y00825578D01*
X00055340Y00825578D01*
X00055340Y00825731D01*
X00055493D01*
Y00825885D01*
X00055647D01*
X00055646Y00826038D01*
X00055953D01*
Y00826191D01*
X00056107D01*
X00056107Y00826345D01*
X00056260D01*
X00056260Y00826498D01*
X00056567Y00826498D01*
X00056567Y00826651D01*
X00056720D01*
Y00826805D01*
X00057027Y00826805D01*
Y00826958D01*
X00057333D01*
X00057333Y00827111D01*
X00057487Y00827111D01*
X00057487Y00827265D01*
X00057793Y00827265D01*
Y00827418D01*
X00058100Y00827418D01*
X00058100Y00827571D01*
X00058560Y00827571D01*
X00058560Y00827725D01*
X00058867Y00827725D01*
X00058867Y00827878D01*
X00059327D01*
X00059327Y00828031D01*
X00059787D01*
X00059787Y00828185D01*
X00060400D01*
Y00828338D01*
X00061320D01*
X00061320Y00828492D01*
X00064694D01*
Y00828338D01*
D02*
G37*
G36*
X00088462Y00827878D02*
X00089229Y00827878D01*
Y00827725D01*
X00089689D01*
X00089689Y00827571D01*
X00089996Y00827571D01*
Y00827418D01*
X00090456Y00827418D01*
Y00827265D01*
X00090609D01*
X00090609Y00827111D01*
X00090916Y00827111D01*
Y00826958D01*
X00091222Y00826958D01*
Y00826805D01*
X00091376D01*
X00091376Y00826651D01*
X00091529Y00826651D01*
X00091529Y00826498D01*
X00091683Y00826498D01*
Y00826345D01*
X00091836D01*
Y00826191D01*
X00092143Y00826191D01*
Y00826038D01*
X00092143Y00825885D01*
X00092296D01*
Y00825731D01*
X00092449Y00825731D01*
Y00825578D01*
X00092603D01*
Y00825425D01*
X00092756D01*
X00092756Y00825271D01*
Y00825118D01*
X00092909Y00825118D01*
Y00824965D01*
Y00824811D01*
X00093063D01*
X00093063Y00824658D01*
X00093063Y00824504D01*
X00093216D01*
X00093216Y00824351D01*
X00093216Y00824198D01*
X00093369D01*
Y00824044D01*
Y00823891D01*
Y00823738D01*
X00093523D01*
Y00823584D01*
Y00823431D01*
Y00823278D01*
Y00823124D01*
X00093523Y00822971D01*
X00093676Y00822971D01*
X00093676Y00822818D01*
X00093676Y00822664D01*
X00093676Y00822511D01*
X00093676Y00822358D01*
X00093676Y00822204D01*
Y00822051D01*
Y00821898D01*
X00093676Y00821744D01*
X00093523D01*
Y00821591D01*
Y00821438D01*
X00093523Y00821284D01*
X00093523Y00821131D01*
Y00820977D01*
Y00820824D01*
X00093369D01*
Y00820671D01*
X00093370Y00820518D01*
X00093369Y00820364D01*
X00093216D01*
Y00820211D01*
X00093216Y00820058D01*
X00093063D01*
Y00819904D01*
Y00819751D01*
X00092909Y00819751D01*
Y00819597D01*
X00092909Y00819444D01*
X00092756D01*
Y00819291D01*
Y00819137D01*
X00092603D01*
Y00818984D01*
X00092449Y00818984D01*
Y00818831D01*
Y00818677D01*
X00092296D01*
Y00818524D01*
X00092143D01*
Y00818371D01*
X00091989D01*
X00091989Y00818217D01*
X00091836D01*
Y00818064D01*
X00091683Y00818064D01*
Y00817911D01*
X00091529Y00817911D01*
Y00817757D01*
X00091223D01*
Y00817604D01*
X00091069D01*
Y00817451D01*
Y00817297D01*
X00091223Y00817297D01*
Y00817144D01*
X00091529D01*
X00091529Y00816991D01*
X00091836D01*
Y00816837D01*
X00091989D01*
X00091989Y00816684D01*
X00092143Y00816684D01*
X00092143Y00816531D01*
X00092449Y00816531D01*
Y00816377D01*
X00092603Y00816377D01*
Y00816224D01*
X00092756D01*
Y00816070D01*
X00092756Y00815917D01*
X00092909Y00815917D01*
Y00815764D01*
X00093063D01*
Y00815611D01*
X00093216D01*
Y00815457D01*
Y00815304D01*
X00093369D01*
X00093370Y00815151D01*
X00093369Y00814997D01*
X00093523D01*
Y00814844D01*
Y00814690D01*
X00093676Y00814690D01*
X00093676Y00814537D01*
Y00814384D01*
X00093829D01*
X00093829Y00814230D01*
Y00814077D01*
X00093983D01*
X00093983Y00813924D01*
X00093983Y00813770D01*
X00093983Y00813617D01*
X00093983Y00813464D01*
X00094136D01*
Y00813310D01*
Y00813157D01*
Y00813003D01*
Y00812850D01*
X00094136Y00812697D01*
X00094136Y00812543D01*
Y00812390D01*
X00094290Y00812390D01*
Y00812237D01*
Y00812084D01*
Y00811930D01*
X00094289Y00811777D01*
Y00811624D01*
X00094136D01*
X00094136Y00811470D01*
Y00811317D01*
Y00811163D01*
Y00811010D01*
Y00810857D01*
Y00810703D01*
Y00810550D01*
X00093983Y00810550D01*
Y00810397D01*
Y00810243D01*
Y00810090D01*
X00093829Y00810090D01*
Y00809937D01*
X00093829Y00809783D01*
X00093829Y00809630D01*
X00093676Y00809630D01*
Y00809477D01*
X00093676Y00809323D01*
X00093523Y00809323D01*
Y00809170D01*
Y00809017D01*
X00093369D01*
Y00808863D01*
X00093216D01*
Y00808710D01*
Y00808557D01*
X00093063D01*
X00093063Y00808403D01*
X00092909Y00808403D01*
Y00808250D01*
X00092756Y00808250D01*
Y00808096D01*
Y00807943D01*
X00092603Y00807943D01*
Y00807790D01*
X00092449D01*
Y00807636D01*
X00092296D01*
X00092296Y00807483D01*
X00092143D01*
Y00807330D01*
X00091836Y00807330D01*
X00091836Y00807177D01*
X00091683D01*
X00091683Y00807023D01*
X00091529D01*
X00091529Y00806870D01*
X00091376D01*
X00091376Y00806716D01*
X00091069D01*
Y00806563D01*
X00090763Y00806563D01*
Y00806410D01*
X00090456Y00806410D01*
Y00806256D01*
X00089996D01*
Y00806103D01*
X00089536D01*
Y00805950D01*
X00088922Y00805950D01*
X00088922Y00805796D01*
X00087696D01*
X00087696Y00805643D01*
X00077575D01*
X00077575Y00805796D01*
X00077728Y00805797D01*
Y00805950D01*
Y00806103D01*
Y00806256D01*
Y00806410D01*
Y00806563D01*
Y00806716D01*
Y00806870D01*
Y00807023D01*
Y00807177D01*
Y00807330D01*
Y00807483D01*
Y00807636D01*
Y00807790D01*
Y00807943D01*
Y00808097D01*
Y00808250D01*
Y00808403D01*
Y00808557D01*
Y00808710D01*
Y00808863D01*
Y00809017D01*
Y00809170D01*
Y00809323D01*
Y00809477D01*
Y00809630D01*
Y00809783D01*
Y00809937D01*
Y00810090D01*
Y00810244D01*
Y00810397D01*
Y00810550D01*
Y00810703D01*
Y00810857D01*
Y00811010D01*
Y00811163D01*
Y00811317D01*
Y00811470D01*
Y00811624D01*
Y00811777D01*
Y00811930D01*
Y00812084D01*
Y00812237D01*
Y00812390D01*
Y00812543D01*
Y00812697D01*
Y00812850D01*
Y00813003D01*
Y00813157D01*
Y00813310D01*
X00077728Y00813464D01*
X00077728Y00813617D01*
Y00813770D01*
Y00813924D01*
Y00814077D01*
Y00814230D01*
Y00814384D01*
Y00814537D01*
Y00814690D01*
Y00814844D01*
X00077728Y00814997D01*
X00077728Y00815151D01*
Y00815304D01*
Y00815457D01*
Y00815611D01*
Y00815764D01*
Y00815917D01*
Y00816070D01*
Y00816224D01*
Y00816377D01*
Y00816531D01*
Y00816684D01*
Y00816837D01*
Y00816991D01*
Y00817144D01*
Y00817297D01*
Y00817451D01*
Y00817604D01*
Y00817757D01*
Y00817911D01*
Y00818064D01*
Y00818217D01*
Y00818371D01*
Y00818524D01*
Y00818677D01*
Y00818831D01*
Y00818984D01*
Y00819137D01*
Y00819291D01*
Y00819444D01*
Y00819597D01*
Y00819751D01*
Y00819904D01*
Y00820058D01*
Y00820211D01*
Y00820364D01*
Y00820518D01*
Y00820671D01*
Y00820824D01*
X00077728Y00820977D01*
X00077728Y00821131D01*
X00077728Y00821284D01*
Y00821438D01*
Y00821591D01*
Y00821744D01*
Y00821898D01*
Y00822051D01*
Y00822204D01*
Y00822358D01*
Y00822511D01*
X00077728Y00822664D01*
X00077728Y00822818D01*
Y00822971D01*
Y00823124D01*
Y00823278D01*
Y00823431D01*
Y00823584D01*
Y00823738D01*
Y00823891D01*
Y00824044D01*
Y00824198D01*
Y00824351D01*
Y00824504D01*
Y00824658D01*
Y00824811D01*
Y00824965D01*
Y00825118D01*
Y00825271D01*
Y00825424D01*
Y00825578D01*
Y00825731D01*
Y00825885D01*
Y00826038D01*
Y00826191D01*
Y00826345D01*
Y00826498D01*
Y00826651D01*
Y00826805D01*
Y00826958D01*
Y00827111D01*
Y00827265D01*
Y00827418D01*
Y00827571D01*
Y00827725D01*
Y00827878D01*
Y00828031D01*
X00088462Y00828031D01*
X00088462Y00827878D01*
D02*
G37*
G36*
X00114224Y00827878D02*
X00114224Y00827725D01*
X00114224Y00827571D01*
X00114378Y00827571D01*
Y00827418D01*
Y00827265D01*
X00114531D01*
Y00827111D01*
Y00826958D01*
X00114684Y00826958D01*
X00114684Y00826805D01*
Y00826651D01*
X00114684Y00826498D01*
X00114838D01*
X00114838Y00826345D01*
X00114838Y00826191D01*
X00114991Y00826191D01*
Y00826038D01*
Y00825885D01*
X00115144D01*
Y00825731D01*
Y00825578D01*
Y00825425D01*
X00115298Y00825424D01*
X00115298Y00825271D01*
X00115298Y00825118D01*
X00115451D01*
X00115451Y00824965D01*
Y00824811D01*
X00115604Y00824811D01*
X00115604Y00824658D01*
Y00824504D01*
X00115604Y00824351D01*
X00115758D01*
Y00824198D01*
Y00824044D01*
X00115911D01*
X00115911Y00823891D01*
X00115911Y00823738D01*
X00116065D01*
X00116065Y00823584D01*
X00116064Y00823431D01*
X00116065Y00823278D01*
X00116218Y00823278D01*
Y00823124D01*
X00116218Y00822971D01*
X00116371Y00822971D01*
Y00822818D01*
Y00822664D01*
X00116524Y00822664D01*
Y00822511D01*
Y00822358D01*
Y00822204D01*
X00116678D01*
X00116678Y00822051D01*
X00116678Y00821898D01*
X00116831Y00821898D01*
Y00821744D01*
Y00821591D01*
X00116985Y00821591D01*
X00116985Y00821438D01*
Y00821284D01*
Y00821131D01*
X00117138Y00821131D01*
Y00820977D01*
X00117138Y00820824D01*
X00117291D01*
Y00820671D01*
X00117291Y00820517D01*
X00117445Y00820518D01*
Y00820364D01*
Y00820211D01*
Y00820058D01*
X00117598D01*
Y00819904D01*
Y00819751D01*
X00117751D01*
X00117751Y00819597D01*
Y00819444D01*
X00117751Y00819291D01*
X00117905Y00819291D01*
Y00819137D01*
Y00818984D01*
X00118058Y00818984D01*
Y00818831D01*
Y00818677D01*
X00118211D01*
X00118211Y00818524D01*
Y00818371D01*
Y00818217D01*
X00118365D01*
Y00818064D01*
X00118365Y00817911D01*
X00118518D01*
X00118518Y00817757D01*
Y00817604D01*
X00118671D01*
Y00817451D01*
X00118671Y00817297D01*
X00118671Y00817144D01*
X00118825D01*
X00118825Y00816991D01*
Y00816837D01*
X00118978D01*
Y00816684D01*
X00118978Y00816531D01*
X00118978Y00816377D01*
X00119131Y00816377D01*
Y00816224D01*
Y00816070D01*
X00119285D01*
Y00815917D01*
Y00815764D01*
X00119438Y00815764D01*
Y00815611D01*
Y00815457D01*
X00119438Y00815304D01*
X00119591D01*
X00119591Y00815150D01*
X00119592Y00814997D01*
X00119745D01*
X00119745Y00814844D01*
X00119745Y00814690D01*
X00119745Y00814537D01*
X00119898Y00814537D01*
Y00814384D01*
Y00814230D01*
X00120051D01*
X00120051Y00814077D01*
Y00813924D01*
Y00813770D01*
X00120205Y00813770D01*
Y00813617D01*
Y00813464D01*
X00120358Y00813464D01*
Y00813310D01*
Y00813157D01*
X00120358Y00813003D01*
X00120512Y00813004D01*
Y00812850D01*
Y00812697D01*
X00120665Y00812697D01*
X00120665Y00812543D01*
X00120665Y00812390D01*
X00120818Y00812390D01*
Y00812237D01*
X00120818Y00812084D01*
X00120971D01*
Y00811930D01*
Y00811777D01*
Y00811624D01*
X00121125D01*
X00121125Y00811470D01*
X00121125Y00811317D01*
X00121278Y00811317D01*
Y00811163D01*
X00121278Y00811010D01*
X00121432Y00811010D01*
X00121432Y00810857D01*
X00121432Y00810703D01*
Y00810550D01*
X00121585Y00810550D01*
Y00810397D01*
Y00810243D01*
X00121738Y00810243D01*
Y00810090D01*
Y00809937D01*
X00121892Y00809937D01*
X00121892Y00809783D01*
X00121892Y00809630D01*
Y00809477D01*
X00122045Y00809477D01*
X00122045Y00809323D01*
X00122045Y00809170D01*
X00122198D01*
Y00809017D01*
X00122198Y00808863D01*
X00122352D01*
X00122352Y00808710D01*
X00122352Y00808557D01*
X00122505D01*
Y00808403D01*
X00122505Y00808250D01*
X00122505Y00808097D01*
X00122658Y00808096D01*
X00122658Y00807943D01*
Y00807790D01*
X00122812D01*
X00122812Y00807636D01*
Y00807483D01*
Y00807330D01*
X00122965D01*
X00122965Y00807177D01*
Y00807023D01*
X00123118D01*
X00123118Y00806870D01*
X00123118Y00806716D01*
X00123272D01*
X00123272Y00806563D01*
X00123272Y00806410D01*
X00123425D01*
Y00806256D01*
X00123425Y00806103D01*
X00123578D01*
Y00805950D01*
X00123578Y00805796D01*
X00123732Y00805796D01*
X00123732Y00805643D01*
X00121585D01*
Y00805796D01*
X00121432D01*
X00121432Y00805950D01*
Y00806103D01*
X00121278D01*
Y00806256D01*
Y00806410D01*
X00121125D01*
Y00806563D01*
Y00806716D01*
X00120971D01*
Y00806870D01*
Y00807023D01*
Y00807177D01*
X00120818D01*
X00120818Y00807330D01*
X00120818Y00807483D01*
X00120665D01*
X00120665Y00807636D01*
X00120665Y00807790D01*
X00120665Y00807943D01*
X00120512Y00807943D01*
X00120512Y00808096D01*
X00120512Y00808250D01*
X00120358D01*
Y00808403D01*
Y00808557D01*
X00120358Y00808710D01*
X00120205D01*
X00120205Y00808863D01*
Y00809017D01*
X00120051Y00809017D01*
X00120051Y00809170D01*
X00120051Y00809323D01*
Y00809477D01*
X00119898D01*
X00119898Y00809630D01*
X00119898Y00809783D01*
X00119745Y00809783D01*
X00119745Y00809937D01*
Y00810090D01*
X00119591Y00810090D01*
Y00810243D01*
Y00810397D01*
X00119591Y00810550D01*
X00119438D01*
X00119438Y00810703D01*
X00119438Y00810857D01*
X00119438Y00811010D01*
X00119285D01*
Y00811163D01*
Y00811317D01*
X00119131D01*
X00119131Y00811470D01*
X00107477Y00811470D01*
X00107477Y00811317D01*
X00107477Y00811163D01*
X00107324D01*
Y00811010D01*
Y00810857D01*
X00107170D01*
Y00810703D01*
Y00810550D01*
Y00810397D01*
X00107017Y00810397D01*
Y00810243D01*
Y00810090D01*
X00106864D01*
Y00809937D01*
X00106864Y00809783D01*
X00106711D01*
X00106711Y00809630D01*
Y00809477D01*
X00106710Y00809323D01*
X00106557Y00809323D01*
Y00809170D01*
Y00809017D01*
X00106404D01*
Y00808863D01*
Y00808710D01*
Y00808557D01*
X00106250Y00808557D01*
Y00808403D01*
Y00808250D01*
X00106097Y00808250D01*
Y00808096D01*
Y00807943D01*
X00105944D01*
X00105944Y00807790D01*
Y00807636D01*
X00105944Y00807483D01*
X00105790Y00807483D01*
X00105790Y00807330D01*
X00105790Y00807177D01*
X00105637D01*
X00105637Y00807023D01*
Y00806870D01*
X00105484Y00806870D01*
X00105484Y00806716D01*
X00105484Y00806563D01*
X00105484Y00806410D01*
X00105330Y00806410D01*
Y00806256D01*
X00105330Y00806103D01*
X00105177D01*
X00105177Y00805950D01*
X00105177Y00805796D01*
Y00805643D01*
X00103030Y00805643D01*
X00103030Y00805796D01*
X00103183D01*
X00103183Y00805950D01*
X00103183Y00806103D01*
Y00806256D01*
X00103337D01*
X00103337Y00806410D01*
Y00806563D01*
X00103490D01*
X00103490Y00806716D01*
Y00806870D01*
X00103644Y00806870D01*
X00103644Y00807023D01*
Y00807177D01*
X00103797D01*
X00103797Y00807330D01*
X00103797Y00807483D01*
X00103797Y00807636D01*
X00103950Y00807636D01*
X00103950Y00807790D01*
X00103950Y00807943D01*
X00104104D01*
X00104103Y00808097D01*
Y00808250D01*
Y00808403D01*
X00104257D01*
Y00808557D01*
Y00808710D01*
X00104410Y00808710D01*
Y00808863D01*
Y00809017D01*
X00104564D01*
X00104564Y00809170D01*
X00104564Y00809323D01*
Y00809477D01*
X00104717D01*
Y00809630D01*
Y00809783D01*
X00104870D01*
X00104870Y00809937D01*
X00104717Y00809937D01*
Y00810090D01*
X00104870Y00810090D01*
X00104870Y00810243D01*
Y00810397D01*
X00105024Y00810397D01*
Y00810550D01*
Y00810703D01*
X00105024Y00810857D01*
X00105177Y00810857D01*
X00105177Y00811010D01*
Y00811163D01*
X00105330Y00811163D01*
X00105330Y00811317D01*
X00105330Y00811470D01*
X00105330Y00811624D01*
X00105484D01*
Y00811777D01*
Y00811930D01*
X00105637D01*
X00105637Y00812084D01*
X00105637Y00812237D01*
Y00812390D01*
X00105790Y00812390D01*
X00105790Y00812543D01*
X00105790Y00812697D01*
X00105944D01*
X00105944Y00812850D01*
X00105944Y00813004D01*
X00106097Y00813003D01*
X00106097Y00813157D01*
X00106097Y00813310D01*
X00106097Y00813464D01*
X00106250D01*
X00106250Y00813617D01*
Y00813770D01*
X00106404Y00813770D01*
Y00813924D01*
Y00814077D01*
X00106557D01*
X00106557Y00814230D01*
X00106557Y00814384D01*
X00106711Y00814384D01*
Y00814537D01*
Y00814690D01*
X00106710Y00814844D01*
X00106864Y00814844D01*
X00106864Y00814997D01*
Y00815151D01*
X00107017D01*
Y00815304D01*
Y00815457D01*
Y00815611D01*
X00107170Y00815611D01*
Y00815764D01*
X00107170Y00815917D01*
X00107324D01*
Y00816070D01*
Y00816224D01*
Y00816377D01*
X00107477D01*
X00107477Y00816531D01*
X00107477Y00816684D01*
X00107631Y00816684D01*
Y00816837D01*
Y00816991D01*
X00107784D01*
Y00817144D01*
X00107784Y00817297D01*
Y00817451D01*
X00107937D01*
X00107937Y00817604D01*
X00107937Y00817757D01*
X00108090D01*
Y00817911D01*
Y00818064D01*
Y00818217D01*
X00108244D01*
X00108244Y00818371D01*
Y00818524D01*
X00108397D01*
X00108397Y00818677D01*
X00108397Y00818831D01*
X00108551D01*
Y00818984D01*
Y00819137D01*
X00108551Y00819291D01*
X00108704D01*
Y00819444D01*
X00108704Y00819597D01*
X00108857D01*
X00108857Y00819751D01*
Y00819904D01*
Y00820058D01*
X00109011D01*
Y00820211D01*
Y00820364D01*
X00109164D01*
Y00820518D01*
Y00820671D01*
X00109317D01*
X00109317Y00820824D01*
X00109317Y00820977D01*
Y00821131D01*
X00109471D01*
X00109471Y00821284D01*
X00109471Y00821438D01*
X00109624Y00821438D01*
X00109624Y00821591D01*
Y00821744D01*
X00109777Y00821744D01*
Y00821898D01*
X00109777Y00822051D01*
X00109931D01*
Y00822204D01*
Y00822358D01*
Y00822511D01*
X00110084Y00822511D01*
Y00822664D01*
Y00822818D01*
X00110237Y00822818D01*
X00110237Y00822971D01*
X00110237Y00823124D01*
X00110391Y00823124D01*
Y00823278D01*
X00110391Y00823431D01*
X00110391Y00823584D01*
X00110544Y00823584D01*
Y00823738D01*
X00110544Y00823891D01*
X00110697Y00823891D01*
Y00824044D01*
X00110697Y00824198D01*
X00110697Y00824351D01*
X00110851D01*
Y00824504D01*
Y00824658D01*
X00111004D01*
X00111004Y00824811D01*
Y00824965D01*
X00111158Y00824965D01*
X00111157Y00825118D01*
X00111158Y00825271D01*
X00111157Y00825425D01*
X00111311Y00825424D01*
Y00825578D01*
Y00825731D01*
X00111464D01*
Y00825885D01*
X00111464Y00826038D01*
X00111464Y00826191D01*
X00111617Y00826191D01*
X00111617Y00826345D01*
Y00826498D01*
X00111771Y00826498D01*
X00111771Y00826651D01*
X00111771Y00826805D01*
X00111924D01*
X00111924Y00826958D01*
X00111924Y00827111D01*
Y00827265D01*
X00112078Y00827265D01*
X00112078Y00827418D01*
X00112078Y00827571D01*
X00112231D01*
Y00827725D01*
Y00827878D01*
Y00828031D01*
X00114224Y00828031D01*
X00114224Y00827878D01*
D02*
G37*
G36*
X00137686D02*
X00138453Y00827878D01*
X00138453Y00827725D01*
X00138913D01*
X00138913Y00827571D01*
X00139373D01*
X00139373Y00827418D01*
X00139680D01*
X00139680Y00827265D01*
X00139986Y00827265D01*
Y00827111D01*
X00140293D01*
X00140293Y00826958D01*
X00140600D01*
Y00826805D01*
X00140753Y00826805D01*
Y00826651D01*
X00140906D01*
X00140906Y00826498D01*
X00141213Y00826498D01*
X00141213Y00826345D01*
X00141366D01*
X00141366Y00826191D01*
X00141520Y00826191D01*
Y00826038D01*
X00141673Y00826038D01*
X00141673Y00825885D01*
X00141826D01*
Y00825731D01*
X00141980D01*
Y00825578D01*
X00142133Y00825578D01*
X00142133Y00825424D01*
Y00825271D01*
X00142287D01*
X00142287Y00825118D01*
X00142440D01*
Y00824965D01*
Y00824811D01*
X00142593Y00824811D01*
Y00824658D01*
X00142747Y00824658D01*
X00142746Y00824504D01*
Y00824351D01*
X00142747Y00824198D01*
X00142900Y00824198D01*
Y00824044D01*
Y00823891D01*
X00142900Y00823738D01*
X00143053Y00823738D01*
Y00823584D01*
Y00823431D01*
Y00823278D01*
X00143207D01*
Y00823124D01*
X00143207Y00822971D01*
Y00822818D01*
Y00822664D01*
X00143207Y00822511D01*
X00143360Y00822511D01*
X00143360Y00822358D01*
X00143360Y00822204D01*
X00143360Y00822051D01*
X00143360Y00821898D01*
Y00821744D01*
X00143360Y00821591D01*
Y00821438D01*
X00143360Y00821284D01*
Y00821131D01*
X00143360Y00820977D01*
X00143360Y00820824D01*
X00143360Y00820671D01*
Y00820518D01*
Y00820364D01*
X00143360Y00820211D01*
X00143207Y00820211D01*
X00143207Y00820058D01*
Y00819904D01*
X00143207Y00819751D01*
X00143207Y00819597D01*
X00143053D01*
Y00819444D01*
Y00819291D01*
Y00819137D01*
X00142900D01*
X00142900Y00818984D01*
X00142900Y00818831D01*
Y00818677D01*
Y00818524D01*
X00142746D01*
Y00818371D01*
Y00818217D01*
X00142593D01*
X00142593Y00818064D01*
Y00817911D01*
X00142440D01*
Y00817757D01*
X00142287D01*
X00142287Y00817604D01*
X00142287Y00817451D01*
X00142133Y00817451D01*
Y00817297D01*
X00141980Y00817297D01*
Y00817144D01*
X00141826D01*
X00141826Y00816991D01*
X00141673D01*
X00141673Y00816837D01*
X00141520D01*
Y00816684D01*
X00141367D01*
X00141366Y00816531D01*
X00141213D01*
X00141213Y00816377D01*
X00141060D01*
X00141060Y00816224D01*
X00140753Y00816224D01*
X00140753Y00816070D01*
X00140600D01*
X00140600Y00815917D01*
X00140293D01*
X00140293Y00815764D01*
X00139986D01*
X00139986Y00815611D01*
X00139680Y00815611D01*
X00139680Y00815457D01*
X00139373Y00815457D01*
X00139373Y00815304D01*
X00138913D01*
X00138913Y00815151D01*
X00138146D01*
Y00814997D01*
Y00814844D01*
X00138146Y00814690D01*
X00138146Y00814537D01*
X00138300D01*
Y00814384D01*
X00138453Y00814384D01*
Y00814230D01*
X00138453Y00814077D01*
X00138606D01*
Y00813924D01*
X00138606Y00813770D01*
X00138760Y00813770D01*
X00138760Y00813617D01*
X00138913Y00813617D01*
Y00813464D01*
X00139066Y00813464D01*
Y00813310D01*
X00139066Y00813157D01*
X00139220D01*
Y00813003D01*
Y00812850D01*
X00139373Y00812850D01*
X00139373Y00812697D01*
X00139526Y00812697D01*
X00139526Y00812543D01*
Y00812390D01*
X00139680Y00812390D01*
X00139680Y00812237D01*
X00139680Y00812084D01*
X00139833D01*
X00139833Y00811930D01*
X00139986D01*
Y00811777D01*
Y00811624D01*
X00140140D01*
Y00811470D01*
Y00811317D01*
X00140293D01*
X00140293Y00811163D01*
X00140446D01*
X00140446Y00811010D01*
X00140446Y00810857D01*
X00140600Y00810857D01*
X00140600Y00810703D01*
X00140600Y00810550D01*
X00140753D01*
X00140753Y00810397D01*
X00140906D01*
X00140906Y00810243D01*
Y00810090D01*
X00141060D01*
X00141060Y00809937D01*
X00141060Y00809783D01*
X00141213Y00809783D01*
Y00809630D01*
X00141366Y00809630D01*
X00141366Y00809477D01*
Y00809323D01*
X00141520D01*
Y00809170D01*
X00141520Y00809017D01*
X00141673Y00809017D01*
X00141673Y00808863D01*
X00141673Y00808710D01*
X00141826Y00808710D01*
Y00808557D01*
X00141980Y00808557D01*
X00141980Y00808403D01*
X00141980Y00808250D01*
X00142133Y00808250D01*
X00142133Y00808097D01*
Y00807943D01*
X00142287Y00807943D01*
X00142287Y00807790D01*
X00142440Y00807790D01*
Y00807636D01*
Y00807483D01*
X00142593D01*
X00142593Y00807330D01*
X00142593Y00807177D01*
X00142746D01*
Y00807023D01*
Y00806870D01*
X00142900D01*
X00142900Y00806716D01*
X00142900Y00806563D01*
X00143053D01*
Y00806410D01*
X00143207D01*
X00143207Y00806256D01*
X00143207Y00806103D01*
X00143360Y00806103D01*
Y00805950D01*
X00143360Y00805796D01*
X00141213Y00805796D01*
X00141213Y00805950D01*
X00141060Y00805950D01*
Y00806103D01*
Y00806256D01*
X00140906D01*
X00140906Y00806410D01*
X00140753Y00806410D01*
Y00806563D01*
X00140753Y00806716D01*
X00140600D01*
Y00806870D01*
X00140446Y00806870D01*
X00140446Y00807023D01*
Y00807177D01*
X00140293D01*
X00140293Y00807330D01*
X00140293Y00807483D01*
X00140140D01*
Y00807636D01*
X00140140Y00807790D01*
X00139986D01*
Y00807943D01*
X00139833D01*
X00139833Y00808097D01*
X00139833Y00808250D01*
X00139680Y00808250D01*
Y00808403D01*
X00139680Y00808557D01*
X00139526D01*
X00139526Y00808710D01*
X00139373Y00808710D01*
Y00808863D01*
Y00809017D01*
X00139220Y00809017D01*
X00139220Y00809170D01*
Y00809323D01*
X00139066Y00809323D01*
Y00809477D01*
X00138913D01*
Y00809630D01*
Y00809783D01*
X00138760D01*
X00138760Y00809937D01*
Y00810090D01*
X00138606Y00810090D01*
Y00810244D01*
X00138453Y00810243D01*
X00138453Y00810397D01*
X00138453Y00810550D01*
X00138300Y00810550D01*
Y00810703D01*
X00138300Y00810857D01*
X00138146D01*
Y00811010D01*
X00138146Y00811163D01*
X00137993D01*
X00137993Y00811317D01*
X00137839D01*
X00137840Y00811470D01*
X00137839Y00811624D01*
X00137686D01*
Y00811777D01*
X00137686Y00811930D01*
X00137533Y00811930D01*
Y00812084D01*
X00137380D01*
X00137380Y00812237D01*
Y00812390D01*
X00137226D01*
X00137226Y00812543D01*
Y00812697D01*
X00137073Y00812697D01*
Y00812850D01*
Y00813003D01*
X00136919Y00813004D01*
Y00813157D01*
X00136766D01*
Y00813310D01*
Y00813464D01*
X00136613Y00813464D01*
X00136613Y00813617D01*
X00136459Y00813617D01*
X00136459Y00813770D01*
X00136459Y00813924D01*
X00136306Y00813924D01*
X00136306Y00814077D01*
Y00814230D01*
X00136153Y00814230D01*
Y00814384D01*
Y00814537D01*
X00135999D01*
X00135999Y00814690D01*
X00135846Y00814690D01*
X00135846Y00814844D01*
X00130019Y00814844D01*
Y00814690D01*
X00129866D01*
Y00814537D01*
Y00814384D01*
X00129866Y00814230D01*
X00129866Y00814077D01*
Y00813924D01*
X00129866Y00813770D01*
Y00813617D01*
X00129866Y00813464D01*
Y00813310D01*
Y00813157D01*
X00129866Y00813004D01*
X00129866Y00812850D01*
Y00812697D01*
X00129866Y00812543D01*
X00129866Y00812390D01*
Y00812237D01*
Y00812084D01*
X00129866Y00811930D01*
X00129866Y00811777D01*
Y00811624D01*
X00129866Y00811470D01*
X00129866Y00811317D01*
X00129866Y00811163D01*
X00129866Y00811010D01*
X00129866Y00810857D01*
Y00810703D01*
Y00810550D01*
X00129866Y00810397D01*
X00129866Y00810243D01*
Y00810090D01*
Y00809937D01*
Y00809783D01*
Y00809630D01*
X00129866Y00809477D01*
X00129866Y00809323D01*
Y00809170D01*
Y00809017D01*
X00129866Y00808863D01*
X00129866Y00808710D01*
Y00808557D01*
Y00808403D01*
Y00808250D01*
Y00808097D01*
Y00807943D01*
X00129866Y00807790D01*
Y00807636D01*
X00129866Y00807483D01*
Y00807330D01*
Y00807177D01*
Y00807023D01*
Y00806870D01*
X00129866Y00806716D01*
X00129866Y00806563D01*
X00129866Y00806410D01*
Y00806256D01*
Y00806103D01*
X00129866Y00805950D01*
X00129866Y00805796D01*
Y00805643D01*
X00128025Y00805643D01*
X00128025Y00805796D01*
Y00805950D01*
Y00806103D01*
Y00806256D01*
Y00806410D01*
Y00806563D01*
Y00806716D01*
Y00806870D01*
Y00807023D01*
Y00807177D01*
Y00807330D01*
Y00807483D01*
Y00807636D01*
Y00807790D01*
Y00807943D01*
Y00808097D01*
Y00808250D01*
Y00808403D01*
Y00808557D01*
Y00808710D01*
Y00808863D01*
Y00809017D01*
Y00809170D01*
Y00809323D01*
Y00809477D01*
Y00809630D01*
Y00809783D01*
Y00809937D01*
Y00810090D01*
Y00810243D01*
Y00810397D01*
Y00810550D01*
Y00810703D01*
Y00810857D01*
Y00811010D01*
Y00811163D01*
Y00811317D01*
X00128025Y00811470D01*
X00128025Y00811624D01*
Y00811777D01*
Y00811930D01*
Y00812084D01*
Y00812237D01*
Y00812390D01*
Y00812543D01*
Y00812697D01*
Y00812850D01*
Y00813004D01*
Y00813157D01*
Y00813310D01*
X00128025Y00813464D01*
X00128025Y00813617D01*
Y00813770D01*
Y00813924D01*
Y00814077D01*
Y00814230D01*
Y00814384D01*
Y00814537D01*
Y00814690D01*
Y00814844D01*
Y00814997D01*
Y00815151D01*
Y00815304D01*
Y00815457D01*
Y00815611D01*
Y00815764D01*
Y00815917D01*
Y00816070D01*
Y00816224D01*
Y00816377D01*
Y00816531D01*
Y00816684D01*
X00128026Y00816837D01*
X00128025Y00816991D01*
Y00817144D01*
Y00817297D01*
Y00817451D01*
Y00817604D01*
Y00817757D01*
Y00817911D01*
Y00818064D01*
Y00818217D01*
Y00818371D01*
Y00818524D01*
Y00818677D01*
Y00818831D01*
Y00818984D01*
X00128025Y00819137D01*
X00128025Y00819291D01*
Y00819444D01*
Y00819597D01*
Y00819751D01*
Y00819904D01*
Y00820058D01*
Y00820211D01*
Y00820364D01*
Y00820518D01*
Y00820671D01*
Y00820824D01*
Y00820977D01*
Y00821131D01*
X00128025Y00821284D01*
X00128025Y00821438D01*
Y00821591D01*
Y00821744D01*
Y00821898D01*
Y00822051D01*
Y00822204D01*
Y00822358D01*
Y00822511D01*
X00128025Y00822664D01*
Y00822818D01*
X00128025Y00822971D01*
Y00823124D01*
Y00823278D01*
Y00823431D01*
Y00823584D01*
Y00823738D01*
Y00823891D01*
Y00824044D01*
Y00824198D01*
Y00824351D01*
Y00824504D01*
X00128025Y00824658D01*
X00128025Y00824811D01*
Y00824965D01*
Y00825118D01*
Y00825271D01*
Y00825425D01*
Y00825578D01*
Y00825731D01*
Y00825885D01*
Y00826038D01*
Y00826191D01*
Y00826345D01*
Y00826498D01*
Y00826651D01*
Y00826805D01*
Y00826958D01*
Y00827111D01*
Y00827265D01*
X00128025Y00827418D01*
X00128025Y00827571D01*
Y00827725D01*
Y00827878D01*
Y00828031D01*
X00137686D01*
X00137686Y00827878D01*
D02*
G37*
G36*
X00161915D02*
X00161761D01*
Y00827725D01*
Y00827571D01*
Y00827418D01*
Y00827265D01*
Y00827111D01*
Y00826958D01*
Y00826805D01*
X00161761Y00826651D01*
X00161761Y00826498D01*
Y00826345D01*
X00161915D01*
X00161915Y00826191D01*
X00154861Y00826191D01*
Y00826038D01*
X00154707D01*
X00154707Y00825885D01*
X00154707Y00825731D01*
X00154707Y00825578D01*
Y00825424D01*
Y00825271D01*
Y00825118D01*
Y00824965D01*
Y00824811D01*
X00154707Y00824658D01*
X00154707Y00824504D01*
Y00824351D01*
Y00824198D01*
X00154707Y00824044D01*
X00154707Y00823891D01*
Y00823738D01*
Y00823584D01*
Y00823431D01*
Y00823278D01*
Y00823124D01*
X00154707Y00822971D01*
Y00822818D01*
X00154707Y00822664D01*
X00154707Y00822511D01*
Y00822358D01*
Y00822204D01*
Y00822051D01*
Y00821898D01*
Y00821744D01*
Y00821591D01*
Y00821438D01*
X00154707Y00821284D01*
Y00821131D01*
X00154707Y00820977D01*
X00154707Y00820824D01*
Y00820671D01*
Y00820518D01*
Y00820364D01*
Y00820211D01*
X00154707Y00820058D01*
X00154707Y00819904D01*
Y00819751D01*
X00154707Y00819597D01*
X00154707Y00819444D01*
X00154707Y00819291D01*
Y00819137D01*
Y00818984D01*
Y00818831D01*
Y00818677D01*
Y00818524D01*
Y00818371D01*
Y00818217D01*
Y00818064D01*
X00154707Y00817911D01*
X00154707Y00817757D01*
Y00817604D01*
Y00817451D01*
X00154707Y00817297D01*
X00154707Y00817144D01*
Y00816991D01*
X00154707Y00816837D01*
X00154707Y00816684D01*
Y00816531D01*
Y00816377D01*
Y00816224D01*
Y00816070D01*
Y00815917D01*
X00154707Y00815764D01*
X00154707Y00815611D01*
Y00815457D01*
X00154707Y00815304D01*
Y00815150D01*
X00154707Y00814997D01*
X00154707Y00814844D01*
Y00814690D01*
Y00814537D01*
Y00814384D01*
Y00814230D01*
Y00814077D01*
Y00813924D01*
Y00813770D01*
Y00813617D01*
X00154707Y00813464D01*
X00154707Y00813310D01*
X00154707Y00813157D01*
Y00813003D01*
Y00812850D01*
Y00812697D01*
Y00812543D01*
Y00812390D01*
Y00812237D01*
X00154707Y00812084D01*
Y00811930D01*
X00154707Y00811777D01*
X00154707Y00811624D01*
Y00811470D01*
X00154707Y00811317D01*
X00154707Y00811163D01*
Y00811010D01*
X00154707Y00810857D01*
X00154707Y00810703D01*
X00154707Y00810550D01*
X00154707Y00810397D01*
Y00810243D01*
X00154707Y00810090D01*
X00154707Y00809937D01*
Y00809783D01*
X00154707Y00809630D01*
Y00809477D01*
Y00809323D01*
Y00809170D01*
X00154707Y00809017D01*
Y00808863D01*
Y00808710D01*
X00154707Y00808557D01*
Y00808403D01*
Y00808250D01*
Y00808097D01*
Y00807943D01*
Y00807790D01*
Y00807636D01*
Y00807483D01*
X00154707Y00807330D01*
X00154707Y00807177D01*
Y00807023D01*
Y00806870D01*
Y00806716D01*
Y00806563D01*
Y00806410D01*
Y00806256D01*
Y00806103D01*
Y00805950D01*
X00154707Y00805796D01*
X00154861Y00805796D01*
X00154861Y00805643D01*
X00152714D01*
X00152714Y00805796D01*
X00152867D01*
X00152867Y00805950D01*
Y00806103D01*
X00152867Y00806256D01*
Y00806410D01*
X00152867Y00806563D01*
X00152867Y00806716D01*
X00152867Y00806870D01*
X00152867Y00807023D01*
X00152867Y00807177D01*
X00152867Y00807330D01*
X00152867Y00807483D01*
X00152867Y00807636D01*
X00152867Y00807790D01*
Y00807943D01*
X00152867Y00808097D01*
Y00808250D01*
X00152867Y00808403D01*
X00152867Y00808557D01*
Y00808710D01*
X00152867Y00808863D01*
Y00809017D01*
X00152867Y00809170D01*
X00152867Y00809323D01*
X00152867Y00809477D01*
X00152867Y00809630D01*
Y00809783D01*
X00152867Y00809937D01*
X00152867Y00810090D01*
X00152867Y00810243D01*
X00152867Y00810397D01*
Y00810550D01*
X00152867Y00810703D01*
X00152867Y00810857D01*
X00152867Y00811010D01*
X00152867Y00811163D01*
Y00811317D01*
X00152867Y00811470D01*
X00152867Y00811624D01*
X00152867Y00811777D01*
X00152867Y00811930D01*
Y00812084D01*
X00152867Y00812237D01*
X00152867Y00812390D01*
X00152867Y00812543D01*
Y00812697D01*
X00152867Y00812850D01*
X00152867Y00813003D01*
X00152867Y00813157D01*
X00152867Y00813310D01*
Y00813464D01*
X00152867Y00813617D01*
X00152867Y00813770D01*
Y00813924D01*
X00152867Y00814077D01*
X00152867Y00814230D01*
X00152867Y00814384D01*
Y00814537D01*
X00152867Y00814690D01*
X00152867Y00814844D01*
Y00814997D01*
Y00815151D01*
X00152867Y00815304D01*
X00152867Y00815457D01*
Y00815611D01*
X00152867Y00815764D01*
Y00815917D01*
X00152867Y00816070D01*
X00152867Y00816224D01*
X00152867Y00816377D01*
X00152867Y00816531D01*
X00152867Y00816684D01*
X00152867Y00816837D01*
X00152867Y00816991D01*
Y00817144D01*
X00152867Y00817297D01*
X00152867Y00817451D01*
X00152867Y00817604D01*
X00152867Y00817757D01*
Y00817911D01*
Y00818064D01*
X00152867Y00818217D01*
X00152867Y00818371D01*
Y00818524D01*
X00152867Y00818677D01*
Y00818831D01*
Y00818984D01*
X00152867Y00819137D01*
X00152867Y00819291D01*
X00152867Y00819444D01*
X00152867Y00819597D01*
Y00819751D01*
Y00819904D01*
X00152867Y00820058D01*
X00152867Y00820211D01*
Y00820364D01*
Y00820518D01*
X00152867Y00820671D01*
X00152867Y00820824D01*
X00152867Y00820977D01*
X00152867Y00821131D01*
Y00821284D01*
Y00821438D01*
X00152867Y00821591D01*
X00152867Y00821744D01*
Y00821898D01*
X00152867Y00822051D01*
Y00822204D01*
X00152867Y00822358D01*
Y00822511D01*
X00152867Y00822664D01*
X00152867Y00822818D01*
X00152867Y00822971D01*
Y00823124D01*
Y00823278D01*
X00152867Y00823431D01*
X00152867Y00823584D01*
Y00823738D01*
Y00823891D01*
X00152867Y00824044D01*
X00152867Y00824198D01*
Y00824351D01*
X00152867Y00824504D01*
X00152867Y00824658D01*
X00152867Y00824811D01*
Y00824965D01*
X00152867Y00825118D01*
X00152867Y00825271D01*
X00152867Y00825424D01*
X00152867Y00825578D01*
X00152867Y00825731D01*
Y00825885D01*
X00152867Y00826038D01*
X00152714D01*
X00152714Y00826191D01*
X00145660D01*
Y00826345D01*
X00145813Y00826345D01*
Y00826498D01*
X00145814Y00826651D01*
X00145813Y00826805D01*
Y00826958D01*
X00145814Y00827111D01*
X00145814Y00827265D01*
X00145813Y00827418D01*
Y00827571D01*
X00145814Y00827725D01*
Y00827878D01*
X00145660D01*
X00145660Y00828031D01*
X00161915D01*
Y00827878D01*
D02*
G37*
G36*
X00172189Y00828185D02*
X00174029Y00828185D01*
X00174029Y00828031D01*
X00174642D01*
X00174642Y00827878D01*
X00175256D01*
X00175256Y00827725D01*
X00175562D01*
Y00827571D01*
X00176022Y00827571D01*
X00176022Y00827418D01*
X00176329Y00827418D01*
X00176329Y00827265D01*
X00176483Y00827265D01*
X00176483Y00827111D01*
X00176789Y00827111D01*
X00176789Y00826958D01*
X00176943Y00826958D01*
Y00826805D01*
X00177249D01*
X00177249Y00826651D01*
X00177403Y00826651D01*
Y00826498D01*
X00177556Y00826498D01*
Y00826345D01*
X00177709D01*
Y00826191D01*
X00177863Y00826191D01*
X00177863Y00826038D01*
X00178016D01*
X00178016Y00825885D01*
X00178169D01*
Y00825731D01*
Y00825578D01*
X00178323D01*
Y00825424D01*
X00178476Y00825425D01*
X00178476Y00825271D01*
Y00825118D01*
X00178629Y00825118D01*
X00178629Y00824965D01*
X00178783Y00824965D01*
Y00824811D01*
Y00824658D01*
X00178936D01*
X00178936Y00824504D01*
X00178936Y00824351D01*
X00178936Y00824198D01*
X00179089Y00824198D01*
Y00824044D01*
X00179089Y00823891D01*
Y00823738D01*
X00179243D01*
Y00823584D01*
Y00823431D01*
Y00823278D01*
Y00823124D01*
Y00822971D01*
X00179396Y00822971D01*
Y00822818D01*
Y00822664D01*
X00179396Y00822511D01*
Y00822358D01*
X00179396Y00822204D01*
X00179396Y00822051D01*
X00179396Y00821898D01*
X00179243Y00821898D01*
Y00822051D01*
X00177556Y00822051D01*
Y00821898D01*
X00177402D01*
X00177403Y00822051D01*
X00177403Y00822204D01*
Y00822358D01*
Y00822511D01*
X00177249D01*
Y00822664D01*
X00177249Y00822818D01*
X00177249Y00822971D01*
Y00823124D01*
Y00823278D01*
X00177096Y00823278D01*
X00177096Y00823431D01*
Y00823584D01*
X00176943Y00823584D01*
Y00823738D01*
Y00823891D01*
X00176789Y00823891D01*
Y00824044D01*
Y00824198D01*
X00176636Y00824198D01*
Y00824351D01*
X00176483D01*
X00176483Y00824504D01*
X00176483Y00824658D01*
X00176329D01*
X00176329Y00824811D01*
X00176176Y00824811D01*
X00176176Y00824965D01*
X00176022Y00824965D01*
X00176022Y00825118D01*
X00175869D01*
X00175869Y00825271D01*
X00175562Y00825271D01*
X00175562Y00825425D01*
X00175409Y00825424D01*
Y00825578D01*
X00175102D01*
Y00825731D01*
X00174796Y00825731D01*
Y00825885D01*
X00174489D01*
X00174489Y00826038D01*
X00174029D01*
Y00826191D01*
X00173262D01*
Y00826345D01*
X00170655D01*
Y00826191D01*
X00170042Y00826191D01*
X00170042Y00826038D01*
X00169582Y00826038D01*
Y00825885D01*
X00169122D01*
Y00825731D01*
X00168815Y00825731D01*
Y00825578D01*
X00168509Y00825578D01*
X00168508Y00825424D01*
X00168355Y00825425D01*
X00168355Y00825271D01*
X00168048Y00825271D01*
X00168049Y00825118D01*
X00167895Y00825118D01*
Y00824965D01*
X00167742D01*
Y00824811D01*
X00167589Y00824811D01*
Y00824658D01*
X00167435Y00824658D01*
Y00824504D01*
X00167282D01*
X00167282Y00824351D01*
X00167282Y00824198D01*
X00167128D01*
X00167128Y00824044D01*
X00166975Y00824044D01*
Y00823891D01*
Y00823738D01*
X00166822Y00823738D01*
Y00823584D01*
X00166822Y00823431D01*
X00166822Y00823278D01*
X00166668D01*
X00166668Y00823124D01*
X00166668Y00822971D01*
Y00822818D01*
Y00822664D01*
X00166668Y00822511D01*
X00166668Y00822358D01*
X00166668Y00822204D01*
Y00822051D01*
X00166668Y00821898D01*
Y00821744D01*
X00166668Y00821591D01*
Y00821438D01*
X00166668Y00821284D01*
X00166822D01*
X00166822Y00821131D01*
Y00820977D01*
X00166822Y00820824D01*
X00166975D01*
Y00820671D01*
X00167128D01*
X00167128Y00820518D01*
X00167282D01*
Y00820364D01*
Y00820211D01*
X00167435Y00820211D01*
Y00820058D01*
X00167589D01*
X00167589Y00819904D01*
X00167742D01*
Y00819751D01*
X00168048Y00819751D01*
Y00819597D01*
X00168202Y00819597D01*
Y00819444D01*
X00168508D01*
X00168509Y00819291D01*
X00168815D01*
Y00819137D01*
X00169122Y00819137D01*
Y00818984D01*
X00169429Y00818984D01*
Y00818831D01*
X00169889Y00818831D01*
X00169889Y00818677D01*
X00170349D01*
Y00818524D01*
X00170962Y00818524D01*
Y00818371D01*
X00171576D01*
X00171576Y00818217D01*
X00172189D01*
Y00818064D01*
X00172802Y00818064D01*
X00172802Y00817911D01*
X00173416D01*
Y00817757D01*
X00174029D01*
Y00817604D01*
X00174489D01*
Y00817451D01*
X00175102Y00817451D01*
X00175102Y00817297D01*
X00175562Y00817297D01*
Y00817144D01*
X00176022D01*
X00176022Y00816991D01*
X00176329D01*
X00176329Y00816837D01*
X00176636D01*
X00176636Y00816684D01*
X00176943D01*
X00176943Y00816531D01*
X00177249D01*
Y00816377D01*
X00177556D01*
X00177556Y00816224D01*
X00177863D01*
X00177863Y00816070D01*
X00178016Y00816070D01*
X00178016Y00815917D01*
X00178169D01*
X00178169Y00815764D01*
X00178323Y00815764D01*
X00178323Y00815611D01*
X00178476D01*
Y00815457D01*
X00178629D01*
Y00815304D01*
X00178783D01*
X00178783Y00815151D01*
X00178936D01*
Y00814997D01*
X00179089D01*
X00179089Y00814844D01*
X00179243D01*
Y00814690D01*
X00179396Y00814690D01*
Y00814537D01*
X00179396Y00814384D01*
X00179549Y00814384D01*
X00179550Y00814230D01*
Y00814077D01*
X00179703Y00814077D01*
X00179703Y00813924D01*
X00179703Y00813770D01*
Y00813617D01*
X00179856Y00813617D01*
Y00813464D01*
Y00813310D01*
X00179856Y00813157D01*
X00179856Y00813003D01*
X00180009D01*
X00180009Y00812850D01*
X00180009Y00812697D01*
X00180009Y00812543D01*
X00180009Y00812390D01*
X00180009Y00812237D01*
X00180009Y00812084D01*
X00180009Y00811930D01*
X00180009Y00811777D01*
Y00811624D01*
X00180009Y00811470D01*
X00180009Y00811317D01*
X00180009Y00811163D01*
X00180009Y00811010D01*
Y00810857D01*
X00180009Y00810703D01*
X00180009Y00810550D01*
X00180009Y00810397D01*
X00179856D01*
Y00810243D01*
Y00810090D01*
X00179856Y00809937D01*
X00179856Y00809783D01*
X00179703Y00809783D01*
Y00809630D01*
Y00809477D01*
Y00809323D01*
X00179549D01*
X00179549Y00809170D01*
Y00809017D01*
X00179396D01*
Y00808863D01*
X00179396Y00808710D01*
X00179243D01*
Y00808557D01*
Y00808403D01*
X00179089Y00808403D01*
Y00808250D01*
X00178936D01*
Y00808097D01*
Y00807943D01*
X00178783D01*
Y00807790D01*
X00178629Y00807790D01*
Y00807636D01*
X00178476Y00807636D01*
Y00807483D01*
X00178323D01*
X00178323Y00807330D01*
X00178169Y00807330D01*
Y00807177D01*
X00178016D01*
Y00807023D01*
X00177709D01*
Y00806870D01*
X00177556D01*
Y00806716D01*
X00177249D01*
Y00806563D01*
X00177096Y00806563D01*
X00177096Y00806410D01*
X00176789Y00806410D01*
Y00806256D01*
X00176329D01*
Y00806103D01*
X00175869Y00806103D01*
Y00805950D01*
X00175409Y00805950D01*
X00175409Y00805796D01*
X00174949Y00805796D01*
X00174949Y00805643D01*
X00174182D01*
X00174182Y00805490D01*
X00170349Y00805490D01*
X00170349Y00805643D01*
X00169582Y00805643D01*
Y00805796D01*
X00169122Y00805796D01*
X00169122Y00805950D01*
X00168508Y00805950D01*
Y00806103D01*
X00168049D01*
X00168048Y00806256D01*
X00167742D01*
Y00806410D01*
X00167435D01*
X00167435Y00806563D01*
X00167128Y00806563D01*
Y00806716D01*
X00166975D01*
Y00806870D01*
X00166822D01*
X00166822Y00807023D01*
X00166515Y00807023D01*
Y00807177D01*
X00166362D01*
Y00807330D01*
X00166208Y00807330D01*
X00166208Y00807483D01*
X00166055Y00807483D01*
Y00807636D01*
X00165902D01*
Y00807790D01*
X00165748Y00807790D01*
Y00807943D01*
X00165595Y00807943D01*
Y00808097D01*
Y00808250D01*
X00165442D01*
Y00808403D01*
X00165288Y00808403D01*
Y00808557D01*
Y00808710D01*
X00165135D01*
Y00808863D01*
X00164982Y00808863D01*
Y00809017D01*
X00164981Y00809170D01*
X00164982Y00809323D01*
X00164828D01*
Y00809477D01*
X00164828Y00809630D01*
X00164675D01*
Y00809783D01*
Y00809937D01*
Y00810090D01*
Y00810243D01*
X00164522Y00810243D01*
X00164522Y00810397D01*
X00164522Y00810550D01*
Y00810703D01*
X00164522Y00810857D01*
X00164368Y00810857D01*
Y00811010D01*
X00164368Y00811163D01*
X00164368Y00811317D01*
Y00811470D01*
X00164368Y00811624D01*
X00164368Y00811777D01*
Y00811930D01*
Y00812084D01*
X00164215D01*
X00164215Y00812237D01*
X00166208D01*
X00166208Y00812084D01*
Y00811930D01*
Y00811777D01*
Y00811624D01*
Y00811470D01*
Y00811317D01*
X00166208Y00811163D01*
X00166362D01*
Y00811010D01*
Y00810857D01*
X00166362Y00810703D01*
X00166515D01*
Y00810550D01*
Y00810397D01*
Y00810243D01*
X00166668Y00810243D01*
Y00810090D01*
Y00809937D01*
X00166822Y00809937D01*
X00166822Y00809783D01*
X00166975D01*
Y00809630D01*
Y00809477D01*
X00167128D01*
Y00809323D01*
X00167282D01*
X00167282Y00809170D01*
X00167435Y00809170D01*
Y00809017D01*
X00167589D01*
Y00808863D01*
X00167742Y00808863D01*
X00167742Y00808710D01*
X00167895D01*
X00167895Y00808557D01*
X00168048Y00808557D01*
Y00808403D01*
X00168355Y00808403D01*
Y00808250D01*
X00168509Y00808250D01*
X00168508Y00808096D01*
X00168815Y00808097D01*
Y00807943D01*
X00169122Y00807943D01*
X00169122Y00807790D01*
X00169429D01*
Y00807636D01*
X00169735D01*
X00169735Y00807483D01*
X00170349D01*
Y00807330D01*
X00170962Y00807330D01*
Y00807177D01*
X00173416D01*
X00173416Y00807330D01*
X00174182Y00807330D01*
Y00807483D01*
X00174642Y00807483D01*
X00174642Y00807636D01*
X00175102Y00807636D01*
Y00807790D01*
X00175409D01*
Y00807943D01*
X00175716Y00807943D01*
X00175716Y00808097D01*
X00175869D01*
Y00808250D01*
X00176022Y00808250D01*
X00176022Y00808403D01*
X00176329Y00808403D01*
X00176329Y00808557D01*
X00176483Y00808557D01*
X00176483Y00808710D01*
X00176636D01*
X00176636Y00808863D01*
X00176789Y00808863D01*
X00176789Y00809017D01*
X00176943D01*
Y00809170D01*
X00177096D01*
X00177096Y00809323D01*
X00177249Y00809323D01*
Y00809477D01*
Y00809630D01*
X00177403D01*
X00177402Y00809783D01*
X00177403Y00809937D01*
X00177556D01*
Y00810090D01*
Y00810243D01*
X00177709D01*
Y00810397D01*
Y00810550D01*
Y00810703D01*
X00177863D01*
Y00810857D01*
X00177863Y00811010D01*
X00177863Y00811163D01*
Y00811317D01*
X00177863Y00811470D01*
Y00811624D01*
X00177863Y00811777D01*
X00177863Y00811930D01*
X00177863Y00812084D01*
X00177863Y00812237D01*
X00177863Y00812390D01*
X00177863Y00812543D01*
Y00812697D01*
X00177863Y00812850D01*
X00177709D01*
X00177709Y00813003D01*
Y00813157D01*
Y00813310D01*
X00177556Y00813310D01*
Y00813464D01*
X00177403Y00813464D01*
Y00813617D01*
Y00813770D01*
X00177249Y00813770D01*
Y00813924D01*
X00177096D01*
X00177096Y00814077D01*
X00176943Y00814077D01*
Y00814230D01*
X00176789D01*
Y00814384D01*
X00176636D01*
X00176636Y00814537D01*
X00176329D01*
X00176329Y00814690D01*
X00176176D01*
X00176176Y00814844D01*
X00175869Y00814844D01*
Y00814997D01*
X00175562D01*
Y00815150D01*
X00175256Y00815151D01*
X00175256Y00815304D01*
X00174796D01*
Y00815457D01*
X00174336Y00815457D01*
X00174336Y00815611D01*
X00173876D01*
X00173876Y00815764D01*
X00173416Y00815764D01*
Y00815917D01*
X00172802D01*
Y00816070D01*
X00172036D01*
X00172036Y00816224D01*
X00171422D01*
X00171422Y00816377D01*
X00170809Y00816377D01*
X00170809Y00816531D01*
X00170195D01*
X00170195Y00816684D01*
X00169582D01*
Y00816837D01*
X00168969D01*
Y00816991D01*
X00168508D01*
Y00817144D01*
X00168202D01*
X00168202Y00817297D01*
X00167895D01*
Y00817451D01*
X00167435Y00817451D01*
Y00817604D01*
X00167128D01*
Y00817757D01*
X00166975D01*
Y00817911D01*
X00166668D01*
X00166668Y00818064D01*
X00166515D01*
X00166515Y00818217D01*
X00166362Y00818217D01*
Y00818371D01*
X00166208Y00818371D01*
X00166208Y00818524D01*
X00166055D01*
Y00818677D01*
X00165902Y00818677D01*
Y00818831D01*
X00165748Y00818831D01*
Y00818984D01*
X00165595D01*
X00165595Y00819137D01*
X00165442Y00819137D01*
X00165442Y00819291D01*
X00165288Y00819291D01*
Y00819444D01*
Y00819597D01*
X00165135D01*
Y00819751D01*
X00165135Y00819904D01*
X00165135Y00820058D01*
X00164982D01*
X00164982Y00820211D01*
Y00820364D01*
X00164982Y00820518D01*
X00164982Y00820671D01*
Y00820824D01*
X00164828D01*
X00164828Y00820977D01*
Y00821131D01*
X00164828Y00821284D01*
X00164828Y00821438D01*
Y00821591D01*
X00164828Y00821744D01*
Y00821898D01*
Y00822051D01*
X00164675Y00822051D01*
Y00822204D01*
X00164828Y00822204D01*
X00164828Y00822358D01*
X00164828Y00822511D01*
X00164828Y00822664D01*
X00164828Y00822818D01*
Y00822971D01*
X00164828Y00823124D01*
Y00823278D01*
X00164828Y00823431D01*
Y00823584D01*
Y00823738D01*
X00164982Y00823738D01*
X00164981Y00823891D01*
X00164982Y00824044D01*
X00164982Y00824198D01*
Y00824351D01*
X00165135Y00824351D01*
X00165135Y00824504D01*
Y00824658D01*
Y00824811D01*
X00165288Y00824811D01*
Y00824965D01*
Y00825118D01*
X00165442Y00825118D01*
X00165442Y00825271D01*
X00165595Y00825271D01*
X00165595Y00825424D01*
X00165595Y00825578D01*
X00165748D01*
Y00825731D01*
X00165902Y00825731D01*
X00165902Y00825884D01*
X00165902Y00826038D01*
X00166055Y00826038D01*
X00166055Y00826191D01*
X00166208D01*
Y00826345D01*
X00166362Y00826345D01*
Y00826498D01*
X00166515D01*
Y00826651D01*
X00166822Y00826651D01*
X00166822Y00826805D01*
X00166975D01*
Y00826958D01*
X00167129Y00826958D01*
X00167128Y00827111D01*
X00167435D01*
Y00827265D01*
X00167742Y00827265D01*
Y00827418D01*
X00168048Y00827418D01*
Y00827571D01*
X00168355D01*
X00168355Y00827725D01*
X00168815D01*
Y00827878D01*
X00169275D01*
X00169275Y00828031D01*
X00170042D01*
X00170042Y00828185D01*
X00171882D01*
X00171882Y00828338D01*
X00172189Y00828338D01*
Y00828185D01*
D02*
G37*
G36*
X00306916Y00819036D02*
X00307120Y00819017D01*
X00307342Y00818980D01*
X00307601Y00818943D01*
X00307879Y00818888D01*
X00308175Y00818813D01*
X00308490Y00818721D01*
X00308805Y00818610D01*
X00309138Y00818462D01*
X00309453Y00818314D01*
X00309749Y00818128D01*
X00310064Y00817906D01*
X00310341Y00817665D01*
X00310360D01*
X00310378Y00817628D01*
X00310434Y00817573D01*
X00310490Y00817517D01*
X00310564Y00817425D01*
X00310638Y00817314D01*
X00310841Y00817054D01*
X00311045Y00816721D01*
X00311267Y00816314D01*
X00311471Y00815851D01*
X00311656Y00815314D01*
X00309101Y00814703D01*
Y00814721D01*
X00309082Y00814740D01*
Y00814795D01*
X00309045Y00814870D01*
X00308990Y00815036D01*
X00308897Y00815258D01*
X00308768Y00815518D01*
X00308601Y00815777D01*
X00308379Y00816036D01*
X00308138Y00816258D01*
X00308101Y00816277D01*
X00308008Y00816351D01*
X00307860Y00816443D01*
X00307657Y00816554D01*
X00307397Y00816666D01*
X00307101Y00816758D01*
X00306768Y00816832D01*
X00306397Y00816851D01*
X00306268D01*
X00306157Y00816832D01*
X00306046Y00816814D01*
X00305898Y00816795D01*
X00305583Y00816721D01*
X00305212Y00816591D01*
X00304823Y00816406D01*
X00304620Y00816295D01*
X00304435Y00816166D01*
X00304249Y00815999D01*
X00304083Y00815814D01*
Y00815795D01*
X00304046Y00815758D01*
X00304009Y00815703D01*
X00303953Y00815610D01*
X00303879Y00815499D01*
X00303805Y00815369D01*
X00303731Y00815203D01*
X00303657Y00815018D01*
X00303564Y00814795D01*
X00303490Y00814555D01*
X00303416Y00814277D01*
X00303342Y00813981D01*
X00303287Y00813647D01*
X00303250Y00813296D01*
X00303231Y00812907D01*
X00303213Y00812481D01*
Y00812462D01*
Y00812370D01*
Y00812240D01*
X00303231Y00812092D01*
Y00811888D01*
X00303268Y00811648D01*
X00303287Y00811407D01*
X00303324Y00811129D01*
X00303435Y00810555D01*
X00303583Y00809981D01*
X00303675Y00809703D01*
X00303805Y00809444D01*
X00303935Y00809203D01*
X00304083Y00809000D01*
X00304101Y00808981D01*
X00304120Y00808963D01*
X00304175Y00808907D01*
X00304249Y00808833D01*
X00304435Y00808685D01*
X00304694Y00808500D01*
X00305009Y00808296D01*
X00305397Y00808148D01*
X00305842Y00808018D01*
X00306083Y00808000D01*
X00306342Y00807981D01*
X00306434D01*
X00306509Y00808000D01*
X00306712Y00808018D01*
X00306953Y00808055D01*
X00307212Y00808148D01*
X00307508Y00808259D01*
X00307805Y00808407D01*
X00308101Y00808629D01*
X00308138Y00808666D01*
X00308231Y00808759D01*
X00308360Y00808907D01*
X00308508Y00809129D01*
X00308694Y00809426D01*
X00308860Y00809777D01*
X00309027Y00810203D01*
X00309175Y00810703D01*
X00311693Y00809926D01*
Y00809907D01*
X00311675Y00809833D01*
X00311638Y00809722D01*
X00311582Y00809574D01*
X00311508Y00809407D01*
X00311434Y00809203D01*
X00311341Y00808981D01*
X00311230Y00808740D01*
X00310971Y00808241D01*
X00310638Y00807722D01*
X00310230Y00807222D01*
X00310008Y00807000D01*
X00309767Y00806796D01*
X00309749Y00806778D01*
X00309712Y00806759D01*
X00309638Y00806704D01*
X00309527Y00806630D01*
X00309397Y00806555D01*
X00309230Y00806481D01*
X00309045Y00806389D01*
X00308842Y00806296D01*
X00308601Y00806185D01*
X00308342Y00806093D01*
X00308064Y00806019D01*
X00307768Y00805945D01*
X00307453Y00805870D01*
X00307101Y00805815D01*
X00306749Y00805796D01*
X00306360Y00805778D01*
X00306249D01*
X00306120Y00805796D01*
X00305935Y00805815D01*
X00305731Y00805833D01*
X00305472Y00805870D01*
X00305194Y00805926D01*
X00304879Y00806000D01*
X00304564Y00806093D01*
X00304231Y00806204D01*
X00303879Y00806352D01*
X00303527Y00806518D01*
X00303176Y00806704D01*
X00302824Y00806944D01*
X00302490Y00807204D01*
X00302176Y00807518D01*
X00302157Y00807537D01*
X00302102Y00807592D01*
X00302027Y00807703D01*
X00301916Y00807833D01*
X00301805Y00808018D01*
X00301657Y00808222D01*
X00301509Y00808481D01*
X00301361Y00808777D01*
X00301213Y00809092D01*
X00301065Y00809444D01*
X00300917Y00809852D01*
X00300805Y00810277D01*
X00300694Y00810722D01*
X00300620Y00811222D01*
X00300565Y00811740D01*
X00300546Y00812296D01*
Y00812314D01*
Y00812333D01*
Y00812444D01*
X00300565Y00812610D01*
Y00812833D01*
X00300602Y00813092D01*
X00300639Y00813407D01*
X00300676Y00813740D01*
X00300750Y00814129D01*
X00300842Y00814518D01*
X00300954Y00814925D01*
X00301083Y00815332D01*
X00301250Y00815758D01*
X00301435Y00816166D01*
X00301657Y00816554D01*
X00301898Y00816925D01*
X00302194Y00817277D01*
X00302213Y00817295D01*
X00302268Y00817351D01*
X00302361Y00817443D01*
X00302490Y00817554D01*
X00302657Y00817684D01*
X00302861Y00817832D01*
X00303083Y00817999D01*
X00303361Y00818165D01*
X00303657Y00818332D01*
X00303972Y00818499D01*
X00304342Y00818647D01*
X00304712Y00818776D01*
X00305138Y00818888D01*
X00305564Y00818980D01*
X00306046Y00819036D01*
X00306527Y00819054D01*
X00306749D01*
X00306916Y00819036D01*
D02*
G37*
G36*
X00216370Y00819036D02*
X00216573Y00819017D01*
X00216796Y00818980D01*
X00217055Y00818943D01*
X00217333Y00818887D01*
X00217629Y00818813D01*
X00217944Y00818721D01*
X00218258Y00818610D01*
X00218592Y00818462D01*
X00218906Y00818314D01*
X00219203Y00818128D01*
X00219517Y00817906D01*
X00219795Y00817665D01*
X00219814D01*
X00219832Y00817628D01*
X00219888Y00817573D01*
X00219943Y00817517D01*
X00220018Y00817425D01*
X00220092Y00817314D01*
X00220295Y00817054D01*
X00220499Y00816721D01*
X00220721Y00816314D01*
X00220925Y00815851D01*
X00221110Y00815314D01*
X00218555Y00814703D01*
Y00814721D01*
X00218536Y00814740D01*
Y00814795D01*
X00218499Y00814869D01*
X00218444Y00815036D01*
X00218351Y00815258D01*
X00218221Y00815518D01*
X00218055Y00815777D01*
X00217833Y00816036D01*
X00217592Y00816258D01*
X00217555Y00816277D01*
X00217462Y00816351D01*
X00217314Y00816443D01*
X00217110Y00816554D01*
X00216851Y00816665D01*
X00216555Y00816758D01*
X00216222Y00816832D01*
X00215851Y00816851D01*
X00215722D01*
X00215611Y00816832D01*
X00215499Y00816814D01*
X00215351Y00816795D01*
X00215037Y00816721D01*
X00214666Y00816591D01*
X00214277Y00816406D01*
X00214074Y00816295D01*
X00213888Y00816166D01*
X00213703Y00815999D01*
X00213537Y00815814D01*
Y00815795D01*
X00213500Y00815758D01*
X00213463Y00815703D01*
X00213407Y00815610D01*
X00213333Y00815499D01*
X00213259Y00815369D01*
X00213185Y00815203D01*
X00213111Y00815018D01*
X00213018Y00814795D01*
X00212944Y00814555D01*
X00212870Y00814277D01*
X00212796Y00813981D01*
X00212740Y00813647D01*
X00212703Y00813296D01*
X00212685Y00812907D01*
X00212666Y00812481D01*
Y00812462D01*
Y00812370D01*
Y00812240D01*
X00212685Y00812092D01*
Y00811888D01*
X00212722Y00811648D01*
X00212740Y00811407D01*
X00212778Y00811129D01*
X00212889Y00810555D01*
X00213037Y00809981D01*
X00213129Y00809703D01*
X00213259Y00809444D01*
X00213389Y00809203D01*
X00213537Y00809000D01*
X00213555Y00808981D01*
X00213574Y00808963D01*
X00213629Y00808907D01*
X00213703Y00808833D01*
X00213888Y00808685D01*
X00214148Y00808500D01*
X00214463Y00808296D01*
X00214851Y00808148D01*
X00215296Y00808018D01*
X00215536Y00808000D01*
X00215796Y00807981D01*
X00215888D01*
X00215962Y00808000D01*
X00216166Y00808018D01*
X00216407Y00808055D01*
X00216666Y00808148D01*
X00216962Y00808259D01*
X00217258Y00808407D01*
X00217555Y00808629D01*
X00217592Y00808666D01*
X00217684Y00808759D01*
X00217814Y00808907D01*
X00217962Y00809129D01*
X00218147Y00809426D01*
X00218314Y00809777D01*
X00218481Y00810203D01*
X00218629Y00810703D01*
X00221147Y00809926D01*
Y00809907D01*
X00221129Y00809833D01*
X00221091Y00809722D01*
X00221036Y00809574D01*
X00220962Y00809407D01*
X00220888Y00809203D01*
X00220795Y00808981D01*
X00220684Y00808740D01*
X00220425Y00808241D01*
X00220092Y00807722D01*
X00219684Y00807222D01*
X00219462Y00807000D01*
X00219221Y00806796D01*
X00219203Y00806778D01*
X00219166Y00806759D01*
X00219092Y00806704D01*
X00218981Y00806630D01*
X00218851Y00806555D01*
X00218684Y00806481D01*
X00218499Y00806389D01*
X00218295Y00806296D01*
X00218055Y00806185D01*
X00217796Y00806093D01*
X00217518Y00806019D01*
X00217222Y00805944D01*
X00216907Y00805870D01*
X00216555Y00805815D01*
X00216203Y00805796D01*
X00215814Y00805778D01*
X00215703D01*
X00215574Y00805796D01*
X00215388Y00805815D01*
X00215185Y00805833D01*
X00214925Y00805870D01*
X00214648Y00805926D01*
X00214333Y00806000D01*
X00214018Y00806093D01*
X00213685Y00806204D01*
X00213333Y00806352D01*
X00212981Y00806518D01*
X00212629Y00806704D01*
X00212278Y00806944D01*
X00211944Y00807204D01*
X00211630Y00807518D01*
X00211611Y00807537D01*
X00211555Y00807592D01*
X00211481Y00807703D01*
X00211370Y00807833D01*
X00211259Y00808018D01*
X00211111Y00808222D01*
X00210963Y00808481D01*
X00210815Y00808777D01*
X00210667Y00809092D01*
X00210518Y00809444D01*
X00210370Y00809851D01*
X00210259Y00810277D01*
X00210148Y00810722D01*
X00210074Y00811222D01*
X00210019Y00811740D01*
X00210000Y00812296D01*
Y00812314D01*
Y00812333D01*
Y00812444D01*
X00210019Y00812610D01*
Y00812833D01*
X00210056Y00813092D01*
X00210093Y00813407D01*
X00210130Y00813740D01*
X00210204Y00814129D01*
X00210296Y00814518D01*
X00210407Y00814925D01*
X00210537Y00815332D01*
X00210704Y00815758D01*
X00210889Y00816166D01*
X00211111Y00816554D01*
X00211352Y00816925D01*
X00211648Y00817277D01*
X00211667Y00817295D01*
X00211722Y00817351D01*
X00211815Y00817443D01*
X00211944Y00817554D01*
X00212111Y00817684D01*
X00212315Y00817832D01*
X00212537Y00817999D01*
X00212815Y00818165D01*
X00213111Y00818332D01*
X00213426Y00818499D01*
X00213796Y00818647D01*
X00214166Y00818776D01*
X00214592Y00818887D01*
X00215018Y00818980D01*
X00215499Y00819036D01*
X00215981Y00819054D01*
X00216203D01*
X00216370Y00819036D01*
D02*
G37*
G36*
X00340338Y00806000D02*
X00338061D01*
Y00807352D01*
X00338042Y00807315D01*
X00337968Y00807222D01*
X00337839Y00807074D01*
X00337672Y00806907D01*
X00337487Y00806722D01*
X00337246Y00806518D01*
X00336987Y00806333D01*
X00336709Y00806167D01*
X00336672Y00806148D01*
X00336580Y00806111D01*
X00336413Y00806056D01*
X00336228Y00805982D01*
X00335987Y00805907D01*
X00335709Y00805852D01*
X00335432Y00805815D01*
X00335135Y00805796D01*
X00334987D01*
X00334876Y00805815D01*
X00334728Y00805833D01*
X00334580Y00805870D01*
X00334394Y00805907D01*
X00334191Y00805963D01*
X00333987Y00806019D01*
X00333765Y00806111D01*
X00333543Y00806204D01*
X00333302Y00806333D01*
X00333080Y00806481D01*
X00332839Y00806648D01*
X00332617Y00806852D01*
X00332395Y00807074D01*
X00332376Y00807093D01*
X00332339Y00807130D01*
X00332284Y00807204D01*
X00332228Y00807315D01*
X00332136Y00807444D01*
X00332043Y00807611D01*
X00331932Y00807796D01*
X00331839Y00808018D01*
X00331728Y00808259D01*
X00331617Y00808518D01*
X00331525Y00808814D01*
X00331450Y00809129D01*
X00331376Y00809481D01*
X00331321Y00809852D01*
X00331284Y00810240D01*
X00331265Y00810666D01*
Y00810685D01*
Y00810777D01*
Y00810888D01*
X00331284Y00811055D01*
X00331302Y00811259D01*
X00331321Y00811481D01*
X00331358Y00811740D01*
X00331395Y00811999D01*
X00331525Y00812592D01*
X00331617Y00812888D01*
X00331728Y00813185D01*
X00331858Y00813481D01*
X00332006Y00813758D01*
X00332173Y00814018D01*
X00332358Y00814258D01*
X00332376Y00814277D01*
X00332413Y00814314D01*
X00332469Y00814370D01*
X00332561Y00814462D01*
X00332673Y00814555D01*
X00332802Y00814647D01*
X00332950Y00814758D01*
X00333135Y00814888D01*
X00333321Y00814999D01*
X00333543Y00815110D01*
X00334006Y00815314D01*
X00334283Y00815388D01*
X00334561Y00815443D01*
X00334857Y00815480D01*
X00335172Y00815499D01*
X00335320D01*
X00335432Y00815480D01*
X00335561Y00815462D01*
X00335728Y00815425D01*
X00335894Y00815388D01*
X00336098Y00815332D01*
X00336302Y00815277D01*
X00336524Y00815184D01*
X00336746Y00815073D01*
X00336968Y00814962D01*
X00337209Y00814795D01*
X00337431Y00814629D01*
X00337654Y00814425D01*
X00337876Y00814203D01*
Y00818813D01*
X00340338D01*
Y00806000D01*
D02*
G37*
G36*
X00396110Y00815480D02*
X00396314Y00815443D01*
X00396573Y00815388D01*
X00396851Y00815295D01*
X00397129Y00815184D01*
X00397425Y00815018D01*
X00396647Y00812888D01*
X00396629Y00812907D01*
X00396536Y00812944D01*
X00396425Y00813018D01*
X00396277Y00813092D01*
X00396092Y00813166D01*
X00395907Y00813240D01*
X00395703Y00813277D01*
X00395499Y00813296D01*
X00395425D01*
X00395314Y00813277D01*
X00395203Y00813259D01*
X00395073Y00813222D01*
X00394925Y00813166D01*
X00394777Y00813092D01*
X00394629Y00812999D01*
X00394610Y00812981D01*
X00394574Y00812944D01*
X00394499Y00812870D01*
X00394425Y00812759D01*
X00394333Y00812629D01*
X00394240Y00812444D01*
X00394148Y00812222D01*
X00394073Y00811962D01*
Y00811925D01*
X00394055Y00811870D01*
X00394036Y00811814D01*
Y00811722D01*
X00394018Y00811610D01*
X00393999Y00811462D01*
X00393981Y00811296D01*
X00393962Y00811111D01*
X00393944Y00810870D01*
X00393925Y00810629D01*
Y00810333D01*
X00393907Y00810018D01*
X00393888Y00809666D01*
Y00809277D01*
Y00808852D01*
Y00806000D01*
X00391426D01*
Y00815295D01*
X00393703D01*
Y00813981D01*
X00393722Y00813999D01*
X00393796Y00814110D01*
X00393907Y00814277D01*
X00394055Y00814481D01*
X00394203Y00814684D01*
X00394388Y00814888D01*
X00394555Y00815073D01*
X00394740Y00815203D01*
X00394759Y00815221D01*
X00394814Y00815258D01*
X00394925Y00815295D01*
X00395055Y00815351D01*
X00395203Y00815406D01*
X00395388Y00815462D01*
X00395573Y00815480D01*
X00395796Y00815499D01*
X00395944D01*
X00396110Y00815480D01*
D02*
G37*
G36*
X00384167D02*
X00384371Y00815443D01*
X00384630Y00815388D01*
X00384908Y00815295D01*
X00385186Y00815184D01*
X00385482Y00815018D01*
X00384704Y00812888D01*
X00384686Y00812907D01*
X00384593Y00812944D01*
X00384482Y00813018D01*
X00384334Y00813092D01*
X00384149Y00813166D01*
X00383964Y00813240D01*
X00383760Y00813277D01*
X00383556Y00813296D01*
X00383482D01*
X00383371Y00813277D01*
X00383260Y00813259D01*
X00383130Y00813222D01*
X00382982Y00813166D01*
X00382834Y00813092D01*
X00382686Y00812999D01*
X00382667Y00812981D01*
X00382630Y00812944D01*
X00382556Y00812870D01*
X00382482Y00812759D01*
X00382390Y00812629D01*
X00382297Y00812444D01*
X00382204Y00812222D01*
X00382130Y00811962D01*
Y00811925D01*
X00382112Y00811870D01*
X00382093Y00811814D01*
Y00811722D01*
X00382075Y00811610D01*
X00382056Y00811462D01*
X00382038Y00811296D01*
X00382019Y00811111D01*
X00382001Y00810870D01*
X00381982Y00810629D01*
Y00810333D01*
X00381964Y00810018D01*
X00381945Y00809666D01*
Y00809277D01*
Y00808852D01*
Y00806000D01*
X00379482D01*
Y00815295D01*
X00381760D01*
Y00813981D01*
X00381778Y00813999D01*
X00381853Y00814110D01*
X00381964Y00814277D01*
X00382112Y00814481D01*
X00382260Y00814684D01*
X00382445Y00814888D01*
X00382612Y00815073D01*
X00382797Y00815203D01*
X00382815Y00815221D01*
X00382871Y00815258D01*
X00382982Y00815295D01*
X00383112Y00815351D01*
X00383260Y00815406D01*
X00383445Y00815462D01*
X00383630Y00815480D01*
X00383852Y00815499D01*
X00384001D01*
X00384167Y00815480D01*
D02*
G37*
G36*
X00358114D02*
X00358244Y00815462D01*
X00358411Y00815425D01*
X00358596Y00815388D01*
X00358781Y00815332D01*
X00359003Y00815277D01*
X00359207Y00815184D01*
X00359448Y00815092D01*
X00359670Y00814962D01*
X00359910Y00814814D01*
X00360133Y00814647D01*
X00360355Y00814444D01*
X00360577Y00814221D01*
X00360596Y00814203D01*
X00360633Y00814166D01*
X00360688Y00814092D01*
X00360762Y00813981D01*
X00360836Y00813870D01*
X00360929Y00813703D01*
X00361040Y00813518D01*
X00361151Y00813314D01*
X00361244Y00813073D01*
X00361355Y00812814D01*
X00361447Y00812518D01*
X00361540Y00812203D01*
X00361595Y00811851D01*
X00361651Y00811499D01*
X00361688Y00811092D01*
X00361707Y00810685D01*
Y00810666D01*
Y00810592D01*
Y00810462D01*
X00361688Y00810296D01*
X00361670Y00810111D01*
X00361651Y00809889D01*
X00361614Y00809629D01*
X00361558Y00809370D01*
X00361429Y00808777D01*
X00361336Y00808481D01*
X00361225Y00808185D01*
X00361096Y00807889D01*
X00360929Y00807611D01*
X00360762Y00807333D01*
X00360559Y00807074D01*
X00360540Y00807056D01*
X00360503Y00807018D01*
X00360447Y00806963D01*
X00360355Y00806870D01*
X00360244Y00806778D01*
X00360114Y00806667D01*
X00359966Y00806555D01*
X00359799Y00806444D01*
X00359596Y00806315D01*
X00359392Y00806204D01*
X00358929Y00806000D01*
X00358670Y00805907D01*
X00358392Y00805852D01*
X00358114Y00805815D01*
X00357818Y00805796D01*
X00357688D01*
X00357540Y00805815D01*
X00357355Y00805833D01*
X00357133Y00805870D01*
X00356892Y00805926D01*
X00356651Y00806000D01*
X00356411Y00806093D01*
X00356392Y00806111D01*
X00356300Y00806148D01*
X00356189Y00806241D01*
X00356022Y00806352D01*
X00355818Y00806481D01*
X00355615Y00806667D01*
X00355374Y00806889D01*
X00355115Y00807148D01*
Y00802445D01*
X00352652D01*
Y00815295D01*
X00354948D01*
Y00813925D01*
X00354967Y00813962D01*
X00355022Y00814036D01*
X00355133Y00814166D01*
X00355263Y00814333D01*
X00355429Y00814518D01*
X00355652Y00814703D01*
X00355874Y00814888D01*
X00356152Y00815055D01*
X00356189Y00815073D01*
X00356281Y00815129D01*
X00356448Y00815203D01*
X00356651Y00815277D01*
X00356892Y00815351D01*
X00357188Y00815425D01*
X00357503Y00815480D01*
X00357836Y00815499D01*
X00357985D01*
X00358114Y00815480D01*
D02*
G37*
G36*
X00298380Y00806000D02*
X00295991D01*
X00295973Y00816073D01*
X00293454Y00806000D01*
X00290955D01*
X00288436Y00816073D01*
Y00806000D01*
X00286048D01*
Y00818813D01*
X00289918D01*
X00292214Y00810055D01*
X00294491Y00818813D01*
X00298380D01*
Y00806000D01*
D02*
G37*
G36*
X00235683Y00806000D02*
X00233294D01*
X00233275Y00816073D01*
X00230757Y00806000D01*
X00228257D01*
X00225739Y00816073D01*
Y00806000D01*
X00223351D01*
Y00818813D01*
X00227220D01*
X00229517Y00810055D01*
X00231794Y00818813D01*
X00235683D01*
Y00806000D01*
D02*
G37*
G36*
X00410905Y00806000D02*
X00408442D01*
Y00808463D01*
X00410905D01*
Y00806000D01*
D02*
G37*
G36*
X00402499Y00818869D02*
X00402665Y00818850D01*
X00402850Y00818832D01*
X00403054Y00818795D01*
X00403276Y00818758D01*
X00403758Y00818628D01*
X00404239Y00818443D01*
X00404498Y00818332D01*
X00404721Y00818203D01*
X00404961Y00818036D01*
X00405165Y00817851D01*
X00405183Y00817832D01*
X00405220Y00817814D01*
X00405258Y00817739D01*
X00405332Y00817665D01*
X00405424Y00817573D01*
X00405517Y00817443D01*
X00405609Y00817314D01*
X00405720Y00817147D01*
X00405906Y00816777D01*
X00406091Y00816351D01*
X00406165Y00816110D01*
X00406202Y00815851D01*
X00406239Y00815573D01*
X00406258Y00815295D01*
Y00815258D01*
Y00815147D01*
X00406239Y00814981D01*
X00406220Y00814777D01*
X00406183Y00814518D01*
X00406128Y00814240D01*
X00406054Y00813944D01*
X00405943Y00813647D01*
X00405924Y00813610D01*
X00405887Y00813518D01*
X00405813Y00813351D01*
X00405702Y00813147D01*
X00405572Y00812907D01*
X00405406Y00812629D01*
X00405202Y00812333D01*
X00404961Y00812018D01*
X00404943Y00811999D01*
X00404869Y00811907D01*
X00404758Y00811777D01*
X00404591Y00811592D01*
X00404369Y00811370D01*
X00404091Y00811074D01*
X00403758Y00810759D01*
X00403350Y00810370D01*
X00403332Y00810351D01*
X00403295Y00810333D01*
X00403239Y00810277D01*
X00403165Y00810203D01*
X00402962Y00810018D01*
X00402721Y00809796D01*
X00402480Y00809555D01*
X00402239Y00809314D01*
X00402017Y00809111D01*
X00401943Y00809018D01*
X00401869Y00808944D01*
X00401851Y00808926D01*
X00401814Y00808889D01*
X00401758Y00808814D01*
X00401684Y00808722D01*
X00401517Y00808518D01*
X00401369Y00808278D01*
X00406258D01*
Y00806000D01*
X00397647D01*
Y00806019D01*
Y00806056D01*
X00397666Y00806130D01*
X00397684Y00806222D01*
X00397703Y00806333D01*
X00397721Y00806463D01*
X00397795Y00806796D01*
X00397906Y00807167D01*
X00398055Y00807574D01*
X00398240Y00808018D01*
X00398480Y00808444D01*
Y00808463D01*
X00398517Y00808500D01*
X00398554Y00808574D01*
X00398629Y00808648D01*
X00398703Y00808777D01*
X00398814Y00808907D01*
X00398943Y00809074D01*
X00399091Y00809259D01*
X00399258Y00809481D01*
X00399462Y00809703D01*
X00399684Y00809963D01*
X00399943Y00810240D01*
X00400221Y00810518D01*
X00400536Y00810833D01*
X00400869Y00811166D01*
X00401240Y00811518D01*
X00401258Y00811536D01*
X00401314Y00811592D01*
X00401388Y00811666D01*
X00401499Y00811777D01*
X00401647Y00811888D01*
X00401795Y00812036D01*
X00402128Y00812370D01*
X00402462Y00812721D01*
X00402795Y00813073D01*
X00402943Y00813222D01*
X00403091Y00813388D01*
X00403202Y00813518D01*
X00403276Y00813629D01*
X00403295Y00813666D01*
X00403350Y00813758D01*
X00403443Y00813907D01*
X00403535Y00814110D01*
X00403628Y00814333D01*
X00403721Y00814592D01*
X00403776Y00814851D01*
X00403795Y00815129D01*
Y00815147D01*
Y00815166D01*
Y00815258D01*
X00403776Y00815425D01*
X00403739Y00815610D01*
X00403684Y00815814D01*
X00403610Y00816018D01*
X00403498Y00816221D01*
X00403350Y00816406D01*
X00403332Y00816425D01*
X00403276Y00816480D01*
X00403165Y00816554D01*
X00403036Y00816628D01*
X00402850Y00816703D01*
X00402647Y00816777D01*
X00402406Y00816832D01*
X00402128Y00816851D01*
X00401999D01*
X00401851Y00816832D01*
X00401684Y00816795D01*
X00401480Y00816740D01*
X00401277Y00816647D01*
X00401073Y00816536D01*
X00400888Y00816388D01*
X00400869Y00816369D01*
X00400814Y00816295D01*
X00400740Y00816184D01*
X00400665Y00816018D01*
X00400573Y00815814D01*
X00400499Y00815536D01*
X00400425Y00815221D01*
X00400388Y00814851D01*
X00397943Y00815092D01*
Y00815110D01*
X00397962Y00815184D01*
Y00815277D01*
X00397999Y00815425D01*
X00398018Y00815592D01*
X00398073Y00815777D01*
X00398129Y00815981D01*
X00398184Y00816221D01*
X00398369Y00816684D01*
X00398592Y00817166D01*
X00398740Y00817406D01*
X00398906Y00817628D01*
X00399091Y00817814D01*
X00399295Y00817999D01*
X00399314Y00818017D01*
X00399351Y00818036D01*
X00399406Y00818073D01*
X00399499Y00818147D01*
X00399610Y00818203D01*
X00399758Y00818277D01*
X00399906Y00818369D01*
X00400091Y00818443D01*
X00400295Y00818536D01*
X00400517Y00818610D01*
X00400999Y00818758D01*
X00401573Y00818850D01*
X00401869Y00818869D01*
X00402184Y00818888D01*
X00402369D01*
X00402499Y00818869D01*
D02*
G37*
G36*
X00346782Y00815480D02*
X00346930D01*
X00347301Y00815443D01*
X00347689Y00815406D01*
X00348097Y00815332D01*
X00348486Y00815221D01*
X00348652Y00815166D01*
X00348819Y00815092D01*
X00348838D01*
X00348856Y00815073D01*
X00348949Y00815018D01*
X00349097Y00814943D01*
X00349263Y00814832D01*
X00349467Y00814684D01*
X00349652Y00814518D01*
X00349819Y00814314D01*
X00349967Y00814110D01*
X00349986Y00814073D01*
X00350023Y00813999D01*
X00350078Y00813832D01*
X00350097Y00813740D01*
X00350134Y00813610D01*
X00350171Y00813481D01*
X00350189Y00813314D01*
X00350226Y00813129D01*
X00350245Y00812925D01*
X00350263Y00812703D01*
X00350282Y00812462D01*
X00350300Y00812203D01*
Y00811907D01*
X00350263Y00809037D01*
Y00809018D01*
Y00808981D01*
Y00808926D01*
Y00808833D01*
Y00808611D01*
X00350282Y00808352D01*
Y00808055D01*
X00350319Y00807759D01*
X00350337Y00807463D01*
X00350374Y00807222D01*
Y00807204D01*
X00350393Y00807130D01*
X00350430Y00807000D01*
X00350467Y00806852D01*
X00350541Y00806667D01*
X00350615Y00806463D01*
X00350708Y00806241D01*
X00350819Y00806000D01*
X00348393D01*
Y00806019D01*
X00348375Y00806037D01*
X00348356Y00806111D01*
X00348319Y00806185D01*
X00348282Y00806278D01*
X00348245Y00806407D01*
X00348208Y00806555D01*
X00348152Y00806722D01*
Y00806741D01*
X00348134Y00806759D01*
X00348115Y00806833D01*
X00348078Y00806926D01*
X00348060Y00807000D01*
X00348023Y00806981D01*
X00347949Y00806907D01*
X00347819Y00806796D01*
X00347652Y00806667D01*
X00347449Y00806518D01*
X00347226Y00806352D01*
X00346967Y00806222D01*
X00346708Y00806093D01*
X00346671Y00806074D01*
X00346578Y00806056D01*
X00346430Y00806000D01*
X00346245Y00805945D01*
X00346023Y00805889D01*
X00345764Y00805852D01*
X00345467Y00805815D01*
X00345171Y00805796D01*
X00345042D01*
X00344930Y00805815D01*
X00344819D01*
X00344671Y00805833D01*
X00344356Y00805889D01*
X00343986Y00805982D01*
X00343616Y00806111D01*
X00343246Y00806296D01*
X00342912Y00806555D01*
Y00806574D01*
X00342875Y00806592D01*
X00342783Y00806704D01*
X00342653Y00806870D01*
X00342505Y00807093D01*
X00342357Y00807370D01*
X00342227Y00807703D01*
X00342135Y00808092D01*
X00342116Y00808296D01*
X00342097Y00808518D01*
Y00808555D01*
Y00808648D01*
X00342116Y00808796D01*
X00342153Y00808981D01*
X00342190Y00809203D01*
X00342246Y00809426D01*
X00342338Y00809666D01*
X00342468Y00809907D01*
X00342486Y00809944D01*
X00342542Y00810018D01*
X00342616Y00810129D01*
X00342746Y00810259D01*
X00342875Y00810407D01*
X00343060Y00810574D01*
X00343264Y00810722D01*
X00343505Y00810851D01*
X00343542Y00810870D01*
X00343634Y00810907D01*
X00343782Y00810963D01*
X00344005Y00811055D01*
X00344282Y00811148D01*
X00344616Y00811240D01*
X00345023Y00811333D01*
X00345467Y00811425D01*
X00345486D01*
X00345541Y00811444D01*
X00345634Y00811462D01*
X00345745Y00811481D01*
X00345893Y00811499D01*
X00346060Y00811536D01*
X00346430Y00811629D01*
X00346819Y00811722D01*
X00347226Y00811814D01*
X00347578Y00811925D01*
X00347745Y00811981D01*
X00347875Y00812036D01*
Y00812277D01*
Y00812314D01*
Y00812388D01*
X00347856Y00812518D01*
X00347838Y00812684D01*
X00347782Y00812851D01*
X00347727Y00813018D01*
X00347634Y00813166D01*
X00347504Y00813296D01*
X00347486Y00813314D01*
X00347430Y00813351D01*
X00347338Y00813388D01*
X00347208Y00813462D01*
X00347023Y00813518D01*
X00346801Y00813555D01*
X00346523Y00813592D01*
X00346190Y00813610D01*
X00346078D01*
X00345967Y00813592D01*
X00345819Y00813573D01*
X00345653Y00813536D01*
X00345467Y00813499D01*
X00345301Y00813425D01*
X00345153Y00813333D01*
X00345134Y00813314D01*
X00345097Y00813277D01*
X00345023Y00813222D01*
X00344949Y00813129D01*
X00344838Y00812999D01*
X00344745Y00812833D01*
X00344653Y00812647D01*
X00344560Y00812425D01*
X00342357Y00812833D01*
Y00812851D01*
X00342375Y00812888D01*
X00342394Y00812962D01*
X00342431Y00813055D01*
X00342468Y00813166D01*
X00342523Y00813296D01*
X00342653Y00813592D01*
X00342838Y00813907D01*
X00343060Y00814240D01*
X00343320Y00814555D01*
X00343634Y00814832D01*
X00343653D01*
X00343671Y00814870D01*
X00343727Y00814888D01*
X00343801Y00814943D01*
X00343912Y00814981D01*
X00344023Y00815036D01*
X00344171Y00815110D01*
X00344319Y00815166D01*
X00344505Y00815221D01*
X00344708Y00815295D01*
X00344930Y00815351D01*
X00345190Y00815388D01*
X00345449Y00815443D01*
X00345745Y00815462D01*
X00346041Y00815499D01*
X00346652D01*
X00346782Y00815480D01*
D02*
G37*
G36*
X00330451Y00806000D02*
X00327654D01*
X00326544Y00808907D01*
X00321396D01*
X00320340Y00806000D01*
X00317600D01*
X00322562Y00818813D01*
X00325303D01*
X00330451Y00806000D01*
D02*
G37*
G36*
X00283937Y00816647D02*
X00277734Y00816647D01*
Y00813610D01*
X00283085Y00813610D01*
Y00811444D01*
X00277734Y00811444D01*
Y00806000D01*
X00275141D01*
Y00818813D01*
X00283937Y00818813D01*
Y00816647D01*
D02*
G37*
G36*
X00244959Y00810722D02*
X00246552D01*
Y00808574D01*
X00244959D01*
Y00806000D01*
X00242589D01*
Y00808574D01*
X00237330D01*
Y00810703D01*
X00242885Y00818869D01*
X00244959D01*
Y00810722D01*
D02*
G37*
G36*
X00373502Y00815480D02*
X00373668Y00815462D01*
X00373872Y00815425D01*
X00374094Y00815388D01*
X00374335Y00815332D01*
X00374594Y00815258D01*
X00374853Y00815166D01*
X00375131Y00815055D01*
X00375409Y00814906D01*
X00375668Y00814758D01*
X00375927Y00814573D01*
X00376186Y00814351D01*
X00376409Y00814110D01*
X00376427Y00814092D01*
X00376464Y00814055D01*
X00376520Y00813962D01*
X00376594Y00813851D01*
X00376686Y00813703D01*
X00376779Y00813536D01*
X00376890Y00813314D01*
X00377001Y00813073D01*
X00377112Y00812796D01*
X00377223Y00812481D01*
X00377316Y00812148D01*
X00377409Y00811759D01*
X00377483Y00811351D01*
X00377538Y00810907D01*
X00377575Y00810444D01*
Y00809926D01*
X00371428D01*
Y00809907D01*
Y00809870D01*
Y00809814D01*
X00371446Y00809740D01*
X00371465Y00809555D01*
X00371502Y00809296D01*
X00371576Y00809037D01*
X00371687Y00808740D01*
X00371817Y00808463D01*
X00372002Y00808222D01*
X00372020Y00808204D01*
X00372113Y00808129D01*
X00372224Y00808037D01*
X00372391Y00807926D01*
X00372594Y00807815D01*
X00372854Y00807722D01*
X00373131Y00807648D01*
X00373428Y00807629D01*
X00373520D01*
X00373631Y00807648D01*
X00373761Y00807666D01*
X00373909Y00807703D01*
X00374076Y00807759D01*
X00374242Y00807833D01*
X00374390Y00807944D01*
X00374409Y00807963D01*
X00374464Y00808000D01*
X00374538Y00808074D01*
X00374613Y00808185D01*
X00374724Y00808333D01*
X00374816Y00808500D01*
X00374909Y00808722D01*
X00375001Y00808963D01*
X00377446Y00808555D01*
Y00808537D01*
X00377427Y00808500D01*
X00377390Y00808426D01*
X00377353Y00808333D01*
X00377298Y00808222D01*
X00377242Y00808092D01*
X00377075Y00807796D01*
X00376872Y00807463D01*
X00376612Y00807111D01*
X00376298Y00806796D01*
X00375946Y00806500D01*
X00375927D01*
X00375909Y00806463D01*
X00375835Y00806444D01*
X00375761Y00806389D01*
X00375668Y00806333D01*
X00375538Y00806278D01*
X00375409Y00806222D01*
X00375242Y00806148D01*
X00374872Y00806019D01*
X00374446Y00805907D01*
X00373946Y00805833D01*
X00373409Y00805796D01*
X00373298D01*
X00373187Y00805815D01*
X00373020D01*
X00372817Y00805852D01*
X00372576Y00805889D01*
X00372317Y00805926D01*
X00372057Y00806000D01*
X00371761Y00806074D01*
X00371465Y00806185D01*
X00371169Y00806315D01*
X00370872Y00806463D01*
X00370576Y00806648D01*
X00370298Y00806852D01*
X00370057Y00807093D01*
X00369817Y00807370D01*
X00369798Y00807389D01*
X00369780Y00807426D01*
X00369743Y00807500D01*
X00369669Y00807592D01*
X00369613Y00807722D01*
X00369539Y00807870D01*
X00369446Y00808037D01*
X00369372Y00808241D01*
X00369280Y00808463D01*
X00369206Y00808703D01*
X00369113Y00808963D01*
X00369058Y00809259D01*
X00369002Y00809555D01*
X00368946Y00809870D01*
X00368928Y00810222D01*
X00368909Y00810574D01*
Y00810592D01*
Y00810666D01*
Y00810796D01*
X00368928Y00810963D01*
X00368946Y00811148D01*
X00368965Y00811370D01*
X00369002Y00811610D01*
X00369058Y00811888D01*
X00369206Y00812462D01*
X00369298Y00812759D01*
X00369409Y00813073D01*
X00369558Y00813370D01*
X00369724Y00813647D01*
X00369909Y00813925D01*
X00370113Y00814184D01*
X00370132Y00814203D01*
X00370169Y00814240D01*
X00370243Y00814314D01*
X00370335Y00814388D01*
X00370446Y00814481D01*
X00370594Y00814592D01*
X00370761Y00814721D01*
X00370946Y00814851D01*
X00371150Y00814962D01*
X00371391Y00815092D01*
X00371631Y00815203D01*
X00371909Y00815295D01*
X00372187Y00815369D01*
X00372502Y00815443D01*
X00372817Y00815480D01*
X00373150Y00815499D01*
X00373354D01*
X00373502Y00815480D01*
D02*
G37*
G36*
X00366243Y00815295D02*
X00367928D01*
Y00813333D01*
X00366243D01*
Y00809574D01*
Y00809555D01*
Y00809518D01*
Y00809463D01*
Y00809389D01*
Y00809203D01*
Y00808981D01*
X00366262Y00808759D01*
Y00808537D01*
Y00808370D01*
X00366280Y00808296D01*
Y00808259D01*
X00366299Y00808222D01*
X00366336Y00808148D01*
X00366391Y00808055D01*
X00366502Y00807944D01*
X00366539Y00807926D01*
X00366613Y00807889D01*
X00366743Y00807852D01*
X00366910Y00807833D01*
X00366984D01*
X00367058Y00807852D01*
X00367169Y00807870D01*
X00367317Y00807889D01*
X00367484Y00807926D01*
X00367687Y00807981D01*
X00367910Y00808055D01*
X00368132Y00806148D01*
X00368113D01*
X00368095Y00806130D01*
X00367984Y00806093D01*
X00367799Y00806037D01*
X00367558Y00805982D01*
X00367280Y00805907D01*
X00366947Y00805852D01*
X00366576Y00805815D01*
X00366188Y00805796D01*
X00366076D01*
X00365947Y00805815D01*
X00365780Y00805833D01*
X00365595Y00805852D01*
X00365391Y00805889D01*
X00365188Y00805945D01*
X00364984Y00806019D01*
X00364965Y00806037D01*
X00364891Y00806056D01*
X00364799Y00806111D01*
X00364688Y00806167D01*
X00364428Y00806352D01*
X00364299Y00806463D01*
X00364188Y00806592D01*
X00364169Y00806611D01*
X00364151Y00806667D01*
X00364114Y00806741D01*
X00364058Y00806852D01*
X00364003Y00806981D01*
X00363947Y00807148D01*
X00363891Y00807333D01*
X00363854Y00807537D01*
Y00807555D01*
X00363836Y00807629D01*
Y00807741D01*
X00363817Y00807926D01*
X00363799Y00808167D01*
Y00808463D01*
X00363780Y00808629D01*
Y00808833D01*
Y00809037D01*
Y00809277D01*
Y00813333D01*
X00362651D01*
Y00815295D01*
X00363780D01*
Y00817147D01*
X00366243Y00818591D01*
Y00815295D01*
D02*
G37*
G36*
X00263754Y00815480D02*
X00263939Y00815462D01*
X00264143Y00815425D01*
X00264383Y00815388D01*
X00264624Y00815332D01*
X00264902Y00815258D01*
X00265180Y00815166D01*
X00265457Y00815055D01*
X00265753Y00814925D01*
X00266050Y00814758D01*
X00266327Y00814573D01*
X00266605Y00814370D01*
X00266864Y00814129D01*
X00266883Y00814110D01*
X00266920Y00814073D01*
X00266994Y00813981D01*
X00267068Y00813888D01*
X00267179Y00813740D01*
X00267290Y00813592D01*
X00267420Y00813388D01*
X00267550Y00813184D01*
X00267661Y00812944D01*
X00267790Y00812684D01*
X00267901Y00812388D01*
X00268013Y00812092D01*
X00268087Y00811759D01*
X00268161Y00811425D01*
X00268198Y00811055D01*
X00268216Y00810666D01*
Y00810648D01*
Y00810574D01*
Y00810462D01*
X00268198Y00810314D01*
X00268179Y00810129D01*
X00268142Y00809926D01*
X00268105Y00809685D01*
X00268050Y00809444D01*
X00267976Y00809166D01*
X00267883Y00808889D01*
X00267772Y00808592D01*
X00267642Y00808296D01*
X00267475Y00808000D01*
X00267290Y00807722D01*
X00267087Y00807444D01*
X00266846Y00807167D01*
X00266828Y00807148D01*
X00266790Y00807111D01*
X00266716Y00807037D01*
X00266605Y00806944D01*
X00266476Y00806852D01*
X00266309Y00806741D01*
X00266124Y00806611D01*
X00265920Y00806481D01*
X00265679Y00806352D01*
X00265420Y00806222D01*
X00265142Y00806111D01*
X00264828Y00806019D01*
X00264513Y00805926D01*
X00264161Y00805852D01*
X00263809Y00805815D01*
X00263420Y00805796D01*
X00263291D01*
X00263198Y00805815D01*
X00263087D01*
X00262957Y00805833D01*
X00262643Y00805870D01*
X00262254Y00805944D01*
X00261847Y00806037D01*
X00261421Y00806185D01*
X00260976Y00806370D01*
X00260958D01*
X00260921Y00806389D01*
X00260865Y00806426D01*
X00260791Y00806481D01*
X00260587Y00806611D01*
X00260328Y00806796D01*
X00260050Y00807037D01*
X00259754Y00807333D01*
X00259476Y00807666D01*
X00259217Y00808055D01*
Y00808074D01*
X00259199Y00808111D01*
X00259162Y00808166D01*
X00259125Y00808259D01*
X00259088Y00808370D01*
X00259032Y00808500D01*
X00258976Y00808648D01*
X00258921Y00808814D01*
X00258865Y00809000D01*
X00258810Y00809203D01*
X00258717Y00809666D01*
X00258643Y00810203D01*
X00258625Y00810777D01*
Y00810796D01*
Y00810833D01*
Y00810907D01*
X00258643Y00810981D01*
Y00811092D01*
X00258662Y00811222D01*
X00258699Y00811536D01*
X00258773Y00811888D01*
X00258884Y00812277D01*
X00259014Y00812703D01*
X00259217Y00813129D01*
Y00813147D01*
X00259254Y00813184D01*
X00259273Y00813240D01*
X00259328Y00813314D01*
X00259476Y00813518D01*
X00259662Y00813777D01*
X00259902Y00814055D01*
X00260198Y00814351D01*
X00260532Y00814629D01*
X00260921Y00814888D01*
X00260939D01*
X00260976Y00814906D01*
X00261032Y00814943D01*
X00261124Y00814980D01*
X00261217Y00815036D01*
X00261346Y00815073D01*
X00261495Y00815129D01*
X00261643Y00815203D01*
X00262013Y00815314D01*
X00262439Y00815406D01*
X00262902Y00815480D01*
X00263402Y00815499D01*
X00263606D01*
X00263754Y00815480D01*
D02*
G37*
G36*
X00255810Y00815295D02*
X00257495D01*
Y00813333D01*
X00255810D01*
Y00809574D01*
Y00809555D01*
Y00809518D01*
Y00809463D01*
Y00809389D01*
Y00809203D01*
Y00808981D01*
X00255829Y00808759D01*
Y00808537D01*
Y00808370D01*
X00255847Y00808296D01*
Y00808259D01*
X00255866Y00808222D01*
X00255903Y00808148D01*
X00255958Y00808055D01*
X00256069Y00807944D01*
X00256106Y00807926D01*
X00256180Y00807889D01*
X00256310Y00807852D01*
X00256477Y00807833D01*
X00256551D01*
X00256625Y00807852D01*
X00256736Y00807870D01*
X00256884Y00807889D01*
X00257051Y00807926D01*
X00257254Y00807981D01*
X00257477Y00808055D01*
X00257699Y00806148D01*
X00257680D01*
X00257662Y00806130D01*
X00257551Y00806093D01*
X00257365Y00806037D01*
X00257125Y00805982D01*
X00256847Y00805907D01*
X00256514Y00805852D01*
X00256143Y00805815D01*
X00255755Y00805796D01*
X00255643D01*
X00255514Y00805815D01*
X00255347Y00805833D01*
X00255162Y00805852D01*
X00254958Y00805889D01*
X00254755Y00805944D01*
X00254551Y00806019D01*
X00254532Y00806037D01*
X00254458Y00806056D01*
X00254366Y00806111D01*
X00254255Y00806167D01*
X00253995Y00806352D01*
X00253866Y00806463D01*
X00253755Y00806592D01*
X00253736Y00806611D01*
X00253718Y00806667D01*
X00253681Y00806741D01*
X00253625Y00806852D01*
X00253570Y00806981D01*
X00253514Y00807148D01*
X00253458Y00807333D01*
X00253421Y00807537D01*
Y00807555D01*
X00253403Y00807629D01*
Y00807740D01*
X00253384Y00807926D01*
X00253366Y00808166D01*
Y00808463D01*
X00253347Y00808629D01*
Y00808833D01*
Y00809037D01*
Y00809277D01*
Y00813333D01*
X00252218D01*
Y00815295D01*
X00253347D01*
Y00817147D01*
X00255810Y00818591D01*
Y00815295D01*
D02*
G37*
G36*
X00417367Y00818869D02*
X00417515Y00818850D01*
X00417701Y00818813D01*
X00417886Y00818776D01*
X00418108Y00818721D01*
X00418349Y00818647D01*
X00418571Y00818554D01*
X00418812Y00818462D01*
X00419052Y00818332D01*
X00419293Y00818165D01*
X00419534Y00817999D01*
X00419756Y00817795D01*
X00419960Y00817554D01*
X00419978Y00817536D01*
X00420015Y00817480D01*
X00420071Y00817388D01*
X00420163Y00817258D01*
X00420256Y00817073D01*
X00420367Y00816851D01*
X00420478Y00816610D01*
X00420589Y00816295D01*
X00420700Y00815962D01*
X00420830Y00815573D01*
X00420923Y00815147D01*
X00421015Y00814666D01*
X00421108Y00814147D01*
X00421163Y00813592D01*
X00421200Y00812981D01*
X00421219Y00812314D01*
Y00812296D01*
Y00812277D01*
Y00812222D01*
Y00812148D01*
Y00811962D01*
X00421200Y00811722D01*
X00421182Y00811425D01*
X00421145Y00811074D01*
X00421108Y00810703D01*
X00421071Y00810296D01*
X00420997Y00809870D01*
X00420904Y00809426D01*
X00420812Y00809000D01*
X00420682Y00808574D01*
X00420552Y00808148D01*
X00420367Y00807759D01*
X00420182Y00807389D01*
X00419960Y00807074D01*
X00419941Y00807056D01*
X00419904Y00807018D01*
X00419849Y00806944D01*
X00419775Y00806870D01*
X00419664Y00806778D01*
X00419534Y00806667D01*
X00419367Y00806537D01*
X00419201Y00806426D01*
X00418997Y00806296D01*
X00418793Y00806167D01*
X00418553Y00806056D01*
X00418293Y00805963D01*
X00418016Y00805889D01*
X00417701Y00805815D01*
X00417386Y00805778D01*
X00417053Y00805759D01*
X00416979D01*
X00416867Y00805778D01*
X00416738D01*
X00416590Y00805796D01*
X00416405Y00805833D01*
X00416201Y00805870D01*
X00415979Y00805945D01*
X00415738Y00806019D01*
X00415497Y00806111D01*
X00415238Y00806222D01*
X00414997Y00806370D01*
X00414738Y00806518D01*
X00414497Y00806722D01*
X00414257Y00806926D01*
X00414034Y00807185D01*
X00414016Y00807204D01*
X00413979Y00807259D01*
X00413923Y00807352D01*
X00413868Y00807463D01*
X00413775Y00807629D01*
X00413683Y00807833D01*
X00413572Y00808092D01*
X00413479Y00808370D01*
X00413368Y00808703D01*
X00413257Y00809074D01*
X00413164Y00809500D01*
X00413090Y00809963D01*
X00413016Y00810481D01*
X00412961Y00811055D01*
X00412923Y00811666D01*
X00412905Y00812333D01*
Y00812351D01*
Y00812370D01*
Y00812425D01*
Y00812499D01*
Y00812684D01*
X00412923Y00812925D01*
X00412942Y00813222D01*
X00412979Y00813573D01*
X00413016Y00813944D01*
X00413053Y00814351D01*
X00413127Y00814777D01*
X00413201Y00815203D01*
X00413312Y00815647D01*
X00413423Y00816073D01*
X00413572Y00816480D01*
X00413738Y00816869D01*
X00413923Y00817240D01*
X00414146Y00817554D01*
X00414164Y00817573D01*
X00414201Y00817610D01*
X00414257Y00817684D01*
X00414349Y00817758D01*
X00414442Y00817869D01*
X00414571Y00817980D01*
X00414738Y00818091D01*
X00414905Y00818221D01*
X00415108Y00818351D01*
X00415312Y00818462D01*
X00415553Y00818573D01*
X00415812Y00818684D01*
X00416090Y00818758D01*
X00416405Y00818832D01*
X00416719Y00818869D01*
X00417053Y00818888D01*
X00417238D01*
X00417367Y00818869D01*
D02*
G37*
%LPC*%
G36*
X00087236Y00824044D02*
X00082175D01*
Y00823891D01*
Y00823738D01*
Y00823584D01*
Y00823431D01*
Y00823278D01*
Y00823124D01*
Y00822971D01*
Y00822818D01*
Y00822664D01*
Y00822511D01*
Y00822358D01*
Y00822204D01*
Y00822051D01*
Y00821898D01*
Y00821744D01*
Y00821591D01*
Y00821438D01*
Y00821284D01*
Y00821131D01*
Y00820977D01*
Y00820824D01*
Y00820671D01*
Y00820518D01*
Y00820364D01*
Y00820211D01*
Y00820058D01*
Y00819904D01*
Y00819751D01*
Y00819597D01*
Y00819444D01*
Y00819291D01*
Y00819137D01*
Y00818984D01*
X00087082D01*
Y00819137D01*
X00087542D01*
Y00819291D01*
X00087849D01*
Y00819444D01*
X00088156D01*
Y00819597D01*
X00088309D01*
Y00819751D01*
X00088462D01*
Y00819904D01*
X00088616D01*
Y00820058D01*
X00088769D01*
Y00820211D01*
X00088922D01*
Y00820364D01*
X00089076D01*
Y00820518D01*
Y00820671D01*
Y00820824D01*
X00089229D01*
Y00820977D01*
Y00821131D01*
Y00821284D01*
Y00821438D01*
Y00821591D01*
Y00821744D01*
Y00821898D01*
Y00822051D01*
Y00822204D01*
X00089076D01*
Y00822358D01*
Y00822511D01*
Y00822664D01*
X00088922D01*
Y00822818D01*
X00088769D01*
Y00822971D01*
X00088616D01*
Y00823124D01*
Y00823278D01*
X00088309D01*
Y00823431D01*
X00088156D01*
Y00823584D01*
X00088002D01*
Y00823738D01*
X00087696D01*
Y00823891D01*
X00087236D01*
Y00824044D01*
D02*
G37*
G36*
X00087696Y00815151D02*
X00082175D01*
Y00814997D01*
Y00814844D01*
Y00814690D01*
Y00814537D01*
Y00814384D01*
Y00814230D01*
Y00814077D01*
Y00813924D01*
Y00813770D01*
Y00813617D01*
Y00813464D01*
Y00813310D01*
Y00813157D01*
Y00813003D01*
Y00812850D01*
Y00812697D01*
Y00812543D01*
Y00812390D01*
Y00812237D01*
Y00812084D01*
Y00811930D01*
Y00811777D01*
Y00811624D01*
Y00811470D01*
Y00811317D01*
Y00811163D01*
Y00811010D01*
Y00810857D01*
Y00810703D01*
Y00810550D01*
Y00810397D01*
Y00810243D01*
Y00810090D01*
Y00809937D01*
Y00809783D01*
X00087389D01*
Y00809937D01*
X00088002D01*
Y00810090D01*
X00088309D01*
Y00810243D01*
X00088462D01*
Y00810397D01*
X00088616D01*
Y00810550D01*
X00088769D01*
Y00810703D01*
X00088922D01*
Y00810857D01*
X00089076D01*
Y00811010D01*
X00089229D01*
Y00811163D01*
X00089382D01*
Y00811317D01*
X00089536D01*
Y00811470D01*
Y00811624D01*
Y00811777D01*
X00089689D01*
Y00811930D01*
Y00812084D01*
Y00812237D01*
Y00812390D01*
Y00812543D01*
Y00812697D01*
Y00812850D01*
Y00813003D01*
Y00813157D01*
X00089536D01*
Y00813310D01*
Y00813464D01*
Y00813617D01*
X00089382D01*
Y00813770D01*
Y00813924D01*
X00089229D01*
Y00814077D01*
X00089076D01*
Y00814230D01*
X00088922D01*
Y00814384D01*
X00088769D01*
Y00814537D01*
X00088616D01*
Y00814690D01*
X00088309D01*
Y00814844D01*
X00088002D01*
Y00814997D01*
X00087696D01*
Y00815151D01*
D02*
G37*
G36*
X00113458Y00824965D02*
X00112998D01*
Y00824811D01*
Y00824658D01*
X00112844D01*
Y00824504D01*
Y00824351D01*
X00112691D01*
Y00824198D01*
Y00824044D01*
Y00823891D01*
X00112537D01*
Y00823738D01*
Y00823584D01*
X00112384D01*
Y00823431D01*
Y00823278D01*
Y00823124D01*
X00112231D01*
Y00822971D01*
Y00822818D01*
X00112078D01*
Y00822664D01*
Y00822511D01*
Y00822358D01*
X00111924D01*
Y00822204D01*
Y00822051D01*
X00111771D01*
Y00821898D01*
Y00821744D01*
Y00821591D01*
X00111617D01*
Y00821438D01*
Y00821284D01*
X00111464D01*
Y00821131D01*
Y00820977D01*
Y00820824D01*
X00111311D01*
Y00820671D01*
Y00820518D01*
X00111157D01*
Y00820364D01*
Y00820211D01*
Y00820058D01*
X00111004D01*
Y00819904D01*
Y00819751D01*
Y00819597D01*
X00110851D01*
Y00819444D01*
Y00819291D01*
X00110697D01*
Y00819137D01*
Y00818984D01*
Y00818831D01*
X00110544D01*
Y00818677D01*
Y00818524D01*
X00110391D01*
Y00818371D01*
Y00818217D01*
X00110237D01*
Y00818064D01*
Y00817911D01*
Y00817757D01*
X00110084D01*
Y00817604D01*
Y00817451D01*
X00109931D01*
Y00817297D01*
Y00817144D01*
Y00816991D01*
X00109777D01*
Y00816837D01*
Y00816684D01*
X00109624D01*
Y00816531D01*
Y00816377D01*
Y00816224D01*
X00109471D01*
Y00816070D01*
Y00815917D01*
X00109317D01*
Y00815764D01*
Y00815611D01*
Y00815457D01*
X00109164D01*
Y00815304D01*
Y00815151D01*
X00109011D01*
Y00814997D01*
Y00814844D01*
X00108857D01*
Y00814690D01*
Y00814537D01*
Y00814384D01*
X00108704D01*
Y00814230D01*
Y00814077D01*
X00108551D01*
Y00813924D01*
Y00813770D01*
Y00813617D01*
X00108397D01*
Y00813464D01*
Y00813310D01*
Y00813157D01*
X00118365D01*
Y00813310D01*
Y00813464D01*
X00118211D01*
Y00813617D01*
Y00813770D01*
X00118058D01*
Y00813924D01*
Y00814077D01*
X00117905D01*
Y00814230D01*
Y00814384D01*
Y00814537D01*
X00117751D01*
Y00814690D01*
Y00814844D01*
X00117598D01*
Y00814997D01*
Y00815151D01*
X00117445D01*
Y00815304D01*
Y00815457D01*
Y00815611D01*
X00117291D01*
Y00815764D01*
Y00815917D01*
X00117138D01*
Y00816070D01*
Y00816224D01*
X00116985D01*
Y00816377D01*
Y00816531D01*
Y00816684D01*
X00116831D01*
Y00816837D01*
Y00816991D01*
X00116678D01*
Y00817144D01*
Y00817297D01*
X00116524D01*
Y00817451D01*
Y00817604D01*
Y00817757D01*
X00116371D01*
Y00817911D01*
Y00818064D01*
X00116218D01*
Y00818217D01*
Y00818371D01*
Y00818524D01*
X00116065D01*
Y00818677D01*
Y00818831D01*
X00115911D01*
Y00818984D01*
Y00819137D01*
X00115758D01*
Y00819291D01*
Y00819444D01*
Y00819597D01*
X00115604D01*
Y00819751D01*
Y00819904D01*
X00115451D01*
Y00820058D01*
Y00820211D01*
Y00820364D01*
X00115298D01*
Y00820518D01*
Y00820671D01*
X00115144D01*
Y00820824D01*
Y00820977D01*
X00114991D01*
Y00821131D01*
Y00821284D01*
X00114838D01*
Y00821438D01*
Y00821591D01*
X00114684D01*
Y00821744D01*
Y00821898D01*
Y00822051D01*
X00114531D01*
Y00822204D01*
Y00822358D01*
X00114378D01*
Y00822511D01*
Y00822664D01*
X00114224D01*
Y00822818D01*
Y00822971D01*
Y00823124D01*
X00114071D01*
Y00823278D01*
Y00823431D01*
X00113918D01*
Y00823584D01*
Y00823738D01*
Y00823891D01*
X00113764D01*
Y00824044D01*
Y00824198D01*
X00113611D01*
Y00824351D01*
Y00824504D01*
X00113458D01*
Y00824658D01*
Y00824811D01*
Y00824965D01*
D02*
G37*
G36*
X00137533Y00826038D02*
X00129866D01*
Y00825885D01*
Y00825731D01*
Y00825578D01*
Y00825424D01*
Y00825271D01*
Y00825118D01*
Y00824965D01*
Y00824811D01*
Y00824658D01*
Y00824504D01*
Y00824351D01*
Y00824198D01*
Y00824044D01*
Y00823891D01*
Y00823738D01*
Y00823584D01*
Y00823431D01*
Y00823278D01*
Y00823124D01*
Y00822971D01*
Y00822818D01*
Y00822664D01*
Y00822511D01*
Y00822358D01*
Y00822204D01*
Y00822051D01*
Y00821898D01*
Y00821744D01*
Y00821591D01*
Y00821438D01*
Y00821284D01*
Y00821131D01*
Y00820977D01*
Y00820824D01*
Y00820671D01*
Y00820518D01*
Y00820364D01*
Y00820211D01*
Y00820058D01*
Y00819904D01*
Y00819751D01*
Y00819597D01*
Y00819444D01*
Y00819291D01*
Y00819137D01*
Y00818984D01*
Y00818831D01*
Y00818677D01*
Y00818524D01*
Y00818371D01*
Y00818217D01*
Y00818064D01*
Y00817911D01*
Y00817757D01*
Y00817604D01*
Y00817451D01*
Y00817297D01*
Y00817144D01*
Y00816991D01*
Y00816837D01*
Y00816684D01*
X00137380D01*
Y00816837D01*
X00137993D01*
Y00816991D01*
X00138453D01*
Y00817144D01*
X00138760D01*
Y00817297D01*
X00139066D01*
Y00817451D01*
X00139220D01*
Y00817604D01*
X00139526D01*
Y00817757D01*
X00139680D01*
Y00817911D01*
X00139833D01*
Y00818064D01*
X00139986D01*
Y00818217D01*
X00140140D01*
Y00818371D01*
X00140293D01*
Y00818524D01*
X00140446D01*
Y00818677D01*
X00140600D01*
Y00818831D01*
Y00818984D01*
X00140753D01*
Y00819137D01*
X00140906D01*
Y00819291D01*
Y00819444D01*
X00141060D01*
Y00819597D01*
Y00819751D01*
Y00819904D01*
X00141213D01*
Y00820058D01*
Y00820211D01*
Y00820364D01*
X00141366D01*
Y00820518D01*
Y00820671D01*
Y00820824D01*
Y00820977D01*
Y00821131D01*
Y00821284D01*
Y00821438D01*
Y00821591D01*
Y00821744D01*
Y00821898D01*
Y00822051D01*
Y00822204D01*
Y00822358D01*
X00141213D01*
Y00822511D01*
Y00822664D01*
Y00822818D01*
Y00822971D01*
X00141060D01*
Y00823124D01*
Y00823278D01*
X00140906D01*
Y00823431D01*
Y00823584D01*
X00140753D01*
Y00823738D01*
Y00823891D01*
X00140600D01*
Y00824044D01*
X00140446D01*
Y00824198D01*
X00140293D01*
Y00824351D01*
Y00824504D01*
X00140140D01*
Y00824658D01*
X00139986D01*
Y00824811D01*
X00139680D01*
Y00824965D01*
X00139526D01*
Y00825118D01*
X00139373D01*
Y00825271D01*
X00139066D01*
Y00825424D01*
X00138760D01*
Y00825578D01*
X00138453D01*
Y00825731D01*
X00137993D01*
Y00825885D01*
X00137533D01*
Y00826038D01*
D02*
G37*
G36*
X00335820Y00813610D02*
X00335783D01*
X00335672Y00813592D01*
X00335505Y00813573D01*
X00335320Y00813518D01*
X00335080Y00813444D01*
X00334839Y00813314D01*
X00334598Y00813147D01*
X00334357Y00812907D01*
X00334339Y00812870D01*
X00334265Y00812777D01*
X00334172Y00812610D01*
X00334080Y00812388D01*
X00333969Y00812092D01*
X00333876Y00811740D01*
X00333802Y00811314D01*
X00333783Y00810833D01*
Y00810814D01*
Y00810777D01*
Y00810685D01*
Y00810592D01*
X00333802Y00810462D01*
Y00810333D01*
X00333839Y00810018D01*
X00333876Y00809666D01*
X00333950Y00809296D01*
X00334061Y00808963D01*
X00334117Y00808814D01*
X00334191Y00808685D01*
Y00808666D01*
X00334228Y00808648D01*
X00334302Y00808537D01*
X00334432Y00808389D01*
X00334617Y00808222D01*
X00334857Y00808037D01*
X00335135Y00807889D01*
X00335468Y00807778D01*
X00335654Y00807759D01*
X00335839Y00807741D01*
X00335876D01*
X00335987Y00807759D01*
X00336135Y00807778D01*
X00336339Y00807833D01*
X00336561Y00807907D01*
X00336802Y00808037D01*
X00337042Y00808204D01*
X00337283Y00808444D01*
X00337302Y00808481D01*
X00337376Y00808574D01*
X00337468Y00808740D01*
X00337579Y00808981D01*
X00337691Y00809277D01*
X00337783Y00809648D01*
X00337857Y00810092D01*
X00337876Y00810592D01*
Y00810611D01*
Y00810666D01*
Y00810740D01*
Y00810851D01*
X00337857Y00810981D01*
X00337839Y00811148D01*
X00337802Y00811481D01*
X00337728Y00811870D01*
X00337635Y00812240D01*
X00337487Y00812610D01*
X00337394Y00812759D01*
X00337283Y00812907D01*
X00337265Y00812944D01*
X00337172Y00813018D01*
X00337061Y00813129D01*
X00336894Y00813259D01*
X00336672Y00813388D01*
X00336431Y00813499D01*
X00336135Y00813573D01*
X00335820Y00813610D01*
D02*
G37*
G36*
X00357151Y00813555D02*
X00357114D01*
X00357003Y00813536D01*
X00356837Y00813518D01*
X00356633Y00813462D01*
X00356392Y00813388D01*
X00356133Y00813259D01*
X00355892Y00813092D01*
X00355652Y00812851D01*
X00355633Y00812814D01*
X00355559Y00812721D01*
X00355466Y00812555D01*
X00355374Y00812333D01*
X00355263Y00812036D01*
X00355170Y00811685D01*
X00355096Y00811277D01*
X00355078Y00810796D01*
Y00810777D01*
Y00810722D01*
Y00810648D01*
X00355096Y00810537D01*
Y00810407D01*
X00355115Y00810259D01*
X00355152Y00809926D01*
X00355226Y00809537D01*
X00355337Y00809148D01*
X00355485Y00808796D01*
X00355578Y00808629D01*
X00355689Y00808481D01*
X00355726Y00808444D01*
X00355800Y00808370D01*
X00355929Y00808241D01*
X00356115Y00808111D01*
X00356318Y00807981D01*
X00356577Y00807852D01*
X00356874Y00807778D01*
X00357188Y00807741D01*
X00357225D01*
X00357337Y00807759D01*
X00357485Y00807778D01*
X00357688Y00807833D01*
X00357911Y00807907D01*
X00358151Y00808037D01*
X00358392Y00808204D01*
X00358614Y00808426D01*
X00358633Y00808463D01*
X00358707Y00808555D01*
X00358799Y00808722D01*
X00358910Y00808963D01*
X00358947Y00809111D01*
X00359003Y00809277D01*
X00359059Y00809463D01*
X00359096Y00809666D01*
X00359133Y00809889D01*
X00359170Y00810129D01*
X00359188Y00810388D01*
Y00810666D01*
Y00810685D01*
Y00810740D01*
Y00810814D01*
Y00810907D01*
X00359170Y00811037D01*
X00359151Y00811166D01*
X00359114Y00811481D01*
X00359040Y00811833D01*
X00358947Y00812203D01*
X00358799Y00812536D01*
X00358596Y00812833D01*
X00358577Y00812870D01*
X00358485Y00812944D01*
X00358355Y00813055D01*
X00358188Y00813203D01*
X00357985Y00813333D01*
X00357744Y00813444D01*
X00357466Y00813518D01*
X00357151Y00813555D01*
D02*
G37*
G36*
X00347875Y00810444D02*
X00347856D01*
X00347782Y00810407D01*
X00347671Y00810388D01*
X00347504Y00810333D01*
X00347301Y00810277D01*
X00347023Y00810203D01*
X00346727Y00810129D01*
X00346356Y00810055D01*
X00346319D01*
X00346264Y00810037D01*
X00346190Y00810018D01*
X00346023Y00809981D01*
X00345801Y00809926D01*
X00345579Y00809870D01*
X00345356Y00809796D01*
X00345171Y00809703D01*
X00345023Y00809629D01*
X00345005Y00809611D01*
X00344949Y00809574D01*
X00344875Y00809500D01*
X00344801Y00809407D01*
X00344708Y00809277D01*
X00344634Y00809129D01*
X00344579Y00808963D01*
X00344560Y00808777D01*
Y00808759D01*
Y00808685D01*
X00344579Y00808592D01*
X00344616Y00808481D01*
X00344653Y00808333D01*
X00344708Y00808185D01*
X00344801Y00808037D01*
X00344930Y00807889D01*
X00344949Y00807870D01*
X00345005Y00807833D01*
X00345079Y00807778D01*
X00345208Y00807703D01*
X00345338Y00807629D01*
X00345504Y00807574D01*
X00345708Y00807537D01*
X00345912Y00807518D01*
X00346023D01*
X00346153Y00807537D01*
X00346319Y00807574D01*
X00346523Y00807629D01*
X00346727Y00807703D01*
X00346967Y00807796D01*
X00347189Y00807944D01*
X00347208Y00807963D01*
X00347264Y00808000D01*
X00347338Y00808074D01*
X00347430Y00808167D01*
X00347523Y00808296D01*
X00347615Y00808426D01*
X00347708Y00808592D01*
X00347763Y00808759D01*
Y00808777D01*
X00347782Y00808814D01*
X00347800Y00808907D01*
X00347819Y00809018D01*
X00347838Y00809185D01*
X00347856Y00809389D01*
X00347875Y00809648D01*
Y00809944D01*
Y00810444D01*
D02*
G37*
G36*
X00323914Y00815832D02*
X00322174Y00811074D01*
X00325710D01*
X00323914Y00815832D01*
D02*
G37*
G36*
X00242589Y00815129D02*
X00239608Y00810722D01*
X00242589D01*
Y00815129D01*
D02*
G37*
G36*
X00373298Y00813610D02*
X00373168D01*
X00373020Y00813573D01*
X00372835Y00813536D01*
X00372631Y00813462D01*
X00372409Y00813370D01*
X00372187Y00813222D01*
X00371983Y00813018D01*
X00371965Y00812999D01*
X00371909Y00812907D01*
X00371817Y00812777D01*
X00371724Y00812592D01*
X00371613Y00812370D01*
X00371539Y00812092D01*
X00371483Y00811777D01*
X00371465Y00811425D01*
X00375131D01*
Y00811444D01*
Y00811481D01*
Y00811518D01*
X00375112Y00811592D01*
X00375094Y00811796D01*
X00375057Y00812018D01*
X00374983Y00812277D01*
X00374890Y00812555D01*
X00374742Y00812814D01*
X00374576Y00813036D01*
X00374557Y00813055D01*
X00374483Y00813129D01*
X00374372Y00813222D01*
X00374224Y00813333D01*
X00374039Y00813425D01*
X00373816Y00813518D01*
X00373576Y00813592D01*
X00373298Y00813610D01*
D02*
G37*
G36*
X00263420Y00813499D02*
X00263328D01*
X00263254Y00813481D01*
X00263087Y00813462D01*
X00262865Y00813407D01*
X00262606Y00813314D01*
X00262328Y00813184D01*
X00262050Y00812999D01*
X00261791Y00812758D01*
X00261772Y00812721D01*
X00261698Y00812629D01*
X00261587Y00812444D01*
X00261476Y00812222D01*
X00261346Y00811925D01*
X00261254Y00811555D01*
X00261180Y00811129D01*
X00261143Y00810648D01*
Y00810629D01*
Y00810592D01*
Y00810518D01*
X00261161Y00810425D01*
Y00810296D01*
X00261180Y00810166D01*
X00261217Y00809870D01*
X00261310Y00809518D01*
X00261421Y00809166D01*
X00261569Y00808814D01*
X00261791Y00808518D01*
X00261828Y00808481D01*
X00261902Y00808407D01*
X00262050Y00808296D01*
X00262254Y00808166D01*
X00262476Y00808018D01*
X00262754Y00807907D01*
X00263069Y00807833D01*
X00263420Y00807796D01*
X00263513D01*
X00263587Y00807815D01*
X00263754Y00807833D01*
X00263976Y00807889D01*
X00264235Y00807981D01*
X00264513Y00808092D01*
X00264772Y00808278D01*
X00265031Y00808518D01*
X00265068Y00808555D01*
X00265142Y00808648D01*
X00265235Y00808833D01*
X00265365Y00809055D01*
X00265494Y00809370D01*
X00265587Y00809722D01*
X00265661Y00810166D01*
X00265698Y00810648D01*
Y00810666D01*
Y00810703D01*
Y00810777D01*
X00265679Y00810870D01*
Y00810981D01*
X00265661Y00811129D01*
X00265624Y00811425D01*
X00265531Y00811759D01*
X00265420Y00812111D01*
X00265254Y00812462D01*
X00265031Y00812758D01*
X00264994Y00812796D01*
X00264920Y00812870D01*
X00264772Y00812999D01*
X00264587Y00813129D01*
X00264346Y00813259D01*
X00264087Y00813388D01*
X00263772Y00813462D01*
X00263420Y00813499D01*
D02*
G37*
G36*
X00417053Y00816851D02*
X00416979D01*
X00416886Y00816832D01*
X00416793Y00816814D01*
X00416664Y00816777D01*
X00416534Y00816721D01*
X00416386Y00816647D01*
X00416256Y00816554D01*
X00416238Y00816536D01*
X00416201Y00816499D01*
X00416145Y00816425D01*
X00416071Y00816332D01*
X00415979Y00816184D01*
X00415905Y00816018D01*
X00415812Y00815795D01*
X00415738Y00815536D01*
Y00815518D01*
X00415719Y00815499D01*
Y00815425D01*
X00415701Y00815351D01*
X00415682Y00815240D01*
X00415664Y00815110D01*
X00415645Y00814962D01*
X00415627Y00814777D01*
X00415590Y00814555D01*
X00415571Y00814333D01*
X00415553Y00814055D01*
X00415534Y00813777D01*
X00415516Y00813444D01*
Y00813110D01*
X00415497Y00812721D01*
Y00812314D01*
Y00812296D01*
Y00812222D01*
Y00812092D01*
Y00811944D01*
Y00811759D01*
X00415516Y00811555D01*
Y00811314D01*
X00415534Y00811074D01*
X00415553Y00810555D01*
X00415590Y00810037D01*
X00415608Y00809796D01*
X00415645Y00809574D01*
X00415682Y00809370D01*
X00415719Y00809185D01*
X00415738Y00809148D01*
X00415756Y00809055D01*
X00415812Y00808907D01*
X00415868Y00808740D01*
X00415960Y00808555D01*
X00416053Y00808370D01*
X00416164Y00808204D01*
X00416275Y00808074D01*
X00416293Y00808055D01*
X00416330Y00808037D01*
X00416405Y00807981D01*
X00416497Y00807944D01*
X00416608Y00807889D01*
X00416738Y00807833D01*
X00416886Y00807815D01*
X00417053Y00807796D01*
X00417127D01*
X00417219Y00807815D01*
X00417312Y00807833D01*
X00417441Y00807870D01*
X00417571Y00807907D01*
X00417701Y00807981D01*
X00417830Y00808074D01*
X00417849Y00808092D01*
X00417886Y00808129D01*
X00417960Y00808204D01*
X00418034Y00808315D01*
X00418108Y00808444D01*
X00418201Y00808629D01*
X00418293Y00808833D01*
X00418367Y00809092D01*
Y00809111D01*
X00418386Y00809129D01*
Y00809203D01*
X00418404Y00809277D01*
X00418423Y00809389D01*
X00418441Y00809518D01*
X00418478Y00809666D01*
X00418497Y00809852D01*
X00418515Y00810055D01*
X00418553Y00810296D01*
X00418571Y00810555D01*
X00418590Y00810851D01*
X00418608Y00811166D01*
Y00811518D01*
X00418627Y00811907D01*
Y00812314D01*
Y00812333D01*
Y00812407D01*
Y00812536D01*
Y00812684D01*
Y00812870D01*
X00418608Y00813073D01*
Y00813314D01*
X00418590Y00813555D01*
X00418571Y00814073D01*
X00418534Y00814573D01*
X00418497Y00814814D01*
X00418460Y00815055D01*
X00418423Y00815258D01*
X00418386Y00815425D01*
Y00815443D01*
X00418367Y00815462D01*
X00418349Y00815555D01*
X00418293Y00815703D01*
X00418238Y00815888D01*
X00418145Y00816073D01*
X00418052Y00816258D01*
X00417941Y00816425D01*
X00417830Y00816554D01*
X00417812Y00816573D01*
X00417775Y00816610D01*
X00417701Y00816647D01*
X00417608Y00816703D01*
X00417497Y00816758D01*
X00417367Y00816814D01*
X00417219Y00816832D01*
X00417053Y00816851D01*
D02*
G37*
%LPD*%
D27*
X00529000Y00090334D02*
D03*
X00524000D02*
D03*
X00519000D02*
D03*
X00514000D02*
D03*
X00509000D02*
D03*
Y00131666D02*
D03*
X00514000D02*
D03*
X00519000D02*
D03*
X00524000D02*
D03*
D28*
X00529000D02*
D03*
D54*
X00104790Y00455215D02*
D03*
Y00460715D02*
D03*
D55*
X00169000Y00609000D02*
D03*
Y00599000D02*
D03*
X00055000Y00695000D02*
D03*
Y00685000D02*
D03*
X00176000Y00493500D02*
D03*
Y00482500D02*
D03*
X00200000Y00416500D02*
D03*
Y00427500D02*
D03*
X00066547Y00467612D02*
D03*
Y00457612D02*
D03*
D56*
X00462998Y00555501D02*
D03*
X00458998D02*
D03*
X00450998D02*
D03*
X00454998D02*
D03*
X00438998D02*
D03*
X00434998D02*
D03*
X00442999D02*
D03*
X00446998D02*
D03*
X00426998D02*
D03*
X00430998D02*
D03*
X00502999D02*
D03*
X00498998D02*
D03*
X00490998D02*
D03*
X00494999D02*
D03*
X00478998D02*
D03*
X00474999D02*
D03*
X00482999D02*
D03*
X00486998D02*
D03*
X00466998D02*
D03*
X00470998D02*
D03*
X00542999D02*
D03*
X00538998D02*
D03*
X00530998D02*
D03*
X00534998D02*
D03*
X00518998D02*
D03*
X00514999D02*
D03*
X00522999D02*
D03*
X00526998D02*
D03*
X00506998D02*
D03*
X00510998D02*
D03*
X00582999D02*
D03*
X00578998D02*
D03*
X00570998D02*
D03*
X00574998D02*
D03*
X00558998D02*
D03*
X00554999D02*
D03*
X00562999D02*
D03*
X00566998D02*
D03*
X00546998D02*
D03*
X00550998D02*
D03*
X00590998D02*
D03*
X00586998D02*
D03*
X00606998D02*
D03*
X00602999D02*
D03*
X00594999D02*
D03*
X00598998D02*
D03*
X00614998D02*
D03*
X00610998D02*
D03*
X00618998D02*
D03*
X00622998D02*
D03*
Y00528201D02*
D03*
X00618998D02*
D03*
X00610998D02*
D03*
X00614998D02*
D03*
X00598998D02*
D03*
X00594999D02*
D03*
X00602999D02*
D03*
X00606998D02*
D03*
X00586998D02*
D03*
X00590998D02*
D03*
X00550998D02*
D03*
X00546998D02*
D03*
X00566998D02*
D03*
X00562999D02*
D03*
X00554999D02*
D03*
X00558998D02*
D03*
X00574998D02*
D03*
X00570998D02*
D03*
X00578998D02*
D03*
X00582999D02*
D03*
X00510998D02*
D03*
X00506998D02*
D03*
X00526998D02*
D03*
X00522999D02*
D03*
X00514999D02*
D03*
X00518998D02*
D03*
X00534998D02*
D03*
X00530998D02*
D03*
X00538998D02*
D03*
X00542999D02*
D03*
X00470998D02*
D03*
X00466998D02*
D03*
X00486998D02*
D03*
X00482999D02*
D03*
X00474999D02*
D03*
X00478998D02*
D03*
X00494999D02*
D03*
X00490998D02*
D03*
X00498998D02*
D03*
X00502999D02*
D03*
X00430998D02*
D03*
X00426998D02*
D03*
X00446998D02*
D03*
X00442999D02*
D03*
X00434998D02*
D03*
X00438998D02*
D03*
X00454998D02*
D03*
X00450998D02*
D03*
X00458998D02*
D03*
X00462998D02*
D03*
X00463000Y00215500D02*
D03*
X00459000D02*
D03*
X00451000D02*
D03*
X00455000D02*
D03*
X00439000D02*
D03*
X00435000D02*
D03*
X00443000D02*
D03*
X00447000D02*
D03*
X00427000D02*
D03*
X00431000D02*
D03*
X00503000D02*
D03*
X00499000D02*
D03*
X00491000D02*
D03*
X00495000D02*
D03*
X00479000D02*
D03*
X00475000D02*
D03*
X00483000D02*
D03*
X00487000D02*
D03*
X00467000D02*
D03*
X00471000D02*
D03*
X00543000D02*
D03*
X00539000D02*
D03*
X00531000D02*
D03*
X00535000D02*
D03*
X00519000D02*
D03*
X00515000D02*
D03*
X00523000D02*
D03*
X00527000D02*
D03*
X00507000D02*
D03*
X00511000D02*
D03*
X00583000D02*
D03*
X00579000D02*
D03*
X00571000D02*
D03*
X00575000D02*
D03*
X00559000D02*
D03*
X00555000D02*
D03*
X00563000D02*
D03*
X00567000D02*
D03*
X00547000D02*
D03*
X00551000D02*
D03*
X00591000D02*
D03*
X00587000D02*
D03*
X00607000D02*
D03*
X00603000D02*
D03*
X00595000D02*
D03*
X00599000D02*
D03*
X00615000D02*
D03*
X00611000D02*
D03*
X00619000D02*
D03*
X00623000D02*
D03*
Y00188200D02*
D03*
X00619000D02*
D03*
X00611000D02*
D03*
X00615000D02*
D03*
X00599000D02*
D03*
X00595000D02*
D03*
X00603000D02*
D03*
X00607000D02*
D03*
X00587000D02*
D03*
X00591000D02*
D03*
X00551000D02*
D03*
X00547000D02*
D03*
X00567000D02*
D03*
X00563000D02*
D03*
X00555000D02*
D03*
X00559000D02*
D03*
X00575000D02*
D03*
X00571000D02*
D03*
X00579000D02*
D03*
X00583000D02*
D03*
X00511000D02*
D03*
X00507000D02*
D03*
X00527000D02*
D03*
X00523000D02*
D03*
X00515000D02*
D03*
X00519000D02*
D03*
X00535000D02*
D03*
X00531000D02*
D03*
X00539000D02*
D03*
X00543000D02*
D03*
X00471000D02*
D03*
X00467000D02*
D03*
X00487000D02*
D03*
X00483000D02*
D03*
X00475000D02*
D03*
X00479000D02*
D03*
X00495000D02*
D03*
X00491000D02*
D03*
X00499000D02*
D03*
X00503000D02*
D03*
X00431000D02*
D03*
X00427000D02*
D03*
X00447000D02*
D03*
X00443000D02*
D03*
X00435000D02*
D03*
X00439000D02*
D03*
X00455000D02*
D03*
X00451000D02*
D03*
X00459000D02*
D03*
X00463000D02*
D03*
D57*
X00070500Y00700750D02*
D03*
X00083500D02*
D03*
Y00679250D02*
D03*
X00077000D02*
D03*
X00070500D02*
D03*
D58*
X00179250Y00603500D02*
D03*
Y00616500D02*
D03*
X00200750D02*
D03*
X00200750Y00610000D02*
D03*
X00200750Y00603500D02*
D03*
D59*
X00316750Y00151000D02*
D03*
X00325250D02*
D03*
X00341750Y00142000D02*
D03*
X00350250D02*
D03*
X00298750Y00151000D02*
D03*
X00307250D02*
D03*
X00323750Y00142000D02*
D03*
X00332250D02*
D03*
X00300250D02*
D03*
X00291750D02*
D03*
X00374250Y00151000D02*
D03*
X00365750D02*
D03*
X00347750D02*
D03*
X00356250D02*
D03*
X00372750Y00142000D02*
D03*
X00381250D02*
D03*
X00424250Y00151000D02*
D03*
X00415750D02*
D03*
X00397750D02*
D03*
X00406250D02*
D03*
X00399250Y00142000D02*
D03*
X00390750D02*
D03*
X00449250D02*
D03*
X00440750D02*
D03*
X00422750D02*
D03*
X00431250D02*
D03*
X00535250Y00071000D02*
D03*
X00526750D02*
D03*
X00508750D02*
D03*
X00517250D02*
D03*
X00596224Y00333965D02*
D03*
X00604724D02*
D03*
X00043750Y00778000D02*
D03*
X00052250D02*
D03*
X00043750Y00728000D02*
D03*
X00052250D02*
D03*
X00066445Y00477571D02*
D03*
X00057945D02*
D03*
X00643750Y00151000D02*
D03*
X00652250D02*
D03*
X00670250D02*
D03*
X00661750D02*
D03*
X00679750D02*
D03*
X00688250D02*
D03*
X00529250Y00765000D02*
D03*
X00520750D02*
D03*
X00492250D02*
D03*
X00483750D02*
D03*
X00534750Y00755000D02*
D03*
X00543250D02*
D03*
X00554750Y00714000D02*
D03*
X00563250D02*
D03*
X00515750D02*
D03*
X00524250D02*
D03*
X00495750Y00754000D02*
D03*
X00504250D02*
D03*
X00477750Y00811000D02*
D03*
X00486250D02*
D03*
X00528750D02*
D03*
X00537250D02*
D03*
X00477750Y00714000D02*
D03*
X00486250D02*
D03*
X00459750Y00754000D02*
D03*
X00468250D02*
D03*
X00440750Y00714000D02*
D03*
X00449250D02*
D03*
X00453250Y00764000D02*
D03*
X00444750D02*
D03*
X00274750Y00753000D02*
D03*
X00283250D02*
D03*
X00415250Y00765000D02*
D03*
X00406750D02*
D03*
X00299250D02*
D03*
X00290750D02*
D03*
X00325750Y00714000D02*
D03*
X00334250D02*
D03*
X00402750D02*
D03*
X00411250D02*
D03*
X00313750Y00753000D02*
D03*
X00322250D02*
D03*
X00376250Y00765000D02*
D03*
X00367750D02*
D03*
X00391750Y00753000D02*
D03*
X00400250D02*
D03*
X00287750Y00713000D02*
D03*
X00296250D02*
D03*
X00337250Y00765000D02*
D03*
X00328750D02*
D03*
X00363750Y00714000D02*
D03*
X00372250D02*
D03*
X00350750Y00753000D02*
D03*
X00359250D02*
D03*
D60*
X00493000Y00047500D02*
D03*
X00557000D02*
D03*
D61*
X00531500Y00055500D02*
D03*
X00525000Y00055500D02*
D03*
X00518500Y00055500D02*
D03*
X00512000Y00055500D02*
D03*
X00538000D02*
D03*
D62*
X00535500Y00025000D02*
D03*
X00514500D02*
D03*
D63*
X00415000Y00109500D02*
D03*
X00410000D02*
D03*
X00405000D02*
D03*
X00400000D02*
D03*
X00395000D02*
D03*
X00390000D02*
D03*
X00385000D02*
D03*
X00380000D02*
D03*
X00375000D02*
D03*
X00370000D02*
D03*
X00365000D02*
D03*
X00360000D02*
D03*
X00355000D02*
D03*
X00350000D02*
D03*
X00345000D02*
D03*
X00340000D02*
D03*
X00335000D02*
D03*
X00330000D02*
D03*
X00325000D02*
D03*
D64*
X00541000Y00129000D02*
D03*
Y00136900D02*
D03*
X00495000Y00130950D02*
D03*
Y00123050D02*
D03*
X00495000Y00138100D02*
D03*
Y00146000D02*
D03*
D65*
X00500000Y00069250D02*
D03*
Y00060750D02*
D03*
X00837000Y00165750D02*
D03*
Y00174250D02*
D03*
X00828000Y00165750D02*
D03*
Y00174250D02*
D03*
X00652000Y00395500D02*
D03*
Y00387000D02*
D03*
Y00407000D02*
D03*
Y00415500D02*
D03*
Y00355500D02*
D03*
Y00347000D02*
D03*
Y00375500D02*
D03*
Y00367000D02*
D03*
Y00427000D02*
D03*
Y00435500D02*
D03*
Y00315500D02*
D03*
Y00307000D02*
D03*
Y00335500D02*
D03*
Y00327000D02*
D03*
X00076561Y00485691D02*
D03*
Y00477191D02*
D03*
X00132000Y00456250D02*
D03*
Y00464750D02*
D03*
X00076000Y00467250D02*
D03*
Y00458750D02*
D03*
X00442000Y00798250D02*
D03*
Y00789750D02*
D03*
X00427000Y00751750D02*
D03*
Y00760250D02*
D03*
D66*
X00097000Y00486000D02*
D03*
X00087000D02*
D03*
X00625597Y00334053D02*
D03*
X00614597D02*
D03*
X00611500Y00381000D02*
D03*
X00600500D02*
D03*
X00112000Y00286000D02*
D03*
X00101000D02*
D03*
X00122500D02*
D03*
X00133500D02*
D03*
X00173000D02*
D03*
X00162000D02*
D03*
X00182500D02*
D03*
X00193500D02*
D03*
X00209500Y00517000D02*
D03*
X00198500D02*
D03*
X00188500Y00448000D02*
D03*
X00177500D02*
D03*
X00076394Y00447745D02*
D03*
X00066394D02*
D03*
X00076394Y00438968D02*
D03*
X00066394D02*
D03*
X00066397Y00486883D02*
D03*
X00056397D02*
D03*
X00042000Y00433000D02*
D03*
X00052000D02*
D03*
X00118177Y00432213D02*
D03*
X00108177D02*
D03*
D67*
X00211819Y00268946D02*
D03*
Y00174746D02*
D03*
X00101819Y00268946D02*
D03*
X00111819D02*
D03*
X00121819D02*
D03*
X00131819D02*
D03*
X00161819D02*
D03*
X00171819D02*
D03*
X00181819D02*
D03*
X00191819D02*
D03*
X00201819D02*
D03*
Y00174746D02*
D03*
X00191819D02*
D03*
X00181819D02*
D03*
X00171819D02*
D03*
X00161819D02*
D03*
X00151819D02*
D03*
X00141819D02*
D03*
X00131819D02*
D03*
X00121819D02*
D03*
X00111819D02*
D03*
X00101819D02*
D03*
X00151819Y00268946D02*
D03*
X00141819D02*
D03*
D68*
X00609500Y00344750D02*
D03*
X00590500D02*
D03*
Y00369250D02*
D03*
X00600000D02*
D03*
X00609500D02*
D03*
X00208500Y00480750D02*
D03*
X00189500D02*
D03*
Y00505250D02*
D03*
X00199000D02*
D03*
X00208500D02*
D03*
D69*
X00675000Y00335500D02*
D03*
Y00346500D02*
D03*
Y00357500D02*
D03*
Y00368500D02*
D03*
Y00379500D02*
D03*
Y00390500D02*
D03*
Y00401500D02*
D03*
Y00412500D02*
D03*
Y00324500D02*
D03*
D70*
X00781000Y00467500D02*
D03*
Y00312500D02*
D03*
D71*
X00685000D02*
D03*
D72*
Y00458500D02*
D03*
D73*
X00015000Y00762500D02*
D03*
Y00777500D02*
D03*
Y00712500D02*
D03*
Y00727500D02*
D03*
D74*
X00158000Y00643500D02*
D03*
X00116000D02*
D03*
X00158000Y00688500D02*
D03*
X00116000D02*
D03*
D75*
X00193500Y00458000D02*
D03*
X00178500D02*
D03*
X00053500Y00454000D02*
D03*
X00038500D02*
D03*
X00053500Y00443000D02*
D03*
X00038500D02*
D03*
D76*
X00187094Y00437309D02*
D03*
X00182094D02*
D03*
X00177094D02*
D03*
Y00417809D02*
D03*
X00182094D02*
D03*
X00187094D02*
D03*
D77*
X00182094Y00427559D02*
D03*
D78*
X00185000Y00372000D02*
D03*
X00229000D02*
D03*
D79*
X00210000Y00415500D02*
D03*
Y00430500D02*
D03*
D80*
X00145750Y00362499D02*
D03*
X00033250D02*
D03*
D81*
X00168000Y00465000D02*
D03*
D82*
X00085000Y00498998D02*
D03*
X00105000D02*
D03*
X00085000Y00515498D02*
D03*
X00105000D02*
D03*
D83*
X00121790Y00465465D02*
D03*
Y00450465D02*
D03*
X00087789D02*
D03*
Y00465465D02*
D03*
D84*
X00114789Y00440965D02*
D03*
X00109789D02*
D03*
X00104789D02*
D03*
X00099789D02*
D03*
X00094789D02*
D03*
Y00474965D02*
D03*
X00099789D02*
D03*
X00104789D02*
D03*
X00109789D02*
D03*
X00114789D02*
D03*
D85*
X00104789Y00457965D02*
D03*
D86*
X00553250Y00025000D02*
D03*
X00496750D02*
D03*
D87*
X00545000Y00048000D02*
D03*
X00505000D02*
D03*
X00187100Y00762000D02*
D03*
X00730900Y00731500D02*
D03*
D88*
X00442500Y00101800D02*
D03*
X00297500D02*
D03*
D89*
X00297500Y00042200D02*
D03*
D90*
X00442500D02*
D03*
D91*
X00785000Y00340500D02*
D03*
Y00420500D02*
D03*
D92*
X00107300Y00143700D02*
D03*
X00198700D02*
D03*
X00084400D02*
D03*
X00221600D02*
D03*
D93*
X00117300Y00095700D02*
D03*
X00127500Y00077900D02*
D03*
X00137700Y00095700D02*
D03*
X00147900Y00077900D02*
D03*
X00158100Y00095700D02*
D03*
X00168300Y00077900D02*
D03*
X00178500Y00095700D02*
D03*
X00188700Y00077900D02*
D03*
D94*
X00235000Y00088100D02*
D03*
X00071000D02*
D03*
D95*
X00216500Y00052500D02*
D03*
X00089500D02*
D03*
D96*
X00807645Y00107500D02*
D03*
Y00132900D02*
D03*
X00782245D02*
D03*
D97*
Y00107500D02*
D03*
D98*
X00310000Y00537000D02*
D03*
X00790000D02*
D03*
Y00207000D02*
D03*
X00310000D02*
D03*
X00139000Y00740000D02*
D03*
X00769000D02*
D03*
D99*
X00077000Y00585000D02*
D03*
D100*
X00137000D02*
D03*
D101*
X00107000Y00538000D02*
D03*
D102*
X00740700Y00102000D02*
D03*
X00609300D02*
D03*
D103*
X00710000Y00129100D02*
D03*
X00685000D02*
D03*
X00665000D02*
D03*
X00640000D02*
D03*
D104*
X00563000Y00535500D02*
D03*
M02*
