G04*
G04 #@! TF.GenerationSoftware,Altium Limited,Altium Designer,22.10.1 (41)*
G04*
G04 Layer_Color=2752767*
%FSAX44Y44*%
%MOMM*%
G71*
G04*
G04 #@! TF.SameCoordinates,19A9066D-69EC-4412-BDAA-CEE194C5A0F3*
G04*
G04*
G04 #@! TF.FilePolarity,Positive*
G04*
G01*
G75*
%ADD151C,0.0508*%
%ADD152C,0.0677*%
D151*
X00551218Y00022968D02*
Y00027032D01*
X00555282D01*
Y00022968D01*
X00551218D01*
X00494718D02*
Y00027032D01*
X00498782D01*
Y00022968D01*
X00494718D01*
X00545000Y00045968D02*
X00542968Y00050032D01*
X00547032D01*
X00545000Y00045968D01*
X00505000D02*
X00502968Y00050032D01*
X00507032D01*
X00505000Y00045968D01*
X00440468Y00099768D02*
X00441484Y00101800D01*
X00440468Y00103832D01*
X00442500Y00102816D01*
X00444532Y00103832D01*
X00443516Y00101800D01*
X00444532Y00099768D01*
X00442500Y00100784D01*
X00440468Y00099768D01*
X00295468D02*
X00296484Y00101800D01*
X00295468Y00103832D01*
X00297500Y00102816D01*
X00299532Y00103832D01*
X00298516Y00101800D01*
X00299532Y00099768D01*
X00297500Y00100784D01*
X00295468Y00099768D01*
X00297500Y00040168D02*
X00298516Y00041184D01*
X00299532D01*
X00298516Y00042200D01*
X00299532Y00043216D01*
X00298516D01*
X00297500Y00044232D01*
X00296484Y00043216D01*
X00295468D01*
X00296484Y00042200D01*
X00295468Y00041184D01*
X00296484D01*
X00297500Y00040168D01*
X00442500D02*
X00443516Y00041184D01*
X00444532D01*
X00443516Y00042200D01*
X00444532Y00043216D01*
X00443516D01*
X00442500Y00044232D01*
X00441484Y00043216D01*
X00440468D01*
X00441484Y00042200D01*
X00440468Y00041184D01*
X00441484D01*
X00442500Y00040168D01*
X00785000Y00345578D02*
Y00340500D01*
X00787539D01*
X00788386Y00341346D01*
Y00342193D01*
X00787539Y00343039D01*
X00785000D01*
X00787539D01*
X00788386Y00343886D01*
Y00344732D01*
X00787539Y00345578D01*
X00785000D01*
Y00425578D02*
Y00420500D01*
X00787539D01*
X00788386Y00421346D01*
Y00422193D01*
X00787539Y00423039D01*
X00785000D01*
X00787539D01*
X00788386Y00423886D01*
Y00424732D01*
X00787539Y00425578D01*
X00785000D01*
X00110686Y00147932D02*
X00109839Y00148778D01*
X00108146D01*
X00107300Y00147932D01*
Y00144546D01*
X00108146Y00143700D01*
X00109839D01*
X00110686Y00144546D01*
X00202086Y00147932D02*
X00201239Y00148778D01*
X00199546D01*
X00198700Y00147932D01*
Y00144546D01*
X00199546Y00143700D01*
X00201239D01*
X00202086Y00144546D01*
X00087786Y00147932D02*
X00086939Y00148778D01*
X00085246D01*
X00084400Y00147932D01*
Y00144546D01*
X00085246Y00143700D01*
X00086939D01*
X00087786Y00144546D01*
X00224986Y00147932D02*
X00224139Y00148778D01*
X00222446D01*
X00221600Y00147932D01*
Y00144546D01*
X00222446Y00143700D01*
X00224139D01*
X00224986Y00144546D01*
X00120686Y00099932D02*
X00119839Y00100778D01*
X00118146D01*
X00117300Y00099932D01*
Y00096546D01*
X00118146Y00095700D01*
X00119839D01*
X00120686Y00096546D01*
X00130886Y00082132D02*
X00130039Y00082978D01*
X00128346D01*
X00127500Y00082132D01*
Y00078746D01*
X00128346Y00077900D01*
X00130039D01*
X00130886Y00078746D01*
X00141086Y00099932D02*
X00140239Y00100778D01*
X00138546D01*
X00137700Y00099932D01*
Y00096546D01*
X00138546Y00095700D01*
X00140239D01*
X00141086Y00096546D01*
X00151286Y00082132D02*
X00150439Y00082978D01*
X00148746D01*
X00147900Y00082132D01*
Y00078746D01*
X00148746Y00077900D01*
X00150439D01*
X00151286Y00078746D01*
X00161486Y00099932D02*
X00160639Y00100778D01*
X00158946D01*
X00158100Y00099932D01*
Y00096546D01*
X00158946Y00095700D01*
X00160639D01*
X00161486Y00096546D01*
X00171686Y00082132D02*
X00170839Y00082978D01*
X00169146D01*
X00168300Y00082132D01*
Y00078746D01*
X00169146Y00077900D01*
X00170839D01*
X00171686Y00078746D01*
X00181886Y00099932D02*
X00181039Y00100778D01*
X00179346D01*
X00178500Y00099932D01*
Y00096546D01*
X00179346Y00095700D01*
X00181039D01*
X00181886Y00096546D01*
X00192086Y00082132D02*
X00191239Y00082978D01*
X00189546D01*
X00188700Y00082132D01*
Y00078746D01*
X00189546Y00077900D01*
X00191239D01*
X00192086Y00078746D01*
X00235000Y00093178D02*
Y00088100D01*
X00237539D01*
X00238386Y00088946D01*
Y00092332D01*
X00237539Y00093178D01*
X00235000D01*
X00071000D02*
Y00088100D01*
X00073539D01*
X00074386Y00088946D01*
Y00092332D01*
X00073539Y00093178D01*
X00071000D01*
X00219886Y00057578D02*
X00216500D01*
Y00052500D01*
X00219886D01*
X00216500Y00055039D02*
X00218193D01*
X00092886Y00057578D02*
X00089500D01*
Y00052500D01*
X00092886D01*
X00089500Y00055039D02*
X00091193D01*
X00807645Y00112578D02*
Y00107500D01*
Y00110039D01*
X00811030D01*
Y00112578D01*
Y00107500D01*
X00782245Y00112578D02*
Y00107500D01*
Y00110039D01*
X00785630D01*
Y00112578D01*
Y00107500D01*
X00807645Y00137978D02*
Y00132900D01*
Y00135439D01*
X00811030D01*
Y00137978D01*
Y00132900D01*
X00782245Y00137978D02*
Y00132900D01*
Y00135439D01*
X00785630D01*
Y00137978D01*
Y00132900D01*
X00310000Y00542078D02*
X00311693D01*
X00310846D01*
Y00537000D01*
X00310000D01*
X00311693D01*
X00790000Y00542078D02*
X00791693D01*
X00790846D01*
Y00537000D01*
X00790000D01*
X00791693D01*
X00790000Y00212078D02*
X00791693D01*
X00790846D01*
Y00207000D01*
X00790000D01*
X00791693D01*
X00310000Y00212078D02*
X00311693D01*
X00310846D01*
Y00207000D01*
X00310000D01*
X00311693D01*
X00080386Y00590078D02*
X00078693D01*
X00079539D01*
Y00585846D01*
X00078693Y00585000D01*
X00077846D01*
X00077000Y00585846D01*
X00137000Y00590078D02*
Y00585000D01*
Y00586693D01*
X00140386Y00590078D01*
X00137846Y00587539D01*
X00140386Y00585000D01*
X00107000Y00543078D02*
Y00538000D01*
X00110386D01*
X00740700Y00102000D02*
Y00107078D01*
X00742393Y00105386D01*
X00744086Y00107078D01*
Y00102000D01*
X00609300D02*
Y00107078D01*
X00610993Y00105386D01*
X00612686Y00107078D01*
Y00102000D01*
X00710000Y00129100D02*
Y00134178D01*
X00713386Y00129100D01*
Y00134178D01*
X00685000Y00129100D02*
Y00134178D01*
X00688386Y00129100D01*
Y00134178D01*
X00667539D02*
X00665846D01*
X00665000Y00133332D01*
Y00129946D01*
X00665846Y00129100D01*
X00667539D01*
X00668386Y00129946D01*
Y00133332D01*
X00667539Y00134178D01*
X00640000Y00129100D02*
Y00134178D01*
X00643386Y00129100D01*
Y00134178D01*
X00139000Y00745078D02*
X00140693D01*
X00139846D01*
Y00740000D01*
X00139000D01*
X00140693D01*
X00769000Y00745078D02*
X00770693D01*
X00769846D01*
Y00740000D01*
X00769000D01*
X00770693D01*
X00187100Y00762000D02*
Y00767078D01*
X00189639D01*
X00190486Y00766232D01*
Y00764539D01*
X00189639Y00763693D01*
X00187100D01*
X00730900Y00731500D02*
Y00736578D01*
X00733439D01*
X00734286Y00735732D01*
Y00734039D01*
X00733439Y00733193D01*
X00730900D01*
X00188335Y00514796D02*
Y00518182D01*
X00187489Y00519028D01*
X00185796D01*
X00184950Y00518182D01*
Y00514796D01*
X00185796Y00513950D01*
X00187489D01*
X00186642Y00515643D02*
X00188335Y00513950D01*
X00187489D02*
X00188335Y00514796D01*
X00172386Y00616846D02*
Y00620232D01*
X00171539Y00621078D01*
X00169846D01*
X00169000Y00620232D01*
Y00616846D01*
X00169846Y00616000D01*
X00171539D01*
X00170693Y00617693D02*
X00172386Y00616000D01*
X00171539D02*
X00172386Y00616846D01*
X00183386Y00502846D02*
Y00506232D01*
X00182539Y00507078D01*
X00180846D01*
X00180000Y00506232D01*
Y00502846D01*
X00180846Y00502000D01*
X00182539D01*
X00181693Y00503693D02*
X00183386Y00502000D01*
X00182539D02*
X00183386Y00502846D01*
X00660386Y00157846D02*
Y00161232D01*
X00659539Y00162078D01*
X00657846D01*
X00657000Y00161232D01*
Y00157846D01*
X00657846Y00157000D01*
X00659539D01*
X00658693Y00158693D02*
X00660386Y00157000D01*
X00659539D02*
X00660386Y00157846D01*
X00223386Y00705846D02*
Y00709232D01*
X00222539Y00710078D01*
X00220846D01*
X00220000Y00709232D01*
Y00705846D01*
X00220846Y00705000D01*
X00222539D01*
X00221693Y00706693D02*
X00223386Y00705000D01*
X00222539D02*
X00223386Y00705846D01*
X00721386Y00747846D02*
Y00751232D01*
X00720539Y00752078D01*
X00718846D01*
X00718000Y00751232D01*
Y00747846D01*
X00718846Y00747000D01*
X00720539D01*
X00719693Y00748693D02*
X00721386Y00747000D01*
X00720539D02*
X00721386Y00747846D01*
Y00757846D02*
Y00761232D01*
X00720539Y00762078D01*
X00718846D01*
X00718000Y00761232D01*
Y00757846D01*
X00718846Y00757000D01*
X00720539D01*
X00719693Y00758693D02*
X00721386Y00757000D01*
X00720539D02*
X00721386Y00757846D01*
X00458386Y00198846D02*
Y00202232D01*
X00457539Y00203078D01*
X00455846D01*
X00455000Y00202232D01*
Y00198846D01*
X00455846Y00198000D01*
X00457539D01*
X00456693Y00199693D02*
X00458386Y00198000D01*
X00457539D02*
X00458386Y00198846D01*
X00518386D02*
Y00202232D01*
X00517539Y00203078D01*
X00515846D01*
X00515000Y00202232D01*
Y00198846D01*
X00515846Y00198000D01*
X00517539D01*
X00516693Y00199693D02*
X00518386Y00198000D01*
X00517539D02*
X00518386Y00198846D01*
X00530386Y00177846D02*
Y00181232D01*
X00529539Y00182078D01*
X00527846D01*
X00527000Y00181232D01*
Y00177846D01*
X00527846Y00177000D01*
X00529539D01*
X00528693Y00178693D02*
X00530386Y00177000D01*
X00529539D02*
X00530386Y00177846D01*
X00628386Y00325846D02*
Y00329232D01*
X00627539Y00330078D01*
X00625846D01*
X00625000Y00329232D01*
Y00325846D01*
X00625846Y00325000D01*
X00627539D01*
X00626693Y00326693D02*
X00628386Y00325000D01*
X00627539D02*
X00628386Y00325846D01*
X00645386Y00326846D02*
Y00330232D01*
X00644539Y00331078D01*
X00642846D01*
X00642000Y00330232D01*
Y00326846D01*
X00642846Y00326000D01*
X00644539D01*
X00643693Y00327693D02*
X00645386Y00326000D01*
X00644539D02*
X00645386Y00326846D01*
X00647386Y00307846D02*
Y00311232D01*
X00646539Y00312078D01*
X00644846D01*
X00644000Y00311232D01*
Y00307846D01*
X00644846Y00307000D01*
X00646539D01*
X00645693Y00308693D02*
X00647386Y00307000D01*
X00646539D02*
X00647386Y00307846D01*
X00584386Y00346846D02*
Y00350232D01*
X00583539Y00351078D01*
X00581846D01*
X00581000Y00350232D01*
Y00346846D01*
X00581846Y00346000D01*
X00583539D01*
X00582693Y00347693D02*
X00584386Y00346000D01*
X00583539D02*
X00584386Y00346846D01*
X00570386Y00354846D02*
Y00358232D01*
X00569539Y00359078D01*
X00567846D01*
X00567000Y00358232D01*
Y00354846D01*
X00567846Y00354000D01*
X00569539D01*
X00568693Y00355693D02*
X00570386Y00354000D01*
X00569539D02*
X00570386Y00354846D01*
X00579386Y00362846D02*
Y00366232D01*
X00578539Y00367078D01*
X00576846D01*
X00576000Y00366232D01*
Y00362846D01*
X00576846Y00362000D01*
X00578539D01*
X00577693Y00363693D02*
X00579386Y00362000D01*
X00578539D02*
X00579386Y00362846D01*
X00583386Y00371846D02*
Y00375232D01*
X00582539Y00376078D01*
X00580846D01*
X00580000Y00375232D01*
Y00371846D01*
X00580846Y00371000D01*
X00582539D01*
X00581693Y00372693D02*
X00583386Y00371000D01*
X00582539D02*
X00583386Y00371846D01*
X00440886Y00205846D02*
Y00209232D01*
X00440039Y00210078D01*
X00438346D01*
X00437500Y00209232D01*
Y00205846D01*
X00438346Y00205000D01*
X00440039D01*
X00439193Y00206693D02*
X00440886Y00205000D01*
X00440039D02*
X00440886Y00205846D01*
X00604886Y00204846D02*
Y00208232D01*
X00604039Y00209078D01*
X00602346D01*
X00601500Y00208232D01*
Y00204846D01*
X00602346Y00204000D01*
X00604039D01*
X00603193Y00205693D02*
X00604886Y00204000D01*
X00604039D02*
X00604886Y00204846D01*
X00612386D02*
Y00208232D01*
X00611539Y00209078D01*
X00609846D01*
X00609000Y00208232D01*
Y00204846D01*
X00609846Y00204000D01*
X00611539D01*
X00610693Y00205693D02*
X00612386Y00204000D01*
X00611539D02*
X00612386Y00204846D01*
X00623386Y00200846D02*
Y00204232D01*
X00622539Y00205078D01*
X00620846D01*
X00620000Y00204232D01*
Y00200846D01*
X00620846Y00200000D01*
X00622539D01*
X00621693Y00201693D02*
X00623386Y00200000D01*
X00622539D02*
X00623386Y00200846D01*
X00696386Y00157846D02*
Y00161232D01*
X00695539Y00162078D01*
X00693846D01*
X00693000Y00161232D01*
Y00157846D01*
X00693846Y00157000D01*
X00695539D01*
X00694693Y00158693D02*
X00696386Y00157000D01*
X00695539D02*
X00696386Y00157846D01*
X00340386Y00495846D02*
Y00499232D01*
X00339539Y00500078D01*
X00337846D01*
X00337000Y00499232D01*
Y00495846D01*
X00337846Y00495000D01*
X00339539D01*
X00338693Y00496693D02*
X00340386Y00495000D01*
X00339539D02*
X00340386Y00495846D01*
X00431386Y00570846D02*
Y00574232D01*
X00430539Y00575078D01*
X00428846D01*
X00428000Y00574232D01*
Y00570846D01*
X00428846Y00570000D01*
X00430539D01*
X00429693Y00571693D02*
X00431386Y00570000D01*
X00430539D02*
X00431386Y00570846D01*
X00442386Y00568846D02*
Y00572232D01*
X00441539Y00573078D01*
X00439846D01*
X00439000Y00572232D01*
Y00568846D01*
X00439846Y00568000D01*
X00441539D01*
X00440693Y00569693D02*
X00442386Y00568000D01*
X00441539D02*
X00442386Y00568846D01*
X00438386Y00540846D02*
Y00544232D01*
X00437539Y00545078D01*
X00435846D01*
X00435000Y00544232D01*
Y00540846D01*
X00435846Y00540000D01*
X00437539D01*
X00436693Y00541693D02*
X00438386Y00540000D01*
X00437539D02*
X00438386Y00540846D01*
X00426386Y00545846D02*
Y00549232D01*
X00425539Y00550078D01*
X00423846D01*
X00423000Y00549232D01*
Y00545846D01*
X00423846Y00545000D01*
X00425539D01*
X00424693Y00546693D02*
X00426386Y00545000D01*
X00425539D02*
X00426386Y00545846D01*
X00415386Y00547846D02*
Y00551232D01*
X00414539Y00552078D01*
X00412846D01*
X00412000Y00551232D01*
Y00547846D01*
X00412846Y00547000D01*
X00414539D01*
X00413693Y00548693D02*
X00415386Y00547000D01*
X00414539D02*
X00415386Y00547846D01*
X00414386Y00532846D02*
Y00536232D01*
X00413539Y00537078D01*
X00411846D01*
X00411000Y00536232D01*
Y00532846D01*
X00411846Y00532000D01*
X00413539D01*
X00412693Y00533693D02*
X00414386Y00532000D01*
X00413539D02*
X00414386Y00532846D01*
X00663386Y00396846D02*
Y00400232D01*
X00662539Y00401078D01*
X00660846D01*
X00660000Y00400232D01*
Y00396846D01*
X00660846Y00396000D01*
X00662539D01*
X00661693Y00397693D02*
X00663386Y00396000D01*
X00662539D02*
X00663386Y00396846D01*
X00577386Y00379846D02*
Y00383232D01*
X00576539Y00384078D01*
X00574846D01*
X00574000Y00383232D01*
Y00379846D01*
X00574846Y00379000D01*
X00576539D01*
X00575693Y00380693D02*
X00577386Y00379000D01*
X00576539D02*
X00577386Y00379846D01*
X00605386Y00388846D02*
Y00392232D01*
X00604539Y00393078D01*
X00602846D01*
X00602000Y00392232D01*
Y00388846D01*
X00602846Y00388000D01*
X00604539D01*
X00603693Y00389693D02*
X00605386Y00388000D01*
X00604539D02*
X00605386Y00388846D01*
X00663386Y00435846D02*
Y00439232D01*
X00662539Y00440078D01*
X00660846D01*
X00660000Y00439232D01*
Y00435846D01*
X00660846Y00435000D01*
X00662539D01*
X00661693Y00436693D02*
X00663386Y00435000D01*
X00662539D02*
X00663386Y00435846D01*
X00662386Y00415846D02*
Y00419232D01*
X00661539Y00420078D01*
X00659846D01*
X00659000Y00419232D01*
Y00415846D01*
X00659846Y00415000D01*
X00661539D01*
X00660693Y00416693D02*
X00662386Y00415000D01*
X00661539D02*
X00662386Y00415846D01*
X00273176Y00236337D02*
Y00239723D01*
X00272329Y00240569D01*
X00270636D01*
X00269790Y00239723D01*
Y00236337D01*
X00270636Y00235491D01*
X00272329D01*
X00271483Y00237184D02*
X00273176Y00235491D01*
X00272329D02*
X00273176Y00236337D01*
X00327386Y00486846D02*
Y00490232D01*
X00326539Y00491078D01*
X00324846D01*
X00324000Y00490232D01*
Y00486846D01*
X00324846Y00486000D01*
X00326539D01*
X00325693Y00487693D02*
X00327386Y00486000D01*
X00326539D02*
X00327386Y00486846D01*
X00297386Y00501846D02*
Y00505232D01*
X00296539Y00506078D01*
X00294846D01*
X00294000Y00505232D01*
Y00501846D01*
X00294846Y00501000D01*
X00296539D01*
X00295693Y00502693D02*
X00297386Y00501000D01*
X00296539D02*
X00297386Y00501846D01*
X00253386Y00705846D02*
Y00709232D01*
X00252539Y00710078D01*
X00250846D01*
X00250000Y00709232D01*
Y00705846D01*
X00250846Y00705000D01*
X00252539D01*
X00251693Y00706693D02*
X00253386Y00705000D01*
X00252539D02*
X00253386Y00705846D01*
X00344386Y00472846D02*
Y00476232D01*
X00343539Y00477078D01*
X00341846D01*
X00341000Y00476232D01*
Y00472846D01*
X00341846Y00472000D01*
X00343539D01*
X00342693Y00473693D02*
X00344386Y00472000D01*
X00343539D02*
X00344386Y00472846D01*
X00335386Y00464846D02*
Y00468232D01*
X00334539Y00469078D01*
X00332846D01*
X00332000Y00468232D01*
Y00464846D01*
X00332846Y00464000D01*
X00334539D01*
X00333693Y00465693D02*
X00335386Y00464000D01*
X00334539D02*
X00335386Y00464846D01*
X00588386Y00204846D02*
Y00208232D01*
X00587539Y00209078D01*
X00585846D01*
X00585000Y00208232D01*
Y00204846D01*
X00585846Y00204000D01*
X00587539D01*
X00586693Y00205693D02*
X00588386Y00204000D01*
X00587539D02*
X00588386Y00204846D01*
X00580886D02*
Y00208232D01*
X00580039Y00209078D01*
X00578346D01*
X00577500Y00208232D01*
Y00204846D01*
X00578346Y00204000D01*
X00580039D01*
X00579193Y00205693D02*
X00580886Y00204000D01*
X00580039D02*
X00580886Y00204846D01*
X00592385Y00173246D02*
Y00176632D01*
X00591539Y00177478D01*
X00589846D01*
X00589000Y00176632D01*
Y00173246D01*
X00589846Y00172400D01*
X00591539D01*
X00590693Y00174093D02*
X00592385Y00172400D01*
X00591539D02*
X00592385Y00173246D01*
X00599885Y00173246D02*
Y00176632D01*
X00599039Y00177479D01*
X00597346D01*
X00596500Y00176632D01*
Y00173246D01*
X00597346Y00172400D01*
X00599039D01*
X00598193Y00174093D02*
X00599885Y00172400D01*
X00599039D02*
X00599885Y00173246D01*
X00386086Y00788346D02*
Y00791732D01*
X00385239Y00792578D01*
X00383546D01*
X00382700Y00791732D01*
Y00788346D01*
X00383546Y00787500D01*
X00385239D01*
X00384393Y00789193D02*
X00386086Y00787500D01*
X00385239D02*
X00386086Y00788346D01*
X00335286D02*
Y00791732D01*
X00334439Y00792578D01*
X00332746D01*
X00331900Y00791732D01*
Y00788346D01*
X00332746Y00787500D01*
X00334439D01*
X00333593Y00789193D02*
X00335286Y00787500D01*
X00334439D02*
X00335286Y00788346D01*
X00373386Y00787846D02*
Y00791232D01*
X00372539Y00792078D01*
X00370846D01*
X00370000Y00791232D01*
Y00787846D01*
X00370846Y00787000D01*
X00372539D01*
X00371693Y00788693D02*
X00373386Y00787000D01*
X00372539D02*
X00373386Y00787846D01*
X00686386Y00285846D02*
Y00289232D01*
X00685539Y00290078D01*
X00683846D01*
X00683000Y00289232D01*
Y00285846D01*
X00683846Y00285000D01*
X00685539D01*
X00684693Y00286693D02*
X00686386Y00285000D01*
X00685539D02*
X00686386Y00285846D01*
X00612386Y00227846D02*
Y00231232D01*
X00611539Y00232078D01*
X00609846D01*
X00609000Y00231232D01*
Y00227846D01*
X00609846Y00227000D01*
X00611539D01*
X00610693Y00228693D02*
X00612386Y00227000D01*
X00611539D02*
X00612386Y00227846D01*
X00700386Y00470846D02*
Y00474232D01*
X00699539Y00475078D01*
X00697846D01*
X00697000Y00474232D01*
Y00470846D01*
X00697846Y00470000D01*
X00699539D01*
X00698693Y00471693D02*
X00700386Y00470000D01*
X00699539D02*
X00700386Y00470846D01*
Y00448846D02*
Y00452232D01*
X00699539Y00453078D01*
X00697846D01*
X00697000Y00452232D01*
Y00448846D01*
X00697846Y00448000D01*
X00699539D01*
X00698693Y00449693D02*
X00700386Y00448000D01*
X00699539D02*
X00700386Y00448846D01*
X00460386Y00519846D02*
Y00523232D01*
X00459539Y00524078D01*
X00457846D01*
X00457000Y00523232D01*
Y00519846D01*
X00457846Y00519000D01*
X00459539D01*
X00458693Y00520693D02*
X00460386Y00519000D01*
X00459539D02*
X00460386Y00519846D01*
X00609386Y00323846D02*
Y00327232D01*
X00608539Y00328078D01*
X00606846D01*
X00606000Y00327232D01*
Y00323846D01*
X00606846Y00323000D01*
X00608539D01*
X00607693Y00324693D02*
X00609386Y00323000D01*
X00608539D02*
X00609386Y00323846D01*
X00617386D02*
Y00327232D01*
X00616539Y00328078D01*
X00614846D01*
X00614000Y00327232D01*
Y00323846D01*
X00614846Y00323000D01*
X00616539D01*
X00615693Y00324693D02*
X00617386Y00323000D01*
X00616539D02*
X00617386Y00323846D01*
X00228386Y00680846D02*
Y00684232D01*
X00227539Y00685078D01*
X00225846D01*
X00225000Y00684232D01*
Y00680846D01*
X00225846Y00680000D01*
X00227539D01*
X00226693Y00681693D02*
X00228386Y00680000D01*
X00227539D02*
X00228386Y00680846D01*
X00049386Y00695846D02*
Y00699232D01*
X00048539Y00700078D01*
X00046846D01*
X00046000Y00699232D01*
Y00695846D01*
X00046846Y00695000D01*
X00048539D01*
X00047693Y00696693D02*
X00049386Y00695000D01*
X00048539D02*
X00049386Y00695846D01*
Y00719846D02*
Y00723232D01*
X00048539Y00724078D01*
X00046846D01*
X00046000Y00723232D01*
Y00719846D01*
X00046846Y00719000D01*
X00048539D01*
X00047693Y00720693D02*
X00049386Y00719000D01*
X00048539D02*
X00049386Y00719846D01*
Y00769846D02*
Y00773232D01*
X00048539Y00774078D01*
X00046846D01*
X00046000Y00773232D01*
Y00769846D01*
X00046846Y00769000D01*
X00048539D01*
X00047693Y00770693D02*
X00049386Y00769000D01*
X00048539D02*
X00049386Y00769846D01*
X00031386Y00459846D02*
Y00463232D01*
X00030539Y00464078D01*
X00028846D01*
X00028000Y00463232D01*
Y00459846D01*
X00028846Y00459000D01*
X00030539D01*
X00029693Y00460693D02*
X00031386Y00459000D01*
X00030539D02*
X00031386Y00459846D01*
X00037385Y00465846D02*
Y00469232D01*
X00036539Y00470078D01*
X00034846D01*
X00034000Y00469232D01*
Y00465846D01*
X00034846Y00465000D01*
X00036539D01*
X00035693Y00466693D02*
X00037385Y00465000D01*
X00036539D02*
X00037385Y00465846D01*
X00048386Y00216846D02*
Y00220232D01*
X00047539Y00221078D01*
X00045846D01*
X00045000Y00220232D01*
Y00216846D01*
X00045846Y00216000D01*
X00047539D01*
X00046693Y00217693D02*
X00048386Y00216000D01*
X00047539D02*
X00048386Y00216846D01*
X00043386Y00471846D02*
Y00475232D01*
X00042539Y00476078D01*
X00040846D01*
X00040000Y00475232D01*
Y00471846D01*
X00040846Y00471000D01*
X00042539D01*
X00041693Y00472693D02*
X00043386Y00471000D01*
X00042539D02*
X00043386Y00471846D01*
X00055386Y00483846D02*
Y00487232D01*
X00054539Y00488078D01*
X00052846D01*
X00052000Y00487232D01*
Y00483846D01*
X00052846Y00483000D01*
X00054539D01*
X00053693Y00484693D02*
X00055386Y00483000D01*
X00054539D02*
X00055386Y00483846D01*
X00049386Y00477846D02*
Y00481232D01*
X00048539Y00482078D01*
X00046846D01*
X00046000Y00481232D01*
Y00477846D01*
X00046846Y00477000D01*
X00048539D01*
X00047693Y00478693D02*
X00049386Y00477000D01*
X00048539D02*
X00049386Y00477846D01*
X00238386Y00609846D02*
Y00613232D01*
X00237539Y00614078D01*
X00235846D01*
X00235000Y00613232D01*
Y00609846D01*
X00235846Y00609000D01*
X00237539D01*
X00236693Y00610693D02*
X00238386Y00609000D01*
X00237539D02*
X00238386Y00609846D01*
X00244386Y00603846D02*
Y00607232D01*
X00243539Y00608078D01*
X00241846D01*
X00241000Y00607232D01*
Y00603846D01*
X00241846Y00603000D01*
X00243539D01*
X00242693Y00604693D02*
X00244386Y00603000D01*
X00243539D02*
X00244386Y00603846D01*
X00250386Y00597846D02*
Y00601232D01*
X00249539Y00602078D01*
X00247846D01*
X00247000Y00601232D01*
Y00597846D01*
X00247846Y00597000D01*
X00249539D01*
X00248693Y00598693D02*
X00250386Y00597000D01*
X00249539D02*
X00250386Y00597846D01*
X00247386Y00610846D02*
Y00614232D01*
X00246539Y00615078D01*
X00244846D01*
X00244000Y00614232D01*
Y00610846D01*
X00244846Y00610000D01*
X00246539D01*
X00245693Y00611693D02*
X00247386Y00610000D01*
X00246539D02*
X00247386Y00610846D01*
X00253386Y00604846D02*
Y00608232D01*
X00252539Y00609078D01*
X00250846D01*
X00250000Y00608232D01*
Y00604846D01*
X00250846Y00604000D01*
X00252539D01*
X00251693Y00605693D02*
X00253386Y00604000D01*
X00252539D02*
X00253386Y00604846D01*
X00171386Y00451846D02*
Y00455232D01*
X00170539Y00456078D01*
X00168846D01*
X00168000Y00455232D01*
Y00451846D01*
X00168846Y00451000D01*
X00170539D01*
X00169693Y00452693D02*
X00171386Y00451000D01*
X00170539D02*
X00171386Y00451846D01*
Y00458846D02*
Y00462232D01*
X00170539Y00463078D01*
X00168846D01*
X00168000Y00462232D01*
Y00458846D01*
X00168846Y00458000D01*
X00170539D01*
X00169693Y00459693D02*
X00171386Y00458000D01*
X00170539D02*
X00171386Y00458846D01*
X00196386Y00384846D02*
Y00388232D01*
X00195539Y00389078D01*
X00193846D01*
X00193000Y00388232D01*
Y00384846D01*
X00193846Y00384000D01*
X00195539D01*
X00194693Y00385693D02*
X00196386Y00384000D01*
X00195539D02*
X00196386Y00384846D01*
X00188386Y00384846D02*
Y00388232D01*
X00187539Y00389078D01*
X00185846D01*
X00185000Y00388232D01*
Y00384846D01*
X00185846Y00384000D01*
X00187539D01*
X00186693Y00385693D02*
X00188386Y00384000D01*
X00187539D02*
X00188386Y00384846D01*
X00180385Y00384846D02*
Y00388232D01*
X00179539Y00389078D01*
X00177846D01*
X00177000Y00388232D01*
Y00384846D01*
X00177846Y00384000D01*
X00179539D01*
X00178693Y00385693D02*
X00180385Y00384000D01*
X00179539D02*
X00180385Y00384846D01*
X00196386Y00360846D02*
Y00364232D01*
X00195539Y00365078D01*
X00193846D01*
X00193000Y00364232D01*
Y00360846D01*
X00193846Y00360000D01*
X00195539D01*
X00194693Y00361693D02*
X00196386Y00360000D01*
X00195539D02*
X00196386Y00360846D01*
X00188386D02*
Y00364232D01*
X00187539Y00365078D01*
X00185846D01*
X00185000Y00364232D01*
Y00360846D01*
X00185846Y00360000D01*
X00187539D01*
X00186693Y00361693D02*
X00188386Y00360000D01*
X00187539D02*
X00188386Y00360846D01*
X00180385D02*
Y00364232D01*
X00179539Y00365078D01*
X00177846D01*
X00177000Y00364232D01*
Y00360846D01*
X00177846Y00360000D01*
X00179539D01*
X00178693Y00361693D02*
X00180385Y00360000D01*
X00179539D02*
X00180385Y00360846D01*
X00195139Y00195629D02*
Y00199015D01*
X00194293Y00199861D01*
X00192600D01*
X00191754Y00199015D01*
Y00195629D01*
X00192600Y00194783D01*
X00194293D01*
X00193447Y00196476D02*
X00195139Y00194783D01*
X00194293D02*
X00195139Y00195629D01*
X00211386Y00443846D02*
Y00447232D01*
X00210539Y00448078D01*
X00208846D01*
X00208000Y00447232D01*
Y00443846D01*
X00208846Y00443000D01*
X00210539D01*
X00209693Y00444693D02*
X00211386Y00443000D01*
X00210539D02*
X00211386Y00443846D01*
Y00451846D02*
Y00455232D01*
X00210539Y00456078D01*
X00208846D01*
X00208000Y00455232D01*
Y00451846D01*
X00208846Y00451000D01*
X00210539D01*
X00209693Y00452693D02*
X00211386Y00451000D01*
X00210539D02*
X00211386Y00451846D01*
X00456386Y00205846D02*
Y00209232D01*
X00455539Y00210078D01*
X00453846D01*
X00453000Y00209232D01*
Y00205846D01*
X00453846Y00205000D01*
X00455539D01*
X00454693Y00206693D02*
X00456386Y00205000D01*
X00455539D02*
X00456386Y00205846D01*
X00472386Y00198846D02*
Y00202232D01*
X00471539Y00203078D01*
X00469846D01*
X00469000Y00202232D01*
Y00198846D01*
X00469846Y00198000D01*
X00471539D01*
X00470693Y00199693D02*
X00472386Y00198000D01*
X00471539D02*
X00472386Y00198846D01*
X00212386Y00406846D02*
Y00410232D01*
X00211539Y00411078D01*
X00209846D01*
X00209000Y00410232D01*
Y00406846D01*
X00209846Y00406000D01*
X00211539D01*
X00210693Y00407693D02*
X00212386Y00406000D01*
X00211539D02*
X00212386Y00406846D01*
X00113965Y00464776D02*
Y00468162D01*
X00113118Y00469008D01*
X00111425D01*
X00110579Y00468162D01*
Y00464776D01*
X00111425Y00463930D01*
X00113118D01*
X00112272Y00465622D02*
X00113965Y00463930D01*
X00113118D02*
X00113965Y00464776D01*
X00477386Y00430846D02*
Y00434232D01*
X00476539Y00435078D01*
X00474846D01*
X00474000Y00434232D01*
Y00430846D01*
X00474846Y00430000D01*
X00476539D01*
X00475693Y00431693D02*
X00477386Y00430000D01*
X00476539D02*
X00477386Y00430846D01*
X00440386D02*
Y00434232D01*
X00439539Y00435078D01*
X00437846D01*
X00437000Y00434232D01*
Y00430846D01*
X00437846Y00430000D01*
X00439539D01*
X00438693Y00431693D02*
X00440386Y00430000D01*
X00439539D02*
X00440386Y00430846D01*
X00065386Y00685846D02*
Y00689232D01*
X00064539Y00690078D01*
X00062846D01*
X00062000Y00689232D01*
Y00685846D01*
X00062846Y00685000D01*
X00064539D01*
X00063693Y00686693D02*
X00065386Y00685000D01*
X00064539D02*
X00065386Y00685846D01*
X00600386Y00564846D02*
Y00568232D01*
X00599539Y00569078D01*
X00597846D01*
X00597000Y00568232D01*
Y00564846D01*
X00597846Y00564000D01*
X00599539D01*
X00598693Y00565693D02*
X00600386Y00564000D01*
X00599539D02*
X00600386Y00564846D01*
X00645386Y00357846D02*
Y00361232D01*
X00644539Y00362078D01*
X00642846D01*
X00642000Y00361232D01*
Y00357846D01*
X00642846Y00357000D01*
X00644539D01*
X00643693Y00358693D02*
X00645386Y00357000D01*
X00644539D02*
X00645386Y00357846D01*
X00634386Y00351846D02*
Y00355232D01*
X00633539Y00356078D01*
X00631846D01*
X00631000Y00355232D01*
Y00351846D01*
X00631846Y00351000D01*
X00633539D01*
X00632693Y00352693D02*
X00634386Y00351000D01*
X00633539D02*
X00634386Y00351846D01*
X00528386Y00705846D02*
Y00709232D01*
X00527539Y00710078D01*
X00525846D01*
X00525000Y00709232D01*
Y00705846D01*
X00525846Y00705000D01*
X00527539D01*
X00526693Y00706693D02*
X00528386Y00705000D01*
X00527539D02*
X00528386Y00705846D01*
X00495386Y00705846D02*
Y00709232D01*
X00494539Y00710078D01*
X00492846D01*
X00492000Y00709232D01*
Y00705846D01*
X00492846Y00705000D01*
X00494539D01*
X00493693Y00706693D02*
X00495386Y00705000D01*
X00494539D02*
X00495386Y00705846D01*
X00589386Y00800846D02*
Y00804232D01*
X00588539Y00805078D01*
X00586846D01*
X00586000Y00804232D01*
Y00800846D01*
X00586846Y00800000D01*
X00588539D01*
X00587693Y00801693D02*
X00589386Y00800000D01*
X00588539D02*
X00589386Y00800846D01*
X00048386Y00226846D02*
Y00230232D01*
X00047539Y00231078D01*
X00045846D01*
X00045000Y00230232D01*
Y00226846D01*
X00045846Y00226000D01*
X00047539D01*
X00046693Y00227693D02*
X00048386Y00226000D01*
X00047539D02*
X00048386Y00226846D01*
X00612336Y00537797D02*
Y00541182D01*
X00611489Y00542029D01*
X00609797D01*
X00608950Y00541182D01*
Y00537797D01*
X00609797Y00536950D01*
X00611489D01*
X00610643Y00538643D02*
X00612336Y00536950D01*
X00611489D02*
X00612336Y00537797D01*
X00597386Y00485846D02*
Y00489232D01*
X00596539Y00490078D01*
X00594846D01*
X00594000Y00489232D01*
Y00485846D01*
X00594846Y00485000D01*
X00596539D01*
X00595693Y00486693D02*
X00597386Y00485000D01*
X00596539D02*
X00597386Y00485846D01*
X00595886Y00500846D02*
Y00504232D01*
X00595039Y00505078D01*
X00593346D01*
X00592500Y00504232D01*
Y00500846D01*
X00593346Y00500000D01*
X00595039D01*
X00594193Y00501693D02*
X00595886Y00500000D01*
X00595039D02*
X00595886Y00500846D01*
X00588886Y00509846D02*
Y00513232D01*
X00588039Y00514078D01*
X00586346D01*
X00585500Y00513232D01*
Y00509846D01*
X00586346Y00509000D01*
X00588039D01*
X00587193Y00510693D02*
X00588886Y00509000D01*
X00588039D02*
X00588886Y00509846D01*
X00680386Y00275846D02*
Y00279232D01*
X00679539Y00280078D01*
X00677846D01*
X00677000Y00279232D01*
Y00275846D01*
X00677846Y00275000D01*
X00679539D01*
X00678693Y00276693D02*
X00680386Y00275000D01*
X00679539D02*
X00680386Y00275846D01*
X00626386Y00177846D02*
Y00181232D01*
X00625539Y00182078D01*
X00623846D01*
X00623000Y00181232D01*
Y00177846D01*
X00623846Y00177000D01*
X00625539D01*
X00624693Y00178693D02*
X00626386Y00177000D01*
X00625539D02*
X00626386Y00177846D01*
X00621386Y00242846D02*
Y00246232D01*
X00620539Y00247078D01*
X00618846D01*
X00618000Y00246232D01*
Y00242846D01*
X00618846Y00242000D01*
X00620539D01*
X00619693Y00243693D02*
X00621386Y00242000D01*
X00620539D02*
X00621386Y00242846D01*
X00605886Y00178846D02*
Y00182232D01*
X00605039Y00183078D01*
X00603346D01*
X00602500Y00182232D01*
Y00178846D01*
X00603346Y00178000D01*
X00605039D01*
X00604193Y00179693D02*
X00605886Y00178000D01*
X00605039D02*
X00605886Y00178846D01*
X00212386Y00399846D02*
Y00403232D01*
X00211539Y00404078D01*
X00209846D01*
X00209000Y00403232D01*
Y00399846D01*
X00209846Y00399000D01*
X00211539D01*
X00210693Y00400693D02*
X00212386Y00399000D01*
X00211539D02*
X00212386Y00399846D01*
Y00392846D02*
Y00396232D01*
X00211539Y00397078D01*
X00209846D01*
X00209000Y00396232D01*
Y00392846D01*
X00209846Y00392000D01*
X00211539D01*
X00210693Y00393693D02*
X00212386Y00392000D01*
X00211539D02*
X00212386Y00392846D01*
X00074886Y00509346D02*
Y00512732D01*
X00074039Y00513578D01*
X00072346D01*
X00071500Y00512732D01*
Y00509346D01*
X00072346Y00508500D01*
X00074039D01*
X00073193Y00510193D02*
X00074886Y00508500D01*
X00074039D02*
X00074886Y00509346D01*
X00067886Y00514346D02*
Y00517732D01*
X00067039Y00518578D01*
X00065346D01*
X00064500Y00517732D01*
Y00514346D01*
X00065346Y00513500D01*
X00067039D01*
X00066193Y00515193D02*
X00067886Y00513500D01*
X00067039D02*
X00067886Y00514346D01*
Y00504346D02*
Y00507732D01*
X00067039Y00508578D01*
X00065346D01*
X00064500Y00507732D01*
Y00504346D01*
X00065346Y00503500D01*
X00067039D01*
X00066193Y00505193D02*
X00067886Y00503500D01*
X00067039D02*
X00067886Y00504346D01*
X00074886Y00519346D02*
Y00522732D01*
X00074039Y00523578D01*
X00072346D01*
X00071500Y00522732D01*
Y00519346D01*
X00072346Y00518500D01*
X00074039D01*
X00073193Y00520193D02*
X00074886Y00518500D01*
X00074039D02*
X00074886Y00519346D01*
X00831386Y00182846D02*
Y00186232D01*
X00830539Y00187078D01*
X00828846D01*
X00828000Y00186232D01*
Y00182846D01*
X00828846Y00182000D01*
X00830539D01*
X00829693Y00183693D02*
X00831386Y00182000D01*
X00830539D02*
X00831386Y00182846D01*
X00840386D02*
Y00186232D01*
X00839539Y00187078D01*
X00837846D01*
X00837000Y00186232D01*
Y00182846D01*
X00837846Y00182000D01*
X00839539D01*
X00838693Y00183693D02*
X00840386Y00182000D01*
X00839539D02*
X00840386Y00182846D01*
X00481386Y00802846D02*
Y00806232D01*
X00480539Y00807078D01*
X00478846D01*
X00478000Y00806232D01*
Y00802846D01*
X00478846Y00802000D01*
X00480539D01*
X00479693Y00803693D02*
X00481386Y00802000D01*
X00480539D02*
X00481386Y00802846D01*
X00489386D02*
Y00806232D01*
X00488539Y00807078D01*
X00486846D01*
X00486000Y00806232D01*
Y00802846D01*
X00486846Y00802000D01*
X00488539D01*
X00487693Y00803693D02*
X00489386Y00802000D01*
X00488539D02*
X00489386Y00802846D01*
X00436010Y00800607D02*
Y00803992D01*
X00435163Y00804839D01*
X00433470D01*
X00432624Y00803992D01*
Y00800607D01*
X00433470Y00799760D01*
X00435163D01*
X00434317Y00801453D02*
X00436010Y00799760D01*
X00435163D02*
X00436010Y00800607D01*
X00418386Y00773846D02*
Y00777232D01*
X00417539Y00778078D01*
X00415846D01*
X00415000Y00777232D01*
Y00773846D01*
X00415846Y00773000D01*
X00417539D01*
X00416693Y00774693D02*
X00418386Y00773000D01*
X00417539D02*
X00418386Y00773846D01*
X00270406Y00253366D02*
Y00256752D01*
X00269559Y00257598D01*
X00267866D01*
X00267020Y00256752D01*
Y00253366D01*
X00267866Y00252520D01*
X00269559D01*
X00268713Y00254213D02*
X00270406Y00252520D01*
X00269559D02*
X00270406Y00253366D01*
X00586886Y00178846D02*
Y00182232D01*
X00586039Y00183078D01*
X00584346D01*
X00583500Y00182232D01*
Y00178846D01*
X00584346Y00178000D01*
X00586039D01*
X00585193Y00179693D02*
X00586886Y00178000D01*
X00586039D02*
X00586886Y00178846D01*
X00596385Y00207547D02*
Y00210932D01*
X00595539Y00211778D01*
X00593846D01*
X00593000Y00210932D01*
Y00207547D01*
X00593846Y00206700D01*
X00595539D01*
X00594693Y00208393D02*
X00596385Y00206700D01*
X00595539D02*
X00596385Y00207547D01*
X00596386Y00197846D02*
Y00201232D01*
X00595539Y00202078D01*
X00593846D01*
X00593000Y00201232D01*
Y00197846D01*
X00593846Y00197000D01*
X00595539D01*
X00594693Y00198693D02*
X00596386Y00197000D01*
X00595539D02*
X00596386Y00197846D01*
X00542386Y00176846D02*
Y00180232D01*
X00541539Y00181078D01*
X00539846D01*
X00539000Y00180232D01*
Y00176846D01*
X00539846Y00176000D01*
X00541539D01*
X00540693Y00177693D02*
X00542386Y00176000D01*
X00541539D02*
X00542386Y00176846D01*
X00554386Y00225846D02*
Y00229232D01*
X00553539Y00230078D01*
X00551846D01*
X00551000Y00229232D01*
Y00225846D01*
X00551846Y00225000D01*
X00553539D01*
X00552693Y00226693D02*
X00554386Y00225000D01*
X00553539D02*
X00554386Y00225846D01*
X00572386Y00205346D02*
Y00208732D01*
X00571539Y00209578D01*
X00569846D01*
X00569000Y00208732D01*
Y00205346D01*
X00569846Y00204500D01*
X00571539D01*
X00570693Y00206193D02*
X00572386Y00204500D01*
X00571539D02*
X00572386Y00205346D01*
X00616385Y00196846D02*
Y00200232D01*
X00615539Y00201078D01*
X00613846D01*
X00613000Y00200232D01*
Y00196846D01*
X00613846Y00196000D01*
X00615539D01*
X00614693Y00197693D02*
X00616385Y00196000D01*
X00615539D02*
X00616385Y00196846D01*
X00576386D02*
Y00200232D01*
X00575539Y00201078D01*
X00573846D01*
X00573000Y00200232D01*
Y00196846D01*
X00573846Y00196000D01*
X00575539D01*
X00574693Y00197693D02*
X00576386Y00196000D01*
X00575539D02*
X00576386Y00196846D01*
X00208386Y00737846D02*
Y00741232D01*
X00207539Y00742078D01*
X00205846D01*
X00205000Y00741232D01*
Y00737846D01*
X00205846Y00737000D01*
X00207539D01*
X00206693Y00738693D02*
X00208386Y00737000D01*
X00207539D02*
X00208386Y00737846D01*
X00566386Y00536346D02*
Y00539732D01*
X00565539Y00540578D01*
X00563846D01*
X00563000Y00539732D01*
Y00536346D01*
X00563846Y00535500D01*
X00565539D01*
X00564693Y00537193D02*
X00566386Y00535500D01*
X00565539D02*
X00566386Y00536346D01*
X00703386Y00788346D02*
Y00791732D01*
X00702539Y00792578D01*
X00700846D01*
X00700000Y00791732D01*
Y00788346D01*
X00700846Y00787500D01*
X00702539D01*
X00701693Y00789193D02*
X00703386Y00787500D01*
X00702539D02*
X00703386Y00788346D01*
X00690386Y00801846D02*
Y00805232D01*
X00689539Y00806078D01*
X00687846D01*
X00687000Y00805232D01*
Y00801846D01*
X00687846Y00801000D01*
X00689539D01*
X00688693Y00802693D02*
X00690386Y00801000D01*
X00689539D02*
X00690386Y00801846D01*
X00536385Y00548345D02*
Y00551731D01*
X00535538Y00552577D01*
X00533845D01*
X00532999Y00551731D01*
Y00548345D01*
X00533845Y00547499D01*
X00535538D01*
X00534692Y00549192D02*
X00536385Y00547499D01*
X00535538D02*
X00536385Y00548345D01*
X00524886Y00546846D02*
Y00550232D01*
X00524039Y00551078D01*
X00522346D01*
X00521500Y00550232D01*
Y00546846D01*
X00522346Y00546000D01*
X00524039D01*
X00523193Y00547693D02*
X00524886Y00546000D01*
X00524039D02*
X00524886Y00546846D01*
X00512786Y00543247D02*
Y00546633D01*
X00511940Y00547479D01*
X00510247D01*
X00509401Y00546633D01*
Y00543247D01*
X00510247Y00542401D01*
X00511940D01*
X00511093Y00544093D02*
X00512786Y00542401D01*
X00511940D02*
X00512786Y00543247D01*
X00348386Y00787846D02*
Y00791232D01*
X00347539Y00792078D01*
X00345846D01*
X00345000Y00791232D01*
Y00787846D01*
X00345846Y00787000D01*
X00347539D01*
X00346693Y00788693D02*
X00348386Y00787000D01*
X00347539D02*
X00348386Y00787846D01*
X00360386D02*
Y00791232D01*
X00359539Y00792078D01*
X00357846D01*
X00357000Y00791232D01*
Y00787846D01*
X00357846Y00787000D01*
X00359539D01*
X00358693Y00788693D02*
X00360386Y00787000D01*
X00359539D02*
X00360386Y00787846D01*
X00474886Y00788346D02*
Y00791732D01*
X00474039Y00792578D01*
X00472346D01*
X00471500Y00791732D01*
Y00788346D01*
X00472346Y00787500D01*
X00474039D01*
X00473193Y00789193D02*
X00474886Y00787500D01*
X00474039D02*
X00474886Y00788346D01*
X00462386Y00787846D02*
Y00791232D01*
X00461539Y00792078D01*
X00459846D01*
X00459000Y00791232D01*
Y00787846D01*
X00459846Y00787000D01*
X00461539D01*
X00460693Y00788693D02*
X00462386Y00787000D01*
X00461539D02*
X00462386Y00787846D01*
X00562386Y00547846D02*
Y00551232D01*
X00561539Y00552078D01*
X00559846D01*
X00559000Y00551232D01*
Y00547846D01*
X00559846Y00547000D01*
X00561539D01*
X00560693Y00548693D02*
X00562386Y00547000D01*
X00561539D02*
X00562386Y00547846D01*
X00544386D02*
Y00551232D01*
X00543539Y00552078D01*
X00541846D01*
X00541000Y00551232D01*
Y00547846D01*
X00541846Y00547000D01*
X00543539D01*
X00542693Y00548693D02*
X00544386Y00547000D01*
X00543539D02*
X00544386Y00547846D01*
X00466386Y00570846D02*
Y00574232D01*
X00465539Y00575078D01*
X00463846D01*
X00463000Y00574232D01*
Y00570846D01*
X00463846Y00570000D01*
X00465539D01*
X00464693Y00571693D02*
X00466386Y00570000D01*
X00465539D02*
X00466386Y00570846D01*
X00463386Y00564846D02*
Y00568232D01*
X00462539Y00569078D01*
X00460846D01*
X00460000Y00568232D01*
Y00564846D01*
X00460846Y00564000D01*
X00462539D01*
X00461693Y00565693D02*
X00463386Y00564000D01*
X00462539D02*
X00463386Y00564846D01*
X00459386Y00570846D02*
Y00574232D01*
X00458539Y00575078D01*
X00456846D01*
X00456000Y00574232D01*
Y00570846D01*
X00456846Y00570000D01*
X00458539D01*
X00457693Y00571693D02*
X00459386Y00570000D01*
X00458539D02*
X00459386Y00570846D01*
X00171386Y00479846D02*
Y00483232D01*
X00170539Y00484078D01*
X00168846D01*
X00168000Y00483232D01*
Y00479846D01*
X00168846Y00479000D01*
X00170539D01*
X00169693Y00480693D02*
X00171386Y00479000D01*
X00170539D02*
X00171386Y00479846D01*
Y00472846D02*
Y00476232D01*
X00170539Y00477078D01*
X00168846D01*
X00168000Y00476232D01*
Y00472846D01*
X00168846Y00472000D01*
X00170539D01*
X00169693Y00473693D02*
X00171386Y00472000D01*
X00170539D02*
X00171386Y00472846D01*
Y00465846D02*
Y00469232D01*
X00170539Y00470078D01*
X00168846D01*
X00168000Y00469232D01*
Y00465846D01*
X00168846Y00465000D01*
X00170539D01*
X00169693Y00466693D02*
X00171386Y00465000D01*
X00170539D02*
X00171386Y00465846D01*
X00331386Y00773846D02*
Y00777232D01*
X00330539Y00778078D01*
X00328846D01*
X00328000Y00777232D01*
Y00773846D01*
X00328846Y00773000D01*
X00330539D01*
X00329693Y00774693D02*
X00331386Y00773000D01*
X00330539D02*
X00331386Y00773846D01*
X00294386D02*
Y00777232D01*
X00293539Y00778078D01*
X00291846D01*
X00291000Y00777232D01*
Y00773846D01*
X00291846Y00773000D01*
X00293539D01*
X00292693Y00774693D02*
X00294386Y00773000D01*
X00293539D02*
X00294386Y00773846D01*
X00299386Y00722846D02*
Y00726232D01*
X00298539Y00727078D01*
X00296846D01*
X00296000Y00726232D01*
Y00722846D01*
X00296846Y00722000D01*
X00298539D01*
X00297693Y00723693D02*
X00299386Y00722000D01*
X00298539D02*
X00299386Y00722846D01*
X00337386D02*
Y00726232D01*
X00336539Y00727078D01*
X00334846D01*
X00334000Y00726232D01*
Y00722846D01*
X00334846Y00722000D01*
X00336539D01*
X00335693Y00723693D02*
X00337386Y00722000D01*
X00336539D02*
X00337386Y00722846D01*
X00375386D02*
Y00726232D01*
X00374539Y00727078D01*
X00372846D01*
X00372000Y00726232D01*
Y00722846D01*
X00372846Y00722000D01*
X00374539D01*
X00373693Y00723693D02*
X00375386Y00722000D01*
X00374539D02*
X00375386Y00722846D01*
X00527386D02*
Y00726232D01*
X00526539Y00727078D01*
X00524846D01*
X00524000Y00726232D01*
Y00722846D01*
X00524846Y00722000D01*
X00526539D01*
X00525693Y00723693D02*
X00527386Y00722000D01*
X00526539D02*
X00527386Y00722846D01*
X00566386D02*
Y00726232D01*
X00565539Y00727078D01*
X00563846D01*
X00563000Y00726232D01*
Y00722846D01*
X00563846Y00722000D01*
X00565539D01*
X00564693Y00723693D02*
X00566386Y00722000D01*
X00565539D02*
X00566386Y00722846D01*
X00546386Y00535846D02*
Y00539232D01*
X00545539Y00540078D01*
X00543846D01*
X00543000Y00539232D01*
Y00535846D01*
X00543846Y00535000D01*
X00545539D01*
X00544693Y00536693D02*
X00546386Y00535000D01*
X00545539D02*
X00546386Y00535846D01*
X00576386Y00546846D02*
Y00550232D01*
X00575539Y00551078D01*
X00573846D01*
X00573000Y00550232D01*
Y00546846D01*
X00573846Y00546000D01*
X00575539D01*
X00574693Y00547693D02*
X00576386Y00546000D01*
X00575539D02*
X00576386Y00546846D01*
X00601386Y00547846D02*
Y00551232D01*
X00600539Y00552078D01*
X00598846D01*
X00598000Y00551232D01*
Y00547846D01*
X00598846Y00547000D01*
X00600539D01*
X00599693Y00548693D02*
X00601386Y00547000D01*
X00600539D02*
X00601386Y00547846D01*
X00617386Y00564846D02*
Y00568232D01*
X00616539Y00569078D01*
X00614846D01*
X00614000Y00568232D01*
Y00564846D01*
X00614846Y00564000D01*
X00616539D01*
X00615693Y00565693D02*
X00617386Y00564000D01*
X00616539D02*
X00617386Y00564846D01*
X00624386D02*
Y00568232D01*
X00623539Y00569078D01*
X00621846D01*
X00621000Y00568232D01*
Y00564846D01*
X00621846Y00564000D01*
X00623539D01*
X00622693Y00565693D02*
X00624386Y00564000D01*
X00623539D02*
X00624386Y00564846D01*
X00508085Y00564866D02*
Y00568252D01*
X00507238Y00569098D01*
X00505545D01*
X00504699Y00568252D01*
Y00564866D01*
X00505545Y00564020D01*
X00507238D01*
X00506392Y00565713D02*
X00508085Y00564020D01*
X00507238D02*
X00508085Y00564866D01*
X00115386Y00293846D02*
Y00297232D01*
X00114539Y00298078D01*
X00112846D01*
X00112000Y00297232D01*
Y00293846D01*
X00112846Y00293000D01*
X00114539D01*
X00113693Y00294693D02*
X00115386Y00293000D01*
X00114539D02*
X00115386Y00293846D01*
X00125886D02*
Y00297232D01*
X00125039Y00298078D01*
X00123346D01*
X00122500Y00297232D01*
Y00293846D01*
X00123346Y00293000D01*
X00125039D01*
X00124193Y00294693D02*
X00125886Y00293000D01*
X00125039D02*
X00125886Y00293846D01*
X00176386D02*
Y00297232D01*
X00175539Y00298078D01*
X00173846D01*
X00173000Y00297232D01*
Y00293846D01*
X00173846Y00293000D01*
X00175539D01*
X00174693Y00294693D02*
X00176386Y00293000D01*
X00175539D02*
X00176386Y00293846D01*
X00185886D02*
Y00297232D01*
X00185039Y00298078D01*
X00183346D01*
X00182500Y00297232D01*
Y00293846D01*
X00183346Y00293000D01*
X00185039D01*
X00184193Y00294693D02*
X00185886Y00293000D01*
X00185039D02*
X00185886Y00293846D01*
X00234386Y00736846D02*
Y00740232D01*
X00233539Y00741078D01*
X00231846D01*
X00231000Y00740232D01*
Y00736846D01*
X00231846Y00736000D01*
X00233539D01*
X00232693Y00737693D02*
X00234386Y00736000D01*
X00233539D02*
X00234386Y00736846D01*
X00247386Y00737846D02*
Y00741232D01*
X00246539Y00742078D01*
X00244846D01*
X00244000Y00741232D01*
Y00737846D01*
X00244846Y00737000D01*
X00246539D01*
X00245693Y00738693D02*
X00247386Y00737000D01*
X00246539D02*
X00247386Y00737846D01*
X00259728D02*
Y00741232D01*
X00258881Y00742078D01*
X00257189D01*
X00256342Y00741232D01*
Y00737846D01*
X00257189Y00737000D01*
X00258881D01*
X00258035Y00738693D02*
X00259728Y00737000D01*
X00258881D02*
X00259728Y00737846D01*
X00272386Y00736759D02*
Y00740145D01*
X00271539Y00740991D01*
X00269846D01*
X00269000Y00740145D01*
Y00736759D01*
X00269846Y00735913D01*
X00271539D01*
X00270693Y00737606D02*
X00272386Y00735913D01*
X00271539D02*
X00272386Y00736759D01*
X00297386Y00737846D02*
Y00741232D01*
X00296539Y00742078D01*
X00294846D01*
X00294000Y00741232D01*
Y00737846D01*
X00294846Y00737000D01*
X00296539D01*
X00295693Y00738693D02*
X00297386Y00737000D01*
X00296539D02*
X00297386Y00737846D01*
X00411386Y00737104D02*
Y00740490D01*
X00410539Y00741336D01*
X00408846D01*
X00408000Y00740490D01*
Y00737104D01*
X00408846Y00736258D01*
X00410539D01*
X00409693Y00737951D02*
X00411386Y00736258D01*
X00410539D02*
X00411386Y00737104D01*
X00234386Y00787846D02*
Y00791232D01*
X00233539Y00792078D01*
X00231846D01*
X00231000Y00791232D01*
Y00787846D01*
X00231846Y00787000D01*
X00233539D01*
X00232693Y00788693D02*
X00234386Y00787000D01*
X00233539D02*
X00234386Y00787846D01*
X00221386D02*
Y00791232D01*
X00220539Y00792078D01*
X00218846D01*
X00218000Y00791232D01*
Y00787846D01*
X00218846Y00787000D01*
X00220539D01*
X00219693Y00788693D02*
X00221386Y00787000D01*
X00220539D02*
X00221386Y00787846D01*
X00207386D02*
Y00791232D01*
X00206539Y00792078D01*
X00204846D01*
X00204000Y00791232D01*
Y00787846D01*
X00204846Y00787000D01*
X00206539D01*
X00205693Y00788693D02*
X00207386Y00787000D01*
X00206539D02*
X00207386Y00787846D01*
X00246386Y00788004D02*
Y00791390D01*
X00245539Y00792236D01*
X00243846D01*
X00243000Y00791390D01*
Y00788004D01*
X00243846Y00787158D01*
X00245539D01*
X00244693Y00788851D02*
X00246386Y00787158D01*
X00245539D02*
X00246386Y00788004D01*
X00259386Y00788304D02*
Y00791690D01*
X00258539Y00792536D01*
X00256846D01*
X00256000Y00791690D01*
Y00788304D01*
X00256846Y00787458D01*
X00258539D01*
X00257693Y00789151D02*
X00259386Y00787458D01*
X00258539D02*
X00259386Y00788304D01*
X00272386Y00787846D02*
Y00791232D01*
X00271539Y00792078D01*
X00269846D01*
X00269000Y00791232D01*
Y00787846D01*
X00269846Y00787000D01*
X00271539D01*
X00270693Y00788693D02*
X00272386Y00787000D01*
X00271539D02*
X00272386Y00787846D01*
X00285386Y00786846D02*
Y00790232D01*
X00284539Y00791078D01*
X00282846D01*
X00282000Y00790232D01*
Y00786846D01*
X00282846Y00786000D01*
X00284539D01*
X00283693Y00787693D02*
X00285386Y00786000D01*
X00284539D02*
X00285386Y00786846D01*
X00297386Y00787846D02*
Y00791232D01*
X00296539Y00792078D01*
X00294846D01*
X00294000Y00791232D01*
Y00787846D01*
X00294846Y00787000D01*
X00296539D01*
X00295693Y00788693D02*
X00297386Y00787000D01*
X00296539D02*
X00297386Y00787846D01*
X00310728Y00788846D02*
Y00792232D01*
X00309881Y00793078D01*
X00308189D01*
X00307342Y00792232D01*
Y00788846D01*
X00308189Y00788000D01*
X00309881D01*
X00309035Y00789693D02*
X00310728Y00788000D01*
X00309881D02*
X00310728Y00788846D01*
X00323386Y00787846D02*
Y00791232D01*
X00322539Y00792078D01*
X00320846D01*
X00320000Y00791232D01*
Y00787846D01*
X00320846Y00787000D01*
X00322539D01*
X00321693Y00788693D02*
X00323386Y00787000D01*
X00322539D02*
X00323386Y00787846D01*
X00776386Y00478846D02*
Y00482232D01*
X00775539Y00483078D01*
X00773846D01*
X00773000Y00482232D01*
Y00478846D01*
X00773846Y00478000D01*
X00775539D01*
X00774693Y00479693D02*
X00776386Y00478000D01*
X00775539D02*
X00776386Y00478846D01*
X00792386D02*
Y00482232D01*
X00791539Y00483078D01*
X00789846D01*
X00789000Y00482232D01*
Y00478846D01*
X00789846Y00478000D01*
X00791539D01*
X00790693Y00479693D02*
X00792386Y00478000D01*
X00791539D02*
X00792386Y00478846D01*
X00697386Y00357846D02*
Y00361232D01*
X00696539Y00362078D01*
X00694846D01*
X00694000Y00361232D01*
Y00357846D01*
X00694846Y00357000D01*
X00696539D01*
X00695693Y00358693D02*
X00697386Y00357000D01*
X00696539D02*
X00697386Y00357846D01*
X00700386Y00302846D02*
Y00306232D01*
X00699539Y00307078D01*
X00697846D01*
X00697000Y00306232D01*
Y00302846D01*
X00697846Y00302000D01*
X00699539D01*
X00698693Y00303693D02*
X00700386Y00302000D01*
X00699539D02*
X00700386Y00302846D01*
Y00324846D02*
Y00328232D01*
X00699539Y00329078D01*
X00697846D01*
X00697000Y00328232D01*
Y00324846D01*
X00697846Y00324000D01*
X00699539D01*
X00698693Y00325693D02*
X00700386Y00324000D01*
X00699539D02*
X00700386Y00324846D01*
X00776385Y00302846D02*
Y00306232D01*
X00775539Y00307078D01*
X00773846D01*
X00773000Y00306232D01*
Y00302846D01*
X00773846Y00302000D01*
X00775539D01*
X00774693Y00303693D02*
X00776385Y00302000D01*
X00775539D02*
X00776385Y00302846D01*
X00792385D02*
Y00306232D01*
X00791539Y00307078D01*
X00789846D01*
X00789000Y00306232D01*
Y00302846D01*
X00789846Y00302000D01*
X00791539D01*
X00790693Y00303693D02*
X00792385Y00302000D01*
X00791539D02*
X00792385Y00302846D01*
X00615386Y00176846D02*
Y00180232D01*
X00614539Y00181078D01*
X00612846D01*
X00612000Y00180232D01*
Y00176846D01*
X00612846Y00176000D01*
X00614539D01*
X00613693Y00177693D02*
X00615386Y00176000D01*
X00614539D02*
X00615386Y00176846D01*
X00578386D02*
Y00180232D01*
X00577539Y00181078D01*
X00575846D01*
X00575000Y00180232D01*
Y00176846D01*
X00575846Y00176000D01*
X00577539D01*
X00576693Y00177693D02*
X00578386Y00176000D01*
X00577539D02*
X00578386Y00176846D01*
X00566386D02*
Y00180232D01*
X00565539Y00181078D01*
X00563846D01*
X00563000Y00180232D01*
Y00176846D01*
X00563846Y00176000D01*
X00565539D01*
X00564693Y00177693D02*
X00566386Y00176000D01*
X00565539D02*
X00566386Y00176846D01*
X00554386D02*
Y00180232D01*
X00553539Y00181078D01*
X00551846D01*
X00551000Y00180232D01*
Y00176846D01*
X00551846Y00176000D01*
X00553539D01*
X00552693Y00177693D02*
X00554386Y00176000D01*
X00553539D02*
X00554386Y00176846D01*
X00506386Y00198846D02*
Y00202232D01*
X00505539Y00203078D01*
X00503846D01*
X00503000Y00202232D01*
Y00198846D01*
X00503846Y00198000D01*
X00505539D01*
X00504693Y00199693D02*
X00506386Y00198000D01*
X00505539D02*
X00506386Y00198846D01*
X00494386D02*
Y00202232D01*
X00493539Y00203078D01*
X00491846D01*
X00491000Y00202232D01*
Y00198846D01*
X00491846Y00198000D01*
X00493539D01*
X00492693Y00199693D02*
X00494386Y00198000D01*
X00493539D02*
X00494386Y00198846D01*
X00482386D02*
Y00202232D01*
X00481539Y00203078D01*
X00479846D01*
X00479000Y00202232D01*
Y00198846D01*
X00479846Y00198000D01*
X00481539D01*
X00480693Y00199693D02*
X00482386Y00198000D01*
X00481539D02*
X00482386Y00198846D01*
X00446386D02*
Y00202232D01*
X00445539Y00203078D01*
X00443846D01*
X00443000Y00202232D01*
Y00198846D01*
X00443846Y00198000D01*
X00445539D01*
X00444693Y00199693D02*
X00446386Y00198000D01*
X00445539D02*
X00446386Y00198846D01*
X00434386D02*
Y00202232D01*
X00433539Y00203078D01*
X00431846D01*
X00431000Y00202232D01*
Y00198846D01*
X00431846Y00198000D01*
X00433539D01*
X00432693Y00199693D02*
X00434386Y00198000D01*
X00433539D02*
X00434386Y00198846D01*
X00472386Y00207846D02*
Y00211232D01*
X00471539Y00212078D01*
X00469846D01*
X00469000Y00211232D01*
Y00207846D01*
X00469846Y00207000D01*
X00471539D01*
X00470693Y00208693D02*
X00472386Y00207000D01*
X00471539D02*
X00472386Y00207846D01*
X00482386D02*
Y00211232D01*
X00481539Y00212078D01*
X00479846D01*
X00479000Y00211232D01*
Y00207846D01*
X00479846Y00207000D01*
X00481539D01*
X00480693Y00208693D02*
X00482386Y00207000D01*
X00481539D02*
X00482386Y00207846D01*
X00494386D02*
Y00211232D01*
X00493539Y00212078D01*
X00491846D01*
X00491000Y00211232D01*
Y00207846D01*
X00491846Y00207000D01*
X00493539D01*
X00492693Y00208693D02*
X00494386Y00207000D01*
X00493539D02*
X00494386Y00207846D01*
X00506386D02*
Y00211232D01*
X00505539Y00212078D01*
X00503846D01*
X00503000Y00211232D01*
Y00207846D01*
X00503846Y00207000D01*
X00505539D01*
X00504693Y00208693D02*
X00506386Y00207000D01*
X00505539D02*
X00506386Y00207846D01*
X00518386D02*
Y00211232D01*
X00517539Y00212078D01*
X00515846D01*
X00515000Y00211232D01*
Y00207846D01*
X00515846Y00207000D01*
X00517539D01*
X00516693Y00208693D02*
X00518386Y00207000D01*
X00517539D02*
X00518386Y00207846D01*
X00566386Y00225846D02*
Y00229232D01*
X00565539Y00230078D01*
X00563846D01*
X00563000Y00229232D01*
Y00225846D01*
X00563846Y00225000D01*
X00565539D01*
X00564693Y00226693D02*
X00566386Y00225000D01*
X00565539D02*
X00566386Y00225846D01*
X00578386D02*
Y00229232D01*
X00577539Y00230078D01*
X00575846D01*
X00575000Y00229232D01*
Y00225846D01*
X00575846Y00225000D01*
X00577539D01*
X00576693Y00226693D02*
X00578386Y00225000D01*
X00577539D02*
X00578386Y00225846D01*
X00590386D02*
Y00229232D01*
X00589539Y00230078D01*
X00587846D01*
X00587000Y00229232D01*
Y00225846D01*
X00587846Y00225000D01*
X00589539D01*
X00588693Y00226693D02*
X00590386Y00225000D01*
X00589539D02*
X00590386Y00225846D01*
X00600386D02*
Y00229232D01*
X00599539Y00230078D01*
X00597846D01*
X00597000Y00229232D01*
Y00225846D01*
X00597846Y00225000D01*
X00599539D01*
X00598693Y00226693D02*
X00600386Y00225000D01*
X00599539D02*
X00600386Y00225846D01*
X00181386Y00427846D02*
Y00431232D01*
X00180539Y00432078D01*
X00178846D01*
X00178000Y00431232D01*
Y00427846D01*
X00178846Y00427000D01*
X00180539D01*
X00179693Y00428693D02*
X00181386Y00427000D01*
X00180539D02*
X00181386Y00427846D01*
X00189386D02*
Y00431232D01*
X00188539Y00432078D01*
X00186846D01*
X00186000Y00431232D01*
Y00427846D01*
X00186846Y00427000D01*
X00188539D01*
X00187693Y00428693D02*
X00189386Y00427000D01*
X00188539D02*
X00189386Y00427846D01*
X00108175Y00458811D02*
Y00462197D01*
X00107329Y00463043D01*
X00105636D01*
X00104789Y00462197D01*
Y00458811D01*
X00105636Y00457965D01*
X00107329D01*
X00106482Y00459658D02*
X00108175Y00457965D01*
X00107329D02*
X00108175Y00458811D01*
X00102386Y00464846D02*
Y00468232D01*
X00101539Y00469078D01*
X00099846D01*
X00099000Y00468232D01*
Y00464846D01*
X00099846Y00464000D01*
X00101539D01*
X00100693Y00465693D02*
X00102386Y00464000D01*
X00101539D02*
X00102386Y00464846D01*
X00114386Y00452846D02*
Y00456232D01*
X00113539Y00457078D01*
X00111846D01*
X00111000Y00456232D01*
Y00452846D01*
X00111846Y00452000D01*
X00113539D01*
X00112693Y00453693D02*
X00114386Y00452000D01*
X00113539D02*
X00114386Y00452846D01*
X00102386D02*
Y00456232D01*
X00101539Y00457078D01*
X00099846D01*
X00099000Y00456232D01*
Y00452846D01*
X00099846Y00452000D01*
X00101539D01*
X00100693Y00453693D02*
X00102386Y00452000D01*
X00101539D02*
X00102386Y00452846D01*
X00058386Y00423846D02*
Y00427232D01*
X00057539Y00428078D01*
X00055846D01*
X00055000Y00427232D01*
Y00423846D01*
X00055846Y00423000D01*
X00057539D01*
X00056693Y00424693D02*
X00058386Y00423000D01*
X00057539D02*
X00058386Y00423846D01*
X00067386D02*
Y00427232D01*
X00066539Y00428078D01*
X00064846D01*
X00064000Y00427232D01*
Y00423846D01*
X00064846Y00423000D01*
X00066539D01*
X00065693Y00424693D02*
X00067386Y00423000D01*
X00066539D02*
X00067386Y00423846D01*
Y00431846D02*
Y00435232D01*
X00066539Y00436078D01*
X00064846D01*
X00064000Y00435232D01*
Y00431846D01*
X00064846Y00431000D01*
X00066539D01*
X00065693Y00432693D02*
X00067386Y00431000D01*
X00066539D02*
X00067386Y00431846D01*
X00061386Y00463846D02*
Y00467232D01*
X00060539Y00468078D01*
X00058846D01*
X00058000Y00467232D01*
Y00463846D01*
X00058846Y00463000D01*
X00060539D01*
X00059693Y00464693D02*
X00061386Y00463000D01*
X00060539D02*
X00061386Y00463846D01*
X00173386Y00427846D02*
Y00431232D01*
X00172539Y00432078D01*
X00170846D01*
X00170000Y00431232D01*
Y00427846D01*
X00170846Y00427000D01*
X00172539D01*
X00171693Y00428693D02*
X00173386Y00427000D01*
X00172539D02*
X00173386Y00427846D01*
X00211386Y00459846D02*
Y00463232D01*
X00210539Y00464078D01*
X00208846D01*
X00208000Y00463232D01*
Y00459846D01*
X00208846Y00459000D01*
X00210539D01*
X00209693Y00460693D02*
X00211386Y00459000D01*
X00210539D02*
X00211386Y00459846D01*
X00645386Y00348846D02*
Y00352232D01*
X00644539Y00353078D01*
X00642846D01*
X00642000Y00352232D01*
Y00348846D01*
X00642846Y00348000D01*
X00644539D01*
X00643693Y00349693D02*
X00645386Y00348000D01*
X00644539D02*
X00645386Y00348846D01*
X00646386Y00369846D02*
Y00373232D01*
X00645539Y00374078D01*
X00643846D01*
X00643000Y00373232D01*
Y00369846D01*
X00643846Y00369000D01*
X00645539D01*
X00644693Y00370693D02*
X00646386Y00369000D01*
X00645539D02*
X00646386Y00369846D01*
X00183386Y00509846D02*
Y00513232D01*
X00182539Y00514078D01*
X00180846D01*
X00180000Y00513232D01*
Y00509846D01*
X00180846Y00509000D01*
X00182539D01*
X00181693Y00510693D02*
X00183386Y00509000D01*
X00182539D02*
X00183386Y00509846D01*
X00589386Y00537846D02*
Y00541232D01*
X00588539Y00542078D01*
X00586846D01*
X00586000Y00541232D01*
Y00537846D01*
X00586846Y00537000D01*
X00588539D01*
X00587693Y00538693D02*
X00589386Y00537000D01*
X00588539D02*
X00589386Y00537846D01*
X00599386D02*
Y00541232D01*
X00598539Y00542078D01*
X00596846D01*
X00596000Y00541232D01*
Y00537846D01*
X00596846Y00537000D01*
X00598539D01*
X00597693Y00538693D02*
X00599386Y00537000D01*
X00598539D02*
X00599386Y00537846D01*
X00308386Y00753846D02*
Y00757232D01*
X00307539Y00758078D01*
X00305846D01*
X00305000Y00757232D01*
Y00753846D01*
X00305846Y00753000D01*
X00307539D01*
X00306693Y00754693D02*
X00308386Y00753000D01*
X00307539D02*
X00308386Y00753846D01*
X00345386D02*
Y00757232D01*
X00344539Y00758078D01*
X00342846D01*
X00342000Y00757232D01*
Y00753846D01*
X00342846Y00753000D01*
X00344539D01*
X00343693Y00754693D02*
X00345386Y00753000D01*
X00344539D02*
X00345386Y00753846D01*
X00341386Y00773846D02*
Y00777232D01*
X00340539Y00778078D01*
X00338846D01*
X00338000Y00777232D01*
Y00773846D01*
X00338846Y00773000D01*
X00340539D01*
X00339693Y00774693D02*
X00341386Y00773000D01*
X00340539D02*
X00341386Y00773846D01*
X00291386Y00722846D02*
Y00726232D01*
X00290539Y00727078D01*
X00288846D01*
X00288000Y00726232D01*
Y00722846D01*
X00288846Y00722000D01*
X00290539D01*
X00289693Y00723693D02*
X00291386Y00722000D01*
X00290539D02*
X00291386Y00722846D01*
X00386386Y00753846D02*
Y00757232D01*
X00385539Y00758078D01*
X00383846D01*
X00383000Y00757232D01*
Y00753846D01*
X00383846Y00753000D01*
X00385539D01*
X00384693Y00754693D02*
X00386386Y00753000D01*
X00385539D02*
X00386386Y00753846D01*
X00269386D02*
Y00757232D01*
X00268539Y00758078D01*
X00266846D01*
X00266000Y00757232D01*
Y00753846D01*
X00266846Y00753000D01*
X00268539D01*
X00267693Y00754693D02*
X00269386Y00753000D01*
X00268539D02*
X00269386Y00753846D01*
X00303386Y00773846D02*
Y00777232D01*
X00302539Y00778078D01*
X00300846D01*
X00300000Y00777232D01*
Y00773846D01*
X00300846Y00773000D01*
X00302539D01*
X00301693Y00774693D02*
X00303386Y00773000D01*
X00302539D02*
X00303386Y00773846D01*
X00512386Y00570846D02*
Y00574232D01*
X00511539Y00575078D01*
X00509846D01*
X00509000Y00574232D01*
Y00570846D01*
X00509846Y00570000D01*
X00511539D01*
X00510693Y00571693D02*
X00512386Y00570000D01*
X00511539D02*
X00512386Y00570846D01*
X00532386Y00802846D02*
Y00806232D01*
X00531539Y00807078D01*
X00529846D01*
X00529000Y00806232D01*
Y00802846D01*
X00529846Y00802000D01*
X00531539D01*
X00530693Y00803693D02*
X00532386Y00802000D01*
X00531539D02*
X00532386Y00802846D01*
X00508386Y00536846D02*
Y00540232D01*
X00507539Y00541078D01*
X00505846D01*
X00505000Y00540232D01*
Y00536846D01*
X00505846Y00536000D01*
X00507539D01*
X00506693Y00537693D02*
X00508386Y00536000D01*
X00507539D02*
X00508386Y00536846D01*
X00592386Y00564846D02*
Y00568232D01*
X00591539Y00569078D01*
X00589846D01*
X00589000Y00568232D01*
Y00564846D01*
X00589846Y00564000D01*
X00591539D01*
X00590693Y00565693D02*
X00592386Y00564000D01*
X00591539D02*
X00592386Y00564846D01*
X00380136Y00773096D02*
Y00776482D01*
X00379289Y00777328D01*
X00377596D01*
X00376750Y00776482D01*
Y00773096D01*
X00377596Y00772250D01*
X00379289D01*
X00378443Y00773943D02*
X00380136Y00772250D01*
X00379289D02*
X00380136Y00773096D01*
X00367386Y00722846D02*
Y00726232D01*
X00366539Y00727078D01*
X00364846D01*
X00364000Y00726232D01*
Y00722846D01*
X00364846Y00722000D01*
X00366539D01*
X00365693Y00723693D02*
X00367386Y00722000D01*
X00366539D02*
X00367386Y00722846D01*
X00328386D02*
Y00726232D01*
X00327539Y00727078D01*
X00325846D01*
X00325000Y00726232D01*
Y00722846D01*
X00325846Y00722000D01*
X00327539D01*
X00326693Y00723693D02*
X00328386Y00722000D01*
X00327539D02*
X00328386Y00722846D01*
X00532386Y00773846D02*
Y00777232D01*
X00531539Y00778078D01*
X00529846D01*
X00529000Y00777232D01*
Y00773846D01*
X00529846Y00773000D01*
X00531539D01*
X00530693Y00774693D02*
X00532386Y00773000D01*
X00531539D02*
X00532386Y00773846D01*
X00494386D02*
Y00777232D01*
X00493539Y00778078D01*
X00491846D01*
X00491000Y00777232D01*
Y00773846D01*
X00491846Y00773000D01*
X00493539D01*
X00492693Y00774693D02*
X00494386Y00773000D01*
X00493539D02*
X00494386Y00773846D01*
X00456386Y00772846D02*
Y00776232D01*
X00455539Y00777078D01*
X00453846D01*
X00453000Y00776232D01*
Y00772846D01*
X00453846Y00772000D01*
X00455539D01*
X00454693Y00773693D02*
X00456386Y00772000D01*
X00455539D02*
X00456386Y00772846D01*
X00438386Y00752846D02*
Y00756232D01*
X00437539Y00757078D01*
X00435846D01*
X00435000Y00756232D01*
Y00752846D01*
X00435846Y00752000D01*
X00437539D01*
X00436693Y00753693D02*
X00438386Y00752000D01*
X00437539D02*
X00438386Y00752846D01*
X00405236Y00722996D02*
Y00726382D01*
X00404389Y00727228D01*
X00402696D01*
X00401850Y00726382D01*
Y00722996D01*
X00402696Y00722150D01*
X00404389D01*
X00403543Y00723843D02*
X00405236Y00722150D01*
X00404389D02*
X00405236Y00722996D01*
X00443386Y00722846D02*
Y00726232D01*
X00442539Y00727078D01*
X00440846D01*
X00440000Y00726232D01*
Y00722846D01*
X00440846Y00722000D01*
X00442539D01*
X00441693Y00723693D02*
X00443386Y00722000D01*
X00442539D02*
X00443386Y00722846D01*
X00481386D02*
Y00726232D01*
X00480539Y00727078D01*
X00478846D01*
X00478000Y00726232D01*
Y00722846D01*
X00478846Y00722000D01*
X00480539D01*
X00479693Y00723693D02*
X00481386Y00722000D01*
X00480539D02*
X00481386Y00722846D01*
X00519386D02*
Y00726232D01*
X00518539Y00727078D01*
X00516846D01*
X00516000Y00726232D01*
Y00722846D01*
X00516846Y00722000D01*
X00518539D01*
X00517693Y00723693D02*
X00519386Y00722000D01*
X00518539D02*
X00519386Y00722846D01*
X00558386D02*
Y00726232D01*
X00557539Y00727078D01*
X00555846D01*
X00555000Y00726232D01*
Y00722846D01*
X00555846Y00722000D01*
X00557539D01*
X00556693Y00723693D02*
X00558386Y00722000D01*
X00557539D02*
X00558386Y00722846D01*
X00489386D02*
Y00726232D01*
X00488539Y00727078D01*
X00486846D01*
X00486000Y00726232D01*
Y00722846D01*
X00486846Y00722000D01*
X00488539D01*
X00487693Y00723693D02*
X00489386Y00722000D01*
X00488539D02*
X00489386Y00722846D01*
X00451386D02*
Y00726232D01*
X00450539Y00727078D01*
X00448846D01*
X00448000Y00726232D01*
Y00722846D01*
X00448846Y00722000D01*
X00450539D01*
X00449693Y00723693D02*
X00451386Y00722000D01*
X00450539D02*
X00451386Y00722846D01*
X00413386D02*
Y00726232D01*
X00412539Y00727078D01*
X00410846D01*
X00410000Y00726232D01*
Y00722846D01*
X00410846Y00722000D01*
X00412539D01*
X00411693Y00723693D02*
X00413386Y00722000D01*
X00412539D02*
X00413386Y00722846D01*
X00261386Y00753846D02*
Y00757232D01*
X00260539Y00758078D01*
X00258846D01*
X00258000Y00757232D01*
Y00753846D01*
X00258846Y00753000D01*
X00260539D01*
X00259693Y00754693D02*
X00261386Y00753000D01*
X00260539D02*
X00261386Y00753846D01*
X00285386Y00765846D02*
Y00769232D01*
X00284539Y00770078D01*
X00282846D01*
X00282000Y00769232D01*
Y00765846D01*
X00282846Y00765000D01*
X00284539D01*
X00283693Y00766693D02*
X00285386Y00765000D01*
X00284539D02*
X00285386Y00765846D01*
X00295386Y00753846D02*
Y00757232D01*
X00294539Y00758078D01*
X00292846D01*
X00292000Y00757232D01*
Y00753846D01*
X00292846Y00753000D01*
X00294539D01*
X00293693Y00754693D02*
X00295386Y00753000D01*
X00294539D02*
X00295386Y00753846D01*
X00311386Y00762846D02*
Y00766232D01*
X00310539Y00767078D01*
X00308846D01*
X00308000Y00766232D01*
Y00762846D01*
X00308846Y00762000D01*
X00310539D01*
X00309693Y00763693D02*
X00311386Y00762000D01*
X00310539D02*
X00311386Y00762846D01*
X00350386D02*
Y00766232D01*
X00349539Y00767078D01*
X00347846D01*
X00347000Y00766232D01*
Y00762846D01*
X00347846Y00762000D01*
X00349539D01*
X00348693Y00763693D02*
X00350386Y00762000D01*
X00349539D02*
X00350386Y00762846D01*
X00322386D02*
Y00766232D01*
X00321539Y00767078D01*
X00319846D01*
X00319000Y00766232D01*
Y00762846D01*
X00319846Y00762000D01*
X00321539D01*
X00320693Y00763693D02*
X00322386Y00762000D01*
X00321539D02*
X00322386Y00762846D01*
X00361386D02*
Y00766232D01*
X00360539Y00767078D01*
X00358846D01*
X00358000Y00766232D01*
Y00762846D01*
X00358846Y00762000D01*
X00360539D01*
X00359693Y00763693D02*
X00361386Y00762000D01*
X00360539D02*
X00361386Y00762846D01*
X00372386Y00753846D02*
Y00757232D01*
X00371539Y00758078D01*
X00369846D01*
X00369000Y00757232D01*
Y00753846D01*
X00369846Y00753000D01*
X00371539D01*
X00370693Y00754693D02*
X00372386Y00753000D01*
X00371539D02*
X00372386Y00753846D01*
X00389386Y00762846D02*
Y00766232D01*
X00388539Y00767078D01*
X00386846D01*
X00386000Y00766232D01*
Y00762846D01*
X00386846Y00762000D01*
X00388539D01*
X00387693Y00763693D02*
X00389386Y00762000D01*
X00388539D02*
X00389386Y00762846D01*
X00412386Y00753846D02*
Y00757232D01*
X00411539Y00758078D01*
X00409846D01*
X00409000Y00757232D01*
Y00753846D01*
X00409846Y00753000D01*
X00411539D01*
X00410693Y00754693D02*
X00412386Y00753000D01*
X00411539D02*
X00412386Y00753846D01*
X00401386Y00765846D02*
Y00769232D01*
X00400539Y00770078D01*
X00398846D01*
X00398000Y00769232D01*
Y00765846D01*
X00398846Y00765000D01*
X00400539D01*
X00399693Y00766693D02*
X00401386Y00765000D01*
X00400539D02*
X00401386Y00765846D01*
X00528386Y00755846D02*
Y00759232D01*
X00527539Y00760078D01*
X00525846D01*
X00525000Y00759232D01*
Y00755846D01*
X00525846Y00755000D01*
X00527539D01*
X00526693Y00756693D02*
X00528386Y00755000D01*
X00527539D02*
X00528386Y00755846D01*
X00517386Y00754846D02*
Y00758232D01*
X00516539Y00759078D01*
X00514846D01*
X00514000Y00758232D01*
Y00754846D01*
X00514846Y00754000D01*
X00516539D01*
X00515693Y00755693D02*
X00517386Y00754000D01*
X00516539D02*
X00517386Y00754846D01*
X00514386Y00765846D02*
Y00769232D01*
X00513539Y00770078D01*
X00511846D01*
X00511000Y00769232D01*
Y00765846D01*
X00511846Y00765000D01*
X00513539D01*
X00512693Y00766693D02*
X00514386Y00765000D01*
X00513539D02*
X00514386Y00765846D01*
X00486386Y00773846D02*
Y00777232D01*
X00485539Y00778078D01*
X00483846D01*
X00483000Y00777232D01*
Y00773846D01*
X00483846Y00773000D01*
X00485539D01*
X00484693Y00774693D02*
X00486386Y00773000D01*
X00485539D02*
X00486386Y00773846D01*
X00448386Y00772846D02*
Y00776232D01*
X00447539Y00777078D01*
X00445846D01*
X00445000Y00776232D01*
Y00772846D01*
X00445846Y00772000D01*
X00447539D01*
X00446693Y00773693D02*
X00448386Y00772000D01*
X00447539D02*
X00448386Y00772846D01*
X00399386Y00788846D02*
Y00792232D01*
X00398539Y00793078D01*
X00396846D01*
X00396000Y00792232D01*
Y00788846D01*
X00396846Y00788000D01*
X00398539D01*
X00397693Y00789693D02*
X00399386Y00788000D01*
X00398539D02*
X00399386Y00788846D01*
X00411328Y00787846D02*
Y00791232D01*
X00410481Y00792078D01*
X00408788D01*
X00407942Y00791232D01*
Y00787846D01*
X00408788Y00787000D01*
X00410481D01*
X00409635Y00788693D02*
X00411328Y00787000D01*
X00410481D02*
X00411328Y00787846D01*
X00423386Y00788846D02*
Y00792232D01*
X00422539Y00793078D01*
X00420846D01*
X00420000Y00792232D01*
Y00788846D01*
X00420846Y00788000D01*
X00422539D01*
X00421693Y00789693D02*
X00423386Y00788000D01*
X00422539D02*
X00423386Y00788846D01*
X00437386Y00787846D02*
Y00791232D01*
X00436539Y00792078D01*
X00434846D01*
X00434000Y00791232D01*
Y00787846D01*
X00434846Y00787000D01*
X00436539D01*
X00435693Y00788693D02*
X00437386Y00787000D01*
X00436539D02*
X00437386Y00787846D01*
X00500384Y00788845D02*
Y00792231D01*
X00499538Y00793077D01*
X00497845D01*
X00496999Y00792231D01*
Y00788845D01*
X00497845Y00787999D01*
X00499538D01*
X00498691Y00789691D02*
X00500384Y00787999D01*
X00499538D02*
X00500384Y00788845D01*
X00513386Y00787846D02*
Y00791232D01*
X00512539Y00792078D01*
X00510846D01*
X00510000Y00791232D01*
Y00787846D01*
X00510846Y00787000D01*
X00512539D01*
X00511693Y00788693D02*
X00513386Y00787000D01*
X00512539D02*
X00513386Y00787846D01*
X00526386D02*
Y00791232D01*
X00525539Y00792078D01*
X00523846D01*
X00523000Y00791232D01*
Y00787846D01*
X00523846Y00787000D01*
X00525539D01*
X00524693Y00788693D02*
X00526386Y00787000D01*
X00525539D02*
X00526386Y00787846D01*
X00551386D02*
Y00791232D01*
X00550539Y00792078D01*
X00548846D01*
X00548000Y00791232D01*
Y00787846D01*
X00548846Y00787000D01*
X00550539D01*
X00549693Y00788693D02*
X00551386Y00787000D01*
X00550539D02*
X00551386Y00787846D01*
X00564386D02*
Y00791232D01*
X00563539Y00792078D01*
X00561846D01*
X00561000Y00791232D01*
Y00787846D01*
X00561846Y00787000D01*
X00563539D01*
X00562693Y00788693D02*
X00564386Y00787000D01*
X00563539D02*
X00564386Y00787846D01*
X00575898Y00788846D02*
Y00792232D01*
X00575052Y00793078D01*
X00573359D01*
X00572513Y00792232D01*
Y00788846D01*
X00573359Y00788000D01*
X00575052D01*
X00574206Y00789693D02*
X00575898Y00788000D01*
X00575052D02*
X00575898Y00788846D01*
X00602386Y00787846D02*
Y00791232D01*
X00601539Y00792078D01*
X00599846D01*
X00599000Y00791232D01*
Y00787846D01*
X00599846Y00787000D01*
X00601539D01*
X00600693Y00788693D02*
X00602386Y00787000D01*
X00601539D02*
X00602386Y00787846D01*
X00614528D02*
Y00791232D01*
X00613681Y00792078D01*
X00611988D01*
X00611142Y00791232D01*
Y00787846D01*
X00611988Y00787000D01*
X00613681D01*
X00612835Y00788693D02*
X00614528Y00787000D01*
X00613681D02*
X00614528Y00787846D01*
X00627386Y00788146D02*
Y00791532D01*
X00626539Y00792378D01*
X00624846D01*
X00624000Y00791532D01*
Y00788146D01*
X00624846Y00787300D01*
X00626539D01*
X00625693Y00788993D02*
X00627386Y00787300D01*
X00626539D02*
X00627386Y00788146D01*
X00564386Y00737846D02*
Y00741232D01*
X00563539Y00742078D01*
X00561846D01*
X00561000Y00741232D01*
Y00737846D01*
X00561846Y00737000D01*
X00563539D01*
X00562693Y00738693D02*
X00564386Y00737000D01*
X00563539D02*
X00564386Y00737846D01*
X00513386Y00737646D02*
Y00741032D01*
X00512539Y00741878D01*
X00510846D01*
X00510000Y00741032D01*
Y00737646D01*
X00510846Y00736800D01*
X00512539D01*
X00511693Y00738493D02*
X00513386Y00736800D01*
X00512539D02*
X00513386Y00737646D01*
X00488386Y00737846D02*
Y00741232D01*
X00487539Y00742078D01*
X00485846D01*
X00485000Y00741232D01*
Y00737846D01*
X00485846Y00737000D01*
X00487539D01*
X00486693Y00738693D02*
X00488386Y00737000D01*
X00487539D02*
X00488386Y00737846D01*
X00526386D02*
Y00741232D01*
X00525539Y00742078D01*
X00523846D01*
X00523000Y00741232D01*
Y00737846D01*
X00523846Y00737000D01*
X00525539D01*
X00524693Y00738693D02*
X00526386Y00737000D01*
X00525539D02*
X00526386Y00737846D01*
X00475386Y00736846D02*
Y00740232D01*
X00474539Y00741078D01*
X00472846D01*
X00472000Y00740232D01*
Y00736846D01*
X00472846Y00736000D01*
X00474539D01*
X00473693Y00737693D02*
X00475386Y00736000D01*
X00474539D02*
X00475386Y00736846D01*
X00462363Y00737282D02*
Y00740667D01*
X00461517Y00741514D01*
X00459824D01*
X00458978Y00740667D01*
Y00737282D01*
X00459824Y00736435D01*
X00461517D01*
X00460670Y00738128D02*
X00462363Y00736435D01*
X00461517D02*
X00462363Y00737282D01*
X00437386Y00736846D02*
Y00740232D01*
X00436539Y00741078D01*
X00434846D01*
X00434000Y00740232D01*
Y00736846D01*
X00434846Y00736000D01*
X00436539D01*
X00435693Y00737693D02*
X00437386Y00736000D01*
X00436539D02*
X00437386Y00736846D01*
X00386386Y00737846D02*
Y00741232D01*
X00385539Y00742078D01*
X00383846D01*
X00383000Y00741232D01*
Y00737846D01*
X00383846Y00737000D01*
X00385539D01*
X00384693Y00738693D02*
X00386386Y00737000D01*
X00385539D02*
X00386386Y00737846D01*
X00373886D02*
Y00741232D01*
X00373039Y00742078D01*
X00371346D01*
X00370500Y00741232D01*
Y00737846D01*
X00371346Y00737000D01*
X00373039D01*
X00372193Y00738693D02*
X00373886Y00737000D01*
X00373039D02*
X00373886Y00737846D01*
X00499386Y00564846D02*
Y00568232D01*
X00498539Y00569078D01*
X00496846D01*
X00496000Y00568232D01*
Y00564846D01*
X00496846Y00564000D01*
X00498539D01*
X00497693Y00565693D02*
X00499386Y00564000D01*
X00498539D02*
X00499386Y00564846D01*
X00488386D02*
Y00568232D01*
X00487539Y00569078D01*
X00485846D01*
X00485000Y00568232D01*
Y00564846D01*
X00485846Y00564000D01*
X00487539D01*
X00486693Y00565693D02*
X00488386Y00564000D01*
X00487539D02*
X00488386Y00564846D01*
X00492386Y00582846D02*
Y00586232D01*
X00491539Y00587078D01*
X00489846D01*
X00489000Y00586232D01*
Y00582846D01*
X00489846Y00582000D01*
X00491539D01*
X00490693Y00583693D02*
X00492386Y00582000D01*
X00491539D02*
X00492386Y00582846D01*
X00477386Y00583846D02*
Y00587232D01*
X00476539Y00588078D01*
X00474846D01*
X00474000Y00587232D01*
Y00583846D01*
X00474846Y00583000D01*
X00476539D01*
X00475693Y00584693D02*
X00477386Y00583000D01*
X00476539D02*
X00477386Y00583846D01*
X00446384Y00547848D02*
Y00551233D01*
X00445538Y00552080D01*
X00443845D01*
X00442999Y00551233D01*
Y00547848D01*
X00443845Y00547001D01*
X00445538D01*
X00444691Y00548694D02*
X00446384Y00547001D01*
X00445538D02*
X00446384Y00547848D01*
X00419386Y00567846D02*
Y00571232D01*
X00418539Y00572078D01*
X00416846D01*
X00416000Y00571232D01*
Y00567846D01*
X00416846Y00567000D01*
X00418539D01*
X00417693Y00568693D02*
X00419386Y00567000D01*
X00418539D02*
X00419386Y00567846D01*
X00431386Y00519846D02*
Y00523232D01*
X00430539Y00524078D01*
X00428846D01*
X00428000Y00523232D01*
Y00519846D01*
X00428846Y00519000D01*
X00430539D01*
X00429693Y00520693D02*
X00431386Y00519000D01*
X00430539D02*
X00431386Y00519846D01*
X00442386D02*
Y00523232D01*
X00441539Y00524078D01*
X00439846D01*
X00439000Y00523232D01*
Y00519846D01*
X00439846Y00519000D01*
X00441539D01*
X00440693Y00520693D02*
X00442386Y00519000D01*
X00441539D02*
X00442386Y00519846D01*
X00472386Y00536846D02*
Y00540232D01*
X00471539Y00541078D01*
X00469846D01*
X00469000Y00540232D01*
Y00536846D01*
X00469846Y00536000D01*
X00471539D01*
X00470693Y00537693D02*
X00472386Y00536000D01*
X00471539D02*
X00472386Y00536846D01*
X00456386Y00546846D02*
Y00550232D01*
X00455539Y00551078D01*
X00453846D01*
X00453000Y00550232D01*
Y00546846D01*
X00453846Y00546000D01*
X00455539D01*
X00454693Y00547693D02*
X00456386Y00546000D01*
X00455539D02*
X00456386Y00546846D01*
X00476386Y00519846D02*
Y00523232D01*
X00475539Y00524078D01*
X00473846D01*
X00473000Y00523232D01*
Y00519846D01*
X00473846Y00519000D01*
X00475539D01*
X00474693Y00520693D02*
X00476386Y00519000D01*
X00475539D02*
X00476386Y00519846D01*
X00501386D02*
Y00523232D01*
X00500539Y00524078D01*
X00498846D01*
X00498000Y00523232D01*
Y00519846D01*
X00498846Y00519000D01*
X00500539D01*
X00499693Y00520693D02*
X00501386Y00519000D01*
X00500539D02*
X00501386Y00519846D01*
X00485386Y00536846D02*
Y00540232D01*
X00484539Y00541078D01*
X00482846D01*
X00482000Y00540232D01*
Y00536846D01*
X00482846Y00536000D01*
X00484539D01*
X00483693Y00537693D02*
X00485386Y00536000D01*
X00484539D02*
X00485386Y00536846D01*
X00535386Y00540846D02*
Y00544232D01*
X00534539Y00545078D01*
X00532846D01*
X00532000Y00544232D01*
Y00540846D01*
X00532846Y00540000D01*
X00534539D01*
X00533693Y00541693D02*
X00535386Y00540000D01*
X00534539D02*
X00535386Y00540846D01*
X00467386Y00543846D02*
Y00547232D01*
X00466539Y00548078D01*
X00464846D01*
X00464000Y00547232D01*
Y00543846D01*
X00464846Y00543000D01*
X00466539D01*
X00465693Y00544693D02*
X00467386Y00543000D01*
X00466539D02*
X00467386Y00543846D01*
X00452386Y00536846D02*
Y00540232D01*
X00451539Y00541078D01*
X00449846D01*
X00449000Y00540232D01*
Y00536846D01*
X00449846Y00536000D01*
X00451539D01*
X00450693Y00537693D02*
X00452386Y00536000D01*
X00451539D02*
X00452386Y00536846D01*
Y00519846D02*
Y00523232D01*
X00451539Y00524078D01*
X00449846D01*
X00449000Y00523232D01*
Y00519846D01*
X00449846Y00519000D01*
X00451539D01*
X00450693Y00520693D02*
X00452386Y00519000D01*
X00451539D02*
X00452386Y00519846D01*
X00589386Y00547846D02*
Y00551232D01*
X00588539Y00552078D01*
X00586846D01*
X00586000Y00551232D01*
Y00547846D01*
X00586846Y00547000D01*
X00588539D01*
X00587693Y00548693D02*
X00589386Y00547000D01*
X00588539D02*
X00589386Y00547846D01*
X00260386Y00400846D02*
Y00404232D01*
X00259539Y00405078D01*
X00257846D01*
X00257000Y00404232D01*
Y00400846D01*
X00257846Y00400000D01*
X00259539D01*
X00258693Y00401693D02*
X00260386Y00400000D01*
X00259539D02*
X00260386Y00400846D01*
X00252386D02*
Y00404232D01*
X00251539Y00405078D01*
X00249846D01*
X00249000Y00404232D01*
Y00400846D01*
X00249846Y00400000D01*
X00251539D01*
X00250693Y00401693D02*
X00252386Y00400000D01*
X00251539D02*
X00252386Y00400846D01*
X00244386D02*
Y00404232D01*
X00243539Y00405078D01*
X00241846D01*
X00241000Y00404232D01*
Y00400846D01*
X00241846Y00400000D01*
X00243539D01*
X00242693Y00401693D02*
X00244386Y00400000D01*
X00243539D02*
X00244386Y00400846D01*
X00460386Y00536846D02*
Y00540232D01*
X00459539Y00541078D01*
X00457846D01*
X00457000Y00540232D01*
Y00536846D01*
X00457846Y00536000D01*
X00459539D01*
X00458693Y00537693D02*
X00460386Y00536000D01*
X00459539D02*
X00460386Y00536846D01*
X00165386Y00195846D02*
Y00199232D01*
X00164539Y00200078D01*
X00162846D01*
X00162000Y00199232D01*
Y00195846D01*
X00162846Y00195000D01*
X00164539D01*
X00163693Y00196693D02*
X00165386Y00195000D01*
X00164539D02*
X00165386Y00195846D01*
X00105386D02*
Y00199232D01*
X00104539Y00200078D01*
X00102846D01*
X00102000Y00199232D01*
Y00195846D01*
X00102846Y00195000D01*
X00104539D01*
X00103693Y00196693D02*
X00105386Y00195000D01*
X00104539D02*
X00105386Y00195846D01*
X00135386D02*
Y00199232D01*
X00134539Y00200078D01*
X00132846D01*
X00132000Y00199232D01*
Y00195846D01*
X00132846Y00195000D01*
X00134539D01*
X00133693Y00196693D02*
X00135386Y00195000D01*
X00134539D02*
X00135386Y00195846D01*
X00462386Y00577846D02*
Y00581232D01*
X00461539Y00582078D01*
X00459846D01*
X00459000Y00581232D01*
Y00577846D01*
X00459846Y00577000D01*
X00461539D01*
X00460693Y00578693D02*
X00462386Y00577000D01*
X00461539D02*
X00462386Y00577846D01*
X00504386Y00543846D02*
Y00547232D01*
X00503539Y00548078D01*
X00501846D01*
X00501000Y00547232D01*
Y00543846D01*
X00501846Y00543000D01*
X00503539D01*
X00502693Y00544693D02*
X00504386Y00543000D01*
X00503539D02*
X00504386Y00543846D01*
X00488386Y00544846D02*
Y00548232D01*
X00487539Y00549078D01*
X00485846D01*
X00485000Y00548232D01*
Y00544846D01*
X00485846Y00544000D01*
X00487539D01*
X00486693Y00545693D02*
X00488386Y00544000D01*
X00487539D02*
X00488386Y00544846D01*
X00496385Y00544845D02*
Y00548231D01*
X00495538Y00549077D01*
X00493845D01*
X00492999Y00548231D01*
Y00544845D01*
X00493845Y00543999D01*
X00495538D01*
X00494692Y00545692D02*
X00496385Y00543999D01*
X00495538D02*
X00496385Y00544845D01*
X00430386Y00768846D02*
Y00772232D01*
X00429539Y00773078D01*
X00427846D01*
X00427000Y00772232D01*
Y00768846D01*
X00427846Y00768000D01*
X00429539D01*
X00428693Y00769693D02*
X00430386Y00768000D01*
X00429539D02*
X00430386Y00768846D01*
X00322386Y00737146D02*
Y00740532D01*
X00321539Y00741378D01*
X00319846D01*
X00319000Y00740532D01*
Y00737146D01*
X00319846Y00736300D01*
X00321539D01*
X00320693Y00737993D02*
X00322386Y00736300D01*
X00321539D02*
X00322386Y00737146D01*
X00348386Y00737846D02*
Y00741232D01*
X00347539Y00742078D01*
X00345846D01*
X00345000Y00741232D01*
Y00737846D01*
X00345846Y00737000D01*
X00347539D01*
X00346693Y00738693D02*
X00348386Y00737000D01*
X00347539D02*
X00348386Y00737846D01*
X00541386Y00802846D02*
Y00806232D01*
X00540539Y00807078D01*
X00538846D01*
X00538000Y00806232D01*
Y00802846D01*
X00538846Y00802000D01*
X00540539D01*
X00539693Y00803693D02*
X00541386Y00802000D01*
X00540539D02*
X00541386Y00802846D01*
X00438386Y00761846D02*
Y00765232D01*
X00437539Y00766078D01*
X00435846D01*
X00435000Y00765232D01*
Y00761846D01*
X00435846Y00761000D01*
X00437539D01*
X00436693Y00762693D02*
X00438386Y00761000D01*
X00437539D02*
X00438386Y00761846D01*
X00446386Y00753846D02*
Y00757232D01*
X00445539Y00758078D01*
X00443846D01*
X00443000Y00757232D01*
Y00753846D01*
X00443846Y00753000D01*
X00445539D01*
X00444693Y00754693D02*
X00446386Y00753000D01*
X00445539D02*
X00446386Y00753846D01*
X00454386D02*
Y00757232D01*
X00453539Y00758078D01*
X00451846D01*
X00451000Y00757232D01*
Y00753846D01*
X00451846Y00753000D01*
X00453539D01*
X00452693Y00754693D02*
X00454386Y00753000D01*
X00453539D02*
X00454386Y00753846D01*
X00471386Y00763846D02*
Y00767232D01*
X00470539Y00768078D01*
X00468846D01*
X00468000Y00767232D01*
Y00763846D01*
X00468846Y00763000D01*
X00470539D01*
X00469693Y00764693D02*
X00471386Y00763000D01*
X00470539D02*
X00471386Y00763846D01*
X00489386Y00754846D02*
Y00758232D01*
X00488539Y00759078D01*
X00486846D01*
X00486000Y00758232D01*
Y00754846D01*
X00486846Y00754000D01*
X00488539D01*
X00487693Y00755693D02*
X00489386Y00754000D01*
X00488539D02*
X00489386Y00754846D01*
X00481386D02*
Y00758232D01*
X00480539Y00759078D01*
X00478846D01*
X00478000Y00758232D01*
Y00754846D01*
X00478846Y00754000D01*
X00480539D01*
X00479693Y00755693D02*
X00481386Y00754000D01*
X00480539D02*
X00481386Y00754846D01*
X00524386Y00773846D02*
Y00777232D01*
X00523539Y00778078D01*
X00521846D01*
X00521000Y00777232D01*
Y00773846D01*
X00521846Y00773000D01*
X00523539D01*
X00522693Y00774693D02*
X00524386Y00773000D01*
X00523539D02*
X00524386Y00773846D01*
X00555386Y00755846D02*
Y00759232D01*
X00554539Y00760078D01*
X00552846D01*
X00552000Y00759232D01*
Y00755846D01*
X00552846Y00755000D01*
X00554539D01*
X00553693Y00756693D02*
X00555386Y00755000D01*
X00554539D02*
X00555386Y00755846D01*
X00574386Y00714846D02*
Y00718232D01*
X00573539Y00719078D01*
X00571846D01*
X00571000Y00718232D01*
Y00714846D01*
X00571846Y00714000D01*
X00573539D01*
X00572693Y00715693D02*
X00574386Y00714000D01*
X00573539D02*
X00574386Y00714846D01*
X00452386Y00705846D02*
Y00709232D01*
X00451539Y00710078D01*
X00449846D01*
X00449000Y00709232D01*
Y00705846D01*
X00449846Y00705000D01*
X00451539D01*
X00450693Y00706693D02*
X00452386Y00705000D01*
X00451539D02*
X00452386Y00705846D01*
X00414386D02*
Y00709232D01*
X00413539Y00710078D01*
X00411846D01*
X00411000Y00709232D01*
Y00705846D01*
X00411846Y00705000D01*
X00413539D01*
X00412693Y00706693D02*
X00414386Y00705000D01*
X00413539D02*
X00414386Y00705846D01*
X00375386D02*
Y00709232D01*
X00374539Y00710078D01*
X00372846D01*
X00372000Y00709232D01*
Y00705846D01*
X00372846Y00705000D01*
X00374539D01*
X00373693Y00706693D02*
X00375386Y00705000D01*
X00374539D02*
X00375386Y00705846D01*
X00332386D02*
Y00709232D01*
X00331539Y00710078D01*
X00329846D01*
X00329000Y00709232D01*
Y00705846D01*
X00329846Y00705000D01*
X00331539D01*
X00330693Y00706693D02*
X00332386Y00705000D01*
X00331539D02*
X00332386Y00705846D01*
X00299386D02*
Y00709232D01*
X00298539Y00710078D01*
X00296846D01*
X00296000Y00709232D01*
Y00705846D01*
X00296846Y00705000D01*
X00298539D01*
X00297693Y00706693D02*
X00299386Y00705000D01*
X00298539D02*
X00299386Y00705846D01*
X00585386Y00488846D02*
Y00492232D01*
X00584539Y00493078D01*
X00582846D01*
X00582000Y00492232D01*
Y00488846D01*
X00582846Y00488000D01*
X00584539D01*
X00583693Y00489693D02*
X00585386Y00488000D01*
X00584539D02*
X00585386Y00488846D01*
X00628384Y00520845D02*
Y00524231D01*
X00627538Y00525077D01*
X00625845D01*
X00624999Y00524231D01*
Y00520845D01*
X00625845Y00519999D01*
X00627538D01*
X00626692Y00521692D02*
X00628384Y00519999D01*
X00627538D02*
X00628384Y00520845D01*
X00074886Y00499846D02*
Y00503232D01*
X00074039Y00504078D01*
X00072346D01*
X00071500Y00503232D01*
Y00499846D01*
X00072346Y00499000D01*
X00074039D01*
X00073193Y00500693D02*
X00074886Y00499000D01*
X00074039D02*
X00074886Y00499846D01*
D152*
X00554532Y00005000D02*
G03*
X00554532Y00005000I-00002032J00000000D01*
G01*
X00564532D02*
G03*
X00564532Y00005000I-00002032J00000000D01*
G01*
X00574532D02*
G03*
X00574532Y00005000I-00002032J00000000D01*
G01*
X00511032Y00148000D02*
G03*
X00511032Y00148000I-00002032J00000000D01*
G01*
X00318032Y00140000D02*
G03*
X00318032Y00140000I-00002032J00000000D01*
G01*
X00458032Y00145000D02*
G03*
X00458032Y00145000I-00002032J00000000D01*
G01*
X00551032Y00128000D02*
G03*
X00551032Y00128000I-00002032J00000000D01*
G01*
X00356032Y00130000D02*
G03*
X00356032Y00130000I-00002032J00000000D01*
G01*
X00367032Y00092000D02*
G03*
X00367032Y00092000I-00002032J00000000D01*
G01*
X00300782Y00157750D02*
G03*
X00300782Y00157750I-00002032J00000000D01*
G01*
X00327282D02*
G03*
X00327282Y00157750I-00002032J00000000D01*
G01*
X00551032Y00137000D02*
G03*
X00551032Y00137000I-00002032J00000000D01*
G01*
X00337032Y00092000D02*
G03*
X00337032Y00092000I-00002032J00000000D01*
G01*
X00435032Y00155000D02*
G03*
X00435032Y00155000I-00002032J00000000D01*
G01*
X00399782Y00157750D02*
G03*
X00399782Y00157750I-00002032J00000000D01*
G01*
X00376282D02*
G03*
X00376282Y00157750I-00002032J00000000D01*
G01*
X00349782D02*
G03*
X00349782Y00157750I-00002032J00000000D01*
G01*
X00382032Y00092000D02*
G03*
X00382032Y00092000I-00002032J00000000D01*
G01*
X00397032D02*
G03*
X00397032Y00092000I-00002032J00000000D01*
G01*
X00412032D02*
G03*
X00412032Y00092000I-00002032J00000000D01*
G01*
X00497032Y00152000D02*
G03*
X00497032Y00152000I-00002032J00000000D01*
G01*
X00531032Y00102000D02*
G03*
X00531032Y00102000I-00002032J00000000D01*
G01*
X00544032Y00071000D02*
G03*
X00544032Y00071000I-00002032J00000000D01*
G01*
X00494032Y00070000D02*
G03*
X00494032Y00070000I-00002032J00000000D01*
G01*
X00009696Y00813394D02*
G03*
X00009696Y00813394I-00002032J00000000D01*
G01*
X00017283Y00824749D02*
G03*
X00017283Y00824749I-00002032J00000000D01*
G01*
X00028638Y00832336D02*
G03*
X00028638Y00832336I-00002032J00000000D01*
G01*
X00844368Y00813394D02*
G03*
X00844368Y00813394I-00002032J00000000D01*
G01*
X00836781Y00824749D02*
G03*
X00836781Y00824749I-00002032J00000000D01*
G01*
X00825426Y00832336D02*
G03*
X00825426Y00832336I-00002032J00000000D01*
G01*
X00844368Y00026606D02*
G03*
X00844368Y00026606I-00002032J00000000D01*
G01*
X00836781Y00015251D02*
G03*
X00836781Y00015251I-00002032J00000000D01*
G01*
X00825426Y00007664D02*
G03*
X00825426Y00007664I-00002032J00000000D01*
G01*
X00028638D02*
G03*
X00028638Y00007664I-00002032J00000000D01*
G01*
X00017283Y00015251D02*
G03*
X00017283Y00015251I-00002032J00000000D01*
G01*
X00009696Y00026606D02*
G03*
X00009696Y00026606I-00002032J00000000D01*
G01*
X00044532Y00005000D02*
G03*
X00044532Y00005000I-00002032J00000000D01*
G01*
X00054532D02*
G03*
X00054532Y00005000I-00002032J00000000D01*
G01*
X00064532D02*
G03*
X00064532Y00005000I-00002032J00000000D01*
G01*
X00074532D02*
G03*
X00074532Y00005000I-00002032J00000000D01*
G01*
X00084532D02*
G03*
X00084532Y00005000I-00002032J00000000D01*
G01*
X00134532D02*
G03*
X00134532Y00005000I-00002032J00000000D01*
G01*
X00124532D02*
G03*
X00124532Y00005000I-00002032J00000000D01*
G01*
X00114532D02*
G03*
X00114532Y00005000I-00002032J00000000D01*
G01*
X00104532D02*
G03*
X00104532Y00005000I-00002032J00000000D01*
G01*
X00094532D02*
G03*
X00094532Y00005000I-00002032J00000000D01*
G01*
X00184532D02*
G03*
X00184532Y00005000I-00002032J00000000D01*
G01*
X00174532D02*
G03*
X00174532Y00005000I-00002032J00000000D01*
G01*
X00164532D02*
G03*
X00164532Y00005000I-00002032J00000000D01*
G01*
X00154532D02*
G03*
X00154532Y00005000I-00002032J00000000D01*
G01*
X00144532D02*
G03*
X00144532Y00005000I-00002032J00000000D01*
G01*
X00294532D02*
G03*
X00294532Y00005000I-00002032J00000000D01*
G01*
X00304532D02*
G03*
X00304532Y00005000I-00002032J00000000D01*
G01*
X00314532D02*
G03*
X00314532Y00005000I-00002032J00000000D01*
G01*
X00324532D02*
G03*
X00324532Y00005000I-00002032J00000000D01*
G01*
X00334532D02*
G03*
X00334532Y00005000I-00002032J00000000D01*
G01*
X00244532D02*
G03*
X00244532Y00005000I-00002032J00000000D01*
G01*
X00254532D02*
G03*
X00254532Y00005000I-00002032J00000000D01*
G01*
X00264532D02*
G03*
X00264532Y00005000I-00002032J00000000D01*
G01*
X00274532D02*
G03*
X00274532Y00005000I-00002032J00000000D01*
G01*
X00284532D02*
G03*
X00284532Y00005000I-00002032J00000000D01*
G01*
X00234532D02*
G03*
X00234532Y00005000I-00002032J00000000D01*
G01*
X00224532D02*
G03*
X00224532Y00005000I-00002032J00000000D01*
G01*
X00214532D02*
G03*
X00214532Y00005000I-00002032J00000000D01*
G01*
X00204532D02*
G03*
X00204532Y00005000I-00002032J00000000D01*
G01*
X00194532D02*
G03*
X00194532Y00005000I-00002032J00000000D01*
G01*
X00444532D02*
G03*
X00444532Y00005000I-00002032J00000000D01*
G01*
X00454532D02*
G03*
X00454532Y00005000I-00002032J00000000D01*
G01*
X00464532D02*
G03*
X00464532Y00005000I-00002032J00000000D01*
G01*
X00474532D02*
G03*
X00474532Y00005000I-00002032J00000000D01*
G01*
X00484532D02*
G03*
X00484532Y00005000I-00002032J00000000D01*
G01*
X00394532D02*
G03*
X00394532Y00005000I-00002032J00000000D01*
G01*
X00404532D02*
G03*
X00404532Y00005000I-00002032J00000000D01*
G01*
X00414532D02*
G03*
X00414532Y00005000I-00002032J00000000D01*
G01*
X00424532D02*
G03*
X00424532Y00005000I-00002032J00000000D01*
G01*
X00434532D02*
G03*
X00434532Y00005000I-00002032J00000000D01*
G01*
X00384532D02*
G03*
X00384532Y00005000I-00002032J00000000D01*
G01*
X00374532D02*
G03*
X00374532Y00005000I-00002032J00000000D01*
G01*
X00364532D02*
G03*
X00364532Y00005000I-00002032J00000000D01*
G01*
X00354532D02*
G03*
X00354532Y00005000I-00002032J00000000D01*
G01*
X00344532D02*
G03*
X00344532Y00005000I-00002032J00000000D01*
G01*
X00624532D02*
G03*
X00624532Y00005000I-00002032J00000000D01*
G01*
X00634532D02*
G03*
X00634532Y00005000I-00002032J00000000D01*
G01*
X00644532D02*
G03*
X00644532Y00005000I-00002032J00000000D01*
G01*
X00654532D02*
G03*
X00654532Y00005000I-00002032J00000000D01*
G01*
X00664532D02*
G03*
X00664532Y00005000I-00002032J00000000D01*
G01*
X00544532D02*
G03*
X00544532Y00005000I-00002032J00000000D01*
G01*
X00584532D02*
G03*
X00584532Y00005000I-00002032J00000000D01*
G01*
X00594532D02*
G03*
X00594532Y00005000I-00002032J00000000D01*
G01*
X00604532D02*
G03*
X00604532Y00005000I-00002032J00000000D01*
G01*
X00614532D02*
G03*
X00614532Y00005000I-00002032J00000000D01*
G01*
X00534532D02*
G03*
X00534532Y00005000I-00002032J00000000D01*
G01*
X00524532D02*
G03*
X00524532Y00005000I-00002032J00000000D01*
G01*
X00514532D02*
G03*
X00514532Y00005000I-00002032J00000000D01*
G01*
X00504532D02*
G03*
X00504532Y00005000I-00002032J00000000D01*
G01*
X00494532D02*
G03*
X00494532Y00005000I-00002032J00000000D01*
G01*
X00744532D02*
G03*
X00744532Y00005000I-00002032J00000000D01*
G01*
X00764532D02*
G03*
X00764532Y00005000I-00002032J00000000D01*
G01*
X00774532D02*
G03*
X00774532Y00005000I-00002032J00000000D01*
G01*
X00784532D02*
G03*
X00784532Y00005000I-00002032J00000000D01*
G01*
X00724532D02*
G03*
X00724532Y00005000I-00002032J00000000D01*
G01*
X00734532D02*
G03*
X00734532Y00005000I-00002032J00000000D01*
G01*
X00754532D02*
G03*
X00754532Y00005000I-00002032J00000000D01*
G01*
X00714532D02*
G03*
X00714532Y00005000I-00002032J00000000D01*
G01*
X00704532D02*
G03*
X00704532Y00005000I-00002032J00000000D01*
G01*
X00694532D02*
G03*
X00694532Y00005000I-00002032J00000000D01*
G01*
X00684532D02*
G03*
X00684532Y00005000I-00002032J00000000D01*
G01*
X00674532D02*
G03*
X00674532Y00005000I-00002032J00000000D01*
G01*
X00814532D02*
G03*
X00814532Y00005000I-00002032J00000000D01*
G01*
X00804532D02*
G03*
X00804532Y00005000I-00002032J00000000D01*
G01*
X00794532D02*
G03*
X00794532Y00005000I-00002032J00000000D01*
G01*
X00007032Y00040000D02*
G03*
X00007032Y00040000I-00002032J00000000D01*
G01*
Y00800000D02*
G03*
X00007032Y00800000I-00002032J00000000D01*
G01*
X00847032Y00790000D02*
G03*
X00847032Y00790000I-00002032J00000000D01*
G01*
Y00640000D02*
G03*
X00847032Y00640000I-00002032J00000000D01*
G01*
Y00650000D02*
G03*
X00847032Y00650000I-00002032J00000000D01*
G01*
Y00660000D02*
G03*
X00847032Y00660000I-00002032J00000000D01*
G01*
Y00670000D02*
G03*
X00847032Y00670000I-00002032J00000000D01*
G01*
Y00680000D02*
G03*
X00847032Y00680000I-00002032J00000000D01*
G01*
Y00730000D02*
G03*
X00847032Y00730000I-00002032J00000000D01*
G01*
Y00720000D02*
G03*
X00847032Y00720000I-00002032J00000000D01*
G01*
Y00710000D02*
G03*
X00847032Y00710000I-00002032J00000000D01*
G01*
Y00700000D02*
G03*
X00847032Y00700000I-00002032J00000000D01*
G01*
Y00690000D02*
G03*
X00847032Y00690000I-00002032J00000000D01*
G01*
Y00780000D02*
G03*
X00847032Y00780000I-00002032J00000000D01*
G01*
Y00770000D02*
G03*
X00847032Y00770000I-00002032J00000000D01*
G01*
Y00760000D02*
G03*
X00847032Y00760000I-00002032J00000000D01*
G01*
Y00750000D02*
G03*
X00847032Y00750000I-00002032J00000000D01*
G01*
Y00740000D02*
G03*
X00847032Y00740000I-00002032J00000000D01*
G01*
Y00490000D02*
G03*
X00847032Y00490000I-00002032J00000000D01*
G01*
Y00500000D02*
G03*
X00847032Y00500000I-00002032J00000000D01*
G01*
Y00510000D02*
G03*
X00847032Y00510000I-00002032J00000000D01*
G01*
Y00520000D02*
G03*
X00847032Y00520000I-00002032J00000000D01*
G01*
Y00530000D02*
G03*
X00847032Y00530000I-00002032J00000000D01*
G01*
Y00580000D02*
G03*
X00847032Y00580000I-00002032J00000000D01*
G01*
Y00570000D02*
G03*
X00847032Y00570000I-00002032J00000000D01*
G01*
Y00560000D02*
G03*
X00847032Y00560000I-00002032J00000000D01*
G01*
Y00550000D02*
G03*
X00847032Y00550000I-00002032J00000000D01*
G01*
Y00540000D02*
G03*
X00847032Y00540000I-00002032J00000000D01*
G01*
Y00630000D02*
G03*
X00847032Y00630000I-00002032J00000000D01*
G01*
Y00620000D02*
G03*
X00847032Y00620000I-00002032J00000000D01*
G01*
Y00610000D02*
G03*
X00847032Y00610000I-00002032J00000000D01*
G01*
Y00600000D02*
G03*
X00847032Y00600000I-00002032J00000000D01*
G01*
Y00590000D02*
G03*
X00847032Y00590000I-00002032J00000000D01*
G01*
Y00340000D02*
G03*
X00847032Y00340000I-00002032J00000000D01*
G01*
Y00350000D02*
G03*
X00847032Y00350000I-00002032J00000000D01*
G01*
Y00360000D02*
G03*
X00847032Y00360000I-00002032J00000000D01*
G01*
Y00370000D02*
G03*
X00847032Y00370000I-00002032J00000000D01*
G01*
Y00380000D02*
G03*
X00847032Y00380000I-00002032J00000000D01*
G01*
Y00430000D02*
G03*
X00847032Y00430000I-00002032J00000000D01*
G01*
Y00420000D02*
G03*
X00847032Y00420000I-00002032J00000000D01*
G01*
Y00410000D02*
G03*
X00847032Y00410000I-00002032J00000000D01*
G01*
Y00400000D02*
G03*
X00847032Y00400000I-00002032J00000000D01*
G01*
Y00390000D02*
G03*
X00847032Y00390000I-00002032J00000000D01*
G01*
Y00480000D02*
G03*
X00847032Y00480000I-00002032J00000000D01*
G01*
Y00470000D02*
G03*
X00847032Y00470000I-00002032J00000000D01*
G01*
Y00460000D02*
G03*
X00847032Y00460000I-00002032J00000000D01*
G01*
Y00450000D02*
G03*
X00847032Y00450000I-00002032J00000000D01*
G01*
Y00440000D02*
G03*
X00847032Y00440000I-00002032J00000000D01*
G01*
Y00190000D02*
G03*
X00847032Y00190000I-00002032J00000000D01*
G01*
Y00200000D02*
G03*
X00847032Y00200000I-00002032J00000000D01*
G01*
Y00210000D02*
G03*
X00847032Y00210000I-00002032J00000000D01*
G01*
Y00220000D02*
G03*
X00847032Y00220000I-00002032J00000000D01*
G01*
Y00230000D02*
G03*
X00847032Y00230000I-00002032J00000000D01*
G01*
Y00280000D02*
G03*
X00847032Y00280000I-00002032J00000000D01*
G01*
Y00270000D02*
G03*
X00847032Y00270000I-00002032J00000000D01*
G01*
Y00260000D02*
G03*
X00847032Y00260000I-00002032J00000000D01*
G01*
Y00250000D02*
G03*
X00847032Y00250000I-00002032J00000000D01*
G01*
Y00240000D02*
G03*
X00847032Y00240000I-00002032J00000000D01*
G01*
Y00330000D02*
G03*
X00847032Y00330000I-00002032J00000000D01*
G01*
Y00320000D02*
G03*
X00847032Y00320000I-00002032J00000000D01*
G01*
Y00310000D02*
G03*
X00847032Y00310000I-00002032J00000000D01*
G01*
Y00300000D02*
G03*
X00847032Y00300000I-00002032J00000000D01*
G01*
Y00290000D02*
G03*
X00847032Y00290000I-00002032J00000000D01*
G01*
Y00040000D02*
G03*
X00847032Y00040000I-00002032J00000000D01*
G01*
Y00050000D02*
G03*
X00847032Y00050000I-00002032J00000000D01*
G01*
Y00060000D02*
G03*
X00847032Y00060000I-00002032J00000000D01*
G01*
Y00070000D02*
G03*
X00847032Y00070000I-00002032J00000000D01*
G01*
Y00080000D02*
G03*
X00847032Y00080000I-00002032J00000000D01*
G01*
Y00130000D02*
G03*
X00847032Y00130000I-00002032J00000000D01*
G01*
Y00120000D02*
G03*
X00847032Y00120000I-00002032J00000000D01*
G01*
Y00110000D02*
G03*
X00847032Y00110000I-00002032J00000000D01*
G01*
Y00100000D02*
G03*
X00847032Y00100000I-00002032J00000000D01*
G01*
Y00090000D02*
G03*
X00847032Y00090000I-00002032J00000000D01*
G01*
Y00180000D02*
G03*
X00847032Y00180000I-00002032J00000000D01*
G01*
Y00170000D02*
G03*
X00847032Y00170000I-00002032J00000000D01*
G01*
Y00160000D02*
G03*
X00847032Y00160000I-00002032J00000000D01*
G01*
Y00150000D02*
G03*
X00847032Y00150000I-00002032J00000000D01*
G01*
Y00140000D02*
G03*
X00847032Y00140000I-00002032J00000000D01*
G01*
X00794532Y00835000D02*
G03*
X00794532Y00835000I-00002032J00000000D01*
G01*
X00804532Y00835000D02*
G03*
X00804532Y00835000I-00002032J00000000D01*
G01*
X00814532Y00835000D02*
G03*
X00814532Y00835000I-00002032J00000000D01*
G01*
X00644532D02*
G03*
X00644532Y00835000I-00002032J00000000D01*
G01*
X00654532D02*
G03*
X00654532Y00835000I-00002032J00000000D01*
G01*
X00664532Y00835000D02*
G03*
X00664532Y00835000I-00002032J00000000D01*
G01*
X00674532D02*
G03*
X00674532Y00835000I-00002032J00000000D01*
G01*
X00684532Y00835000D02*
G03*
X00684532Y00835000I-00002032J00000000D01*
G01*
X00734532D02*
G03*
X00734532Y00835000I-00002032J00000000D01*
G01*
X00724532D02*
G03*
X00724532Y00835000I-00002032J00000000D01*
G01*
X00714532D02*
G03*
X00714532Y00835000I-00002032J00000000D01*
G01*
X00704532D02*
G03*
X00704532Y00835000I-00002032J00000000D01*
G01*
X00694532D02*
G03*
X00694532Y00835000I-00002032J00000000D01*
G01*
X00784532D02*
G03*
X00784532Y00835000I-00002032J00000000D01*
G01*
X00774532Y00835000D02*
G03*
X00774532Y00835000I-00002032J00000000D01*
G01*
X00764532D02*
G03*
X00764532Y00835000I-00002032J00000000D01*
G01*
X00754532Y00835000D02*
G03*
X00754532Y00835000I-00002032J00000000D01*
G01*
X00744532D02*
G03*
X00744532Y00835000I-00002032J00000000D01*
G01*
X00494532D02*
G03*
X00494532Y00835000I-00002032J00000000D01*
G01*
X00504532D02*
G03*
X00504532Y00835000I-00002032J00000000D01*
G01*
X00514532D02*
G03*
X00514532Y00835000I-00002032J00000000D01*
G01*
X00524532D02*
G03*
X00524532Y00835000I-00002032J00000000D01*
G01*
X00534532Y00835000D02*
G03*
X00534532Y00835000I-00002032J00000000D01*
G01*
X00584532Y00835000D02*
G03*
X00584532Y00835000I-00002032J00000000D01*
G01*
X00574532D02*
G03*
X00574532Y00835000I-00002032J00000000D01*
G01*
X00564532Y00835000D02*
G03*
X00564532Y00835000I-00002032J00000000D01*
G01*
X00554532Y00835000D02*
G03*
X00554532Y00835000I-00002032J00000000D01*
G01*
X00544532D02*
G03*
X00544532Y00835000I-00002032J00000000D01*
G01*
X00634532Y00835000D02*
G03*
X00634532Y00835000I-00002032J00000000D01*
G01*
X00624532Y00835000D02*
G03*
X00624532Y00835000I-00002032J00000000D01*
G01*
X00614532D02*
G03*
X00614532Y00835000I-00002032J00000000D01*
G01*
X00604532D02*
G03*
X00604532Y00835000I-00002032J00000000D01*
G01*
X00594532D02*
G03*
X00594532Y00835000I-00002032J00000000D01*
G01*
X00344532D02*
G03*
X00344532Y00835000I-00002032J00000000D01*
G01*
X00354532D02*
G03*
X00354532Y00835000I-00002032J00000000D01*
G01*
X00364532D02*
G03*
X00364532Y00835000I-00002032J00000000D01*
G01*
X00374532D02*
G03*
X00374532Y00835000I-00002032J00000000D01*
G01*
X00384532D02*
G03*
X00384532Y00835000I-00002032J00000000D01*
G01*
X00434532Y00835000D02*
G03*
X00434532Y00835000I-00002032J00000000D01*
G01*
X00424532Y00835000D02*
G03*
X00424532Y00835000I-00002032J00000000D01*
G01*
X00414532D02*
G03*
X00414532Y00835000I-00002032J00000000D01*
G01*
X00404532D02*
G03*
X00404532Y00835000I-00002032J00000000D01*
G01*
X00394532Y00835000D02*
G03*
X00394532Y00835000I-00002032J00000000D01*
G01*
X00484532Y00835000D02*
G03*
X00484532Y00835000I-00002032J00000000D01*
G01*
X00474532D02*
G03*
X00474532Y00835000I-00002032J00000000D01*
G01*
X00464532D02*
G03*
X00464532Y00835000I-00002032J00000000D01*
G01*
X00454532D02*
G03*
X00454532Y00835000I-00002032J00000000D01*
G01*
X00444532D02*
G03*
X00444532Y00835000I-00002032J00000000D01*
G01*
X00194532Y00835000D02*
G03*
X00194532Y00835000I-00002032J00000000D01*
G01*
X00204532Y00835000D02*
G03*
X00204532Y00835000I-00002032J00000000D01*
G01*
X00214532D02*
G03*
X00214532Y00835000I-00002032J00000000D01*
G01*
X00224532D02*
G03*
X00224532Y00835000I-00002032J00000000D01*
G01*
X00234532D02*
G03*
X00234532Y00835000I-00002032J00000000D01*
G01*
X00284532D02*
G03*
X00284532Y00835000I-00002032J00000000D01*
G01*
X00274532D02*
G03*
X00274532Y00835000I-00002032J00000000D01*
G01*
X00264532D02*
G03*
X00264532Y00835000I-00002032J00000000D01*
G01*
X00254532D02*
G03*
X00254532Y00835000I-00002032J00000000D01*
G01*
X00244532D02*
G03*
X00244532Y00835000I-00002032J00000000D01*
G01*
X00334532Y00835000D02*
G03*
X00334532Y00835000I-00002032J00000000D01*
G01*
X00324532Y00835000D02*
G03*
X00324532Y00835000I-00002032J00000000D01*
G01*
X00314532D02*
G03*
X00314532Y00835000I-00002032J00000000D01*
G01*
X00304532D02*
G03*
X00304532Y00835000I-00002032J00000000D01*
G01*
X00294532Y00835000D02*
G03*
X00294532Y00835000I-00002032J00000000D01*
G01*
X00144532Y00835000D02*
G03*
X00144532Y00835000I-00002032J00000000D01*
G01*
X00154532D02*
G03*
X00154532Y00835000I-00002032J00000000D01*
G01*
X00164532D02*
G03*
X00164532Y00835000I-00002032J00000000D01*
G01*
X00174532D02*
G03*
X00174532Y00835000I-00002032J00000000D01*
G01*
X00184532D02*
G03*
X00184532Y00835000I-00002032J00000000D01*
G01*
X00094532Y00835000D02*
G03*
X00094532Y00835000I-00002032J00000000D01*
G01*
X00104532Y00835000D02*
G03*
X00104532Y00835000I-00002032J00000000D01*
G01*
X00114532D02*
G03*
X00114532Y00835000I-00002032J00000000D01*
G01*
X00124532D02*
G03*
X00124532Y00835000I-00002032J00000000D01*
G01*
X00134532D02*
G03*
X00134532Y00835000I-00002032J00000000D01*
G01*
X00084532D02*
G03*
X00084532Y00835000I-00002032J00000000D01*
G01*
X00074532D02*
G03*
X00074532Y00835000I-00002032J00000000D01*
G01*
X00064532D02*
G03*
X00064532Y00835000I-00002032J00000000D01*
G01*
X00054532Y00835000D02*
G03*
X00054532Y00835000I-00002032J00000000D01*
G01*
X00044532Y00835000D02*
G03*
X00044532Y00835000I-00002032J00000000D01*
G01*
X00007032Y00790000D02*
G03*
X00007032Y00790000I-00002032J00000000D01*
G01*
Y00780000D02*
G03*
X00007032Y00780000I-00002032J00000000D01*
G01*
Y00770000D02*
G03*
X00007032Y00770000I-00002032J00000000D01*
G01*
Y00760000D02*
G03*
X00007032Y00760000I-00002032J00000000D01*
G01*
Y00750000D02*
G03*
X00007032Y00750000I-00002032J00000000D01*
G01*
Y00740000D02*
G03*
X00007032Y00740000I-00002032J00000000D01*
G01*
Y00730000D02*
G03*
X00007032Y00730000I-00002032J00000000D01*
G01*
Y00720000D02*
G03*
X00007032Y00720000I-00002032J00000000D01*
G01*
Y00710000D02*
G03*
X00007032Y00710000I-00002032J00000000D01*
G01*
Y00700000D02*
G03*
X00007032Y00700000I-00002032J00000000D01*
G01*
Y00690000D02*
G03*
X00007032Y00690000I-00002032J00000000D01*
G01*
Y00680000D02*
G03*
X00007032Y00680000I-00002032J00000000D01*
G01*
Y00670000D02*
G03*
X00007032Y00670000I-00002032J00000000D01*
G01*
Y00660000D02*
G03*
X00007032Y00660000I-00002032J00000000D01*
G01*
Y00650000D02*
G03*
X00007032Y00650000I-00002032J00000000D01*
G01*
Y00640000D02*
G03*
X00007032Y00640000I-00002032J00000000D01*
G01*
Y00630000D02*
G03*
X00007032Y00630000I-00002032J00000000D01*
G01*
Y00620000D02*
G03*
X00007032Y00620000I-00002032J00000000D01*
G01*
Y00610000D02*
G03*
X00007032Y00610000I-00002032J00000000D01*
G01*
Y00600000D02*
G03*
X00007032Y00600000I-00002032J00000000D01*
G01*
Y00590000D02*
G03*
X00007032Y00590000I-00002032J00000000D01*
G01*
Y00580000D02*
G03*
X00007032Y00580000I-00002032J00000000D01*
G01*
Y00570000D02*
G03*
X00007032Y00570000I-00002032J00000000D01*
G01*
Y00560000D02*
G03*
X00007032Y00560000I-00002032J00000000D01*
G01*
Y00550000D02*
G03*
X00007032Y00550000I-00002032J00000000D01*
G01*
Y00540000D02*
G03*
X00007032Y00540000I-00002032J00000000D01*
G01*
Y00530000D02*
G03*
X00007032Y00530000I-00002032J00000000D01*
G01*
Y00520000D02*
G03*
X00007032Y00520000I-00002032J00000000D01*
G01*
Y00510000D02*
G03*
X00007032Y00510000I-00002032J00000000D01*
G01*
Y00500000D02*
G03*
X00007032Y00500000I-00002032J00000000D01*
G01*
Y00490000D02*
G03*
X00007032Y00490000I-00002032J00000000D01*
G01*
Y00480000D02*
G03*
X00007032Y00480000I-00002032J00000000D01*
G01*
Y00470000D02*
G03*
X00007032Y00470000I-00002032J00000000D01*
G01*
Y00460000D02*
G03*
X00007032Y00460000I-00002032J00000000D01*
G01*
Y00450000D02*
G03*
X00007032Y00450000I-00002032J00000000D01*
G01*
Y00440000D02*
G03*
X00007032Y00440000I-00002032J00000000D01*
G01*
Y00430000D02*
G03*
X00007032Y00430000I-00002032J00000000D01*
G01*
Y00420000D02*
G03*
X00007032Y00420000I-00002032J00000000D01*
G01*
Y00410000D02*
G03*
X00007032Y00410000I-00002032J00000000D01*
G01*
Y00400000D02*
G03*
X00007032Y00400000I-00002032J00000000D01*
G01*
Y00390000D02*
G03*
X00007032Y00390000I-00002032J00000000D01*
G01*
Y00380000D02*
G03*
X00007032Y00380000I-00002032J00000000D01*
G01*
Y00370000D02*
G03*
X00007032Y00370000I-00002032J00000000D01*
G01*
Y00360000D02*
G03*
X00007032Y00360000I-00002032J00000000D01*
G01*
Y00350000D02*
G03*
X00007032Y00350000I-00002032J00000000D01*
G01*
Y00340000D02*
G03*
X00007032Y00340000I-00002032J00000000D01*
G01*
Y00330000D02*
G03*
X00007032Y00330000I-00002032J00000000D01*
G01*
Y00320000D02*
G03*
X00007032Y00320000I-00002032J00000000D01*
G01*
Y00310000D02*
G03*
X00007032Y00310000I-00002032J00000000D01*
G01*
Y00300000D02*
G03*
X00007032Y00300000I-00002032J00000000D01*
G01*
Y00290000D02*
G03*
X00007032Y00290000I-00002032J00000000D01*
G01*
Y00280000D02*
G03*
X00007032Y00280000I-00002032J00000000D01*
G01*
Y00270000D02*
G03*
X00007032Y00270000I-00002032J00000000D01*
G01*
Y00260000D02*
G03*
X00007032Y00260000I-00002032J00000000D01*
G01*
Y00250000D02*
G03*
X00007032Y00250000I-00002032J00000000D01*
G01*
Y00240000D02*
G03*
X00007032Y00240000I-00002032J00000000D01*
G01*
Y00230000D02*
G03*
X00007032Y00230000I-00002032J00000000D01*
G01*
Y00220000D02*
G03*
X00007032Y00220000I-00002032J00000000D01*
G01*
Y00210000D02*
G03*
X00007032Y00210000I-00002032J00000000D01*
G01*
Y00200000D02*
G03*
X00007032Y00200000I-00002032J00000000D01*
G01*
Y00190000D02*
G03*
X00007032Y00190000I-00002032J00000000D01*
G01*
Y00180000D02*
G03*
X00007032Y00180000I-00002032J00000000D01*
G01*
Y00170000D02*
G03*
X00007032Y00170000I-00002032J00000000D01*
G01*
Y00160000D02*
G03*
X00007032Y00160000I-00002032J00000000D01*
G01*
Y00150000D02*
G03*
X00007032Y00150000I-00002032J00000000D01*
G01*
Y00140000D02*
G03*
X00007032Y00140000I-00002032J00000000D01*
G01*
Y00130000D02*
G03*
X00007032Y00130000I-00002032J00000000D01*
G01*
Y00120000D02*
G03*
X00007032Y00120000I-00002032J00000000D01*
G01*
Y00110000D02*
G03*
X00007032Y00110000I-00002032J00000000D01*
G01*
Y00100000D02*
G03*
X00007032Y00100000I-00002032J00000000D01*
G01*
Y00090000D02*
G03*
X00007032Y00090000I-00002032J00000000D01*
G01*
Y00080000D02*
G03*
X00007032Y00080000I-00002032J00000000D01*
G01*
Y00070000D02*
G03*
X00007032Y00070000I-00002032J00000000D01*
G01*
Y00060000D02*
G03*
X00007032Y00060000I-00002032J00000000D01*
G01*
Y00050000D02*
G03*
X00007032Y00050000I-00002032J00000000D01*
G01*
X00847032Y00800000D02*
G03*
X00847032Y00800000I-00002032J00000000D01*
G01*
M02*
