G04*
G04 #@! TF.GenerationSoftware,Altium Limited,Altium Designer,22.10.1 (41)*
G04*
G04 Layer_Color=16711935*
%FSAX44Y44*%
%MOMM*%
G71*
G04*
G04 #@! TF.SameCoordinates,19A9066D-69EC-4412-BDAA-CEE194C5A0F3*
G04*
G04*
G04 #@! TF.FilePolarity,Negative*
G04*
G01*
G75*
%ADD42R,1.5000X1.2000*%
%ADD59R,0.7000X0.6500*%
%ADD81C,0.9000*%
%ADD86O,1.3000X2.2500*%
%ADD87R,0.1000X0.1000*%
%ADD88O,1.6000X3.2000*%
%ADD89O,1.6000X2.4000*%
%ADD90O,1.7032X2.5032*%
%ADD91C,1.1000*%
%ADD92C,1.6000*%
%ADD93C,1.5000*%
%ADD94C,2.9000*%
%ADD95C,3.3000*%
%ADD96C,2.1000*%
%ADD97R,2.1000X2.1000*%
%ADD98C,6.1000*%
%ADD99O,2.3000X4.1000*%
%ADD100O,2.1000X4.6000*%
%ADD101O,4.1000X2.1000*%
%ADD102C,3.9000*%
%ADD103C,1.6240*%
%ADD104C,0.7000*%
%ADD140R,1.5000X0.5500*%
%ADD141R,0.5500X1.5000*%
%ADD142R,1.8000X2.4000*%
%ADD143C,0.7400*%
%ADD144R,0.3000X0.3000*%
%ADD145R,0.3000X0.3000*%
%ADD146R,1.1000X1.7000*%
D42*
X00102000Y00223750D02*
D03*
Y00206250D02*
D03*
X00132000Y00223750D02*
D03*
Y00206250D02*
D03*
X00162000Y00222750D02*
D03*
Y00205250D02*
D03*
X00192000Y00223750D02*
D03*
Y00206250D02*
D03*
D59*
X00037750Y00153000D02*
D03*
X00046250D02*
D03*
X00037500Y00142500D02*
D03*
X00046000D02*
D03*
D81*
X00489000Y00582000D02*
D03*
X00435000Y00539756D02*
D03*
X00412000Y00547000D02*
D03*
X00428000Y00570000D02*
D03*
X00411000Y00532000D02*
D03*
X00594000Y00485000D02*
D03*
X00592500Y00500000D02*
D03*
X00585500Y00509000D02*
D03*
X00337000Y00495000D02*
D03*
D86*
X00553250Y00025000D02*
D03*
X00496750D02*
D03*
D87*
X00545000Y00048000D02*
D03*
X00505000D02*
D03*
X00187100Y00762000D02*
D03*
X00730900Y00731500D02*
D03*
D88*
X00442500Y00101800D02*
D03*
X00297500D02*
D03*
D89*
X00297500Y00042200D02*
D03*
D90*
X00442500D02*
D03*
D91*
X00785000Y00340500D02*
D03*
Y00420500D02*
D03*
D92*
X00107300Y00143700D02*
D03*
X00198700D02*
D03*
X00084400D02*
D03*
X00221600D02*
D03*
D93*
X00117300Y00095700D02*
D03*
X00127500Y00077900D02*
D03*
X00137700Y00095700D02*
D03*
X00147900Y00077900D02*
D03*
X00158100Y00095700D02*
D03*
X00168300Y00077900D02*
D03*
X00178500Y00095700D02*
D03*
X00188700Y00077900D02*
D03*
D94*
X00235000Y00088100D02*
D03*
X00071000D02*
D03*
D95*
X00216500Y00052500D02*
D03*
X00089500D02*
D03*
D96*
X00807645Y00107500D02*
D03*
Y00132900D02*
D03*
X00782245D02*
D03*
D97*
Y00107500D02*
D03*
D98*
X00310000Y00537000D02*
D03*
X00790000D02*
D03*
Y00207000D02*
D03*
X00310000D02*
D03*
X00139000Y00740000D02*
D03*
X00769000D02*
D03*
D99*
X00077000Y00585000D02*
D03*
D100*
X00137000D02*
D03*
D101*
X00107000Y00538000D02*
D03*
D102*
X00740700Y00102000D02*
D03*
X00609300D02*
D03*
D103*
X00710000Y00129100D02*
D03*
X00685000D02*
D03*
X00665000D02*
D03*
X00640000D02*
D03*
D104*
X00563000Y00535500D02*
D03*
D140*
X00302001Y00483000D02*
D03*
X00302500Y00494002D02*
D03*
D141*
X00414000Y00443001D02*
D03*
X00427001Y00444002D02*
D03*
D142*
X00108000Y00607000D02*
D03*
Y00565000D02*
D03*
D143*
X00325650Y00793750D02*
D03*
X00376450D02*
D03*
X00706650Y00730250D02*
D03*
X00706650Y00742950D02*
D03*
Y00781050D02*
D03*
X00706650Y00793750D02*
D03*
X00693950Y00730250D02*
D03*
Y00742950D02*
D03*
Y00781050D02*
D03*
Y00793750D02*
D03*
X00681250Y00730250D02*
D03*
Y00742950D02*
D03*
Y00781050D02*
D03*
Y00793750D02*
D03*
X00668550Y00730250D02*
D03*
X00668550Y00742950D02*
D03*
Y00781050D02*
D03*
X00668550Y00793750D02*
D03*
X00655850Y00730250D02*
D03*
Y00742950D02*
D03*
Y00781050D02*
D03*
Y00793750D02*
D03*
X00643150Y00730250D02*
D03*
Y00742950D02*
D03*
Y00781050D02*
D03*
Y00793750D02*
D03*
X00630450Y00730250D02*
D03*
Y00742950D02*
D03*
Y00781050D02*
D03*
Y00793750D02*
D03*
X00617750Y00730250D02*
D03*
X00617750Y00742950D02*
D03*
Y00781050D02*
D03*
X00617750Y00793750D02*
D03*
X00605050Y00730250D02*
D03*
Y00742950D02*
D03*
Y00781050D02*
D03*
Y00793750D02*
D03*
X00592350Y00730250D02*
D03*
X00592350Y00742950D02*
D03*
Y00781050D02*
D03*
X00592350Y00793750D02*
D03*
X00579650Y00730250D02*
D03*
Y00742950D02*
D03*
Y00781050D02*
D03*
Y00793750D02*
D03*
X00566950Y00730250D02*
D03*
Y00742950D02*
D03*
Y00781050D02*
D03*
Y00793750D02*
D03*
X00554250Y00730250D02*
D03*
Y00742950D02*
D03*
Y00781050D02*
D03*
Y00793750D02*
D03*
X00541550Y00730250D02*
D03*
X00541550Y00742950D02*
D03*
Y00781050D02*
D03*
X00541550Y00793750D02*
D03*
X00528850Y00730250D02*
D03*
Y00742950D02*
D03*
Y00781050D02*
D03*
Y00793750D02*
D03*
X00516150Y00730250D02*
D03*
Y00742950D02*
D03*
Y00781050D02*
D03*
Y00793750D02*
D03*
X00503450Y00730250D02*
D03*
X00503450Y00742950D02*
D03*
Y00781050D02*
D03*
X00503450Y00793750D02*
D03*
X00490750Y00730250D02*
D03*
Y00742950D02*
D03*
Y00781050D02*
D03*
Y00793750D02*
D03*
X00478050Y00730250D02*
D03*
X00478050Y00742950D02*
D03*
Y00781050D02*
D03*
X00478050Y00793750D02*
D03*
X00465350Y00730250D02*
D03*
Y00742950D02*
D03*
Y00781050D02*
D03*
Y00793750D02*
D03*
X00452650Y00730250D02*
D03*
Y00742950D02*
D03*
Y00781050D02*
D03*
Y00793750D02*
D03*
X00439950Y00730250D02*
D03*
X00439950Y00742950D02*
D03*
Y00781050D02*
D03*
X00439950Y00793750D02*
D03*
X00427250Y00730250D02*
D03*
Y00742950D02*
D03*
Y00781050D02*
D03*
Y00793750D02*
D03*
X00414550Y00730250D02*
D03*
X00414550Y00742950D02*
D03*
Y00781050D02*
D03*
X00414550Y00793750D02*
D03*
X00401850Y00730250D02*
D03*
Y00742950D02*
D03*
Y00781050D02*
D03*
Y00793750D02*
D03*
X00389150Y00730250D02*
D03*
Y00742950D02*
D03*
Y00781050D02*
D03*
Y00793750D02*
D03*
X00376450Y00730250D02*
D03*
X00376450Y00742950D02*
D03*
Y00781050D02*
D03*
X00363750Y00730250D02*
D03*
Y00742950D02*
D03*
Y00781050D02*
D03*
Y00793750D02*
D03*
X00351050Y00730250D02*
D03*
Y00742950D02*
D03*
Y00781050D02*
D03*
Y00793750D02*
D03*
X00338350Y00730250D02*
D03*
Y00742950D02*
D03*
Y00781050D02*
D03*
Y00793750D02*
D03*
X00325650Y00730250D02*
D03*
X00325650Y00742950D02*
D03*
Y00781050D02*
D03*
X00312950Y00730250D02*
D03*
Y00742950D02*
D03*
Y00781050D02*
D03*
Y00793750D02*
D03*
X00300250Y00730250D02*
D03*
X00300250Y00742950D02*
D03*
Y00781050D02*
D03*
X00300250Y00793750D02*
D03*
X00287550Y00730250D02*
D03*
Y00742950D02*
D03*
Y00781050D02*
D03*
Y00793750D02*
D03*
X00274850Y00730250D02*
D03*
Y00742950D02*
D03*
Y00781050D02*
D03*
Y00793750D02*
D03*
X00262150Y00730250D02*
D03*
Y00742950D02*
D03*
Y00781050D02*
D03*
Y00793750D02*
D03*
X00249450Y00730250D02*
D03*
X00249450Y00742950D02*
D03*
Y00781050D02*
D03*
X00249450Y00793750D02*
D03*
X00236750Y00730250D02*
D03*
Y00742950D02*
D03*
Y00781050D02*
D03*
Y00793750D02*
D03*
X00224050Y00730250D02*
D03*
Y00742950D02*
D03*
Y00781050D02*
D03*
Y00793750D02*
D03*
X00211350Y00730250D02*
D03*
X00211350Y00742950D02*
D03*
Y00781050D02*
D03*
X00211350Y00793750D02*
D03*
D144*
X00308500Y00483000D02*
D03*
X00295500D02*
D03*
X00309000Y00494000D02*
D03*
X00296000D02*
D03*
D145*
X00414000Y00436500D02*
D03*
Y00449500D02*
D03*
X00427000Y00437500D02*
D03*
Y00450500D02*
D03*
D146*
X00084000Y00221000D02*
D03*
X00054000D02*
D03*
M02*
