G04*
G04 #@! TF.GenerationSoftware,Altium Limited,Altium Designer,22.10.1 (41)*
G04*
G04 Layer_Physical_Order=1*
G04 Layer_Color=255*
%FSAX44Y44*%
%MOMM*%
G71*
G04*
G04 #@! TF.SameCoordinates,19A9066D-69EC-4412-BDAA-CEE194C5A0F3*
G04*
G04*
G04 #@! TF.FilePolarity,Positive*
G04*
G01*
G75*
%ADD10C,0.2000*%
%ADD11C,0.2500*%
%ADD12C,0.5000*%
%ADD22R,0.5000X0.6000*%
%ADD23R,0.2000X0.7000*%
%ADD24R,0.4000X0.8000*%
%ADD25R,0.8000X0.4000*%
G04:AMPARAMS|DCode=27|XSize=1.5376mm|YSize=0.2525mm|CornerRadius=0.1262mm|HoleSize=0mm|Usage=FLASHONLY|Rotation=270.000|XOffset=0mm|YOffset=0mm|HoleType=Round|Shape=RoundedRectangle|*
%AMROUNDEDRECTD27*
21,1,1.5376,0.0000,0,0,270.0*
21,1,1.2851,0.2525,0,0,270.0*
1,1,0.2525,0.0000,-0.6425*
1,1,0.2525,0.0000,0.6425*
1,1,0.2525,0.0000,0.6425*
1,1,0.2525,0.0000,-0.6425*
%
%ADD27ROUNDEDRECTD27*%
%ADD28R,0.2525X1.5376*%
%ADD29R,1.2000X1.0000*%
%ADD30R,0.4000X2.1000*%
%ADD31R,1.9000X1.9000*%
%ADD32R,0.3000X2.6000*%
%ADD33R,0.4800X0.3800*%
%ADD35R,0.5500X0.6000*%
%ADD36R,0.6000X0.5000*%
%ADD37R,0.6400X1.7800*%
%ADD38R,0.6000X0.5500*%
%ADD39R,0.5500X0.8000*%
%ADD40R,1.6000X0.7000*%
%ADD41R,2.2000X1.2000*%
%ADD42R,1.5000X1.2000*%
%ADD43R,1.5000X1.6000*%
%ADD44R,1.1000X0.5500*%
%ADD45R,2.8000X1.4000*%
%ADD46R,0.8000X0.7500*%
%ADD47R,0.2500X0.3500*%
%ADD48R,3.0000X1.6000*%
%ADD49R,0.7500X0.8000*%
%ADD50R,3.2500X5.0000*%
%ADD51R,1.0000X1.2500*%
%ADD52R,0.8000X0.2800*%
%ADD53R,0.2800X0.8000*%
%ADD93C,1.5000*%
%ADD105C,0.6000*%
%ADD106C,0.1500*%
%ADD107R,1.6000X1.2000*%
%ADD108C,0.8000*%
%ADD109R,2.0500X2.0500*%
%ADD110C,0.4000*%
%ADD111C,0.1270*%
%ADD112C,0.3000*%
%ADD113C,0.1460*%
%ADD114C,0.1550*%
%ADD115R,4.2000X0.2000*%
%ADD116O,1.2000X2.1500*%
%ADD117O,1.5000X3.1000*%
%ADD118O,1.5000X2.3000*%
%ADD119C,1.0000*%
%ADD120C,1.4000*%
%ADD121C,2.8000*%
%ADD122C,3.2000*%
%ADD123C,2.0000*%
%ADD124R,2.0000X2.0000*%
%ADD125C,6.0000*%
%ADD126O,2.2000X4.0000*%
%ADD127O,2.0000X4.5000*%
%ADD128O,4.0000X2.0000*%
%ADD129C,3.8000*%
%ADD130C,1.5240*%
%ADD131C,0.6000*%
G36*
X00456827Y00834827D02*
X00420000Y00798000D01*
X00018000D01*
X00006173Y00786173D01*
X00005000Y00786659D01*
Y00801000D01*
X00005000Y00803294D01*
X00005599Y00807843D01*
X00006786Y00812274D01*
X00008542Y00816513D01*
X00010836Y00820486D01*
X00013629Y00824126D01*
X00016873Y00827370D01*
X00020513Y00830163D01*
X00024486Y00832457D01*
X00028725Y00834213D01*
X00033157Y00835401D01*
X00037705Y00835999D01*
X00039999Y00835999D01*
X00040000Y00836000D01*
X00456341D01*
X00456827Y00834827D01*
D02*
G37*
G36*
X00810000Y00836000D02*
X00812336Y00836000D01*
X00816967Y00835379D01*
X00821475Y00834149D01*
X00825779Y00832330D01*
X00829803Y00829956D01*
X00833476Y00827069D01*
X00836733Y00823718D01*
X00839516Y00819965D01*
X00841776Y00815876D01*
X00843473Y00811522D01*
X00844576Y00806982D01*
X00845066Y00802335D01*
X00845000Y00800000D01*
X00845000Y00800000D01*
X00845000Y00800000D01*
Y00158000D01*
Y00090000D01*
Y00040000D01*
X00845000Y00040000D01*
X00845000Y00037706D01*
X00844401Y00033157D01*
X00843214Y00028725D01*
X00841458Y00024487D01*
X00839164Y00020513D01*
X00836371Y00016873D01*
X00833127Y00013629D01*
X00829487Y00010836D01*
X00825513Y00008542D01*
X00821274Y00006786D01*
X00816843Y00005599D01*
X00812294Y00005000D01*
X00810000Y00005000D01*
X00273659D01*
X00273173Y00006173D01*
X00280000Y00013000D01*
X00280000Y00100000D01*
X00285000Y00105000D01*
X00311686D01*
Y00098000D01*
X00311862Y00097114D01*
X00312363Y00096363D01*
X00326363Y00082363D01*
X00327114Y00081862D01*
X00328000Y00081685D01*
X00353828D01*
X00354714Y00081862D01*
X00355465Y00082363D01*
X00356637Y00083535D01*
X00357138Y00084286D01*
X00357314Y00085172D01*
Y00095230D01*
X00362770D01*
Y00105000D01*
X00367230D01*
Y00095230D01*
X00377770D01*
Y00105000D01*
X00382230D01*
Y00095230D01*
X00392770D01*
Y00105000D01*
X00397230D01*
Y00095230D01*
X00407770D01*
Y00105000D01*
X00412230D01*
Y00095230D01*
X00417770D01*
Y00105000D01*
X00470000D01*
X00480686D01*
Y00064000D01*
X00480862Y00063114D01*
X00481363Y00062363D01*
X00484613Y00059113D01*
X00485364Y00058612D01*
X00486250Y00058436D01*
X00495980D01*
Y00056480D01*
X00504020D01*
Y00057686D01*
X00508730D01*
Y00052105D01*
X00507460Y00051579D01*
X00507419Y00051620D01*
X00505849Y00052270D01*
X00504151D01*
X00502581Y00051620D01*
X00501380Y00050419D01*
X00500730Y00048849D01*
Y00047151D01*
X00501380Y00045581D01*
X00502581Y00044380D01*
X00504151Y00043730D01*
X00505849D01*
X00507419Y00044380D01*
X00507460Y00044421D01*
X00508730Y00043895D01*
Y00043730D01*
X00515230D01*
Y00043730D01*
X00521770D01*
Y00043730D01*
X00528230D01*
Y00043730D01*
X00534770D01*
Y00067270D01*
X00531020D01*
Y00075020D01*
X00525212D01*
Y00080159D01*
X00525212Y00080159D01*
X00525191Y00080269D01*
X00524988Y00081523D01*
X00525826Y00082083D01*
X00526385Y00082921D01*
X00526582Y00083909D01*
Y00096760D01*
X00526385Y00097748D01*
X00525826Y00098585D01*
X00524988Y00099145D01*
X00524000Y00099342D01*
X00523012Y00099145D01*
X00522174Y00098585D01*
X00520826D01*
X00519988Y00099145D01*
X00519000Y00099342D01*
X00518012Y00099145D01*
X00517174Y00098585D01*
X00515826D01*
X00514988Y00099145D01*
X00514000Y00099342D01*
X00513012Y00099145D01*
X00512174Y00098585D01*
X00510826D01*
X00509988Y00099145D01*
X00509000Y00099342D01*
X00508012Y00099145D01*
X00507174Y00098585D01*
X00506615Y00097748D01*
X00506418Y00096760D01*
Y00083909D01*
X00506557Y00083210D01*
X00506047Y00082283D01*
X00505743Y00081940D01*
X00499807D01*
X00495942Y00085805D01*
Y00090517D01*
X00496966D01*
X00497709Y00090665D01*
X00498339Y00091086D01*
X00499393Y00092140D01*
X00499814Y00092770D01*
X00499962Y00093513D01*
Y00096675D01*
X00499814Y00097418D01*
X00499393Y00098048D01*
X00498339Y00099102D01*
X00497709Y00099524D01*
X00497173Y00099630D01*
X00496849Y00100208D01*
X00496688Y00100941D01*
X00500747Y00105000D01*
X00693000Y00105000D01*
X00700000Y00112000D01*
Y00150000D01*
X00690000Y00160000D01*
Y00530000D01*
X00755000Y00595000D01*
Y00705000D01*
X00735465Y00724535D01*
X00735579Y00725403D01*
X00736998Y00726821D01*
X00738001Y00728559D01*
X00738228Y00729406D01*
X00739552Y00729441D01*
X00740021Y00727997D01*
X00742255Y00723611D01*
X00745149Y00719629D01*
X00748629Y00716149D01*
X00752611Y00713255D01*
X00756997Y00711021D01*
X00761678Y00709500D01*
X00766539Y00708730D01*
X00771461D01*
X00776322Y00709500D01*
X00781003Y00711021D01*
X00785389Y00713255D01*
X00789371Y00716149D01*
X00792851Y00719629D01*
X00795744Y00723611D01*
X00797979Y00727997D01*
X00799500Y00732678D01*
X00800270Y00737539D01*
Y00742461D01*
X00799500Y00747322D01*
X00797979Y00752003D01*
X00795744Y00756389D01*
X00792851Y00760371D01*
X00789371Y00763851D01*
X00785389Y00766745D01*
X00781003Y00768979D01*
X00776322Y00770500D01*
X00771461Y00771270D01*
X00766539D01*
X00761678Y00770500D01*
X00756997Y00768979D01*
X00752611Y00766745D01*
X00748629Y00763851D01*
X00745149Y00760371D01*
X00742255Y00756389D01*
X00740021Y00752003D01*
X00738500Y00747322D01*
X00737730Y00742461D01*
Y00737539D01*
X00737786Y00737187D01*
X00736596Y00736580D01*
X00735579Y00737598D01*
X00733841Y00738601D01*
X00731903Y00739120D01*
X00729897D01*
X00727959Y00738601D01*
X00726221Y00737598D01*
X00724802Y00736179D01*
X00723935Y00736065D01*
X00715000Y00745000D01*
Y00770000D01*
X00650173Y00834827D01*
X00650659Y00836000D01*
X00810000Y00836000D01*
D02*
G37*
G36*
X00190000Y00691000D02*
X00190000Y00636250D01*
X00185154Y00631000D01*
X00144000D01*
X00141000Y00634000D01*
X00141000Y00693000D01*
X00144000Y00696000D01*
X00185000Y00696000D01*
X00190000Y00691000D01*
D02*
G37*
G36*
X00133000Y00693000D02*
Y00634000D01*
X00130000Y00631000D01*
X00101000D01*
X00097000Y00635000D01*
X00097000Y00692000D01*
X00101000Y00696000D01*
X00130000Y00696000D01*
X00133000Y00693000D01*
D02*
G37*
G36*
X00256000Y00604000D02*
X00256000Y00536000D01*
X00245000Y00525000D01*
X00186000Y00525000D01*
X00170000Y00509000D01*
X00170000Y00486000D01*
X00211000D01*
X00212000Y00485000D01*
Y00477000D01*
X00211000Y00476000D01*
X00185000D01*
X00183000Y00474000D01*
Y00462000D01*
Y00436000D01*
X00169000D01*
X00162000Y00443000D01*
X00142000D01*
X00140000Y00445000D01*
Y00506000D01*
X00155000Y00521000D01*
Y00591000D01*
X00166000Y00602000D01*
X00167000Y00603000D01*
X00174000D01*
X00175000Y00604000D01*
X00188000D01*
X00193000Y00599000D01*
X00208000D01*
X00222000Y00613000D01*
X00247000D01*
X00256000Y00604000D01*
D02*
G37*
G36*
X00464000Y00581000D02*
X00467000Y00578000D01*
X00467000Y00563750D01*
X00472000Y00559250D01*
Y00553000D01*
Y00551500D01*
X00449500D01*
Y00559000D01*
X00452500Y00561500D01*
Y00565000D01*
X00452500Y00578393D01*
X00454933Y00581000D01*
X00464000Y00581000D01*
D02*
G37*
G36*
X00202000Y00520000D02*
Y00492000D01*
X00200000Y00490000D01*
X00174000D01*
X00173000Y00491000D01*
Y00508000D01*
X00186000Y00521000D01*
X00201000Y00521000D01*
X00202000Y00520000D01*
D02*
G37*
G36*
X00090000Y00493000D02*
Y00484000D01*
X00074000D01*
Y00490000D01*
X00071000Y00493000D01*
X00067000D01*
X00061000Y00499000D01*
Y00516000D01*
X00067000Y00522000D01*
X00090000D01*
Y00493000D01*
D02*
G37*
G36*
X00147000Y00522000D02*
X00106000Y00481000D01*
Y00475000D01*
X00094000D01*
Y00499000D01*
X00100000Y00505000D01*
Y00522000D01*
X00122000D01*
X00130000Y00530000D01*
Y00552000D01*
X00127000Y00555000D01*
Y00590000D01*
X00147000D01*
Y00522000D01*
D02*
G37*
G36*
X00216000Y00462167D02*
X00216000Y00427000D01*
X00213000Y00424000D01*
X00193000D01*
X00190375Y00421375D01*
X00180000D01*
X00179095Y00421000D01*
X00169000Y00421000D01*
X00166000Y00424000D01*
Y00431750D01*
X00169000Y00434000D01*
X00185000Y00434000D01*
Y00451000D01*
Y00464000D01*
X00188000Y00467000D01*
X00210200D01*
X00216000Y00462167D01*
D02*
G37*
G36*
X00062000Y00461000D02*
X00070000D01*
X00070000Y00422250D01*
X00065800Y00417000D01*
X00054000D01*
X00049000Y00422000D01*
X00049000Y00460000D01*
X00056000Y00467000D01*
X00062000Y00467000D01*
Y00461000D01*
D02*
G37*
G36*
X00215000Y00420000D02*
X00220000Y00415000D01*
Y00393000D01*
X00215000Y00388000D01*
X00194699D01*
X00194666Y00388022D01*
X00193000Y00388354D01*
X00191334Y00388022D01*
X00191301Y00388000D01*
X00189000D01*
X00180000Y00397000D01*
Y00420000D01*
X00215000Y00420000D01*
D02*
G37*
G36*
X00244887Y00521000D02*
X00256000Y00510291D01*
Y00478270D01*
X00270996Y00463273D01*
X00270981Y00388981D01*
X00248000Y00366000D01*
X00245000Y00363000D01*
X00214000Y00363000D01*
X00213000Y00364000D01*
Y00381000D01*
X00220000Y00388000D01*
X00221943Y00389943D01*
X00222003Y00479966D01*
X00206000Y00496031D01*
X00206000Y00501000D01*
Y00519988D01*
X00207006Y00521000D01*
X00244887Y00521000D01*
D02*
G37*
G36*
X00189000Y00386625D02*
X00189000Y00386625D01*
X00191301D01*
X00191478Y00386699D01*
X00191602Y00386674D01*
X00193000Y00386952D01*
X00194398Y00386674D01*
X00194522Y00386699D01*
X00194699Y00386625D01*
X00195375D01*
X00200000Y00382000D01*
Y00362000D01*
X00195000Y00357000D01*
X00175000D01*
X00170000Y00362000D01*
Y00382000D01*
X00175000Y00387000D01*
X00188095D01*
X00189000Y00386625D01*
D02*
G37*
G36*
X00112000Y00404500D02*
X00129000Y00387500D01*
X00162500Y00387500D01*
X00162500Y00337500D01*
X00129500Y00337500D01*
X00102500Y00364500D01*
Y00446000D01*
X00112000D01*
Y00404500D01*
D02*
G37*
G36*
X00061000Y00489000D02*
Y00474000D01*
X00058000D01*
X00043000Y00459000D01*
Y00458000D01*
Y00420000D01*
X00050000Y00413000D01*
Y00388000D01*
Y00337000D01*
X00015000D01*
X00015000Y00456000D01*
X00041000Y00482000D01*
X00049000Y00490000D01*
X00060000D01*
X00061000Y00489000D01*
D02*
G37*
G36*
X00613000Y00341000D02*
X00618028Y00336978D01*
X00618000Y00321000D01*
X00618000Y00321000D01*
X00617989Y00320247D01*
X00617432Y00318849D01*
X00616412Y00317742D01*
X00615064Y00317072D01*
X00614315Y00317000D01*
X00610000Y00317000D01*
X00605987Y00317000D01*
X00605987D01*
X00605194Y00317000D01*
X00603729Y00317607D01*
X00602607Y00318729D01*
X00602000Y00320194D01*
X00602000Y00320987D01*
X00602000Y00337000D01*
X00606000Y00341000D01*
Y00350000D01*
X00613000D01*
Y00341000D01*
D02*
G37*
G36*
X00352230Y00095230D02*
X00352686D01*
Y00086314D01*
X00328959D01*
X00316315Y00098959D01*
Y00105000D01*
X00322230D01*
Y00095230D01*
X00332770D01*
Y00105000D01*
X00337230D01*
Y00095230D01*
X00347770D01*
Y00105000D01*
X00352230D01*
Y00095230D01*
D02*
G37*
G36*
X00490002Y00105000D02*
X00490488Y00103827D01*
X00490087Y00103426D01*
X00489666Y00102795D01*
X00489518Y00102052D01*
Y00083948D01*
X00489666Y00083205D01*
X00490087Y00082575D01*
X00496577Y00076084D01*
X00497207Y00075663D01*
X00497950Y00075515D01*
X00510538D01*
X00511281Y00075663D01*
X00511912Y00076084D01*
X00514143Y00078316D01*
X00514143Y00078316D01*
X00514565Y00078946D01*
X00514712Y00079689D01*
X00514712Y00079689D01*
Y00081468D01*
X00514988Y00081523D01*
X00515826Y00082083D01*
X00517174D01*
X00518012Y00081523D01*
X00518288Y00081468D01*
Y00079607D01*
X00518436Y00078864D01*
X00518788Y00078337D01*
Y00075020D01*
X00512980D01*
Y00067270D01*
X00508730D01*
Y00062315D01*
X00504020D01*
Y00065020D01*
X00495980D01*
Y00063064D01*
X00487209D01*
X00485314Y00064959D01*
Y00105000D01*
X00490002D01*
D02*
G37*
%LPC*%
G36*
X00792461Y00568270D02*
X00787539D01*
X00782678Y00567500D01*
X00777997Y00565979D01*
X00773611Y00563745D01*
X00769629Y00560852D01*
X00766149Y00557371D01*
X00763255Y00553389D01*
X00761021Y00549004D01*
X00759500Y00544323D01*
X00758730Y00539461D01*
Y00534539D01*
X00759500Y00529678D01*
X00761021Y00524996D01*
X00763255Y00520611D01*
X00766149Y00516629D01*
X00769629Y00513149D01*
X00773611Y00510256D01*
X00777997Y00508021D01*
X00782678Y00506500D01*
X00787539Y00505730D01*
X00792461D01*
X00797322Y00506500D01*
X00802003Y00508021D01*
X00806389Y00510256D01*
X00810371Y00513149D01*
X00813851Y00516629D01*
X00816745Y00520611D01*
X00818979Y00524996D01*
X00820500Y00529678D01*
X00821270Y00534539D01*
Y00539461D01*
X00820500Y00544323D01*
X00818979Y00549004D01*
X00816745Y00553389D01*
X00813851Y00557371D01*
X00810371Y00560852D01*
X00806389Y00563745D01*
X00802003Y00565979D01*
X00797322Y00567500D01*
X00792461Y00568270D01*
D02*
G37*
G36*
X00786247Y00426770D02*
X00783753D01*
X00781448Y00425815D01*
X00779685Y00424052D01*
X00778730Y00421747D01*
Y00419253D01*
X00779685Y00416948D01*
X00781448Y00415185D01*
X00783753Y00414230D01*
X00786247D01*
X00788552Y00415185D01*
X00790315Y00416948D01*
X00791270Y00419253D01*
Y00421747D01*
X00790315Y00424052D01*
X00788552Y00425815D01*
X00786247Y00426770D01*
D02*
G37*
G36*
Y00346770D02*
X00783753D01*
X00781448Y00345815D01*
X00779685Y00344052D01*
X00778730Y00341747D01*
Y00339253D01*
X00779685Y00336948D01*
X00781448Y00335185D01*
X00783753Y00334230D01*
X00786247D01*
X00788552Y00335185D01*
X00790315Y00336948D01*
X00791270Y00339253D01*
Y00341747D01*
X00790315Y00344052D01*
X00788552Y00345815D01*
X00786247Y00346770D01*
D02*
G37*
G36*
X00837849Y00186270D02*
X00836151D01*
X00834581Y00185620D01*
X00833380Y00184419D01*
X00833187Y00183953D01*
X00831813D01*
X00831620Y00184419D01*
X00830419Y00185620D01*
X00828849Y00186270D01*
X00827151D01*
X00825581Y00185620D01*
X00824380Y00184419D01*
X00823730Y00182849D01*
Y00181151D01*
X00824294Y00179790D01*
X00823980Y00178520D01*
X00823980D01*
Y00169980D01*
Y00161480D01*
X00825686D01*
Y00158959D01*
X00823041Y00156314D01*
X00776000D01*
X00775114Y00156138D01*
X00774363Y00155637D01*
X00763363Y00144637D01*
X00762862Y00143886D01*
X00762685Y00143000D01*
Y00124745D01*
X00762862Y00123859D01*
X00763363Y00123108D01*
X00770975Y00115497D01*
Y00096230D01*
X00793515D01*
Y00118770D01*
X00774248D01*
X00767315Y00125703D01*
Y00142041D01*
X00776959Y00151685D01*
X00824000D01*
X00824886Y00151862D01*
X00825637Y00152363D01*
X00829637Y00156363D01*
X00830138Y00157114D01*
X00830314Y00158000D01*
Y00161480D01*
X00831710D01*
X00832020Y00161480D01*
X00832980D01*
X00833290Y00161480D01*
X00834686D01*
Y00157959D01*
X00827041Y00150315D01*
X00797345D01*
X00796459Y00150138D01*
X00795708Y00149637D01*
X00788420Y00142348D01*
X00786595Y00143402D01*
X00783728Y00144170D01*
X00780761D01*
X00777895Y00143402D01*
X00775325Y00141918D01*
X00773226Y00139820D01*
X00771743Y00137250D01*
X00770975Y00134384D01*
Y00131416D01*
X00771743Y00128550D01*
X00773226Y00125980D01*
X00775325Y00123882D01*
X00777895Y00122398D01*
X00780761Y00121630D01*
X00783728D01*
X00786595Y00122398D01*
X00789165Y00123882D01*
X00791263Y00125980D01*
X00792747Y00128550D01*
X00793515Y00131416D01*
Y00134384D01*
X00792747Y00137250D01*
X00791693Y00139075D01*
X00798304Y00145686D01*
X00828000D01*
X00828886Y00145862D01*
X00829637Y00146363D01*
X00838637Y00155363D01*
X00839138Y00156114D01*
X00839314Y00157000D01*
Y00158000D01*
Y00161480D01*
X00841020D01*
Y00169980D01*
Y00178520D01*
X00841020Y00178520D01*
X00840706Y00179790D01*
X00841270Y00181151D01*
Y00182849D01*
X00840620Y00184419D01*
X00839419Y00185620D01*
X00837849Y00186270D01*
D02*
G37*
G36*
X00792461Y00238270D02*
X00787539D01*
X00782678Y00237500D01*
X00777997Y00235979D01*
X00773611Y00233745D01*
X00769629Y00230851D01*
X00766149Y00227371D01*
X00763255Y00223389D01*
X00761021Y00219004D01*
X00759500Y00214322D01*
X00758730Y00209461D01*
Y00204539D01*
X00759500Y00199678D01*
X00761021Y00194996D01*
X00763255Y00190611D01*
X00766149Y00186629D01*
X00769629Y00183149D01*
X00773611Y00180256D01*
X00777997Y00178021D01*
X00782678Y00176500D01*
X00787539Y00175730D01*
X00792461D01*
X00797322Y00176500D01*
X00802003Y00178021D01*
X00806389Y00180256D01*
X00810371Y00183149D01*
X00813851Y00186629D01*
X00816745Y00190611D01*
X00818979Y00194996D01*
X00820500Y00199678D01*
X00821270Y00204539D01*
Y00209461D01*
X00820500Y00214322D01*
X00818979Y00219004D01*
X00816745Y00223389D01*
X00813851Y00227371D01*
X00810371Y00230851D01*
X00806389Y00233745D01*
X00802003Y00235979D01*
X00797322Y00237500D01*
X00792461Y00238270D01*
D02*
G37*
G36*
X00809128Y00144170D02*
X00806161D01*
X00803295Y00143402D01*
X00800725Y00141918D01*
X00798626Y00139820D01*
X00797143Y00137250D01*
X00796375Y00134384D01*
Y00131416D01*
X00797143Y00128550D01*
X00798626Y00125980D01*
X00800725Y00123882D01*
X00803295Y00122398D01*
X00806161Y00121630D01*
X00809128D01*
X00811995Y00122398D01*
X00814565Y00123882D01*
X00816663Y00125980D01*
X00818147Y00128550D01*
X00818915Y00131416D01*
Y00134384D01*
X00818147Y00137250D01*
X00816663Y00139820D01*
X00814565Y00141918D01*
X00811995Y00143402D01*
X00809128Y00144170D01*
D02*
G37*
G36*
Y00118770D02*
X00806161D01*
X00803295Y00118002D01*
X00800725Y00116518D01*
X00798626Y00114420D01*
X00797143Y00111850D01*
X00796375Y00108984D01*
Y00106016D01*
X00797143Y00103150D01*
X00798626Y00100580D01*
X00800725Y00098482D01*
X00803295Y00096998D01*
X00806161Y00096230D01*
X00809128D01*
X00811995Y00096998D01*
X00814565Y00098482D01*
X00816663Y00100580D01*
X00818147Y00103150D01*
X00818915Y00106016D01*
Y00108984D01*
X00818147Y00111850D01*
X00816663Y00114420D01*
X00814565Y00116518D01*
X00811995Y00118002D01*
X00809128Y00118770D01*
D02*
G37*
G36*
X00545849Y00052270D02*
X00544151D01*
X00542581Y00051620D01*
X00541380Y00050419D01*
X00540730Y00048849D01*
Y00047151D01*
X00541380Y00045581D01*
X00542581Y00044380D01*
X00544151Y00043730D01*
X00545849D01*
X00547419Y00044380D01*
X00548620Y00045581D01*
X00549270Y00047151D01*
Y00048849D01*
X00548620Y00050419D01*
X00547419Y00051620D01*
X00545849Y00052270D01*
D02*
G37*
G36*
X00193520Y00510520D02*
X00185480D01*
Y00499980D01*
X00193520D01*
Y00510520D01*
D02*
G37*
%LPD*%
D10*
X00503000Y00207500D02*
X00503500Y00207000D01*
X00226172Y00628172D02*
X00239828D01*
X00208000Y00610000D02*
X00226172Y00628172D01*
X00200750Y00610000D02*
X00208000D01*
X00165000Y00643500D02*
X00171000Y00637500D01*
Y00637421D02*
Y00637500D01*
X00240750Y00636250D02*
X00269000Y00608000D01*
X00158000Y00643500D02*
X00165000D01*
X00171000Y00637421D02*
X00172172Y00636250D01*
X00240750D01*
X00220000Y00705000D02*
Y00738900D01*
X00325400Y00794000D02*
X00325900D01*
X00220000Y00738900D02*
X00262329Y00781229D01*
X00455000Y00188200D02*
Y00198000D01*
X00515000Y00188200D02*
Y00198000D01*
X00503000Y00188200D02*
Y00198000D01*
X00828000Y00148000D02*
X00837000Y00157000D01*
X00797345Y00148000D02*
X00828000D01*
X00782245Y00132900D02*
X00797345Y00148000D01*
X00765000Y00143000D02*
X00776000Y00154000D01*
X00824000D02*
X00828000Y00158000D01*
X00776000Y00154000D02*
X00824000D01*
X00581000Y00346000D02*
X00589250D01*
X00596224Y00339026D01*
X00567000Y00354000D02*
Y00382000D01*
X00765000Y00124745D02*
X00782245Y00107500D01*
X00765000Y00124745D02*
Y00143000D01*
X00837000Y00157000D02*
Y00165750D01*
X00828000Y00158000D02*
Y00165750D01*
X00502000Y00153000D02*
X00509000Y00160000D01*
X00502000Y00142000D02*
Y00153000D01*
X00509000Y00160000D02*
X00615000D01*
X00355000Y00085172D02*
Y00109500D01*
X00314000Y00098000D02*
X00328000Y00084000D01*
X00353828D01*
X00355000Y00085172D01*
X00325000Y00109500D02*
Y00117828D01*
X00321672Y00118328D02*
X00324500D01*
X00307250Y00132750D02*
X00321672Y00118328D01*
X00307250Y00132750D02*
Y00151000D01*
X00324500Y00118328D02*
X00325000Y00117828D01*
X00523000Y00215500D02*
Y00228000D01*
X00518000Y00233000D02*
X00523000Y00228000D01*
X00390000Y00233000D02*
X00518000D01*
X00515000Y00227000D02*
X00519000Y00223000D01*
Y00215500D02*
Y00223000D01*
X00392000Y00227000D02*
X00515000D01*
X00314000Y00166000D02*
X00331000D01*
X00307250Y00151000D02*
Y00159250D01*
X00314000Y00166000D01*
X00303000Y00171000D02*
X00328000D01*
X00291750Y00159750D02*
X00303000Y00171000D01*
X00291750Y00142000D02*
Y00159750D01*
X00331000Y00166000D02*
X00392000Y00227000D01*
X00332500Y00142000D02*
Y00159500D01*
X00388500Y00215500D02*
X00427000D01*
X00332500Y00159500D02*
X00388500Y00215500D01*
X00369200Y00188200D02*
X00427000D01*
X00341750Y00142000D02*
Y00160750D01*
X00369200Y00188200D01*
X00332250Y00142000D02*
X00332500D01*
X00443000Y00209000D02*
Y00215500D01*
X00436000Y00205000D02*
X00437500D01*
X00431000Y00210000D02*
X00436000Y00205000D01*
X00437500D02*
X00439000D01*
X00443000Y00209000D01*
X00328000Y00171000D02*
X00390000Y00233000D01*
X00334250Y00137750D02*
X00340000Y00132000D01*
X00332500Y00142000D02*
X00334250Y00140250D01*
X00340000Y00109500D02*
Y00132000D01*
X00334250Y00137750D02*
Y00140250D01*
X00343371Y00137629D02*
Y00140379D01*
Y00137629D02*
X00345000Y00136000D01*
Y00109500D02*
Y00136000D01*
X00341750Y00142000D02*
X00343371Y00140379D01*
X00314000Y00098000D02*
Y00113000D01*
X00293750Y00133250D02*
X00314000Y00113000D01*
X00293750Y00133250D02*
Y00140250D01*
X00292000Y00142000D02*
X00293750Y00140250D01*
X00291750Y00142000D02*
X00292000D01*
X00615000Y00160000D02*
X00631000Y00176000D01*
X00499000Y00139000D02*
X00502000Y00142000D01*
Y00121000D02*
X00505000Y00118000D01*
X00499000Y00130050D02*
X00502000Y00127050D01*
Y00121000D02*
Y00127050D01*
X00495000Y00130950D02*
Y00138100D01*
Y00130950D02*
X00495000Y00130950D01*
X00520000Y00118000D02*
X00524000Y00122000D01*
X00505000Y00118000D02*
X00520000D01*
X00524000Y00122000D02*
Y00131666D01*
X00495900Y00130050D02*
X00499000D01*
X00495000Y00130950D02*
X00495900Y00130050D01*
X00495000Y00138100D02*
X00495900Y00139000D01*
X00499000D01*
X00486250Y00060750D02*
X00497249D01*
X00497999Y00060000D02*
X00511000D01*
X00512000Y00059000D01*
Y00050500D02*
Y00059000D01*
X00497249Y00060750D02*
X00497999Y00060000D01*
X00483000Y00064000D02*
X00486250Y00060750D01*
X00483000Y00064000D02*
Y00106000D01*
X00495000Y00118000D01*
Y00123050D01*
X00631000Y00176000D02*
Y00201000D01*
X00623000Y00209000D02*
X00631000Y00201000D01*
X00623000Y00209000D02*
Y00215500D01*
X00614000Y00206000D02*
Y00207000D01*
Y00206000D02*
X00620000Y00200000D01*
X00611000Y00215500D02*
Y00223918D01*
Y00210000D02*
Y00215500D01*
Y00210000D02*
X00614000Y00207000D01*
X00430998Y00555501D02*
Y00565919D01*
X00428000Y00568918D02*
X00430998Y00565919D01*
X00428000Y00568918D02*
Y00570000D01*
X00438998Y00555501D02*
Y00567998D01*
X00439000Y00568000D01*
X00435000Y00539512D02*
X00438998Y00535513D01*
Y00528201D02*
Y00535513D01*
X00435000Y00539512D02*
Y00540000D01*
X00419000Y00536000D02*
X00430910D01*
X00434998Y00531911D01*
X00414799Y00528201D02*
X00426998D01*
X00411000Y00532000D02*
X00414799Y00528201D01*
X00412000Y00547000D02*
X00412243Y00546757D01*
Y00542757D02*
X00419000Y00536000D01*
X00412243Y00542757D02*
Y00546757D01*
X00434998Y00528201D02*
Y00531911D01*
X00661000Y00387000D02*
X00664500Y00390500D01*
X00675000D01*
X00652000Y00387000D02*
X00661000D01*
X00602000Y00407000D02*
X00652000D01*
X00596000Y00401000D02*
X00602000Y00407000D01*
X00596000Y00401000D02*
X00596000D01*
X00574000Y00379000D02*
X00596000Y00401000D01*
X00612000Y00427000D02*
X00652000D01*
X00567000Y00382000D02*
X00612000Y00427000D01*
X00284000Y00486000D02*
X00324000D01*
X00269000Y00501000D02*
X00284000Y00486000D01*
X00269000Y00501000D02*
Y00608000D01*
X00250000Y00705000D02*
Y00753000D01*
X00331000Y00463000D02*
X00332000Y00464000D01*
X00282000Y00463000D02*
X00331000D01*
X00263000Y00482000D02*
X00282000Y00463000D01*
X00375200Y00780000D02*
X00382700Y00787500D01*
X00277000Y00780000D02*
X00375200D01*
X00250000Y00753000D02*
X00277000Y00780000D01*
X00265000Y00794000D02*
X00325400D01*
X00331900Y00787500D01*
X00262329Y00791329D02*
X00265000Y00794000D01*
X00262329Y00781229D02*
Y00791329D01*
X00609000Y00225918D02*
Y00227000D01*
Y00225918D02*
X00611000Y00223918D01*
X00828000Y00174250D02*
Y00182000D01*
X00837000Y00174250D02*
Y00182000D01*
X00015000Y00777500D02*
X00043250D01*
X00043750Y00778000D01*
X00015000Y00762500D02*
X00059500D01*
X00200000Y00705000D02*
X00225000Y00680000D01*
X00117000Y00705000D02*
X00200000D01*
X00052250Y00722250D02*
Y00728000D01*
X00049000Y00719000D02*
X00052250Y00722250D01*
X00046000Y00719000D02*
X00049000D01*
X00046000Y00769000D02*
X00049000D01*
X00052250Y00772250D01*
Y00778000D01*
X00059500Y00762500D02*
X00117000Y00705000D01*
X00467000Y00188200D02*
Y00194918D01*
X00469000Y00196918D02*
Y00198000D01*
X00467000Y00194918D02*
X00469000Y00196918D01*
X00239828Y00628172D02*
X00263000Y00605000D01*
Y00482000D02*
Y00605000D01*
X00593000Y00197000D02*
X00593910D01*
X00592090D02*
X00593000D01*
X00599000Y00188200D02*
Y00191910D01*
Y00181700D02*
Y00188200D01*
X00578998Y00492002D02*
X00582500Y00488500D01*
X00583000Y00488000D01*
X00608950Y00536950D02*
X00609050D01*
X00610998Y00535001D01*
X00594000Y00485000D02*
X00599000Y00490000D01*
Y00519500D01*
X00594999Y00523502D02*
X00599000Y00519500D01*
X00590998Y00522502D02*
X00592500Y00521000D01*
Y00500000D02*
Y00521000D01*
X00590998Y00522502D02*
Y00528201D01*
X00586998Y00511581D02*
Y00528201D01*
X00585500Y00509000D02*
Y00510082D01*
X00586998Y00511581D01*
X00583498Y00487501D02*
X00583997Y00488000D01*
X00578998Y00492002D02*
Y00528201D01*
X00583000Y00488000D02*
X00583997D01*
X00583000D02*
X00583498Y00487501D01*
X00582000Y00488000D02*
X00583000D01*
X00578998Y00500998D02*
Y00528201D01*
X00623000Y00177000D02*
Y00188200D01*
Y00177000D02*
X00623000Y00177000D01*
X00608000Y00242000D02*
X00618000D01*
X00603000Y00224000D02*
Y00237000D01*
X00608000Y00242000D01*
X00603000Y00224000D02*
X00607000Y00220000D01*
Y00215500D02*
Y00220000D01*
X00599000Y00211790D02*
Y00215500D01*
X00597000Y00225000D02*
X00599000Y00223000D01*
Y00215500D02*
Y00223000D01*
X00602500Y00178000D02*
Y00178200D01*
X00599000Y00181700D02*
X00602500Y00178200D01*
X00583500D02*
X00587000Y00181700D01*
X00583500Y00178000D02*
Y00178200D01*
X00593910Y00206700D02*
X00599000Y00211790D01*
X00587000Y00215500D02*
Y00225000D01*
Y00211790D02*
X00592090Y00206700D01*
X00593910Y00197000D02*
X00599000Y00191910D01*
X00587000Y00188200D02*
Y00191910D01*
X00592090Y00197000D01*
X00587000Y00181700D02*
Y00188200D01*
X00539000Y00176000D02*
Y00188200D01*
X00551000Y00215500D02*
Y00225000D01*
X00569000Y00204500D02*
X00575000Y00210500D01*
Y00215500D01*
X00611000Y00192918D02*
X00613000Y00194918D01*
X00611000Y00188200D02*
Y00192918D01*
X00573000Y00194918D02*
Y00196000D01*
X00575000Y00188200D02*
Y00192918D01*
X00573000Y00194918D02*
X00575000Y00192918D01*
X00074887Y00467612D02*
X00075500Y00467000D01*
X00066547Y00467612D02*
X00074887D01*
X00283250Y00753000D02*
X00292000D01*
X00503000Y00207500D02*
Y00215500D01*
X00522999Y00538451D02*
X00532046Y00547499D01*
X00532999D01*
X00594999Y00523502D02*
Y00528201D01*
X00506998D02*
Y00534002D01*
X00494999Y00528201D02*
Y00532999D01*
X00478998Y00528201D02*
Y00532999D01*
X00542999Y00528201D02*
Y00535001D01*
X00542279Y00535721D02*
X00542999Y00535001D01*
X00578998Y00548998D02*
Y00555501D01*
X00576000Y00546000D02*
X00578998Y00548998D01*
X00573000Y00546000D02*
X00576000D01*
X00622998Y00555501D02*
Y00563502D01*
X00610998Y00555501D02*
Y00563998D01*
X00611000Y00183000D02*
Y00188200D01*
Y00183000D02*
X00612000Y00182000D01*
Y00176000D02*
Y00182000D01*
X00575000Y00176000D02*
Y00188200D01*
X00563000Y00176000D02*
Y00188200D01*
X00551000Y00177000D02*
Y00188200D01*
X00527000Y00177000D02*
Y00188200D01*
X00491000D02*
Y00198000D01*
X00479000Y00188200D02*
Y00198000D01*
X00443000Y00188200D02*
Y00198000D01*
X00431000Y00188200D02*
Y00198000D01*
Y00210000D02*
Y00215500D01*
X00455000Y00207000D02*
Y00215500D01*
X00467000Y00209000D02*
Y00215500D01*
X00479000Y00208000D02*
Y00215500D01*
X00491000Y00207000D02*
Y00215500D01*
X00515000Y00207000D02*
Y00215500D01*
X00563000D02*
Y00225000D01*
X00575000Y00215500D02*
Y00225000D01*
X00193500Y00283000D02*
Y00286000D01*
X00191819Y00281319D02*
X00193500Y00283000D01*
X00191819Y00268946D02*
Y00281319D01*
X00161819Y00285819D02*
X00162000Y00286000D01*
X00161819Y00268946D02*
Y00285819D01*
X00133500Y00286000D02*
X00133500Y00286000D01*
Y00280500D02*
Y00286000D01*
X00131819Y00278819D02*
X00133500Y00280500D01*
X00131819Y00268946D02*
Y00278819D01*
X00101000Y00286000D02*
X00101819Y00285181D01*
Y00268946D02*
Y00285181D01*
X00663500Y00379500D02*
X00675000D01*
X00660000Y00376000D02*
X00663500Y00379500D01*
X00652500Y00376000D02*
X00660000D01*
X00652000Y00375500D02*
X00652500Y00376000D01*
X00609500Y00369250D02*
X00624250D01*
X00630500Y00375500D01*
X00652000D01*
Y00427000D02*
X00669000D01*
X00675000Y00421000D01*
Y00412500D02*
Y00421000D01*
X00664500Y00401500D02*
X00675000D01*
X00659000Y00407000D02*
X00664500Y00401500D01*
X00652000Y00407000D02*
X00659000D01*
X00652000Y00407000D02*
X00652000Y00407000D01*
X00622998Y00521002D02*
Y00528201D01*
X00610998D02*
Y00535001D01*
X00505000Y00536000D02*
X00506998Y00534002D01*
X00598998Y00547998D02*
Y00555501D01*
X00598000Y00547000D02*
X00598998Y00547998D01*
X00494999Y00555501D02*
Y00562998D01*
X00496000Y00564000D01*
X00482999Y00555501D02*
Y00561998D01*
X00485000Y00564000D01*
X00474999Y00555501D02*
Y00582001D01*
X00474000Y00583000D02*
X00474999Y00582001D01*
X00446998Y00550454D02*
Y00555501D01*
Y00550454D02*
X00451453Y00546000D01*
X00442999Y00547001D02*
Y00555501D01*
X00416000Y00559000D02*
Y00567000D01*
Y00559000D02*
X00419499Y00555501D01*
X00426998D01*
X00430998Y00520998D02*
Y00528201D01*
X00429000Y00519000D02*
X00430998Y00520998D01*
X00442999Y00522998D02*
Y00528201D01*
X00439000Y00519000D02*
X00442999Y00522998D01*
X00470998Y00521002D02*
Y00528201D01*
X00466998D02*
Y00533998D01*
X00469000Y00536000D01*
X00451453Y00546000D02*
X00453000D01*
X00470998Y00521002D02*
X00473000Y00519000D01*
X00530998Y00528201D02*
Y00538998D01*
X00478998Y00532999D02*
X00482000Y00536000D01*
X00530998Y00538998D02*
X00532000Y00540000D01*
X00522999Y00528201D02*
Y00538451D01*
X00596224Y00333965D02*
Y00339026D01*
X00462998Y00528201D02*
Y00541998D01*
X00464000Y00543000D01*
X00582999Y00550001D02*
Y00555501D01*
Y00550001D02*
X00586000Y00547000D01*
X00494999Y00532999D02*
X00497971Y00535971D01*
X00504252D01*
X00502999Y00549002D02*
Y00555501D01*
Y00549002D02*
X00508000Y00544000D01*
D11*
X00109789Y00462965D02*
X00114640Y00467815D01*
X00106504Y00456250D02*
X00132000D01*
X00109789Y00462965D02*
Y00474965D01*
X00509000Y00131666D02*
Y00148000D01*
X00541186Y00129050D02*
X00541736Y00128500D01*
X00548500D01*
X00549000Y00128000D01*
X00548950Y00136950D02*
X00549000Y00137000D01*
X00541186Y00136950D02*
X00548950D01*
X00495000Y00146000D02*
Y00152000D01*
X00529000Y00131666D02*
Y00136888D01*
X00529012Y00136900D02*
X00541000D01*
X00529000Y00136888D02*
X00529012Y00136900D01*
X00529000Y00090334D02*
Y00102000D01*
X00104789Y00457965D02*
X00106504Y00456250D01*
X00104789Y00457965D02*
X00109789Y00462965D01*
X00114640Y00467815D02*
Y00474815D01*
X00114789Y00474965D01*
X00462998Y00555501D02*
X00466998D01*
X00454998D02*
X00458998D01*
X00462998D01*
X00450998D02*
X00454998D01*
X00178500Y00449000D02*
Y00458000D01*
X00177500Y00448000D02*
X00178500Y00449000D01*
X00177094Y00447594D02*
X00177500Y00448000D01*
X00177094Y00437309D02*
Y00447594D01*
Y00437309D02*
X00182094D01*
X00056397Y00486883D02*
X00057945Y00485335D01*
Y00477571D02*
Y00485335D01*
X00039000Y00458626D02*
X00057945Y00477571D01*
X00039000Y00400500D02*
Y00458626D01*
X00033250Y00394750D02*
X00039000Y00400500D01*
X00033250Y00362499D02*
Y00394750D01*
X00187094Y00437309D02*
Y00446594D01*
X00188500Y00448000D01*
X00193500Y00453000D01*
Y00458000D01*
X00114789Y00435601D02*
X00118177Y00432213D01*
X00114789Y00435601D02*
Y00440965D01*
X00109789Y00433826D02*
Y00440965D01*
X00108177Y00378323D02*
Y00432213D01*
X00124001Y00362499D02*
X00145750D01*
X00104789Y00440965D02*
X00109789D01*
X00108177Y00432213D02*
X00109789Y00433826D01*
X00108177Y00378323D02*
X00124001Y00362499D01*
X00076561Y00477191D02*
X00084809D01*
X00066825D02*
X00076561D01*
X00066397Y00486883D02*
X00066445Y00486835D01*
Y00477571D02*
Y00486835D01*
Y00477571D02*
X00066825Y00477191D01*
X00084809D02*
X00087789Y00474211D01*
Y00465465D02*
Y00474211D01*
X00082465Y00450465D02*
X00087789D01*
X00079745Y00447745D02*
X00082465Y00450465D01*
X00076394Y00447745D02*
X00079745D01*
X00076394D02*
Y00458356D01*
X00076000Y00458750D02*
X00076394Y00458356D01*
X00088965Y00440965D02*
X00094789D01*
X00086968Y00438968D02*
X00088965Y00440965D01*
X00076394Y00438968D02*
X00086968D01*
X00478998Y00555501D02*
Y00571998D01*
X00489000Y00582000D01*
X00101819Y00174746D02*
Y00194819D01*
D12*
X00601000Y00381000D02*
Y00386729D01*
X00625000Y00325000D02*
Y00325271D01*
X00625597Y00325868D02*
Y00334053D01*
X00625000Y00325271D02*
X00625597Y00325868D01*
X00642271Y00326000D02*
X00642771Y00326500D01*
X00651750D01*
X00642000Y00326000D02*
X00642271D01*
X00644000Y00307000D02*
X00652000D01*
Y00326750D02*
Y00327000D01*
X00651750Y00326500D02*
X00652000Y00326750D01*
Y00395500D02*
Y00395559D01*
X00652250Y00395809D02*
X00659809D01*
X00652000Y00395559D02*
X00652250Y00395809D01*
X00659809D02*
X00660000Y00396000D01*
X00600500Y00381000D02*
X00601000D01*
Y00386729D02*
X00602000Y00387729D01*
Y00388000D01*
X00652250Y00435191D02*
X00659809D01*
X00660000Y00435000D01*
X00652000Y00435441D02*
Y00435500D01*
Y00435441D02*
X00652250Y00435191D01*
X00652000Y00415441D02*
X00652250Y00415191D01*
X00658809D01*
X00652000Y00415441D02*
Y00415500D01*
X00658809Y00415191D02*
X00659000Y00415000D01*
X00046000Y00695000D02*
X00055000D01*
X00046000Y00695000D02*
X00046000Y00695000D01*
X00457000Y00519000D02*
Y00536000D01*
X00437000Y00430000D02*
X00474000D01*
X00112000Y00286000D02*
Y00293000D01*
X00122500Y00286000D02*
Y00293000D01*
X00173000Y00286000D02*
Y00293000D01*
X00182500Y00286000D02*
Y00293000D01*
X00173000Y00286000D02*
X00182500D01*
X00600000Y00369250D02*
Y00380500D01*
X00600500Y00381000D01*
X00643000Y00347000D02*
X00652000D01*
X00642000Y00348000D02*
X00643000Y00347000D01*
X00645000Y00367000D02*
X00652000D01*
X00643000Y00369000D02*
X00645000Y00367000D01*
X00282000Y00765000D02*
X00290750D01*
X00322250Y00753000D02*
Y00758750D01*
X00319000Y00762000D02*
X00322250Y00758750D01*
X00328000Y00765750D02*
Y00773000D01*
Y00765750D02*
X00328750Y00765000D01*
X00361000D02*
X00367750D01*
X00358000Y00762000D02*
X00361000Y00765000D01*
X00359250Y00753000D02*
X00369000D01*
X00398000Y00765000D02*
X00406750D01*
X00400250Y00753000D02*
X00409000D01*
X00444750Y00764000D02*
Y00771750D01*
X00445000Y00772000D01*
X00427000Y00760250D02*
Y00768000D01*
X00483000Y00765750D02*
Y00773000D01*
Y00765750D02*
X00483750Y00765000D01*
D22*
X00169000Y00609000D02*
D03*
Y00599000D02*
D03*
X00055000Y00695000D02*
D03*
Y00685000D02*
D03*
X00176000Y00493500D02*
D03*
Y00482500D02*
D03*
X00200000Y00416500D02*
D03*
Y00427500D02*
D03*
X00066547Y00467612D02*
D03*
Y00457612D02*
D03*
D23*
X00462998Y00555501D02*
D03*
X00458998D02*
D03*
X00450998D02*
D03*
X00454998D02*
D03*
X00438998D02*
D03*
X00434998D02*
D03*
X00442999D02*
D03*
X00446998D02*
D03*
X00426998D02*
D03*
X00430998D02*
D03*
X00502999D02*
D03*
X00498998D02*
D03*
X00490998D02*
D03*
X00494999D02*
D03*
X00478998D02*
D03*
X00474999D02*
D03*
X00482999D02*
D03*
X00486998D02*
D03*
X00466998D02*
D03*
X00470998D02*
D03*
X00542999D02*
D03*
X00538998D02*
D03*
X00530998D02*
D03*
X00534998D02*
D03*
X00518998D02*
D03*
X00514999D02*
D03*
X00522999D02*
D03*
X00526998D02*
D03*
X00506998D02*
D03*
X00510998D02*
D03*
X00582999D02*
D03*
X00578998D02*
D03*
X00570998D02*
D03*
X00574998D02*
D03*
X00558998D02*
D03*
X00554999D02*
D03*
X00562999D02*
D03*
X00566998D02*
D03*
X00546998D02*
D03*
X00550998D02*
D03*
X00590998D02*
D03*
X00586998D02*
D03*
X00606998D02*
D03*
X00602999D02*
D03*
X00594999D02*
D03*
X00598998D02*
D03*
X00614998D02*
D03*
X00610998D02*
D03*
X00618998D02*
D03*
X00622998D02*
D03*
Y00528201D02*
D03*
X00618998D02*
D03*
X00610998D02*
D03*
X00614998D02*
D03*
X00598998D02*
D03*
X00594999D02*
D03*
X00602999D02*
D03*
X00606998D02*
D03*
X00586998D02*
D03*
X00590998D02*
D03*
X00550998D02*
D03*
X00546998D02*
D03*
X00566998D02*
D03*
X00562999D02*
D03*
X00554999D02*
D03*
X00558998D02*
D03*
X00574998D02*
D03*
X00570998D02*
D03*
X00578998D02*
D03*
X00582999D02*
D03*
X00510998D02*
D03*
X00506998D02*
D03*
X00526998D02*
D03*
X00522999D02*
D03*
X00514999D02*
D03*
X00518998D02*
D03*
X00534998D02*
D03*
X00530998D02*
D03*
X00538998D02*
D03*
X00542999D02*
D03*
X00470998D02*
D03*
X00466998D02*
D03*
X00486998D02*
D03*
X00482999D02*
D03*
X00474999D02*
D03*
X00478998D02*
D03*
X00494999D02*
D03*
X00490998D02*
D03*
X00498998D02*
D03*
X00502999D02*
D03*
X00430998D02*
D03*
X00426998D02*
D03*
X00446998D02*
D03*
X00442999D02*
D03*
X00434998D02*
D03*
X00438998D02*
D03*
X00454998D02*
D03*
X00450998D02*
D03*
X00458998D02*
D03*
X00462998D02*
D03*
X00463000Y00215500D02*
D03*
X00459000D02*
D03*
X00451000D02*
D03*
X00455000D02*
D03*
X00439000D02*
D03*
X00435000D02*
D03*
X00443000D02*
D03*
X00447000D02*
D03*
X00427000D02*
D03*
X00431000D02*
D03*
X00503000D02*
D03*
X00499000D02*
D03*
X00491000D02*
D03*
X00495000D02*
D03*
X00479000D02*
D03*
X00475000D02*
D03*
X00483000D02*
D03*
X00487000D02*
D03*
X00467000D02*
D03*
X00471000D02*
D03*
X00543000D02*
D03*
X00539000D02*
D03*
X00531000D02*
D03*
X00535000D02*
D03*
X00519000D02*
D03*
X00515000D02*
D03*
X00523000D02*
D03*
X00527000D02*
D03*
X00507000D02*
D03*
X00511000D02*
D03*
X00583000D02*
D03*
X00579000D02*
D03*
X00571000D02*
D03*
X00575000D02*
D03*
X00559000D02*
D03*
X00555000D02*
D03*
X00563000D02*
D03*
X00567000D02*
D03*
X00547000D02*
D03*
X00551000D02*
D03*
X00591000D02*
D03*
X00587000D02*
D03*
X00607000D02*
D03*
X00603000D02*
D03*
X00595000D02*
D03*
X00599000D02*
D03*
X00615000D02*
D03*
X00611000D02*
D03*
X00619000D02*
D03*
X00623000D02*
D03*
Y00188200D02*
D03*
X00619000D02*
D03*
X00611000D02*
D03*
X00615000D02*
D03*
X00599000D02*
D03*
X00595000D02*
D03*
X00603000D02*
D03*
X00607000D02*
D03*
X00587000D02*
D03*
X00591000D02*
D03*
X00551000D02*
D03*
X00547000D02*
D03*
X00567000D02*
D03*
X00563000D02*
D03*
X00555000D02*
D03*
X00559000D02*
D03*
X00575000D02*
D03*
X00571000D02*
D03*
X00579000D02*
D03*
X00583000D02*
D03*
X00511000D02*
D03*
X00507000D02*
D03*
X00527000D02*
D03*
X00523000D02*
D03*
X00515000D02*
D03*
X00519000D02*
D03*
X00535000D02*
D03*
X00531000D02*
D03*
X00539000D02*
D03*
X00543000D02*
D03*
X00471000D02*
D03*
X00467000D02*
D03*
X00487000D02*
D03*
X00483000D02*
D03*
X00475000D02*
D03*
X00479000D02*
D03*
X00495000D02*
D03*
X00491000D02*
D03*
X00499000D02*
D03*
X00503000D02*
D03*
X00431000D02*
D03*
X00427000D02*
D03*
X00447000D02*
D03*
X00443000D02*
D03*
X00435000D02*
D03*
X00439000D02*
D03*
X00455000D02*
D03*
X00451000D02*
D03*
X00459000D02*
D03*
X00463000D02*
D03*
D24*
X00070500Y00700750D02*
D03*
X00083500D02*
D03*
Y00679250D02*
D03*
X00077000D02*
D03*
X00070500D02*
D03*
D25*
X00179250Y00603500D02*
D03*
Y00616500D02*
D03*
X00200750D02*
D03*
X00200750Y00610000D02*
D03*
X00200750Y00603500D02*
D03*
D27*
X00529000Y00090334D02*
D03*
X00524000D02*
D03*
X00519000D02*
D03*
X00514000D02*
D03*
X00509000D02*
D03*
Y00131666D02*
D03*
X00514000D02*
D03*
X00519000D02*
D03*
X00524000D02*
D03*
D28*
X00529000D02*
D03*
D29*
X00493000Y00047500D02*
D03*
X00557000D02*
D03*
D30*
X00531500Y00055500D02*
D03*
X00525000Y00055500D02*
D03*
X00518500Y00055500D02*
D03*
X00512000Y00055500D02*
D03*
X00538000D02*
D03*
D31*
X00535500Y00025000D02*
D03*
X00514500D02*
D03*
D32*
X00415000Y00109500D02*
D03*
X00410000D02*
D03*
X00405000D02*
D03*
X00400000D02*
D03*
X00395000D02*
D03*
X00390000D02*
D03*
X00385000D02*
D03*
X00380000D02*
D03*
X00375000D02*
D03*
X00370000D02*
D03*
X00365000D02*
D03*
X00360000D02*
D03*
X00355000D02*
D03*
X00350000D02*
D03*
X00345000D02*
D03*
X00340000D02*
D03*
X00335000D02*
D03*
X00330000D02*
D03*
X00325000D02*
D03*
D33*
X00541000Y00129000D02*
D03*
Y00136900D02*
D03*
X00495000Y00130950D02*
D03*
Y00123050D02*
D03*
X00495000Y00138100D02*
D03*
Y00146000D02*
D03*
D35*
X00500000Y00069250D02*
D03*
Y00060750D02*
D03*
X00837000Y00165750D02*
D03*
Y00174250D02*
D03*
X00828000Y00165750D02*
D03*
Y00174250D02*
D03*
X00652000Y00395500D02*
D03*
Y00387000D02*
D03*
Y00407000D02*
D03*
Y00415500D02*
D03*
Y00355500D02*
D03*
Y00347000D02*
D03*
Y00375500D02*
D03*
Y00367000D02*
D03*
Y00427000D02*
D03*
Y00435500D02*
D03*
Y00315500D02*
D03*
Y00307000D02*
D03*
Y00335500D02*
D03*
Y00327000D02*
D03*
X00076561Y00485691D02*
D03*
Y00477191D02*
D03*
X00132000Y00456250D02*
D03*
Y00464750D02*
D03*
X00076000Y00467250D02*
D03*
Y00458750D02*
D03*
X00442000Y00798250D02*
D03*
Y00789750D02*
D03*
X00427000Y00751750D02*
D03*
Y00760250D02*
D03*
D36*
X00097000Y00486000D02*
D03*
X00087000D02*
D03*
X00625597Y00334053D02*
D03*
X00614597D02*
D03*
X00611500Y00381000D02*
D03*
X00600500D02*
D03*
X00112000Y00286000D02*
D03*
X00101000D02*
D03*
X00122500D02*
D03*
X00133500D02*
D03*
X00173000D02*
D03*
X00162000D02*
D03*
X00182500D02*
D03*
X00193500D02*
D03*
X00209500Y00517000D02*
D03*
X00198500D02*
D03*
X00188500Y00448000D02*
D03*
X00177500D02*
D03*
X00076394Y00447745D02*
D03*
X00066394D02*
D03*
X00076394Y00438968D02*
D03*
X00066394D02*
D03*
X00066397Y00486883D02*
D03*
X00056397D02*
D03*
X00042000Y00433000D02*
D03*
X00052000D02*
D03*
X00118177Y00432213D02*
D03*
X00108177D02*
D03*
D37*
X00211819Y00268946D02*
D03*
Y00174746D02*
D03*
X00101819Y00268946D02*
D03*
X00111819D02*
D03*
X00121819D02*
D03*
X00131819D02*
D03*
X00161819D02*
D03*
X00171819D02*
D03*
X00181819D02*
D03*
X00191819D02*
D03*
X00201819D02*
D03*
Y00174746D02*
D03*
X00191819D02*
D03*
X00181819D02*
D03*
X00171819D02*
D03*
X00161819D02*
D03*
X00151819D02*
D03*
X00141819D02*
D03*
X00131819D02*
D03*
X00121819D02*
D03*
X00111819D02*
D03*
X00101819D02*
D03*
X00151819Y00268946D02*
D03*
X00141819D02*
D03*
D38*
X00316750Y00151000D02*
D03*
X00325250D02*
D03*
X00341750Y00142000D02*
D03*
X00350250D02*
D03*
X00298750Y00151000D02*
D03*
X00307250D02*
D03*
X00323750Y00142000D02*
D03*
X00332250D02*
D03*
X00300250D02*
D03*
X00291750D02*
D03*
X00374250Y00151000D02*
D03*
X00365750D02*
D03*
X00347750D02*
D03*
X00356250D02*
D03*
X00372750Y00142000D02*
D03*
X00381250D02*
D03*
X00424250Y00151000D02*
D03*
X00415750D02*
D03*
X00397750D02*
D03*
X00406250D02*
D03*
X00399250Y00142000D02*
D03*
X00390750D02*
D03*
X00449250D02*
D03*
X00440750D02*
D03*
X00422750D02*
D03*
X00431250D02*
D03*
X00535250Y00071000D02*
D03*
X00526750D02*
D03*
X00508750D02*
D03*
X00517250D02*
D03*
X00596224Y00333965D02*
D03*
X00604724D02*
D03*
X00043750Y00778000D02*
D03*
X00052250D02*
D03*
X00043750Y00728000D02*
D03*
X00052250D02*
D03*
X00066445Y00477571D02*
D03*
X00057945D02*
D03*
X00643750Y00151000D02*
D03*
X00652250D02*
D03*
X00670250D02*
D03*
X00661750D02*
D03*
X00679750D02*
D03*
X00688250D02*
D03*
X00529250Y00765000D02*
D03*
X00520750D02*
D03*
X00492250D02*
D03*
X00483750D02*
D03*
X00534750Y00755000D02*
D03*
X00543250D02*
D03*
X00554750Y00714000D02*
D03*
X00563250D02*
D03*
X00515750D02*
D03*
X00524250D02*
D03*
X00495750Y00754000D02*
D03*
X00504250D02*
D03*
X00477750Y00811000D02*
D03*
X00486250D02*
D03*
X00528750D02*
D03*
X00537250D02*
D03*
X00477750Y00714000D02*
D03*
X00486250D02*
D03*
X00459750Y00754000D02*
D03*
X00468250D02*
D03*
X00440750Y00714000D02*
D03*
X00449250D02*
D03*
X00453250Y00764000D02*
D03*
X00444750D02*
D03*
X00274750Y00753000D02*
D03*
X00283250D02*
D03*
X00415250Y00765000D02*
D03*
X00406750D02*
D03*
X00299250D02*
D03*
X00290750D02*
D03*
X00325750Y00714000D02*
D03*
X00334250D02*
D03*
X00402750D02*
D03*
X00411250D02*
D03*
X00313750Y00753000D02*
D03*
X00322250D02*
D03*
X00376250Y00765000D02*
D03*
X00367750D02*
D03*
X00391750Y00753000D02*
D03*
X00400250D02*
D03*
X00287750Y00713000D02*
D03*
X00296250D02*
D03*
X00337250Y00765000D02*
D03*
X00328750D02*
D03*
X00363750Y00714000D02*
D03*
X00372250D02*
D03*
X00350750Y00753000D02*
D03*
X00359250D02*
D03*
D39*
X00609500Y00344750D02*
D03*
X00590500D02*
D03*
Y00369250D02*
D03*
X00600000D02*
D03*
X00609500D02*
D03*
X00208500Y00480750D02*
D03*
X00189500D02*
D03*
Y00505250D02*
D03*
X00199000D02*
D03*
X00208500D02*
D03*
D40*
X00675000Y00335500D02*
D03*
Y00346500D02*
D03*
Y00357500D02*
D03*
Y00368500D02*
D03*
Y00379500D02*
D03*
Y00390500D02*
D03*
Y00401500D02*
D03*
Y00412500D02*
D03*
Y00324500D02*
D03*
D41*
X00781000Y00467500D02*
D03*
Y00312500D02*
D03*
D42*
X00685000D02*
D03*
D43*
Y00458500D02*
D03*
D44*
X00015000Y00762500D02*
D03*
Y00777500D02*
D03*
Y00712500D02*
D03*
Y00727500D02*
D03*
D45*
X00158000Y00643500D02*
D03*
X00116000D02*
D03*
X00158000Y00688500D02*
D03*
X00116000D02*
D03*
D46*
X00193500Y00458000D02*
D03*
X00178500D02*
D03*
X00053500Y00454000D02*
D03*
X00038500D02*
D03*
X00053500Y00443000D02*
D03*
X00038500D02*
D03*
D47*
X00187094Y00437309D02*
D03*
X00182094D02*
D03*
X00177094D02*
D03*
Y00417809D02*
D03*
X00182094D02*
D03*
X00187094D02*
D03*
D48*
X00185000Y00372000D02*
D03*
X00229000D02*
D03*
D49*
X00210000Y00415500D02*
D03*
Y00430500D02*
D03*
D50*
X00145750Y00362499D02*
D03*
X00033250D02*
D03*
D51*
X00085000Y00498998D02*
D03*
X00105000D02*
D03*
X00085000Y00515498D02*
D03*
X00105000D02*
D03*
D52*
X00121790Y00465465D02*
D03*
Y00450465D02*
D03*
X00087789D02*
D03*
Y00465465D02*
D03*
D53*
X00114789Y00440965D02*
D03*
X00109789D02*
D03*
X00104789D02*
D03*
X00099789D02*
D03*
X00094789D02*
D03*
Y00474965D02*
D03*
X00099789D02*
D03*
X00104789D02*
D03*
X00109789D02*
D03*
X00114789D02*
D03*
D93*
X00107300Y00143700D02*
D03*
X00198700D02*
D03*
X00084400D02*
D03*
X00221600D02*
D03*
D105*
X00845000Y00800000D02*
G03*
X00810000Y00835000I-00035000J00000000D01*
G01*
Y00005000D02*
G03*
X00845000Y00040000I00000000J00035000D01*
G01*
X00040000Y00835000D02*
G03*
X00005000Y00800000I00000000J-00035000D01*
G01*
Y00040000D02*
G03*
X00040000Y00005000I00035000J00000000D01*
G01*
X00052500D01*
X00072500D02*
X00102500D01*
X00122500D01*
X00132500D02*
X00162500D01*
X00202500Y00835000D02*
X00222500D01*
X00262500D01*
X00302500D02*
X00322500D01*
X00342500D01*
X00322500D02*
X00382500D01*
X00322500D02*
X00412500D01*
X00432500Y00005000D02*
X00462500D01*
X00432500D02*
X00482500D01*
X00432500D02*
X00542500D01*
X00432500D02*
X00592500D01*
X00612500D02*
X00642500D01*
X00682500Y00005000D02*
X00702500D01*
X00682500D02*
X00772500D01*
X00682500D02*
X00792500D01*
X00845000Y00040000D02*
Y00060000D01*
Y00040000D02*
Y00070000D01*
Y00040000D02*
Y00110000D01*
Y00170000D02*
Y00220000D01*
Y00040000D02*
Y00150000D01*
Y00240000D02*
Y00250000D01*
Y00300000D02*
Y00330000D01*
Y00360000D01*
Y00330000D02*
Y00380000D01*
Y00430000D02*
Y00470000D01*
Y00430000D02*
Y00500000D01*
Y00330000D02*
Y00390000D01*
X00432500Y00835000D02*
X00462500D01*
X00432500D02*
X00502500D01*
X00432500D02*
X00522500D01*
X00432500D02*
X00552500D01*
X00432500D02*
X00572500D01*
X00845000Y00430000D02*
Y00520000D01*
Y00580000D02*
Y00600000D01*
Y00430000D02*
Y00540000D01*
Y00600000D02*
Y00630000D01*
Y00600000D02*
Y00650000D01*
Y00700000D02*
Y00740000D01*
Y00600000D02*
Y00670000D01*
X00432500Y00835000D02*
X00602500D01*
X00432500D02*
X00622500D01*
X00662500D02*
X00672500D01*
X00682500Y00835000D02*
X00722500D01*
X00845000Y00740000D02*
Y00770000D01*
X00682500Y00835000D02*
X00762500D01*
X00682500D02*
X00782500D01*
X00052500Y00005000D02*
X00072500D01*
X00172500Y00835000D02*
X00202500D01*
X00262500D02*
X00302500D01*
X00592500Y00005000D02*
X00612500D01*
X00792500Y00005000D02*
X00810000D01*
X00845000Y00150000D02*
Y00170000D01*
Y00040000D02*
Y00240000D01*
Y00390000D02*
Y00430000D01*
Y00540000D02*
Y00580000D01*
Y00670000D02*
Y00700000D01*
X00622500Y00835000D02*
X00662500D01*
X00782500Y00835000D02*
X00810000D01*
X00122500Y00005000D02*
X00132500D01*
X00412500Y00835000D02*
X00422500D01*
X00642500Y00005000D02*
X00672500D01*
X00845000Y00250000D02*
Y00300000D01*
Y00770000D02*
Y00800000D01*
X00492000Y00070000D02*
X00500750D01*
X00672500Y00835000D02*
X00682500Y00835000D01*
X00422500Y00835000D02*
X00432500Y00835000D01*
X00162500Y00835000D02*
X00172500Y00835000D01*
X00152500Y00835000D02*
X00162500D01*
X00142500D02*
X00152500D01*
X00132500D02*
X00142500D01*
X00122500D02*
X00132500D01*
X00112500D02*
X00122500D01*
X00102500D02*
X00112500D01*
X00082500D02*
X00102500D01*
X00072500D02*
X00082500D01*
X00062500D02*
X00072500D01*
X00042500D02*
X00062500D01*
X00040000D02*
X00042500D01*
X00672500Y00005000D02*
X00682500Y00005000D01*
X00422500Y00005000D02*
X00432500Y00005000D01*
X00412500Y00005000D02*
X00422500D01*
X00402500D02*
X00412500D01*
X00392500D02*
X00402500D01*
X00382500D02*
X00392500D01*
X00372500D02*
X00382500D01*
X00362500D02*
X00372500D01*
X00352500D02*
X00362500D01*
X00342500D02*
X00352500D01*
X00332500D02*
X00342500D01*
X00322500D02*
X00332500D01*
X00312500D02*
X00322500D01*
X00302500D02*
X00312500D01*
X00292500D02*
X00302500D01*
X00282500D02*
X00292500D01*
X00272500D02*
X00282500D01*
X00262500D02*
X00272500D01*
X00252500D02*
X00262500D01*
X00242500D02*
X00252500D01*
X00232500D02*
X00242500D01*
X00222500D02*
X00232500D01*
X00212500D02*
X00222500D01*
X00202500D02*
X00212500D01*
X00192500D02*
X00202500D01*
X00182500D02*
X00192500D01*
X00172500D02*
X00182500D01*
X00162500Y00005000D02*
X00172500Y00005000D01*
X00005000Y00790000D02*
Y00800000D01*
Y00780000D02*
Y00790000D01*
Y00770000D02*
Y00780000D01*
Y00760000D02*
Y00770000D01*
Y00750000D02*
Y00760000D01*
Y00740000D02*
Y00750000D01*
Y00730000D02*
Y00740000D01*
Y00720000D02*
Y00730000D01*
Y00710000D02*
Y00720000D01*
Y00700000D02*
Y00710000D01*
Y00690000D02*
Y00700000D01*
Y00680000D02*
Y00690000D01*
Y00670000D02*
Y00680000D01*
Y00660000D02*
Y00670000D01*
Y00650000D02*
Y00660000D01*
Y00640000D02*
Y00650000D01*
Y00630000D02*
Y00640000D01*
Y00620000D02*
Y00630000D01*
Y00610000D02*
Y00620000D01*
Y00600000D02*
Y00610000D01*
Y00590000D02*
Y00600000D01*
Y00580000D02*
Y00590000D01*
Y00570000D02*
Y00580000D01*
Y00560000D02*
Y00570000D01*
Y00550000D02*
Y00560000D01*
Y00540000D02*
Y00550000D01*
Y00530000D02*
Y00540000D01*
Y00520000D02*
Y00530000D01*
Y00510000D02*
Y00520000D01*
Y00500000D02*
Y00510000D01*
Y00490000D02*
Y00500000D01*
Y00480000D02*
Y00490000D01*
Y00470000D02*
Y00480000D01*
Y00460000D02*
Y00470000D01*
Y00450000D02*
Y00460000D01*
Y00440000D02*
Y00450000D01*
Y00430000D02*
Y00440000D01*
Y00420000D02*
Y00430000D01*
Y00410000D02*
Y00420000D01*
Y00400000D02*
Y00410000D01*
Y00390000D02*
Y00400000D01*
Y00380000D02*
Y00390000D01*
Y00370000D02*
Y00380000D01*
Y00360000D02*
Y00370000D01*
Y00350000D02*
Y00360000D01*
Y00340000D02*
Y00350000D01*
Y00330000D02*
Y00340000D01*
Y00320000D02*
Y00330000D01*
Y00310000D02*
Y00320000D01*
Y00300000D02*
Y00310000D01*
Y00290000D02*
Y00300000D01*
Y00280000D02*
Y00290000D01*
Y00270000D02*
Y00280000D01*
Y00260000D02*
Y00270000D01*
Y00250000D02*
Y00260000D01*
Y00240000D02*
Y00250000D01*
Y00230000D02*
Y00240000D01*
Y00220000D02*
Y00230000D01*
Y00210000D02*
Y00220000D01*
Y00200000D02*
Y00210000D01*
Y00190000D02*
Y00200000D01*
Y00180000D02*
Y00190000D01*
Y00170000D02*
Y00180000D01*
Y00160000D02*
Y00170000D01*
Y00150000D02*
Y00160000D01*
Y00140000D02*
Y00150000D01*
Y00130000D02*
Y00140000D01*
Y00120000D02*
Y00130000D01*
Y00110000D02*
Y00120000D01*
Y00100000D02*
Y00110000D01*
Y00090000D02*
Y00100000D01*
Y00080000D02*
Y00090000D01*
Y00070000D02*
Y00080000D01*
Y00060000D02*
Y00070000D01*
Y00050000D02*
Y00060000D01*
Y00040000D02*
Y00050000D01*
Y00040000D02*
Y00040000D01*
X00652250Y00152250D02*
X00657000Y00157000D01*
X00661750Y00152250D01*
X00652250Y00151000D02*
Y00152250D01*
X00643750Y00147350D02*
Y00151000D01*
X00641768Y00145368D02*
X00643750Y00147350D01*
X00641768Y00130868D02*
Y00145368D01*
X00640000Y00129100D02*
X00641768Y00130868D01*
X00535250Y00071000D02*
X00542000D01*
X00500750Y00070000D02*
X00501750Y00071000D01*
X00508750D01*
X00688250Y00152250D02*
X00693000Y00157000D01*
X00688250Y00151000D02*
Y00152250D01*
X00661750Y00151000D02*
Y00152250D01*
X00538000Y00802000D02*
Y00810250D01*
X00537250Y00811000D02*
X00538000Y00810250D01*
X00486000Y00802000D02*
X00486250Y00802250D01*
Y00811000D01*
X00434000Y00787000D02*
X00436750Y00789750D01*
X00442000D01*
X00524250Y00705750D02*
X00525000Y00705000D01*
X00524250Y00705750D02*
Y00714000D01*
X00486250Y00710750D02*
Y00714000D01*
X00492000Y00705000D02*
Y00705000D01*
X00486250Y00710750D02*
X00492000Y00705000D01*
X00504250Y00754000D02*
X00514000D01*
X00449000Y00519000D02*
Y00536000D01*
X00675000Y00357500D02*
X00693500D01*
X00468000Y00754250D02*
X00468250Y00754000D01*
X00468000Y00754250D02*
Y00763000D01*
X00511000Y00765000D02*
X00520750D01*
X00543250Y00755000D02*
X00552000D01*
X00563250Y00714000D02*
X00571000D01*
X00449250Y00707250D02*
Y00714000D01*
X00411000Y00705000D02*
X00411250Y00705250D01*
Y00714000D01*
X00372250Y00705250D02*
Y00714000D01*
X00334250Y00710250D02*
Y00714000D01*
X00329000Y00705000D02*
X00334250Y00710250D01*
X00296250Y00705250D02*
Y00713000D01*
D106*
X00121790Y00465465D02*
G03*
X00122169Y00465085I00000380J00000000D01*
G01*
X00658500Y00335500D02*
X00661000Y00338000D01*
X00652000Y00335500D02*
X00658500D01*
X00661000Y00338000D02*
Y00344000D01*
X00663500Y00346500D01*
X00642500Y00335500D02*
X00652000D01*
X00636000Y00320000D02*
Y00335000D01*
Y00320000D02*
X00640500Y00315500D01*
X00652000D01*
X00576000Y00362000D02*
X00609000D01*
X00636000Y00335000D01*
X00580000Y00371000D02*
Y00377000D01*
X00597000Y00394000D01*
X00431000Y00545000D02*
X00434998Y00548998D01*
X00423000Y00545000D02*
X00431000D01*
X00434998Y00548998D02*
Y00555501D01*
X00597000Y00394000D02*
X00617901D01*
X00269790Y00235491D02*
X00289299Y00255000D01*
X00327000Y00494000D02*
X00332000Y00489000D01*
Y00481000D02*
X00341000Y00472000D01*
X00332000Y00481000D02*
Y00489000D01*
X00288000Y00494000D02*
X00327000D01*
X00275000Y00507000D02*
X00288000Y00494000D01*
X00275000Y00507000D02*
Y00615000D01*
X00676000Y00285000D02*
X00683000D01*
X00015000Y00727500D02*
X00015000Y00727500D01*
X00098000Y00700000D02*
X00190000D01*
X00275000Y00615000D01*
X00043250Y00727500D02*
X00043750Y00728000D01*
X00015000Y00727500D02*
X00043250D01*
X00080000Y00691000D02*
X00089000D01*
X00077000Y00676500D02*
Y00688000D01*
X00080000Y00691000D01*
X00089000D02*
X00098000Y00700000D01*
X00191754Y00174811D02*
Y00194783D01*
Y00174811D02*
X00191819Y00174746D01*
X00594999Y00561998D02*
X00597000Y00564000D01*
X00647000Y00357000D02*
X00648500Y00355500D01*
X00642000Y00357000D02*
X00647000D01*
X00648500Y00355500D02*
X00652000D01*
X00631000Y00351000D02*
X00631212Y00350788D01*
Y00346788D02*
Y00350788D01*
Y00346788D02*
X00642500Y00335500D01*
X00657000Y00255000D02*
X00677000Y00275000D01*
X00289299Y00255000D02*
X00657000D01*
X00274500Y00260000D02*
X00651000D01*
X00676000Y00285000D01*
X00267020Y00252520D02*
X00274500Y00260000D01*
X00562999Y00535499D02*
X00563998D01*
X00562999Y00528201D02*
Y00535499D01*
X00558998Y00547001D02*
Y00555501D01*
X00539000Y00549000D02*
Y00549500D01*
Y00549000D02*
X00539000D01*
X00541000Y00547000D01*
X00538998Y00555501D02*
X00539000Y00549500D01*
X00518998Y00547000D02*
Y00555501D01*
X00503020Y00564020D02*
X00504699D01*
Y00562801D02*
Y00564020D01*
Y00562801D02*
X00506998Y00560502D01*
Y00555501D02*
Y00560502D01*
X00582999Y00528201D02*
Y00532499D01*
X00586000Y00535500D01*
Y00537000D01*
X00596000D02*
X00598998Y00534002D01*
Y00528201D02*
Y00534002D01*
X00122169Y00465085D02*
X00132760D01*
X00509000Y00568000D02*
X00510998Y00566002D01*
Y00555501D02*
Y00566002D01*
X00657500Y00355500D02*
X00660000Y00358000D01*
X00652000Y00355500D02*
X00657500D01*
X00660000Y00358000D02*
Y00366000D01*
X00662500Y00368500D01*
X00675000D01*
X00628000Y00394000D02*
X00635000Y00387000D01*
X00652000D01*
X00617901Y00394000D02*
X00617921Y00393980D01*
X00622079D01*
X00622099Y00394000D01*
X00628000D01*
X00663500Y00346500D02*
X00675000D01*
X00490998Y00547001D02*
Y00555501D01*
X00664500Y00335500D02*
X00675000D01*
X00661000Y00332000D02*
X00664500Y00335500D01*
X00661000Y00318000D02*
Y00332000D01*
X00658500Y00315500D02*
X00661000Y00318000D01*
X00652000Y00315500D02*
X00658500D01*
X00486998Y00549002D02*
X00487000Y00549000D01*
X00486998Y00549002D02*
Y00555501D01*
X00509000Y00568000D02*
Y00570000D01*
X00594999Y00555501D02*
Y00561998D01*
X00590998Y00555501D02*
Y00562001D01*
X00589000Y00564000D02*
X00590998Y00562001D01*
X00502999Y00522999D02*
Y00528201D01*
X00501000Y00521000D02*
X00502999Y00522999D01*
X00500000Y00521000D02*
X00501000D01*
X00498000Y00519000D02*
X00500000Y00521000D01*
X00161819Y00174746D02*
Y00194819D01*
X00131819Y00174746D02*
Y00194819D01*
X00498998Y00545001D02*
Y00555501D01*
Y00545001D02*
X00501000Y00543000D01*
X00485000Y00544000D02*
Y00547000D01*
X00487000Y00549000D01*
X00490998Y00547001D02*
X00492999Y00545001D01*
Y00543999D02*
Y00545001D01*
X00493461Y00543999D02*
X00493730Y00543730D01*
X00492999Y00543999D02*
X00493461D01*
X00114754Y00475000D02*
X00114789Y00474965D01*
D107*
X00182094Y00427559D02*
D03*
D108*
X00168000Y00465000D02*
D03*
D109*
X00104789Y00457965D02*
D03*
D110*
X00169000Y00609000D02*
Y00616000D01*
Y00609000D02*
X00186000D01*
X00193500Y00616500D01*
X00200750D01*
X00422000Y00142000D02*
X00422750Y00142750D01*
X00372000Y00142000D02*
X00372750Y00142750D01*
X00399250D02*
X00400000Y00142000D01*
X00323000D02*
X00323750Y00142750D01*
X00300250D02*
X00301000Y00142000D01*
X00055000Y00674000D02*
X00059000Y00670000D01*
X00055000Y00674000D02*
Y00685000D01*
X00059000Y00670000D02*
X00081157D01*
X00083500Y00672343D02*
Y00679250D01*
X00081157Y00670000D02*
X00083500Y00672343D01*
X00055000Y00685000D02*
X00062000D01*
X00316000Y00140541D02*
X00316750Y00141291D01*
Y00151000D01*
X00316000Y00140000D02*
Y00140541D01*
X00450250Y00142750D02*
X00453209D01*
X00455459Y00145000D01*
X00456000D01*
X00449500Y00142000D02*
X00450250Y00142750D01*
X00449250Y00142000D02*
X00449500D01*
X00301000D02*
X00301250D01*
X00325250Y00151000D02*
Y00157750D01*
X00322750Y00142000D02*
X00323000D01*
X00298750Y00151000D02*
Y00157750D01*
X00323750Y00142750D02*
Y00145750D01*
X00324250Y00146250D01*
Y00150250D01*
X00300250Y00142750D02*
Y00145750D01*
X00299750Y00146250D02*
X00300250Y00145750D01*
X00299750Y00146250D02*
Y00150250D01*
X00429657Y00151750D02*
X00432907Y00155000D01*
X00433000D01*
X00421750Y00142000D02*
X00422000D01*
X00425250Y00151750D02*
X00429657D01*
X00424500Y00151000D02*
X00425250Y00151750D01*
X00424250Y00151000D02*
X00424500D01*
X00400000Y00142000D02*
X00400250D01*
X00399250Y00142750D02*
Y00145750D01*
X00398750Y00146250D02*
X00399250Y00145750D01*
X00398750Y00146250D02*
Y00150250D01*
X00397750Y00151000D02*
Y00157750D01*
X00422750Y00142750D02*
Y00145750D01*
X00423250Y00146250D01*
Y00150250D01*
X00371750Y00142000D02*
X00372000D01*
X00372750Y00142750D02*
Y00145750D01*
X00373250Y00146250D01*
Y00150250D01*
X00374250Y00151000D02*
Y00157750D01*
X00347750Y00151000D02*
Y00157750D01*
X00348750Y00146250D02*
Y00150250D01*
Y00146250D02*
X00349250Y00145750D01*
Y00142750D02*
X00350000Y00142000D01*
X00349250Y00142750D02*
Y00145750D01*
X00350000Y00142000D02*
X00350250D01*
D111*
X00558000Y00108000D02*
X00581460Y00131460D01*
X00620052D01*
X00580408Y00134000D02*
X00619000D01*
X00620052Y00131460D02*
X00633540Y00144948D01*
X00619000Y00134000D02*
X00631000Y00146000D01*
X00556948Y00110540D02*
X00580408Y00134000D01*
X00499948Y00110540D02*
X00556948D01*
X00501000Y00108000D02*
X00558000D01*
X00666143Y00166000D02*
X00669000D01*
X00665089Y00164946D02*
X00666143Y00166000D01*
X00665089Y00163966D02*
Y00164946D01*
X00664035Y00162912D02*
X00665089Y00163966D01*
X00660873Y00162912D02*
X00664035D01*
X00659819Y00163966D02*
X00660873Y00162912D01*
X00659819Y00163966D02*
Y00164946D01*
X00658765Y00166000D02*
X00659819Y00164946D01*
X00655603Y00166000D02*
X00658765D01*
X00654549Y00164946D02*
X00655603Y00166000D01*
X00654549Y00162660D02*
Y00164946D01*
X00653495Y00161606D02*
X00654549Y00162660D01*
X00650333Y00161606D02*
X00653495D01*
X00649279Y00162660D02*
X00650333Y00161606D01*
X00649279Y00162660D02*
Y00164946D01*
X00648225Y00166000D02*
X00649279Y00164946D01*
X00643008Y00166000D02*
X00648225D01*
X00642955Y00165947D02*
X00643008Y00166000D01*
X00642320Y00165312D02*
X00642955Y00165947D01*
X00633540Y00156532D02*
X00642320Y00165312D01*
X00641956Y00168540D02*
X00670052D01*
X00633540Y00144948D02*
Y00156532D01*
X00631000Y00157584D02*
X00641956Y00168540D01*
X00631000Y00146000D02*
Y00157584D01*
X00676270Y00153859D02*
X00677014Y00153115D01*
X00677635D01*
X00676270Y00153859D02*
Y00162322D01*
X00677635Y00153115D02*
X00679750Y00151000D01*
X00677014Y00148885D02*
X00677635D01*
X00670052Y00168540D02*
X00670796Y00167796D01*
Y00167796D02*
X00676270Y00162322D01*
X00670796Y00167796D02*
Y00167796D01*
X00677635Y00148885D02*
X00679750Y00151000D01*
X00676270Y00137728D02*
X00684898Y00129100D01*
X00685000D01*
X00676270Y00139832D02*
Y00148141D01*
X00677014Y00148885D01*
X00676270Y00137728D02*
Y00139832D01*
X00676270Y00139832D02*
X00676270Y00139832D01*
X00491460Y00102052D02*
X00499948Y00110540D01*
X00491460Y00083948D02*
Y00102052D01*
X00514000Y00083767D02*
Y00090334D01*
X00512770Y00082537D02*
X00514000Y00083767D01*
X00510538Y00077457D02*
X00512770Y00079689D01*
Y00082537D01*
X00491460Y00083948D02*
X00496511Y00078897D01*
X00497950Y00077457D02*
X00510538D01*
X00496511Y00078897D02*
X00497950Y00077457D01*
X00673730Y00153859D02*
Y00161270D01*
X00672986Y00148885D02*
X00673730Y00148141D01*
X00669000Y00166000D02*
X00673730Y00161270D01*
X00672986Y00153115D02*
X00673730Y00153859D01*
Y00138780D02*
X00673730Y00138780D01*
Y00137728D02*
Y00138780D01*
X00673730Y00138780D02*
Y00148141D01*
X00665102Y00129100D02*
X00673730Y00137728D01*
X00672365Y00153115D02*
X00672986D01*
X00670250Y00151000D02*
X00672365Y00148885D01*
X00670250Y00151000D02*
X00672365Y00153115D01*
Y00148885D02*
X00672986D01*
X00665000Y00129100D02*
X00665102D01*
X00494062Y00101062D02*
X00501000Y00108000D01*
X00494000Y00101000D02*
X00494062Y00101062D01*
X00494000Y00098783D02*
X00495054Y00097729D01*
X00496966D01*
X00494000Y00098783D02*
Y00101000D01*
X00509000Y00083767D02*
Y00090334D01*
Y00083767D02*
X00510230Y00082537D01*
X00494000Y00085000D02*
X00499002Y00079998D01*
X00510230Y00080741D02*
Y00082537D01*
X00509486Y00079998D02*
X00510230Y00080741D01*
X00499002Y00079998D02*
X00509486D01*
X00498020Y00093513D02*
Y00096675D01*
X00496966Y00092459D02*
X00498020Y00093513D01*
X00496966Y00097729D02*
X00498020Y00096675D01*
X00494000Y00091405D02*
X00495054Y00092459D01*
X00496966D01*
X00494000Y00085000D02*
Y00085500D01*
Y00091405D01*
X00524635Y00073115D02*
X00526750Y00071000D01*
X00524000Y00083767D02*
Y00090334D01*
X00524014Y00073115D02*
X00524635D01*
X00522770Y00082537D02*
X00524000Y00083767D01*
X00522770Y00080659D02*
Y00082537D01*
Y00080659D02*
X00523270Y00080159D01*
Y00073859D02*
X00524014Y00073115D01*
X00523270Y00073859D02*
Y00080159D01*
X00520230Y00079607D02*
X00520730Y00079107D01*
Y00073859D02*
Y00079107D01*
X00519000Y00083767D02*
X00520230Y00082537D01*
Y00079607D02*
Y00082537D01*
X00519986Y00073115D02*
X00520730Y00073859D01*
X00519365Y00073115D02*
X00519986D01*
X00517250Y00071000D02*
X00519365Y00073115D01*
X00519000Y00083767D02*
Y00090334D01*
X00524014Y00068885D02*
X00524635D01*
X00523270Y00068141D02*
X00524014Y00068885D01*
X00518500Y00064000D02*
X00519865Y00065365D01*
X00523270Y00065730D02*
X00525000Y00064000D01*
X00523270Y00065730D02*
Y00068141D01*
X00518500Y00055500D02*
Y00064000D01*
X00519365Y00068885D02*
X00519986D01*
X00517250Y00071000D02*
X00519365Y00068885D01*
X00525000Y00055500D02*
Y00064000D01*
X00524635Y00068885D02*
X00526750Y00071000D01*
X00519986Y00065365D02*
X00520730Y00066109D01*
X00519865Y00065365D02*
X00519986D01*
Y00068885D02*
X00520730Y00068141D01*
Y00066109D02*
Y00068141D01*
X00262905Y00042238D02*
Y00187719D01*
X00259635Y00043593D02*
Y00186365D01*
X00239000Y00207000D02*
X00259635Y00186365D01*
X00240354Y00210270D02*
X00262905Y00187719D01*
X00641000Y00215093D02*
Y00220660D01*
X00639946Y00214039D02*
X00641000Y00215093D01*
X00639554Y00214039D02*
X00639946D01*
X00638500Y00212985D02*
X00639554Y00214039D01*
X00638500Y00209823D02*
Y00212985D01*
Y00209823D02*
X00639554Y00208769D01*
X00639946D01*
X00641000Y00207715D01*
Y00204553D02*
Y00207715D01*
X00639946Y00203499D02*
X00641000Y00204553D01*
X00639554Y00203499D02*
X00639946D01*
X00638500Y00202445D02*
X00639554Y00203499D01*
X00638500Y00199283D02*
Y00202445D01*
Y00199283D02*
X00639554Y00198229D01*
X00639946D01*
X00641000Y00197175D01*
Y00194013D02*
Y00197175D01*
X00639946Y00192959D02*
X00641000Y00194013D01*
X00639554Y00192959D02*
X00639946D01*
X00638500Y00191905D02*
X00639554Y00192959D01*
X00638500Y00188743D02*
Y00191905D01*
Y00188743D02*
X00639554Y00187689D01*
X00639946D01*
X00641000Y00186635D01*
Y00186000D02*
Y00186635D01*
Y00220660D02*
Y00221002D01*
Y00180000D02*
Y00186000D01*
X00359365Y00166989D02*
X00372376Y00180000D01*
X00373730Y00176730D02*
X00445924D01*
X00362635Y00165635D02*
X00373730Y00176730D01*
X00444570Y00180000D02*
X00447365Y00182795D01*
X00372376Y00180000D02*
X00444570D01*
X00445924Y00176730D02*
X00450635Y00181441D01*
X00394376Y00172000D02*
X00455000D01*
X00456354Y00168730D02*
X00462635Y00175011D01*
X00395730Y00168730D02*
X00456354D01*
X00387635Y00160635D02*
X00395730Y00168730D01*
X00384365Y00161989D02*
X00394376Y00172000D01*
X00455000D02*
X00459365Y00176365D01*
X00416354Y00160730D02*
X00469355D01*
X00471365Y00167365D02*
Y00184605D01*
X00474635Y00166010D02*
Y00184605D01*
X00469355Y00160730D02*
X00474635Y00166010D01*
X00415000Y00164000D02*
X00468000D01*
X00471365Y00167365D01*
X00409365Y00158365D02*
X00415000Y00164000D01*
X00412635Y00157011D02*
X00416354Y00160730D01*
X00412635Y00153859D02*
Y00157011D01*
X00409365Y00153859D02*
Y00158365D01*
X00408621Y00153115D02*
X00409365Y00153859D01*
X00412635D02*
X00413379Y00153115D01*
X00413635D02*
X00415750Y00151000D01*
X00413379Y00153115D02*
X00413635D01*
X00366635Y00126000D02*
Y00138077D01*
Y00126000D02*
X00369135Y00123500D01*
Y00110365D02*
X00370000Y00109500D01*
X00369135Y00110365D02*
Y00123500D01*
X00363635Y00148885D02*
X00365750Y00151000D01*
X00363379Y00148885D02*
X00363635D01*
X00362635Y00148141D02*
X00363379Y00148885D01*
X00362635Y00142078D02*
X00366635Y00138077D01*
X00362635Y00142078D02*
Y00148141D01*
X00363365Y00126000D02*
Y00136723D01*
X00359365Y00140723D02*
Y00148141D01*
Y00140723D02*
X00363365Y00136723D01*
X00360865Y00123500D02*
X00363365Y00126000D01*
X00360000Y00109500D02*
X00360865Y00110365D01*
Y00123500D01*
X00358365Y00148885D02*
X00358621D01*
X00356250Y00151000D02*
X00358365Y00148885D01*
X00358621D02*
X00359365Y00148141D01*
X00447000Y00188200D02*
X00447365Y00187835D01*
X00450635D02*
X00451000Y00188200D01*
X00447365Y00182795D02*
Y00187835D01*
X00450635Y00181441D02*
Y00187835D01*
X00356250Y00151000D02*
X00358365Y00153115D01*
X00358621D01*
X00362635Y00153859D02*
X00363379Y00153115D01*
X00362635Y00153859D02*
Y00165635D01*
X00363379Y00153115D02*
X00363635D01*
X00365750Y00151000D01*
X00359365Y00153859D02*
Y00166989D01*
X00358621Y00153115D02*
X00359365Y00153859D01*
X00462635Y00175011D02*
Y00187835D01*
X00459365Y00176365D02*
Y00187835D01*
X00388379Y00139885D02*
X00388635D01*
X00390750Y00142000D01*
X00387635Y00135990D02*
Y00139141D01*
X00388379Y00139885D01*
X00381635Y00129991D02*
X00387635Y00135990D01*
X00381635Y00126000D02*
Y00129991D01*
Y00126000D02*
X00384135Y00123500D01*
Y00110365D02*
X00385000Y00109500D01*
X00384135Y00110365D02*
Y00123500D01*
X00381250Y00142000D02*
X00383365Y00139885D01*
X00383621D02*
X00384365Y00139141D01*
Y00137345D02*
Y00139141D01*
X00383365Y00139885D02*
X00383621D01*
X00378365Y00131345D02*
X00384365Y00137345D01*
X00378365Y00126000D02*
Y00131345D01*
X00375865Y00123500D02*
X00378365Y00126000D01*
X00375000Y00109500D02*
X00375865Y00110365D01*
Y00123500D01*
X00459000Y00188200D02*
X00459365Y00187835D01*
X00462635D02*
X00463000Y00188200D01*
X00381250Y00142000D02*
X00383365Y00144115D01*
X00383621D01*
X00384365Y00144859D01*
Y00161989D01*
X00387635Y00144859D02*
Y00160635D01*
Y00144859D02*
X00388379Y00144115D01*
X00388635D01*
X00390750Y00142000D01*
X00471365Y00184605D02*
Y00187835D01*
X00483365Y00159365D02*
Y00187835D01*
X00480354Y00151730D02*
X00486635Y00158011D01*
X00479000Y00155000D02*
X00483365Y00159365D01*
X00441356Y00155000D02*
X00479000D01*
X00442710Y00151730D02*
X00480354D01*
X00486635Y00158011D02*
Y00187835D01*
X00437635Y00146655D02*
X00442710Y00151730D01*
X00434365Y00148010D02*
X00441356Y00155000D01*
X00406250Y00151000D02*
X00408365Y00148885D01*
X00408621D02*
X00409365Y00148141D01*
Y00140365D02*
Y00148141D01*
X00408365Y00148885D02*
X00408621D01*
X00403270Y00134270D02*
X00409365Y00140365D01*
X00398280Y00134270D02*
X00403270D01*
X00393365Y00129354D02*
X00398280Y00134270D01*
X00393365Y00126000D02*
Y00129354D01*
X00390865Y00123500D02*
X00393365Y00126000D01*
X00390865Y00110365D02*
Y00123500D01*
X00390000Y00109500D02*
X00390865Y00110365D01*
X00413379Y00148885D02*
X00413635D01*
X00415750Y00151000D01*
X00412635Y00148141D02*
X00413379Y00148885D01*
X00412635Y00139011D02*
Y00148141D01*
X00404624Y00131000D02*
X00412635Y00139011D01*
X00399635Y00131000D02*
X00404624D01*
X00396635Y00128000D02*
X00399635Y00131000D01*
X00396635Y00126000D02*
Y00128000D01*
X00399135Y00110365D02*
X00400000Y00109500D01*
X00396635Y00126000D02*
X00399135Y00123500D01*
Y00110365D02*
Y00123500D01*
X00471000Y00188200D02*
X00471365Y00187835D01*
X00474635D02*
X00475000Y00188200D01*
X00474635Y00184605D02*
X00474635Y00184605D01*
X00408365Y00153115D02*
X00408621D01*
X00474635Y00184605D02*
Y00187835D01*
X00406250Y00151000D02*
X00408365Y00153115D01*
X00431250Y00142000D02*
X00433365Y00139885D01*
X00434365Y00137345D02*
Y00139141D01*
X00430290Y00133270D02*
X00434365Y00137345D01*
X00433365Y00139885D02*
X00433621D01*
X00434365Y00139141D01*
X00412281Y00133270D02*
X00430290D01*
X00408365Y00129354D02*
X00412281Y00133270D01*
X00408365Y00126000D02*
Y00129354D01*
X00405865Y00123500D02*
X00408365Y00126000D01*
X00405865Y00110365D02*
Y00123500D01*
X00405000Y00109500D02*
X00405865Y00110365D01*
X00438635Y00139885D02*
X00440750Y00142000D01*
X00438379Y00139885D02*
X00438635D01*
X00437635Y00139141D02*
X00438379Y00139885D01*
X00437635Y00135990D02*
Y00139141D01*
X00431645Y00130000D02*
X00437635Y00135990D01*
X00413635Y00130000D02*
X00431645D01*
X00411635Y00128000D02*
X00413635Y00130000D01*
X00411635Y00126000D02*
Y00128000D01*
X00414135Y00110365D02*
X00415000Y00109500D01*
X00411635Y00126000D02*
X00414135Y00123500D01*
Y00110365D02*
Y00123500D01*
X00433365Y00144115D02*
X00433621D01*
X00434365Y00144859D01*
Y00148010D01*
X00431250Y00142000D02*
X00433365Y00144115D01*
X00483000Y00188200D02*
X00483365Y00187835D01*
X00437635Y00144859D02*
X00438379Y00144115D01*
X00486635Y00187835D02*
X00487000Y00188200D01*
X00438379Y00144115D02*
X00438635D01*
X00437635Y00144859D02*
Y00146655D01*
X00438635Y00144115D02*
X00440750Y00142000D01*
X00524052Y00150460D02*
X00615052D01*
X00523000Y00153000D02*
X00614000D01*
X00641000Y00180000D01*
X00515230Y00145230D02*
X00523000Y00153000D01*
X00615052Y00150460D02*
X00643540Y00178948D01*
X00517770Y00144178D02*
X00524052Y00150460D01*
X00515230Y00139462D02*
Y00145230D01*
X00517770Y00139462D02*
Y00144178D01*
X00634002Y00228000D02*
X00638002Y00224000D01*
X00641000Y00221002D01*
X00622000Y00228000D02*
X00634002D01*
X00619000Y00215500D02*
Y00218000D01*
X00618270Y00224270D02*
X00622000Y00228000D01*
X00618270Y00218730D02*
X00619000Y00218000D01*
X00618270Y00218730D02*
Y00224270D01*
X00641594Y00224000D02*
Y00224000D01*
Y00224000D02*
X00643540Y00222054D01*
X00620948Y00230540D02*
X00635054D01*
X00641594Y00224000D01*
X00643540Y00178948D02*
Y00222054D01*
X00615730Y00225322D02*
X00620948Y00230540D01*
X00615000Y00218000D02*
X00615730Y00218730D01*
Y00225322D01*
X00615000Y00215500D02*
Y00218000D01*
X00514000Y00131666D02*
Y00138232D01*
X00515230Y00139462D01*
X00519000Y00131666D02*
Y00138232D01*
X00517770Y00139462D02*
X00519000Y00138232D01*
X00243262Y00022595D02*
X00262905Y00042238D01*
X00194781Y00022595D02*
X00243262D01*
X00187645Y00210270D02*
X00240354D01*
X00179795Y00042205D02*
Y00078999D01*
X00241907Y00025865D02*
X00259635Y00043593D01*
X00196135Y00025865D02*
X00241907D01*
X00176525Y00040851D02*
X00194781Y00022595D01*
X00179795Y00042205D02*
X00196135Y00025865D01*
X00176525Y00040851D02*
Y00044212D01*
X00285354Y00281730D02*
X00303750D01*
X00284000Y00285000D02*
X00303750D01*
X00442626Y00281730D02*
X00450139D01*
X00438456Y00285900D02*
X00442626Y00281730D01*
X00438456Y00285900D02*
Y00289034D01*
X00436203Y00291287D02*
X00438456Y00289034D01*
X00429440Y00291287D02*
X00436203D01*
X00427187Y00289034D02*
X00429440Y00291287D01*
X00427187Y00274415D02*
Y00289034D01*
X00423017Y00270246D02*
X00427187Y00274415D01*
X00413546Y00270246D02*
X00423017D01*
X00409376Y00274415D02*
X00413546Y00270246D01*
X00409376Y00274415D02*
Y00289034D01*
X00407122Y00291287D02*
X00409376Y00289034D01*
X00400360Y00291287D02*
X00407122D01*
X00398106Y00289034D02*
X00400360Y00291287D01*
X00398106Y00274415D02*
Y00289034D01*
X00393937Y00270246D02*
X00398106Y00274415D01*
X00384466Y00270246D02*
X00393937D01*
X00380297Y00274415D02*
X00384466Y00270246D01*
X00380297Y00274415D02*
Y00289034D01*
X00378042Y00291287D02*
X00380297Y00289034D01*
X00371280Y00291287D02*
X00378042D01*
X00369026Y00289034D02*
X00371280Y00291287D01*
X00369026Y00274415D02*
Y00289034D01*
X00364857Y00270246D02*
X00369026Y00274415D01*
X00355386Y00270246D02*
X00364857D01*
X00351217Y00274415D02*
X00355386Y00270246D01*
X00351217Y00274415D02*
Y00289034D01*
X00348963Y00291287D02*
X00351217Y00289034D01*
X00342200Y00291287D02*
X00348963D01*
X00339947Y00289034D02*
X00342200Y00291287D01*
X00339947Y00274415D02*
Y00289034D01*
X00335777Y00270246D02*
X00339947Y00274415D01*
X00326306Y00270246D02*
X00335777D01*
X00322136Y00274415D02*
X00326306Y00270246D01*
X00322136Y00274415D02*
Y00289034D01*
X00319883Y00291287D02*
X00322136Y00289034D01*
X00313120Y00291287D02*
X00319883D01*
X00310867Y00289034D02*
X00313120Y00291287D01*
X00310867Y00285900D02*
Y00289034D01*
X00306697Y00281730D02*
X00310867Y00285900D01*
X00303750Y00281730D02*
X00306697D01*
X00450139Y00285763D02*
Y00285763D01*
X00449376Y00285000D02*
X00450139Y00285763D01*
X00443980Y00285000D02*
X00449376D01*
X00441726Y00287254D02*
X00443980Y00285000D01*
X00441726Y00287254D02*
Y00290388D01*
X00437557Y00294557D02*
X00441726Y00290388D01*
X00428086Y00294557D02*
X00437557D01*
X00423917Y00290388D02*
X00428086Y00294557D01*
X00423917Y00275770D02*
Y00290388D01*
X00421662Y00273516D02*
X00423917Y00275770D01*
X00414900Y00273516D02*
X00421662D01*
X00412646Y00275770D02*
X00414900Y00273516D01*
X00412646Y00275770D02*
Y00290388D01*
X00408477Y00294557D02*
X00412646Y00290388D01*
X00399006Y00294557D02*
X00408477D01*
X00394837Y00290388D02*
X00399006Y00294557D01*
X00394837Y00275770D02*
Y00290388D01*
X00392583Y00273516D02*
X00394837Y00275770D01*
X00385820Y00273516D02*
X00392583D01*
X00383567Y00275770D02*
X00385820Y00273516D01*
X00383567Y00275770D02*
Y00290388D01*
X00379397Y00294557D02*
X00383567Y00290388D01*
X00369926Y00294557D02*
X00379397D01*
X00365756Y00290388D02*
X00369926Y00294557D01*
X00365756Y00275770D02*
Y00290388D01*
X00363503Y00273516D02*
X00365756Y00275770D01*
X00356740Y00273516D02*
X00363503D01*
X00354487Y00275770D02*
X00356740Y00273516D01*
X00354487Y00275770D02*
Y00290388D01*
X00350317Y00294557D02*
X00354487Y00290388D01*
X00340846Y00294557D02*
X00350317D01*
X00336676Y00290388D02*
X00340846Y00294557D01*
X00336676Y00275770D02*
Y00290388D01*
X00334422Y00273516D02*
X00336676Y00275770D01*
X00327660Y00273516D02*
X00334422D01*
X00325406Y00275770D02*
X00327660Y00273516D01*
X00325406Y00275770D02*
Y00290388D01*
X00321237Y00294557D02*
X00325406Y00290388D01*
X00311766Y00294557D02*
X00321237D01*
X00307596Y00290388D02*
X00311766Y00294557D01*
X00307596Y00287254D02*
Y00290388D01*
X00305343Y00285000D02*
X00307596Y00287254D01*
X00303750Y00285000D02*
X00305343D01*
X00450139Y00281730D02*
X00450730D01*
X00450139Y00285763D02*
X00645000Y00480625D01*
X00274508Y00311270D02*
X00276150D01*
X00278403Y00313524D01*
Y00324208D01*
X00282573Y00328377D01*
X00292044D01*
X00296213Y00324208D01*
Y00307584D02*
Y00324208D01*
Y00307584D02*
X00298467Y00305329D01*
X00305229D01*
X00307483Y00307584D01*
Y00324208D01*
X00311653Y00328377D01*
X00321124D01*
X00325293Y00324208D01*
Y00307584D02*
Y00324208D01*
Y00307584D02*
X00327547Y00305329D01*
X00334309D01*
X00336563Y00307584D01*
Y00324208D01*
X00340733Y00328377D01*
X00350204D01*
X00354373Y00324208D01*
Y00307584D02*
Y00324208D01*
Y00307584D02*
X00356627Y00305329D01*
X00363389D01*
X00365643Y00307584D01*
Y00324208D01*
X00369813Y00328377D01*
X00379284D01*
X00383453Y00324208D01*
Y00307584D02*
Y00324208D01*
Y00307584D02*
X00385707Y00305329D01*
X00392469D01*
X00394723Y00307584D01*
Y00324208D01*
X00398893Y00328377D01*
X00408364D01*
X00412533Y00324208D01*
Y00307584D02*
Y00324208D01*
Y00307584D02*
X00414787Y00305329D01*
X00421549D01*
X00423803Y00307584D01*
Y00324208D01*
X00427973Y00328377D01*
X00437444D01*
X00441613Y00324208D01*
Y00313524D02*
Y00324208D01*
Y00313524D02*
X00443867Y00311270D01*
X00458270D01*
X00460000Y00313000D01*
X00274508Y00307508D02*
X00274508D01*
X00274508D02*
X00275000Y00308000D01*
X00277504D01*
X00281673Y00312169D01*
Y00322854D01*
X00283927Y00325107D01*
X00290690D01*
X00292943Y00322854D01*
Y00306229D02*
Y00322854D01*
Y00306229D02*
X00297113Y00302059D01*
X00306584D01*
X00310753Y00306229D01*
Y00322854D01*
X00313007Y00325107D01*
X00319769D01*
X00322023Y00322854D01*
Y00306229D02*
Y00322854D01*
Y00306229D02*
X00326193Y00302059D01*
X00335664D01*
X00339833Y00306229D01*
Y00322854D01*
X00342087Y00325107D01*
X00348849D01*
X00351103Y00322854D01*
Y00306229D02*
Y00322854D01*
Y00306229D02*
X00355273Y00302059D01*
X00364744D01*
X00368913Y00306229D01*
Y00322854D01*
X00371167Y00325107D01*
X00377929D01*
X00380183Y00322854D01*
Y00306229D02*
Y00322854D01*
Y00306229D02*
X00384353Y00302059D01*
X00393824D01*
X00397993Y00306229D01*
Y00322854D01*
X00400247Y00325107D01*
X00407009D01*
X00409263Y00322854D01*
Y00306229D02*
Y00322854D01*
Y00306229D02*
X00413433Y00302059D01*
X00422904D01*
X00427073Y00306229D01*
Y00322854D01*
X00429327Y00325107D01*
X00436089D01*
X00438343Y00322854D01*
Y00312169D02*
Y00322854D01*
Y00312169D02*
X00442513Y00308000D01*
X00459624D01*
X00460000Y00308375D01*
X00460000D01*
X00273646Y00311270D02*
X00274508D01*
X00245000Y00278000D02*
X00274508Y00307508D01*
X00460000Y00313000D02*
X00630000Y00483000D01*
X00460000Y00308375D02*
X00633270Y00481646D01*
X00632312Y00532312D02*
Y00532312D01*
X00626624Y00538000D02*
X00632312Y00532312D01*
X00241730Y00279354D02*
X00273646Y00311270D01*
X00233270Y00295270D02*
X00277000Y00339000D01*
X00476624D01*
X00230282Y00296907D02*
X00275646Y00342270D01*
X00475270D02*
X00615363Y00482363D01*
X00476624Y00339000D02*
X00618633Y00481009D01*
X00275646Y00342270D02*
X00475270D01*
X00461851Y00364000D02*
X00471000D01*
X00459597Y00361746D02*
X00461851Y00364000D01*
X00459597Y00358129D02*
Y00361746D01*
X00455427Y00353959D02*
X00459597Y00358129D01*
X00445956Y00353959D02*
X00455427D01*
X00441787Y00358129D02*
X00445956Y00353959D01*
X00441787Y00358129D02*
Y00382264D01*
X00439533Y00384518D02*
X00441787Y00382264D01*
X00432771Y00384518D02*
X00439533D01*
X00430517Y00382264D02*
X00432771Y00384518D01*
X00430517Y00358129D02*
Y00382264D01*
X00426347Y00353959D02*
X00430517Y00358129D01*
X00416876Y00353959D02*
X00426347D01*
X00412707Y00358129D02*
X00416876Y00353959D01*
X00412707Y00358129D02*
Y00382264D01*
X00410453Y00384518D02*
X00412707Y00382264D01*
X00403691Y00384518D02*
X00410453D01*
X00401437Y00382264D02*
X00403691Y00384518D01*
X00401437Y00358129D02*
Y00382264D01*
X00397267Y00353959D02*
X00401437Y00358129D01*
X00387796Y00353959D02*
X00397267D01*
X00383627Y00358129D02*
X00387796Y00353959D01*
X00383627Y00358129D02*
Y00382264D01*
X00381373Y00384518D02*
X00383627Y00382264D01*
X00374611Y00384518D02*
X00381373D01*
X00372357Y00382264D02*
X00374611Y00384518D01*
X00372357Y00358129D02*
Y00382264D01*
X00368187Y00353959D02*
X00372357Y00358129D01*
X00358716Y00353959D02*
X00368187D01*
X00354547Y00358129D02*
X00358716Y00353959D01*
X00354547Y00358129D02*
Y00382264D01*
X00352293Y00384518D02*
X00354547Y00382264D01*
X00345531Y00384518D02*
X00352293D01*
X00343277Y00382264D02*
X00345531Y00384518D01*
X00343277Y00358129D02*
Y00382264D01*
X00339107Y00353959D02*
X00343277Y00358129D01*
X00329636Y00353959D02*
X00339107D01*
X00325467Y00358129D02*
X00329636Y00353959D01*
X00325467Y00358129D02*
Y00382264D01*
X00323213Y00384518D02*
X00325467Y00382264D01*
X00316451Y00384518D02*
X00323213D01*
X00314197Y00382264D02*
X00316451Y00384518D01*
X00314197Y00358129D02*
Y00382264D01*
X00310027Y00353959D02*
X00314197Y00358129D01*
X00300556Y00353959D02*
X00310027D01*
X00296387Y00358129D02*
X00300556Y00353959D01*
X00296387Y00358129D02*
Y00382264D01*
X00294133Y00384518D02*
X00296387Y00382264D01*
X00287371Y00384518D02*
X00294133D01*
X00285117Y00382264D02*
X00287371Y00384518D01*
X00285117Y00368170D02*
Y00382264D01*
X00280947Y00364000D02*
X00285117Y00368170D01*
X00278000Y00364000D02*
X00280947D01*
X00460496Y00367270D02*
X00471000D01*
X00456327Y00363101D02*
X00460496Y00367270D01*
X00456327Y00359483D02*
Y00363101D01*
X00454073Y00357229D02*
X00456327Y00359483D01*
X00447311Y00357229D02*
X00454073D01*
X00445057Y00359483D02*
X00447311Y00357229D01*
X00445057Y00359483D02*
Y00383619D01*
X00440887Y00387788D02*
X00445057Y00383619D01*
X00431416Y00387788D02*
X00440887D01*
X00427247Y00383619D02*
X00431416Y00387788D01*
X00427247Y00359483D02*
Y00383619D01*
X00424993Y00357229D02*
X00427247Y00359483D01*
X00418231Y00357229D02*
X00424993D01*
X00415977Y00359483D02*
X00418231Y00357229D01*
X00415977Y00359483D02*
Y00383619D01*
X00411807Y00387788D02*
X00415977Y00383619D01*
X00402336Y00387788D02*
X00411807D01*
X00398167Y00383619D02*
X00402336Y00387788D01*
X00398167Y00359483D02*
Y00383619D01*
X00395913Y00357229D02*
X00398167Y00359483D01*
X00389151Y00357229D02*
X00395913D01*
X00386897Y00359483D02*
X00389151Y00357229D01*
X00386897Y00359483D02*
Y00383619D01*
X00382727Y00387788D02*
X00386897Y00383619D01*
X00373256Y00387788D02*
X00382727D01*
X00369087Y00383619D02*
X00373256Y00387788D01*
X00369087Y00359483D02*
Y00383619D01*
X00366833Y00357229D02*
X00369087Y00359483D01*
X00360071Y00357229D02*
X00366833D01*
X00357817Y00359483D02*
X00360071Y00357229D01*
X00357817Y00359483D02*
Y00383619D01*
X00353647Y00387788D02*
X00357817Y00383619D01*
X00344176Y00387788D02*
X00353647D01*
X00340007Y00383619D02*
X00344176Y00387788D01*
X00340007Y00359483D02*
Y00383619D01*
X00337753Y00357229D02*
X00340007Y00359483D01*
X00330991Y00357229D02*
X00337753D01*
X00328737Y00359483D02*
X00330991Y00357229D01*
X00328737Y00359483D02*
Y00383619D01*
X00324567Y00387788D02*
X00328737Y00383619D01*
X00315096Y00387788D02*
X00324567D01*
X00310927Y00383619D02*
X00315096Y00387788D01*
X00310927Y00359483D02*
Y00383619D01*
X00308673Y00357229D02*
X00310927Y00359483D01*
X00301911Y00357229D02*
X00308673D01*
X00299657Y00359483D02*
X00301911Y00357229D01*
X00299657Y00359483D02*
Y00383619D01*
X00295487Y00387788D02*
X00299657Y00383619D01*
X00286016Y00387788D02*
X00295487D01*
X00281847Y00383619D02*
X00286016Y00387788D01*
X00281847Y00369524D02*
Y00383619D01*
X00279593Y00367270D02*
X00281847Y00369524D01*
X00278000Y00367270D02*
X00279593D01*
X00471000Y00364000D02*
X00486624D01*
X00266000D02*
X00278000D01*
X00471000Y00367270D02*
X00485270D01*
X00264646D02*
X00278000D01*
X00205184Y00307808D02*
X00264646Y00367270D01*
X00208454Y00306454D02*
X00266000Y00364000D01*
X00486624D02*
X00606633Y00484009D01*
X00485270Y00367270D02*
X00603363Y00485363D01*
X00230000Y00266750D02*
Y00273084D01*
X00228946Y00274138D02*
X00230000Y00273084D01*
X00227527Y00274138D02*
X00228946D01*
X00226473Y00275192D02*
X00227527Y00274138D01*
X00226473Y00275192D02*
Y00278354D01*
X00227527Y00279408D01*
X00228946D01*
X00230000Y00280462D01*
Y00283624D01*
X00228946Y00284678D02*
X00230000Y00283624D01*
X00226693Y00284678D02*
X00228946D01*
X00225639Y00285732D02*
X00226693Y00284678D01*
X00225639Y00285732D02*
Y00288894D01*
X00226693Y00289948D01*
X00228946D01*
X00230000Y00291002D01*
Y00296625D01*
X00230282Y00296907D01*
X00230000Y00265000D02*
Y00266750D01*
X00630000Y00501135D02*
Y00510000D01*
X00628946Y00500081D02*
X00630000Y00501135D01*
X00628197Y00500081D02*
X00628946D01*
X00627143Y00499027D02*
X00628197Y00500081D01*
X00627143Y00495865D02*
Y00499027D01*
Y00495865D02*
X00628197Y00494811D01*
X00628946D01*
X00630000Y00493757D01*
Y00493122D02*
Y00493757D01*
Y00510000D02*
Y00530000D01*
Y00483000D02*
Y00493122D01*
X00153636Y00242000D02*
X00155205D01*
X00156259Y00243054D01*
Y00243446D01*
X00157313Y00244500D01*
X00160475D01*
X00161529Y00243446D01*
Y00243054D02*
Y00243446D01*
Y00243054D02*
X00162583Y00242000D01*
X00165745D01*
X00166799Y00243054D01*
Y00243446D01*
X00167853Y00244500D01*
X00171015D01*
X00172069Y00243446D01*
Y00243054D02*
Y00243446D01*
Y00243054D02*
X00173123Y00242000D01*
X00176285D01*
X00177339Y00243054D01*
Y00243446D01*
X00178393Y00244500D01*
X00181555D01*
X00182609Y00243446D01*
Y00243054D02*
Y00243446D01*
Y00243054D02*
X00183663Y00242000D01*
X00189568D01*
X00223000D01*
X00152000D02*
X00153636D01*
X00145184Y00244192D02*
Y00259937D01*
X00148454Y00245546D02*
Y00259937D01*
Y00245546D02*
X00152000Y00242000D01*
X00150646Y00238730D02*
X00224354D01*
X00145184Y00244192D02*
X00150646Y00238730D01*
X00645000Y00501013D02*
Y00520000D01*
X00643946Y00499959D02*
X00645000Y00501013D01*
X00643197Y00499959D02*
X00643946D01*
X00642143Y00498905D02*
X00643197Y00499959D01*
X00642143Y00495743D02*
Y00498905D01*
Y00495743D02*
X00643197Y00494689D01*
X00643946D01*
X00645000Y00493635D01*
Y00493000D02*
Y00493635D01*
Y00520000D02*
Y00524730D01*
Y00480625D02*
Y00493000D01*
X00142000Y00229000D02*
X00147922D01*
X00148976Y00230054D01*
Y00230446D01*
X00150030Y00231500D01*
X00153192D01*
X00154246Y00230446D01*
Y00230054D02*
Y00230446D01*
Y00230054D02*
X00155300Y00229000D01*
X00158462D01*
X00159516Y00230054D01*
Y00230446D01*
X00160570Y00231500D01*
X00163732D01*
X00164786Y00230446D01*
Y00230054D02*
Y00230446D01*
Y00230054D02*
X00165840Y00229000D01*
X00169002D01*
X00170056Y00230054D01*
Y00230446D01*
X00171110Y00231500D01*
X00174272D01*
X00175326Y00230446D01*
Y00230054D02*
Y00230446D01*
Y00230054D02*
X00176380Y00229000D01*
X00182285D01*
X00136000D02*
X00142000D01*
X00182285D02*
X00228000D01*
X00450730Y00281730D02*
X00648270Y00479270D01*
X00615363Y00548741D02*
X00622375Y00541730D01*
X00628000D01*
X00614998Y00555501D02*
X00615363Y00555136D01*
Y00548741D02*
Y00555136D01*
X00628000Y00541730D02*
X00645000Y00524730D01*
X00121819Y00263246D02*
Y00268946D01*
X00119254Y00260681D02*
X00121819Y00263246D01*
X00118454Y00259937D02*
X00119198Y00260681D01*
X00119254D01*
X00118454Y00246546D02*
X00136000Y00229000D01*
X00118454Y00246546D02*
Y00259937D01*
X00648270Y00479270D02*
Y00526085D01*
X00618633Y00555136D02*
X00618998Y00555501D01*
X00618633Y00550096D02*
X00623729Y00545000D01*
X00618633Y00551906D02*
Y00555136D01*
X00618633Y00551906D02*
X00618633Y00551906D01*
X00618633Y00550096D02*
Y00551906D01*
X00629355Y00545000D02*
X00648270Y00526085D01*
X00623729Y00545000D02*
X00629355D01*
X00114440Y00260681D02*
X00115184Y00259937D01*
X00111819Y00263246D02*
X00114384Y00260681D01*
X00111819Y00263246D02*
Y00268946D01*
X00114384Y00260681D02*
X00114440D01*
X00115184Y00245192D02*
X00134646Y00225730D01*
X00229354D01*
X00115184Y00245192D02*
Y00259937D01*
X00229354Y00225730D02*
X00285354Y00281730D01*
X00228000Y00229000D02*
X00284000Y00285000D01*
X00614688Y00538688D02*
X00618646Y00534730D01*
X00625270D01*
X00608825Y00541855D02*
X00611520D01*
X00603363Y00547317D02*
X00608825Y00541855D01*
X00610180Y00545125D02*
X00612875D01*
X00606633Y00548672D02*
X00610180Y00545125D01*
X00612875D02*
X00620000Y00538000D01*
X00611520Y00541855D02*
X00614688Y00538688D01*
X00620000Y00538000D02*
X00626624D01*
X00144440Y00260681D02*
X00145184Y00259937D01*
X00144384Y00260681D02*
X00144440D01*
X00141819Y00263246D02*
X00144384Y00260681D01*
X00141819Y00263246D02*
Y00268946D01*
X00148454Y00259937D02*
X00149198Y00260681D01*
X00149254D02*
X00151819Y00263246D01*
X00149198Y00260681D02*
X00149254D01*
X00151819Y00263246D02*
Y00268946D01*
X00223000Y00242000D02*
X00241730Y00260730D01*
Y00279354D01*
X00224354Y00238730D02*
X00245000Y00259376D01*
Y00278000D01*
X00217000Y00252000D02*
X00230000Y00265000D01*
X00233270Y00263645D02*
Y00295270D01*
X00218354Y00248730D02*
X00233270Y00263645D01*
X00182000Y00252000D02*
X00217000D01*
X00180646Y00248730D02*
X00218354D01*
X00618633Y00481009D02*
Y00524606D01*
X00615363Y00482363D02*
Y00527836D01*
X00633270Y00481646D02*
Y00531354D01*
X00632312Y00532312D02*
X00633270Y00531354D01*
X00625270Y00534730D02*
X00630000Y00530000D01*
X00606633Y00548672D02*
Y00555136D01*
X00602999Y00555501D02*
X00603363Y00555136D01*
X00606633D02*
X00606998Y00555501D01*
X00603363Y00547317D02*
Y00555136D01*
X00614998Y00528201D02*
X00615363Y00527836D01*
X00618633D02*
X00618998Y00528201D01*
X00618633Y00524606D02*
Y00527836D01*
X00618633Y00524606D02*
X00618633Y00524606D01*
X00179688Y00249688D02*
X00180646Y00248730D01*
X00175184Y00254192D02*
X00179688Y00249688D01*
X00179198Y00260681D02*
X00179254D01*
X00175184Y00254192D02*
Y00259937D01*
X00174440Y00260681D02*
X00175184Y00259937D01*
X00174384Y00260681D02*
X00174440D01*
X00181819Y00263246D02*
Y00268946D01*
X00171819Y00263246D02*
X00174384Y00260681D01*
X00179254D02*
X00181819Y00263246D01*
X00171819D02*
Y00268946D01*
X00178454Y00255546D02*
Y00259937D01*
Y00255546D02*
X00182000Y00252000D01*
X00178454Y00259937D02*
X00179198Y00260681D01*
X00205184Y00277955D02*
Y00307808D01*
X00208454Y00277955D02*
Y00306454D01*
X00209254Y00277211D02*
X00211819Y00274646D01*
X00209198Y00277211D02*
X00209254D01*
X00208454Y00277955D02*
X00209198Y00277211D01*
X00211819Y00268946D02*
Y00274646D01*
X00204440Y00277211D02*
X00205184Y00277955D01*
X00204384Y00277211D02*
X00204440D01*
X00201819Y00268946D02*
Y00274646D01*
X00204384Y00277211D01*
X00606633Y00484009D02*
Y00527836D01*
X00603363Y00485363D02*
Y00527836D01*
X00602999Y00528201D02*
X00603363Y00527836D01*
X00606633D02*
X00606998Y00528201D01*
X00117095Y00122095D02*
X00119000Y00124000D01*
X00117095Y00120605D02*
Y00122095D01*
Y00120605D02*
X00117136Y00120564D01*
Y00119073D02*
Y00120564D01*
X00114900Y00116838D02*
X00117136Y00119073D01*
X00113410Y00116838D02*
X00114900D01*
X00113369Y00116878D02*
X00113410Y00116838D01*
X00111878Y00116878D02*
X00113369D01*
X00109643Y00114643D02*
X00111878Y00116878D01*
X00109643Y00113152D02*
Y00114643D01*
Y00113152D02*
X00111214Y00111581D01*
Y00110090D02*
Y00111581D01*
X00108978Y00107854D02*
X00111214Y00110090D01*
X00107487Y00107854D02*
X00108978D01*
X00105916Y00109425D02*
X00107487Y00107854D01*
X00104425Y00109425D02*
X00105916D01*
X00101000Y00106000D02*
X00104425Y00109425D01*
X00101000Y00104500D02*
Y00106000D01*
X00119000Y00124000D02*
X00130000Y00135000D01*
X00101000Y00093624D02*
Y00104500D01*
X00097730Y00092270D02*
Y00107354D01*
X00126730Y00136354D02*
Y00149917D01*
X00097730Y00107354D02*
X00126730Y00136354D01*
X00130000Y00135000D02*
Y00151271D01*
X00101000Y00093624D02*
X00108494Y00086131D01*
X00097730Y00092270D02*
X00107139Y00082861D01*
X00118454Y00162818D02*
X00130000Y00151271D01*
X00115184Y00161463D02*
X00126730Y00149917D01*
X00144018Y00134018D02*
X00147000Y00137000D01*
X00144018Y00132527D02*
Y00134018D01*
Y00132527D02*
X00144402Y00132143D01*
Y00130652D02*
Y00132143D01*
X00142166Y00128417D02*
X00144402Y00130652D01*
X00140675Y00128417D02*
X00142166D01*
X00140291Y00128801D02*
X00140675Y00128417D01*
X00138801Y00128801D02*
X00140291D01*
X00136565Y00126565D02*
X00138801Y00128801D01*
X00136565Y00125074D02*
Y00126565D01*
Y00125074D02*
X00137090Y00124549D01*
Y00123058D02*
Y00124549D01*
X00134854Y00120822D02*
X00137090Y00123058D01*
X00133364Y00120822D02*
X00134854D01*
X00132838Y00121348D02*
X00133364Y00120822D01*
X00131348Y00121348D02*
X00132838D01*
X00127172Y00117172D02*
X00131348Y00121348D01*
X00127000Y00117000D02*
X00127172Y00117172D01*
X00147000Y00137000D02*
X00148454Y00138454D01*
X00123730Y00118354D02*
X00145184Y00139808D01*
X00128795Y00092011D02*
Y00099389D01*
X00128945Y00099539D01*
X00128201Y00101335D02*
X00128945Y00100591D01*
X00129988Y00104173D02*
X00133580D01*
X00129556Y00104605D02*
X00129988Y00104173D01*
X00127944Y00104605D02*
X00129556D01*
X00128945Y00099539D02*
Y00100591D01*
X00123730Y00104194D02*
Y00118354D01*
X00126589Y00101335D02*
X00128201D01*
X00127000Y00105549D02*
X00127944Y00104605D01*
X00123730Y00104194D02*
X00126589Y00101335D01*
X00133580Y00104173D02*
X00134011Y00104605D01*
X00127000Y00105549D02*
Y00117000D01*
X00148454Y00138454D02*
Y00165737D01*
X00145184Y00139808D02*
Y00165737D01*
X00141819Y00169046D02*
Y00174746D01*
X00149198Y00166481D02*
X00149254D01*
X00151819Y00169046D01*
X00148454Y00165737D02*
X00149198Y00166481D01*
X00141819Y00169046D02*
X00144384Y00166481D01*
X00144440D02*
X00145184Y00165737D01*
X00144384Y00166481D02*
X00144440D01*
X00151819Y00169046D02*
Y00174746D01*
X00139626Y00086174D02*
X00147900Y00077900D01*
X00128795Y00092011D02*
X00134633Y00086174D01*
X00139626D01*
X00149195Y00104605D02*
X00158100Y00095700D01*
X00134011Y00104605D02*
X00149195D01*
X00121819Y00169046D02*
Y00174746D01*
X00119254Y00166481D02*
X00121819Y00169046D01*
X00118454Y00162818D02*
Y00165737D01*
X00114440Y00166481D02*
X00115184Y00165737D01*
Y00161463D02*
Y00165737D01*
X00111819Y00169046D02*
Y00174746D01*
X00119198Y00166481D02*
X00119254D01*
X00118454Y00165737D02*
X00119198Y00166481D01*
X00111819Y00169046D02*
X00114384Y00166481D01*
X00114440D01*
X00117861Y00086131D02*
X00118605Y00086875D01*
X00108494Y00086131D02*
X00117861D01*
X00121403Y00083997D02*
X00127500Y00077900D01*
X00107139Y00082861D02*
X00119215D01*
X00120351Y00083997D01*
X00121403D01*
X00117300Y00095700D02*
X00118605Y00094395D01*
Y00086875D02*
Y00094395D01*
X00176525Y00044212D02*
Y00046177D01*
X00175471Y00047231D02*
X00176525Y00046177D01*
X00169380Y00047231D02*
X00175471D01*
X00168326Y00048285D02*
X00169380Y00047231D01*
X00168326Y00048285D02*
Y00051447D01*
X00169380Y00052501D01*
X00175471D01*
X00176525Y00053555D01*
Y00056717D01*
X00175471Y00057771D02*
X00176525Y00056717D01*
X00167706Y00057771D02*
X00175471D01*
X00166652Y00058825D02*
X00167706Y00057771D01*
X00166652Y00058825D02*
Y00061987D01*
X00167706Y00063041D01*
X00175471D01*
X00176525Y00064095D01*
Y00070000D01*
X00195000Y00207000D02*
X00203731D01*
X00204785Y00205946D01*
Y00205554D02*
Y00205946D01*
Y00205554D02*
X00205839Y00204500D01*
X00209001D01*
X00210055Y00205554D01*
Y00205946D01*
X00211109Y00207000D01*
X00214271D01*
X00215325Y00205946D01*
Y00205554D02*
Y00205946D01*
Y00205554D02*
X00216379Y00204500D01*
X00219541D01*
X00220595Y00205554D01*
Y00205946D01*
X00221649Y00207000D01*
X00224811D01*
X00225865Y00205946D01*
Y00205554D02*
Y00205946D01*
Y00205554D02*
X00226919Y00204500D01*
X00230081D01*
X00231135Y00205554D01*
Y00205946D01*
X00232189Y00207000D01*
X00232824D01*
X00189000D02*
X00195000D01*
X00232824D02*
X00239000D01*
X00175184Y00197808D02*
X00187645Y00210270D01*
X00174440Y00183011D02*
X00175184Y00183755D01*
Y00197808D01*
X00174384Y00183011D02*
X00174440D01*
X00171819Y00180446D02*
X00174384Y00183011D01*
X00171819Y00174746D02*
Y00180446D01*
X00176525Y00070000D02*
Y00074584D01*
X00175644Y00075464D02*
X00176525Y00074584D01*
X00170736Y00075464D02*
X00175644D01*
X00168300Y00077900D02*
X00170736Y00075464D01*
X00179254Y00183011D02*
X00181819Y00180446D01*
X00179198Y00183011D02*
X00179254D01*
X00181819Y00174746D02*
Y00180446D01*
X00178454Y00196454D02*
X00189000Y00207000D01*
X00178454Y00183755D02*
X00179198Y00183011D01*
X00178454Y00183755D02*
Y00196454D01*
X00137700Y00095700D02*
X00139261Y00094139D01*
X00145861D01*
X00164832Y00088000D02*
X00170794D01*
X00163195Y00086363D02*
X00164832Y00088000D01*
X00170794D02*
X00179795Y00078999D01*
X00145861Y00094139D02*
X00153637Y00086363D01*
X00163195D01*
X00241000Y00179782D02*
Y00182000D01*
X00239946Y00178728D02*
X00241000Y00179782D01*
X00238616Y00178728D02*
X00239946D01*
X00237562Y00177674D02*
X00238616Y00178728D01*
X00237562Y00174512D02*
Y00177674D01*
Y00174512D02*
X00238616Y00173458D01*
X00239946D01*
X00241000Y00172404D01*
Y00169242D02*
Y00172404D01*
X00239946Y00168188D02*
X00241000Y00169242D01*
X00238616Y00168188D02*
X00239946D01*
X00237562Y00167134D02*
X00238616Y00168188D01*
X00237562Y00163972D02*
Y00167134D01*
Y00163972D02*
X00238616Y00162918D01*
X00239946D01*
X00241000Y00161864D01*
Y00158702D02*
Y00161864D01*
X00239946Y00157648D02*
X00241000Y00158702D01*
X00238616Y00157648D02*
X00239946D01*
X00237562Y00156594D02*
X00238616Y00157648D01*
X00237562Y00153432D02*
Y00156594D01*
Y00153432D02*
X00238616Y00152378D01*
X00239946D01*
X00241000Y00151324D01*
Y00150689D02*
Y00151324D01*
Y00182000D02*
Y00185000D01*
Y00137453D02*
Y00150689D01*
X00208547Y00105000D02*
X00241000Y00137453D01*
X00209901Y00101730D02*
X00244270Y00136099D01*
X00188312Y00087688D02*
X00202355Y00101730D01*
X00201000Y00105000D02*
X00208547D01*
X00186000Y00090000D02*
X00201000Y00105000D01*
X00202355Y00101730D02*
X00209901D01*
X00188312Y00078288D02*
Y00087688D01*
X00180300Y00095700D02*
X00186000Y00090000D01*
X00188312Y00078288D02*
X00188700Y00077900D01*
X00178500Y00095700D02*
X00180300D01*
X00244270Y00136099D02*
Y00186355D01*
X00234354Y00196270D02*
X00244270Y00186355D01*
X00233000Y00193000D02*
X00241000Y00185000D01*
X00211099Y00196270D02*
X00234354D01*
X00208454Y00189000D02*
X00212454Y00193000D01*
X00205184Y00183755D02*
Y00190354D01*
X00211099Y00196270D01*
X00212454Y00193000D02*
X00233000D01*
X00208454Y00183755D02*
Y00189000D01*
X00204384Y00183011D02*
X00204440D01*
X00205184Y00183755D01*
X00211819Y00174746D02*
Y00180446D01*
X00201819Y00174746D02*
Y00180446D01*
X00204384Y00183011D01*
X00209198D02*
X00209254D01*
X00208454Y00183755D02*
X00209198Y00183011D01*
X00209254D02*
X00211819Y00180446D01*
D112*
X00131500Y00632500D02*
X00140000Y00624000D01*
X00174993D01*
X00176750Y00622243D01*
Y00617000D02*
Y00622243D01*
Y00617000D02*
X00177250Y00616500D01*
X00179250D01*
X00078500Y00712500D02*
X00083500Y00707500D01*
Y00700750D02*
Y00707500D01*
X00015000Y00712500D02*
X00078500D01*
X00070500Y00698750D02*
Y00700750D01*
X00055000Y00695000D02*
X00066750D01*
X00070500Y00698750D01*
X00316000Y00140000D02*
X00330000Y00126000D01*
Y00109500D02*
Y00126000D01*
X00350000Y00126730D02*
X00353270Y00130000D01*
X00354000D01*
X00365000Y00092000D02*
Y00109500D01*
X00335000Y00092000D02*
Y00109500D01*
X00350000D02*
Y00126730D01*
X00380000Y00092000D02*
Y00109500D01*
X00395000Y00092000D02*
Y00109500D01*
X00410000Y00092000D02*
Y00109500D01*
X00186500Y00590500D02*
X00187000Y00590000D01*
X00611500Y00377500D02*
Y00381000D01*
X00609500Y00375500D02*
X00611500Y00377500D01*
X00609500Y00369250D02*
Y00375500D01*
D113*
X00606615Y00200875D02*
X00609000Y00203260D01*
X00601500D02*
Y00204000D01*
X00609000Y00203260D02*
Y00204000D01*
X00601500Y00203260D02*
X00603885Y00200875D01*
X00607000Y00188200D02*
Y00190700D01*
X00606365Y00193890D02*
X00606615Y00194140D01*
Y00200875D01*
X00606365Y00191335D02*
X00607000Y00190700D01*
X00606365Y00191335D02*
Y00193890D01*
X00603885Y00195271D02*
Y00200875D01*
X00603635Y00195021D02*
X00603885Y00195271D01*
X00603000Y00190700D02*
X00603635Y00191335D01*
Y00195021D01*
X00603000Y00188200D02*
Y00190700D01*
X00585000Y00203260D02*
Y00204000D01*
X00582615Y00200875D02*
X00585000Y00203260D01*
X00582365Y00191335D02*
X00583000Y00190700D01*
Y00188200D02*
Y00190700D01*
X00582365Y00193890D02*
X00582615Y00194140D01*
Y00200875D01*
X00582365Y00191335D02*
Y00193890D01*
X00577500Y00203260D02*
Y00204000D01*
X00579885Y00195271D02*
Y00200875D01*
X00577500Y00203260D02*
X00579885Y00200875D01*
X00579635Y00195021D02*
X00579885Y00195271D01*
X00579635Y00191335D02*
Y00195021D01*
X00579000Y00190700D02*
X00579635Y00191335D01*
X00579000Y00188200D02*
Y00190700D01*
X00591000Y00185700D02*
X00591635Y00185065D01*
Y00182510D02*
Y00185065D01*
X00591385Y00182260D02*
X00591635Y00182510D01*
X00591000Y00185700D02*
Y00188200D01*
X00591385Y00175525D02*
Y00182260D01*
X00589000Y00173140D02*
X00591385Y00175525D01*
X00589000Y00172400D02*
Y00173140D01*
X00594365Y00185065D02*
X00595000Y00185700D01*
Y00188200D01*
X00594115Y00181129D02*
X00594365Y00181379D01*
X00596500Y00172400D02*
Y00173140D01*
X00594115Y00175525D02*
X00596500Y00173140D01*
X00594365Y00181379D02*
Y00185065D01*
X00594115Y00175525D02*
Y00181129D01*
D114*
X00405480Y00524520D02*
Y00576480D01*
X00418000Y00512000D02*
X00507000D01*
X00405480Y00524520D02*
X00418000Y00512000D01*
X00432624Y00799760D02*
X00460240D01*
X00463045Y00796955D01*
X00479167Y00812417D02*
Y00815167D01*
X00644500Y00828000D02*
X00710000Y00762500D01*
X00492000Y00828000D02*
X00644500D01*
X00479167Y00815167D02*
X00492000Y00828000D01*
X00710000Y00738000D02*
Y00762500D01*
X00696000Y00734000D02*
X00735770Y00694230D01*
X00696000Y00734000D02*
Y00753000D01*
X00643000Y00806000D02*
X00696000Y00753000D01*
X00702000Y00737000D02*
X00742000Y00697000D01*
X00641000Y00820000D02*
X00702000Y00759000D01*
Y00737000D02*
Y00759000D01*
X00710000Y00738000D02*
X00748000Y00700000D01*
X00682000Y00729000D02*
X00722000Y00689000D01*
X00648000Y00781000D02*
X00682000Y00747000D01*
Y00729000D02*
Y00747000D01*
X00675000Y00726000D02*
X00716000Y00685000D01*
X00645000Y00773000D02*
X00675000Y00743000D01*
Y00726000D02*
Y00743000D01*
X00748000Y00601000D02*
Y00700000D01*
X00742000Y00605000D02*
Y00697000D01*
X00735770Y00608770D02*
Y00694230D01*
X00689500Y00731500D02*
Y00749500D01*
X00729000Y00613000D02*
Y00692000D01*
X00689500Y00731500D02*
X00729000Y00692000D01*
X00722000Y00617000D02*
Y00689000D01*
X00716000Y00622000D02*
Y00685000D01*
X00668000Y00724000D02*
Y00740000D01*
Y00724000D02*
X00709000Y00683000D01*
Y00626000D02*
Y00683000D01*
X00660000Y00723000D02*
Y00736000D01*
X00702000Y00630000D02*
Y00681000D01*
X00660000Y00723000D02*
X00702000Y00681000D01*
X00695000Y00635000D02*
Y00678000D01*
X00653000Y00720000D02*
Y00731000D01*
Y00720000D02*
X00695000Y00678000D01*
X00646000Y00717000D02*
Y00729000D01*
X00688000Y00641000D02*
Y00675000D01*
X00646000Y00717000D02*
X00688000Y00675000D01*
X00638000Y00715000D02*
Y00728000D01*
X00680000Y00645000D02*
Y00673000D01*
X00638000Y00715000D02*
X00680000Y00673000D01*
X00619000Y00707000D02*
X00636000D01*
X00672000Y00671000D01*
Y00649000D02*
Y00671000D01*
X00638000Y00693000D02*
X00665000Y00666000D01*
X00627000Y00693000D02*
X00638000D01*
X00665000Y00653000D02*
Y00666000D01*
X00574998Y00566998D02*
X00578000Y00570000D01*
X00717000D01*
X00748000Y00601000D01*
X00391750Y00650250D02*
Y00659124D01*
Y00745369D02*
Y00750834D01*
X00390640Y00744259D02*
X00391750Y00745369D01*
X00390360Y00744259D02*
X00390640D01*
X00389250Y00743149D02*
X00390360Y00744259D01*
X00389250Y00739819D02*
Y00743149D01*
Y00739819D02*
X00390360Y00738709D01*
X00393140D01*
X00394250Y00737599D01*
Y00734269D02*
Y00737599D01*
X00393140Y00733159D02*
X00394250Y00734269D01*
X00390360Y00733159D02*
X00393140D01*
X00389250Y00732049D02*
X00390360Y00733159D01*
X00389250Y00728719D02*
Y00732049D01*
Y00728719D02*
X00390360Y00727609D01*
X00393140D01*
X00394250Y00726499D01*
Y00723169D02*
Y00726499D01*
X00393140Y00722059D02*
X00394250Y00723169D01*
X00390360Y00722059D02*
X00393140D01*
X00389250Y00720949D02*
X00390360Y00722059D01*
X00389250Y00717619D02*
Y00720949D01*
Y00717619D02*
X00390360Y00716509D01*
X00393140D01*
X00394250Y00715399D01*
Y00712069D02*
Y00715399D01*
X00393140Y00710959D02*
X00394250Y00712069D01*
X00390360Y00710959D02*
X00393140D01*
X00389250Y00709849D02*
X00390360Y00710959D01*
X00389250Y00706519D02*
Y00709849D01*
Y00706519D02*
X00390360Y00705409D01*
X00393140D01*
X00394250Y00704299D01*
Y00700969D02*
Y00704299D01*
X00393140Y00699859D02*
X00394250Y00700969D01*
X00390360Y00699859D02*
X00393140D01*
X00389250Y00698749D02*
X00390360Y00699859D01*
X00389250Y00695419D02*
Y00698749D01*
Y00695419D02*
X00390360Y00694309D01*
X00393140D01*
X00394250Y00693199D01*
Y00689869D02*
Y00693199D01*
X00393140Y00688759D02*
X00394250Y00689869D01*
X00390360Y00688759D02*
X00393140D01*
X00389250Y00687649D02*
X00390360Y00688759D01*
X00389250Y00684319D02*
Y00687649D01*
Y00684319D02*
X00390360Y00683209D01*
X00393140D01*
X00394250Y00682099D01*
Y00678769D02*
Y00682099D01*
X00393140Y00677659D02*
X00394250Y00678769D01*
X00390360Y00677659D02*
X00393140D01*
X00389250Y00676549D02*
X00390360Y00677659D01*
X00389250Y00673219D02*
Y00676549D01*
Y00673219D02*
X00390360Y00672109D01*
X00393140D01*
X00394250Y00670999D01*
Y00667669D02*
Y00670999D01*
X00393140Y00666559D02*
X00394250Y00667669D01*
X00390360Y00666559D02*
X00393140D01*
X00389250Y00665449D02*
X00390360Y00666559D01*
X00389250Y00662119D02*
Y00665449D01*
Y00662119D02*
X00390360Y00661009D01*
X00390640D01*
X00391750Y00659899D01*
Y00659124D02*
Y00659899D01*
X00382000Y00712235D02*
Y00716000D01*
X00380890Y00711125D02*
X00382000Y00712235D01*
X00380610Y00711125D02*
X00380890D01*
X00379500Y00710015D02*
X00380610Y00711125D01*
X00379500Y00706685D02*
Y00710015D01*
Y00706685D02*
X00380610Y00705575D01*
X00383390D01*
X00384500Y00704465D01*
Y00701135D02*
Y00704465D01*
X00383390Y00700025D02*
X00384500Y00701135D01*
X00380610Y00700025D02*
X00383390D01*
X00379500Y00698915D02*
X00380610Y00700025D01*
X00379500Y00695585D02*
Y00698915D01*
Y00695585D02*
X00380610Y00694475D01*
X00383390D01*
X00384500Y00693365D01*
Y00690035D02*
Y00693365D01*
X00383390Y00688925D02*
X00384500Y00690035D01*
X00380610Y00688925D02*
X00383390D01*
X00379500Y00687815D02*
X00380610Y00688925D01*
X00379500Y00684485D02*
Y00687815D01*
Y00684485D02*
X00380610Y00683375D01*
X00383390D01*
X00384500Y00682265D01*
Y00678935D02*
Y00682265D01*
X00383390Y00677825D02*
X00384500Y00678935D01*
X00380610Y00677825D02*
X00383390D01*
X00379500Y00676715D02*
X00380610Y00677825D01*
X00379500Y00673385D02*
Y00676715D01*
Y00673385D02*
X00380610Y00672275D01*
X00383390D01*
X00384500Y00671165D01*
Y00667835D02*
Y00671165D01*
X00383390Y00666725D02*
X00384500Y00667835D01*
X00380610Y00666725D02*
X00383390D01*
X00379500Y00665615D02*
X00380610Y00666725D01*
X00379500Y00662285D02*
Y00665615D01*
Y00662285D02*
X00380610Y00661175D01*
X00383390D01*
X00384500Y00660065D01*
Y00656735D02*
Y00660065D01*
X00383390Y00655625D02*
X00384500Y00656735D01*
X00380610Y00655625D02*
X00383390D01*
X00379500Y00654515D02*
X00380610Y00655625D01*
X00379500Y00651185D02*
Y00654515D01*
Y00651185D02*
X00380610Y00650075D01*
X00380890D01*
X00382000Y00648965D01*
Y00648190D02*
Y00648965D01*
Y00644000D02*
Y00648190D01*
Y00716000D02*
Y00723000D01*
X00376750Y00728250D02*
Y00772250D01*
X00477750Y00811000D02*
X00479167Y00812417D01*
X00637116Y00820000D02*
X00641000D01*
X00636006Y00821110D02*
X00637116Y00820000D01*
X00636006Y00821110D02*
Y00821390D01*
X00634896Y00822500D02*
X00636006Y00821390D01*
X00631566Y00822500D02*
X00634896D01*
X00630456Y00821390D02*
X00631566Y00822500D01*
X00630456Y00817391D02*
Y00821390D01*
X00629346Y00816281D02*
X00630456Y00817391D01*
X00626016Y00816281D02*
X00629346D01*
X00624906Y00817391D02*
X00626016Y00816281D01*
X00624906Y00817391D02*
Y00821390D01*
X00623796Y00822500D02*
X00624906Y00821390D01*
X00620466Y00822500D02*
X00623796D01*
X00619356Y00821390D02*
X00620466Y00822500D01*
X00619356Y00817391D02*
Y00821390D01*
X00618246Y00816281D02*
X00619356Y00817391D01*
X00614916Y00816281D02*
X00618246D01*
X00613806Y00817391D02*
X00614916Y00816281D01*
X00613806Y00817391D02*
Y00821390D01*
X00612696Y00822500D02*
X00613806Y00821390D01*
X00609366Y00822500D02*
X00612696D01*
X00608256Y00821390D02*
X00609366Y00822500D01*
X00608256Y00817391D02*
Y00821390D01*
X00607146Y00816281D02*
X00608256Y00817391D01*
X00603816Y00816281D02*
X00607146D01*
X00602706Y00817391D02*
X00603816Y00816281D01*
X00602706Y00817391D02*
Y00821390D01*
X00601596Y00822500D02*
X00602706Y00821390D01*
X00598266Y00822500D02*
X00601596D01*
X00597156Y00821390D02*
X00598266Y00822500D01*
X00597156Y00817391D02*
Y00821390D01*
X00596046Y00816281D02*
X00597156Y00817391D01*
X00592716Y00816281D02*
X00596046D01*
X00591606Y00817391D02*
X00592716Y00816281D01*
X00591606Y00817391D02*
Y00821390D01*
X00590496Y00822500D02*
X00591606Y00821390D01*
X00587166Y00822500D02*
X00590496D01*
X00586056Y00821390D02*
X00587166Y00822500D01*
X00586056Y00817391D02*
Y00821390D01*
X00584946Y00816281D02*
X00586056Y00817391D01*
X00581616Y00816281D02*
X00584946D01*
X00580506Y00817391D02*
X00581616Y00816281D01*
X00580506Y00817391D02*
Y00821390D01*
X00579396Y00822500D02*
X00580506Y00821390D01*
X00576066Y00822500D02*
X00579396D01*
X00574956Y00821390D02*
X00576066Y00822500D01*
X00574956Y00817391D02*
Y00821390D01*
X00573846Y00816281D02*
X00574956Y00817391D01*
X00570516Y00816281D02*
X00573846D01*
X00569406Y00817391D02*
X00570516Y00816281D01*
X00569406Y00817391D02*
Y00821390D01*
X00568296Y00822500D02*
X00569406Y00821390D01*
X00564966Y00822500D02*
X00568296D01*
X00563856Y00821390D02*
X00564966Y00822500D01*
X00563856Y00817391D02*
Y00821390D01*
X00562746Y00816281D02*
X00563856Y00817391D01*
X00559416Y00816281D02*
X00562746D01*
X00558306Y00817391D02*
X00559416Y00816281D01*
X00558306Y00817391D02*
Y00821390D01*
X00557196Y00822500D02*
X00558306Y00821390D01*
X00553866Y00822500D02*
X00557196D01*
X00552756Y00821390D02*
X00553866Y00822500D01*
X00552756Y00817391D02*
Y00821390D01*
X00551646Y00816281D02*
X00552756Y00817391D01*
X00548316Y00816281D02*
X00551646D01*
X00547206Y00817391D02*
X00548316Y00816281D01*
X00547206Y00817391D02*
Y00821390D01*
X00546096Y00822500D02*
X00547206Y00821390D01*
X00542766Y00822500D02*
X00546096D01*
X00541656Y00821390D02*
X00542766Y00822500D01*
X00541656Y00821110D02*
Y00821390D01*
X00540546Y00820000D02*
X00541656Y00821110D01*
X00539771Y00820000D02*
X00540546D01*
X00533375D02*
X00539771D01*
X00528500Y00815125D02*
X00533375Y00820000D01*
X00528500Y00811250D02*
Y00815125D01*
X00549500Y00781000D02*
X00554437D01*
X00541456Y00779500D02*
X00546048D01*
X00540346Y00778390D02*
X00541456Y00779500D01*
X00540346Y00770937D02*
Y00778390D01*
X00539236Y00769827D02*
X00540346Y00770937D01*
X00535906Y00769827D02*
X00539236D01*
X00534796Y00770937D02*
X00535906Y00769827D01*
X00534796Y00770937D02*
Y00788570D01*
X00533686Y00789680D02*
X00534796Y00788570D01*
X00530356Y00789680D02*
X00533686D01*
X00529246Y00788570D02*
X00530356Y00789680D01*
X00529246Y00780610D02*
Y00788570D01*
X00528136Y00779500D02*
X00529246Y00780610D01*
X00527361Y00779500D02*
X00528136D01*
X00546048D02*
X00548000D01*
X00549500Y00781000D01*
X00646232D02*
X00647125D01*
X00645122Y00779890D02*
X00646232Y00781000D01*
X00645122Y00779378D02*
Y00779890D01*
X00644012Y00778268D02*
X00645122Y00779378D01*
X00640682Y00778268D02*
X00644012D01*
X00639572Y00779378D02*
X00640682Y00778268D01*
X00639572Y00779378D02*
Y00782390D01*
X00638462Y00783500D02*
X00639572Y00782390D01*
X00635132Y00783500D02*
X00638462D01*
X00634022Y00782390D02*
X00635132Y00783500D01*
X00634022Y00779378D02*
Y00782390D01*
X00632912Y00778268D02*
X00634022Y00779378D01*
X00629582Y00778268D02*
X00632912D01*
X00628472Y00779378D02*
X00629582Y00778268D01*
X00628472Y00779378D02*
Y00781145D01*
X00627362Y00782255D02*
X00628472Y00781145D01*
X00624032Y00782255D02*
X00627362D01*
X00622922Y00781145D02*
X00624032Y00782255D01*
X00622922Y00779378D02*
Y00781145D01*
X00621812Y00778268D02*
X00622922Y00779378D01*
X00618482Y00778268D02*
X00621812D01*
X00617372Y00779378D02*
X00618482Y00778268D01*
X00617372Y00779378D02*
Y00780845D01*
X00616262Y00781955D02*
X00617372Y00780845D01*
X00612932Y00781955D02*
X00616262D01*
X00611822Y00780845D02*
X00612932Y00781955D01*
X00611822Y00779378D02*
Y00780845D01*
X00610712Y00778268D02*
X00611822Y00779378D01*
X00607382Y00778268D02*
X00610712D01*
X00606272Y00779378D02*
X00607382Y00778268D01*
X00606272Y00779378D02*
Y00780845D01*
X00605162Y00781955D02*
X00606272Y00780845D01*
X00601832Y00781955D02*
X00605162D01*
X00600722Y00780845D02*
X00601832Y00781955D01*
X00600722Y00779378D02*
Y00780845D01*
X00599612Y00778268D02*
X00600722Y00779378D01*
X00596282Y00778268D02*
X00599612D01*
X00595172Y00779378D02*
X00596282Y00778268D01*
X00595172Y00779378D02*
Y00782390D01*
X00594062Y00783500D02*
X00595172Y00782390D01*
X00590732Y00783500D02*
X00594062D01*
X00589622Y00782390D02*
X00590732Y00783500D01*
X00589622Y00779378D02*
Y00782390D01*
X00588512Y00778268D02*
X00589622Y00779378D01*
X00585182Y00778268D02*
X00588512D01*
X00584072Y00779378D02*
X00585182Y00778268D01*
X00584072Y00779378D02*
Y00782390D01*
X00582962Y00783500D02*
X00584072Y00782390D01*
X00579632Y00783500D02*
X00582962D01*
X00578522Y00782390D02*
X00579632Y00783500D01*
X00578522Y00779378D02*
Y00782390D01*
X00577412Y00778268D02*
X00578522Y00779378D01*
X00574082Y00778268D02*
X00577412D01*
X00572972Y00779378D02*
X00574082Y00778268D01*
X00572972Y00779378D02*
Y00781845D01*
X00571862Y00782955D02*
X00572972Y00781845D01*
X00568532Y00782955D02*
X00571862D01*
X00567422Y00781845D02*
X00568532Y00782955D01*
X00567422Y00779378D02*
Y00781845D01*
X00566312Y00778268D02*
X00567422Y00779378D01*
X00562982Y00778268D02*
X00566312D01*
X00561872Y00779378D02*
X00562982Y00778268D01*
X00561872Y00779378D02*
Y00779890D01*
X00560762Y00781000D02*
X00561872Y00779890D01*
X00554437Y00781000D02*
X00560762D01*
X00647125D02*
X00648000D01*
X00517500Y00779500D02*
X00527361D01*
X00548125Y00773000D02*
X00555006D01*
X00641251D02*
X00644250D01*
X00640142Y00774110D02*
X00641251Y00773000D01*
X00640142Y00774110D02*
Y00774390D01*
X00639031Y00775500D02*
X00640142Y00774390D01*
X00635701Y00775500D02*
X00639031D01*
X00634591Y00774390D02*
X00635701Y00775500D01*
X00634591Y00765340D02*
Y00774390D01*
X00633481Y00764231D02*
X00634591Y00765340D01*
X00630151Y00764231D02*
X00633481D01*
X00629041Y00765340D02*
X00630151Y00764231D01*
X00629041Y00765340D02*
Y00774390D01*
X00627932Y00775500D02*
X00629041Y00774390D01*
X00624601Y00775500D02*
X00627932D01*
X00623492Y00774390D02*
X00624601Y00775500D01*
X00623492Y00765340D02*
Y00774390D01*
X00622382Y00764231D02*
X00623492Y00765340D01*
X00619051Y00764231D02*
X00622382D01*
X00617942Y00765340D02*
X00619051Y00764231D01*
X00617942Y00765340D02*
Y00774390D01*
X00616832Y00775500D02*
X00617942Y00774390D01*
X00613501Y00775500D02*
X00616832D01*
X00612392Y00774390D02*
X00613501Y00775500D01*
X00612392Y00765340D02*
Y00774390D01*
X00611282Y00764231D02*
X00612392Y00765340D01*
X00607951Y00764231D02*
X00611282D01*
X00606842Y00765340D02*
X00607951Y00764231D01*
X00606842Y00765340D02*
Y00774390D01*
X00605732Y00775500D02*
X00606842Y00774390D01*
X00602401Y00775500D02*
X00605732D01*
X00601292Y00774390D02*
X00602401Y00775500D01*
X00601292Y00765340D02*
Y00774390D01*
X00600182Y00764231D02*
X00601292Y00765340D01*
X00596851Y00764231D02*
X00600182D01*
X00595742Y00765340D02*
X00596851Y00764231D01*
X00595742Y00765340D02*
Y00774390D01*
X00594632Y00775500D02*
X00595742Y00774390D01*
X00591301Y00775500D02*
X00594632D01*
X00590191Y00774390D02*
X00591301Y00775500D01*
X00590191Y00765340D02*
Y00774390D01*
X00589081Y00764231D02*
X00590191Y00765340D01*
X00585751Y00764231D02*
X00589081D01*
X00584641Y00765340D02*
X00585751Y00764231D01*
X00584641Y00765340D02*
Y00774390D01*
X00583531Y00775500D02*
X00584641Y00774390D01*
X00580201Y00775500D02*
X00583531D01*
X00579091Y00774390D02*
X00580201Y00775500D01*
X00579091Y00765340D02*
Y00774390D01*
X00577981Y00764231D02*
X00579091Y00765340D01*
X00574651Y00764231D02*
X00577981D01*
X00573541Y00765340D02*
X00574651Y00764231D01*
X00573541Y00765340D02*
Y00774390D01*
X00572431Y00775500D02*
X00573541Y00774390D01*
X00569101Y00775500D02*
X00572431D01*
X00567991Y00774390D02*
X00569101Y00775500D01*
X00567991Y00765340D02*
Y00774390D01*
X00566881Y00764231D02*
X00567991Y00765340D01*
X00563551Y00764231D02*
X00566881D01*
X00562441Y00765340D02*
X00563551Y00764231D01*
X00562441Y00765340D02*
Y00774390D01*
X00561331Y00775500D02*
X00562441Y00774390D01*
X00558001Y00775500D02*
X00561331D01*
X00556891Y00774390D02*
X00558001Y00775500D01*
X00556891Y00774110D02*
Y00774390D01*
X00555782Y00773000D02*
X00556891Y00774110D01*
X00555006Y00773000D02*
X00555782D01*
X00644250D02*
X00645000D01*
X00540125Y00765000D02*
X00548125Y00773000D01*
X00529250Y00765000D02*
X00540125D01*
X00640938Y00759000D02*
X00649000D01*
X00639828Y00760110D02*
X00640938Y00759000D01*
X00639828Y00760110D02*
Y00760126D01*
X00638718Y00761236D02*
X00639828Y00760126D01*
X00635388Y00761236D02*
X00638718D01*
X00634278Y00760126D02*
X00635388Y00761236D01*
X00634278Y00758792D02*
Y00760126D01*
X00633168Y00757682D02*
X00634278Y00758792D01*
X00629838Y00757682D02*
X00633168D01*
X00628728Y00758792D02*
X00629838Y00757682D01*
X00628728Y00758792D02*
Y00760126D01*
X00627618Y00761236D02*
X00628728Y00760126D01*
X00624288Y00761236D02*
X00627618D01*
X00623178Y00760126D02*
X00624288Y00761236D01*
X00623178Y00758792D02*
Y00760126D01*
X00622068Y00757682D02*
X00623178Y00758792D01*
X00618738Y00757682D02*
X00622068D01*
X00617628Y00758792D02*
X00618738Y00757682D01*
X00617628Y00758792D02*
Y00760126D01*
X00616518Y00761236D02*
X00617628Y00760126D01*
X00613188Y00761236D02*
X00616518D01*
X00612078Y00760126D02*
X00613188Y00761236D01*
X00612078Y00758792D02*
Y00760126D01*
X00610968Y00757682D02*
X00612078Y00758792D01*
X00607638Y00757682D02*
X00610968D01*
X00606528Y00758792D02*
X00607638Y00757682D01*
X00606528Y00758792D02*
Y00760126D01*
X00605418Y00761236D02*
X00606528Y00760126D01*
X00602088Y00761236D02*
X00605418D01*
X00600978Y00760126D02*
X00602088Y00761236D01*
X00600978Y00758792D02*
Y00760126D01*
X00599868Y00757682D02*
X00600978Y00758792D01*
X00596538Y00757682D02*
X00599868D01*
X00595428Y00758792D02*
X00596538Y00757682D01*
X00595428Y00758792D02*
Y00760126D01*
X00594318Y00761236D02*
X00595428Y00760126D01*
X00590988Y00761236D02*
X00594318D01*
X00589878Y00760126D02*
X00590988Y00761236D01*
X00589878Y00758792D02*
Y00760126D01*
X00588768Y00757682D02*
X00589878Y00758792D01*
X00585438Y00757682D02*
X00588768D01*
X00584328Y00758792D02*
X00585438Y00757682D01*
X00584328Y00758792D02*
Y00760126D01*
X00583218Y00761236D02*
X00584328Y00760126D01*
X00579888Y00761236D02*
X00583218D01*
X00578778Y00760126D02*
X00579888Y00761236D01*
X00578778Y00758792D02*
Y00760126D01*
X00577668Y00757682D02*
X00578778Y00758792D01*
X00574338Y00757682D02*
X00577668D01*
X00573228Y00758792D02*
X00574338Y00757682D01*
X00573228Y00758792D02*
Y00760126D01*
X00572118Y00761236D02*
X00573228Y00760126D01*
X00568788Y00761236D02*
X00572118D01*
X00567678Y00760126D02*
X00568788Y00761236D01*
X00567678Y00760110D02*
Y00760126D01*
X00566568Y00759000D02*
X00567678Y00760110D01*
X00565793Y00759000D02*
X00566568D01*
X00562000D02*
X00565793D01*
X00593793Y00745793D02*
X00594000Y00746000D01*
X00596155D01*
X00597265Y00744890D01*
Y00740081D02*
Y00744890D01*
Y00740081D02*
X00598375Y00738971D01*
X00601705D01*
X00602815Y00740081D01*
Y00749002D01*
X00603925Y00750112D01*
X00607255D01*
X00608365Y00749002D01*
Y00740081D02*
Y00749002D01*
Y00740081D02*
X00609475Y00738971D01*
X00612805D01*
X00613915Y00740081D01*
Y00749002D01*
X00615025Y00750112D01*
X00618355D01*
X00619465Y00749002D01*
Y00740081D02*
Y00749002D01*
Y00740081D02*
X00620575Y00738971D01*
X00623905D01*
X00625015Y00740081D01*
Y00749002D01*
X00626125Y00750112D01*
X00629455D01*
X00630565Y00749002D01*
Y00740081D02*
Y00749002D01*
Y00740081D02*
X00631675Y00738971D01*
X00635005D01*
X00636115Y00740081D01*
Y00744890D01*
X00637225Y00746000D01*
X00638000D01*
X00587500Y00739500D02*
X00593793Y00745793D01*
X00538875Y00702000D02*
X00543255D01*
X00544365Y00700890D01*
Y00700610D02*
Y00700890D01*
Y00700610D02*
X00545475Y00699500D01*
X00548805D01*
X00549915Y00700610D01*
Y00703390D01*
X00551025Y00704500D01*
X00554355D01*
X00555465Y00703390D01*
Y00700610D02*
Y00703390D01*
Y00700610D02*
X00556575Y00699500D01*
X00559905D01*
X00561015Y00700610D01*
Y00703390D01*
X00562125Y00704500D01*
X00565455D01*
X00566565Y00703390D01*
Y00700610D02*
Y00703390D01*
Y00700610D02*
X00567675Y00699500D01*
X00571005D01*
X00572115Y00700610D01*
Y00700890D01*
X00573225Y00702000D01*
X00574000D01*
X00538000D02*
X00538875D01*
X00574000D02*
X00575000D01*
X00579000Y00706000D01*
Y00749000D01*
X00534750Y00705250D02*
Y00710115D01*
Y00705250D02*
X00538000Y00702000D01*
X00584000Y00754000D02*
X00642000D01*
X00579000Y00749000D02*
X00584000Y00754000D01*
X00559000Y00743000D02*
X00564000D01*
X00574000Y00733000D02*
Y00747000D01*
X00569000Y00752000D02*
X00574000Y00747000D01*
X00572000Y00731000D02*
X00574000Y00733000D01*
X00569000Y00731000D02*
X00572000D01*
X00567000Y00733000D02*
Y00740000D01*
Y00733000D02*
X00569000Y00731000D01*
X00564000Y00743000D02*
X00567000Y00740000D01*
X00560000Y00754500D02*
Y00757000D01*
Y00754500D02*
X00562500Y00752000D01*
X00569000D01*
X00547000Y00749000D02*
X00553000D01*
X00559000Y00743000D01*
X00545000Y00747000D02*
X00546615Y00748615D01*
X00545000Y00744870D02*
Y00747000D01*
X00543890Y00743760D02*
X00545000Y00744870D01*
X00543610Y00743760D02*
X00543890D01*
X00542500Y00742650D02*
X00543610Y00743760D01*
X00542500Y00739320D02*
Y00742650D01*
Y00739320D02*
X00543610Y00738210D01*
X00554005D01*
X00555115Y00737100D01*
Y00733770D02*
Y00737100D01*
X00554005Y00732660D02*
X00555115Y00733770D01*
X00543610Y00732660D02*
X00554005D01*
X00542500Y00731550D02*
X00543610Y00732660D01*
X00542500Y00728220D02*
Y00731550D01*
Y00728220D02*
X00543610Y00727110D01*
X00548565D01*
X00549675Y00726000D01*
Y00722670D02*
Y00726000D01*
X00548565Y00721560D02*
X00549675Y00722670D01*
X00543610Y00721560D02*
X00548565D01*
X00542500Y00720450D02*
X00543610Y00721560D01*
X00542500Y00717120D02*
Y00720450D01*
Y00717120D02*
X00543610Y00716010D01*
X00544990D01*
X00546875Y00714125D01*
X00546615Y00748615D02*
X00547000Y00749000D01*
X00546875Y00714125D02*
X00547000Y00714000D01*
X00649000Y00759000D02*
X00668000Y00740000D01*
X00560000Y00757000D02*
X00562000Y00759000D01*
X00547000Y00714000D02*
X00554750D01*
X00534750Y00746410D02*
Y00748000D01*
Y00746410D02*
X00535860Y00745300D01*
X00536140D01*
X00537250Y00744190D01*
Y00740860D02*
Y00744190D01*
X00536140Y00739750D02*
X00537250Y00740860D01*
X00529809Y00739750D02*
X00536140D01*
X00528699Y00738640D02*
X00529809Y00739750D01*
X00528699Y00735310D02*
Y00738640D01*
Y00735310D02*
X00529809Y00734200D01*
X00536140D01*
X00537250Y00733090D01*
Y00729760D02*
Y00733090D01*
X00536140Y00728650D02*
X00537250Y00729760D01*
X00530155Y00728650D02*
X00536140D01*
X00529045Y00727540D02*
X00530155Y00728650D01*
X00529045Y00724210D02*
Y00727540D01*
Y00724210D02*
X00530155Y00723100D01*
X00536140D01*
X00537250Y00721990D01*
Y00718660D02*
Y00721990D01*
X00536140Y00717550D02*
X00537250Y00718660D01*
X00531245Y00717550D02*
X00536140D01*
X00530135Y00716440D02*
X00531245Y00717550D01*
X00530135Y00713110D02*
Y00716440D01*
Y00713110D02*
X00531245Y00712000D01*
X00533640D01*
X00534750Y00710890D01*
Y00710115D02*
Y00710890D01*
Y00748000D02*
Y00755000D01*
X00520897Y00693500D02*
X00524555D01*
X00525665Y00692390D01*
Y00692110D02*
Y00692390D01*
Y00692110D02*
X00526775Y00691000D01*
X00530105D01*
X00531215Y00692110D01*
Y00694890D01*
X00532325Y00696000D01*
X00535655D01*
X00536765Y00694890D01*
Y00692110D02*
Y00694890D01*
Y00692110D02*
X00537875Y00691000D01*
X00541205D01*
X00542315Y00692110D01*
Y00694890D01*
X00543425Y00696000D01*
X00546755D01*
X00547865Y00694890D01*
Y00692110D02*
Y00694890D01*
Y00692110D02*
X00548975Y00691000D01*
X00552305D01*
X00553415Y00692110D01*
Y00694890D01*
X00554525Y00696000D01*
X00557855D01*
X00558965Y00694890D01*
Y00692110D02*
Y00694890D01*
Y00692110D02*
X00560075Y00691000D01*
X00563405D01*
X00564515Y00692110D01*
Y00694890D01*
X00565625Y00696000D01*
X00568955D01*
X00570065Y00694890D01*
Y00692110D02*
Y00694890D01*
Y00692110D02*
X00571175Y00691000D01*
X00574505D01*
X00575615Y00692110D01*
Y00692390D01*
X00576725Y00693500D01*
X00577500D01*
X00520500D02*
X00520897D01*
X00515750Y00714000D02*
Y00716486D01*
Y00721250D01*
Y00698250D02*
Y00708250D01*
Y00698250D02*
X00520500Y00693500D01*
X00501000Y00688500D02*
Y00700155D01*
X00502110Y00701265D01*
X00506654D01*
X00507764Y00702375D01*
Y00705705D01*
X00506654Y00706815D02*
X00507764Y00705705D01*
X00498155Y00706815D02*
X00506654D01*
X00497045Y00707925D02*
X00498155Y00706815D01*
X00497045Y00707925D02*
Y00711255D01*
X00498155Y00712365D01*
X00507477D01*
X00508586Y00713475D01*
Y00716805D01*
X00507477Y00717915D02*
X00508586Y00716805D01*
X00495830Y00717915D02*
X00507477D01*
X00494720Y00719025D02*
X00495830Y00717915D01*
X00494720Y00719025D02*
Y00722355D01*
X00495830Y00723465D01*
X00507477D01*
X00508586Y00724575D01*
Y00727905D01*
X00507477Y00729015D02*
X00508586Y00727905D01*
X00495830Y00729015D02*
X00507477D01*
X00494720Y00730125D02*
X00495830Y00729015D01*
X00494720Y00730125D02*
Y00733455D01*
X00495830Y00734565D01*
X00503845D01*
X00504955Y00735675D01*
Y00739005D01*
X00503845Y00740115D02*
X00504955Y00739005D01*
X00502110Y00740115D02*
X00503845D01*
X00501000Y00741225D02*
X00502110Y00740115D01*
X00501000Y00741225D02*
Y00742000D01*
Y00688000D02*
Y00688500D01*
Y00742000D02*
Y00745000D01*
X00505000Y00684000D02*
X00584000D01*
X00501000Y00688000D02*
X00505000Y00684000D01*
X00496167Y00749833D02*
Y00753583D01*
X00495750Y00754000D02*
X00496167Y00753583D01*
Y00749833D02*
X00501000Y00745000D01*
X00633106Y00730000D02*
X00636000D01*
X00638000Y00728000D01*
X00610000Y00730000D02*
X00613461D01*
X00614571Y00728890D01*
Y00713957D02*
Y00728890D01*
Y00713957D02*
X00615681Y00712847D01*
X00619011D01*
X00620121Y00713957D01*
Y00731390D01*
X00621231Y00732500D01*
X00624561D01*
X00625671Y00731390D01*
Y00713957D02*
Y00731390D01*
Y00713957D02*
X00626781Y00712847D01*
X00630111D01*
X00631221Y00713957D01*
Y00728890D01*
X00632331Y00730000D01*
X00633106D01*
X00609000D02*
X00610000D01*
X00606000Y00691000D02*
Y00727000D01*
X00609000Y00730000D01*
X00477500Y00707802D02*
Y00710000D01*
X00476390Y00706692D02*
X00477500Y00707802D01*
X00476110Y00706692D02*
X00476390D01*
X00475000Y00705582D02*
X00476110Y00706692D01*
X00475000Y00702252D02*
Y00705582D01*
Y00702252D02*
X00476110Y00701142D01*
X00485970D01*
X00487080Y00700032D01*
Y00696702D02*
Y00700032D01*
X00485970Y00695592D02*
X00487080Y00696702D01*
X00476110Y00695592D02*
X00485970D01*
X00475000Y00694482D02*
X00476110Y00695592D01*
X00475000Y00691152D02*
Y00694482D01*
Y00691152D02*
X00476110Y00690042D01*
X00476390D01*
X00477500Y00688932D01*
Y00688156D02*
Y00688932D01*
Y00710000D02*
Y00713750D01*
Y00686500D02*
Y00688156D01*
Y00686500D02*
X00485000Y00679000D01*
X00457000Y00724259D02*
Y00726321D01*
Y00724259D02*
X00458110Y00723149D01*
X00467819D01*
X00468929Y00722039D01*
Y00718709D02*
Y00722039D01*
X00467819Y00717599D02*
X00468929Y00718709D01*
X00456980Y00717599D02*
X00467819D01*
X00455870Y00716489D02*
X00456980Y00717599D01*
X00455870Y00713159D02*
Y00716489D01*
Y00713159D02*
X00456980Y00712049D01*
X00467819D01*
X00468929Y00710939D01*
Y00707609D02*
Y00710939D01*
X00467819Y00706499D02*
X00468929Y00707609D01*
X00456980Y00706499D02*
X00467819D01*
X00455870Y00705389D02*
X00456980Y00706499D01*
X00455870Y00702059D02*
Y00705389D01*
Y00702059D02*
X00456980Y00700949D01*
X00467819D01*
X00468929Y00699839D01*
Y00696509D02*
Y00699839D01*
X00467819Y00695399D02*
X00468929Y00696509D01*
X00458110Y00695399D02*
X00467819D01*
X00457000Y00694289D02*
X00458110Y00695399D01*
X00457000Y00687964D02*
Y00694289D01*
Y00726321D02*
Y00727000D01*
X00448000Y00736000D02*
X00457000Y00727000D01*
X00448000Y00736000D02*
Y00741000D01*
X00457000Y00686500D02*
Y00687964D01*
Y00686500D02*
X00470500Y00673000D01*
X00537000Y00666000D02*
X00546955D01*
X00548065Y00664890D01*
Y00655717D02*
Y00664890D01*
Y00655717D02*
X00549175Y00654607D01*
X00552505D01*
X00553615Y00655717D01*
Y00665799D01*
X00554725Y00666909D01*
X00558055D01*
X00559165Y00665799D01*
Y00655717D02*
Y00665799D01*
Y00655717D02*
X00560275Y00654607D01*
X00563605D01*
X00564715Y00655717D01*
Y00665799D01*
X00565825Y00666909D01*
X00569155D01*
X00570265Y00665799D01*
Y00655717D02*
Y00665799D01*
Y00655717D02*
X00571375Y00654607D01*
X00574705D01*
X00575815Y00655717D01*
Y00665799D01*
X00576925Y00666909D01*
X00580255D01*
X00581365Y00665799D01*
Y00655717D02*
Y00665799D01*
Y00655717D02*
X00582475Y00654607D01*
X00585805D01*
X00586915Y00655717D01*
Y00665799D01*
X00588025Y00666909D01*
X00591355D01*
X00592465Y00665799D01*
Y00655717D02*
Y00665799D01*
Y00655717D02*
X00593575Y00654607D01*
X00596905D01*
X00598015Y00655717D01*
Y00665799D01*
X00599125Y00666909D01*
X00602455D01*
X00603565Y00665799D01*
Y00655717D02*
Y00665799D01*
Y00655717D02*
X00604675Y00654607D01*
X00608005D01*
X00609115Y00655717D01*
Y00664890D01*
X00610225Y00666000D01*
X00611000D01*
X00453000D02*
X00537000D01*
X00611000D02*
X00613000D01*
X00440750Y00678250D02*
X00453000Y00666000D01*
X00440750Y00678250D02*
Y00714000D01*
X00428000Y00732849D02*
Y00734000D01*
X00426890Y00731739D02*
X00428000Y00732849D01*
X00426610Y00731739D02*
X00426890D01*
X00425500Y00730629D02*
X00426610Y00731739D01*
X00425500Y00727299D02*
Y00730629D01*
Y00727299D02*
X00426610Y00726189D01*
X00433029D01*
X00434139Y00725079D01*
Y00721749D02*
Y00725079D01*
X00433029Y00720639D02*
X00434139Y00721749D01*
X00426610Y00720639D02*
X00433029D01*
X00425500Y00719529D02*
X00426610Y00720639D01*
X00425500Y00716199D02*
Y00719529D01*
Y00716199D02*
X00426610Y00715089D01*
X00433029D01*
X00434139Y00713979D01*
Y00710648D02*
Y00713979D01*
X00433029Y00709538D02*
X00434139Y00710648D01*
X00426610Y00709538D02*
X00433029D01*
X00425500Y00708428D02*
X00426610Y00709538D01*
X00425500Y00705098D02*
Y00708428D01*
Y00705098D02*
X00426610Y00703988D01*
X00433029D01*
X00434139Y00702878D01*
Y00699548D02*
Y00702878D01*
X00433029Y00698438D02*
X00434139Y00699548D01*
X00426610Y00698438D02*
X00433029D01*
X00425500Y00697328D02*
X00426610Y00698438D01*
X00425500Y00693998D02*
Y00697328D01*
Y00693998D02*
X00426610Y00692888D01*
X00433029D01*
X00434139Y00691778D01*
Y00688448D02*
Y00691778D01*
X00433029Y00687338D02*
X00434139Y00688448D01*
X00426610Y00687338D02*
X00433029D01*
X00425500Y00686228D02*
X00426610Y00687338D01*
X00425500Y00682898D02*
Y00686228D01*
Y00682898D02*
X00426610Y00681788D01*
X00433029D01*
X00434139Y00680678D01*
Y00677348D02*
Y00680678D01*
X00433029Y00676238D02*
X00434139Y00677348D01*
X00426610Y00676238D02*
X00433029D01*
X00425500Y00675128D02*
X00426610Y00676238D01*
X00425500Y00671798D02*
Y00675128D01*
Y00671798D02*
X00426610Y00670688D01*
X00426890D01*
X00428000Y00669578D01*
Y00669000D02*
Y00669578D01*
Y00669000D02*
X00428197Y00668803D01*
X00437000Y00660000D01*
X00529000D01*
X00428000Y00734000D02*
Y00751750D01*
X00427000D02*
X00428000D01*
X00434750D01*
X00529000Y00660000D02*
X00540000Y00649000D01*
Y00619444D02*
Y00649000D01*
X00513556Y00593000D02*
X00540000Y00619444D01*
X00523872Y00649128D02*
X00523872Y00648353D01*
X00523873Y00647687D01*
X00524982Y00646577D01*
X00531287D01*
X00532397Y00645467D01*
Y00642137D02*
Y00645467D01*
X00531287Y00641027D02*
X00532397Y00642137D01*
X00522976Y00641027D02*
X00531287D01*
X00521866Y00639917D02*
X00522976Y00641027D01*
X00521866Y00636587D02*
Y00639917D01*
Y00636587D02*
X00522976Y00635477D01*
X00531287D01*
X00532397Y00634367D01*
Y00631037D02*
Y00634367D01*
X00531287Y00629927D02*
X00532397Y00631037D01*
X00522976Y00629927D02*
X00531287D01*
X00521866Y00628817D02*
X00522976Y00629927D01*
X00521866Y00625487D02*
Y00628817D01*
Y00625487D02*
X00522976Y00624377D01*
X00531287D01*
X00532397Y00623267D01*
Y00619937D02*
Y00623267D01*
X00531287Y00618827D02*
X00532397Y00619937D01*
X00524996Y00618827D02*
X00531287D01*
X00523886Y00617717D02*
X00524996Y00618827D01*
X00523886Y00617717D02*
X00523889Y00612167D01*
X00523889Y00611392D01*
X00518500Y00654500D02*
X00523872Y00649128D01*
X00431500Y00654500D02*
X00518500D01*
X00523889Y00611111D02*
Y00611392D01*
X00530998Y00555501D02*
Y00583274D01*
X00514999Y00586366D02*
X00578632Y00650000D01*
X00577996Y00643000D02*
X00666000D01*
X00526998Y00585638D02*
X00577360Y00636000D01*
X00546998Y00580182D02*
X00574816Y00608000D01*
X00534998Y00580910D02*
X00576088Y00622000D01*
X00522999Y00555501D02*
Y00588002D01*
X00574816Y00608000D02*
X00691000D01*
X00578632Y00650000D02*
X00662000D01*
X00576088Y00622000D02*
X00682000D01*
X00575452Y00615000D02*
X00687000D01*
X00542999Y00555501D02*
Y00582546D01*
X00530998Y00583274D02*
X00576724Y00629000D01*
X00542999Y00582546D02*
X00575452Y00615000D01*
X00577360Y00636000D02*
X00671000D01*
X00522999Y00588002D02*
X00577996Y00643000D01*
X00514999Y00555501D02*
Y00586366D01*
X00526998Y00555501D02*
Y00585638D01*
X00576724Y00629000D02*
X00676000D01*
X00534998Y00555501D02*
Y00580910D01*
X00546998Y00555501D02*
Y00580182D01*
X00402750Y00695656D02*
Y00699967D01*
Y00695656D02*
X00403860Y00694546D01*
X00411887D01*
X00412997Y00693436D01*
Y00690106D02*
Y00693436D01*
X00411887Y00688996D02*
X00412997Y00690106D01*
X00401360Y00688996D02*
X00411887D01*
X00400250Y00687886D02*
X00401360Y00688996D01*
X00400250Y00684556D02*
Y00687886D01*
Y00684556D02*
X00401360Y00683446D01*
X00411887D01*
X00412997Y00682336D01*
Y00679006D02*
Y00682336D01*
X00411887Y00677896D02*
X00412997Y00679006D01*
X00401360Y00677896D02*
X00411887D01*
X00400250Y00676786D02*
X00401360Y00677896D01*
X00400250Y00673456D02*
Y00676786D01*
Y00673456D02*
X00401360Y00672346D01*
X00411887D01*
X00412997Y00671236D01*
Y00667906D02*
Y00671236D01*
X00411887Y00666796D02*
X00412997Y00667906D01*
X00401360Y00666796D02*
X00411887D01*
X00400250Y00665686D02*
X00401360Y00666796D01*
X00400250Y00662356D02*
Y00665686D01*
Y00662356D02*
X00401360Y00661246D01*
X00401640D01*
X00402750Y00660136D01*
Y00659361D02*
Y00660136D01*
Y00656250D02*
Y00659361D01*
X00410000Y00649000D02*
X00502000D01*
X00402750Y00656250D02*
X00410000Y00649000D01*
X00510000Y00634358D02*
Y00638000D01*
X00508890Y00633248D02*
X00510000Y00634358D01*
X00502032Y00633248D02*
X00508890D01*
X00500922Y00632138D02*
X00502032Y00633248D01*
X00500922Y00628808D02*
Y00632138D01*
Y00628808D02*
X00502032Y00627698D01*
X00513917D01*
X00515027Y00626588D01*
Y00623258D02*
Y00626588D01*
X00513917Y00622148D02*
X00515027Y00623258D01*
X00502032Y00622148D02*
X00513917D01*
X00500922Y00621038D02*
X00502032Y00622148D01*
X00500922Y00617708D02*
Y00621038D01*
Y00617708D02*
X00502032Y00616598D01*
X00508890D01*
X00510000Y00615488D01*
Y00614713D02*
Y00615488D01*
Y00638000D02*
Y00641000D01*
Y00612000D02*
Y00614713D01*
X00502000Y00604000D02*
X00510000Y00612000D01*
X00502000Y00649000D02*
X00510000Y00641000D01*
X00417444Y00604000D02*
X00502000D01*
X00391750Y00750834D02*
Y00753000D01*
X00496000Y00615000D02*
Y00636000D01*
X00489500Y00642500D02*
X00496000Y00636000D01*
X00399500Y00642500D02*
X00489500D01*
X00416000Y00610000D02*
X00491000D01*
X00496000Y00615000D01*
X00402750Y00699967D02*
Y00714000D01*
X00420000Y00666000D02*
Y00733000D01*
Y00666000D02*
X00431500Y00654500D01*
X00369000Y00696441D02*
Y00697593D01*
Y00696441D02*
X00370110Y00695331D01*
X00372680D01*
X00373790Y00694221D01*
Y00690891D02*
Y00694221D01*
X00372680Y00689781D02*
X00373790Y00690891D01*
X00364922Y00689781D02*
X00372680D01*
X00363812Y00688671D02*
X00364922Y00689781D01*
X00363812Y00685341D02*
Y00688671D01*
Y00685341D02*
X00364922Y00684231D01*
X00372680D01*
X00373790Y00683121D01*
Y00679791D02*
Y00683121D01*
X00372680Y00678681D02*
X00373790Y00679791D01*
X00364922Y00678681D02*
X00372680D01*
X00363812Y00677571D02*
X00364922Y00678681D01*
X00363812Y00674241D02*
Y00677571D01*
Y00674241D02*
X00364922Y00673131D01*
X00372680D01*
X00373790Y00672021D01*
Y00668691D02*
Y00672021D01*
X00372680Y00667581D02*
X00373790Y00668691D01*
X00364922Y00667581D02*
X00372680D01*
X00363812Y00666471D02*
X00364922Y00667581D01*
X00363812Y00663141D02*
Y00666471D01*
Y00663141D02*
X00364922Y00662031D01*
X00372680D01*
X00373790Y00660921D01*
Y00657591D02*
Y00660921D01*
X00372680Y00656481D02*
X00373790Y00657591D01*
X00364922Y00656481D02*
X00372680D01*
X00363812Y00655371D02*
X00364922Y00656481D01*
X00363812Y00652041D02*
Y00655371D01*
Y00652041D02*
X00364922Y00650931D01*
X00367890D01*
X00369000Y00649821D01*
Y00649046D02*
Y00649821D01*
Y00697593D02*
Y00698000D01*
Y00639000D02*
Y00649046D01*
Y00639000D02*
X00378000Y00630000D01*
X00363750Y00703250D02*
X00369000Y00698000D01*
X00363750Y00703250D02*
Y00714000D01*
X00352000Y00642000D02*
X00352980Y00641021D01*
Y00639451D02*
Y00641021D01*
X00350870Y00637341D02*
X00352980Y00639451D01*
X00350870Y00635771D02*
Y00637341D01*
Y00635771D02*
X00353224Y00633417D01*
X00354794D01*
X00359899Y00638522D01*
X00361469D01*
X00363824Y00636167D01*
Y00634597D02*
Y00636167D01*
X00358719Y00629492D02*
X00363824Y00634597D01*
X00358719Y00627923D02*
Y00629492D01*
Y00627923D02*
X00361073Y00625568D01*
X00362643D01*
X00367748Y00630673D01*
X00369318D01*
X00371673Y00628318D01*
Y00626748D02*
Y00628318D01*
X00366568Y00621643D02*
X00371673Y00626748D01*
X00366568Y00620074D02*
Y00621643D01*
Y00620074D02*
X00368922Y00617719D01*
X00370492D01*
X00372602Y00619829D01*
X00374171D01*
X00374720Y00619281D01*
X00350000Y00644000D02*
X00352000Y00642000D01*
X00374720Y00619281D02*
X00375000Y00619000D01*
Y00510231D02*
Y00619000D01*
X00350000Y00644000D02*
Y00648354D01*
Y00717949D02*
Y00720000D01*
Y00717949D02*
X00351110Y00716839D01*
X00356492D01*
X00357602Y00715729D01*
Y00712399D02*
Y00715729D01*
X00356492Y00711289D02*
X00357602Y00712399D01*
X00348610Y00711289D02*
X00356492D01*
X00347500Y00710179D02*
X00348610Y00711289D01*
X00347500Y00706849D02*
Y00710179D01*
Y00706849D02*
X00348610Y00705739D01*
X00356492D01*
X00357602Y00704629D01*
Y00701299D02*
Y00704629D01*
X00356492Y00700189D02*
X00357602Y00701299D01*
X00348610Y00700189D02*
X00356492D01*
X00347500Y00699079D02*
X00348610Y00700189D01*
X00347500Y00695749D02*
Y00699079D01*
Y00695749D02*
X00348610Y00694639D01*
X00356492D01*
X00357602Y00693529D01*
Y00690199D02*
Y00693529D01*
X00356492Y00689089D02*
X00357602Y00690199D01*
X00348610Y00689089D02*
X00356492D01*
X00347500Y00687979D02*
X00348610Y00689089D01*
X00347500Y00684649D02*
Y00687979D01*
Y00684649D02*
X00348610Y00683539D01*
X00356492D01*
X00357602Y00682429D01*
Y00679099D02*
Y00682429D01*
X00356492Y00677989D02*
X00357602Y00679099D01*
X00348610Y00677989D02*
X00356492D01*
X00347500Y00676879D02*
X00348610Y00677989D01*
X00347500Y00673549D02*
Y00676879D01*
Y00673549D02*
X00348610Y00672439D01*
X00356492D01*
X00357602Y00671329D01*
Y00667999D02*
Y00671329D01*
X00356492Y00666889D02*
X00357602Y00667999D01*
X00348610Y00666889D02*
X00356492D01*
X00347500Y00665779D02*
X00348610Y00666889D01*
X00347500Y00662449D02*
Y00665779D01*
Y00662449D02*
X00348610Y00661339D01*
X00356492D01*
X00357602Y00660229D01*
Y00656899D02*
Y00660229D01*
X00356492Y00655789D02*
X00357602Y00656899D01*
X00348610Y00655789D02*
X00356492D01*
X00347500Y00654679D02*
X00348610Y00655789D01*
X00347500Y00651349D02*
Y00654679D01*
Y00651349D02*
X00348610Y00650239D01*
X00348890D01*
X00350000Y00649129D01*
Y00648354D02*
Y00649129D01*
Y00720000D02*
Y00722500D01*
X00358000Y00730500D01*
X00355000Y00746000D02*
X00358000Y00743000D01*
X00354858Y00746000D02*
X00355000D01*
X00352975Y00747883D02*
X00354858Y00746000D01*
X00358000Y00730500D02*
Y00743000D01*
X00352975Y00747883D02*
Y00751025D01*
X00351000Y00753000D02*
X00352975Y00751025D01*
X00342000Y00753000D02*
X00351000D01*
X00381000Y00592000D02*
X00411000Y00622000D01*
X00265000Y00713000D02*
X00275500Y00723500D01*
X00265000Y00634000D02*
Y00713000D01*
Y00634000D02*
X00343590Y00555410D01*
X00296000Y00685477D02*
Y00688000D01*
Y00685477D02*
X00297110Y00684367D01*
X00299952D01*
X00301062Y00683257D01*
Y00679927D02*
Y00683257D01*
X00299952Y00678817D02*
X00301062Y00679927D01*
X00293105Y00678817D02*
X00299952D01*
X00291995Y00677707D02*
X00293105Y00678817D01*
X00291995Y00674377D02*
Y00677707D01*
Y00674377D02*
X00293105Y00673267D01*
X00299952D01*
X00301062Y00672157D01*
Y00668827D02*
Y00672157D01*
X00299952Y00667717D02*
X00301062Y00668827D01*
X00293105Y00667717D02*
X00299952D01*
X00291995Y00666607D02*
X00293105Y00667717D01*
X00291995Y00663277D02*
Y00666607D01*
Y00663277D02*
X00293105Y00662167D01*
X00299952D01*
X00301062Y00661057D01*
Y00657727D02*
Y00661057D01*
X00299952Y00656617D02*
X00301062Y00657727D01*
X00293105Y00656617D02*
X00299952D01*
X00291995Y00655507D02*
X00293105Y00656617D01*
X00291995Y00652177D02*
Y00655507D01*
Y00652177D02*
X00293105Y00651067D01*
X00299952D01*
X00301062Y00649957D01*
Y00646627D02*
Y00649957D01*
X00299952Y00645517D02*
X00301062Y00646627D01*
X00293105Y00645517D02*
X00299952D01*
X00291995Y00644407D02*
X00293105Y00645517D01*
X00291995Y00641077D02*
Y00644407D01*
Y00641077D02*
X00293105Y00639967D01*
X00294890D01*
X00296000Y00638857D01*
Y00638082D02*
Y00638857D01*
X00299750Y00759750D02*
Y00772750D01*
X00296000Y00688000D02*
Y00691000D01*
Y00629000D02*
Y00638082D01*
Y00629000D02*
X00353000Y00572000D01*
X00304000Y00699000D02*
Y00739000D01*
X00296000Y00691000D02*
X00304000Y00699000D01*
X00282000Y00697595D02*
Y00706245D01*
Y00697595D02*
X00283110Y00696485D01*
X00284094D01*
X00285204Y00695375D01*
Y00692045D02*
Y00695375D01*
X00284094Y00690935D02*
X00285204Y00692045D01*
X00277076Y00690935D02*
X00284094D01*
X00275966Y00689825D02*
X00277076Y00690935D01*
X00275966Y00686495D02*
Y00689825D01*
Y00686495D02*
X00277076Y00685385D01*
X00285296D01*
X00286406Y00684275D01*
Y00680945D02*
Y00684275D01*
X00285296Y00679835D02*
X00286406Y00680945D01*
X00277076Y00679835D02*
X00285296D01*
X00275966Y00678725D02*
X00277076Y00679835D01*
X00275966Y00675395D02*
Y00678725D01*
Y00675395D02*
X00277076Y00674285D01*
X00285296D01*
X00286406Y00673175D01*
Y00669845D02*
Y00673175D01*
X00285296Y00668735D02*
X00286406Y00669845D01*
X00277076Y00668735D02*
X00285296D01*
X00275966Y00667625D02*
X00277076Y00668735D01*
X00275966Y00664295D02*
Y00667625D01*
Y00664295D02*
X00277076Y00663185D01*
X00285296D01*
X00286406Y00662075D01*
Y00658745D02*
Y00662075D01*
X00285296Y00657635D02*
X00286406Y00658745D01*
X00277076Y00657635D02*
X00285296D01*
X00275966Y00656525D02*
X00277076Y00657635D01*
X00275966Y00653195D02*
Y00656525D01*
Y00653195D02*
X00277076Y00652085D01*
X00285296D01*
X00286406Y00650975D01*
Y00647645D02*
Y00650975D01*
X00285296Y00646535D02*
X00286406Y00647645D01*
X00277076Y00646535D02*
X00285296D01*
X00275966Y00645425D02*
X00277076Y00646535D01*
X00275966Y00642095D02*
Y00645425D01*
Y00642095D02*
X00277076Y00640985D01*
X00285296D01*
X00286406Y00639875D01*
Y00636545D02*
Y00639875D01*
X00285296Y00635435D02*
X00286406Y00636545D01*
X00277076Y00635435D02*
X00285296D01*
X00275966Y00634325D02*
X00277076Y00635435D01*
X00275966Y00630995D02*
Y00634325D01*
Y00630995D02*
X00277076Y00629885D01*
X00280890D01*
X00282000Y00628775D01*
Y00628000D02*
Y00628775D01*
Y00706245D02*
Y00706750D01*
X00287250Y00712750D02*
X00288000D01*
X00285525Y00711025D02*
X00287250Y00712750D01*
X00285525Y00710275D02*
Y00711025D01*
X00282000Y00706750D02*
X00285525Y00710275D01*
X00312750Y00690105D02*
Y00696854D01*
X00311640Y00688995D02*
X00312750Y00690105D01*
X00305836Y00688995D02*
X00311640D01*
X00304726Y00687885D02*
X00305836Y00688995D01*
X00304726Y00684555D02*
Y00687885D01*
Y00684555D02*
X00305836Y00683445D01*
X00312349D01*
X00313459Y00682335D01*
Y00679005D02*
Y00682335D01*
X00312349Y00677895D02*
X00313459Y00679005D01*
X00305836Y00677895D02*
X00312349D01*
X00304726Y00676785D02*
X00305836Y00677895D01*
X00304726Y00673455D02*
Y00676785D01*
Y00673455D02*
X00305836Y00672345D01*
X00312349D01*
X00313459Y00671235D01*
Y00667905D02*
Y00671235D01*
X00312349Y00666795D02*
X00313459Y00667905D01*
X00305836Y00666795D02*
X00312349D01*
X00304726Y00665685D02*
X00305836Y00666795D01*
X00304726Y00662355D02*
Y00665685D01*
Y00662355D02*
X00305836Y00661245D01*
X00312349D01*
X00313459Y00660135D01*
Y00656805D02*
Y00660135D01*
X00312349Y00655695D02*
X00313459Y00656805D01*
X00305836Y00655695D02*
X00312349D01*
X00304726Y00654585D02*
X00305836Y00655695D01*
X00304726Y00651255D02*
Y00654585D01*
Y00651255D02*
X00305836Y00650145D01*
X00312349D01*
X00313459Y00649035D01*
Y00645705D02*
Y00649035D01*
X00312349Y00644595D02*
X00313459Y00645705D01*
X00305836Y00644595D02*
X00312349D01*
X00304726Y00643485D02*
X00305836Y00644595D01*
X00304726Y00640155D02*
Y00643485D01*
Y00640155D02*
X00305836Y00639045D01*
X00312349D01*
X00313459Y00637935D01*
Y00634605D02*
Y00637935D01*
X00312349Y00633495D02*
X00313459Y00634605D01*
X00305836Y00633495D02*
X00312349D01*
X00304726Y00632385D02*
X00305836Y00633495D01*
X00304726Y00629055D02*
Y00632385D01*
Y00629055D02*
X00305836Y00627945D01*
X00312055D01*
X00313940Y00626060D01*
X00358000Y00582000D01*
X00312750Y00696854D02*
Y00752000D01*
X00321606Y00640394D02*
X00322562Y00639438D01*
Y00637868D02*
Y00639438D01*
X00322562Y00637868D02*
X00322562Y00637868D01*
X00322562Y00636298D02*
Y00637868D01*
Y00636298D02*
X00324917Y00633943D01*
X00326486D01*
X00330124Y00637581D01*
X00331694D01*
X00334049Y00635227D01*
Y00633657D02*
Y00635227D01*
X00327093Y00626701D02*
X00334049Y00633657D01*
X00327093Y00625131D02*
Y00626701D01*
Y00625131D02*
X00329447Y00622776D01*
X00331017D01*
X00338546Y00630305D01*
X00340116D01*
X00342471Y00627951D01*
Y00626381D02*
Y00627951D01*
X00334941Y00618852D02*
X00342471Y00626381D01*
X00334941Y00617282D02*
Y00618852D01*
Y00617282D02*
X00337296Y00614927D01*
X00338866D01*
X00346395Y00622457D01*
X00347965D01*
X00350320Y00620102D01*
Y00618532D02*
Y00620102D01*
X00342790Y00611003D02*
X00350320Y00618532D01*
X00342790Y00609433D02*
Y00611003D01*
Y00609433D02*
X00345145Y00607079D01*
X00346715D01*
X00354244Y00614608D01*
X00355814D01*
X00358168Y00612253D01*
Y00610683D02*
Y00612253D01*
X00350639Y00603154D02*
X00358168Y00610683D01*
X00350639Y00601584D02*
Y00603154D01*
Y00601584D02*
X00352994Y00599230D01*
X00354564D01*
X00357882Y00602548D01*
X00359452D01*
X00360000Y00602000D01*
X00320000Y00642000D02*
X00321606Y00640394D01*
X00360000Y00602000D02*
X00363000Y00599000D01*
X00320000Y00642000D02*
Y00648799D01*
X00320229Y00712229D02*
X00321333Y00713333D01*
X00325083D02*
X00325750Y00714000D01*
X00320229Y00708479D02*
Y00712229D01*
X00321333Y00713333D02*
X00325083D01*
X00320000Y00708250D02*
X00320229Y00708479D01*
X00320000Y00707294D02*
Y00708250D01*
Y00707294D02*
X00321110Y00706184D01*
X00322845D01*
X00323955Y00705074D01*
Y00701744D02*
Y00705074D01*
X00322845Y00700634D02*
X00323955Y00701744D01*
X00318610Y00700634D02*
X00322845D01*
X00317500Y00699524D02*
X00318610Y00700634D01*
X00317500Y00696194D02*
Y00699524D01*
Y00696194D02*
X00318610Y00695084D01*
X00326584D01*
X00327694Y00693974D01*
Y00690644D02*
Y00693974D01*
X00326584Y00689534D02*
X00327694Y00690644D01*
X00318610Y00689534D02*
X00326584D01*
X00317500Y00688424D02*
X00318610Y00689534D01*
X00317500Y00685094D02*
Y00688424D01*
Y00685094D02*
X00318610Y00683984D01*
X00326570D01*
X00327680Y00682874D01*
Y00679544D02*
Y00682874D01*
X00326570Y00678434D02*
X00327680Y00679544D01*
X00318610Y00678434D02*
X00326570D01*
X00317500Y00677324D02*
X00318610Y00678434D01*
X00317500Y00673994D02*
Y00677324D01*
Y00673994D02*
X00318610Y00672884D01*
X00326570D01*
X00327680Y00671774D01*
Y00668444D02*
Y00671774D01*
X00326570Y00667334D02*
X00327680Y00668444D01*
X00318610Y00667334D02*
X00326570D01*
X00317500Y00666224D02*
X00318610Y00667334D01*
X00317500Y00662894D02*
Y00666224D01*
Y00662894D02*
X00318610Y00661784D01*
X00326570D01*
X00327680Y00660674D01*
Y00657344D02*
Y00660674D01*
X00326570Y00656234D02*
X00327680Y00657344D01*
X00318610Y00656234D02*
X00326570D01*
X00317500Y00655124D02*
X00318610Y00656234D01*
X00317500Y00651794D02*
Y00655124D01*
Y00651794D02*
X00318610Y00650684D01*
X00318890D01*
X00320000Y00649574D01*
Y00648799D02*
Y00649574D01*
X00333000Y00748047D02*
Y00752000D01*
Y00748047D02*
X00334110Y00746937D01*
X00341143D01*
X00342253Y00745827D01*
Y00742497D02*
Y00745827D01*
X00341143Y00741387D02*
X00342253Y00742497D01*
X00325918Y00741387D02*
X00341143D01*
X00324808Y00740277D02*
X00325918Y00741387D01*
X00324808Y00736947D02*
Y00740277D01*
Y00736947D02*
X00325918Y00735837D01*
X00331890D01*
X00333000Y00734727D01*
Y00733952D02*
Y00734727D01*
Y00731000D02*
Y00733952D01*
X00342000Y00709000D02*
Y00722000D01*
X00333000Y00731000D02*
X00342000Y00722000D01*
X00333000Y00752000D02*
Y00755000D01*
Y00695115D02*
Y00696000D01*
Y00695115D02*
X00334110Y00694005D01*
X00341748D01*
X00342858Y00692895D01*
Y00689565D02*
Y00692895D01*
X00341748Y00688455D02*
X00342858Y00689565D01*
X00331610Y00688455D02*
X00341748D01*
X00330500Y00687345D02*
X00331610Y00688455D01*
X00330500Y00684015D02*
Y00687345D01*
Y00684015D02*
X00331610Y00682905D01*
X00341748D01*
X00342858Y00681795D01*
Y00678465D02*
Y00681795D01*
X00341748Y00677355D02*
X00342858Y00678465D01*
X00331610Y00677355D02*
X00341748D01*
X00330500Y00676245D02*
X00331610Y00677355D01*
X00330500Y00672915D02*
Y00676245D01*
Y00672915D02*
X00331610Y00671805D01*
X00341748D01*
X00342858Y00670695D01*
Y00667365D02*
Y00670695D01*
X00341748Y00666255D02*
X00342858Y00667365D01*
X00331610Y00666255D02*
X00341748D01*
X00330500Y00665145D02*
X00331610Y00666255D01*
X00330500Y00661815D02*
Y00665145D01*
Y00661815D02*
X00331610Y00660705D01*
X00341748D01*
X00342858Y00659595D01*
Y00656265D02*
Y00659595D01*
X00341748Y00655155D02*
X00342858Y00656265D01*
X00331610Y00655155D02*
X00341748D01*
X00330500Y00654045D02*
X00331610Y00655155D01*
X00330500Y00650715D02*
Y00654045D01*
Y00650715D02*
X00331610Y00649605D01*
X00331890D01*
X00333000Y00648495D01*
Y00647720D02*
Y00648495D01*
Y00696000D02*
Y00700000D01*
Y00646000D02*
Y00647720D01*
Y00700000D02*
X00342000Y00709000D01*
X00560455Y00796955D02*
X00569500Y00806000D01*
X00643000D01*
X00463045Y00796955D02*
X00560455D01*
X00567000Y00794770D02*
X00644230D01*
X00564730Y00792500D02*
X00567000Y00794770D01*
X00515045Y00787045D02*
X00520500Y00792500D01*
X00564730D01*
X00515045Y00783545D02*
Y00787045D01*
X00474508Y00779385D02*
X00510885D01*
X00515045Y00783545D01*
X00491250Y00764000D02*
X00502000D01*
X00517500Y00779500D01*
X00459123Y00764000D02*
X00474508Y00779385D01*
X00453250Y00764000D02*
X00459123D01*
X00644230Y00794770D02*
X00689500Y00749500D01*
X00477750Y00802250D02*
X00478000Y00802000D01*
X00477750Y00802250D02*
Y00811000D01*
X00442000Y00798250D02*
X00442374Y00798624D01*
X00337750Y00765000D02*
Y00772750D01*
X00415000Y00764750D02*
Y00772500D01*
X00333000Y00755000D02*
X00337250Y00759250D01*
X00642000Y00754000D02*
X00660000Y00736000D01*
X00391750Y00650250D02*
X00399500Y00642500D01*
X00470500Y00673000D02*
X00606000D01*
X00528500Y00811250D02*
X00528750Y00811000D01*
X00333000Y00646000D02*
X00368000Y00611000D01*
X00477500Y00713750D02*
X00477750Y00714000D01*
X00485000Y00679000D02*
X00594000D01*
X00587500Y00703500D02*
Y00739500D01*
X00577500Y00693500D02*
X00587500Y00703500D01*
X00312750Y00752000D02*
X00313750Y00753000D01*
X00275500Y00723500D02*
Y00752250D01*
X00274750Y00753000D02*
X00275500Y00752250D01*
X00415000Y00764750D02*
X00415250Y00765000D01*
X00422000Y00593000D02*
X00513556D01*
X00419722Y00598500D02*
X00511278D01*
X00396000Y00582556D02*
X00417444Y00604000D01*
X00401500Y00580278D02*
X00419722Y00598500D01*
X00396000Y00518444D02*
Y00582556D01*
Y00518444D02*
X00413444Y00501000D01*
X00401500Y00520722D02*
Y00580278D01*
Y00520722D02*
X00415722Y00506500D01*
X00510998Y00515998D02*
Y00528201D01*
X00594000Y00679000D02*
X00606000Y00691000D01*
X00584000Y00684000D02*
X00597000Y00697000D01*
Y00728000D01*
X00605000Y00736000D01*
X00639000D01*
X00646000Y00729000D01*
X00638000Y00746000D02*
X00653000Y00731000D01*
X00570998Y00572362D02*
X00574938Y00576302D01*
X00554999Y00555501D02*
Y00575454D01*
X00550998Y00555501D02*
Y00577818D01*
X00570998Y00555501D02*
Y00572362D01*
X00566998Y00555501D02*
Y00574726D01*
X00562999Y00555501D02*
Y00577090D01*
X00558998Y00484267D02*
Y00528201D01*
X00546998Y00499844D02*
Y00528201D01*
X00550998Y00494652D02*
Y00528201D01*
X00570998Y00477882D02*
Y00528201D01*
X00287750Y00715000D02*
X00288000Y00714750D01*
X00287750Y00715000D02*
Y00721750D01*
X00526998Y00506998D02*
Y00528201D01*
X00574998Y00472690D02*
Y00528201D01*
X00566998Y00483075D02*
Y00528201D01*
X00554999Y00488998D02*
Y00528201D01*
X00343590Y00486486D02*
Y00555410D01*
X00528750Y00802250D02*
Y00811000D01*
Y00802250D02*
X00529000Y00802000D01*
X00511278Y00598500D02*
X00523889Y00611111D01*
X00415000Y00738000D02*
Y00764750D01*
Y00738000D02*
X00420000Y00733000D01*
X00550998Y00577818D02*
X00574180Y00601000D01*
X00554999Y00575454D02*
X00573544Y00594000D01*
X00562999Y00577090D02*
X00573908Y00588000D01*
X00566998Y00574726D02*
X00574872Y00582600D01*
X00666000Y00643000D02*
X00672000Y00649000D01*
X00671000Y00636000D02*
X00680000Y00645000D01*
X00676000Y00629000D02*
X00688000Y00641000D01*
X00682000Y00622000D02*
X00695000Y00635000D01*
X00687000Y00615000D02*
X00702000Y00630000D01*
X00691000Y00608000D02*
X00709000Y00626000D01*
X00574180Y00601000D02*
X00695000D01*
X00716000Y00622000D01*
X00573544Y00594000D02*
X00699000D01*
X00722000Y00617000D01*
X00573908Y00588000D02*
X00704000D01*
X00574872Y00582600D02*
X00709600D01*
X00574938Y00576302D02*
X00713302D01*
X00704000Y00588000D02*
X00729000Y00613000D01*
X00713302Y00576302D02*
X00742000Y00605000D01*
X00709600Y00582600D02*
X00735770Y00608770D01*
X00662000Y00650000D02*
X00665000Y00653000D01*
X00606000Y00673000D02*
X00614000Y00681000D01*
Y00702000D01*
X00619000Y00707000D01*
X00613000Y00666000D02*
X00622000Y00675000D01*
Y00688000D01*
X00627000Y00693000D01*
X00534998Y00506002D02*
Y00528201D01*
Y00506002D02*
X00535000Y00506000D01*
X00538998Y00524002D02*
Y00528201D01*
X00363750Y00714000D02*
Y00715000D01*
X00364000Y00715250D01*
Y00722000D01*
X00391000Y00518000D02*
Y00585000D01*
X00386000Y00517000D02*
Y00588000D01*
X00391000Y00585000D02*
X00416000Y00610000D01*
X00386000Y00588000D02*
X00414000Y00616000D01*
X00376750Y00728250D02*
X00382000Y00723000D01*
Y00644000D02*
X00390000Y00636000D01*
X00483000D01*
X00485770Y00633230D01*
X00414000Y00616000D02*
X00482000D01*
X00485770Y00619770D01*
Y00633230D01*
X00477000Y00630000D02*
X00479000Y00628000D01*
X00411000Y00622000D02*
X00477000D01*
X00479000Y00624000D02*
Y00628000D01*
X00477000Y00622000D02*
X00479000Y00624000D01*
X00337250Y00759250D02*
Y00765000D01*
X00282000Y00628000D02*
X00348000Y00562000D01*
Y00491269D02*
Y00562000D01*
X00353000Y00495461D02*
Y00572000D01*
X00305000Y00753000D02*
X00306250Y00754250D01*
X00305000Y00753000D02*
X00313750D01*
X00378000Y00630000D02*
X00477000D01*
X00325750Y00714000D02*
Y00721250D01*
X00529250Y00765000D02*
Y00772750D01*
X00492250Y00765000D02*
Y00771750D01*
X00491000Y00773000D02*
X00492250Y00771750D01*
X00453250Y00764000D02*
Y00771750D01*
X00383000Y00753000D02*
X00391750D01*
X00266000D02*
X00274750D01*
X00402750Y00714000D02*
Y00721250D01*
X00401850Y00722150D02*
X00402750Y00721250D01*
X00440750Y00714000D02*
Y00721250D01*
X00477750Y00714000D02*
Y00721750D01*
X00515750Y00708250D02*
Y00714000D01*
X00554750D02*
Y00720750D01*
X00448000Y00741000D02*
X00458750Y00751750D01*
X00298000Y00745000D02*
X00304000Y00739000D01*
X00298000Y00745000D02*
Y00758000D01*
X00299750Y00759750D01*
X00525000Y00755000D02*
X00534750D01*
X00574998Y00555501D02*
Y00566998D01*
X00405480Y00576480D02*
X00422000Y00593000D01*
X00358000Y00499654D02*
Y00582000D01*
X00363000Y00505000D02*
Y00599000D01*
X00368000Y00508038D02*
Y00611000D01*
X00381000Y00513423D02*
Y00592000D01*
X00507000Y00512000D02*
X00510998Y00515998D01*
X00458750Y00753000D02*
X00459750Y00754000D01*
X00451000Y00753000D02*
X00458750D01*
X00486000Y00754000D02*
X00495750D01*
X00415722Y00506500D02*
X00509500D01*
X00514999Y00511998D01*
Y00528201D01*
X00413444Y00501000D02*
X00513000D01*
X00518998Y00506998D01*
Y00528201D01*
X00539000Y00501038D02*
Y00524000D01*
X00538998Y00524002D02*
X00539000Y00524000D01*
X00391000Y00518000D02*
X00414000Y00495000D01*
X00515000D01*
X00526998Y00506998D01*
X00386000Y00517000D02*
X00414000Y00489000D01*
X00518000D01*
X00535000Y00506000D01*
X00381000Y00513423D02*
X00411423Y00483000D01*
X00520962D01*
X00539000Y00501038D01*
X00375000Y00510231D02*
X00408231Y00477000D01*
X00524154D01*
X00546998Y00499844D01*
X00368000Y00508038D02*
X00405038Y00471000D01*
X00527346D01*
X00550998Y00494652D01*
X00363000Y00505000D02*
X00403000Y00465000D01*
X00531000D01*
X00554999Y00488998D01*
X00358000Y00499654D02*
X00398653Y00459000D01*
X00533731D01*
X00558998Y00484267D01*
X00353000Y00495461D02*
X00395461Y00453000D01*
X00536924D01*
X00566998Y00483075D01*
X00348000Y00491269D02*
X00392269Y00447000D01*
X00540116D01*
X00570998Y00477882D01*
X00343590Y00486486D02*
X00389076Y00441000D01*
X00543308D01*
X00574998Y00472690D01*
D115*
X00104789Y00460715D02*
D03*
Y00455215D02*
D03*
D116*
X00553250Y00025000D02*
D03*
X00496750D02*
D03*
D117*
X00442500Y00101800D02*
D03*
X00297500D02*
D03*
D118*
X00297500Y00042200D02*
D03*
X00442500D02*
D03*
D119*
X00785000Y00340500D02*
D03*
Y00420500D02*
D03*
D120*
X00117300Y00095700D02*
D03*
X00127500Y00077900D02*
D03*
X00137700Y00095700D02*
D03*
X00147900Y00077900D02*
D03*
X00158100Y00095700D02*
D03*
X00168300Y00077900D02*
D03*
X00178500Y00095700D02*
D03*
X00188700Y00077900D02*
D03*
D121*
X00235000Y00088100D02*
D03*
X00071000D02*
D03*
D122*
X00216500Y00052500D02*
D03*
X00089500D02*
D03*
D123*
X00807645Y00107500D02*
D03*
Y00132900D02*
D03*
X00782245D02*
D03*
D124*
Y00107500D02*
D03*
D125*
X00310000Y00537000D02*
D03*
X00790000D02*
D03*
Y00207000D02*
D03*
X00310000D02*
D03*
X00139000Y00740000D02*
D03*
X00769000D02*
D03*
D126*
X00077000Y00585000D02*
D03*
D127*
X00137000D02*
D03*
D128*
X00107000Y00538000D02*
D03*
D129*
X00740700Y00102000D02*
D03*
X00609300D02*
D03*
D130*
X00710000Y00129100D02*
D03*
X00685000D02*
D03*
X00665000D02*
D03*
X00640000D02*
D03*
D131*
X00184950Y00513950D02*
D03*
X00169000Y00616000D02*
D03*
X00180000Y00502000D02*
D03*
X00657000Y00157000D02*
D03*
X00220000Y00705000D02*
D03*
X00718000Y00747000D02*
D03*
Y00757000D02*
D03*
X00552500Y00005000D02*
D03*
X00562500D02*
D03*
X00572500D02*
D03*
X00455000Y00198000D02*
D03*
X00515000D02*
D03*
X00509000Y00148000D02*
D03*
X00527000Y00177000D02*
D03*
X00625000Y00325000D02*
D03*
X00642000Y00326000D02*
D03*
X00644000Y00307000D02*
D03*
X00581000Y00346000D02*
D03*
X00567000Y00354000D02*
D03*
X00576000Y00362000D02*
D03*
X00580000Y00371000D02*
D03*
X00316000Y00140000D02*
D03*
X00456000Y00145000D02*
D03*
X00549000Y00128000D02*
D03*
X00354000Y00130000D02*
D03*
X00365000Y00092000D02*
D03*
X00298750Y00157750D02*
D03*
X00325250D02*
D03*
X00549000Y00137000D02*
D03*
X00335000Y00092000D02*
D03*
X00437500Y00205000D02*
D03*
X00433000Y00155000D02*
D03*
X00397750Y00157750D02*
D03*
X00374250D02*
D03*
X00347750D02*
D03*
X00380000Y00092000D02*
D03*
X00395000D02*
D03*
X00410000D02*
D03*
X00495000Y00152000D02*
D03*
X00529000Y00102000D02*
D03*
X00601500Y00204000D02*
D03*
X00609000D02*
D03*
X00620000Y00200000D02*
D03*
X00542000Y00071000D02*
D03*
X00492000Y00070000D02*
D03*
X00693000Y00157000D02*
D03*
X00337000Y00495000D02*
D03*
X00428000Y00570000D02*
D03*
X00439000Y00568000D02*
D03*
X00435000Y00540000D02*
D03*
X00423000Y00545000D02*
D03*
X00412000Y00547000D02*
D03*
X00411000Y00532000D02*
D03*
X00660000Y00396000D02*
D03*
X00574000Y00379000D02*
D03*
X00602000Y00388000D02*
D03*
X00660000Y00435000D02*
D03*
X00659000Y00415000D02*
D03*
X00269790Y00235491D02*
D03*
X00007664Y00813394D02*
D03*
X00015251Y00824749D02*
D03*
X00026606Y00832336D02*
D03*
X00842336Y00813394D02*
D03*
X00834749Y00824749D02*
D03*
X00823394Y00832336D02*
D03*
X00842336Y00026606D02*
D03*
X00834749Y00015251D02*
D03*
X00823394Y00007664D02*
D03*
X00026606D02*
D03*
X00015251Y00015251D02*
D03*
X00007664Y00026606D02*
D03*
X00042500Y00005000D02*
D03*
X00052500D02*
D03*
X00062500D02*
D03*
X00072500D02*
D03*
X00082500D02*
D03*
X00132500D02*
D03*
X00122500D02*
D03*
X00112500D02*
D03*
X00102500D02*
D03*
X00092500D02*
D03*
X00182500D02*
D03*
X00172500D02*
D03*
X00162500D02*
D03*
X00152500D02*
D03*
X00142500D02*
D03*
X00292500D02*
D03*
X00302500D02*
D03*
X00312500D02*
D03*
X00322500D02*
D03*
X00332500D02*
D03*
X00242500D02*
D03*
X00252500D02*
D03*
X00262500D02*
D03*
X00272500D02*
D03*
X00282500D02*
D03*
X00232500D02*
D03*
X00222500D02*
D03*
X00212500D02*
D03*
X00202500D02*
D03*
X00192500D02*
D03*
X00442500D02*
D03*
X00452500D02*
D03*
X00462500D02*
D03*
X00472500D02*
D03*
X00482500D02*
D03*
X00392500D02*
D03*
X00402500D02*
D03*
X00412500D02*
D03*
X00422500D02*
D03*
X00432500D02*
D03*
X00382500D02*
D03*
X00372500D02*
D03*
X00362500D02*
D03*
X00352500D02*
D03*
X00342500D02*
D03*
X00622500D02*
D03*
X00632500D02*
D03*
X00642500D02*
D03*
X00652500D02*
D03*
X00662500D02*
D03*
X00542500D02*
D03*
X00582500D02*
D03*
X00592500D02*
D03*
X00602500D02*
D03*
X00612500D02*
D03*
X00532500D02*
D03*
X00522500D02*
D03*
X00512500D02*
D03*
X00502500D02*
D03*
X00492500D02*
D03*
X00742500D02*
D03*
X00762500D02*
D03*
X00772500D02*
D03*
X00782500D02*
D03*
X00722500D02*
D03*
X00732500D02*
D03*
X00752500D02*
D03*
X00712500D02*
D03*
X00702500D02*
D03*
X00692500D02*
D03*
X00682500D02*
D03*
X00672500D02*
D03*
X00812500D02*
D03*
X00802500D02*
D03*
X00792500D02*
D03*
X00005000Y00040000D02*
D03*
Y00800000D02*
D03*
X00845000Y00790000D02*
D03*
Y00640000D02*
D03*
Y00650000D02*
D03*
Y00660000D02*
D03*
Y00670000D02*
D03*
Y00680000D02*
D03*
Y00730000D02*
D03*
Y00720000D02*
D03*
Y00710000D02*
D03*
Y00700000D02*
D03*
Y00690000D02*
D03*
Y00780000D02*
D03*
Y00770000D02*
D03*
Y00760000D02*
D03*
Y00750000D02*
D03*
Y00740000D02*
D03*
Y00490000D02*
D03*
Y00500000D02*
D03*
Y00510000D02*
D03*
Y00520000D02*
D03*
Y00530000D02*
D03*
Y00580000D02*
D03*
Y00570000D02*
D03*
Y00560000D02*
D03*
Y00550000D02*
D03*
Y00540000D02*
D03*
Y00630000D02*
D03*
Y00620000D02*
D03*
Y00610000D02*
D03*
Y00600000D02*
D03*
Y00590000D02*
D03*
Y00340000D02*
D03*
Y00350000D02*
D03*
Y00360000D02*
D03*
Y00370000D02*
D03*
Y00380000D02*
D03*
Y00430000D02*
D03*
Y00420000D02*
D03*
Y00410000D02*
D03*
Y00400000D02*
D03*
Y00390000D02*
D03*
Y00480000D02*
D03*
Y00470000D02*
D03*
Y00460000D02*
D03*
Y00450000D02*
D03*
Y00440000D02*
D03*
Y00190000D02*
D03*
Y00200000D02*
D03*
Y00210000D02*
D03*
Y00220000D02*
D03*
Y00230000D02*
D03*
Y00280000D02*
D03*
Y00270000D02*
D03*
Y00260000D02*
D03*
Y00250000D02*
D03*
Y00240000D02*
D03*
Y00330000D02*
D03*
Y00320000D02*
D03*
Y00310000D02*
D03*
Y00300000D02*
D03*
Y00290000D02*
D03*
Y00040000D02*
D03*
Y00050000D02*
D03*
Y00060000D02*
D03*
Y00070000D02*
D03*
Y00080000D02*
D03*
Y00130000D02*
D03*
Y00120000D02*
D03*
Y00110000D02*
D03*
Y00100000D02*
D03*
Y00090000D02*
D03*
Y00180000D02*
D03*
Y00170000D02*
D03*
Y00160000D02*
D03*
Y00150000D02*
D03*
Y00140000D02*
D03*
X00792500Y00835000D02*
D03*
X00802500Y00835000D02*
D03*
X00812500Y00835000D02*
D03*
X00642500D02*
D03*
X00652500D02*
D03*
X00662500Y00835000D02*
D03*
X00672500D02*
D03*
X00682500Y00835000D02*
D03*
X00732500D02*
D03*
X00722500D02*
D03*
X00712500D02*
D03*
X00702500D02*
D03*
X00692500D02*
D03*
X00782500D02*
D03*
X00772500Y00835000D02*
D03*
X00762500D02*
D03*
X00752500Y00835000D02*
D03*
X00742500D02*
D03*
X00492500D02*
D03*
X00502500D02*
D03*
X00512500D02*
D03*
X00522500D02*
D03*
X00532500Y00835000D02*
D03*
X00582500Y00835000D02*
D03*
X00572500D02*
D03*
X00562500Y00835000D02*
D03*
X00552500Y00835000D02*
D03*
X00542500D02*
D03*
X00632500Y00835000D02*
D03*
X00622500Y00835000D02*
D03*
X00612500D02*
D03*
X00602500D02*
D03*
X00592500D02*
D03*
X00342500D02*
D03*
X00352500D02*
D03*
X00362500D02*
D03*
X00372500D02*
D03*
X00382500D02*
D03*
X00432500Y00835000D02*
D03*
X00422500Y00835000D02*
D03*
X00412500D02*
D03*
X00402500D02*
D03*
X00392500Y00835000D02*
D03*
X00482500Y00835000D02*
D03*
X00472500D02*
D03*
X00462500D02*
D03*
X00452500D02*
D03*
X00442500D02*
D03*
X00192500Y00835000D02*
D03*
X00202500Y00835000D02*
D03*
X00212500D02*
D03*
X00222500D02*
D03*
X00232500D02*
D03*
X00282500D02*
D03*
X00272500D02*
D03*
X00262500D02*
D03*
X00252500D02*
D03*
X00242500D02*
D03*
X00332500Y00835000D02*
D03*
X00322500Y00835000D02*
D03*
X00312500D02*
D03*
X00302500D02*
D03*
X00292500Y00835000D02*
D03*
X00142500Y00835000D02*
D03*
X00152500D02*
D03*
X00162500D02*
D03*
X00172500D02*
D03*
X00182500D02*
D03*
X00092500Y00835000D02*
D03*
X00102500Y00835000D02*
D03*
X00112500D02*
D03*
X00122500D02*
D03*
X00132500D02*
D03*
X00082500D02*
D03*
X00072500D02*
D03*
X00062500D02*
D03*
X00052500Y00835000D02*
D03*
X00042500Y00835000D02*
D03*
X00005000Y00790000D02*
D03*
Y00780000D02*
D03*
Y00770000D02*
D03*
Y00760000D02*
D03*
Y00750000D02*
D03*
Y00740000D02*
D03*
Y00730000D02*
D03*
Y00720000D02*
D03*
Y00710000D02*
D03*
Y00700000D02*
D03*
Y00690000D02*
D03*
Y00680000D02*
D03*
Y00670000D02*
D03*
Y00660000D02*
D03*
Y00650000D02*
D03*
Y00640000D02*
D03*
Y00630000D02*
D03*
Y00620000D02*
D03*
Y00610000D02*
D03*
Y00600000D02*
D03*
Y00590000D02*
D03*
Y00580000D02*
D03*
Y00570000D02*
D03*
Y00560000D02*
D03*
Y00550000D02*
D03*
Y00540000D02*
D03*
Y00530000D02*
D03*
Y00520000D02*
D03*
Y00510000D02*
D03*
Y00500000D02*
D03*
Y00490000D02*
D03*
Y00480000D02*
D03*
Y00470000D02*
D03*
Y00460000D02*
D03*
Y00450000D02*
D03*
Y00440000D02*
D03*
Y00430000D02*
D03*
Y00420000D02*
D03*
Y00410000D02*
D03*
Y00400000D02*
D03*
Y00390000D02*
D03*
Y00380000D02*
D03*
Y00370000D02*
D03*
Y00360000D02*
D03*
Y00350000D02*
D03*
Y00340000D02*
D03*
Y00330000D02*
D03*
Y00320000D02*
D03*
Y00310000D02*
D03*
Y00300000D02*
D03*
Y00290000D02*
D03*
Y00280000D02*
D03*
Y00270000D02*
D03*
Y00260000D02*
D03*
Y00250000D02*
D03*
Y00240000D02*
D03*
Y00230000D02*
D03*
Y00220000D02*
D03*
Y00210000D02*
D03*
Y00200000D02*
D03*
Y00190000D02*
D03*
Y00180000D02*
D03*
Y00170000D02*
D03*
Y00160000D02*
D03*
Y00150000D02*
D03*
Y00140000D02*
D03*
Y00130000D02*
D03*
Y00120000D02*
D03*
Y00110000D02*
D03*
Y00100000D02*
D03*
Y00090000D02*
D03*
Y00080000D02*
D03*
Y00070000D02*
D03*
Y00060000D02*
D03*
Y00050000D02*
D03*
X00845000Y00800000D02*
D03*
X00324000Y00486000D02*
D03*
X00294000Y00501000D02*
D03*
X00250000Y00705000D02*
D03*
X00341000Y00472000D02*
D03*
X00332000Y00464000D02*
D03*
X00585000Y00204000D02*
D03*
X00577500D02*
D03*
X00589000Y00172400D02*
D03*
X00596500Y00172400D02*
D03*
X00382700Y00787500D02*
D03*
X00331900D02*
D03*
X00370000Y00787000D02*
D03*
X00683000Y00285000D02*
D03*
X00609000Y00227000D02*
D03*
X00697000Y00470000D02*
D03*
Y00448000D02*
D03*
X00457000Y00519000D02*
D03*
X00606000Y00323000D02*
D03*
X00614000D02*
D03*
X00225000Y00680000D02*
D03*
X00046000Y00695000D02*
D03*
Y00719000D02*
D03*
Y00769000D02*
D03*
X00028000Y00459000D02*
D03*
X00034000Y00465000D02*
D03*
X00045000Y00216000D02*
D03*
X00040000Y00471000D02*
D03*
X00052000Y00483000D02*
D03*
X00046000Y00477000D02*
D03*
X00235000Y00609000D02*
D03*
X00241000Y00603000D02*
D03*
X00247000Y00597000D02*
D03*
X00244000Y00610000D02*
D03*
X00250000Y00604000D02*
D03*
X00168000Y00451000D02*
D03*
Y00458000D02*
D03*
X00193000Y00384000D02*
D03*
X00185000Y00384000D02*
D03*
X00177000Y00384000D02*
D03*
X00193000Y00360000D02*
D03*
X00185000D02*
D03*
X00177000D02*
D03*
X00191754Y00194783D02*
D03*
X00208000Y00443000D02*
D03*
Y00451000D02*
D03*
X00453000Y00205000D02*
D03*
X00469000Y00198000D02*
D03*
X00209000Y00406000D02*
D03*
X00110579Y00463930D02*
D03*
X00474000Y00430000D02*
D03*
X00437000D02*
D03*
X00062000Y00685000D02*
D03*
X00597000Y00564000D02*
D03*
X00642000Y00357000D02*
D03*
X00631000Y00351000D02*
D03*
X00525000Y00705000D02*
D03*
X00492000Y00705000D02*
D03*
X00586000Y00800000D02*
D03*
X00045000Y00226000D02*
D03*
X00608950Y00536950D02*
D03*
X00594000Y00485000D02*
D03*
X00592500Y00500000D02*
D03*
X00585500Y00509000D02*
D03*
X00677000Y00275000D02*
D03*
X00623000Y00177000D02*
D03*
X00618000Y00242000D02*
D03*
X00602500Y00178000D02*
D03*
X00209000Y00399000D02*
D03*
Y00392000D02*
D03*
X00071500Y00508500D02*
D03*
X00064500Y00513500D02*
D03*
Y00503500D02*
D03*
X00071500Y00518500D02*
D03*
X00828000Y00182000D02*
D03*
X00837000D02*
D03*
X00478000Y00802000D02*
D03*
X00486000D02*
D03*
X00432624Y00799760D02*
D03*
X00415000Y00773000D02*
D03*
X00267020Y00252520D02*
D03*
X00583500Y00178000D02*
D03*
X00593000Y00206700D02*
D03*
X00593000Y00197000D02*
D03*
X00539000Y00176000D02*
D03*
X00551000Y00225000D02*
D03*
X00569000Y00204500D02*
D03*
X00613000Y00196000D02*
D03*
X00573000D02*
D03*
X00205000Y00737000D02*
D03*
X00563000Y00535500D02*
D03*
X00700000Y00787500D02*
D03*
X00687000Y00801000D02*
D03*
X00532999Y00547499D02*
D03*
X00521500Y00546000D02*
D03*
X00509401Y00542401D02*
D03*
X00345000Y00787000D02*
D03*
X00357000D02*
D03*
X00471500Y00787500D02*
D03*
X00459000Y00787000D02*
D03*
X00559000Y00547000D02*
D03*
X00541000D02*
D03*
X00463000Y00570000D02*
D03*
X00460000Y00564000D02*
D03*
X00456000Y00570000D02*
D03*
X00168000Y00479000D02*
D03*
Y00472000D02*
D03*
Y00465000D02*
D03*
X00328000Y00773000D02*
D03*
X00291000D02*
D03*
X00296000Y00722000D02*
D03*
X00334000D02*
D03*
X00372000D02*
D03*
X00524000D02*
D03*
X00563000D02*
D03*
X00543000Y00535000D02*
D03*
X00573000Y00546000D02*
D03*
X00598000Y00547000D02*
D03*
X00614000Y00564000D02*
D03*
X00621000D02*
D03*
X00504699Y00564020D02*
D03*
X00112000Y00293000D02*
D03*
X00122500D02*
D03*
X00173000D02*
D03*
X00182500D02*
D03*
X00231000Y00736000D02*
D03*
X00244000Y00737000D02*
D03*
X00256342D02*
D03*
X00269000Y00735913D02*
D03*
X00294000Y00737000D02*
D03*
X00408000Y00736258D02*
D03*
X00231000Y00787000D02*
D03*
X00218000D02*
D03*
X00204000D02*
D03*
X00243000Y00787158D02*
D03*
X00256000Y00787458D02*
D03*
X00269000Y00787000D02*
D03*
X00282000Y00786000D02*
D03*
X00294000Y00787000D02*
D03*
X00307342Y00788000D02*
D03*
X00320000Y00787000D02*
D03*
X00773000Y00478000D02*
D03*
X00789000D02*
D03*
X00694000Y00357000D02*
D03*
X00697000Y00302000D02*
D03*
Y00324000D02*
D03*
X00773000Y00302000D02*
D03*
X00789000D02*
D03*
X00612000Y00176000D02*
D03*
X00575000D02*
D03*
X00563000D02*
D03*
X00551000D02*
D03*
X00503000Y00198000D02*
D03*
X00491000D02*
D03*
X00479000D02*
D03*
X00443000D02*
D03*
X00431000D02*
D03*
X00469000Y00207000D02*
D03*
X00479000D02*
D03*
X00491000D02*
D03*
X00503000D02*
D03*
X00515000D02*
D03*
X00563000Y00225000D02*
D03*
X00575000D02*
D03*
X00587000D02*
D03*
X00597000D02*
D03*
X00178000Y00427000D02*
D03*
X00186000D02*
D03*
X00104789Y00457965D02*
D03*
X00099000Y00464000D02*
D03*
X00111000Y00452000D02*
D03*
X00099000D02*
D03*
X00055000Y00423000D02*
D03*
X00064000D02*
D03*
Y00431000D02*
D03*
X00058000Y00463000D02*
D03*
X00170000Y00427000D02*
D03*
X00208000Y00459000D02*
D03*
X00642000Y00348000D02*
D03*
X00643000Y00369000D02*
D03*
X00180000Y00509000D02*
D03*
X00586000Y00537000D02*
D03*
X00596000D02*
D03*
X00305000Y00753000D02*
D03*
X00342000D02*
D03*
X00338000Y00773000D02*
D03*
X00288000Y00722000D02*
D03*
X00383000Y00753000D02*
D03*
X00266000D02*
D03*
X00300000Y00773000D02*
D03*
X00509000Y00570000D02*
D03*
X00529000Y00802000D02*
D03*
X00505000Y00536000D02*
D03*
X00589000Y00564000D02*
D03*
X00376750Y00772250D02*
D03*
X00364000Y00722000D02*
D03*
X00325000D02*
D03*
X00529000Y00773000D02*
D03*
X00491000D02*
D03*
X00453000Y00772000D02*
D03*
X00435000Y00752000D02*
D03*
X00401850Y00722150D02*
D03*
X00440000Y00722000D02*
D03*
X00478000D02*
D03*
X00516000D02*
D03*
X00555000D02*
D03*
X00486000D02*
D03*
X00448000D02*
D03*
X00410000D02*
D03*
X00258000Y00753000D02*
D03*
X00282000Y00765000D02*
D03*
X00292000Y00753000D02*
D03*
X00308000Y00762000D02*
D03*
X00347000D02*
D03*
X00319000D02*
D03*
X00358000D02*
D03*
X00369000Y00753000D02*
D03*
X00386000Y00762000D02*
D03*
X00409000Y00753000D02*
D03*
X00398000Y00765000D02*
D03*
X00525000Y00755000D02*
D03*
X00514000Y00754000D02*
D03*
X00511000Y00765000D02*
D03*
X00483000Y00773000D02*
D03*
X00445000Y00772000D02*
D03*
X00396000Y00788000D02*
D03*
X00407942Y00787000D02*
D03*
X00420000Y00788000D02*
D03*
X00434000Y00787000D02*
D03*
X00496999Y00787999D02*
D03*
X00510000Y00787000D02*
D03*
X00523000D02*
D03*
X00548000D02*
D03*
X00561000D02*
D03*
X00572513Y00788000D02*
D03*
X00599000Y00787000D02*
D03*
X00611142D02*
D03*
X00624000Y00787300D02*
D03*
X00561000Y00737000D02*
D03*
X00510000Y00736800D02*
D03*
X00485000Y00737000D02*
D03*
X00523000D02*
D03*
X00472000Y00736000D02*
D03*
X00458978Y00736435D02*
D03*
X00434000Y00736000D02*
D03*
X00383000Y00737000D02*
D03*
X00370500D02*
D03*
X00496000Y00564000D02*
D03*
X00485000D02*
D03*
X00489000Y00582000D02*
D03*
X00474000Y00583000D02*
D03*
X00442999Y00547001D02*
D03*
X00416000Y00567000D02*
D03*
X00428000Y00519000D02*
D03*
X00439000D02*
D03*
X00469000Y00536000D02*
D03*
X00453000Y00546000D02*
D03*
X00473000Y00519000D02*
D03*
X00498000D02*
D03*
X00482000Y00536000D02*
D03*
X00532000Y00540000D02*
D03*
X00464000Y00543000D02*
D03*
X00449000Y00536000D02*
D03*
Y00519000D02*
D03*
X00586000Y00547000D02*
D03*
X00257000Y00400000D02*
D03*
X00249000D02*
D03*
X00241000D02*
D03*
X00457000Y00536000D02*
D03*
X00162000Y00195000D02*
D03*
X00102000D02*
D03*
X00132000D02*
D03*
X00459000Y00577000D02*
D03*
X00501000Y00543000D02*
D03*
X00485000Y00544000D02*
D03*
X00492999Y00543999D02*
D03*
X00427000Y00768000D02*
D03*
X00319000Y00736300D02*
D03*
X00345000Y00737000D02*
D03*
X00538000Y00802000D02*
D03*
X00435000Y00761000D02*
D03*
X00443000Y00753000D02*
D03*
X00451000D02*
D03*
X00468000Y00763000D02*
D03*
X00486000Y00754000D02*
D03*
X00478000D02*
D03*
X00521000Y00773000D02*
D03*
X00552000Y00755000D02*
D03*
X00571000Y00714000D02*
D03*
X00449000Y00705000D02*
D03*
X00411000D02*
D03*
X00372000D02*
D03*
X00329000D02*
D03*
X00296000D02*
D03*
X00582000Y00488000D02*
D03*
X00624999Y00519999D02*
D03*
X00071500Y00499000D02*
D03*
M02*
