G04*
G04 #@! TF.GenerationSoftware,Altium Limited,Altium Designer,22.10.1 (41)*
G04*
G04 Layer_Color=8421504*
%FSAX44Y44*%
%MOMM*%
G71*
G04*
G04 #@! TF.SameCoordinates,19A9066D-69EC-4412-BDAA-CEE194C5A0F3*
G04*
G04*
G04 #@! TF.FilePolarity,Positive*
G04*
G01*
G75*
%ADD19R,0.5500X1.1000*%
%ADD20R,0.8000X0.2000*%
%ADD21R,0.9000X0.9000*%
%ADD22R,0.5000X0.6000*%
%ADD23R,0.2000X0.7000*%
%ADD24R,0.4000X0.8000*%
%ADD25R,0.8000X0.4000*%
%ADD26R,0.4100X0.3600*%
G04:AMPARAMS|DCode=27|XSize=1.5376mm|YSize=0.2525mm|CornerRadius=0.1262mm|HoleSize=0mm|Usage=FLASHONLY|Rotation=270.000|XOffset=0mm|YOffset=0mm|HoleType=Round|Shape=RoundedRectangle|*
%AMROUNDEDRECTD27*
21,1,1.5376,0.0000,0,0,270.0*
21,1,1.2851,0.2525,0,0,270.0*
1,1,0.2525,0.0000,-0.6425*
1,1,0.2525,0.0000,0.6425*
1,1,0.2525,0.0000,0.6425*
1,1,0.2525,0.0000,-0.6425*
%
%ADD27ROUNDEDRECTD27*%
%ADD28R,0.2525X1.5376*%
%ADD29R,1.2000X1.0000*%
%ADD30R,0.4000X2.1000*%
%ADD31R,1.9000X1.9000*%
%ADD32R,0.3000X2.6000*%
%ADD33R,0.4800X0.3800*%
%ADD34R,0.3600X0.4100*%
%ADD35R,0.5500X0.6000*%
%ADD36R,0.6000X0.5000*%
%ADD37R,0.6400X1.7800*%
%ADD38R,0.6000X0.5500*%
%ADD39R,0.5500X0.8000*%
%ADD40R,1.6000X0.7000*%
%ADD41R,2.2000X1.2000*%
%ADD42R,1.5000X1.2000*%
%ADD43R,1.5000X1.6000*%
%ADD44R,1.1000X0.5500*%
%ADD45R,2.8000X1.4000*%
%ADD46R,0.8000X0.7500*%
%ADD47R,0.2500X0.3500*%
%ADD48R,3.0000X1.6000*%
%ADD49R,0.7500X0.8000*%
%ADD50R,3.2500X5.0000*%
%ADD51R,1.0000X1.2500*%
%ADD52R,0.8000X0.2800*%
%ADD53R,0.2800X0.8000*%
G36*
X00291500Y00203001D02*
X00291789Y00201667D01*
X00292668Y00199086D01*
X00293929Y00196669D01*
X00295542Y00194471D01*
X00297470Y00192543D01*
X00299668Y00190930D01*
X00302086Y00189669D01*
X00304667Y00188790D01*
X00306000Y00188500D01*
X00306000Y00188500D01*
X00306000Y00178500D01*
X00303674Y00178770D01*
X00299176Y00180077D01*
X00294960Y00182116D01*
X00291142Y00184830D01*
X00287830Y00188142D01*
X00285117Y00191959D01*
X00283077Y00196176D01*
X00281770Y00200673D01*
X00281500Y00203000D01*
X00281500D01*
X00291500Y00203001D01*
D02*
G37*
G36*
X00306000Y00225500D02*
X00304667Y00225211D01*
X00302086Y00224332D01*
X00299669Y00223071D01*
X00297471Y00221458D01*
X00295543Y00219530D01*
X00293930Y00217332D01*
X00292669Y00214914D01*
X00291790Y00212333D01*
X00291500Y00211000D01*
Y00211000D01*
X00281500Y00211000D01*
X00281770Y00213326D01*
X00283077Y00217824D01*
X00285116Y00222040D01*
X00287830Y00225858D01*
X00291142Y00229170D01*
X00294959Y00231884D01*
X00299176Y00233923D01*
X00303673Y00235230D01*
X00306000Y00235500D01*
Y00235500D01*
X00306000Y00225500D01*
D02*
G37*
G36*
X00314000Y00188500D02*
X00315333Y00188789D01*
X00317914Y00189669D01*
X00320331Y00190929D01*
X00322529Y00192542D01*
X00324457Y00194470D01*
X00326070Y00196668D01*
X00327331Y00199086D01*
X00328210Y00201667D01*
X00328500Y00203000D01*
Y00203000D01*
X00338500Y00203000D01*
X00338230Y00200674D01*
X00336923Y00196176D01*
X00334884Y00191960D01*
X00332170Y00188142D01*
X00328858Y00184830D01*
X00325041Y00182117D01*
X00320824Y00180077D01*
X00316327Y00178770D01*
X00314000Y00178500D01*
X00314000Y00178500D01*
X00314000Y00188500D01*
D02*
G37*
G36*
X00328500Y00211000D02*
X00328211Y00212333D01*
X00327332Y00214914D01*
X00326071Y00217331D01*
X00324458Y00219529D01*
X00322530Y00221457D01*
X00320332Y00223070D01*
X00317914Y00224331D01*
X00315333Y00225210D01*
X00314000Y00225500D01*
X00314000D01*
X00314000Y00235500D01*
X00316326Y00235230D01*
X00320824Y00233923D01*
X00325040Y00231884D01*
X00328858Y00229170D01*
X00332170Y00225858D01*
X00334883Y00222041D01*
X00336922Y00217824D01*
X00338230Y00213327D01*
X00338500Y00211000D01*
X00338500Y00211000D01*
X00328500Y00211000D01*
D02*
G37*
G36*
X00291500Y00533000D02*
X00291789Y00531667D01*
X00292668Y00529086D01*
X00293929Y00526669D01*
X00295542Y00524471D01*
X00297470Y00522543D01*
X00299668Y00520930D01*
X00302086Y00519669D01*
X00304667Y00518790D01*
X00306000Y00518500D01*
X00306000Y00518500D01*
X00306000Y00508500D01*
X00303674Y00508770D01*
X00299176Y00510077D01*
X00294960Y00512116D01*
X00291142Y00514830D01*
X00287830Y00518142D01*
X00285117Y00521959D01*
X00283077Y00526176D01*
X00281770Y00530673D01*
X00281500Y00533000D01*
X00281500D01*
X00291500Y00533000D01*
D02*
G37*
G36*
X00306000Y00555500D02*
X00304667Y00555211D01*
X00302086Y00554332D01*
X00299669Y00553071D01*
X00297471Y00551458D01*
X00295543Y00549530D01*
X00293930Y00547332D01*
X00292669Y00544914D01*
X00291790Y00542333D01*
X00291500Y00541000D01*
Y00541000D01*
X00281500Y00541000D01*
X00281770Y00543326D01*
X00283077Y00547824D01*
X00285116Y00552040D01*
X00287830Y00555858D01*
X00291142Y00559170D01*
X00294959Y00561884D01*
X00299176Y00563923D01*
X00303673Y00565230D01*
X00306000Y00565500D01*
Y00565500D01*
X00306000Y00555500D01*
D02*
G37*
G36*
X00314000Y00518500D02*
X00315333Y00518789D01*
X00317914Y00519669D01*
X00320331Y00520929D01*
X00322529Y00522542D01*
X00324457Y00524470D01*
X00326070Y00526668D01*
X00327331Y00529086D01*
X00328210Y00531667D01*
X00328500Y00533000D01*
Y00533000D01*
X00338500Y00533000D01*
X00338230Y00530674D01*
X00336923Y00526176D01*
X00334884Y00521960D01*
X00332170Y00518142D01*
X00328858Y00514830D01*
X00325041Y00512117D01*
X00320824Y00510078D01*
X00316327Y00508770D01*
X00314000Y00508500D01*
X00314000Y00508500D01*
X00314000Y00518500D01*
D02*
G37*
G36*
X00328500Y00541000D02*
X00328211Y00542333D01*
X00327332Y00544914D01*
X00326071Y00547331D01*
X00324458Y00549529D01*
X00322530Y00551457D01*
X00320332Y00553070D01*
X00317914Y00554331D01*
X00315333Y00555210D01*
X00314000Y00555500D01*
X00314000D01*
X00314000Y00565500D01*
X00316326Y00565230D01*
X00320824Y00563923D01*
X00325040Y00561884D01*
X00328858Y00559170D01*
X00332170Y00555858D01*
X00334883Y00552041D01*
X00336922Y00547824D01*
X00338230Y00543327D01*
X00338500Y00541000D01*
X00338500Y00541000D01*
X00328500Y00541000D01*
D02*
G37*
G36*
X00771500Y00203001D02*
X00771789Y00201667D01*
X00772669Y00199086D01*
X00773929Y00196669D01*
X00775542Y00194471D01*
X00777470Y00192543D01*
X00779668Y00190930D01*
X00782086Y00189669D01*
X00784667Y00188790D01*
X00786000Y00188500D01*
X00786000Y00188500D01*
X00786000Y00178500D01*
X00783674Y00178770D01*
X00779176Y00180077D01*
X00774960Y00182116D01*
X00771142Y00184830D01*
X00767830Y00188142D01*
X00765117Y00191959D01*
X00763077Y00196176D01*
X00761770Y00200673D01*
X00761500Y00203000D01*
X00761500D01*
X00771500Y00203001D01*
D02*
G37*
G36*
X00786000Y00225500D02*
X00784667Y00225211D01*
X00782086Y00224332D01*
X00779669Y00223071D01*
X00777471Y00221458D01*
X00775543Y00219530D01*
X00773930Y00217332D01*
X00772669Y00214914D01*
X00771790Y00212333D01*
X00771500Y00211000D01*
Y00211000D01*
X00761500Y00211000D01*
X00761770Y00213326D01*
X00763077Y00217824D01*
X00765116Y00222040D01*
X00767830Y00225858D01*
X00771142Y00229170D01*
X00774959Y00231884D01*
X00779176Y00233923D01*
X00783673Y00235230D01*
X00786000Y00235500D01*
Y00235500D01*
X00786000Y00225500D01*
D02*
G37*
G36*
X00794000Y00188500D02*
X00795333Y00188789D01*
X00797914Y00189669D01*
X00800331Y00190929D01*
X00802529Y00192542D01*
X00804457Y00194470D01*
X00806070Y00196668D01*
X00807331Y00199086D01*
X00808210Y00201667D01*
X00808500Y00203000D01*
Y00203000D01*
X00818500Y00203000D01*
X00818230Y00200674D01*
X00816923Y00196176D01*
X00814884Y00191960D01*
X00812170Y00188142D01*
X00808858Y00184830D01*
X00805041Y00182117D01*
X00800824Y00180077D01*
X00796327Y00178770D01*
X00794000Y00178500D01*
X00794000Y00178500D01*
X00794000Y00188500D01*
D02*
G37*
G36*
X00808500Y00211000D02*
X00808211Y00212333D01*
X00807331Y00214914D01*
X00806071Y00217331D01*
X00804458Y00219529D01*
X00802530Y00221457D01*
X00800332Y00223070D01*
X00797914Y00224331D01*
X00795333Y00225210D01*
X00794000Y00225500D01*
X00794000D01*
X00794000Y00235500D01*
X00796326Y00235230D01*
X00800824Y00233923D01*
X00805040Y00231884D01*
X00808858Y00229170D01*
X00812170Y00225858D01*
X00814883Y00222041D01*
X00816923Y00217824D01*
X00818230Y00213327D01*
X00818500Y00211000D01*
X00818500Y00211000D01*
X00808500Y00211000D01*
D02*
G37*
G36*
X00771500Y00533000D02*
X00771789Y00531667D01*
X00772669Y00529086D01*
X00773929Y00526669D01*
X00775542Y00524471D01*
X00777470Y00522543D01*
X00779668Y00520930D01*
X00782086Y00519669D01*
X00784667Y00518790D01*
X00786000Y00518500D01*
X00786000Y00518500D01*
X00786000Y00508500D01*
X00783674Y00508770D01*
X00779176Y00510077D01*
X00774960Y00512116D01*
X00771142Y00514830D01*
X00767830Y00518142D01*
X00765117Y00521959D01*
X00763077Y00526176D01*
X00761770Y00530673D01*
X00761500Y00533000D01*
X00761500D01*
X00771500Y00533000D01*
D02*
G37*
G36*
X00786000Y00555500D02*
X00784667Y00555211D01*
X00782086Y00554332D01*
X00779669Y00553071D01*
X00777471Y00551458D01*
X00775543Y00549530D01*
X00773930Y00547332D01*
X00772669Y00544914D01*
X00771790Y00542333D01*
X00771500Y00541000D01*
Y00541000D01*
X00761500Y00541000D01*
X00761770Y00543326D01*
X00763077Y00547824D01*
X00765116Y00552040D01*
X00767830Y00555858D01*
X00771142Y00559170D01*
X00774959Y00561884D01*
X00779176Y00563923D01*
X00783673Y00565230D01*
X00786000Y00565500D01*
Y00565500D01*
X00786000Y00555500D01*
D02*
G37*
G36*
X00794000Y00518500D02*
X00795333Y00518789D01*
X00797914Y00519669D01*
X00800331Y00520929D01*
X00802529Y00522542D01*
X00804457Y00524470D01*
X00806070Y00526668D01*
X00807331Y00529086D01*
X00808210Y00531667D01*
X00808500Y00533000D01*
Y00533000D01*
X00818500Y00533000D01*
X00818230Y00530674D01*
X00816923Y00526176D01*
X00814884Y00521960D01*
X00812170Y00518142D01*
X00808858Y00514830D01*
X00805041Y00512117D01*
X00800824Y00510078D01*
X00796327Y00508770D01*
X00794000Y00508500D01*
X00794000Y00508500D01*
X00794000Y00518500D01*
D02*
G37*
G36*
X00808500Y00541000D02*
X00808211Y00542333D01*
X00807331Y00544914D01*
X00806071Y00547331D01*
X00804458Y00549529D01*
X00802530Y00551457D01*
X00800332Y00553070D01*
X00797914Y00554331D01*
X00795333Y00555210D01*
X00794000Y00555500D01*
X00794000D01*
X00794000Y00565500D01*
X00796326Y00565230D01*
X00800824Y00563923D01*
X00805040Y00561884D01*
X00808858Y00559170D01*
X00812170Y00555858D01*
X00814883Y00552041D01*
X00816923Y00547824D01*
X00818230Y00543327D01*
X00818500Y00541000D01*
X00818500Y00541000D01*
X00808500Y00541000D01*
D02*
G37*
D19*
X00186344Y00427559D02*
D03*
X00177844D02*
D03*
D20*
X00087789Y00460715D02*
D03*
Y00455215D02*
D03*
X00121790Y00460715D02*
D03*
Y00455215D02*
D03*
D21*
X00099290Y00452465D02*
D03*
X00110289D02*
D03*
X00099290Y00463465D02*
D03*
X00110289Y00463465D02*
D03*
D22*
X00169000Y00609000D02*
D03*
Y00599000D02*
D03*
X00055000Y00695000D02*
D03*
Y00685000D02*
D03*
X00176000Y00493500D02*
D03*
Y00482500D02*
D03*
X00200000Y00416500D02*
D03*
Y00427500D02*
D03*
X00066547Y00467612D02*
D03*
Y00457612D02*
D03*
D23*
X00462998Y00555501D02*
D03*
X00458998D02*
D03*
X00450998D02*
D03*
X00454998D02*
D03*
X00438998D02*
D03*
X00434998D02*
D03*
X00442999D02*
D03*
X00446998D02*
D03*
X00426998D02*
D03*
X00430998D02*
D03*
X00502999D02*
D03*
X00498998D02*
D03*
X00490998D02*
D03*
X00494999D02*
D03*
X00478998D02*
D03*
X00474999D02*
D03*
X00482999D02*
D03*
X00486998D02*
D03*
X00466998D02*
D03*
X00470998D02*
D03*
X00542999D02*
D03*
X00538998D02*
D03*
X00530998D02*
D03*
X00534998D02*
D03*
X00518998D02*
D03*
X00514999D02*
D03*
X00522999D02*
D03*
X00526998D02*
D03*
X00506998D02*
D03*
X00510998D02*
D03*
X00582999D02*
D03*
X00578998D02*
D03*
X00570998D02*
D03*
X00574998D02*
D03*
X00558998D02*
D03*
X00554999D02*
D03*
X00562999D02*
D03*
X00566998D02*
D03*
X00546998D02*
D03*
X00550998D02*
D03*
X00590998D02*
D03*
X00586998D02*
D03*
X00606998D02*
D03*
X00602999D02*
D03*
X00594999D02*
D03*
X00598998D02*
D03*
X00614998D02*
D03*
X00610998D02*
D03*
X00618998D02*
D03*
X00622998D02*
D03*
Y00528201D02*
D03*
X00618998D02*
D03*
X00610998D02*
D03*
X00614998D02*
D03*
X00598998D02*
D03*
X00594999D02*
D03*
X00602999D02*
D03*
X00606998D02*
D03*
X00586998D02*
D03*
X00590998D02*
D03*
X00550998D02*
D03*
X00546998D02*
D03*
X00566998D02*
D03*
X00562999D02*
D03*
X00554999D02*
D03*
X00558998D02*
D03*
X00574998D02*
D03*
X00570998D02*
D03*
X00578998D02*
D03*
X00582999D02*
D03*
X00510998D02*
D03*
X00506998D02*
D03*
X00526998D02*
D03*
X00522999D02*
D03*
X00514999D02*
D03*
X00518998D02*
D03*
X00534998D02*
D03*
X00530998D02*
D03*
X00538998D02*
D03*
X00542999D02*
D03*
X00470998D02*
D03*
X00466998D02*
D03*
X00486998D02*
D03*
X00482999D02*
D03*
X00474999D02*
D03*
X00478998D02*
D03*
X00494999D02*
D03*
X00490998D02*
D03*
X00498998D02*
D03*
X00502999D02*
D03*
X00430998D02*
D03*
X00426998D02*
D03*
X00446998D02*
D03*
X00442999D02*
D03*
X00434998D02*
D03*
X00438998D02*
D03*
X00454998D02*
D03*
X00450998D02*
D03*
X00458998D02*
D03*
X00462998D02*
D03*
X00463000Y00215500D02*
D03*
X00459000D02*
D03*
X00451000D02*
D03*
X00455000D02*
D03*
X00439000D02*
D03*
X00435000D02*
D03*
X00443000D02*
D03*
X00447000D02*
D03*
X00427000D02*
D03*
X00431000D02*
D03*
X00503000D02*
D03*
X00499000D02*
D03*
X00491000D02*
D03*
X00495000D02*
D03*
X00479000D02*
D03*
X00475000D02*
D03*
X00483000D02*
D03*
X00487000D02*
D03*
X00467000D02*
D03*
X00471000D02*
D03*
X00543000D02*
D03*
X00539000D02*
D03*
X00531000D02*
D03*
X00535000D02*
D03*
X00519000D02*
D03*
X00515000D02*
D03*
X00523000D02*
D03*
X00527000D02*
D03*
X00507000D02*
D03*
X00511000D02*
D03*
X00583000D02*
D03*
X00579000D02*
D03*
X00571000D02*
D03*
X00575000D02*
D03*
X00559000D02*
D03*
X00555000D02*
D03*
X00563000D02*
D03*
X00567000D02*
D03*
X00547000D02*
D03*
X00551000D02*
D03*
X00591000D02*
D03*
X00587000D02*
D03*
X00607000D02*
D03*
X00603000D02*
D03*
X00595000D02*
D03*
X00599000D02*
D03*
X00615000D02*
D03*
X00611000D02*
D03*
X00619000D02*
D03*
X00623000D02*
D03*
Y00188200D02*
D03*
X00619000D02*
D03*
X00611000D02*
D03*
X00615000D02*
D03*
X00599000D02*
D03*
X00595000D02*
D03*
X00603000D02*
D03*
X00607000D02*
D03*
X00587000D02*
D03*
X00591000D02*
D03*
X00551000D02*
D03*
X00547000D02*
D03*
X00567000D02*
D03*
X00563000D02*
D03*
X00555000D02*
D03*
X00559000D02*
D03*
X00575000D02*
D03*
X00571000D02*
D03*
X00579000D02*
D03*
X00583000D02*
D03*
X00511000D02*
D03*
X00507000D02*
D03*
X00527000D02*
D03*
X00523000D02*
D03*
X00515000D02*
D03*
X00519000D02*
D03*
X00535000D02*
D03*
X00531000D02*
D03*
X00539000D02*
D03*
X00543000D02*
D03*
X00471000D02*
D03*
X00467000D02*
D03*
X00487000D02*
D03*
X00483000D02*
D03*
X00475000D02*
D03*
X00479000D02*
D03*
X00495000D02*
D03*
X00491000D02*
D03*
X00499000D02*
D03*
X00503000D02*
D03*
X00431000D02*
D03*
X00427000D02*
D03*
X00447000D02*
D03*
X00443000D02*
D03*
X00435000D02*
D03*
X00439000D02*
D03*
X00455000D02*
D03*
X00451000D02*
D03*
X00459000D02*
D03*
X00463000D02*
D03*
D24*
X00070500Y00700750D02*
D03*
X00083500D02*
D03*
Y00679250D02*
D03*
X00077000D02*
D03*
X00070500D02*
D03*
D25*
X00179250Y00603500D02*
D03*
Y00616500D02*
D03*
X00200750D02*
D03*
X00200750Y00610000D02*
D03*
X00200750Y00603500D02*
D03*
D26*
X00316750Y00151000D02*
D03*
X00325250D02*
D03*
X00341750Y00142000D02*
D03*
X00350250D02*
D03*
X00298750Y00151000D02*
D03*
X00307250D02*
D03*
X00323750Y00142000D02*
D03*
X00332250D02*
D03*
X00300250D02*
D03*
X00291750D02*
D03*
X00374250Y00151000D02*
D03*
X00365750D02*
D03*
X00347750D02*
D03*
X00356250D02*
D03*
X00372750Y00142000D02*
D03*
X00381250D02*
D03*
X00424250Y00151000D02*
D03*
X00415750D02*
D03*
X00397750D02*
D03*
X00406250D02*
D03*
X00399250Y00142000D02*
D03*
X00390750D02*
D03*
X00449250D02*
D03*
X00440750D02*
D03*
X00422750D02*
D03*
X00431250D02*
D03*
X00535250Y00071000D02*
D03*
X00526750D02*
D03*
X00508750D02*
D03*
X00517250D02*
D03*
X00643750Y00151000D02*
D03*
X00652250D02*
D03*
X00670250D02*
D03*
X00661750D02*
D03*
X00679750D02*
D03*
X00688250D02*
D03*
X00529250Y00765000D02*
D03*
X00520750D02*
D03*
X00492250D02*
D03*
X00483750D02*
D03*
X00534750Y00755000D02*
D03*
X00543250D02*
D03*
X00554750Y00714000D02*
D03*
X00563250D02*
D03*
X00515750D02*
D03*
X00524250D02*
D03*
X00495750Y00754000D02*
D03*
X00504250D02*
D03*
X00477750Y00811000D02*
D03*
X00486250D02*
D03*
X00528750D02*
D03*
X00537250D02*
D03*
X00477750Y00714000D02*
D03*
X00486250D02*
D03*
X00459750Y00754000D02*
D03*
X00468250D02*
D03*
X00440750Y00714000D02*
D03*
X00449250D02*
D03*
X00453250Y00764000D02*
D03*
X00444750D02*
D03*
X00274750Y00753000D02*
D03*
X00283250D02*
D03*
X00415250Y00765000D02*
D03*
X00406750D02*
D03*
X00299250D02*
D03*
X00290750D02*
D03*
X00325750Y00714000D02*
D03*
X00334250D02*
D03*
X00402750D02*
D03*
X00411250D02*
D03*
X00313750Y00753000D02*
D03*
X00322250D02*
D03*
X00376250Y00765000D02*
D03*
X00367750D02*
D03*
X00391750Y00753000D02*
D03*
X00400250D02*
D03*
X00287750Y00713000D02*
D03*
X00296250D02*
D03*
X00337250Y00765000D02*
D03*
X00328750D02*
D03*
X00363750Y00714000D02*
D03*
X00372250D02*
D03*
X00350750Y00753000D02*
D03*
X00359250D02*
D03*
D27*
X00529000Y00090334D02*
D03*
X00524000D02*
D03*
X00519000D02*
D03*
X00514000D02*
D03*
X00509000D02*
D03*
Y00131666D02*
D03*
X00514000D02*
D03*
X00519000D02*
D03*
X00524000D02*
D03*
D28*
X00529000D02*
D03*
D29*
X00493000Y00047500D02*
D03*
X00557000D02*
D03*
D30*
X00531500Y00055500D02*
D03*
X00525000Y00055500D02*
D03*
X00518500Y00055500D02*
D03*
X00512000Y00055500D02*
D03*
X00538000D02*
D03*
D31*
X00535500Y00025000D02*
D03*
X00514500D02*
D03*
D32*
X00415000Y00109500D02*
D03*
X00410000D02*
D03*
X00405000D02*
D03*
X00400000D02*
D03*
X00395000D02*
D03*
X00390000D02*
D03*
X00385000D02*
D03*
X00380000D02*
D03*
X00375000D02*
D03*
X00370000D02*
D03*
X00365000D02*
D03*
X00360000D02*
D03*
X00355000D02*
D03*
X00350000D02*
D03*
X00345000D02*
D03*
X00340000D02*
D03*
X00335000D02*
D03*
X00330000D02*
D03*
X00325000D02*
D03*
D33*
X00541000Y00129000D02*
D03*
Y00136900D02*
D03*
X00495000Y00130950D02*
D03*
Y00123050D02*
D03*
X00495000Y00138100D02*
D03*
Y00146000D02*
D03*
D34*
X00500000Y00069250D02*
D03*
Y00060750D02*
D03*
X00652000Y00395500D02*
D03*
Y00387000D02*
D03*
Y00407000D02*
D03*
Y00415500D02*
D03*
Y00355500D02*
D03*
Y00347000D02*
D03*
Y00375500D02*
D03*
Y00367000D02*
D03*
Y00427000D02*
D03*
Y00435500D02*
D03*
Y00315500D02*
D03*
Y00307000D02*
D03*
Y00335500D02*
D03*
Y00327000D02*
D03*
X00442000Y00798250D02*
D03*
Y00789750D02*
D03*
X00427000Y00751750D02*
D03*
Y00760250D02*
D03*
D35*
X00837000Y00165750D02*
D03*
Y00174250D02*
D03*
X00828000Y00165750D02*
D03*
Y00174250D02*
D03*
X00076561Y00485691D02*
D03*
Y00477191D02*
D03*
X00132000Y00456250D02*
D03*
Y00464750D02*
D03*
X00076000Y00467250D02*
D03*
Y00458750D02*
D03*
D36*
X00097000Y00486000D02*
D03*
X00087000D02*
D03*
X00625597Y00334053D02*
D03*
X00614597D02*
D03*
X00611500Y00381000D02*
D03*
X00600500D02*
D03*
X00112000Y00286000D02*
D03*
X00101000D02*
D03*
X00122500D02*
D03*
X00133500D02*
D03*
X00173000D02*
D03*
X00162000D02*
D03*
X00182500D02*
D03*
X00193500D02*
D03*
X00209500Y00517000D02*
D03*
X00198500D02*
D03*
X00188500Y00448000D02*
D03*
X00177500D02*
D03*
X00076394Y00447745D02*
D03*
X00066394D02*
D03*
X00076394Y00438968D02*
D03*
X00066394D02*
D03*
X00066397Y00486883D02*
D03*
X00056397D02*
D03*
X00042000Y00433000D02*
D03*
X00052000D02*
D03*
X00118177Y00432213D02*
D03*
X00108177D02*
D03*
D37*
X00211819Y00268946D02*
D03*
Y00174746D02*
D03*
X00101819Y00268946D02*
D03*
X00111819D02*
D03*
X00121819D02*
D03*
X00131819D02*
D03*
X00161819D02*
D03*
X00171819D02*
D03*
X00181819D02*
D03*
X00191819D02*
D03*
X00201819D02*
D03*
Y00174746D02*
D03*
X00191819D02*
D03*
X00181819D02*
D03*
X00171819D02*
D03*
X00161819D02*
D03*
X00151819D02*
D03*
X00141819D02*
D03*
X00131819D02*
D03*
X00121819D02*
D03*
X00111819D02*
D03*
X00101819D02*
D03*
X00151819Y00268946D02*
D03*
X00141819D02*
D03*
D38*
X00596224Y00333965D02*
D03*
X00604724D02*
D03*
X00043750Y00778000D02*
D03*
X00052250D02*
D03*
X00043750Y00728000D02*
D03*
X00052250D02*
D03*
X00066445Y00477571D02*
D03*
X00057945D02*
D03*
D39*
X00609500Y00344750D02*
D03*
X00590500D02*
D03*
Y00369250D02*
D03*
X00600000D02*
D03*
X00609500D02*
D03*
X00208500Y00480750D02*
D03*
X00189500D02*
D03*
Y00505250D02*
D03*
X00199000D02*
D03*
X00208500D02*
D03*
D40*
X00675000Y00335500D02*
D03*
Y00346500D02*
D03*
Y00357500D02*
D03*
Y00368500D02*
D03*
Y00379500D02*
D03*
Y00390500D02*
D03*
Y00401500D02*
D03*
Y00412500D02*
D03*
Y00324500D02*
D03*
D41*
X00781000Y00467500D02*
D03*
Y00312500D02*
D03*
D42*
X00685000D02*
D03*
D43*
Y00458500D02*
D03*
D44*
X00015000Y00762500D02*
D03*
Y00777500D02*
D03*
Y00712500D02*
D03*
Y00727500D02*
D03*
D45*
X00158000Y00643500D02*
D03*
X00116000D02*
D03*
X00158000Y00688500D02*
D03*
X00116000D02*
D03*
D46*
X00193500Y00458000D02*
D03*
X00178500D02*
D03*
X00053500Y00454000D02*
D03*
X00038500D02*
D03*
X00053500Y00443000D02*
D03*
X00038500D02*
D03*
D47*
X00187094Y00437309D02*
D03*
X00182094D02*
D03*
X00177094D02*
D03*
Y00417809D02*
D03*
X00182094D02*
D03*
X00187094D02*
D03*
D48*
X00185000Y00372000D02*
D03*
X00229000D02*
D03*
D49*
X00210000Y00415500D02*
D03*
Y00430500D02*
D03*
D50*
X00145750Y00362499D02*
D03*
X00033250D02*
D03*
D51*
X00085000Y00498998D02*
D03*
X00105000D02*
D03*
X00085000Y00515498D02*
D03*
X00105000D02*
D03*
D52*
X00121790Y00465465D02*
D03*
Y00450465D02*
D03*
X00087789D02*
D03*
Y00465465D02*
D03*
D53*
X00114789Y00440965D02*
D03*
X00109789D02*
D03*
X00104789D02*
D03*
X00099789D02*
D03*
X00094789D02*
D03*
Y00474965D02*
D03*
X00099789D02*
D03*
X00104789D02*
D03*
X00109789D02*
D03*
X00114789D02*
D03*
M02*
