G04*
G04 #@! TF.GenerationSoftware,Altium Limited,Altium Designer,22.10.1 (41)*
G04*
G04 Layer_Color=128*
%FSAX44Y44*%
%MOMM*%
G71*
G04*
G04 #@! TF.SameCoordinates,19A9066D-69EC-4412-BDAA-CEE194C5A0F3*
G04*
G04*
G04 #@! TF.FilePolarity,Positive*
G04*
G01*
G75*
%ADD38R,0.6000X0.5500*%
%ADD133R,1.7000X2.3000*%
%ADD134C,0.6400*%
%ADD137R,1.4000X1.1000*%
%ADD138R,1.0000X1.6000*%
G36*
X00135000Y00721500D02*
X00133667Y00721789D01*
X00131086Y00722669D01*
X00128669Y00723929D01*
X00126471Y00725542D01*
X00124543Y00727470D01*
X00122930Y00729668D01*
X00121669Y00732086D01*
X00120790Y00734667D01*
X00120500Y00736000D01*
X00120500Y00736000D01*
X00110500Y00736000D01*
X00110770Y00733674D01*
X00112077Y00729176D01*
X00114116Y00724960D01*
X00116830Y00721142D01*
X00120142Y00717830D01*
X00123959Y00715117D01*
X00128176Y00713077D01*
X00132673Y00711770D01*
X00135000Y00711500D01*
Y00711500D01*
X00135000Y00721500D01*
D02*
G37*
G36*
X00120500Y00744000D02*
X00120789Y00745333D01*
X00121669Y00747914D01*
X00122929Y00750331D01*
X00124542Y00752529D01*
X00126470Y00754457D01*
X00128668Y00756070D01*
X00131086Y00757331D01*
X00133667Y00758210D01*
X00135000Y00758500D01*
X00135000D01*
X00135000Y00768500D01*
X00132674Y00768230D01*
X00128176Y00766923D01*
X00123960Y00764884D01*
X00120142Y00762170D01*
X00116830Y00758858D01*
X00114116Y00755041D01*
X00112077Y00750824D01*
X00110770Y00746327D01*
X00110500Y00744000D01*
X00110500Y00744000D01*
X00120500Y00744000D01*
D02*
G37*
G36*
X00157500Y00736000D02*
X00157211Y00734667D01*
X00156332Y00732086D01*
X00155071Y00729669D01*
X00153458Y00727471D01*
X00151530Y00725543D01*
X00149332Y00723930D01*
X00146914Y00722669D01*
X00144333Y00721790D01*
X00143000Y00721500D01*
X00143000Y00721500D01*
X00143000Y00711500D01*
X00145326Y00711770D01*
X00149824Y00713077D01*
X00154040Y00715116D01*
X00157858Y00717830D01*
X00161170Y00721142D01*
X00163883Y00724959D01*
X00165923Y00729176D01*
X00167230Y00733673D01*
X00167500Y00736000D01*
X00167500D01*
X00157500Y00736000D01*
D02*
G37*
G36*
X00143000Y00758500D02*
X00144333Y00758211D01*
X00146914Y00757331D01*
X00149331Y00756071D01*
X00151529Y00754458D01*
X00153457Y00752530D01*
X00155070Y00750332D01*
X00156331Y00747914D01*
X00157210Y00745333D01*
X00157500Y00744000D01*
X00157500Y00744000D01*
X00167500Y00744000D01*
X00167230Y00746326D01*
X00165923Y00750824D01*
X00163884Y00755040D01*
X00161170Y00758858D01*
X00157858Y00762170D01*
X00154041Y00764883D01*
X00149824Y00766923D01*
X00145327Y00768230D01*
X00143000Y00768500D01*
X00143000Y00768500D01*
X00143000Y00758500D01*
D02*
G37*
G36*
X00765000Y00721500D02*
X00763667Y00721789D01*
X00761086Y00722669D01*
X00758669Y00723929D01*
X00756471Y00725542D01*
X00754543Y00727470D01*
X00752930Y00729668D01*
X00751669Y00732086D01*
X00750790Y00734667D01*
X00750500Y00736000D01*
X00750500Y00736000D01*
X00740500Y00736000D01*
X00740770Y00733674D01*
X00742077Y00729176D01*
X00744116Y00724960D01*
X00746830Y00721142D01*
X00750142Y00717830D01*
X00753959Y00715117D01*
X00758176Y00713077D01*
X00762673Y00711770D01*
X00765000Y00711500D01*
Y00711500D01*
X00765000Y00721500D01*
D02*
G37*
G36*
X00750500Y00744000D02*
X00750789Y00745333D01*
X00751668Y00747914D01*
X00752929Y00750331D01*
X00754542Y00752529D01*
X00756470Y00754457D01*
X00758668Y00756070D01*
X00761086Y00757331D01*
X00763667Y00758210D01*
X00765000Y00758500D01*
X00765000D01*
X00765000Y00768500D01*
X00762674Y00768230D01*
X00758176Y00766923D01*
X00753960Y00764884D01*
X00750142Y00762170D01*
X00746830Y00758858D01*
X00744117Y00755041D01*
X00742077Y00750824D01*
X00740770Y00746327D01*
X00740500Y00744000D01*
X00740500Y00744000D01*
X00750500Y00744000D01*
D02*
G37*
G36*
X00787500Y00736000D02*
X00787211Y00734667D01*
X00786331Y00732086D01*
X00785071Y00729669D01*
X00783458Y00727471D01*
X00781530Y00725543D01*
X00779332Y00723930D01*
X00776914Y00722669D01*
X00774333Y00721790D01*
X00773000Y00721500D01*
X00773000Y00721500D01*
X00773000Y00711500D01*
X00775326Y00711770D01*
X00779824Y00713077D01*
X00784040Y00715116D01*
X00787858Y00717830D01*
X00791170Y00721142D01*
X00793884Y00724959D01*
X00795922Y00729176D01*
X00797230Y00733673D01*
X00797500Y00736000D01*
X00797500D01*
X00787500Y00736000D01*
D02*
G37*
G36*
X00773000Y00758500D02*
X00774333Y00758211D01*
X00776914Y00757331D01*
X00779331Y00756071D01*
X00781529Y00754458D01*
X00783457Y00752530D01*
X00785070Y00750332D01*
X00786331Y00747914D01*
X00787210Y00745333D01*
X00787500Y00744000D01*
X00787500Y00744000D01*
X00797500Y00744000D01*
X00797230Y00746326D01*
X00795923Y00750824D01*
X00793884Y00755040D01*
X00791170Y00758858D01*
X00787858Y00762170D01*
X00784041Y00764883D01*
X00779824Y00766923D01*
X00775327Y00768230D01*
X00773000Y00768500D01*
X00773000Y00768500D01*
X00773000Y00758500D01*
D02*
G37*
D38*
X00037750Y00153000D02*
D03*
X00046250D02*
D03*
X00037500Y00142500D02*
D03*
X00046000D02*
D03*
D133*
X00108000Y00607000D02*
D03*
Y00565000D02*
D03*
D134*
X00325650Y00793750D02*
D03*
X00376450D02*
D03*
X00706650Y00730250D02*
D03*
X00706650Y00742950D02*
D03*
Y00781050D02*
D03*
X00706650Y00793750D02*
D03*
X00693950Y00730250D02*
D03*
Y00742950D02*
D03*
Y00781050D02*
D03*
Y00793750D02*
D03*
X00681250Y00730250D02*
D03*
Y00742950D02*
D03*
Y00781050D02*
D03*
Y00793750D02*
D03*
X00668550Y00730250D02*
D03*
X00668550Y00742950D02*
D03*
Y00781050D02*
D03*
X00668550Y00793750D02*
D03*
X00655850Y00730250D02*
D03*
Y00742950D02*
D03*
Y00781050D02*
D03*
Y00793750D02*
D03*
X00643150Y00730250D02*
D03*
Y00742950D02*
D03*
Y00781050D02*
D03*
Y00793750D02*
D03*
X00630450Y00730250D02*
D03*
Y00742950D02*
D03*
Y00781050D02*
D03*
Y00793750D02*
D03*
X00617750Y00730250D02*
D03*
X00617750Y00742950D02*
D03*
Y00781050D02*
D03*
X00617750Y00793750D02*
D03*
X00605050Y00730250D02*
D03*
Y00742950D02*
D03*
Y00781050D02*
D03*
Y00793750D02*
D03*
X00592350Y00730250D02*
D03*
X00592350Y00742950D02*
D03*
Y00781050D02*
D03*
X00592350Y00793750D02*
D03*
X00579650Y00730250D02*
D03*
Y00742950D02*
D03*
Y00781050D02*
D03*
Y00793750D02*
D03*
X00566950Y00730250D02*
D03*
Y00742950D02*
D03*
Y00781050D02*
D03*
Y00793750D02*
D03*
X00554250Y00730250D02*
D03*
Y00742950D02*
D03*
Y00781050D02*
D03*
Y00793750D02*
D03*
X00541550Y00730250D02*
D03*
X00541550Y00742950D02*
D03*
Y00781050D02*
D03*
X00541550Y00793750D02*
D03*
X00528850Y00730250D02*
D03*
Y00742950D02*
D03*
Y00781050D02*
D03*
Y00793750D02*
D03*
X00516150Y00730250D02*
D03*
Y00742950D02*
D03*
Y00781050D02*
D03*
Y00793750D02*
D03*
X00503450Y00730250D02*
D03*
X00503450Y00742950D02*
D03*
Y00781050D02*
D03*
X00503450Y00793750D02*
D03*
X00490750Y00730250D02*
D03*
Y00742950D02*
D03*
Y00781050D02*
D03*
Y00793750D02*
D03*
X00478050Y00730250D02*
D03*
X00478050Y00742950D02*
D03*
Y00781050D02*
D03*
X00478050Y00793750D02*
D03*
X00465350Y00730250D02*
D03*
Y00742950D02*
D03*
Y00781050D02*
D03*
Y00793750D02*
D03*
X00452650Y00730250D02*
D03*
Y00742950D02*
D03*
Y00781050D02*
D03*
Y00793750D02*
D03*
X00439950Y00730250D02*
D03*
X00439950Y00742950D02*
D03*
Y00781050D02*
D03*
X00439950Y00793750D02*
D03*
X00427250Y00730250D02*
D03*
Y00742950D02*
D03*
Y00781050D02*
D03*
Y00793750D02*
D03*
X00414550Y00730250D02*
D03*
X00414550Y00742950D02*
D03*
Y00781050D02*
D03*
X00414550Y00793750D02*
D03*
X00401850Y00730250D02*
D03*
Y00742950D02*
D03*
Y00781050D02*
D03*
Y00793750D02*
D03*
X00389150Y00730250D02*
D03*
Y00742950D02*
D03*
Y00781050D02*
D03*
Y00793750D02*
D03*
X00376450Y00730250D02*
D03*
X00376450Y00742950D02*
D03*
Y00781050D02*
D03*
X00363750Y00730250D02*
D03*
Y00742950D02*
D03*
Y00781050D02*
D03*
Y00793750D02*
D03*
X00351050Y00730250D02*
D03*
Y00742950D02*
D03*
Y00781050D02*
D03*
Y00793750D02*
D03*
X00338350Y00730250D02*
D03*
Y00742950D02*
D03*
Y00781050D02*
D03*
Y00793750D02*
D03*
X00325650Y00730250D02*
D03*
X00325650Y00742950D02*
D03*
Y00781050D02*
D03*
X00312950Y00730250D02*
D03*
Y00742950D02*
D03*
Y00781050D02*
D03*
Y00793750D02*
D03*
X00300250Y00730250D02*
D03*
X00300250Y00742950D02*
D03*
Y00781050D02*
D03*
X00300250Y00793750D02*
D03*
X00287550Y00730250D02*
D03*
Y00742950D02*
D03*
Y00781050D02*
D03*
Y00793750D02*
D03*
X00274850Y00730250D02*
D03*
Y00742950D02*
D03*
Y00781050D02*
D03*
Y00793750D02*
D03*
X00262150Y00730250D02*
D03*
Y00742950D02*
D03*
Y00781050D02*
D03*
Y00793750D02*
D03*
X00249450Y00730250D02*
D03*
X00249450Y00742950D02*
D03*
Y00781050D02*
D03*
X00249450Y00793750D02*
D03*
X00236750Y00730250D02*
D03*
Y00742950D02*
D03*
Y00781050D02*
D03*
Y00793750D02*
D03*
X00224050Y00730250D02*
D03*
Y00742950D02*
D03*
Y00781050D02*
D03*
Y00793750D02*
D03*
X00211350Y00730250D02*
D03*
X00211350Y00742950D02*
D03*
Y00781050D02*
D03*
X00211350Y00793750D02*
D03*
D137*
X00102000Y00223750D02*
D03*
Y00206250D02*
D03*
X00132000Y00223750D02*
D03*
Y00206250D02*
D03*
X00162000Y00222750D02*
D03*
Y00205250D02*
D03*
X00192000Y00223750D02*
D03*
Y00206250D02*
D03*
D138*
X00084000Y00221000D02*
D03*
X00054000D02*
D03*
M02*
