G04*
G04 #@! TF.GenerationSoftware,Altium Limited,Altium Designer,22.10.1 (41)*
G04*
G04 Layer_Physical_Order=2*
G04 Layer_Color=36540*
%FSAX44Y44*%
%MOMM*%
G71*
G04*
G04 #@! TF.SameCoordinates,19A9066D-69EC-4412-BDAA-CEE194C5A0F3*
G04*
G04*
G04 #@! TF.FilePolarity,Positive*
G04*
G01*
G75*
%ADD116O,1.2000X2.1500*%
%ADD117O,1.5000X3.1000*%
%ADD118O,1.5000X2.3000*%
%ADD121C,2.8000*%
%ADD126O,2.2000X4.0000*%
%ADD128O,4.0000X2.0000*%
%ADD129C,3.8000*%
%ADD130C,1.5240*%
%ADD131C,0.6000*%
G36*
X00810000Y00835000D02*
X00812294Y00835000D01*
X00816843Y00834401D01*
X00821275Y00833214D01*
X00825513Y00831458D01*
X00829487Y00829164D01*
X00833127Y00826371D01*
X00836371Y00823127D01*
X00839164Y00819487D01*
X00841458Y00815513D01*
X00843214Y00811274D01*
X00844401Y00806843D01*
X00845000Y00802294D01*
X00845000Y00800000D01*
X00845000Y00800000D01*
X00845000Y00800000D01*
X00845000Y00040000D01*
X00845000Y00037706D01*
X00844401Y00033157D01*
X00843214Y00028725D01*
X00841458Y00024486D01*
X00839164Y00020513D01*
X00836371Y00016873D01*
X00833127Y00013629D01*
X00829487Y00010836D01*
X00825513Y00008542D01*
X00821274Y00006786D01*
X00816843Y00005599D01*
X00812294Y00005000D01*
X00810000Y00005000D01*
X00040000D01*
X00037706Y00005000D01*
X00033157Y00005599D01*
X00028725Y00006786D01*
X00024487Y00008542D01*
X00020513Y00010836D01*
X00016873Y00013629D01*
X00013629Y00016873D01*
X00010836Y00020513D01*
X00008542Y00024487D01*
X00006786Y00028725D01*
X00005599Y00033157D01*
X00005000Y00037706D01*
X00005000Y00040000D01*
Y00135000D01*
X00005000Y00800000D01*
Y00802294D01*
X00005599Y00806843D01*
X00006786Y00811275D01*
X00008542Y00815513D01*
X00010836Y00819487D01*
X00013629Y00823127D01*
X00016873Y00826371D01*
X00020513Y00829164D01*
X00024487Y00831458D01*
X00028725Y00833214D01*
X00033157Y00834401D01*
X00037706Y00835000D01*
X00040000Y00835000D01*
X00040000Y00835000D01*
X00810000Y00835000D01*
D02*
G37*
%LPC*%
G36*
X00530193Y00808000D02*
X00527807D01*
X00525601Y00807086D01*
X00523913Y00805399D01*
X00523000Y00803194D01*
Y00800807D01*
X00523913Y00798601D01*
X00525601Y00796913D01*
X00527807Y00796000D01*
X00530193D01*
X00532399Y00796913D01*
X00534087Y00798601D01*
X00535000Y00800807D01*
Y00803194D01*
X00534087Y00805399D01*
X00532399Y00807086D01*
X00530193Y00808000D01*
D02*
G37*
G36*
X00479193D02*
X00476806D01*
X00474601Y00807086D01*
X00472914Y00805399D01*
X00472000Y00803194D01*
Y00800807D01*
X00472914Y00798601D01*
X00474601Y00796913D01*
X00476806Y00796000D01*
X00479193D01*
X00481399Y00796913D01*
X00483087Y00798601D01*
X00484000Y00800807D01*
Y00803194D01*
X00483087Y00805399D01*
X00481399Y00807086D01*
X00479193Y00808000D01*
D02*
G37*
G36*
X00433817Y00805760D02*
X00431431D01*
X00429225Y00804847D01*
X00427537Y00803159D01*
X00426624Y00800954D01*
Y00798567D01*
X00427537Y00796362D01*
X00429225Y00794674D01*
X00431431Y00793760D01*
X00433817D01*
X00436023Y00794674D01*
X00437711Y00796362D01*
X00438624Y00798567D01*
Y00800954D01*
X00437711Y00803159D01*
X00436023Y00804847D01*
X00433817Y00805760D01*
D02*
G37*
G36*
X00383893Y00793500D02*
X00381507D01*
X00379301Y00792587D01*
X00377613Y00790899D01*
X00376700Y00788693D01*
Y00786307D01*
X00377613Y00784101D01*
X00379301Y00782413D01*
X00381507Y00781500D01*
X00383893D01*
X00386099Y00782413D01*
X00387786Y00784101D01*
X00388700Y00786307D01*
Y00788693D01*
X00387786Y00790899D01*
X00386099Y00792587D01*
X00383893Y00793500D01*
D02*
G37*
G36*
X00333093D02*
X00330706D01*
X00328501Y00792587D01*
X00326813Y00790899D01*
X00325900Y00788693D01*
Y00786307D01*
X00326813Y00784101D01*
X00328501Y00782413D01*
X00330706Y00781500D01*
X00333093D01*
X00335299Y00782413D01*
X00336987Y00784101D01*
X00337900Y00786307D01*
Y00788693D01*
X00336987Y00790899D01*
X00335299Y00792587D01*
X00333093Y00793500D01*
D02*
G37*
G36*
X00530193Y00779000D02*
X00527807D01*
X00525601Y00778087D01*
X00523913Y00776399D01*
X00523000Y00774193D01*
Y00771806D01*
X00523913Y00769601D01*
X00525601Y00767914D01*
X00527807Y00767000D01*
X00530193D01*
X00532399Y00767914D01*
X00534087Y00769601D01*
X00535000Y00771806D01*
Y00774193D01*
X00534087Y00776399D01*
X00532399Y00778087D01*
X00530193Y00779000D01*
D02*
G37*
G36*
X00492193D02*
X00489807D01*
X00487601Y00778087D01*
X00485914Y00776399D01*
X00485000Y00774193D01*
Y00771806D01*
X00485914Y00769601D01*
X00487601Y00767914D01*
X00489807Y00767000D01*
X00492193D01*
X00494399Y00767914D01*
X00496087Y00769601D01*
X00497000Y00771806D01*
Y00774193D01*
X00496087Y00776399D01*
X00494399Y00778087D01*
X00492193Y00779000D01*
D02*
G37*
G36*
X00416194D02*
X00413806D01*
X00411601Y00778087D01*
X00409913Y00776399D01*
X00409000Y00774193D01*
Y00771806D01*
X00409913Y00769601D01*
X00411601Y00767914D01*
X00413806Y00767000D01*
X00416194D01*
X00418399Y00767914D01*
X00420087Y00769601D01*
X00421000Y00771806D01*
Y00774193D01*
X00420087Y00776399D01*
X00418399Y00778087D01*
X00416194Y00779000D01*
D02*
G37*
G36*
X00339193D02*
X00336806D01*
X00334601Y00778087D01*
X00332914Y00776399D01*
X00332000Y00774193D01*
Y00771806D01*
X00332914Y00769601D01*
X00334601Y00767914D01*
X00336806Y00767000D01*
X00339193D01*
X00341399Y00767914D01*
X00343087Y00769601D01*
X00344000Y00771806D01*
Y00774193D01*
X00343087Y00776399D01*
X00341399Y00778087D01*
X00339193Y00779000D01*
D02*
G37*
G36*
X00301194D02*
X00298806D01*
X00296601Y00778087D01*
X00294914Y00776399D01*
X00294000Y00774193D01*
Y00771806D01*
X00294914Y00769601D01*
X00296601Y00767914D01*
X00298806Y00767000D01*
X00301194D01*
X00303399Y00767914D01*
X00305087Y00769601D01*
X00306000Y00771806D01*
Y00774193D01*
X00305087Y00776399D01*
X00303399Y00778087D01*
X00301194Y00779000D01*
D02*
G37*
G36*
X00377943Y00778250D02*
X00375556D01*
X00373351Y00777337D01*
X00371663Y00775649D01*
X00370750Y00773444D01*
Y00771057D01*
X00371663Y00768851D01*
X00373351Y00767163D01*
X00375556Y00766250D01*
X00377943D01*
X00380149Y00767163D01*
X00381837Y00768851D01*
X00382750Y00771057D01*
Y00773444D01*
X00381837Y00775649D01*
X00380149Y00777337D01*
X00377943Y00778250D01*
D02*
G37*
G36*
X00454193Y00778000D02*
X00451806D01*
X00449601Y00777087D01*
X00447914Y00775399D01*
X00447000Y00773194D01*
Y00770807D01*
X00447914Y00768601D01*
X00449601Y00766914D01*
X00451806Y00766000D01*
X00454193D01*
X00456399Y00766914D01*
X00458087Y00768601D01*
X00459000Y00770807D01*
Y00773194D01*
X00458087Y00775399D01*
X00456399Y00777087D01*
X00454193Y00778000D01*
D02*
G37*
G36*
X00047193Y00775000D02*
X00044806D01*
X00042601Y00774087D01*
X00040914Y00772399D01*
X00040000Y00770193D01*
Y00767806D01*
X00040914Y00765601D01*
X00042601Y00763913D01*
X00044806Y00763000D01*
X00047193D01*
X00049399Y00763913D01*
X00051087Y00765601D01*
X00052000Y00767806D01*
Y00770193D01*
X00051087Y00772399D01*
X00049399Y00774087D01*
X00047193Y00775000D01*
D02*
G37*
G36*
X00188331Y00771350D02*
X00185869D01*
X00183491Y00770713D01*
X00181359Y00769482D01*
X00179618Y00767741D01*
X00178387Y00765609D01*
X00177750Y00763231D01*
Y00760769D01*
X00178387Y00758391D01*
X00179618Y00756259D01*
X00181359Y00754518D01*
X00183491Y00753287D01*
X00185869Y00752650D01*
X00188331D01*
X00190709Y00753287D01*
X00192841Y00754518D01*
X00194582Y00756259D01*
X00195813Y00758391D01*
X00196450Y00760769D01*
Y00763231D01*
X00195813Y00765609D01*
X00194582Y00767741D01*
X00192841Y00769482D01*
X00190709Y00770713D01*
X00188331Y00771350D01*
D02*
G37*
G36*
X00526194Y00761000D02*
X00523806D01*
X00521601Y00760087D01*
X00519913Y00758399D01*
X00519000Y00756193D01*
Y00753807D01*
X00519913Y00751601D01*
X00521601Y00749913D01*
X00523806Y00749000D01*
X00526194D01*
X00528399Y00749913D01*
X00530087Y00751601D01*
X00531000Y00753807D01*
Y00756193D01*
X00530087Y00758399D01*
X00528399Y00760087D01*
X00526194Y00761000D01*
D02*
G37*
G36*
X00487193Y00760000D02*
X00484807D01*
X00482601Y00759087D01*
X00480913Y00757399D01*
X00480000Y00755193D01*
Y00752806D01*
X00480913Y00750601D01*
X00482601Y00748913D01*
X00484807Y00748000D01*
X00487193D01*
X00489399Y00748913D01*
X00491087Y00750601D01*
X00492000Y00752806D01*
Y00755193D01*
X00491087Y00757399D01*
X00489399Y00759087D01*
X00487193Y00760000D01*
D02*
G37*
G36*
X00452193Y00759000D02*
X00449807D01*
X00447601Y00758086D01*
X00445913Y00756399D01*
X00445000Y00754193D01*
Y00751806D01*
X00445913Y00749601D01*
X00447601Y00747913D01*
X00449807Y00747000D01*
X00452193D01*
X00454399Y00747913D01*
X00456087Y00749601D01*
X00457000Y00751806D01*
Y00754193D01*
X00456087Y00756399D01*
X00454399Y00758086D01*
X00452193Y00759000D01*
D02*
G37*
G36*
X00384193D02*
X00381806D01*
X00379601Y00758086D01*
X00377913Y00756399D01*
X00377000Y00754193D01*
Y00751806D01*
X00377913Y00749601D01*
X00379601Y00747913D01*
X00381806Y00747000D01*
X00384193D01*
X00386399Y00747913D01*
X00388087Y00749601D01*
X00389000Y00751806D01*
Y00754193D01*
X00388087Y00756399D01*
X00386399Y00758086D01*
X00384193Y00759000D01*
D02*
G37*
G36*
X00343194D02*
X00340807D01*
X00338601Y00758086D01*
X00336913Y00756399D01*
X00336000Y00754193D01*
Y00751806D01*
X00336913Y00749601D01*
X00338601Y00747913D01*
X00340807Y00747000D01*
X00343194D01*
X00345399Y00747913D01*
X00347087Y00749601D01*
X00348000Y00751806D01*
Y00754193D01*
X00347087Y00756399D01*
X00345399Y00758086D01*
X00343194Y00759000D01*
D02*
G37*
G36*
X00306194D02*
X00303806D01*
X00301601Y00758086D01*
X00299913Y00756399D01*
X00299000Y00754193D01*
Y00751806D01*
X00299913Y00749601D01*
X00301601Y00747913D01*
X00303806Y00747000D01*
X00306194D01*
X00308399Y00747913D01*
X00310087Y00749601D01*
X00311000Y00751806D01*
Y00754193D01*
X00310087Y00756399D01*
X00308399Y00758086D01*
X00306194Y00759000D01*
D02*
G37*
G36*
X00267194D02*
X00264806D01*
X00262601Y00758086D01*
X00260913Y00756399D01*
X00260000Y00754193D01*
Y00751806D01*
X00260913Y00749601D01*
X00262601Y00747913D01*
X00264806Y00747000D01*
X00267194D01*
X00269399Y00747913D01*
X00271087Y00749601D01*
X00272000Y00751806D01*
Y00754193D01*
X00271087Y00756399D01*
X00269399Y00758086D01*
X00267194Y00759000D01*
D02*
G37*
G36*
X00436194Y00758000D02*
X00433806D01*
X00431601Y00757086D01*
X00429913Y00755399D01*
X00429000Y00753194D01*
Y00750807D01*
X00429913Y00748601D01*
X00431601Y00746913D01*
X00433806Y00746000D01*
X00436194D01*
X00438399Y00746913D01*
X00440087Y00748601D01*
X00441000Y00750807D01*
Y00753194D01*
X00440087Y00755399D01*
X00438399Y00757086D01*
X00436194Y00758000D01*
D02*
G37*
G36*
X00771597Y00773000D02*
X00766403D01*
X00761273Y00772187D01*
X00756332Y00770582D01*
X00751704Y00768224D01*
X00747502Y00765171D01*
X00743829Y00761498D01*
X00740776Y00757296D01*
X00738418Y00752668D01*
X00736813Y00747728D01*
X00736000Y00742597D01*
Y00740622D01*
X00734900Y00739987D01*
X00734509Y00740213D01*
X00732131Y00740850D01*
X00729669D01*
X00727291Y00740213D01*
X00725159Y00738982D01*
X00723418Y00737241D01*
X00722187Y00735109D01*
X00721550Y00732731D01*
Y00730269D01*
X00722187Y00727891D01*
X00723418Y00725759D01*
X00725159Y00724018D01*
X00727291Y00722787D01*
X00729669Y00722150D01*
X00732131D01*
X00734509Y00722787D01*
X00736641Y00724018D01*
X00737992Y00725370D01*
X00739458Y00725291D01*
X00740776Y00722704D01*
X00743829Y00718502D01*
X00747502Y00714829D01*
X00751704Y00711776D01*
X00756332Y00709418D01*
X00761273Y00707813D01*
X00766403Y00707000D01*
X00771597D01*
X00776728Y00707813D01*
X00781668Y00709418D01*
X00786296Y00711776D01*
X00790498Y00714829D01*
X00794171Y00718502D01*
X00797224Y00722704D01*
X00799582Y00727332D01*
X00801187Y00732272D01*
X00802000Y00737403D01*
Y00742597D01*
X00801187Y00747728D01*
X00799582Y00752668D01*
X00797224Y00757296D01*
X00794171Y00761498D01*
X00790498Y00765171D01*
X00786296Y00768224D01*
X00781668Y00770582D01*
X00776728Y00772187D01*
X00771597Y00773000D01*
D02*
G37*
G36*
X00403044Y00728150D02*
X00400657D01*
X00398451Y00727237D01*
X00396763Y00725549D01*
X00395850Y00723344D01*
Y00720956D01*
X00396763Y00718751D01*
X00398451Y00717064D01*
X00400657Y00716150D01*
X00403044D01*
X00405249Y00717064D01*
X00406936Y00718751D01*
X00407850Y00720956D01*
Y00723344D01*
X00406936Y00725549D01*
X00405249Y00727237D01*
X00403044Y00728150D01*
D02*
G37*
G36*
X00556194Y00728000D02*
X00553806D01*
X00551601Y00727087D01*
X00549913Y00725399D01*
X00549000Y00723194D01*
Y00720807D01*
X00549913Y00718601D01*
X00551601Y00716914D01*
X00553806Y00716000D01*
X00556194D01*
X00558399Y00716914D01*
X00560087Y00718601D01*
X00561000Y00720807D01*
Y00723194D01*
X00560087Y00725399D01*
X00558399Y00727087D01*
X00556194Y00728000D01*
D02*
G37*
G36*
X00517193D02*
X00514807D01*
X00512601Y00727087D01*
X00510914Y00725399D01*
X00510000Y00723194D01*
Y00720807D01*
X00510914Y00718601D01*
X00512601Y00716914D01*
X00514807Y00716000D01*
X00517193D01*
X00519399Y00716914D01*
X00521087Y00718601D01*
X00522000Y00720807D01*
Y00723194D01*
X00521087Y00725399D01*
X00519399Y00727087D01*
X00517193Y00728000D01*
D02*
G37*
G36*
X00479193D02*
X00476806D01*
X00474601Y00727087D01*
X00472914Y00725399D01*
X00472000Y00723194D01*
Y00720807D01*
X00472914Y00718601D01*
X00474601Y00716914D01*
X00476806Y00716000D01*
X00479193D01*
X00481399Y00716914D01*
X00483087Y00718601D01*
X00484000Y00720807D01*
Y00723194D01*
X00483087Y00725399D01*
X00481399Y00727087D01*
X00479193Y00728000D01*
D02*
G37*
G36*
X00441194D02*
X00438806D01*
X00436601Y00727087D01*
X00434913Y00725399D01*
X00434000Y00723194D01*
Y00720807D01*
X00434913Y00718601D01*
X00436601Y00716914D01*
X00438806Y00716000D01*
X00441194D01*
X00443399Y00716914D01*
X00445087Y00718601D01*
X00446000Y00720807D01*
Y00723194D01*
X00445087Y00725399D01*
X00443399Y00727087D01*
X00441194Y00728000D01*
D02*
G37*
G36*
X00365193D02*
X00362807D01*
X00360601Y00727087D01*
X00358913Y00725399D01*
X00358000Y00723194D01*
Y00720807D01*
X00358913Y00718601D01*
X00360601Y00716914D01*
X00362807Y00716000D01*
X00365193D01*
X00367399Y00716914D01*
X00369087Y00718601D01*
X00370000Y00720807D01*
Y00723194D01*
X00369087Y00725399D01*
X00367399Y00727087D01*
X00365193Y00728000D01*
D02*
G37*
G36*
X00326194D02*
X00323806D01*
X00321601Y00727087D01*
X00319914Y00725399D01*
X00319000Y00723194D01*
Y00720807D01*
X00319914Y00718601D01*
X00321601Y00716914D01*
X00323806Y00716000D01*
X00326194D01*
X00328399Y00716914D01*
X00330087Y00718601D01*
X00331000Y00720807D01*
Y00723194D01*
X00330087Y00725399D01*
X00328399Y00727087D01*
X00326194Y00728000D01*
D02*
G37*
G36*
X00289193D02*
X00286807D01*
X00284601Y00727087D01*
X00282913Y00725399D01*
X00282000Y00723194D01*
Y00720807D01*
X00282913Y00718601D01*
X00284601Y00716914D01*
X00286807Y00716000D01*
X00289193D01*
X00291399Y00716914D01*
X00293087Y00718601D01*
X00294000Y00720807D01*
Y00723194D01*
X00293087Y00725399D01*
X00291399Y00727087D01*
X00289193Y00728000D01*
D02*
G37*
G36*
X00047193Y00725000D02*
X00044806D01*
X00042601Y00724087D01*
X00040914Y00722399D01*
X00040000Y00720193D01*
Y00717806D01*
X00040914Y00715601D01*
X00042601Y00713913D01*
X00044806Y00713000D01*
X00047193D01*
X00049399Y00713913D01*
X00051087Y00715601D01*
X00052000Y00717806D01*
Y00720193D01*
X00051087Y00722399D01*
X00049399Y00724087D01*
X00047193Y00725000D01*
D02*
G37*
G36*
X00141597Y00773000D02*
X00136403D01*
X00131272Y00772187D01*
X00126332Y00770582D01*
X00121704Y00768224D01*
X00117502Y00765171D01*
X00113829Y00761498D01*
X00110776Y00757296D01*
X00108418Y00752668D01*
X00106813Y00747728D01*
X00106000Y00742597D01*
Y00737403D01*
X00106813Y00732272D01*
X00108418Y00727332D01*
X00110776Y00722704D01*
X00113829Y00718502D01*
X00117502Y00714829D01*
X00121704Y00711776D01*
X00126332Y00709418D01*
X00131272Y00707813D01*
X00136403Y00707000D01*
X00141597D01*
X00146728Y00707813D01*
X00151668Y00709418D01*
X00156296Y00711776D01*
X00160498Y00714829D01*
X00164171Y00718502D01*
X00167224Y00722704D01*
X00169582Y00727332D01*
X00171187Y00732272D01*
X00172000Y00737403D01*
Y00742597D01*
X00171187Y00747728D01*
X00169582Y00752668D01*
X00167224Y00757296D01*
X00164171Y00761498D01*
X00160498Y00765171D01*
X00156296Y00768224D01*
X00151668Y00770582D01*
X00146728Y00772187D01*
X00141597Y00773000D01*
D02*
G37*
G36*
X00251194Y00711000D02*
X00248806D01*
X00246601Y00710087D01*
X00244914Y00708399D01*
X00244000Y00706193D01*
Y00703807D01*
X00244914Y00701601D01*
X00246601Y00699913D01*
X00248806Y00699000D01*
X00251194D01*
X00253399Y00699913D01*
X00255087Y00701601D01*
X00256000Y00703807D01*
Y00706193D01*
X00255087Y00708399D01*
X00253399Y00710087D01*
X00251194Y00711000D01*
D02*
G37*
G36*
X00221194D02*
X00218806D01*
X00216601Y00710087D01*
X00214913Y00708399D01*
X00214000Y00706193D01*
Y00703807D01*
X00214913Y00701601D01*
X00216601Y00699913D01*
X00218806Y00699000D01*
X00221194D01*
X00223399Y00699913D01*
X00225086Y00701601D01*
X00226000Y00703807D01*
Y00706193D01*
X00225086Y00708399D01*
X00223399Y00710087D01*
X00221194Y00711000D01*
D02*
G37*
G36*
X00047193Y00701000D02*
X00044806D01*
X00042601Y00700087D01*
X00040914Y00698399D01*
X00040000Y00696193D01*
Y00693807D01*
X00040914Y00691601D01*
X00042601Y00689913D01*
X00044806Y00689000D01*
X00047193D01*
X00049399Y00689913D01*
X00051087Y00691601D01*
X00052000Y00693807D01*
Y00696193D01*
X00051087Y00698399D01*
X00049399Y00700087D01*
X00047193Y00701000D01*
D02*
G37*
G36*
X00226194Y00686000D02*
X00223806D01*
X00221601Y00685087D01*
X00219914Y00683399D01*
X00219000Y00681193D01*
Y00678807D01*
X00219914Y00676601D01*
X00221601Y00674913D01*
X00223806Y00674000D01*
X00226194D01*
X00228399Y00674913D01*
X00230087Y00676601D01*
X00231000Y00678807D01*
Y00681193D01*
X00230087Y00683399D01*
X00228399Y00685087D01*
X00226194Y00686000D01*
D02*
G37*
G36*
X00245194Y00616000D02*
X00242806D01*
X00240601Y00615087D01*
X00239000Y00613485D01*
X00238399Y00614087D01*
X00236194Y00615000D01*
X00233806D01*
X00231601Y00614087D01*
X00229913Y00612399D01*
X00229000Y00610193D01*
Y00607807D01*
X00229913Y00605601D01*
X00231601Y00603913D01*
X00233806Y00603000D01*
X00235000D01*
Y00601806D01*
X00235913Y00599601D01*
X00237601Y00597913D01*
X00239806Y00597000D01*
X00241000D01*
Y00595807D01*
X00241914Y00593601D01*
X00243601Y00591913D01*
X00245807Y00591000D01*
X00248193D01*
X00250399Y00591913D01*
X00252087Y00593601D01*
X00253000Y00595807D01*
Y00598193D01*
X00252804Y00598667D01*
X00253399Y00598913D01*
X00255087Y00600601D01*
X00256000Y00602807D01*
Y00605193D01*
X00255087Y00607399D01*
X00253399Y00609086D01*
X00251194Y00610000D01*
X00250000D01*
Y00611194D01*
X00249086Y00613399D01*
X00247399Y00615087D01*
X00245194Y00616000D01*
D02*
G37*
G36*
X00475193Y00589000D02*
X00472807D01*
X00470601Y00588087D01*
X00468913Y00586399D01*
X00468000Y00584193D01*
Y00581806D01*
X00468913Y00579601D01*
X00470601Y00577913D01*
X00472807Y00577000D01*
X00475193D01*
X00477399Y00577913D01*
X00479086Y00579601D01*
X00480000Y00581806D01*
Y00584193D01*
X00479086Y00586399D01*
X00477399Y00588087D01*
X00475193Y00589000D01*
D02*
G37*
G36*
X00490193Y00588000D02*
X00487807D01*
X00485601Y00587087D01*
X00483913Y00585399D01*
X00483000Y00583194D01*
Y00580807D01*
X00483913Y00578601D01*
X00485601Y00576913D01*
X00487807Y00576000D01*
X00490193D01*
X00492399Y00576913D01*
X00494086Y00578601D01*
X00495000Y00580807D01*
Y00583194D01*
X00494086Y00585399D01*
X00492399Y00587087D01*
X00490193Y00588000D01*
D02*
G37*
G36*
X00429193Y00576000D02*
X00426806D01*
X00424601Y00575087D01*
X00422914Y00573399D01*
X00422000Y00571194D01*
X00420730Y00570755D01*
X00419399Y00572087D01*
X00417193Y00573000D01*
X00414807D01*
X00412601Y00572087D01*
X00410914Y00570399D01*
X00410000Y00568194D01*
Y00565807D01*
X00410914Y00563601D01*
X00412601Y00561913D01*
X00414807Y00561000D01*
X00417193D01*
X00419399Y00561913D01*
X00421087Y00563601D01*
X00422000Y00565807D01*
X00423270Y00566245D01*
X00424601Y00564913D01*
X00426806Y00564000D01*
X00429193D01*
X00431399Y00564913D01*
X00432277Y00565792D01*
X00433523Y00565544D01*
X00433913Y00564601D01*
X00435601Y00562914D01*
X00437807Y00562000D01*
X00440193D01*
X00442399Y00562914D01*
X00444087Y00564601D01*
X00445000Y00566806D01*
Y00569193D01*
X00444087Y00571399D01*
X00442399Y00573087D01*
X00440193Y00574000D01*
X00437807D01*
X00435601Y00573087D01*
X00434723Y00572208D01*
X00433477Y00572456D01*
X00433087Y00573399D01*
X00431399Y00575087D01*
X00429193Y00576000D01*
D02*
G37*
G36*
X00598194Y00570000D02*
X00595807D01*
X00593601Y00569086D01*
X00593000Y00568485D01*
X00592399Y00569086D01*
X00590193Y00570000D01*
X00587807D01*
X00585601Y00569086D01*
X00583913Y00567399D01*
X00583000Y00565193D01*
Y00562807D01*
X00583913Y00560601D01*
X00585601Y00558913D01*
X00587807Y00558000D01*
X00590193D01*
X00592399Y00558913D01*
X00593000Y00559515D01*
X00593601Y00558913D01*
X00595807Y00558000D01*
X00598194D01*
X00600399Y00558913D01*
X00602087Y00560601D01*
X00603000Y00562807D01*
Y00565193D01*
X00602087Y00567399D01*
X00600399Y00569086D01*
X00598194Y00570000D01*
D02*
G37*
G36*
X00510193Y00576000D02*
X00507807D01*
X00505601Y00575087D01*
X00503913Y00573399D01*
X00503000Y00571194D01*
Y00568806D01*
X00503913Y00566601D01*
X00505601Y00564913D01*
X00507807Y00564000D01*
X00510193D01*
X00512399Y00564913D01*
X00514087Y00566601D01*
X00515000Y00568806D01*
Y00571194D01*
X00514087Y00573399D01*
X00512399Y00575087D01*
X00510193Y00576000D01*
D02*
G37*
G36*
X00137000Y00610612D02*
X00133606Y00610165D01*
X00130444Y00608856D01*
X00127728Y00606772D01*
X00125645Y00604056D01*
X00124335Y00600894D01*
X00123888Y00597500D01*
Y00572500D01*
X00124335Y00569106D01*
X00125645Y00565944D01*
X00127728Y00563228D01*
X00130444Y00561144D01*
X00133606Y00559835D01*
X00137000Y00559388D01*
X00140394Y00559835D01*
X00143556Y00561144D01*
X00146272Y00563228D01*
X00148356Y00565944D01*
X00149665Y00569106D01*
X00150112Y00572500D01*
Y00597500D01*
X00149665Y00600894D01*
X00148356Y00604056D01*
X00146272Y00606772D01*
X00143556Y00608856D01*
X00140394Y00610165D01*
X00137000Y00610612D01*
D02*
G37*
G36*
X00460193Y00583000D02*
X00457807D01*
X00455601Y00582086D01*
X00453913Y00580399D01*
X00453000Y00578194D01*
Y00575807D01*
X00453196Y00575333D01*
X00452601Y00575087D01*
X00450913Y00573399D01*
X00450000Y00571194D01*
Y00568806D01*
X00450913Y00566601D01*
X00452601Y00564913D01*
X00454000Y00564334D01*
Y00562807D01*
X00454913Y00560601D01*
X00456601Y00558913D01*
X00458806Y00558000D01*
X00461194D01*
X00463399Y00558913D01*
X00465087Y00560601D01*
X00466000Y00562807D01*
Y00564748D01*
X00466399Y00564913D01*
X00468087Y00566601D01*
X00469000Y00568806D01*
Y00571194D01*
X00468087Y00573399D01*
X00466399Y00575087D01*
X00464950Y00575686D01*
X00465000Y00575807D01*
Y00578194D01*
X00464086Y00580399D01*
X00462399Y00582086D01*
X00460193Y00583000D01*
D02*
G37*
G36*
X00444192Y00553002D02*
X00441805D01*
X00439600Y00552088D01*
X00437912Y00550400D01*
X00436998Y00548195D01*
Y00547041D01*
X00436193Y00546000D01*
X00433806D01*
X00431601Y00545087D01*
X00430234Y00543719D01*
X00429000Y00544259D01*
Y00546194D01*
X00428087Y00548399D01*
X00426399Y00550087D01*
X00424193Y00551000D01*
X00421806D01*
X00419601Y00550087D01*
X00418723Y00549208D01*
X00417477Y00549456D01*
X00417086Y00550399D01*
X00415399Y00552087D01*
X00413194Y00553000D01*
X00410807D01*
X00408601Y00552087D01*
X00406913Y00550399D01*
X00406000Y00548194D01*
Y00545807D01*
X00406913Y00543601D01*
X00408601Y00541913D01*
X00410807Y00541000D01*
X00413194D01*
X00415399Y00541913D01*
X00416277Y00542792D01*
X00417523Y00542544D01*
X00417913Y00541601D01*
X00419601Y00539913D01*
X00421806Y00539000D01*
X00424193D01*
X00426399Y00539913D01*
X00427766Y00541281D01*
X00429000Y00540741D01*
Y00538806D01*
X00429913Y00536601D01*
X00431601Y00534913D01*
X00433806Y00534000D01*
X00436194D01*
X00438399Y00534913D01*
X00440087Y00536601D01*
X00441000Y00538806D01*
Y00539960D01*
X00441805Y00541002D01*
X00443720D01*
X00444285Y00539770D01*
X00443913Y00539399D01*
X00443000Y00537193D01*
Y00534807D01*
X00443913Y00532601D01*
X00445601Y00530913D01*
X00447807Y00530000D01*
X00450193D01*
X00452399Y00530913D01*
X00453000Y00531515D01*
X00453601Y00530913D01*
X00455807Y00530000D01*
X00458194D01*
X00460399Y00530913D01*
X00462087Y00532601D01*
X00462313Y00533147D01*
X00463687D01*
X00463913Y00532601D01*
X00465601Y00530913D01*
X00467807Y00530000D01*
X00470193D01*
X00472399Y00530913D01*
X00474087Y00532601D01*
X00475000Y00534807D01*
Y00537193D01*
X00474087Y00539399D01*
X00472399Y00541087D01*
X00470193Y00542000D01*
X00470000D01*
Y00544193D01*
X00469087Y00546399D01*
X00467399Y00548087D01*
X00465193Y00549000D01*
X00462807D01*
X00460601Y00548087D01*
X00460173Y00547659D01*
X00458681Y00547963D01*
X00458087Y00549399D01*
X00456399Y00551087D01*
X00454193Y00552000D01*
X00451806D01*
X00449601Y00551087D01*
X00448777Y00550263D01*
X00448085Y00550400D01*
X00446397Y00552088D01*
X00444192Y00553002D01*
D02*
G37*
G36*
X00587193Y00553000D02*
X00584807D01*
X00582601Y00552087D01*
X00580913Y00550399D01*
X00580000Y00548194D01*
Y00545807D01*
X00580913Y00543601D01*
X00582601Y00541913D01*
X00584807Y00541000D01*
X00587193D01*
X00589399Y00541913D01*
X00591087Y00543601D01*
X00592000Y00545807D01*
Y00548194D01*
X00591087Y00550399D01*
X00589399Y00552087D01*
X00587193Y00553000D01*
D02*
G37*
G36*
X00486194Y00550000D02*
X00483806D01*
X00481601Y00549087D01*
X00479913Y00547399D01*
X00479000Y00545193D01*
Y00542807D01*
X00479913Y00540601D01*
X00481601Y00538913D01*
X00483806Y00538000D01*
X00486194D01*
X00488399Y00538913D01*
X00488999Y00539514D01*
X00489600Y00538912D01*
X00491805Y00537999D01*
X00494193D01*
X00496398Y00538912D01*
X00496500Y00539015D01*
X00497601Y00537914D01*
X00499807Y00537000D01*
X00502193D01*
X00504399Y00537914D01*
X00504901Y00538415D01*
X00506002Y00537314D01*
X00508207Y00536401D01*
X00510594D01*
X00512799Y00537314D01*
X00514487Y00539002D01*
X00515401Y00541207D01*
Y00543594D01*
X00514487Y00545799D01*
X00512799Y00547487D01*
X00510594Y00548401D01*
X00508207D01*
X00506002Y00547487D01*
X00505500Y00546985D01*
X00504399Y00548087D01*
X00502193Y00549000D01*
X00499807D01*
X00497601Y00548087D01*
X00497499Y00547984D01*
X00496398Y00549086D01*
X00494193Y00549999D01*
X00491805D01*
X00489600Y00549086D01*
X00489000Y00548485D01*
X00488399Y00549087D01*
X00486194Y00550000D01*
D02*
G37*
G36*
X00533194Y00546000D02*
X00530807D01*
X00528601Y00545087D01*
X00526913Y00543399D01*
X00526000Y00541194D01*
Y00538806D01*
X00526913Y00536601D01*
X00528601Y00534913D01*
X00530807Y00534000D01*
X00533194D01*
X00535399Y00534913D01*
X00537087Y00536601D01*
X00538000Y00538806D01*
Y00541194D01*
X00537087Y00543399D01*
X00535399Y00545087D01*
X00533194Y00546000D01*
D02*
G37*
G36*
X00412193Y00538000D02*
X00409807D01*
X00407601Y00537087D01*
X00405913Y00535399D01*
X00405000Y00533194D01*
Y00530807D01*
X00405913Y00528601D01*
X00407601Y00526913D01*
X00409807Y00526000D01*
X00412193D01*
X00414399Y00526913D01*
X00416087Y00528601D01*
X00417000Y00530807D01*
Y00533194D01*
X00416087Y00535399D01*
X00414399Y00537087D01*
X00412193Y00538000D01*
D02*
G37*
G36*
X00458194Y00525000D02*
X00455807D01*
X00453601Y00524087D01*
X00453000Y00523485D01*
X00452399Y00524087D01*
X00450193Y00525000D01*
X00447807D01*
X00445601Y00524087D01*
X00444000Y00522485D01*
X00442399Y00524087D01*
X00440193Y00525000D01*
X00437807D01*
X00435601Y00524087D01*
X00433913Y00522399D01*
X00433000Y00520193D01*
Y00517807D01*
X00433913Y00515601D01*
X00435601Y00513913D01*
X00437807Y00513000D01*
X00440193D01*
X00442399Y00513913D01*
X00444000Y00515515D01*
X00445601Y00513913D01*
X00447807Y00513000D01*
X00450193D01*
X00452399Y00513913D01*
X00453000Y00514515D01*
X00453601Y00513913D01*
X00455807Y00513000D01*
X00458194D01*
X00460399Y00513913D01*
X00462087Y00515601D01*
X00463000Y00517807D01*
Y00520193D01*
X00462087Y00522399D01*
X00460399Y00524087D01*
X00458194Y00525000D01*
D02*
G37*
G36*
X00499193Y00525000D02*
X00496806D01*
X00494601Y00524087D01*
X00492913Y00522399D01*
X00492000Y00520193D01*
Y00517807D01*
X00492913Y00515601D01*
X00494601Y00513913D01*
X00496806Y00513000D01*
X00499193D01*
X00501399Y00513913D01*
X00503087Y00515601D01*
X00504000Y00517807D01*
Y00520193D01*
X00503087Y00522399D01*
X00501399Y00524087D01*
X00499193Y00525000D01*
D02*
G37*
G36*
X00474193D02*
X00471806D01*
X00469601Y00524087D01*
X00467913Y00522399D01*
X00467000Y00520193D01*
Y00517807D01*
X00467913Y00515601D01*
X00469601Y00513913D01*
X00471806Y00513000D01*
X00474193D01*
X00476399Y00513913D01*
X00478087Y00515601D01*
X00479000Y00517807D01*
Y00520193D01*
X00478087Y00522399D01*
X00476399Y00524087D01*
X00474193Y00525000D01*
D02*
G37*
G36*
X00792597Y00570000D02*
X00787403D01*
X00782272Y00569188D01*
X00777332Y00567582D01*
X00772704Y00565224D01*
X00768502Y00562171D01*
X00764829Y00558498D01*
X00761776Y00554296D01*
X00759418Y00549668D01*
X00757813Y00544728D01*
X00757000Y00539597D01*
Y00534403D01*
X00757813Y00529272D01*
X00759418Y00524333D01*
X00761776Y00519704D01*
X00764829Y00515502D01*
X00768502Y00511829D01*
X00772704Y00508776D01*
X00777332Y00506418D01*
X00782272Y00504813D01*
X00787403Y00504000D01*
X00792597D01*
X00797728Y00504813D01*
X00802668Y00506418D01*
X00807296Y00508776D01*
X00811498Y00511829D01*
X00815171Y00515502D01*
X00818224Y00519704D01*
X00820582Y00524333D01*
X00822187Y00529272D01*
X00823000Y00534403D01*
Y00539597D01*
X00822187Y00544728D01*
X00820582Y00549668D01*
X00818224Y00554296D01*
X00815171Y00558498D01*
X00811498Y00562171D01*
X00807296Y00565224D01*
X00802668Y00567582D01*
X00797728Y00569188D01*
X00792597Y00570000D01*
D02*
G37*
G36*
X00312597D02*
X00307403D01*
X00302272Y00569188D01*
X00297332Y00567582D01*
X00292704Y00565224D01*
X00288502Y00562171D01*
X00284829Y00558498D01*
X00281776Y00554296D01*
X00279418Y00549668D01*
X00277813Y00544728D01*
X00277000Y00539597D01*
Y00534403D01*
X00277813Y00529272D01*
X00279418Y00524333D01*
X00281776Y00519704D01*
X00284829Y00515502D01*
X00288502Y00511829D01*
X00292704Y00508776D01*
X00297332Y00506418D01*
X00302272Y00504813D01*
X00307403Y00504000D01*
X00312597D01*
X00317728Y00504813D01*
X00322668Y00506418D01*
X00327296Y00508776D01*
X00331498Y00511829D01*
X00335171Y00515502D01*
X00338224Y00519704D01*
X00340582Y00524333D01*
X00342187Y00529272D01*
X00343000Y00534403D01*
Y00539597D01*
X00342187Y00544728D01*
X00340582Y00549668D01*
X00338224Y00554296D01*
X00335171Y00558498D01*
X00331498Y00562171D01*
X00327296Y00565224D01*
X00322668Y00567582D01*
X00317728Y00569188D01*
X00312597Y00570000D01*
D02*
G37*
G36*
X00586693Y00515000D02*
X00584306D01*
X00582101Y00514087D01*
X00580413Y00512399D01*
X00579500Y00510193D01*
Y00507807D01*
X00580413Y00505601D01*
X00582101Y00503913D01*
X00584306Y00503000D01*
X00585874D01*
X00586728Y00501744D01*
X00586500Y00501194D01*
Y00498806D01*
X00587413Y00496601D01*
X00589101Y00494913D01*
X00591306Y00494000D01*
X00593694D01*
X00595899Y00494913D01*
X00597587Y00496601D01*
X00598500Y00498806D01*
Y00501194D01*
X00597587Y00503399D01*
X00595899Y00505087D01*
X00593694Y00506000D01*
X00592126D01*
X00591272Y00507256D01*
X00591500Y00507807D01*
Y00510193D01*
X00590587Y00512399D01*
X00588899Y00514087D01*
X00586693Y00515000D01*
D02*
G37*
G36*
X00338194Y00501000D02*
X00335807D01*
X00333601Y00500087D01*
X00331913Y00498399D01*
X00331000Y00496194D01*
Y00493806D01*
X00331913Y00491601D01*
X00333601Y00489913D01*
X00335807Y00489000D01*
X00338194D01*
X00340399Y00489913D01*
X00342087Y00491601D01*
X00343000Y00493806D01*
Y00496194D01*
X00342087Y00498399D01*
X00340399Y00500087D01*
X00338194Y00501000D01*
D02*
G37*
G36*
X00325193Y00492000D02*
X00322807D01*
X00320601Y00491087D01*
X00318913Y00489399D01*
X00318000Y00487193D01*
Y00484807D01*
X00318913Y00482601D01*
X00320601Y00480913D01*
X00322807Y00480000D01*
X00325193D01*
X00327399Y00480913D01*
X00329087Y00482601D01*
X00330000Y00484807D01*
Y00487193D01*
X00329087Y00489399D01*
X00327399Y00491087D01*
X00325193Y00492000D01*
D02*
G37*
G36*
X00583194Y00494000D02*
X00580807D01*
X00578601Y00493087D01*
X00576913Y00491399D01*
X00576000Y00489193D01*
Y00486806D01*
X00576913Y00484601D01*
X00578601Y00482913D01*
X00580807Y00482000D01*
X00583194D01*
X00585399Y00482913D01*
X00586730Y00484245D01*
X00588000Y00483806D01*
X00588913Y00481601D01*
X00590601Y00479913D01*
X00592807Y00479000D01*
X00595193D01*
X00597399Y00479913D01*
X00599087Y00481601D01*
X00600000Y00483806D01*
Y00486194D01*
X00599087Y00488399D01*
X00597399Y00490087D01*
X00595193Y00491000D01*
X00592807D01*
X00590601Y00490087D01*
X00589270Y00488755D01*
X00588000Y00489193D01*
X00587087Y00491399D01*
X00585399Y00493087D01*
X00583194Y00494000D01*
D02*
G37*
G36*
X00342193Y00478000D02*
X00339807D01*
X00337601Y00477086D01*
X00335914Y00475399D01*
X00335000Y00473194D01*
Y00470807D01*
X00335090Y00470589D01*
X00334118Y00469617D01*
X00333194Y00470000D01*
X00330807D01*
X00328601Y00469087D01*
X00326913Y00467399D01*
X00326000Y00465193D01*
Y00462807D01*
X00326913Y00460601D01*
X00328601Y00458913D01*
X00330807Y00458000D01*
X00333194D01*
X00335399Y00458913D01*
X00337086Y00460601D01*
X00338000Y00462807D01*
Y00465193D01*
X00337910Y00465411D01*
X00338882Y00466383D01*
X00339807Y00466000D01*
X00342193D01*
X00344399Y00466913D01*
X00346087Y00468601D01*
X00347000Y00470807D01*
Y00473194D01*
X00346087Y00475399D01*
X00344399Y00477086D01*
X00342193Y00478000D01*
D02*
G37*
G36*
X00053193Y00489000D02*
X00050807D01*
X00048601Y00488087D01*
X00046913Y00486399D01*
X00046000Y00484193D01*
Y00483000D01*
X00044806D01*
X00042601Y00482087D01*
X00040914Y00480399D01*
X00040000Y00478194D01*
Y00477000D01*
X00038807D01*
X00036601Y00476087D01*
X00034913Y00474399D01*
X00034000Y00472193D01*
Y00471000D01*
X00032806D01*
X00030601Y00470087D01*
X00028913Y00468399D01*
X00028000Y00466194D01*
Y00465000D01*
X00026806D01*
X00024601Y00464086D01*
X00022913Y00462399D01*
X00022000Y00460193D01*
Y00457807D01*
X00022913Y00455601D01*
X00024601Y00453913D01*
X00026806Y00453000D01*
X00029193D01*
X00031399Y00453913D01*
X00033087Y00455601D01*
X00034000Y00457807D01*
Y00459000D01*
X00035194D01*
X00037399Y00459913D01*
X00039086Y00461601D01*
X00040000Y00463806D01*
Y00465000D01*
X00041193D01*
X00043399Y00465913D01*
X00045086Y00467601D01*
X00046000Y00469807D01*
Y00471000D01*
X00047193D01*
X00049399Y00471913D01*
X00051087Y00473601D01*
X00052000Y00475807D01*
Y00477000D01*
X00053193D01*
X00055399Y00477914D01*
X00057087Y00479601D01*
X00058000Y00481807D01*
Y00484193D01*
X00057087Y00486399D01*
X00055399Y00488087D01*
X00053193Y00489000D01*
D02*
G37*
G36*
X00169193Y00485000D02*
X00166807D01*
X00164601Y00484087D01*
X00162913Y00482399D01*
X00162000Y00480193D01*
Y00477807D01*
X00162913Y00475601D01*
X00163015Y00475500D01*
X00162913Y00475399D01*
X00162000Y00473194D01*
Y00470807D01*
X00162913Y00468601D01*
X00163015Y00468500D01*
X00162913Y00468399D01*
X00162000Y00466194D01*
Y00463806D01*
X00162913Y00461601D01*
X00163015Y00461500D01*
X00162913Y00461399D01*
X00162000Y00459193D01*
Y00456806D01*
X00162913Y00454601D01*
X00163015Y00454500D01*
X00162913Y00454399D01*
X00162000Y00452193D01*
Y00449807D01*
X00162913Y00447601D01*
X00164601Y00445914D01*
X00166807Y00445000D01*
X00169193D01*
X00171399Y00445914D01*
X00173086Y00447601D01*
X00174000Y00449807D01*
Y00452193D01*
X00173086Y00454399D01*
X00172985Y00454500D01*
X00173086Y00454601D01*
X00174000Y00456806D01*
Y00459193D01*
X00173086Y00461399D01*
X00172985Y00461500D01*
X00173086Y00461601D01*
X00174000Y00463806D01*
Y00466194D01*
X00173086Y00468399D01*
X00172985Y00468500D01*
X00173086Y00468601D01*
X00174000Y00470807D01*
Y00473194D01*
X00173086Y00475399D01*
X00172985Y00475500D01*
X00173086Y00475601D01*
X00174000Y00477807D01*
Y00480193D01*
X00173086Y00482399D01*
X00171399Y00484087D01*
X00169193Y00485000D01*
D02*
G37*
G36*
X00475193Y00436000D02*
X00472807D01*
X00470601Y00435087D01*
X00468913Y00433399D01*
X00468000Y00431194D01*
Y00428806D01*
X00468913Y00426601D01*
X00470601Y00424913D01*
X00472807Y00424000D01*
X00475193D01*
X00477399Y00424913D01*
X00479086Y00426601D01*
X00480000Y00428806D01*
Y00431194D01*
X00479086Y00433399D01*
X00477399Y00435087D01*
X00475193Y00436000D01*
D02*
G37*
G36*
X00438194D02*
X00435807D01*
X00433601Y00435087D01*
X00431913Y00433399D01*
X00431000Y00431194D01*
Y00428806D01*
X00431913Y00426601D01*
X00433601Y00424913D01*
X00435807Y00424000D01*
X00438194D01*
X00440399Y00424913D01*
X00442086Y00426601D01*
X00443000Y00428806D01*
Y00431194D01*
X00442086Y00433399D01*
X00440399Y00435087D01*
X00438194Y00436000D01*
D02*
G37*
G36*
X00786053Y00428500D02*
X00783947D01*
X00781912Y00427955D01*
X00780088Y00426902D01*
X00778598Y00425412D01*
X00777545Y00423588D01*
X00777000Y00421553D01*
Y00419447D01*
X00777545Y00417412D01*
X00778598Y00415588D01*
X00780088Y00414098D01*
X00781912Y00413045D01*
X00783947Y00412500D01*
X00786053D01*
X00788088Y00413045D01*
X00789912Y00414098D01*
X00791402Y00415588D01*
X00792455Y00417412D01*
X00793000Y00419447D01*
Y00421553D01*
X00792455Y00423588D01*
X00791402Y00425412D01*
X00789912Y00426902D01*
X00788088Y00427955D01*
X00786053Y00428500D01*
D02*
G37*
G36*
X00258193Y00406000D02*
X00255807D01*
X00253601Y00405087D01*
X00253000Y00404485D01*
X00252399Y00405087D01*
X00250194Y00406000D01*
X00247806D01*
X00245601Y00405087D01*
X00245000Y00404485D01*
X00244399Y00405087D01*
X00242194Y00406000D01*
X00239806D01*
X00237601Y00405087D01*
X00235913Y00403399D01*
X00235000Y00401194D01*
Y00398806D01*
X00235913Y00396601D01*
X00237601Y00394913D01*
X00239806Y00394000D01*
X00242194D01*
X00244399Y00394913D01*
X00245000Y00395515D01*
X00245601Y00394913D01*
X00247806Y00394000D01*
X00250194D01*
X00252399Y00394913D01*
X00253000Y00395515D01*
X00253601Y00394913D01*
X00255807Y00394000D01*
X00258193D01*
X00260399Y00394913D01*
X00262087Y00396601D01*
X00263000Y00398806D01*
Y00401194D01*
X00262087Y00403399D01*
X00260399Y00405087D01*
X00258193Y00406000D01*
D02*
G37*
G36*
X00210194Y00412000D02*
X00207806D01*
X00205601Y00411087D01*
X00203913Y00409399D01*
X00203000Y00407193D01*
Y00404807D01*
X00203913Y00402601D01*
X00204015Y00402500D01*
X00203913Y00402399D01*
X00203000Y00400193D01*
Y00397807D01*
X00203913Y00395601D01*
X00204015Y00395500D01*
X00203913Y00395399D01*
X00203000Y00393194D01*
Y00390807D01*
X00203913Y00388601D01*
X00205601Y00386913D01*
X00207806Y00386000D01*
X00210194D01*
X00212399Y00386913D01*
X00214086Y00388601D01*
X00215000Y00390807D01*
Y00393194D01*
X00214086Y00395399D01*
X00213985Y00395500D01*
X00214086Y00395601D01*
X00215000Y00397807D01*
Y00400193D01*
X00214086Y00402399D01*
X00213985Y00402500D01*
X00214086Y00402601D01*
X00215000Y00404807D01*
Y00407193D01*
X00214086Y00409399D01*
X00212399Y00411087D01*
X00210194Y00412000D01*
D02*
G37*
G36*
X00575193Y00385000D02*
X00572807D01*
X00570601Y00384087D01*
X00568913Y00382399D01*
X00568000Y00380193D01*
Y00377807D01*
X00568913Y00375601D01*
X00570601Y00373913D01*
X00572807Y00373000D01*
X00573461D01*
X00574000Y00372193D01*
Y00369807D01*
X00574757Y00367979D01*
X00572601Y00367087D01*
X00570913Y00365399D01*
X00570000Y00363194D01*
Y00360807D01*
X00570090Y00360589D01*
X00569118Y00359617D01*
X00568194Y00360000D01*
X00565807D01*
X00563601Y00359087D01*
X00561913Y00357399D01*
X00561000Y00355193D01*
Y00352807D01*
X00561913Y00350601D01*
X00563601Y00348913D01*
X00565807Y00348000D01*
X00568194D01*
X00570399Y00348913D01*
X00572087Y00350601D01*
X00573000Y00352807D01*
Y00355193D01*
X00572910Y00355411D01*
X00573882Y00356383D01*
X00574807Y00356000D01*
X00577193D01*
X00579399Y00356913D01*
X00581087Y00358601D01*
X00582000Y00360807D01*
Y00363194D01*
X00581243Y00365021D01*
X00583399Y00365913D01*
X00585087Y00367601D01*
X00586000Y00369807D01*
Y00372193D01*
X00585087Y00374399D01*
X00583399Y00376087D01*
X00581194Y00377000D01*
X00580539D01*
X00580000Y00377807D01*
Y00380193D01*
X00579086Y00382399D01*
X00577399Y00384087D01*
X00575193Y00385000D01*
D02*
G37*
G36*
X00643194Y00363000D02*
X00640807D01*
X00638601Y00362087D01*
X00636913Y00360399D01*
X00636000Y00358194D01*
Y00356281D01*
X00634766Y00355719D01*
X00634399Y00356087D01*
X00632193Y00357000D01*
X00629807D01*
X00627601Y00356087D01*
X00625914Y00354399D01*
X00625000Y00352193D01*
Y00349807D01*
X00625914Y00347601D01*
X00627601Y00345914D01*
X00629807Y00345000D01*
X00632193D01*
X00634399Y00345914D01*
X00636087Y00347601D01*
X00637000Y00349807D01*
Y00351719D01*
X00638234Y00352281D01*
X00638601Y00351913D01*
X00640807Y00351000D01*
X00643194D01*
X00645399Y00351913D01*
X00647087Y00353601D01*
X00648000Y00355807D01*
Y00358194D01*
X00647087Y00360399D01*
X00645399Y00362087D01*
X00643194Y00363000D01*
D02*
G37*
G36*
X00582193Y00352000D02*
X00579807D01*
X00577601Y00351087D01*
X00575914Y00349399D01*
X00575000Y00347193D01*
Y00344807D01*
X00575914Y00342601D01*
X00577601Y00340913D01*
X00579807Y00340000D01*
X00582193D01*
X00584399Y00340913D01*
X00586087Y00342601D01*
X00587000Y00344807D01*
Y00347193D01*
X00586087Y00349399D01*
X00584399Y00351087D01*
X00582193Y00352000D01*
D02*
G37*
G36*
X00786053Y00348500D02*
X00783947D01*
X00781912Y00347955D01*
X00780088Y00346902D01*
X00778598Y00345412D01*
X00777545Y00343588D01*
X00777000Y00341553D01*
Y00339447D01*
X00777545Y00337412D01*
X00778598Y00335588D01*
X00780088Y00334098D01*
X00781912Y00333045D01*
X00783947Y00332500D01*
X00786053D01*
X00788088Y00333045D01*
X00789912Y00334098D01*
X00791402Y00335588D01*
X00792455Y00337412D01*
X00793000Y00339447D01*
Y00341553D01*
X00792455Y00343588D01*
X00791402Y00345412D01*
X00789912Y00346902D01*
X00788088Y00347955D01*
X00786053Y00348500D01*
D02*
G37*
G36*
X00615193Y00329000D02*
X00612807D01*
X00610601Y00328087D01*
X00610000Y00327485D01*
X00609399Y00328087D01*
X00607193Y00329000D01*
X00604807D01*
X00602601Y00328087D01*
X00600914Y00326399D01*
X00600000Y00324193D01*
Y00321806D01*
X00600914Y00319601D01*
X00602601Y00317913D01*
X00604807Y00317000D01*
X00607193D01*
X00609399Y00317913D01*
X00610000Y00318515D01*
X00610601Y00317913D01*
X00612807Y00317000D01*
X00615193D01*
X00617399Y00317913D01*
X00619086Y00319601D01*
X00620000Y00321806D01*
Y00324193D01*
X00619086Y00326399D01*
X00617399Y00328087D01*
X00615193Y00329000D01*
D02*
G37*
G36*
X00684193Y00291000D02*
X00681806D01*
X00679601Y00290086D01*
X00677914Y00288399D01*
X00677000Y00286194D01*
Y00283806D01*
X00677636Y00282270D01*
X00676855Y00281000D01*
X00675807D01*
X00673601Y00280087D01*
X00671913Y00278399D01*
X00671000Y00276194D01*
Y00273806D01*
X00671913Y00271601D01*
X00673601Y00269914D01*
X00675807Y00269000D01*
X00678194D01*
X00680399Y00269914D01*
X00682086Y00271601D01*
X00683000Y00273806D01*
Y00276194D01*
X00682364Y00277730D01*
X00683145Y00279000D01*
X00684193D01*
X00686399Y00279913D01*
X00688087Y00281601D01*
X00689000Y00283806D01*
Y00286194D01*
X00688087Y00288399D01*
X00686399Y00290086D01*
X00684193Y00291000D01*
D02*
G37*
G36*
X00268214Y00258520D02*
X00265826D01*
X00263621Y00257607D01*
X00261933Y00255919D01*
X00261020Y00253713D01*
Y00251327D01*
X00261933Y00249121D01*
X00263621Y00247433D01*
X00265826Y00246520D01*
X00268214D01*
X00270419Y00247433D01*
X00272107Y00249121D01*
X00273020Y00251327D01*
Y00253713D01*
X00272107Y00255919D01*
X00270419Y00257607D01*
X00268214Y00258520D01*
D02*
G37*
G36*
X00619193Y00248000D02*
X00616806D01*
X00614601Y00247087D01*
X00612914Y00245399D01*
X00612000Y00243193D01*
Y00240807D01*
X00612914Y00238601D01*
X00614601Y00236913D01*
X00616806Y00236000D01*
X00619193D01*
X00621399Y00236913D01*
X00623087Y00238601D01*
X00624000Y00240807D01*
Y00243193D01*
X00623087Y00245399D01*
X00621399Y00247087D01*
X00619193Y00248000D01*
D02*
G37*
G36*
X00270984Y00241491D02*
X00268596D01*
X00266391Y00240578D01*
X00264704Y00238890D01*
X00263790Y00236684D01*
Y00234298D01*
X00264704Y00232092D01*
X00266391Y00230404D01*
X00268596Y00229491D01*
X00270984D01*
X00273189Y00230404D01*
X00274877Y00232092D01*
X00275790Y00234298D01*
Y00236684D01*
X00274877Y00238890D01*
X00273189Y00240578D01*
X00270984Y00241491D01*
D02*
G37*
G36*
X00610193Y00210000D02*
X00607807D01*
X00605601Y00209087D01*
X00605250Y00208735D01*
X00604899Y00209087D01*
X00602693Y00210000D01*
X00600307D01*
X00598101Y00209087D01*
X00596413Y00207399D01*
X00595500Y00205194D01*
Y00202807D01*
X00596413Y00200601D01*
X00598101Y00198913D01*
X00600307Y00198000D01*
X00602693D01*
X00604899Y00198913D01*
X00605250Y00199265D01*
X00605601Y00198913D01*
X00607807Y00198000D01*
X00610193D01*
X00612399Y00198913D01*
X00614087Y00200601D01*
X00615000Y00202807D01*
Y00205194D01*
X00614087Y00207399D01*
X00612399Y00209087D01*
X00610193Y00210000D01*
D02*
G37*
G36*
X00586194D02*
X00583806D01*
X00581601Y00209087D01*
X00581250Y00208735D01*
X00580899Y00209087D01*
X00578694Y00210000D01*
X00576306D01*
X00574101Y00209087D01*
X00572413Y00207399D01*
X00571500Y00205194D01*
Y00202807D01*
X00572413Y00200601D01*
X00574101Y00198913D01*
X00576306Y00198000D01*
X00578694D01*
X00580899Y00198913D01*
X00581250Y00199265D01*
X00581601Y00198913D01*
X00583806Y00198000D01*
X00586194D01*
X00588399Y00198913D01*
X00590087Y00200601D01*
X00591000Y00202807D01*
Y00205194D01*
X00590087Y00207399D01*
X00588399Y00209087D01*
X00586194Y00210000D01*
D02*
G37*
G36*
X00838194Y00188000D02*
X00835807D01*
X00833601Y00187087D01*
X00832500Y00185985D01*
X00831399Y00187087D01*
X00829193Y00188000D01*
X00826806D01*
X00824601Y00187087D01*
X00822913Y00185399D01*
X00822000Y00183193D01*
Y00180807D01*
X00822913Y00178601D01*
X00824601Y00176913D01*
X00826806Y00176000D01*
X00829193D01*
X00831399Y00176913D01*
X00832500Y00178015D01*
X00833601Y00176913D01*
X00835807Y00176000D01*
X00838194D01*
X00840399Y00176913D01*
X00842087Y00178601D01*
X00843000Y00180807D01*
Y00183193D01*
X00842087Y00185399D01*
X00840399Y00187087D01*
X00838194Y00188000D01*
D02*
G37*
G36*
X00163711Y00208000D02*
X00160289D01*
X00156982Y00207114D01*
X00154018Y00205403D01*
X00151597Y00202982D01*
X00149886Y00200018D01*
X00149000Y00196712D01*
Y00193288D01*
X00149886Y00189982D01*
X00151597Y00187018D01*
X00154018Y00184597D01*
X00156982Y00182886D01*
X00160289Y00182000D01*
X00163711D01*
X00167018Y00182886D01*
X00169982Y00184597D01*
X00172403Y00187018D01*
X00174114Y00189982D01*
X00175000Y00193288D01*
Y00196712D01*
X00174114Y00200018D01*
X00172403Y00202982D01*
X00169982Y00205403D01*
X00167018Y00207114D01*
X00163711Y00208000D01*
D02*
G37*
G36*
X00133712D02*
X00130288D01*
X00126982Y00207114D01*
X00124018Y00205403D01*
X00121597Y00202982D01*
X00119886Y00200018D01*
X00119000Y00196712D01*
Y00193288D01*
X00119886Y00189982D01*
X00121597Y00187018D01*
X00124018Y00184597D01*
X00126982Y00182886D01*
X00130288Y00182000D01*
X00133712D01*
X00137018Y00182886D01*
X00139982Y00184597D01*
X00142403Y00187018D01*
X00144114Y00189982D01*
X00145000Y00193288D01*
Y00196712D01*
X00144114Y00200018D01*
X00142403Y00202982D01*
X00139982Y00205403D01*
X00137018Y00207114D01*
X00133712Y00208000D01*
D02*
G37*
G36*
X00103712D02*
X00100288D01*
X00096982Y00207114D01*
X00094018Y00205403D01*
X00091597Y00202982D01*
X00089886Y00200018D01*
X00089000Y00196712D01*
Y00193288D01*
X00089886Y00189982D01*
X00091597Y00187018D01*
X00094018Y00184597D01*
X00096982Y00182886D01*
X00100288Y00182000D01*
X00103712D01*
X00107018Y00182886D01*
X00109982Y00184597D01*
X00112403Y00187018D01*
X00114114Y00189982D01*
X00115000Y00193288D01*
Y00196712D01*
X00114114Y00200018D01*
X00112403Y00202982D01*
X00109982Y00205403D01*
X00107018Y00207114D01*
X00103712Y00208000D01*
D02*
G37*
G36*
X00193465Y00207783D02*
X00190042D01*
X00186736Y00206897D01*
X00183771Y00205185D01*
X00181351Y00202765D01*
X00179640Y00199800D01*
X00178754Y00196494D01*
Y00193071D01*
X00179640Y00189765D01*
X00181351Y00186800D01*
X00183771Y00184380D01*
X00186736Y00182669D01*
X00190042Y00181783D01*
X00193465D01*
X00196772Y00182669D01*
X00199736Y00184380D01*
X00202156Y00186800D01*
X00203868Y00189765D01*
X00204754Y00193071D01*
Y00196494D01*
X00203868Y00199800D01*
X00202156Y00202765D01*
X00199736Y00205185D01*
X00196772Y00206897D01*
X00193465Y00207783D01*
D02*
G37*
G36*
X00597693Y00178400D02*
X00595307D01*
X00593101Y00177487D01*
X00592750Y00177135D01*
X00592399Y00177487D01*
X00590193Y00178400D01*
X00587806D01*
X00585601Y00177487D01*
X00583913Y00175799D01*
X00583000Y00173594D01*
Y00171207D01*
X00583913Y00169001D01*
X00585601Y00167313D01*
X00587806Y00166400D01*
X00590193D01*
X00592399Y00167313D01*
X00592750Y00167665D01*
X00593101Y00167314D01*
X00595307Y00166400D01*
X00597693D01*
X00599899Y00167314D01*
X00601586Y00169001D01*
X00602500Y00171207D01*
Y00173594D01*
X00601586Y00175799D01*
X00599899Y00177487D01*
X00597693Y00178400D01*
D02*
G37*
G36*
X00792597Y00240000D02*
X00787403D01*
X00782272Y00239188D01*
X00777332Y00237582D01*
X00772704Y00235224D01*
X00768502Y00232171D01*
X00764829Y00228498D01*
X00761776Y00224296D01*
X00759418Y00219668D01*
X00757813Y00214728D01*
X00757000Y00209597D01*
Y00204403D01*
X00757813Y00199272D01*
X00759418Y00194333D01*
X00761776Y00189704D01*
X00764829Y00185502D01*
X00768502Y00181829D01*
X00772704Y00178776D01*
X00777332Y00176418D01*
X00782272Y00174813D01*
X00787403Y00174000D01*
X00792597D01*
X00797728Y00174813D01*
X00802668Y00176418D01*
X00807296Y00178776D01*
X00811498Y00181829D01*
X00815171Y00185502D01*
X00818224Y00189704D01*
X00820582Y00194333D01*
X00822187Y00199272D01*
X00823000Y00204403D01*
Y00209597D01*
X00822187Y00214728D01*
X00820582Y00219668D01*
X00818224Y00224296D01*
X00815171Y00228498D01*
X00811498Y00232171D01*
X00807296Y00235224D01*
X00802668Y00237582D01*
X00797728Y00239188D01*
X00792597Y00240000D01*
D02*
G37*
G36*
X00312597D02*
X00307403D01*
X00302272Y00239188D01*
X00297332Y00237582D01*
X00292704Y00235224D01*
X00288502Y00232171D01*
X00284829Y00228498D01*
X00281776Y00224296D01*
X00279418Y00219668D01*
X00277813Y00214728D01*
X00277000Y00209597D01*
Y00204403D01*
X00277813Y00199272D01*
X00279418Y00194333D01*
X00281776Y00189704D01*
X00284829Y00185502D01*
X00288502Y00181829D01*
X00292704Y00178776D01*
X00297332Y00176418D01*
X00302272Y00174813D01*
X00307403Y00174000D01*
X00312597D01*
X00317728Y00174813D01*
X00322668Y00176418D01*
X00327296Y00178776D01*
X00331498Y00181829D01*
X00335171Y00185502D01*
X00338224Y00189704D01*
X00340582Y00194333D01*
X00342187Y00199272D01*
X00343000Y00204403D01*
Y00209597D01*
X00342187Y00214728D01*
X00340582Y00219668D01*
X00338224Y00224296D01*
X00335171Y00228498D01*
X00331498Y00232171D01*
X00327296Y00235224D01*
X00322668Y00237582D01*
X00317728Y00239188D01*
X00312597Y00240000D01*
D02*
G37*
G36*
X00624193Y00183000D02*
X00621806D01*
X00619601Y00182087D01*
X00617913Y00180399D01*
X00617000Y00178193D01*
Y00175807D01*
X00617913Y00173601D01*
X00619601Y00171913D01*
X00621806Y00171000D01*
X00624193D01*
X00626399Y00171913D01*
X00628087Y00173601D01*
X00629000Y00175807D01*
Y00178193D01*
X00628087Y00180399D01*
X00626399Y00182087D01*
X00624193Y00183000D01*
D02*
G37*
G36*
X00809356Y00145900D02*
X00805933D01*
X00802627Y00145014D01*
X00799663Y00143303D01*
X00797242Y00140882D01*
X00795628Y00138087D01*
X00794945Y00137996D01*
X00794261Y00138087D01*
X00792647Y00140882D01*
X00790227Y00143303D01*
X00787263Y00145014D01*
X00783956Y00145900D01*
X00780533D01*
X00777227Y00145014D01*
X00774263Y00143303D01*
X00771842Y00140882D01*
X00770131Y00137918D01*
X00769245Y00134612D01*
Y00131188D01*
X00770131Y00127882D01*
X00771842Y00124918D01*
X00774263Y00122497D01*
X00775523Y00121770D01*
X00775182Y00120500D01*
X00769245D01*
Y00094500D01*
X00795245D01*
Y00100437D01*
X00796515Y00100778D01*
X00797242Y00099518D01*
X00799663Y00097097D01*
X00802627Y00095386D01*
X00805933Y00094500D01*
X00809356D01*
X00812663Y00095386D01*
X00815627Y00097097D01*
X00818047Y00099518D01*
X00819759Y00102482D01*
X00820645Y00105788D01*
Y00109212D01*
X00819759Y00112518D01*
X00818047Y00115482D01*
X00815627Y00117903D01*
X00812832Y00119516D01*
X00812741Y00120200D01*
X00812832Y00120884D01*
X00815627Y00122497D01*
X00818047Y00124918D01*
X00819759Y00127882D01*
X00820645Y00131188D01*
Y00134612D01*
X00819759Y00137918D01*
X00818047Y00140882D01*
X00815627Y00143303D01*
X00812663Y00145014D01*
X00809356Y00145900D01*
D02*
G37*
G36*
X00686398Y00139720D02*
X00683602D01*
X00680901Y00138996D01*
X00678479Y00137598D01*
X00676502Y00135621D01*
X00675733Y00134290D01*
X00674267D01*
X00673498Y00135621D01*
X00671521Y00137598D01*
X00669099Y00138996D01*
X00666398Y00139720D01*
X00663602D01*
X00660901Y00138996D01*
X00658479Y00137598D01*
X00656502Y00135621D01*
X00655104Y00133199D01*
X00654380Y00130498D01*
Y00127702D01*
X00655104Y00125001D01*
X00656502Y00122579D01*
X00658479Y00120602D01*
X00660901Y00119204D01*
X00663602Y00118480D01*
X00666398D01*
X00669099Y00119204D01*
X00671521Y00120602D01*
X00673498Y00122579D01*
X00674267Y00123911D01*
X00675733D01*
X00676502Y00122579D01*
X00678479Y00120602D01*
X00680901Y00119204D01*
X00683602Y00118480D01*
X00686398D01*
X00689099Y00119204D01*
X00691521Y00120602D01*
X00693498Y00122579D01*
X00694896Y00125001D01*
X00695620Y00127702D01*
Y00130498D01*
X00694896Y00133199D01*
X00693498Y00135621D01*
X00691521Y00137598D01*
X00689099Y00138996D01*
X00686398Y00139720D01*
D02*
G37*
G36*
X00317194Y00146000D02*
X00314806D01*
X00312601Y00145087D01*
X00310913Y00143399D01*
X00310000Y00141194D01*
Y00138806D01*
X00310913Y00136601D01*
X00312601Y00134913D01*
X00314806Y00134000D01*
X00317194D01*
X00319399Y00134913D01*
X00321087Y00136601D01*
X00322000Y00138806D01*
Y00141194D01*
X00321087Y00143399D01*
X00319399Y00145087D01*
X00317194Y00146000D01*
D02*
G37*
G36*
X00222982Y00154200D02*
X00220218D01*
X00217547Y00153484D01*
X00215153Y00152102D01*
X00213198Y00150147D01*
X00211816Y00147753D01*
X00211100Y00145082D01*
Y00142318D01*
X00211816Y00139647D01*
X00213198Y00137253D01*
X00215153Y00135298D01*
X00217547Y00133916D01*
X00220218Y00133200D01*
X00222982D01*
X00225653Y00133916D01*
X00228047Y00135298D01*
X00230002Y00137253D01*
X00231384Y00139647D01*
X00232100Y00142318D01*
Y00145082D01*
X00231384Y00147753D01*
X00230002Y00150147D01*
X00228047Y00152102D01*
X00225653Y00153484D01*
X00222982Y00154200D01*
D02*
G37*
G36*
X00200082D02*
X00197318D01*
X00194647Y00153484D01*
X00192253Y00152102D01*
X00190298Y00150147D01*
X00188916Y00147753D01*
X00188200Y00145082D01*
Y00142318D01*
X00188916Y00139647D01*
X00190298Y00137253D01*
X00192253Y00135298D01*
X00194647Y00133916D01*
X00197318Y00133200D01*
X00200082D01*
X00202753Y00133916D01*
X00205147Y00135298D01*
X00207102Y00137253D01*
X00208484Y00139647D01*
X00209200Y00142318D01*
Y00145082D01*
X00208484Y00147753D01*
X00207102Y00150147D01*
X00205147Y00152102D01*
X00202753Y00153484D01*
X00200082Y00154200D01*
D02*
G37*
G36*
X00108682D02*
X00105918D01*
X00103247Y00153484D01*
X00100853Y00152102D01*
X00098898Y00150147D01*
X00097516Y00147753D01*
X00096800Y00145082D01*
Y00142318D01*
X00097516Y00139647D01*
X00098898Y00137253D01*
X00100853Y00135298D01*
X00103247Y00133916D01*
X00105918Y00133200D01*
X00108682D01*
X00111353Y00133916D01*
X00113747Y00135298D01*
X00115702Y00137253D01*
X00117084Y00139647D01*
X00117800Y00142318D01*
Y00145082D01*
X00117084Y00147753D01*
X00115702Y00150147D01*
X00113747Y00152102D01*
X00111353Y00153484D01*
X00108682Y00154200D01*
D02*
G37*
G36*
X00085782D02*
X00083018D01*
X00080347Y00153484D01*
X00077953Y00152102D01*
X00075998Y00150147D01*
X00074616Y00147753D01*
X00073900Y00145082D01*
Y00142318D01*
X00074616Y00139647D01*
X00075998Y00137253D01*
X00077953Y00135298D01*
X00080347Y00133916D01*
X00083018Y00133200D01*
X00085782D01*
X00088453Y00133916D01*
X00090847Y00135298D01*
X00092802Y00137253D01*
X00094184Y00139647D01*
X00094900Y00142318D01*
Y00145082D01*
X00094184Y00147753D01*
X00092802Y00150147D01*
X00090847Y00152102D01*
X00088453Y00153484D01*
X00085782Y00154200D01*
D02*
G37*
G36*
X00550193Y00143000D02*
X00547807D01*
X00545601Y00142087D01*
X00543913Y00140399D01*
X00543000Y00138194D01*
Y00135807D01*
X00543913Y00133601D01*
X00545601Y00131913D01*
X00547807Y00131000D01*
X00550193D01*
X00552399Y00131913D01*
X00554086Y00133601D01*
X00555000Y00135807D01*
Y00138194D01*
X00554086Y00140399D01*
X00552399Y00142087D01*
X00550193Y00143000D01*
D02*
G37*
G36*
X00641398Y00139720D02*
X00638602D01*
X00635901Y00138996D01*
X00633479Y00137598D01*
X00631502Y00135621D01*
X00630104Y00133199D01*
X00629380Y00130498D01*
Y00127702D01*
X00630104Y00125001D01*
X00631502Y00122579D01*
X00633479Y00120602D01*
X00635901Y00119204D01*
X00638602Y00118480D01*
X00641398D01*
X00644099Y00119204D01*
X00646521Y00120602D01*
X00648498Y00122579D01*
X00649896Y00125001D01*
X00650620Y00127702D01*
Y00130498D01*
X00649896Y00133199D01*
X00648498Y00135621D01*
X00646521Y00137598D01*
X00644099Y00138996D01*
X00641398Y00139720D01*
D02*
G37*
G36*
X00180174Y00112700D02*
X00176826D01*
X00173541Y00112047D01*
X00170448Y00110765D01*
X00168300Y00109330D01*
X00166152Y00110765D01*
X00163059Y00112047D01*
X00159774Y00112700D01*
X00156426D01*
X00153141Y00112047D01*
X00150048Y00110765D01*
X00147900Y00109330D01*
X00145752Y00110765D01*
X00142659Y00112047D01*
X00139374Y00112700D01*
X00136026D01*
X00132741Y00112047D01*
X00129648Y00110765D01*
X00127500Y00109330D01*
X00125352Y00110765D01*
X00122259Y00112047D01*
X00118974Y00112700D01*
X00115626D01*
X00112341Y00112047D01*
X00109248Y00110765D01*
X00106463Y00108905D01*
X00104095Y00106537D01*
X00102235Y00103752D01*
X00100953Y00100659D01*
X00100300Y00097374D01*
Y00094026D01*
X00100953Y00090741D01*
X00102235Y00087647D01*
X00104095Y00084863D01*
X00106463Y00082495D01*
X00109248Y00080635D01*
X00110600Y00080075D01*
X00110500Y00079574D01*
Y00076226D01*
X00111153Y00072941D01*
X00112435Y00069847D01*
X00114295Y00067063D01*
X00116663Y00064695D01*
X00119447Y00062835D01*
X00122541Y00061553D01*
X00125826Y00060900D01*
X00129174D01*
X00132459Y00061553D01*
X00135553Y00062835D01*
X00137700Y00064270D01*
X00139847Y00062835D01*
X00142941Y00061553D01*
X00146226Y00060900D01*
X00149574D01*
X00152859Y00061553D01*
X00155953Y00062835D01*
X00158100Y00064270D01*
X00160247Y00062835D01*
X00163341Y00061553D01*
X00166626Y00060900D01*
X00169974D01*
X00173259Y00061553D01*
X00176353Y00062835D01*
X00178500Y00064270D01*
X00180648Y00062835D01*
X00183741Y00061553D01*
X00187026Y00060900D01*
X00190374D01*
X00193659Y00061553D01*
X00196752Y00062835D01*
X00199537Y00064695D01*
X00201905Y00067063D01*
X00203765Y00069847D01*
X00205047Y00072941D01*
X00205700Y00076226D01*
Y00079574D01*
X00205047Y00082859D01*
X00203765Y00085953D01*
X00201905Y00088737D01*
X00199537Y00091105D01*
X00196752Y00092965D01*
X00195401Y00093525D01*
X00195500Y00094026D01*
Y00097374D01*
X00194847Y00100659D01*
X00193565Y00103752D01*
X00191705Y00106537D01*
X00189337Y00108905D01*
X00186553Y00110765D01*
X00183459Y00112047D01*
X00180174Y00112700D01*
D02*
G37*
G36*
X00546194Y00054000D02*
X00543806D01*
X00541601Y00053087D01*
X00539913Y00051399D01*
X00539000Y00049194D01*
Y00046807D01*
X00539913Y00044601D01*
X00541601Y00042913D01*
X00543806Y00042000D01*
X00546194D01*
X00548399Y00042913D01*
X00550087Y00044601D01*
X00551000Y00046807D01*
Y00049194D01*
X00550087Y00051399D01*
X00548399Y00053087D01*
X00546194Y00054000D01*
D02*
G37*
G36*
X00506194D02*
X00503806D01*
X00501601Y00053087D01*
X00499913Y00051399D01*
X00499000Y00049194D01*
Y00046807D01*
X00499913Y00044601D01*
X00501601Y00042913D01*
X00503806Y00042000D01*
X00506194D01*
X00508399Y00042913D01*
X00510087Y00044601D01*
X00511000Y00046807D01*
Y00049194D01*
X00510087Y00051399D01*
X00508399Y00053087D01*
X00506194Y00054000D01*
D02*
G37*
G36*
X00218371Y00071500D02*
X00214629D01*
X00210958Y00070770D01*
X00207500Y00069338D01*
X00204388Y00067258D01*
X00201742Y00064612D01*
X00199662Y00061500D01*
X00198230Y00058042D01*
X00197500Y00054371D01*
Y00050629D01*
X00198230Y00046958D01*
X00199662Y00043500D01*
X00201742Y00040388D01*
X00204388Y00037742D01*
X00207500Y00035662D01*
X00210958Y00034230D01*
X00214629Y00033500D01*
X00218371D01*
X00222042Y00034230D01*
X00225500Y00035662D01*
X00228612Y00037742D01*
X00231258Y00040388D01*
X00233338Y00043500D01*
X00234770Y00046958D01*
X00235500Y00050629D01*
Y00054371D01*
X00234770Y00058042D01*
X00233338Y00061500D01*
X00231258Y00064612D01*
X00228612Y00067258D01*
X00225500Y00069338D01*
X00222042Y00070770D01*
X00218371Y00071500D01*
D02*
G37*
G36*
X00091371D02*
X00087629D01*
X00083958Y00070770D01*
X00080500Y00069338D01*
X00077388Y00067258D01*
X00074742Y00064612D01*
X00072662Y00061500D01*
X00071230Y00058042D01*
X00070500Y00054371D01*
Y00050629D01*
X00071230Y00046958D01*
X00072662Y00043500D01*
X00074742Y00040388D01*
X00077388Y00037742D01*
X00080500Y00035662D01*
X00083958Y00034230D01*
X00087629Y00033500D01*
X00091371D01*
X00095042Y00034230D01*
X00098500Y00035662D01*
X00101612Y00037742D01*
X00104258Y00040388D01*
X00106338Y00043500D01*
X00107770Y00046958D01*
X00108500Y00050629D01*
Y00054371D01*
X00107770Y00058042D01*
X00106338Y00061500D01*
X00104258Y00064612D01*
X00101612Y00067258D01*
X00098500Y00069338D01*
X00095042Y00070770D01*
X00091371Y00071500D01*
D02*
G37*
%LPD*%
D116*
X00553250Y00025000D02*
D03*
X00496750D02*
D03*
D117*
X00442500Y00101800D02*
D03*
X00297500D02*
D03*
D118*
X00297500Y00042200D02*
D03*
X00442500D02*
D03*
D121*
X00235000Y00088100D02*
D03*
X00071000D02*
D03*
D126*
X00077000Y00585000D02*
D03*
D128*
X00107000Y00538000D02*
D03*
D129*
X00740700Y00102000D02*
D03*
X00609300D02*
D03*
D130*
X00710000Y00129100D02*
D03*
D131*
X00184950Y00513950D02*
D03*
X00169000Y00616000D02*
D03*
X00180000Y00502000D02*
D03*
X00657000Y00157000D02*
D03*
X00718000Y00747000D02*
D03*
Y00757000D02*
D03*
X00552500Y00005000D02*
D03*
X00562500D02*
D03*
X00572500D02*
D03*
X00455000Y00198000D02*
D03*
X00515000D02*
D03*
X00509000Y00148000D02*
D03*
X00527000Y00177000D02*
D03*
X00625000Y00325000D02*
D03*
X00642000Y00326000D02*
D03*
X00644000Y00307000D02*
D03*
X00456000Y00145000D02*
D03*
X00549000Y00128000D02*
D03*
X00354000Y00130000D02*
D03*
X00365000Y00092000D02*
D03*
X00298750Y00157750D02*
D03*
X00325250D02*
D03*
X00335000Y00092000D02*
D03*
X00437500Y00205000D02*
D03*
X00433000Y00155000D02*
D03*
X00397750Y00157750D02*
D03*
X00374250D02*
D03*
X00347750D02*
D03*
X00380000Y00092000D02*
D03*
X00395000D02*
D03*
X00410000D02*
D03*
X00495000Y00152000D02*
D03*
X00529000Y00102000D02*
D03*
X00620000Y00200000D02*
D03*
X00542000Y00071000D02*
D03*
X00492000Y00070000D02*
D03*
X00693000Y00157000D02*
D03*
X00660000Y00396000D02*
D03*
X00602000Y00388000D02*
D03*
X00660000Y00435000D02*
D03*
X00659000Y00415000D02*
D03*
X00007664Y00813394D02*
D03*
X00015251Y00824749D02*
D03*
X00026606Y00832336D02*
D03*
X00842336Y00813394D02*
D03*
X00834749Y00824749D02*
D03*
X00823394Y00832336D02*
D03*
X00842336Y00026606D02*
D03*
X00834749Y00015251D02*
D03*
X00823394Y00007664D02*
D03*
X00026606D02*
D03*
X00015251Y00015251D02*
D03*
X00007664Y00026606D02*
D03*
X00042500Y00005000D02*
D03*
X00052500D02*
D03*
X00062500D02*
D03*
X00072500D02*
D03*
X00082500D02*
D03*
X00132500D02*
D03*
X00122500D02*
D03*
X00112500D02*
D03*
X00102500D02*
D03*
X00092500D02*
D03*
X00182500D02*
D03*
X00172500D02*
D03*
X00162500D02*
D03*
X00152500D02*
D03*
X00142500D02*
D03*
X00292500D02*
D03*
X00302500D02*
D03*
X00312500D02*
D03*
X00322500D02*
D03*
X00332500D02*
D03*
X00242500D02*
D03*
X00252500D02*
D03*
X00262500D02*
D03*
X00272500D02*
D03*
X00282500D02*
D03*
X00232500D02*
D03*
X00222500D02*
D03*
X00212500D02*
D03*
X00202500D02*
D03*
X00192500D02*
D03*
X00442500D02*
D03*
X00452500D02*
D03*
X00462500D02*
D03*
X00472500D02*
D03*
X00482500D02*
D03*
X00392500D02*
D03*
X00402500D02*
D03*
X00412500D02*
D03*
X00422500D02*
D03*
X00432500D02*
D03*
X00382500D02*
D03*
X00372500D02*
D03*
X00362500D02*
D03*
X00352500D02*
D03*
X00342500D02*
D03*
X00622500D02*
D03*
X00632500D02*
D03*
X00642500D02*
D03*
X00652500D02*
D03*
X00662500D02*
D03*
X00542500D02*
D03*
X00582500D02*
D03*
X00592500D02*
D03*
X00602500D02*
D03*
X00612500D02*
D03*
X00532500D02*
D03*
X00522500D02*
D03*
X00512500D02*
D03*
X00502500D02*
D03*
X00492500D02*
D03*
X00742500D02*
D03*
X00762500D02*
D03*
X00772500D02*
D03*
X00782500D02*
D03*
X00722500D02*
D03*
X00732500D02*
D03*
X00752500D02*
D03*
X00712500D02*
D03*
X00702500D02*
D03*
X00692500D02*
D03*
X00682500D02*
D03*
X00672500D02*
D03*
X00812500D02*
D03*
X00802500D02*
D03*
X00792500D02*
D03*
X00005000Y00040000D02*
D03*
Y00800000D02*
D03*
X00845000Y00790000D02*
D03*
Y00640000D02*
D03*
Y00650000D02*
D03*
Y00660000D02*
D03*
Y00670000D02*
D03*
Y00680000D02*
D03*
Y00730000D02*
D03*
Y00720000D02*
D03*
Y00710000D02*
D03*
Y00700000D02*
D03*
Y00690000D02*
D03*
Y00780000D02*
D03*
Y00770000D02*
D03*
Y00760000D02*
D03*
Y00750000D02*
D03*
Y00740000D02*
D03*
Y00490000D02*
D03*
Y00500000D02*
D03*
Y00510000D02*
D03*
Y00520000D02*
D03*
Y00530000D02*
D03*
Y00580000D02*
D03*
Y00570000D02*
D03*
Y00560000D02*
D03*
Y00550000D02*
D03*
Y00540000D02*
D03*
Y00630000D02*
D03*
Y00620000D02*
D03*
Y00610000D02*
D03*
Y00600000D02*
D03*
Y00590000D02*
D03*
Y00340000D02*
D03*
Y00350000D02*
D03*
Y00360000D02*
D03*
Y00370000D02*
D03*
Y00380000D02*
D03*
Y00430000D02*
D03*
Y00420000D02*
D03*
Y00410000D02*
D03*
Y00400000D02*
D03*
Y00390000D02*
D03*
Y00480000D02*
D03*
Y00470000D02*
D03*
Y00460000D02*
D03*
Y00450000D02*
D03*
Y00440000D02*
D03*
Y00190000D02*
D03*
Y00200000D02*
D03*
Y00210000D02*
D03*
Y00220000D02*
D03*
Y00230000D02*
D03*
Y00280000D02*
D03*
Y00270000D02*
D03*
Y00260000D02*
D03*
Y00250000D02*
D03*
Y00240000D02*
D03*
Y00330000D02*
D03*
Y00320000D02*
D03*
Y00310000D02*
D03*
Y00300000D02*
D03*
Y00290000D02*
D03*
Y00040000D02*
D03*
Y00050000D02*
D03*
Y00060000D02*
D03*
Y00070000D02*
D03*
Y00080000D02*
D03*
Y00130000D02*
D03*
Y00120000D02*
D03*
Y00110000D02*
D03*
Y00100000D02*
D03*
Y00090000D02*
D03*
Y00180000D02*
D03*
Y00170000D02*
D03*
Y00160000D02*
D03*
Y00150000D02*
D03*
Y00140000D02*
D03*
X00792500Y00835000D02*
D03*
X00802500Y00835000D02*
D03*
X00812500Y00835000D02*
D03*
X00642500D02*
D03*
X00652500D02*
D03*
X00662500Y00835000D02*
D03*
X00672500D02*
D03*
X00682500Y00835000D02*
D03*
X00732500D02*
D03*
X00722500D02*
D03*
X00712500D02*
D03*
X00702500D02*
D03*
X00692500D02*
D03*
X00782500D02*
D03*
X00772500Y00835000D02*
D03*
X00762500D02*
D03*
X00752500Y00835000D02*
D03*
X00742500D02*
D03*
X00492500D02*
D03*
X00502500D02*
D03*
X00512500D02*
D03*
X00522500D02*
D03*
X00532500Y00835000D02*
D03*
X00582500Y00835000D02*
D03*
X00572500D02*
D03*
X00562500Y00835000D02*
D03*
X00552500Y00835000D02*
D03*
X00542500D02*
D03*
X00632500Y00835000D02*
D03*
X00622500Y00835000D02*
D03*
X00612500D02*
D03*
X00602500D02*
D03*
X00592500D02*
D03*
X00342500D02*
D03*
X00352500D02*
D03*
X00362500D02*
D03*
X00372500D02*
D03*
X00382500D02*
D03*
X00432500Y00835000D02*
D03*
X00422500Y00835000D02*
D03*
X00412500D02*
D03*
X00402500D02*
D03*
X00392500Y00835000D02*
D03*
X00482500Y00835000D02*
D03*
X00472500D02*
D03*
X00462500D02*
D03*
X00452500D02*
D03*
X00442500D02*
D03*
X00192500Y00835000D02*
D03*
X00202500Y00835000D02*
D03*
X00212500D02*
D03*
X00222500D02*
D03*
X00232500D02*
D03*
X00282500D02*
D03*
X00272500D02*
D03*
X00262500D02*
D03*
X00252500D02*
D03*
X00242500D02*
D03*
X00332500Y00835000D02*
D03*
X00322500Y00835000D02*
D03*
X00312500D02*
D03*
X00302500D02*
D03*
X00292500Y00835000D02*
D03*
X00142500Y00835000D02*
D03*
X00152500D02*
D03*
X00162500D02*
D03*
X00172500D02*
D03*
X00182500D02*
D03*
X00092500Y00835000D02*
D03*
X00102500Y00835000D02*
D03*
X00112500D02*
D03*
X00122500D02*
D03*
X00132500D02*
D03*
X00082500D02*
D03*
X00072500D02*
D03*
X00062500D02*
D03*
X00052500Y00835000D02*
D03*
X00042500Y00835000D02*
D03*
X00005000Y00790000D02*
D03*
Y00780000D02*
D03*
Y00770000D02*
D03*
Y00760000D02*
D03*
Y00750000D02*
D03*
Y00740000D02*
D03*
Y00730000D02*
D03*
Y00720000D02*
D03*
Y00710000D02*
D03*
Y00700000D02*
D03*
Y00690000D02*
D03*
Y00680000D02*
D03*
Y00670000D02*
D03*
Y00660000D02*
D03*
Y00650000D02*
D03*
Y00640000D02*
D03*
Y00630000D02*
D03*
Y00620000D02*
D03*
Y00610000D02*
D03*
Y00600000D02*
D03*
Y00590000D02*
D03*
Y00580000D02*
D03*
Y00570000D02*
D03*
Y00560000D02*
D03*
Y00550000D02*
D03*
Y00540000D02*
D03*
Y00530000D02*
D03*
Y00520000D02*
D03*
Y00510000D02*
D03*
Y00500000D02*
D03*
Y00490000D02*
D03*
Y00480000D02*
D03*
Y00470000D02*
D03*
Y00460000D02*
D03*
Y00450000D02*
D03*
Y00440000D02*
D03*
Y00430000D02*
D03*
Y00420000D02*
D03*
Y00410000D02*
D03*
Y00400000D02*
D03*
Y00390000D02*
D03*
Y00380000D02*
D03*
Y00370000D02*
D03*
Y00360000D02*
D03*
Y00350000D02*
D03*
Y00340000D02*
D03*
Y00330000D02*
D03*
Y00320000D02*
D03*
Y00310000D02*
D03*
Y00300000D02*
D03*
Y00290000D02*
D03*
Y00280000D02*
D03*
Y00270000D02*
D03*
Y00260000D02*
D03*
Y00250000D02*
D03*
Y00240000D02*
D03*
Y00230000D02*
D03*
Y00220000D02*
D03*
Y00210000D02*
D03*
Y00200000D02*
D03*
Y00190000D02*
D03*
Y00180000D02*
D03*
Y00170000D02*
D03*
Y00160000D02*
D03*
Y00150000D02*
D03*
Y00140000D02*
D03*
Y00130000D02*
D03*
Y00120000D02*
D03*
Y00110000D02*
D03*
Y00100000D02*
D03*
Y00090000D02*
D03*
Y00080000D02*
D03*
Y00070000D02*
D03*
Y00060000D02*
D03*
Y00050000D02*
D03*
X00845000Y00800000D02*
D03*
X00294000Y00501000D02*
D03*
X00370000Y00787000D02*
D03*
X00609000Y00227000D02*
D03*
X00697000Y00470000D02*
D03*
Y00448000D02*
D03*
X00045000Y00216000D02*
D03*
X00193000Y00384000D02*
D03*
X00185000Y00384000D02*
D03*
X00177000Y00384000D02*
D03*
X00193000Y00360000D02*
D03*
X00185000D02*
D03*
X00177000D02*
D03*
X00208000Y00443000D02*
D03*
Y00451000D02*
D03*
X00453000Y00205000D02*
D03*
X00469000Y00198000D02*
D03*
X00110579Y00463930D02*
D03*
X00062000Y00685000D02*
D03*
X00525000Y00705000D02*
D03*
X00492000Y00705000D02*
D03*
X00586000Y00800000D02*
D03*
X00045000Y00226000D02*
D03*
X00608950Y00536950D02*
D03*
X00602500Y00178000D02*
D03*
X00071500Y00508500D02*
D03*
X00064500Y00513500D02*
D03*
Y00503500D02*
D03*
X00071500Y00518500D02*
D03*
X00486000Y00802000D02*
D03*
X00583500Y00178000D02*
D03*
X00593000Y00206700D02*
D03*
X00593000Y00197000D02*
D03*
X00539000Y00176000D02*
D03*
X00551000Y00225000D02*
D03*
X00569000Y00204500D02*
D03*
X00613000Y00196000D02*
D03*
X00573000D02*
D03*
X00205000Y00737000D02*
D03*
X00563000Y00535500D02*
D03*
X00700000Y00787500D02*
D03*
X00687000Y00801000D02*
D03*
X00532999Y00547499D02*
D03*
X00521500Y00546000D02*
D03*
X00345000Y00787000D02*
D03*
X00357000D02*
D03*
X00471500Y00787500D02*
D03*
X00459000Y00787000D02*
D03*
X00559000Y00547000D02*
D03*
X00541000D02*
D03*
X00328000Y00773000D02*
D03*
X00291000D02*
D03*
X00296000Y00722000D02*
D03*
X00334000D02*
D03*
X00372000D02*
D03*
X00524000D02*
D03*
X00563000D02*
D03*
X00543000Y00535000D02*
D03*
X00573000Y00546000D02*
D03*
X00598000Y00547000D02*
D03*
X00614000Y00564000D02*
D03*
X00621000D02*
D03*
X00504699Y00564020D02*
D03*
X00112000Y00293000D02*
D03*
X00122500D02*
D03*
X00173000D02*
D03*
X00182500D02*
D03*
X00231000Y00736000D02*
D03*
X00244000Y00737000D02*
D03*
X00256342D02*
D03*
X00269000Y00735913D02*
D03*
X00294000Y00737000D02*
D03*
X00408000Y00736258D02*
D03*
X00231000Y00787000D02*
D03*
X00218000D02*
D03*
X00204000D02*
D03*
X00243000Y00787158D02*
D03*
X00256000Y00787458D02*
D03*
X00269000Y00787000D02*
D03*
X00282000Y00786000D02*
D03*
X00294000Y00787000D02*
D03*
X00307342Y00788000D02*
D03*
X00320000Y00787000D02*
D03*
X00773000Y00478000D02*
D03*
X00789000D02*
D03*
X00694000Y00357000D02*
D03*
X00697000Y00302000D02*
D03*
Y00324000D02*
D03*
X00773000Y00302000D02*
D03*
X00789000D02*
D03*
X00612000Y00176000D02*
D03*
X00575000D02*
D03*
X00563000D02*
D03*
X00551000D02*
D03*
X00503000Y00198000D02*
D03*
X00491000D02*
D03*
X00479000D02*
D03*
X00443000D02*
D03*
X00431000D02*
D03*
X00469000Y00207000D02*
D03*
X00479000D02*
D03*
X00491000D02*
D03*
X00503000D02*
D03*
X00515000D02*
D03*
X00563000Y00225000D02*
D03*
X00575000D02*
D03*
X00587000D02*
D03*
X00597000D02*
D03*
X00178000Y00427000D02*
D03*
X00186000D02*
D03*
X00104789Y00457965D02*
D03*
X00099000Y00464000D02*
D03*
X00111000Y00452000D02*
D03*
X00099000D02*
D03*
X00055000Y00423000D02*
D03*
X00064000D02*
D03*
Y00431000D02*
D03*
X00058000Y00463000D02*
D03*
X00170000Y00427000D02*
D03*
X00208000Y00459000D02*
D03*
X00642000Y00348000D02*
D03*
X00643000Y00369000D02*
D03*
X00180000Y00509000D02*
D03*
X00586000Y00537000D02*
D03*
X00596000D02*
D03*
X00505000Y00536000D02*
D03*
X00486000Y00722000D02*
D03*
X00448000D02*
D03*
X00410000D02*
D03*
X00258000Y00753000D02*
D03*
X00282000Y00765000D02*
D03*
X00292000Y00753000D02*
D03*
X00308000Y00762000D02*
D03*
X00347000D02*
D03*
X00319000D02*
D03*
X00358000D02*
D03*
X00369000Y00753000D02*
D03*
X00386000Y00762000D02*
D03*
X00409000Y00753000D02*
D03*
X00398000Y00765000D02*
D03*
X00514000Y00754000D02*
D03*
X00511000Y00765000D02*
D03*
X00483000Y00773000D02*
D03*
X00445000Y00772000D02*
D03*
X00396000Y00788000D02*
D03*
X00407942Y00787000D02*
D03*
X00420000Y00788000D02*
D03*
X00434000Y00787000D02*
D03*
X00496999Y00787999D02*
D03*
X00510000Y00787000D02*
D03*
X00523000D02*
D03*
X00548000D02*
D03*
X00561000D02*
D03*
X00572513Y00788000D02*
D03*
X00599000Y00787000D02*
D03*
X00611142D02*
D03*
X00624000Y00787300D02*
D03*
X00561000Y00737000D02*
D03*
X00510000Y00736800D02*
D03*
X00485000Y00737000D02*
D03*
X00523000D02*
D03*
X00472000Y00736000D02*
D03*
X00458978Y00736435D02*
D03*
X00434000Y00736000D02*
D03*
X00383000Y00737000D02*
D03*
X00370500D02*
D03*
X00496000Y00564000D02*
D03*
X00485000D02*
D03*
X00428000Y00519000D02*
D03*
X00482000Y00536000D02*
D03*
X00427000Y00768000D02*
D03*
X00319000Y00736300D02*
D03*
X00345000Y00737000D02*
D03*
X00538000Y00802000D02*
D03*
X00435000Y00761000D02*
D03*
X00443000Y00753000D02*
D03*
X00468000Y00763000D02*
D03*
X00478000Y00754000D02*
D03*
X00521000Y00773000D02*
D03*
X00552000Y00755000D02*
D03*
X00571000Y00714000D02*
D03*
X00449000Y00705000D02*
D03*
X00411000D02*
D03*
X00372000D02*
D03*
X00329000D02*
D03*
X00296000D02*
D03*
X00624999Y00519999D02*
D03*
X00071500Y00499000D02*
D03*
M02*
