M48
;Layer_Color=9474304
;FILE_FORMAT=4:4
METRIC
;TYPE=PLATED
T1F00S00C0.3000
T3F00S00C0.7950
T4F00S00C0.9000
T6F00S00C0.9500
T8F00S00C1.1000
T10F00S00C1.8000
T11F00S00C2.3000
T12F00S00C3.7000
%
T01
X00015251Y00015251
X00026606Y00007664
X00042500Y00005000
X00052500
X00062500
X00072500
X00082500
X00092500
X00102500
X00112500
X00122500
X00132500
X00142500
X00007664Y00026606
X00005000Y00040000
Y00050000
Y00060000
Y00070000
Y00080000
Y00090000
Y00100000
Y00110000
Y00120000
Y00130000
Y00140000
X00152500Y00005000
X00162500
X00172500
X00182500
X00192500
X00202500
X00212500
X00222500
X00232500
X00242500
X00252500
X00262500
X00272500
X00282500
X00292500
X00302500
X00312500
X00322500
X00332500
X00342500
X00352500
X00362500
X00372500
X00382500
X00392500
X00402500
X00412500
X00422500
X00432500
X00442500
X00452500
X00462500
X00472500
X00482500
X00492500
X00502500
X00512500
X00522500
X00532500
X00529000Y00102000
X00492000Y00070000
X00410000Y00092000
X00395000
X00380000
X00365000
X00335000
X00354000Y00130000
X00316000Y00140000
X00549000Y00137000
Y00128000
X00542000Y00071000
X00542500Y00005000
X00552500
X00562500
X00572500
X00582500
X00592500
X00602500
X00612500
X00622500
X00632500
X00642500
X00652500
X00662500
X00672500
X00682500
X00692500
X00702500
X00712500
X00722500
X00732500
X00742500
X00752500
X00762500
X00772500
X00782500
X00792500
X00802500
X00812500
X00823394Y00007664
X00834749Y00015251
X00842336Y00026606
X00845000Y00040000
Y00050000
Y00060000
Y00070000
Y00080000
Y00090000
Y00100000
Y00110000
Y00120000
Y00130000
Y00140000
Y00150000
Y00160000
Y00170000
Y00180000
Y00190000
Y00200000
Y00210000
Y00220000
Y00230000
Y00240000
Y00250000
Y00260000
Y00270000
Y00280000
Y00290000
Y00300000
Y00310000
Y00320000
Y00330000
Y00340000
Y00350000
Y00360000
Y00370000
Y00380000
Y00390000
Y00400000
Y00410000
Y00420000
Y00430000
Y00440000
Y00450000
Y00460000
Y00470000
Y00480000
Y00490000
Y00500000
Y00510000
Y00520000
Y00530000
X00789000Y00478000
X00773000
X00697000Y00470000
Y00448000
X00660000Y00435000
X00659000Y00415000
X00660000Y00396000
X00643000Y00369000
X00642000Y00357000
Y00348000
X00631000Y00351000
X00625000Y00325000
X00614000Y00323000
X00606000
X00642000Y00326000
X00644000Y00307000
X00697000Y00302000
Y00324000
X00694000Y00357000
X00683000Y00285000
X00677000Y00275000
X00618000Y00242000
X00609000Y00227000
X00597000Y00225000
X00587000
X00575000
X00563000
X00551000
X00569000Y00204500
X00577500Y00204000
X00585000
X00593000Y00206700
X00593000Y00197000
X00601500Y00204000
X00609000
X00613000Y00196000
X00620000Y00200000
X00623000Y00177000
X00612000Y00176000
X00602500Y00178000
X00596500Y00172400
X00589000Y00172400
X00583500Y00178000
X00575000Y00176000
X00563000
X00551000
X00573000Y00196000
X00657000Y00157000
X00693000
X00828000Y00182000
X00837000
X00789000Y00302000
X00773000
X00581000Y00346000
X00576000Y00362000
X00580000Y00371000
X00574000Y00379000
X00567000Y00354000
X00602000Y00388000
X00594000Y00485000
X00582000Y00488000
X00592500Y00500000
X00585500Y00509000
X00586000Y00537000
X00596000
X00608950Y00536950
X00624999Y00519999
X00563000Y00535500
X00543000Y00535000
X00505000Y00536000
X00482000
X00469000
X00457000
X00449000
Y00519000
X00457000Y00519000
X00473000Y00519000
X00498000
X00439000
X00428000
X00411000Y00532000
X00337000Y00495000
X00324000Y00486000
X00332000Y00464000
X00341000Y00472000
X00294000Y00501000
X00180000Y00502000
Y00509000
X00184950Y00513950
X00168000Y00479000
Y00472000
Y00465000
Y00458000
Y00451000
X00170000Y00427000
X00178000
X00186000
X00208000Y00443000
Y00451000
Y00459000
X00209000Y00406000
Y00399000
Y00392000
X00193000Y00384000
X00185000Y00384000
X00177000Y00384000
X00177000Y00360000
X00185000
X00193000
X00182500Y00293000
X00173000
X00162000Y00195000
X00191754Y00194783
X00269790Y00235491
X00267020Y00252520
X00298750Y00157750
X00325250
X00347750
X00374250
X00397750
X00433000Y00155000
X00456000Y00145000
X00495000Y00152000
X00509000Y00148000
X00527000Y00177000
X00539000Y00176000
X00515000Y00198000
Y00207000
X00503000
Y00198000
X00491000
Y00207000
X00479000
Y00198000
X00469000
Y00207000
X00453000Y00205000
X00455000Y00198000
X00443000
X00431000
X00437500Y00205000
X00437000Y00430000
X00474000
X00257000Y00400000
X00249000
X00241000
X00111000Y00452000
X00099000
X00104789Y00457965
X00110579Y00463930
X00099000Y00464000
X00058000Y00463000
X00034000Y00465000
X00028000Y00459000
X00005000Y00460000
Y00470000
Y00480000
Y00490000
Y00500000
Y00510000
Y00520000
Y00530000
X00064500Y00513500
Y00503500
X00071500Y00499000
Y00508500
Y00518500
X00052000Y00483000
X00046000Y00477000
X00040000Y00471000
X00005000Y00450000
Y00440000
Y00430000
Y00420000
Y00410000
Y00400000
Y00390000
Y00380000
Y00370000
Y00360000
Y00350000
Y00340000
Y00330000
Y00320000
Y00310000
Y00300000
Y00290000
Y00280000
Y00270000
Y00260000
Y00250000
Y00240000
Y00230000
Y00220000
Y00210000
Y00200000
Y00190000
Y00180000
Y00170000
Y00160000
Y00150000
X00045000Y00216000
Y00226000
X00102000Y00195000
X00132000
X00122500Y00293000
X00112000
X00064000Y00423000
Y00431000
X00055000Y00423000
X00005000Y00540000
Y00550000
Y00560000
Y00570000
Y00580000
Y00590000
Y00600000
Y00610000
Y00620000
Y00630000
Y00640000
Y00650000
Y00660000
Y00670000
Y00680000
Y00690000
Y00700000
Y00710000
Y00720000
Y00730000
Y00740000
Y00750000
Y00760000
Y00770000
Y00780000
Y00790000
Y00800000
X00007664Y00813394
X00015251Y00824749
X00026606Y00832336
X00042500Y00835000
X00052500Y00835000
X00062500Y00835000
X00072500
X00082500
X00092500Y00835000
X00102500Y00835000
X00112500
X00122500
X00132500
X00142500
X00046000Y00769000
Y00719000
Y00695000
X00062000Y00685000
X00225000Y00680000
X00220000Y00705000
X00250000
X00244000Y00737000
X00256342
X00269000Y00735913
X00266000Y00753000
X00258000
X00292000
X00305000
X00308000Y00762000
X00319000
X00328000Y00773000
X00338000
X00347000Y00762000
X00358000
X00369000Y00753000
X00383000
X00386000Y00762000
X00398000Y00765000
X00409000Y00753000
X00408000Y00736258
X00410000Y00722000
X00401850Y00722150
X00411000Y00705000
X00449000
X00448000Y00722000
X00440000
X00434000Y00736000
X00435000Y00752000
Y00761000
X00427000Y00768000
X00415000Y00773000
X00420000Y00788000
X00407942Y00787000
X00396000Y00788000
X00382700Y00787500
X00370000Y00787000
X00357000
X00345000
X00331900Y00787500
X00320000Y00787000
X00307342Y00788000
X00294000Y00787000
X00282000Y00786000
X00269000Y00787000
X00256000Y00787458
X00243000Y00787158
X00231000Y00787000
X00218000
X00204000
X00202500Y00835000
X00212500
X00222500
X00232500
X00242500
X00252500
X00262500
X00272500
X00282500
X00292500Y00835000
X00302500Y00835000
X00312500
X00322500
X00332500Y00835000
X00342500Y00835000
X00352500
X00362500
X00372500
X00382500
X00392500Y00835000
X00402500Y00835000
X00412500
X00422500
X00432500Y00835000
X00442500Y00835000
X00452500
X00462500
X00472500
X00482500
X00492500
X00502500
X00512500
X00522500
X00532500Y00835000
X00529000Y00802000
X00538000
X00523000Y00787000
X00510000
X00496999Y00787999
X00491000Y00773000
X00483000
X00486000Y00754000
X00478000
X00468000Y00763000
X00453000Y00772000
X00445000
X00443000Y00753000
X00451000
X00458978Y00736435
X00472000Y00736000
X00485000Y00737000
X00486000Y00722000
X00478000
X00492000Y00705000
X00525000Y00705000
X00524000Y00722000
X00516000
X00510000Y00736800
X00523000Y00737000
X00525000Y00755000
X00514000Y00754000
X00511000Y00765000
X00521000Y00773000
X00529000
X00486000Y00802000
X00478000
X00471500Y00787500
X00459000Y00787000
X00434000
X00432624Y00799760
X00376750Y00772250
X00383000Y00737000
X00370500
X00372000Y00722000
X00364000
X00372000Y00705000
X00329000
X00325000Y00722000
X00334000
X00345000Y00737000
X00342000Y00753000
X00319000Y00736300
X00294000Y00737000
X00296000Y00722000
X00288000
X00296000Y00705000
X00300000Y00773000
X00291000
X00282000Y00765000
X00231000Y00736000
X00205000Y00737000
X00192500Y00835000
X00182500Y00835000
X00172500
X00162500
X00152500
X00169000Y00616000
X00235000Y00609000
X00244000Y00610000
X00241000Y00603000
X00250000Y00604000
X00247000Y00597000
X00416000Y00567000
X00428000Y00570000
X00439000Y00568000
X00456000Y00570000
X00463000
X00460000Y00564000
X00459000Y00577000
X00474000Y00583000
X00489000Y00582000
X00485000Y00564000
X00496000
X00504699Y00564020
X00509000Y00570000
X00509401Y00542401
X00501000Y00543000
X00492999Y00543999
X00485000Y00544000
X00464000Y00543000
X00453000Y00546000
X00442999Y00547001
X00435000Y00540000
X00423000Y00545000
X00412000Y00547000
X00521500Y00546000
X00532999Y00547499
X00532000Y00540000
X00541000Y00547000
X00559000
X00573000Y00546000
X00586000Y00547000
X00598000
X00597000Y00564000
X00589000
X00614000
X00621000
X00571000Y00714000
X00563000Y00722000
X00555000
X00561000Y00737000
X00552000Y00755000
X00548000Y00787000
X00561000
X00572513Y00788000
X00586000Y00800000
X00599000Y00787000
X00611142
X00624000Y00787300
X00622500Y00835000
X00612500
X00602500
X00592500
X00582500
X00572500
X00562500Y00835000
X00552500Y00835000
X00542500
X00632500Y00835000
X00642500Y00835000
X00652500
X00662500Y00835000
X00672500
X00682500Y00835000
X00692500
X00702500
X00712500
X00722500
X00732500
X00742500
X00752500
X00762500Y00835000
X00772500
X00782500Y00835000
X00792500
X00802500Y00835000
X00812500Y00835000
X00823394Y00832336
X00834749Y00824749
X00842336Y00813394
X00845000Y00800000
X00845000Y00790000
Y00780000
Y00770000
Y00760000
Y00750000
Y00740000
Y00730000
Y00720000
Y00710000
Y00700000
Y00690000
Y00680000
Y00670000
Y00660000
Y00650000
Y00640000
Y00630000
Y00620000
Y00610000
Y00600000
Y00590000
Y00580000
Y00570000
Y00560000
Y00550000
Y00540000
X00718000Y00747000
Y00757000
X00700000Y00787500
X00687000Y00801000
T03
X00665000Y00129100
T04
X00127500Y00077900
X00117300Y00095700
X00137700
X00158100
X00178500
X00168300Y00077900
X00147900
X00188700
X00198700Y00143700
X00221600
X00107300
X00084400
T06
X00640000Y00129100
X00685000
X00710000
T08
X00782245Y00107500
X00807645
Y00132900
X00782245
T10
X00071000Y00088100
X00235000
T11
X00609300Y00102000
X00740700
T12
X00790000Y00207000
Y00537000
X00310000
Y00207000
X00139000Y00740000
X00769000
M30
