G04*
G04 #@! TF.GenerationSoftware,Altium Limited,Altium Designer,22.10.1 (41)*
G04*
G04 Layer_Color=8388736*
%FSAX44Y44*%
%MOMM*%
G71*
G04*
G04 #@! TF.SameCoordinates,5DDCA6B8-CE55-411C-979C-A3AAA62AB61D*
G04*
G04*
G04 #@! TF.FilePolarity,Negative*
G04*
G01*
G75*
%ADD34R,1.1000X1.1000*%
G04:AMPARAMS|DCode=38|XSize=1.5376mm|YSize=0.2525mm|CornerRadius=0.1262mm|HoleSize=0mm|Usage=FLASHONLY|Rotation=270.000|XOffset=0mm|YOffset=0mm|HoleType=Round|Shape=RoundedRectangle|*
%AMROUNDEDRECTD38*
21,1,1.5376,0.0000,0,0,270.0*
21,1,1.2851,0.2525,0,0,270.0*
1,1,0.2525,0.0000,-0.6425*
1,1,0.2525,0.0000,0.6425*
1,1,0.2525,0.0000,0.6425*
1,1,0.2525,0.0000,-0.6425*
%
%ADD38ROUNDEDRECTD38*%
%ADD39R,0.2525X1.5376*%
%ADD67C,0.6000*%
G04:AMPARAMS|DCode=76|XSize=1.5376mm|YSize=0.2525mm|CornerRadius=0.1262mm|HoleSize=0mm|Usage=FLASHONLY|Rotation=0.000|XOffset=0mm|YOffset=0mm|HoleType=Round|Shape=RoundedRectangle|*
%AMROUNDEDRECTD76*
21,1,1.5376,0.0000,0,0,0.0*
21,1,1.2851,0.2525,0,0,0.0*
1,1,0.2525,0.6425,0.0000*
1,1,0.2525,-0.6425,0.0000*
1,1,0.2525,-0.6425,0.0000*
1,1,0.2525,0.6425,0.0000*
%
%ADD76ROUNDEDRECTD76*%
%ADD77R,1.5376X0.2525*%
G04:AMPARAMS|DCode=78|XSize=2.8mm|YSize=2.3mm|CornerRadius=0mm|HoleSize=0mm|Usage=FLASHONLY|Rotation=0.000|XOffset=0mm|YOffset=0mm|HoleType=Round|Shape=RoundedRectangle|*
%AMROUNDEDRECTD78*
21,1,2.8000,2.3000,0,0,0.0*
21,1,2.8000,2.3000,0,0,0.0*
1,1,0.0000,1.4000,-1.1500*
1,1,0.0000,-1.4000,-1.1500*
1,1,0.0000,-1.4000,1.1500*
1,1,0.0000,1.4000,1.1500*
%
%ADD78ROUNDEDRECTD78*%
%ADD79R,2.3000X2.8000*%
G04:AMPARAMS|DCode=80|XSize=2.8mm|YSize=2.3mm|CornerRadius=0mm|HoleSize=0mm|Usage=FLASHONLY|Rotation=270.000|XOffset=0mm|YOffset=0mm|HoleType=Round|Shape=RoundedRectangle|*
%AMROUNDEDRECTD80*
21,1,2.8000,2.3000,0,0,270.0*
21,1,2.8000,2.3000,0,0,270.0*
1,1,0.0000,-1.1500,-1.4000*
1,1,0.0000,-1.1500,1.4000*
1,1,0.0000,1.1500,1.4000*
1,1,0.0000,1.1500,-1.4000*
%
%ADD80ROUNDEDRECTD80*%
G04:AMPARAMS|DCode=81|XSize=0.8397mm|YSize=0.2225mm|CornerRadius=0.1112mm|HoleSize=0mm|Usage=FLASHONLY|Rotation=270.000|XOffset=0mm|YOffset=0mm|HoleType=Round|Shape=RoundedRectangle|*
%AMROUNDEDRECTD81*
21,1,0.8397,0.0000,0,0,270.0*
21,1,0.6172,0.2225,0,0,270.0*
1,1,0.2225,0.0000,-0.3086*
1,1,0.2225,0.0000,0.3086*
1,1,0.2225,0.0000,0.3086*
1,1,0.2225,0.0000,-0.3086*
%
%ADD81ROUNDEDRECTD81*%
%ADD82R,0.2225X0.8397*%
%ADD125C,0.4500*%
%ADD126R,0.4800X0.5800*%
%ADD127R,1.7000X0.8000*%
%ADD128R,2.3000X1.3000*%
%ADD129R,1.6000X1.3000*%
%ADD130R,1.6000X1.7000*%
%ADD131R,1.1000X1.3000*%
%ADD132R,2.2000X0.5000*%
%ADD133R,2.0000X2.0000*%
%ADD134R,0.5800X0.4800*%
%ADD135R,0.7000X0.6500*%
%ADD136R,0.6500X0.7000*%
%ADD137R,3.1000X1.7000*%
%ADD138R,1.1000X1.3500*%
%ADD139R,2.6000X1.1000*%
%ADD140R,1.3000X2.1700*%
%ADD141R,0.4500X2.1000*%
%ADD142R,3.6000X6.9000*%
%ADD143R,2.1000X0.7000*%
%ADD144R,0.4000X1.6500*%
%ADD145R,1.3000X2.8500*%
%ADD146R,0.9000X1.4000*%
%ADD147R,2.2000X3.1000*%
%ADD148R,1.1000X2.8500*%
%ADD149R,2.6000X1.6000*%
%ADD150R,1.6000X1.2000*%
%ADD151R,2.9000X1.5000*%
%ADD152R,1.8800X0.7400*%
G04:AMPARAMS|DCode=153|XSize=0.35mm|YSize=0.7mm|CornerRadius=0.0563mm|HoleSize=0mm|Usage=FLASHONLY|Rotation=0.000|XOffset=0mm|YOffset=0mm|HoleType=Round|Shape=RoundedRectangle|*
%AMROUNDEDRECTD153*
21,1,0.3500,0.5875,0,0,0.0*
21,1,0.2375,0.7000,0,0,0.0*
1,1,0.1125,0.1188,-0.2938*
1,1,0.1125,-0.1188,-0.2938*
1,1,0.1125,-0.1188,0.2938*
1,1,0.1125,0.1188,0.2938*
%
%ADD153ROUNDEDRECTD153*%
%ADD154R,2.5000X1.7500*%
%ADD155R,0.5000X0.9000*%
%ADD156R,0.3800X0.9500*%
%ADD157R,0.3800X0.8500*%
%ADD158O,0.3000X0.8000*%
%ADD159O,0.8000X0.3000*%
%ADD160R,6.4000X6.4000*%
%ADD161R,0.9000X0.6500*%
%ADD162R,2.5000X1.6000*%
%ADD163R,0.7000X1.7500*%
%ADD164R,0.7000X0.3900*%
%ADD165R,0.3900X0.7000*%
%ADD166R,2.1000X3.1000*%
%ADD167P,6.7175X4X180.0*%
G04:AMPARAMS|DCode=168|XSize=0.4mm|YSize=0.825mm|CornerRadius=0mm|HoleSize=0mm|Usage=FLASHONLY|Rotation=135.000|XOffset=0mm|YOffset=0mm|HoleType=Round|Shape=Round|*
%AMOVALD168*
21,1,0.4250,0.4000,0.0000,0.0000,225.0*
1,1,0.4000,0.1503,0.1503*
1,1,0.4000,-0.1503,-0.1503*
%
%ADD168OVALD168*%

G04:AMPARAMS|DCode=169|XSize=0.4mm|YSize=0.825mm|CornerRadius=0mm|HoleSize=0mm|Usage=FLASHONLY|Rotation=225.000|XOffset=0mm|YOffset=0mm|HoleType=Round|Shape=Round|*
%AMOVALD169*
21,1,0.4250,0.4000,0.0000,0.0000,315.0*
1,1,0.4000,-0.1503,0.1503*
1,1,0.4000,0.1503,-0.1503*
%
%ADD169OVALD169*%

%ADD170R,0.4500X0.3500*%
%ADD171R,1.3000X1.7000*%
%ADD172P,6.7175X4X270.0*%
%ADD173O,1.0000X0.4000*%
%ADD174O,0.4000X1.0000*%
%ADD175R,4.1000X4.1000*%
%ADD176R,0.8000X0.3000*%
%ADD177R,0.7250X0.3500*%
%ADD178R,1.7000X1.7000*%
G04:AMPARAMS|DCode=179|XSize=0.95mm|YSize=3.7mm|CornerRadius=0.101mm|HoleSize=0mm|Usage=FLASHONLY|Rotation=270.000|XOffset=0mm|YOffset=0mm|HoleType=Round|Shape=RoundedRectangle|*
%AMROUNDEDRECTD179*
21,1,0.9500,3.4980,0,0,270.0*
21,1,0.7480,3.7000,0,0,270.0*
1,1,0.2020,-1.7490,-0.3740*
1,1,0.2020,-1.7490,0.3740*
1,1,0.2020,1.7490,0.3740*
1,1,0.2020,1.7490,-0.3740*
%
%ADD179ROUNDEDRECTD179*%
G04:AMPARAMS|DCode=180|XSize=9.226mm|YSize=13.47mm|CornerRadius=0.0956mm|HoleSize=0mm|Usage=FLASHONLY|Rotation=270.000|XOffset=0mm|YOffset=0mm|HoleType=Round|Shape=RoundedRectangle|*
%AMROUNDEDRECTD180*
21,1,9.2260,13.2787,0,0,270.0*
21,1,9.0347,13.4700,0,0,270.0*
1,1,0.1913,-6.6394,-4.5174*
1,1,0.1913,-6.6394,4.5174*
1,1,0.1913,6.6394,4.5174*
1,1,0.1913,6.6394,-4.5174*
%
%ADD180ROUNDEDRECTD180*%
%ADD181R,1.1000X0.6000*%
%ADD182R,2.3000X3.8000*%
%ADD183R,1.5000X1.5000*%
%ADD184R,1.3000X1.0500*%
%ADD185R,1.2000X1.0000*%
%ADD186R,1.2000X0.6500*%
%ADD187R,0.9300X0.2300*%
%ADD188R,4.3400X3.9100*%
%ADD189R,1.0500X0.7500*%
%ADD190C,0.3500*%
%ADD191R,1.3500X1.1000*%
%ADD192R,1.1000X2.6000*%
G04:AMPARAMS|DCode=193|XSize=0.95mm|YSize=3.7mm|CornerRadius=0.101mm|HoleSize=0mm|Usage=FLASHONLY|Rotation=180.000|XOffset=0mm|YOffset=0mm|HoleType=Round|Shape=RoundedRectangle|*
%AMROUNDEDRECTD193*
21,1,0.9500,3.4980,0,0,180.0*
21,1,0.7480,3.7000,0,0,180.0*
1,1,0.2020,-0.3740,1.7490*
1,1,0.2020,0.3740,1.7490*
1,1,0.2020,0.3740,-1.7490*
1,1,0.2020,-0.3740,-1.7490*
%
%ADD193ROUNDEDRECTD193*%
G04:AMPARAMS|DCode=194|XSize=9.226mm|YSize=13.47mm|CornerRadius=0.0956mm|HoleSize=0mm|Usage=FLASHONLY|Rotation=180.000|XOffset=0mm|YOffset=0mm|HoleType=Round|Shape=RoundedRectangle|*
%AMROUNDEDRECTD194*
21,1,9.2260,13.2787,0,0,180.0*
21,1,9.0347,13.4700,0,0,180.0*
1,1,0.1913,-4.5174,6.6394*
1,1,0.1913,4.5174,6.6394*
1,1,0.1913,4.5174,-6.6394*
1,1,0.1913,-4.5174,-6.6394*
%
%ADD194ROUNDEDRECTD194*%
%ADD195R,1.0100X1.3200*%
%ADD196R,0.3000X0.8000*%
%ADD197R,0.9000X0.5000*%
G04:AMPARAMS|DCode=198|XSize=0.58mm|YSize=0.48mm|CornerRadius=0mm|HoleSize=0mm|Usage=FLASHONLY|Rotation=45.000|XOffset=0mm|YOffset=0mm|HoleType=Round|Shape=Rectangle|*
%AMROTATEDRECTD198*
4,1,4,-0.0354,-0.3748,-0.3748,-0.0354,0.0354,0.3748,0.3748,0.0354,-0.0354,-0.3748,0.0*
%
%ADD198ROTATEDRECTD198*%

G04:AMPARAMS|DCode=199|XSize=0.58mm|YSize=0.48mm|CornerRadius=0mm|HoleSize=0mm|Usage=FLASHONLY|Rotation=135.000|XOffset=0mm|YOffset=0mm|HoleType=Round|Shape=Rectangle|*
%AMROTATEDRECTD199*
4,1,4,0.3748,-0.0354,0.0354,-0.3748,-0.3748,0.0354,-0.0354,0.3748,0.3748,-0.0354,0.0*
%
%ADD199ROTATEDRECTD199*%

%ADD200R,0.3500X0.7250*%
%ADD201R,1.7000X1.7000*%
%ADD202R,0.9000X0.7300*%
%ADD203R,0.7300X0.9000*%
%ADD204R,1.7000X1.3000*%
%ADD205R,0.3500X0.4500*%
%ADD206R,0.6500X1.2000*%
%ADD207R,0.7500X1.0500*%
%ADD208R,0.6500X1.1000*%
%ADD209C,0.9000*%
%ADD210R,1.5000X2.9000*%
%ADD211C,2.6000*%
%ADD212C,3.1000*%
%ADD213C,1.1000*%
%ADD214O,2.2500X1.3000*%
%ADD215R,0.1000X0.1000*%
%ADD216C,1.5000*%
G04:AMPARAMS|DCode=217|XSize=1.5mm|YSize=1.5mm|CornerRadius=0.4mm|HoleSize=0mm|Usage=FLASHONLY|Rotation=270.000|XOffset=0mm|YOffset=0mm|HoleType=Round|Shape=RoundedRectangle|*
%AMROUNDEDRECTD217*
21,1,1.5000,0.7000,0,0,270.0*
21,1,0.7000,1.5000,0,0,270.0*
1,1,0.8000,-0.3500,-0.3500*
1,1,0.8000,-0.3500,0.3500*
1,1,0.8000,0.3500,0.3500*
1,1,0.8000,0.3500,-0.3500*
%
%ADD217ROUNDEDRECTD217*%
%ADD218C,6.1000*%
%ADD219C,1.7500*%
%ADD220C,1.2500*%
%ADD221C,1.7000*%
%ADD222C,1.2000*%
%ADD223C,1.6000*%
%ADD224C,3.3000*%
%ADD225C,2.9000*%
%ADD226C,1.3000*%
%ADD227C,3.5000*%
%ADD228R,1.8000X1.8000*%
%ADD229C,1.8000*%
%ADD230R,2.6000X2.6000*%
%ADD231R,2.1000X2.1000*%
%ADD232C,7.5000*%
%ADD233C,5.4000*%
%ADD234R,1.6000X1.6000*%
%ADD235O,3.3000X1.5000*%
%ADD236R,0.1000X0.1000*%
%ADD237C,1.0500*%
G04:AMPARAMS|DCode=238|XSize=1.5mm|YSize=1.5mm|CornerRadius=0.4mm|HoleSize=0mm|Usage=FLASHONLY|Rotation=0.000|XOffset=0mm|YOffset=0mm|HoleType=Round|Shape=RoundedRectangle|*
%AMROUNDEDRECTD238*
21,1,1.5000,0.7000,0,0,0.0*
21,1,0.7000,1.5000,0,0,0.0*
1,1,0.8000,0.3500,-0.3500*
1,1,0.8000,-0.3500,-0.3500*
1,1,0.8000,-0.3500,0.3500*
1,1,0.8000,0.3500,0.3500*
%
%ADD238ROUNDEDRECTD238*%
%ADD239R,1.8000X1.8000*%
G36*
X02154773Y01945580D02*
X02129227D01*
Y01949560D01*
X02154773D01*
Y01945580D01*
D02*
G37*
G36*
X02143777Y02059869D02*
X02152200D01*
Y02054131D01*
X02143777D01*
Y02045847D01*
X02138177D01*
Y02054131D01*
X02129801D01*
Y02059869D01*
X02138177D01*
Y02068153D01*
X02143777D01*
Y02059869D01*
D02*
G37*
D34*
X01616850Y00651650D02*
D03*
X00350900Y00329300D02*
D03*
D38*
X02008865Y00463330D02*
D03*
X02003865D02*
D03*
X01998865D02*
D03*
X01993865D02*
D03*
X01988865D02*
D03*
Y00504661D02*
D03*
X01993865D02*
D03*
X01998865D02*
D03*
X02003865D02*
D03*
D39*
X02008865D02*
D03*
D67*
X01275000Y00775000D02*
D03*
Y00785000D02*
D03*
Y00795000D02*
D03*
Y00805000D02*
D03*
Y00815000D02*
D03*
Y00825000D02*
D03*
Y00835000D02*
D03*
Y00845000D02*
D03*
Y00855000D02*
D03*
Y00865000D02*
D03*
Y00875000D02*
D03*
Y00885000D02*
D03*
Y00895000D02*
D03*
Y00905000D02*
D03*
Y00915000D02*
D03*
Y00925000D02*
D03*
Y00935000D02*
D03*
Y00945000D02*
D03*
Y00955000D02*
D03*
Y00965000D02*
D03*
Y00975000D02*
D03*
Y00985000D02*
D03*
Y00995000D02*
D03*
Y01005000D02*
D03*
Y01015000D02*
D03*
Y01025000D02*
D03*
X01265000Y00775000D02*
D03*
Y00785000D02*
D03*
Y00795000D02*
D03*
Y00805000D02*
D03*
Y00815000D02*
D03*
Y00825000D02*
D03*
Y00835000D02*
D03*
Y00845000D02*
D03*
Y00855000D02*
D03*
Y00865000D02*
D03*
Y00885000D02*
D03*
Y00895000D02*
D03*
Y00905000D02*
D03*
Y00915000D02*
D03*
Y00925000D02*
D03*
Y00935000D02*
D03*
Y00955000D02*
D03*
Y00965000D02*
D03*
Y00975000D02*
D03*
Y00985000D02*
D03*
Y00995000D02*
D03*
Y01005000D02*
D03*
Y01015000D02*
D03*
Y01025000D02*
D03*
X01255000Y00775000D02*
D03*
Y00785000D02*
D03*
Y00795000D02*
D03*
Y00805000D02*
D03*
Y00815000D02*
D03*
Y00825000D02*
D03*
Y00835000D02*
D03*
Y00845000D02*
D03*
Y00855000D02*
D03*
Y00865000D02*
D03*
Y00885000D02*
D03*
Y00895000D02*
D03*
Y00905000D02*
D03*
Y00915000D02*
D03*
Y00925000D02*
D03*
Y00935000D02*
D03*
Y00965000D02*
D03*
Y00975000D02*
D03*
Y00985000D02*
D03*
Y00995000D02*
D03*
Y01005000D02*
D03*
Y01015000D02*
D03*
Y01025000D02*
D03*
X01245000Y00775000D02*
D03*
Y00785000D02*
D03*
Y00795000D02*
D03*
Y00805000D02*
D03*
Y00815000D02*
D03*
Y00825000D02*
D03*
Y00835000D02*
D03*
Y00845000D02*
D03*
Y00855000D02*
D03*
Y00865000D02*
D03*
Y00895000D02*
D03*
Y00905000D02*
D03*
Y00915000D02*
D03*
Y00925000D02*
D03*
Y00935000D02*
D03*
Y00945000D02*
D03*
Y00965000D02*
D03*
Y00975000D02*
D03*
Y00985000D02*
D03*
Y00995000D02*
D03*
Y01005000D02*
D03*
Y01015000D02*
D03*
Y01025000D02*
D03*
X01235000Y00775000D02*
D03*
Y00785000D02*
D03*
Y00795000D02*
D03*
Y00805000D02*
D03*
Y00815000D02*
D03*
Y00825000D02*
D03*
Y00835000D02*
D03*
Y00845000D02*
D03*
Y00855000D02*
D03*
Y00865000D02*
D03*
Y00895000D02*
D03*
Y00905000D02*
D03*
Y00915000D02*
D03*
Y00925000D02*
D03*
Y00935000D02*
D03*
Y00945000D02*
D03*
Y00975000D02*
D03*
Y00985000D02*
D03*
Y00995000D02*
D03*
Y01005000D02*
D03*
Y01015000D02*
D03*
Y01025000D02*
D03*
X01225000Y00775000D02*
D03*
Y00785000D02*
D03*
Y00795000D02*
D03*
Y00805000D02*
D03*
Y00815000D02*
D03*
Y00825000D02*
D03*
Y00835000D02*
D03*
Y00845000D02*
D03*
Y00855000D02*
D03*
Y00865000D02*
D03*
Y00875000D02*
D03*
Y00885000D02*
D03*
Y00905000D02*
D03*
Y00915000D02*
D03*
Y00925000D02*
D03*
Y00935000D02*
D03*
Y00975000D02*
D03*
Y00995000D02*
D03*
Y01025000D02*
D03*
X01215000Y00775000D02*
D03*
Y00785000D02*
D03*
Y00795000D02*
D03*
Y00805000D02*
D03*
Y00815000D02*
D03*
Y00825000D02*
D03*
Y00835000D02*
D03*
Y00845000D02*
D03*
Y00855000D02*
D03*
Y00885000D02*
D03*
Y00895000D02*
D03*
Y00905000D02*
D03*
Y00915000D02*
D03*
Y00925000D02*
D03*
Y00935000D02*
D03*
Y00945000D02*
D03*
Y00955000D02*
D03*
Y00965000D02*
D03*
Y00975000D02*
D03*
Y00985000D02*
D03*
Y00995000D02*
D03*
Y01005000D02*
D03*
Y01015000D02*
D03*
Y01025000D02*
D03*
X01205000Y00775000D02*
D03*
Y00785000D02*
D03*
Y00795000D02*
D03*
Y00805000D02*
D03*
Y00815000D02*
D03*
Y00825000D02*
D03*
Y00835000D02*
D03*
Y00845000D02*
D03*
Y00855000D02*
D03*
Y00865000D02*
D03*
Y00875000D02*
D03*
Y00885000D02*
D03*
Y00895000D02*
D03*
Y00905000D02*
D03*
Y00915000D02*
D03*
Y00925000D02*
D03*
Y00935000D02*
D03*
Y00945000D02*
D03*
Y00955000D02*
D03*
Y00965000D02*
D03*
Y00975000D02*
D03*
Y00985000D02*
D03*
Y00995000D02*
D03*
Y01005000D02*
D03*
Y01015000D02*
D03*
Y01025000D02*
D03*
X01195000Y00775000D02*
D03*
Y00785000D02*
D03*
Y00795000D02*
D03*
Y00805000D02*
D03*
Y00815000D02*
D03*
Y00825000D02*
D03*
Y00835000D02*
D03*
Y00845000D02*
D03*
Y00855000D02*
D03*
Y00865000D02*
D03*
Y00875000D02*
D03*
Y00885000D02*
D03*
Y00895000D02*
D03*
Y00905000D02*
D03*
Y00915000D02*
D03*
Y00925000D02*
D03*
Y00935000D02*
D03*
Y00945000D02*
D03*
Y00955000D02*
D03*
Y00965000D02*
D03*
Y00975000D02*
D03*
Y00985000D02*
D03*
Y01005000D02*
D03*
Y01015000D02*
D03*
Y01025000D02*
D03*
X01185000Y00775000D02*
D03*
Y00785000D02*
D03*
Y00795000D02*
D03*
Y00805000D02*
D03*
Y00815000D02*
D03*
Y00825000D02*
D03*
Y00835000D02*
D03*
Y00845000D02*
D03*
Y00855000D02*
D03*
Y00865000D02*
D03*
Y00875000D02*
D03*
Y00885000D02*
D03*
Y00895000D02*
D03*
Y00905000D02*
D03*
Y00915000D02*
D03*
Y00925000D02*
D03*
Y00935000D02*
D03*
Y00945000D02*
D03*
Y00955000D02*
D03*
Y00965000D02*
D03*
Y00975000D02*
D03*
Y00985000D02*
D03*
Y00995000D02*
D03*
Y01005000D02*
D03*
Y01015000D02*
D03*
Y01025000D02*
D03*
X01175000Y00775000D02*
D03*
Y00785000D02*
D03*
Y00795000D02*
D03*
Y00805000D02*
D03*
Y00815000D02*
D03*
Y00825000D02*
D03*
Y00835000D02*
D03*
Y00845000D02*
D03*
Y00855000D02*
D03*
Y00865000D02*
D03*
Y00875000D02*
D03*
Y00885000D02*
D03*
Y00895000D02*
D03*
Y00905000D02*
D03*
Y00915000D02*
D03*
Y00925000D02*
D03*
Y00935000D02*
D03*
Y00945000D02*
D03*
Y00965000D02*
D03*
Y00975000D02*
D03*
Y00985000D02*
D03*
Y00995000D02*
D03*
Y01005000D02*
D03*
Y01015000D02*
D03*
Y01025000D02*
D03*
X01165000Y00775000D02*
D03*
Y00785000D02*
D03*
Y00795000D02*
D03*
Y00805000D02*
D03*
Y00815000D02*
D03*
Y00825000D02*
D03*
Y00835000D02*
D03*
Y00845000D02*
D03*
Y00855000D02*
D03*
Y00865000D02*
D03*
Y00875000D02*
D03*
Y00885000D02*
D03*
Y00895000D02*
D03*
Y00905000D02*
D03*
Y00915000D02*
D03*
Y00925000D02*
D03*
Y00935000D02*
D03*
Y00945000D02*
D03*
Y00955000D02*
D03*
Y00965000D02*
D03*
Y00975000D02*
D03*
Y00985000D02*
D03*
Y00995000D02*
D03*
Y01005000D02*
D03*
Y01015000D02*
D03*
Y01025000D02*
D03*
X01155000Y00775000D02*
D03*
Y00785000D02*
D03*
Y00795000D02*
D03*
Y00805000D02*
D03*
Y00815000D02*
D03*
Y00825000D02*
D03*
Y00835000D02*
D03*
Y00845000D02*
D03*
Y00855000D02*
D03*
Y00865000D02*
D03*
Y00875000D02*
D03*
Y00885000D02*
D03*
Y00895000D02*
D03*
Y00905000D02*
D03*
Y00915000D02*
D03*
Y00925000D02*
D03*
Y00935000D02*
D03*
Y00945000D02*
D03*
Y00955000D02*
D03*
Y00965000D02*
D03*
Y00975000D02*
D03*
Y00985000D02*
D03*
Y00995000D02*
D03*
Y01005000D02*
D03*
Y01015000D02*
D03*
Y01025000D02*
D03*
X01145000Y00775000D02*
D03*
Y00785000D02*
D03*
Y00795000D02*
D03*
Y00805000D02*
D03*
Y00815000D02*
D03*
Y00825000D02*
D03*
Y00835000D02*
D03*
Y00845000D02*
D03*
Y00855000D02*
D03*
Y00865000D02*
D03*
Y00875000D02*
D03*
Y00885000D02*
D03*
Y00895000D02*
D03*
Y00905000D02*
D03*
Y00915000D02*
D03*
Y00925000D02*
D03*
Y00935000D02*
D03*
Y00945000D02*
D03*
Y00955000D02*
D03*
Y00965000D02*
D03*
Y00975000D02*
D03*
Y00985000D02*
D03*
Y00995000D02*
D03*
Y01005000D02*
D03*
Y01015000D02*
D03*
Y01025000D02*
D03*
X01135000Y00775000D02*
D03*
Y00785000D02*
D03*
Y00795000D02*
D03*
Y00805000D02*
D03*
Y00815000D02*
D03*
Y00825000D02*
D03*
Y00835000D02*
D03*
Y00845000D02*
D03*
Y00855000D02*
D03*
Y00865000D02*
D03*
Y00875000D02*
D03*
Y00885000D02*
D03*
Y00895000D02*
D03*
Y00905000D02*
D03*
Y00915000D02*
D03*
Y00925000D02*
D03*
Y00935000D02*
D03*
Y00945000D02*
D03*
Y00965000D02*
D03*
Y00975000D02*
D03*
Y00985000D02*
D03*
Y00995000D02*
D03*
Y01005000D02*
D03*
Y01015000D02*
D03*
Y01025000D02*
D03*
X01125000Y00775000D02*
D03*
Y00785000D02*
D03*
Y00795000D02*
D03*
Y00805000D02*
D03*
Y00815000D02*
D03*
Y00825000D02*
D03*
Y00835000D02*
D03*
Y00845000D02*
D03*
Y00855000D02*
D03*
Y00865000D02*
D03*
Y00875000D02*
D03*
Y00885000D02*
D03*
Y00895000D02*
D03*
Y00905000D02*
D03*
Y00915000D02*
D03*
Y00925000D02*
D03*
Y00935000D02*
D03*
Y00965000D02*
D03*
Y00975000D02*
D03*
Y00985000D02*
D03*
Y00995000D02*
D03*
Y01005000D02*
D03*
Y01015000D02*
D03*
Y01025000D02*
D03*
X01115000Y00775000D02*
D03*
Y00785000D02*
D03*
Y00795000D02*
D03*
Y00805000D02*
D03*
Y00815000D02*
D03*
Y00825000D02*
D03*
Y00835000D02*
D03*
Y00845000D02*
D03*
Y00855000D02*
D03*
Y00865000D02*
D03*
Y00875000D02*
D03*
Y00885000D02*
D03*
Y00895000D02*
D03*
Y00905000D02*
D03*
Y00915000D02*
D03*
Y00925000D02*
D03*
Y00935000D02*
D03*
Y00955000D02*
D03*
Y00965000D02*
D03*
Y00975000D02*
D03*
Y00985000D02*
D03*
Y00995000D02*
D03*
Y01005000D02*
D03*
Y01015000D02*
D03*
Y01025000D02*
D03*
X01105000Y00775000D02*
D03*
Y00785000D02*
D03*
Y00795000D02*
D03*
Y00805000D02*
D03*
Y00815000D02*
D03*
Y00825000D02*
D03*
Y00835000D02*
D03*
Y00845000D02*
D03*
Y00855000D02*
D03*
Y00865000D02*
D03*
Y00875000D02*
D03*
Y00885000D02*
D03*
Y00895000D02*
D03*
Y00905000D02*
D03*
Y00915000D02*
D03*
Y00925000D02*
D03*
Y00935000D02*
D03*
Y00945000D02*
D03*
Y00955000D02*
D03*
Y00965000D02*
D03*
Y00975000D02*
D03*
Y00985000D02*
D03*
Y00995000D02*
D03*
X01095000Y00775000D02*
D03*
Y00785000D02*
D03*
Y00795000D02*
D03*
Y00805000D02*
D03*
Y00815000D02*
D03*
Y00825000D02*
D03*
Y00835000D02*
D03*
Y00845000D02*
D03*
Y00855000D02*
D03*
Y00865000D02*
D03*
Y00875000D02*
D03*
Y00885000D02*
D03*
Y00895000D02*
D03*
Y00905000D02*
D03*
Y00915000D02*
D03*
Y00925000D02*
D03*
Y00935000D02*
D03*
Y00945000D02*
D03*
Y00955000D02*
D03*
Y00965000D02*
D03*
Y00975000D02*
D03*
Y00985000D02*
D03*
Y00995000D02*
D03*
Y01005000D02*
D03*
Y01015000D02*
D03*
X01085000Y00775000D02*
D03*
Y00785000D02*
D03*
Y00795000D02*
D03*
Y00805000D02*
D03*
Y00815000D02*
D03*
Y00825000D02*
D03*
Y00835000D02*
D03*
Y00845000D02*
D03*
Y00855000D02*
D03*
Y00865000D02*
D03*
Y00875000D02*
D03*
Y00885000D02*
D03*
Y00895000D02*
D03*
Y00905000D02*
D03*
Y00915000D02*
D03*
Y00925000D02*
D03*
Y00935000D02*
D03*
Y00945000D02*
D03*
Y00955000D02*
D03*
Y00965000D02*
D03*
Y00975000D02*
D03*
Y00985000D02*
D03*
Y00995000D02*
D03*
Y01005000D02*
D03*
Y01015000D02*
D03*
Y01025000D02*
D03*
X01075000Y00775000D02*
D03*
Y00785000D02*
D03*
Y00795000D02*
D03*
Y00805000D02*
D03*
Y00815000D02*
D03*
Y00825000D02*
D03*
Y00835000D02*
D03*
Y00845000D02*
D03*
Y00855000D02*
D03*
Y00865000D02*
D03*
Y00875000D02*
D03*
Y00885000D02*
D03*
Y00895000D02*
D03*
Y00905000D02*
D03*
Y00915000D02*
D03*
Y00925000D02*
D03*
Y00935000D02*
D03*
Y00945000D02*
D03*
Y00955000D02*
D03*
Y00965000D02*
D03*
Y00975000D02*
D03*
Y00985000D02*
D03*
Y00995000D02*
D03*
Y01005000D02*
D03*
Y01015000D02*
D03*
Y01025000D02*
D03*
X01065000Y00775000D02*
D03*
Y00785000D02*
D03*
Y00795000D02*
D03*
Y00805000D02*
D03*
Y00815000D02*
D03*
Y00825000D02*
D03*
Y00835000D02*
D03*
Y00845000D02*
D03*
Y00855000D02*
D03*
Y00865000D02*
D03*
Y00875000D02*
D03*
Y00885000D02*
D03*
Y00895000D02*
D03*
Y00905000D02*
D03*
Y00915000D02*
D03*
Y00925000D02*
D03*
Y00935000D02*
D03*
Y00945000D02*
D03*
Y00955000D02*
D03*
Y00965000D02*
D03*
Y00975000D02*
D03*
Y00985000D02*
D03*
Y00995000D02*
D03*
Y01005000D02*
D03*
Y01015000D02*
D03*
Y01025000D02*
D03*
X01055000Y00775000D02*
D03*
Y00785000D02*
D03*
Y00795000D02*
D03*
Y00805000D02*
D03*
Y00815000D02*
D03*
Y00825000D02*
D03*
Y00835000D02*
D03*
Y00845000D02*
D03*
Y00855000D02*
D03*
Y00865000D02*
D03*
Y00875000D02*
D03*
Y00885000D02*
D03*
Y00895000D02*
D03*
Y00905000D02*
D03*
Y00915000D02*
D03*
Y00925000D02*
D03*
Y00935000D02*
D03*
Y00945000D02*
D03*
Y00955000D02*
D03*
Y00965000D02*
D03*
Y00975000D02*
D03*
Y00985000D02*
D03*
Y00995000D02*
D03*
Y01005000D02*
D03*
Y01015000D02*
D03*
Y01025000D02*
D03*
X01045000Y00775000D02*
D03*
Y00785000D02*
D03*
Y00795000D02*
D03*
Y00805000D02*
D03*
Y00815000D02*
D03*
Y00825000D02*
D03*
Y00835000D02*
D03*
Y00845000D02*
D03*
Y00855000D02*
D03*
Y00865000D02*
D03*
Y00875000D02*
D03*
Y00885000D02*
D03*
Y00895000D02*
D03*
Y00905000D02*
D03*
Y00915000D02*
D03*
Y00925000D02*
D03*
Y00935000D02*
D03*
Y00945000D02*
D03*
Y00955000D02*
D03*
Y00965000D02*
D03*
Y00975000D02*
D03*
Y00985000D02*
D03*
Y00995000D02*
D03*
Y01005000D02*
D03*
Y01015000D02*
D03*
Y01025000D02*
D03*
X01035000Y00775000D02*
D03*
Y00785000D02*
D03*
Y00795000D02*
D03*
Y00805000D02*
D03*
Y00815000D02*
D03*
Y00825000D02*
D03*
Y00835000D02*
D03*
Y00845000D02*
D03*
Y00855000D02*
D03*
Y00865000D02*
D03*
Y00875000D02*
D03*
Y00885000D02*
D03*
Y00895000D02*
D03*
Y00905000D02*
D03*
Y00915000D02*
D03*
Y00925000D02*
D03*
Y00935000D02*
D03*
Y00945000D02*
D03*
Y00955000D02*
D03*
Y00965000D02*
D03*
Y00975000D02*
D03*
Y00985000D02*
D03*
Y00995000D02*
D03*
Y01005000D02*
D03*
Y01015000D02*
D03*
Y01025000D02*
D03*
X01025000Y00775000D02*
D03*
Y00785000D02*
D03*
Y00795000D02*
D03*
Y00805000D02*
D03*
Y00815000D02*
D03*
Y00825000D02*
D03*
Y00835000D02*
D03*
Y00845000D02*
D03*
Y00855000D02*
D03*
Y00865000D02*
D03*
Y00875000D02*
D03*
Y00885000D02*
D03*
Y00895000D02*
D03*
Y00905000D02*
D03*
Y00915000D02*
D03*
Y00925000D02*
D03*
Y00935000D02*
D03*
Y00945000D02*
D03*
Y00955000D02*
D03*
Y00965000D02*
D03*
Y00975000D02*
D03*
Y00985000D02*
D03*
Y00995000D02*
D03*
Y01005000D02*
D03*
Y01015000D02*
D03*
Y01025000D02*
D03*
X01095000D02*
D03*
X01105000D02*
D03*
Y01015000D02*
D03*
Y01005000D02*
D03*
X01125000Y00955000D02*
D03*
X01135000D02*
D03*
X01115000Y00945000D02*
D03*
X01125000D02*
D03*
X01195000Y00995000D02*
D03*
X01175000Y00955000D02*
D03*
X01265000Y00875000D02*
D03*
X01255000D02*
D03*
X01245000Y00885000D02*
D03*
X01235000D02*
D03*
X01225000Y00895000D02*
D03*
X01265000Y00945000D02*
D03*
X01255000D02*
D03*
X01225000D02*
D03*
X01255000Y00955000D02*
D03*
X01245000D02*
D03*
X01235000D02*
D03*
X01215000Y00875000D02*
D03*
X01245000D02*
D03*
X01215000Y00865000D02*
D03*
X01235000Y00875000D02*
D03*
X01225000Y00955000D02*
D03*
X01235000Y00965000D02*
D03*
X01225000D02*
D03*
Y00985000D02*
D03*
Y01005000D02*
D03*
Y01015000D02*
D03*
D76*
X01970334Y00305000D02*
D03*
Y00300000D02*
D03*
Y00295000D02*
D03*
X02011666Y00290000D02*
D03*
Y00295000D02*
D03*
Y00300000D02*
D03*
Y00305000D02*
D03*
Y00310000D02*
D03*
X01970334Y00290000D02*
D03*
D77*
Y00310000D02*
D03*
D78*
X01615750Y00320000D02*
D03*
Y00280000D02*
D03*
X01830250Y00360000D02*
D03*
Y00320000D02*
D03*
Y00280000D02*
D03*
Y00240000D02*
D03*
X01615750Y00360000D02*
D03*
Y00240000D02*
D03*
D79*
X01803000Y00401000D02*
D03*
D80*
Y00199000D02*
D03*
X01643000Y00401000D02*
D03*
Y00199000D02*
D03*
X01763000D02*
D03*
Y00401000D02*
D03*
X01723000D02*
D03*
X01683000D02*
D03*
Y00199000D02*
D03*
X01723000D02*
D03*
D81*
X02164250Y00064845D02*
D03*
X02159750D02*
D03*
X02155250D02*
D03*
X02150750D02*
D03*
X02146250D02*
D03*
X02141750D02*
D03*
Y00093155D02*
D03*
X02150750D02*
D03*
X02155250D02*
D03*
X02159750D02*
D03*
X02146250D02*
D03*
D82*
X02164250D02*
D03*
D125*
X00005004Y01349739D02*
G03*
X00005005Y01349739I00000001J00000001D01*
G01*
X00005002Y01099739D02*
G03*
X00005003Y01099738I00000002J00000002D01*
G01*
X00005002Y00849745D02*
G03*
X00005006Y00849740I00000005J00000000D01*
G01*
X00005005Y00789738D02*
G03*
X00005006Y00789737I00000002J00000002D01*
G01*
X00005003Y00359739D02*
G03*
X00005004Y00359738I00000002J00000002D01*
G01*
X00005002Y00050003D02*
G03*
X00005005Y00050000I00000003J00000000D01*
G01*
D02*
G03*
X00050000Y00005005I00044995J00000000D01*
G01*
Y02244996D02*
G03*
X00005005Y02200000I00000000J-00044995D01*
G01*
X02294995D02*
G03*
X02250000Y02244996I-00044995J00000000D01*
G01*
X02250001Y00004997D02*
G03*
X02294996Y00049992I00000000J00044995D01*
G01*
X00005004Y01349740D02*
X00005005Y02200000D01*
X00005003Y01099738D02*
Y01289739D01*
X00005002Y00849745D02*
Y01039739D01*
X00005005Y00599739D02*
Y00789738D01*
X00005004Y00359739D02*
Y00539739D01*
X00005000Y00272000D02*
X00005002Y00259739D01*
X00005000Y00322000D02*
X00005002Y00309739D01*
X00005002Y00050003D02*
Y00222000D01*
X02294996Y00049992D02*
Y00050261D01*
X02295000Y02200262D01*
X00049742Y02244996D02*
X02249739D01*
X02249997Y00005000D02*
X02250001Y00004997D01*
X00050000Y00005000D02*
X02249997D01*
D126*
X02234050Y00877000D02*
D03*
X02241950Y00877000D02*
D03*
X01249000Y01606000D02*
D03*
X01241100D02*
D03*
X01026000Y02020000D02*
D03*
X01033900D02*
D03*
X00836000Y02020000D02*
D03*
X00843900Y02020000D02*
D03*
X00636000Y02020000D02*
D03*
X00643900Y02020000D02*
D03*
X00114050Y00184000D02*
D03*
X00114050Y00166000D02*
D03*
X00114050Y00175000D02*
D03*
X00014050Y00184000D02*
D03*
Y00166000D02*
D03*
Y00175000D02*
D03*
X00114050Y00266000D02*
D03*
Y00284000D02*
D03*
Y00275000D02*
D03*
X01780950Y01107000D02*
D03*
X01773050D02*
D03*
X01780950Y01099000D02*
D03*
X01773050Y01099000D02*
D03*
X02116050Y01492000D02*
D03*
X02123950D02*
D03*
X02234050Y00217000D02*
D03*
X02241950D02*
D03*
X00264050Y01511000D02*
D03*
X00271950D02*
D03*
X00264050Y01739600D02*
D03*
X00271950D02*
D03*
X00264050Y01503000D02*
D03*
X00271950D02*
D03*
X00264050Y01731600D02*
D03*
X00271950D02*
D03*
X01567950Y00107000D02*
D03*
X01567950Y00158000D02*
D03*
Y00132000D02*
D03*
X01485450Y00257000D02*
D03*
X01856950Y00367000D02*
D03*
X01043050Y02175000D02*
D03*
X01238900Y02020000D02*
D03*
X01838900D02*
D03*
X01638900D02*
D03*
X01438900D02*
D03*
X00752050Y00226500D02*
D03*
X00704950Y00466000D02*
D03*
X02048350Y01830600D02*
D03*
X02054450Y01864600D02*
D03*
X00324050Y00054001D02*
D03*
Y00080000D02*
D03*
Y00105000D02*
D03*
Y00145000D02*
D03*
Y00170000D02*
D03*
Y00195000D02*
D03*
Y00235000D02*
D03*
Y00260000D02*
D03*
Y00285000D02*
D03*
X00972950Y01748000D02*
D03*
X00972950Y01739000D02*
D03*
X00972950Y01721000D02*
D03*
X00973000Y01712000D02*
D03*
X02127050Y01556000D02*
D03*
X02066950Y01531000D02*
D03*
X02054950Y01591000D02*
D03*
X02070050Y01591000D02*
D03*
X02276950Y01155000D02*
D03*
X02050850Y00779000D02*
D03*
X02045850Y00818000D02*
D03*
X01965050Y00573000D02*
D03*
X01965100Y00603000D02*
D03*
X01965050Y00633000D02*
D03*
Y00663000D02*
D03*
X00953950Y00757000D02*
D03*
X00658050Y01282000D02*
D03*
X00690050Y01104000D02*
D03*
X00540100Y01202000D02*
D03*
X00652050Y01172000D02*
D03*
X00665950Y01187000D02*
D03*
X00675950Y01140000D02*
D03*
X00653050D02*
D03*
X00658050Y01225000D02*
D03*
X00634950Y01190000D02*
D03*
X02064950Y00163000D02*
D03*
X02169450Y00231000D02*
D03*
X01978000Y00322000D02*
D03*
X01954050Y00228000D02*
D03*
X02041050Y00244000D02*
D03*
X02169450Y00248000D02*
D03*
Y00204000D02*
D03*
Y00223000D02*
D03*
X02041050Y00220000D02*
D03*
Y00233000D02*
D03*
Y00197000D02*
D03*
Y00208000D02*
D03*
X00121950Y00084000D02*
D03*
X00021950Y00184000D02*
D03*
X00121950D02*
D03*
X00221950D02*
D03*
X00121950Y00284000D02*
D03*
X02057950Y01666000D02*
D03*
X02047050Y01591000D02*
D03*
X02044050Y01531000D02*
D03*
X00946050Y00757000D02*
D03*
X00665950Y01282000D02*
D03*
X00697950Y01104000D02*
D03*
X00674950Y01172000D02*
D03*
X00668050Y01140000D02*
D03*
X00627050Y01190000D02*
D03*
X02021050Y01586000D02*
D03*
X02021050Y01576000D02*
D03*
X02021050Y01566000D02*
D03*
X02021050Y01556000D02*
D03*
X02021000Y01546000D02*
D03*
X02021050Y01536000D02*
D03*
X00972950Y01757000D02*
D03*
X01856950Y00240000D02*
D03*
X01398050Y01207000D02*
D03*
X01363050D02*
D03*
X01050950Y02175000D02*
D03*
X00759950Y00226500D02*
D03*
X00697050Y00466000D02*
D03*
X00221950Y00166000D02*
D03*
X00021950D02*
D03*
X00121950Y00166000D02*
D03*
Y00266000D02*
D03*
X02134950Y01556000D02*
D03*
X02077950Y01591000D02*
D03*
X00540050Y01194000D02*
D03*
X00540050Y01186000D02*
D03*
X00660950Y01140000D02*
D03*
X02169450Y00239000D02*
D03*
X01970100Y00322000D02*
D03*
X00121950Y00066000D02*
D03*
X02127050Y01590000D02*
D03*
Y01579000D02*
D03*
X02127100Y01568000D02*
D03*
X02127050Y01545000D02*
D03*
X02127050Y01525000D02*
D03*
Y01512000D02*
D03*
X01351050Y01247000D02*
D03*
X00272950Y02063000D02*
D03*
X02040450Y01830600D02*
D03*
X00972950Y01730000D02*
D03*
X02058750Y00779000D02*
D03*
X00272950Y02055000D02*
D03*
X02134950Y01579000D02*
D03*
X02062350Y01864600D02*
D03*
X02050050Y01666000D02*
D03*
X02224950Y00122000D02*
D03*
X02217050D02*
D03*
X02224950Y00132000D02*
D03*
X02217050D02*
D03*
X02134950Y01512000D02*
D03*
Y01525000D02*
D03*
Y01545000D02*
D03*
X02135000Y01568000D02*
D03*
X02134950Y01590000D02*
D03*
X02028950Y01536000D02*
D03*
X02028900Y01546000D02*
D03*
X02028950Y01556000D02*
D03*
X02028950Y01566000D02*
D03*
Y01576000D02*
D03*
Y01586000D02*
D03*
X00221950Y00175000D02*
D03*
X00214050Y00175000D02*
D03*
X00121950Y00175000D02*
D03*
X00021950D02*
D03*
X00214050Y00184000D02*
D03*
X00114050Y00066000D02*
D03*
X00121950Y00075001D02*
D03*
X00114050Y00075001D02*
D03*
X00114050Y00084000D02*
D03*
X00265050Y02055000D02*
D03*
X01961950Y00236000D02*
D03*
X01954050Y00236000D02*
D03*
X01954050Y00244000D02*
D03*
X01961950Y00244000D02*
D03*
X02048950Y00208000D02*
D03*
Y00197000D02*
D03*
X02048950Y00233000D02*
D03*
X02048950Y00220000D02*
D03*
X02161550Y00223000D02*
D03*
Y00204000D02*
D03*
Y00248000D02*
D03*
X02048950Y00244000D02*
D03*
X01961950Y00228000D02*
D03*
X02161550Y00239000D02*
D03*
X02161550Y00231000D02*
D03*
X02057050Y00163000D02*
D03*
X00580950Y01242000D02*
D03*
X00573050D02*
D03*
X00665950Y01225000D02*
D03*
X00658050Y01187000D02*
D03*
X00667050Y01172000D02*
D03*
X00547950Y01186000D02*
D03*
Y01194000D02*
D03*
X00659950Y01172000D02*
D03*
X00548000Y01202000D02*
D03*
X01972950Y00663000D02*
D03*
Y00633000D02*
D03*
X01973000Y00603000D02*
D03*
X01972950Y00573000D02*
D03*
X02053750Y00818000D02*
D03*
X02269050Y01155000D02*
D03*
X02051950Y01531000D02*
D03*
X02059050Y01531000D02*
D03*
X00965050Y01730000D02*
D03*
X00965100Y01712000D02*
D03*
X00965050Y01721000D02*
D03*
Y01757000D02*
D03*
X00965050Y01739000D02*
D03*
X00965050Y01748000D02*
D03*
X00331950Y00285000D02*
D03*
X00331950Y00260000D02*
D03*
X00121950Y00275000D02*
D03*
X00331950Y00235000D02*
D03*
Y00195000D02*
D03*
Y00170000D02*
D03*
Y00145000D02*
D03*
Y00105000D02*
D03*
X00214050Y00166000D02*
D03*
X00331950Y00080000D02*
D03*
Y00054001D02*
D03*
X00450000Y00027000D02*
D03*
X00442100D02*
D03*
X00399950Y00027000D02*
D03*
X00392050D02*
D03*
X00349950D02*
D03*
X00342050D02*
D03*
X00300000Y00027000D02*
D03*
X00292100D02*
D03*
X00249950Y00027000D02*
D03*
X00242050D02*
D03*
X00199950D02*
D03*
X00192050D02*
D03*
X00149950D02*
D03*
X00142050D02*
D03*
X00099950D02*
D03*
X00092050D02*
D03*
X00265050Y02063000D02*
D03*
X01431000Y02020000D02*
D03*
X01631000Y02020000D02*
D03*
X01831000D02*
D03*
X01231000Y02020000D02*
D03*
X01358950Y01247000D02*
D03*
X01370950Y01207000D02*
D03*
X01405950Y01207000D02*
D03*
X01849050Y00240000D02*
D03*
X01856950Y00353000D02*
D03*
X01849050D02*
D03*
X01849050Y00367000D02*
D03*
X01477550Y00257000D02*
D03*
X01560050Y00107000D02*
D03*
X01560050Y00132000D02*
D03*
X01560050Y00158000D02*
D03*
D127*
X02150000Y00979000D02*
D03*
Y01067000D02*
D03*
X02150000Y01056000D02*
D03*
X02150000Y01045000D02*
D03*
X02150000Y01034000D02*
D03*
X02150000Y01023000D02*
D03*
X02150000Y01001000D02*
D03*
Y00990000D02*
D03*
Y01012000D02*
D03*
Y01512500D02*
D03*
X02150000Y01523500D02*
D03*
X02150000Y01545500D02*
D03*
X02150000Y01567500D02*
D03*
X02150000Y01578500D02*
D03*
Y01589500D02*
D03*
Y01501500D02*
D03*
Y01556500D02*
D03*
Y01534500D02*
D03*
D128*
X02256000Y01122000D02*
D03*
Y00967000D02*
D03*
X02256000Y01489500D02*
D03*
Y01644500D02*
D03*
D129*
X02160000Y00967000D02*
D03*
Y01489500D02*
D03*
D130*
Y01113000D02*
D03*
X02160000Y01635500D02*
D03*
D131*
X02257500Y00878000D02*
D03*
Y00942000D02*
D03*
Y00098000D02*
D03*
Y00162000D02*
D03*
X02053660Y00133800D02*
D03*
X02066660Y00150800D02*
D03*
X02066660Y00133800D02*
D03*
X02053660Y00150800D02*
D03*
X02257500Y00282000D02*
D03*
Y00218000D02*
D03*
D132*
X02249500Y00916500D02*
D03*
X02249500Y00910000D02*
D03*
X02249500Y00903500D02*
D03*
X02249500Y00897000D02*
D03*
Y00923000D02*
D03*
Y00117000D02*
D03*
X02249500Y00123500D02*
D03*
X02249500Y00130000D02*
D03*
X02249500Y00136500D02*
D03*
X02249500Y00143000D02*
D03*
Y00263000D02*
D03*
Y00256500D02*
D03*
Y00250000D02*
D03*
X02249500Y00243500D02*
D03*
X02249500Y00237000D02*
D03*
D133*
X02280000Y00920500D02*
D03*
Y00899500D02*
D03*
Y00140500D02*
D03*
Y00119500D02*
D03*
Y00239500D02*
D03*
Y00260500D02*
D03*
D134*
X02225000Y00878050D02*
D03*
Y00885950D02*
D03*
X02020865Y00502046D02*
D03*
Y00509946D02*
D03*
X02142000Y01372050D02*
D03*
Y01379950D02*
D03*
X01661000Y00591050D02*
D03*
X01661000Y00598950D02*
D03*
X01651000Y00591050D02*
D03*
Y00598950D02*
D03*
X01641000Y00591050D02*
D03*
Y00598950D02*
D03*
X01631000Y00591050D02*
D03*
Y00598950D02*
D03*
X01611000Y00591050D02*
D03*
Y00598950D02*
D03*
X01591000Y00591050D02*
D03*
Y00598950D02*
D03*
X01601000Y00591050D02*
D03*
Y00598950D02*
D03*
X01621000Y00591050D02*
D03*
Y00598950D02*
D03*
X00501000Y00049100D02*
D03*
X00501000Y00057000D02*
D03*
X00527000Y00049100D02*
D03*
X00527000Y00057000D02*
D03*
X01816000Y00874050D02*
D03*
Y00881950D02*
D03*
X01241000Y01597950D02*
D03*
X01241000Y01590050D02*
D03*
X01249000Y01597950D02*
D03*
Y01590050D02*
D03*
X01034000Y02035950D02*
D03*
X01034000Y02028050D02*
D03*
X01026000D02*
D03*
X01026000Y02035950D02*
D03*
X00836000Y02028050D02*
D03*
X00836000Y02035950D02*
D03*
X00844000Y02035950D02*
D03*
Y02028050D02*
D03*
X00644000Y02028050D02*
D03*
Y02035950D02*
D03*
X00636000Y02028050D02*
D03*
Y02035950D02*
D03*
X01030000Y01735948D02*
D03*
Y01728048D02*
D03*
X01030000Y01772898D02*
D03*
Y01764998D02*
D03*
X01080000Y01773048D02*
D03*
Y01780948D02*
D03*
X01080000Y01758048D02*
D03*
Y01765948D02*
D03*
X02164000Y00044050D02*
D03*
Y00051950D02*
D03*
X02147000Y00044050D02*
D03*
X02147000Y00051950D02*
D03*
X02156000Y00044050D02*
D03*
Y00051950D02*
D03*
X02139000Y00044050D02*
D03*
Y00051950D02*
D03*
X01494650Y01713450D02*
D03*
X01494650Y01705550D02*
D03*
X01494650Y01749450D02*
D03*
X01494650Y01741550D02*
D03*
X01404000Y01774700D02*
D03*
X01404000Y01782600D02*
D03*
X01535650Y01761450D02*
D03*
Y01753550D02*
D03*
Y01724450D02*
D03*
Y01716550D02*
D03*
X01977000Y01895950D02*
D03*
Y01888050D02*
D03*
X01054000Y01048950D02*
D03*
Y01041050D02*
D03*
X01046000Y01049000D02*
D03*
X01046000Y01041100D02*
D03*
X01050000Y00325950D02*
D03*
X01050000Y00318050D02*
D03*
X01068000Y00325950D02*
D03*
Y00318050D02*
D03*
X01715000Y00704950D02*
D03*
X01715000Y00697050D02*
D03*
X01715000Y00712050D02*
D03*
Y00719950D02*
D03*
X01691000Y00598950D02*
D03*
Y00591050D02*
D03*
X01671000Y00598950D02*
D03*
Y00591050D02*
D03*
X01701000Y00598950D02*
D03*
Y00591050D02*
D03*
X01814500Y00508450D02*
D03*
X01814500Y00500550D02*
D03*
X01827500Y00508450D02*
D03*
X01827500Y00500550D02*
D03*
X01681000Y00598950D02*
D03*
Y00591050D02*
D03*
X01891500Y00508450D02*
D03*
Y00500550D02*
D03*
X01904000Y00641000D02*
D03*
X01904000Y00648900D02*
D03*
X01683000Y00713050D02*
D03*
Y00720950D02*
D03*
X01683000Y00706000D02*
D03*
X01683000Y00698100D02*
D03*
X00023000Y00563950D02*
D03*
Y00556050D02*
D03*
Y00593950D02*
D03*
Y00586050D02*
D03*
X00023000Y01343950D02*
D03*
Y01336050D02*
D03*
Y01313950D02*
D03*
X00023000Y01306050D02*
D03*
X00023000Y00843950D02*
D03*
Y00836050D02*
D03*
Y00813950D02*
D03*
Y00806050D02*
D03*
X00023000Y01093950D02*
D03*
Y01086050D02*
D03*
Y01063950D02*
D03*
Y01056050D02*
D03*
X00023000Y00266950D02*
D03*
X01377000Y01021950D02*
D03*
X00257000Y02055100D02*
D03*
X00782000Y00260550D02*
D03*
X00728000Y00246450D02*
D03*
X00735250Y00275550D02*
D03*
X00774000Y00260550D02*
D03*
X01071000Y00466950D02*
D03*
X01017000D02*
D03*
X00999000D02*
D03*
X01052000D02*
D03*
X01035000D02*
D03*
X00960000Y00318050D02*
D03*
X00978000D02*
D03*
X00924000D02*
D03*
X00942000D02*
D03*
X01031000D02*
D03*
X00996000D02*
D03*
X01013000Y00318050D02*
D03*
X00945000Y00466950D02*
D03*
X00927000D02*
D03*
X00980000D02*
D03*
X00962000D02*
D03*
X01075000Y00336050D02*
D03*
X01079000Y00466950D02*
D03*
X01321000Y00467950D02*
D03*
X02063600Y01910950D02*
D03*
X00871000Y01769050D02*
D03*
X00938000Y01680000D02*
D03*
X00929000Y01680000D02*
D03*
X00911000Y01680050D02*
D03*
X00902000Y01680050D02*
D03*
X00902000Y01696050D02*
D03*
X00964000D02*
D03*
X00955000Y01696050D02*
D03*
X00935000Y01696050D02*
D03*
X00610000Y01234950D02*
D03*
X00589000Y01143050D02*
D03*
X02078000Y00145950D02*
D03*
X02108000Y00158050D02*
D03*
X02199000Y00314050D02*
D03*
X02245000Y00313050D02*
D03*
X02225000Y00224950D02*
D03*
X02100000Y00158050D02*
D03*
X02079000Y00285950D02*
D03*
X02103000Y00286000D02*
D03*
X02116000Y00158050D02*
D03*
X02124000D02*
D03*
X02127000Y00285950D02*
D03*
X02115000D02*
D03*
X02091000D02*
D03*
X02132000Y00158050D02*
D03*
X02165000Y00111950D02*
D03*
X02141000Y00111950D02*
D03*
X02157000Y00111900D02*
D03*
X02216000Y00112950D02*
D03*
X02224000Y00112950D02*
D03*
X00468000Y00690550D02*
D03*
X00468000Y00713400D02*
D03*
X00468000Y00940550D02*
D03*
Y00440550D02*
D03*
X00468000Y00463450D02*
D03*
Y01213450D02*
D03*
Y00963450D02*
D03*
X00468000Y01190550D02*
D03*
X02217000Y00224950D02*
D03*
X00973000Y01696000D02*
D03*
X01385000Y01014050D02*
D03*
X01377000D02*
D03*
X01431000Y02035950D02*
D03*
X00610000Y01227050D02*
D03*
X00589000Y01150950D02*
D03*
X01439000Y02035950D02*
D03*
X00020000Y00325050D02*
D03*
X01533000Y00255550D02*
D03*
X01533000Y00248450D02*
D03*
X01831000Y02035950D02*
D03*
X01839000D02*
D03*
X00023000Y00259050D02*
D03*
X01631000Y02035950D02*
D03*
X02022600Y01886050D02*
D03*
X00566000Y01297300D02*
D03*
X00556000Y01297300D02*
D03*
X02086000Y00158050D02*
D03*
X02078000D02*
D03*
X02199000Y00294050D02*
D03*
X01639000Y02035950D02*
D03*
X02031000Y01720950D02*
D03*
X02031000Y01728050D02*
D03*
X02245000Y00320950D02*
D03*
X00880000Y01769050D02*
D03*
X00909000Y01757950D02*
D03*
X00901000Y01757950D02*
D03*
X00902000Y01703950D02*
D03*
X00953000Y01764950D02*
D03*
X00941000Y01764900D02*
D03*
X00929000Y01764950D02*
D03*
X00935000Y01703950D02*
D03*
X02272000Y02119900D02*
D03*
X02031000Y01735950D02*
D03*
X02031000Y01713050D02*
D03*
X02217000Y00217050D02*
D03*
X00468000Y01198450D02*
D03*
X00468000Y00955550D02*
D03*
Y01205550D02*
D03*
Y00455550D02*
D03*
X00468000Y00448450D02*
D03*
Y00948450D02*
D03*
X00468000Y00705500D02*
D03*
X00468000Y00698450D02*
D03*
X01439000Y02028050D02*
D03*
X01639000D02*
D03*
X01839000D02*
D03*
X01239000D02*
D03*
X01239000Y02035950D02*
D03*
X02224000Y00105050D02*
D03*
X02216000Y00105050D02*
D03*
X02149000Y00104050D02*
D03*
X02149000Y00111950D02*
D03*
X02157000Y00104000D02*
D03*
X02141000Y00104050D02*
D03*
X02165000Y00104050D02*
D03*
X02132000Y00165950D02*
D03*
X02091000Y00278050D02*
D03*
X02115000D02*
D03*
X02127000Y00278050D02*
D03*
X02124000Y00165950D02*
D03*
X02116000D02*
D03*
X02103000Y00278100D02*
D03*
X02079000Y00278050D02*
D03*
X02100000Y00165950D02*
D03*
X02225000Y00217050D02*
D03*
X02199000Y00321950D02*
D03*
X02199000Y00301950D02*
D03*
X02078000Y00165950D02*
D03*
X02086000D02*
D03*
X02108000Y00165950D02*
D03*
X02078000Y00138050D02*
D03*
X00568000Y01150950D02*
D03*
Y01143050D02*
D03*
X00581000Y01227050D02*
D03*
Y01234950D02*
D03*
X00576000Y01150950D02*
D03*
Y01143050D02*
D03*
X00573000Y01227050D02*
D03*
Y01234950D02*
D03*
X00556000Y01305200D02*
D03*
X00566000D02*
D03*
X02270000Y01171950D02*
D03*
Y01164050D02*
D03*
Y01209950D02*
D03*
Y01202050D02*
D03*
X02272000Y02112000D02*
D03*
X00973000Y01703900D02*
D03*
X00929000Y01757050D02*
D03*
X00941000Y01757000D02*
D03*
X00955000Y01703950D02*
D03*
X00964000Y01703950D02*
D03*
X00953000Y01757050D02*
D03*
X00920000Y01680050D02*
D03*
X00920000Y01687950D02*
D03*
X00902000Y01687950D02*
D03*
X00911000Y01687950D02*
D03*
X00901000Y01750050D02*
D03*
X00909000D02*
D03*
X00947000Y01680000D02*
D03*
X00947000Y01687900D02*
D03*
X00929000Y01687900D02*
D03*
X00938000Y01687900D02*
D03*
X00880000Y01776950D02*
D03*
X00871000Y01776950D02*
D03*
X00665000Y01419950D02*
D03*
X00665000Y01412050D02*
D03*
X00657000Y01419950D02*
D03*
Y01412050D02*
D03*
X00640000Y01419950D02*
D03*
Y01412050D02*
D03*
X00648000Y01419950D02*
D03*
Y01412050D02*
D03*
X02022600Y01893950D02*
D03*
X02063600Y01888050D02*
D03*
X02063600Y01895950D02*
D03*
Y01903050D02*
D03*
X01321000Y00460050D02*
D03*
X01079000Y00459050D02*
D03*
X01075000Y00343950D02*
D03*
X00962000Y00459050D02*
D03*
X00980000D02*
D03*
X00927000D02*
D03*
X00945000D02*
D03*
X01013000Y00325950D02*
D03*
X00996000Y00325950D02*
D03*
X01031000D02*
D03*
X00942000D02*
D03*
X00924000D02*
D03*
X00978000Y00325950D02*
D03*
X00960000Y00325950D02*
D03*
X01035000Y00459050D02*
D03*
X01052000D02*
D03*
X00999000D02*
D03*
X01017000D02*
D03*
X01071000D02*
D03*
X00774000Y00275550D02*
D03*
Y00283450D02*
D03*
X00774000Y00268450D02*
D03*
X00735250Y00283450D02*
D03*
X00728000Y00238550D02*
D03*
X00782000Y00268450D02*
D03*
X01430999Y02028050D02*
D03*
X00257000Y02063000D02*
D03*
X01631000Y02028050D02*
D03*
X01831000D02*
D03*
X01231000Y02035950D02*
D03*
Y02028050D02*
D03*
X01533000Y00240550D02*
D03*
X01533000Y00263450D02*
D03*
X01643000Y00175950D02*
D03*
Y00168050D02*
D03*
X01683000Y00176000D02*
D03*
Y00168100D02*
D03*
X01723000Y00175950D02*
D03*
X01723000Y00168050D02*
D03*
X01623000Y00175950D02*
D03*
Y00168050D02*
D03*
X01293000Y01015050D02*
D03*
X01293000Y01022950D02*
D03*
X01385000Y01021950D02*
D03*
X00020000Y00332950D02*
D03*
X00020000Y00233050D02*
D03*
Y00240950D02*
D03*
X00020000Y00340050D02*
D03*
Y00347950D02*
D03*
X00020000Y00290950D02*
D03*
Y00283050D02*
D03*
D135*
X02233750Y00886000D02*
D03*
X02242250D02*
D03*
X02133750Y01492000D02*
D03*
X02142250D02*
D03*
X02233750Y00226000D02*
D03*
X02242250D02*
D03*
D136*
X02233000Y00894750D02*
D03*
Y00903250D02*
D03*
Y00921250D02*
D03*
Y00912750D02*
D03*
Y00260250D02*
D03*
Y00234750D02*
D03*
Y00140250D02*
D03*
Y00113750D02*
D03*
Y00104250D02*
D03*
Y00095750D02*
D03*
Y00122250D02*
D03*
Y00131750D02*
D03*
Y00243250D02*
D03*
Y00251750D02*
D03*
D137*
X02107000Y00394000D02*
D03*
X02063000Y00394000D02*
D03*
D138*
X01189000Y01420998D02*
D03*
X01209000D02*
D03*
X01943000Y00265000D02*
D03*
X01923000D02*
D03*
X01281000Y01774002D02*
D03*
X01301000Y01774001D02*
D03*
X01341000Y01599998D02*
D03*
X01361000Y01599998D02*
D03*
X01149000Y01595002D02*
D03*
X01129000Y01595002D02*
D03*
X00309000Y02231002D02*
D03*
X00309000Y02056998D02*
D03*
X01889000Y00265002D02*
D03*
X02020000Y01959998D02*
D03*
X00289000Y02056998D02*
D03*
X00289000Y02231002D02*
D03*
X02000000Y01959998D02*
D03*
X01909000Y00265002D02*
D03*
D139*
X01257000Y01473000D02*
D03*
Y01443000D02*
D03*
X01233000Y01752000D02*
D03*
Y01722000D02*
D03*
X00241000Y02179000D02*
D03*
X00535000Y01276000D02*
D03*
X00715000Y01276000D02*
D03*
X02197000Y00141000D02*
D03*
X00450000Y00665500D02*
D03*
Y00738500D02*
D03*
Y00915500D02*
D03*
Y00415500D02*
D03*
Y00488500D02*
D03*
Y01238500D02*
D03*
Y00988500D02*
D03*
Y01165500D02*
D03*
X00535000Y01306000D02*
D03*
X00715000D02*
D03*
X00241000Y02209000D02*
D03*
X00450000Y01195500D02*
D03*
Y00958500D02*
D03*
Y01208500D02*
D03*
Y00458500D02*
D03*
Y00445500D02*
D03*
Y00945500D02*
D03*
Y00708500D02*
D03*
Y00695500D02*
D03*
X02197000Y00111000D02*
D03*
D140*
X02071200Y02000000D02*
D03*
X02024800D02*
D03*
D141*
X00683500Y00359000D02*
D03*
X00686500Y00441000D02*
D03*
X00689500Y00359000D02*
D03*
X00695500D02*
D03*
X00701500D02*
D03*
X00713500D02*
D03*
X00716500Y00441000D02*
D03*
X00719500Y00359000D02*
D03*
X00722500Y00441000D02*
D03*
X00731500Y00359000D02*
D03*
X00737500D02*
D03*
X00746500Y00441000D02*
D03*
X00749500Y00359000D02*
D03*
X00755500D02*
D03*
X00764500Y00441000D02*
D03*
X00767500Y00359000D02*
D03*
X00770500Y00441000D02*
D03*
X00773500Y00359000D02*
D03*
X00782500Y00441000D02*
D03*
X00785500Y00359000D02*
D03*
X00788500Y00441000D02*
D03*
X00797500Y00359000D02*
D03*
X00800500Y00441000D02*
D03*
X00803500Y00359000D02*
D03*
X00806500Y00441000D02*
D03*
X00815500Y00359000D02*
D03*
X00818500Y00441000D02*
D03*
X00821500Y00359000D02*
D03*
X00824500Y00441000D02*
D03*
X00833500Y00359000D02*
D03*
X00836500Y00441000D02*
D03*
X00839500Y00359000D02*
D03*
X00848500Y00441000D02*
D03*
X00851500Y00359000D02*
D03*
X00854500Y00441000D02*
D03*
X00857500Y00359000D02*
D03*
X00866500Y00441000D02*
D03*
X00869500Y00359000D02*
D03*
X00872500Y00441000D02*
D03*
X00875500Y00359000D02*
D03*
X00884500Y00441000D02*
D03*
X00887500Y00359000D02*
D03*
X00890500Y00441000D02*
D03*
X00899500Y00359000D02*
D03*
X00902500Y00441000D02*
D03*
X00905500Y00359000D02*
D03*
X00908500Y00441000D02*
D03*
X00917500Y00359000D02*
D03*
X00920500Y00441000D02*
D03*
X00923500Y00359000D02*
D03*
X00926500Y00441000D02*
D03*
X00929500Y00359000D02*
D03*
X00932500Y00441000D02*
D03*
X00935500Y00359000D02*
D03*
X00938500Y00441000D02*
D03*
X00941500Y00359000D02*
D03*
X00944500Y00441000D02*
D03*
X00947500Y00359000D02*
D03*
X00950500Y00441000D02*
D03*
X00953500Y00359000D02*
D03*
X00956500Y00441000D02*
D03*
X00959500Y00359000D02*
D03*
X00962500Y00441000D02*
D03*
X00965500Y00359000D02*
D03*
X00968500Y00441000D02*
D03*
X00971500Y00359000D02*
D03*
X00974500Y00441000D02*
D03*
X00977500Y00359000D02*
D03*
X00980500Y00441000D02*
D03*
X00983500Y00359000D02*
D03*
X00986500Y00441000D02*
D03*
X00989500Y00359000D02*
D03*
X00992500Y00441000D02*
D03*
X00995500Y00359000D02*
D03*
X00998500Y00441000D02*
D03*
X01001500Y00359000D02*
D03*
X01004500Y00441000D02*
D03*
X01007500Y00359000D02*
D03*
X01010500Y00441000D02*
D03*
X01013500Y00359000D02*
D03*
X01016500Y00441000D02*
D03*
X01019500Y00359000D02*
D03*
X01022500Y00441000D02*
D03*
X01025500Y00359000D02*
D03*
X01028500Y00441000D02*
D03*
X01031500Y00359000D02*
D03*
X01034500Y00441000D02*
D03*
X01037500Y00359000D02*
D03*
X01040500Y00441000D02*
D03*
X01043500Y00359000D02*
D03*
X01046500Y00441000D02*
D03*
X01049500Y00359000D02*
D03*
X01052500Y00441000D02*
D03*
X01055500Y00359000D02*
D03*
X01058500Y00441000D02*
D03*
X01061500Y00359000D02*
D03*
X01064500Y00441000D02*
D03*
X01067500Y00359000D02*
D03*
X01070500Y00441000D02*
D03*
X01073500Y00359000D02*
D03*
X01076500Y00441000D02*
D03*
X01109500Y00359000D02*
D03*
X01112500Y00441000D02*
D03*
X01115500Y00359000D02*
D03*
X01118500Y00441000D02*
D03*
X01127500Y00359000D02*
D03*
X01130500Y00441000D02*
D03*
X01133500Y00359000D02*
D03*
X01142500Y00441000D02*
D03*
X01145500Y00359000D02*
D03*
X01148500Y00441000D02*
D03*
X01151500Y00359000D02*
D03*
X01160500Y00441000D02*
D03*
X01163500Y00359000D02*
D03*
X01166500Y00441000D02*
D03*
X01169500Y00359000D02*
D03*
X01178500Y00441000D02*
D03*
X01181500Y00359000D02*
D03*
X01184500Y00441000D02*
D03*
X01193500Y00359000D02*
D03*
X01196500Y00441000D02*
D03*
X01199500Y00359000D02*
D03*
X01202500Y00441000D02*
D03*
X01211500Y00359000D02*
D03*
X01214500Y00441000D02*
D03*
X01217500Y00359000D02*
D03*
X01220500Y00441000D02*
D03*
X01229500Y00359000D02*
D03*
X01232500Y00441000D02*
D03*
X01235500Y00359000D02*
D03*
X01238500Y00441000D02*
D03*
X01247500Y00359000D02*
D03*
X01250500Y00441000D02*
D03*
X01253500Y00359000D02*
D03*
X01265500D02*
D03*
X01268500Y00441000D02*
D03*
X01271500Y00359000D02*
D03*
X01274500Y00441000D02*
D03*
X01283500Y00359000D02*
D03*
X01286500Y00441000D02*
D03*
X01289500Y00359000D02*
D03*
X01298500Y00441000D02*
D03*
X01301500Y00359000D02*
D03*
X01304500Y00441000D02*
D03*
X01307500Y00359000D02*
D03*
X01316500Y00441000D02*
D03*
X01256500D02*
D03*
X00752500D02*
D03*
X00734500D02*
D03*
X00698500D02*
D03*
X01313500Y00359000D02*
D03*
X01310500Y00441000D02*
D03*
X01295500Y00359000D02*
D03*
X01292500Y00441000D02*
D03*
X01280500D02*
D03*
X01277500Y00359000D02*
D03*
X01262500Y00441000D02*
D03*
X01259500Y00359000D02*
D03*
X01244500Y00441000D02*
D03*
X01241500Y00359000D02*
D03*
X01226500Y00441000D02*
D03*
X01223500Y00359000D02*
D03*
X01208500Y00441000D02*
D03*
X01205500Y00359000D02*
D03*
X01190500Y00441000D02*
D03*
X01187500Y00359000D02*
D03*
X01175500D02*
D03*
X01172500Y00441000D02*
D03*
X01157500Y00359000D02*
D03*
X01154500Y00441000D02*
D03*
X01139500Y00359000D02*
D03*
X01136500Y00441000D02*
D03*
X01124500D02*
D03*
X01121500Y00359000D02*
D03*
X01106500Y00441000D02*
D03*
X01103500Y00359000D02*
D03*
X00914500Y00441000D02*
D03*
X00911500Y00359000D02*
D03*
X00896500Y00441000D02*
D03*
X00893500Y00359000D02*
D03*
X00881500D02*
D03*
X00878500Y00441000D02*
D03*
X00863500Y00359000D02*
D03*
X00860500Y00441000D02*
D03*
X00845500Y00359000D02*
D03*
X00842500Y00441000D02*
D03*
X00830500D02*
D03*
X00827500Y00359000D02*
D03*
X00812500Y00441000D02*
D03*
X00809500Y00359000D02*
D03*
X00794500Y00441000D02*
D03*
X00791500Y00359000D02*
D03*
X00779500Y00359000D02*
D03*
X00776500Y00441000D02*
D03*
X00761500Y00359000D02*
D03*
X00758500Y00441000D02*
D03*
X00743500Y00359000D02*
D03*
X00740500Y00441000D02*
D03*
X00728500D02*
D03*
X00725500Y00359000D02*
D03*
X00710500Y00441000D02*
D03*
X00707500Y00359000D02*
D03*
X00704500Y00441000D02*
D03*
X00692500D02*
D03*
D142*
X00630000Y00287000D02*
D03*
X01370000Y00287000D02*
D03*
D143*
X00315000Y01170000D02*
D03*
Y01178000D02*
D03*
Y01186000D02*
D03*
X00315000Y01194000D02*
D03*
Y01202000D02*
D03*
X00315000Y01210000D02*
D03*
Y01218000D02*
D03*
Y01226000D02*
D03*
X00395000Y01174000D02*
D03*
Y01182000D02*
D03*
X00395000Y01198000D02*
D03*
Y01206000D02*
D03*
X00395000Y01222000D02*
D03*
Y01230000D02*
D03*
Y01238000D02*
D03*
Y01214000D02*
D03*
Y01190000D02*
D03*
X00395000Y01166000D02*
D03*
X00315000Y01234000D02*
D03*
X00315000Y01162000D02*
D03*
Y00662000D02*
D03*
X00315000Y00734000D02*
D03*
X00395000Y00666000D02*
D03*
X00395000Y00690000D02*
D03*
Y00714000D02*
D03*
Y00738000D02*
D03*
X00315000Y00912000D02*
D03*
X00315000Y00984000D02*
D03*
X00395000Y00916000D02*
D03*
X00395000Y00940000D02*
D03*
Y00964000D02*
D03*
Y00988000D02*
D03*
X00315000Y00412000D02*
D03*
X00315000Y00484000D02*
D03*
X00395000Y00416000D02*
D03*
X00395000Y00440000D02*
D03*
Y00464000D02*
D03*
Y00488000D02*
D03*
Y00480000D02*
D03*
Y00472000D02*
D03*
X00395000Y00456000D02*
D03*
Y00448000D02*
D03*
X00395000Y00432000D02*
D03*
Y00424000D02*
D03*
X00315000Y00476000D02*
D03*
Y00468000D02*
D03*
Y00460000D02*
D03*
X00315000Y00452000D02*
D03*
Y00444000D02*
D03*
X00315000Y00436000D02*
D03*
Y00428000D02*
D03*
Y00420000D02*
D03*
X00395000Y00980000D02*
D03*
Y00972000D02*
D03*
X00395000Y00956000D02*
D03*
Y00948000D02*
D03*
X00395000Y00932000D02*
D03*
Y00924000D02*
D03*
X00315000Y00976000D02*
D03*
Y00968000D02*
D03*
Y00960000D02*
D03*
X00315000Y00952000D02*
D03*
Y00944000D02*
D03*
X00315000Y00936000D02*
D03*
Y00928000D02*
D03*
Y00920000D02*
D03*
X00395000Y00730000D02*
D03*
Y00722000D02*
D03*
X00395000Y00706000D02*
D03*
Y00698000D02*
D03*
X00395000Y00682000D02*
D03*
Y00674000D02*
D03*
X00315000Y00726000D02*
D03*
Y00718000D02*
D03*
Y00710000D02*
D03*
X00315000Y00702000D02*
D03*
Y00694000D02*
D03*
X00315000Y00686000D02*
D03*
Y00678000D02*
D03*
Y00670000D02*
D03*
D144*
X00702500Y01393250D02*
D03*
X00687500Y01393250D02*
D03*
X00692500Y01393250D02*
D03*
X00697500D02*
D03*
X00705000Y01328750D02*
D03*
X00690000D02*
D03*
X00695000D02*
D03*
X00700000Y01328750D02*
D03*
X00542500Y01393250D02*
D03*
X00555000Y01328750D02*
D03*
X00560000Y01328750D02*
D03*
X00565000D02*
D03*
X00562500Y01393250D02*
D03*
X00557500Y01393250D02*
D03*
X00595000Y01328750D02*
D03*
X00590000D02*
D03*
X00597500Y01393250D02*
D03*
X00592500D02*
D03*
X00627500D02*
D03*
X00625000Y01328750D02*
D03*
X00620000D02*
D03*
X00647500Y01393250D02*
D03*
X00642500D02*
D03*
X00632500D02*
D03*
X00645000Y01328750D02*
D03*
X00640000D02*
D03*
X00635000D02*
D03*
X00630000D02*
D03*
X00662500Y01393250D02*
D03*
X00657500D02*
D03*
X00665000Y01328750D02*
D03*
X00660000D02*
D03*
X00655000D02*
D03*
X00650000D02*
D03*
X00677500Y01393250D02*
D03*
X00672500D02*
D03*
X00680000Y01328750D02*
D03*
X00675000D02*
D03*
X00670000Y01328750D02*
D03*
X00707500Y01393250D02*
D03*
X00712500D02*
D03*
X00727500D02*
D03*
X00710000Y01328750D02*
D03*
X00600000D02*
D03*
X00605000D02*
D03*
X00610000D02*
D03*
X00615000D02*
D03*
X00602500Y01393250D02*
D03*
X00612500D02*
D03*
X00617500D02*
D03*
X00685000Y01328750D02*
D03*
X00725000Y01328750D02*
D03*
X00720000Y01328750D02*
D03*
X00715000D02*
D03*
X00550000D02*
D03*
X00545000D02*
D03*
X00607500Y01393250D02*
D03*
X00722500D02*
D03*
X00717500D02*
D03*
X00682500D02*
D03*
X00652500D02*
D03*
X00667500D02*
D03*
X00637500D02*
D03*
X00622500D02*
D03*
X00552500D02*
D03*
X00567500D02*
D03*
X00547500D02*
D03*
D145*
X00531500Y01391000D02*
D03*
X00738500Y01391000D02*
D03*
D146*
X01402750Y01295000D02*
D03*
X01390250D02*
D03*
X01377750D02*
D03*
X01365250D02*
D03*
X01896250Y01519000D02*
D03*
X01908750Y01519000D02*
D03*
X01921250D02*
D03*
X01933750Y01519000D02*
D03*
D147*
X01428250Y01268500D02*
D03*
X01339750D02*
D03*
X01870750Y01492500D02*
D03*
X01959250D02*
D03*
D148*
X01741000Y00110250D02*
D03*
X01721000Y00110250D02*
D03*
X01701000D02*
D03*
X01681000D02*
D03*
X01661000Y00110250D02*
D03*
X01641000Y00110250D02*
D03*
X01621000D02*
D03*
Y00067750D02*
D03*
X01641000D02*
D03*
X01661000Y00067750D02*
D03*
X01681000D02*
D03*
X01701000Y00067750D02*
D03*
X01721000Y00067750D02*
D03*
X01741000D02*
D03*
D149*
X01911000Y00193000D02*
D03*
Y00230000D02*
D03*
D150*
X00345500Y00080000D02*
D03*
Y00054601D02*
D03*
Y00105401D02*
D03*
X00434500D02*
D03*
Y00054601D02*
D03*
Y00080000D02*
D03*
X01457750Y00132500D02*
D03*
Y00157900D02*
D03*
Y00107100D02*
D03*
X00434500Y00170000D02*
D03*
X00434500Y00144600D02*
D03*
Y00195401D02*
D03*
X00434500Y00260000D02*
D03*
Y00234601D02*
D03*
Y00285401D02*
D03*
X00345500D02*
D03*
Y00234601D02*
D03*
Y00260000D02*
D03*
Y00195401D02*
D03*
Y00144600D02*
D03*
X00345500Y00170000D02*
D03*
X01546750Y00107100D02*
D03*
Y00157900D02*
D03*
Y00132500D02*
D03*
D151*
X00144000Y00052501D02*
D03*
Y00097500D02*
D03*
X00186000D02*
D03*
Y00052501D02*
D03*
X01459000Y00272500D02*
D03*
X01459000Y00317500D02*
D03*
X00086000Y00152500D02*
D03*
Y00197500D02*
D03*
X00186000Y00152500D02*
D03*
Y00197500D02*
D03*
X00286000Y00152500D02*
D03*
Y00197500D02*
D03*
X00186000Y00252500D02*
D03*
Y00297500D02*
D03*
X01501000Y00242500D02*
D03*
Y00197500D02*
D03*
X00144000Y00297500D02*
D03*
Y00252500D02*
D03*
X00244000Y00197500D02*
D03*
Y00152500D02*
D03*
X00144000Y00197500D02*
D03*
Y00152500D02*
D03*
X00044000Y00197500D02*
D03*
Y00152500D02*
D03*
X01459000Y00197500D02*
D03*
Y00242500D02*
D03*
X01501000Y00317500D02*
D03*
X01501000Y00272500D02*
D03*
D152*
X01987900Y00683000D02*
D03*
X02082100D02*
D03*
X01987900Y00573000D02*
D03*
X01987900Y00583000D02*
D03*
Y00593000D02*
D03*
Y00603000D02*
D03*
Y00613000D02*
D03*
Y00623000D02*
D03*
Y00633000D02*
D03*
Y00643000D02*
D03*
Y00653000D02*
D03*
Y00663000D02*
D03*
Y00673000D02*
D03*
X02082100D02*
D03*
Y00663000D02*
D03*
Y00653000D02*
D03*
Y00643000D02*
D03*
Y00633000D02*
D03*
Y00623000D02*
D03*
Y00613000D02*
D03*
Y00603000D02*
D03*
Y00593000D02*
D03*
Y00583000D02*
D03*
X02082100Y00573000D02*
D03*
D153*
X00756000Y00237500D02*
D03*
X00741000Y00237500D02*
D03*
X00751000Y00265500D02*
D03*
X00756000D02*
D03*
X00761000D02*
D03*
X00741000D02*
D03*
X00761000Y00237500D02*
D03*
X00746000D02*
D03*
Y00265500D02*
D03*
X00751000Y00237500D02*
D03*
D154*
Y00251500D02*
D03*
D155*
X01804500Y00892750D02*
D03*
X01798000D02*
D03*
X01791500D02*
D03*
Y00871250D02*
D03*
X01804500D02*
D03*
X00902250Y01740000D02*
D03*
X00908750D02*
D03*
X00915250D02*
D03*
Y01714000D02*
D03*
X00908750D02*
D03*
X00902250D02*
D03*
X00921750D02*
D03*
Y01740000D02*
D03*
X00954750Y01714000D02*
D03*
X00935250D02*
D03*
X00941750D02*
D03*
X00948250D02*
D03*
X00954750Y01740000D02*
D03*
X00948250D02*
D03*
X00941750D02*
D03*
X00935250D02*
D03*
D156*
X01950000Y00217250D02*
D03*
D157*
X01940000Y00206250D02*
D03*
X01945000Y00206250D02*
D03*
X01940000Y00217750D02*
D03*
X01950000Y00206250D02*
D03*
X01945000Y00217750D02*
D03*
D158*
X02143000Y00267500D02*
D03*
X02139000D02*
D03*
X02135000Y00267500D02*
D03*
X02131000Y00267500D02*
D03*
X02127000Y00267500D02*
D03*
X02123000Y00267500D02*
D03*
X02119000D02*
D03*
X02115000D02*
D03*
X02111000Y00267500D02*
D03*
X02107000Y00267500D02*
D03*
X02103000Y00267500D02*
D03*
X02099000Y00267500D02*
D03*
X02095000D02*
D03*
X02091000D02*
D03*
X02087000Y00267500D02*
D03*
X02083000D02*
D03*
X02079000D02*
D03*
X02075000Y00267500D02*
D03*
X02071000D02*
D03*
X02071000Y00180500D02*
D03*
X02075000D02*
D03*
X02079000Y00180500D02*
D03*
X02083000D02*
D03*
X02087000D02*
D03*
X02091000Y00180500D02*
D03*
X02095000Y00180500D02*
D03*
X02099000Y00180500D02*
D03*
X02103000Y00180500D02*
D03*
X02107000D02*
D03*
X02111000D02*
D03*
X02115000Y00180500D02*
D03*
X02119000Y00180500D02*
D03*
X02123000Y00180500D02*
D03*
X02127000Y00180500D02*
D03*
X02131000D02*
D03*
X02135000D02*
D03*
X02139000Y00180500D02*
D03*
X02143000Y00180500D02*
D03*
D159*
X02063500Y00260000D02*
D03*
Y00256000D02*
D03*
Y00252000D02*
D03*
Y00248000D02*
D03*
Y00244000D02*
D03*
Y00240000D02*
D03*
Y00236000D02*
D03*
Y00232000D02*
D03*
Y00228000D02*
D03*
Y00224000D02*
D03*
Y00220000D02*
D03*
Y00216000D02*
D03*
Y00212000D02*
D03*
Y00208000D02*
D03*
Y00204000D02*
D03*
Y00200000D02*
D03*
Y00196000D02*
D03*
Y00192000D02*
D03*
Y00188000D02*
D03*
X02150500D02*
D03*
Y00192000D02*
D03*
Y00196000D02*
D03*
Y00200000D02*
D03*
Y00204000D02*
D03*
Y00208000D02*
D03*
Y00212000D02*
D03*
Y00216000D02*
D03*
Y00220000D02*
D03*
Y00224000D02*
D03*
Y00228000D02*
D03*
Y00232000D02*
D03*
Y00236000D02*
D03*
Y00240000D02*
D03*
Y00244000D02*
D03*
Y00248000D02*
D03*
Y00256000D02*
D03*
Y00260000D02*
D03*
Y00252000D02*
D03*
D160*
X02107000Y00224000D02*
D03*
D161*
X02234000Y00303000D02*
D03*
X02209500D02*
D03*
Y00322000D02*
D03*
X02234000D02*
D03*
X02209500Y00312500D02*
D03*
D162*
X02153000Y00079000D02*
D03*
D163*
X01891250Y00624500D02*
D03*
X01827750Y00524500D02*
D03*
X01815050Y00524500D02*
D03*
Y00624500D02*
D03*
X01827750Y00624500D02*
D03*
X01903950Y00624500D02*
D03*
X01903950Y00524500D02*
D03*
X01891250Y00524500D02*
D03*
X01878550Y00624500D02*
D03*
X01865850D02*
D03*
X01853150Y00624500D02*
D03*
X01840450D02*
D03*
X01878550Y00524500D02*
D03*
X01865850Y00524500D02*
D03*
X01853150D02*
D03*
X01840450D02*
D03*
D164*
X02046500Y01548500D02*
D03*
Y01553500D02*
D03*
X02046500Y01558500D02*
D03*
Y01563500D02*
D03*
Y01568500D02*
D03*
X02046500Y01573500D02*
D03*
Y01543500D02*
D03*
X02079500D02*
D03*
Y01573500D02*
D03*
Y01568500D02*
D03*
Y01563500D02*
D03*
X02079500Y01558500D02*
D03*
X02079500Y01553500D02*
D03*
Y01548500D02*
D03*
Y01578500D02*
D03*
X02046500Y01578500D02*
D03*
D165*
X02055500Y01581500D02*
D03*
X02070500D02*
D03*
X02055500Y01540500D02*
D03*
X02070500D02*
D03*
D166*
X02063000Y01561000D02*
D03*
D167*
X01922192Y01804586D02*
D03*
D168*
X01906777Y01778564D02*
D03*
X01885564Y01799778D02*
D03*
X01927001Y01841214D02*
D03*
X01948214Y01820001D02*
D03*
X01917384Y01767958D02*
D03*
X01896171Y01789171D02*
D03*
X01937607Y01830607D02*
D03*
X01958820Y01809394D02*
D03*
X01955285Y01812930D02*
D03*
X01951750Y01816465D02*
D03*
X01944678Y01823536D02*
D03*
X01941143Y01827072D02*
D03*
X01934072Y01834143D02*
D03*
X01930536Y01837678D02*
D03*
X01889100Y01796242D02*
D03*
X01892635Y01792706D02*
D03*
X01899706Y01785635D02*
D03*
X01903242Y01782100D02*
D03*
X01910313Y01775029D02*
D03*
X01913849Y01771493D02*
D03*
X01896514Y01660171D02*
D03*
X01907121Y01649564D02*
D03*
X01917727Y01638958D02*
D03*
X01914192Y01642493D02*
D03*
X01910656Y01646029D02*
D03*
X01903585Y01653100D02*
D03*
X01900050Y01656635D02*
D03*
X01892979Y01663706D02*
D03*
X01889443Y01667242D02*
D03*
X01885907Y01670777D02*
D03*
X01927344Y01712214D02*
D03*
X01930879Y01708678D02*
D03*
X01934415Y01705143D02*
D03*
X01937950Y01701607D02*
D03*
X01941486Y01698072D02*
D03*
X01945022Y01694536D02*
D03*
X01948557Y01691001D02*
D03*
X01952093Y01687465D02*
D03*
X01955628Y01683930D02*
D03*
X01959164Y01680394D02*
D03*
D169*
X01899706Y01823536D02*
D03*
X01917384Y01841214D02*
D03*
X01951750Y01792706D02*
D03*
X01934072Y01775029D02*
D03*
X01896171Y01820001D02*
D03*
X01906777Y01830607D02*
D03*
X01937607Y01778564D02*
D03*
X01927001Y01767958D02*
D03*
X01930536Y01771493D02*
D03*
X01941143Y01782100D02*
D03*
X01944678Y01785635D02*
D03*
X01948214Y01789171D02*
D03*
X01955285Y01796242D02*
D03*
X01958820Y01799778D02*
D03*
X01913849Y01837678D02*
D03*
X01910313Y01834143D02*
D03*
X01903242Y01827072D02*
D03*
X01892635Y01816465D02*
D03*
X01889100Y01812930D02*
D03*
X01885564Y01809394D02*
D03*
X01948557Y01660171D02*
D03*
X01934415Y01646029D02*
D03*
X01959164Y01670777D02*
D03*
X01955628Y01667242D02*
D03*
X01952093Y01663706D02*
D03*
X01945022Y01656635D02*
D03*
X01941486Y01653100D02*
D03*
X01937950Y01649564D02*
D03*
X01930879Y01642493D02*
D03*
X01927344Y01638958D02*
D03*
X01885907Y01680394D02*
D03*
X01889443Y01683930D02*
D03*
X01892979Y01687465D02*
D03*
X01896514Y01691001D02*
D03*
X01900050Y01694536D02*
D03*
X01903585Y01698072D02*
D03*
X01907121Y01701607D02*
D03*
X01910656Y01705143D02*
D03*
X01914192Y01708678D02*
D03*
X01917727Y01712214D02*
D03*
D170*
X02062150Y01852600D02*
D03*
Y01847600D02*
D03*
Y01842600D02*
D03*
X02042650Y01847600D02*
D03*
Y01842600D02*
D03*
Y01852600D02*
D03*
D171*
X02052400Y01847600D02*
D03*
D172*
X01922536Y01675586D02*
D03*
D173*
X00616100Y01169000D02*
D03*
Y01174000D02*
D03*
Y01179000D02*
D03*
Y01184000D02*
D03*
Y01194000D02*
D03*
Y01199000D02*
D03*
Y01209000D02*
D03*
X00561900Y01199000D02*
D03*
Y01194000D02*
D03*
Y01189000D02*
D03*
Y01169000D02*
D03*
X00616100Y01189000D02*
D03*
X00561900Y01174000D02*
D03*
Y01179000D02*
D03*
Y01184000D02*
D03*
Y01204000D02*
D03*
Y01209000D02*
D03*
X00616100Y01204000D02*
D03*
D174*
X00604000Y01216100D02*
D03*
X00599000D02*
D03*
X00594000D02*
D03*
X00589000D02*
D03*
X00584000D02*
D03*
X00579000D02*
D03*
X00574000D02*
D03*
X00569000D02*
D03*
X00569000Y01161900D02*
D03*
X00574000D02*
D03*
X00579000D02*
D03*
X00594000D02*
D03*
X00599000D02*
D03*
X00604000D02*
D03*
X00589000D02*
D03*
X00609000Y01216100D02*
D03*
X00609000Y01161900D02*
D03*
X00584000D02*
D03*
D175*
X00589000Y01189000D02*
D03*
D176*
X00668650Y01154000D02*
D03*
Y01158000D02*
D03*
X00659350Y01154000D02*
D03*
Y01158000D02*
D03*
Y01162000D02*
D03*
Y01150000D02*
D03*
X00668650D02*
D03*
Y01162000D02*
D03*
X01758799Y01112999D02*
D03*
Y01108998D02*
D03*
Y01100999D02*
D03*
Y01104998D02*
D03*
Y01088998D02*
D03*
Y01084998D02*
D03*
Y01092999D02*
D03*
Y01096999D02*
D03*
Y01076999D02*
D03*
Y01152999D02*
D03*
Y01148998D02*
D03*
Y01140999D02*
D03*
Y01124998D02*
D03*
Y01132999D02*
D03*
Y01136999D02*
D03*
Y01116999D02*
D03*
Y01120999D02*
D03*
Y01188998D02*
D03*
Y01180999D02*
D03*
Y01184998D02*
D03*
Y01168998D02*
D03*
Y01164998D02*
D03*
Y01176999D02*
D03*
Y01160999D02*
D03*
Y01228998D02*
D03*
Y01220999D02*
D03*
Y01224998D02*
D03*
Y01208998D02*
D03*
X01758799Y01204998D02*
D03*
X01758799Y01216999D02*
D03*
Y01196999D02*
D03*
Y01200999D02*
D03*
X01758799Y01240999D02*
D03*
X01758799Y01236999D02*
D03*
Y01256999D02*
D03*
Y01252999D02*
D03*
Y01244998D02*
D03*
Y01264998D02*
D03*
Y01268998D02*
D03*
X01731499Y01268998D02*
D03*
Y01264998D02*
D03*
Y01244998D02*
D03*
Y01252999D02*
D03*
Y01256999D02*
D03*
Y01236999D02*
D03*
Y01240999D02*
D03*
Y01200999D02*
D03*
Y01196999D02*
D03*
Y01216999D02*
D03*
Y01212999D02*
D03*
Y01204998D02*
D03*
Y01224998D02*
D03*
Y01220999D02*
D03*
Y01232999D02*
D03*
Y01160999D02*
D03*
Y01176999D02*
D03*
Y01172999D02*
D03*
Y01164998D02*
D03*
Y01184998D02*
D03*
Y01180999D02*
D03*
Y01192999D02*
D03*
X01731499Y01136999D02*
D03*
X01731499Y01124998D02*
D03*
Y01128998D02*
D03*
Y01140999D02*
D03*
Y01148998D02*
D03*
Y01152999D02*
D03*
Y01080999D02*
D03*
Y01076999D02*
D03*
Y01096999D02*
D03*
Y01092999D02*
D03*
Y01084998D02*
D03*
Y01088998D02*
D03*
Y01112999D02*
D03*
Y01108998D02*
D03*
Y01100999D02*
D03*
Y01104998D02*
D03*
Y01116999D02*
D03*
Y01120999D02*
D03*
Y01144998D02*
D03*
Y01132999D02*
D03*
Y01188998D02*
D03*
Y01168998D02*
D03*
Y01156999D02*
D03*
X01731499Y01228998D02*
D03*
X01731499Y01208998D02*
D03*
Y01248998D02*
D03*
Y01260999D02*
D03*
Y01272999D02*
D03*
X01758799Y01272999D02*
D03*
Y01260999D02*
D03*
Y01248998D02*
D03*
Y01212999D02*
D03*
Y01232999D02*
D03*
Y01156999D02*
D03*
Y01172999D02*
D03*
Y01192999D02*
D03*
Y01128998D02*
D03*
Y01144998D02*
D03*
Y01080999D02*
D03*
X02098800Y01113000D02*
D03*
Y01109000D02*
D03*
Y01101000D02*
D03*
Y01089000D02*
D03*
Y01085000D02*
D03*
Y01097000D02*
D03*
Y01077000D02*
D03*
X02098800Y01149000D02*
D03*
X02098800Y01145000D02*
D03*
Y01125000D02*
D03*
Y01133000D02*
D03*
Y01137000D02*
D03*
Y01121000D02*
D03*
Y01193000D02*
D03*
Y01181000D02*
D03*
X02098800Y01185000D02*
D03*
X02098800Y01169000D02*
D03*
Y01173000D02*
D03*
Y01157000D02*
D03*
Y01161000D02*
D03*
Y01233000D02*
D03*
Y01229000D02*
D03*
Y01221000D02*
D03*
Y01209000D02*
D03*
Y01205000D02*
D03*
Y01217000D02*
D03*
Y01197000D02*
D03*
Y01241000D02*
D03*
Y01257000D02*
D03*
Y01253000D02*
D03*
Y01245000D02*
D03*
Y01265000D02*
D03*
Y01269000D02*
D03*
Y01273000D02*
D03*
X02071500D02*
D03*
Y01269000D02*
D03*
Y01265000D02*
D03*
Y01245000D02*
D03*
Y01253000D02*
D03*
Y01257000D02*
D03*
Y01241000D02*
D03*
Y01197000D02*
D03*
Y01217000D02*
D03*
Y01205000D02*
D03*
Y01209000D02*
D03*
Y01221000D02*
D03*
Y01229000D02*
D03*
Y01233000D02*
D03*
Y01161000D02*
D03*
Y01157000D02*
D03*
Y01177000D02*
D03*
Y01173000D02*
D03*
Y01169000D02*
D03*
Y01185000D02*
D03*
Y01181000D02*
D03*
Y01189000D02*
D03*
Y01193000D02*
D03*
Y01121000D02*
D03*
Y01137000D02*
D03*
Y01133000D02*
D03*
Y01125000D02*
D03*
Y01145000D02*
D03*
Y01149000D02*
D03*
Y01077000D02*
D03*
Y01097000D02*
D03*
Y01085000D02*
D03*
Y01089000D02*
D03*
Y01101000D02*
D03*
Y01109000D02*
D03*
Y01113000D02*
D03*
Y01105000D02*
D03*
Y01093000D02*
D03*
Y01081000D02*
D03*
Y01153000D02*
D03*
Y01141000D02*
D03*
Y01129000D02*
D03*
Y01117000D02*
D03*
Y01165000D02*
D03*
Y01225000D02*
D03*
Y01213000D02*
D03*
Y01201000D02*
D03*
Y01237000D02*
D03*
Y01249000D02*
D03*
Y01261000D02*
D03*
X02098800Y01261000D02*
D03*
Y01249000D02*
D03*
Y01237000D02*
D03*
Y01201000D02*
D03*
Y01213000D02*
D03*
Y01225000D02*
D03*
Y01177000D02*
D03*
Y01165000D02*
D03*
Y01189000D02*
D03*
Y01117000D02*
D03*
Y01129000D02*
D03*
Y01141000D02*
D03*
Y01153000D02*
D03*
Y01081000D02*
D03*
X02098800Y01093000D02*
D03*
X02098800Y01105000D02*
D03*
D177*
X01441125Y01786150D02*
D03*
X01412875Y01781150D02*
D03*
Y01786150D02*
D03*
X01412875Y01771150D02*
D03*
X01412875Y01776150D02*
D03*
X01441125Y01781150D02*
D03*
Y01776150D02*
D03*
X01441125Y01771150D02*
D03*
D178*
X01427000Y01778650D02*
D03*
D179*
X01222500Y01495300D02*
D03*
Y01508000D02*
D03*
Y01558800D02*
D03*
Y01571500D02*
D03*
Y01444500D02*
D03*
Y01457200D02*
D03*
X01222500Y01546100D02*
D03*
X01222500Y01533400D02*
D03*
Y01520700D02*
D03*
X01222500Y01482600D02*
D03*
X01222500Y01469900D02*
D03*
X01267500Y01648900D02*
D03*
Y01661600D02*
D03*
X01267500Y01674300D02*
D03*
X01267500Y01712400D02*
D03*
Y01725100D02*
D03*
X01267500Y01750500D02*
D03*
Y01737800D02*
D03*
Y01636200D02*
D03*
Y01623500D02*
D03*
Y01699700D02*
D03*
Y01687000D02*
D03*
X00275500Y02182100D02*
D03*
X00275500Y02156700D02*
D03*
Y02144000D02*
D03*
Y02093200D02*
D03*
Y02080500D02*
D03*
Y02207500D02*
D03*
Y02194800D02*
D03*
Y02105900D02*
D03*
Y02118600D02*
D03*
Y02131300D02*
D03*
Y02169400D02*
D03*
D180*
X01124000Y01508000D02*
D03*
X01366000Y01687000D02*
D03*
X00374000Y02144000D02*
D03*
D181*
X01041500Y01758498D02*
D03*
X01068500Y01777498D02*
D03*
Y01758498D02*
D03*
X01041500Y01767998D02*
D03*
Y01777498D02*
D03*
Y01741498D02*
D03*
Y01731998D02*
D03*
X01068500Y01722498D02*
D03*
Y01741498D02*
D03*
X01041500Y01722498D02*
D03*
X00060500Y00272500D02*
D03*
X00033500Y00253500D02*
D03*
Y00272500D02*
D03*
X00060500Y00263000D02*
D03*
X00060500Y00253500D02*
D03*
D182*
X01336000Y01027000D02*
D03*
D183*
X01361400Y01047000D02*
D03*
X01310600Y01007000D02*
D03*
X01361400D02*
D03*
X01310600Y01047000D02*
D03*
D184*
X00651000Y01197250D02*
D03*
X00673000Y01214750D02*
D03*
X00651000D02*
D03*
X00673000Y01197250D02*
D03*
D185*
X00702000Y01069000D02*
D03*
X00686000Y01081000D02*
D03*
X00702000D02*
D03*
X00702000Y01093000D02*
D03*
X00686000Y01093000D02*
D03*
Y01069000D02*
D03*
X00916000Y00740000D02*
D03*
X00654000Y01247000D02*
D03*
X00916000Y00764000D02*
D03*
X00932000Y00764000D02*
D03*
X00654000Y01271000D02*
D03*
X00670000D02*
D03*
Y01259000D02*
D03*
X00654000D02*
D03*
X00670000Y01247000D02*
D03*
X00932000Y00752000D02*
D03*
X00916000D02*
D03*
X00932000Y00740000D02*
D03*
D186*
X00012000Y01312500D02*
D03*
Y01297500D02*
D03*
X00012000Y00547500D02*
D03*
Y00562500D02*
D03*
Y00577500D02*
D03*
Y00592500D02*
D03*
X00012000Y01327500D02*
D03*
Y01342500D02*
D03*
X00012000Y00827500D02*
D03*
X00012000Y00842500D02*
D03*
X00012000Y00797500D02*
D03*
Y00812500D02*
D03*
Y01047500D02*
D03*
Y01062500D02*
D03*
Y01077500D02*
D03*
Y01092500D02*
D03*
X00009000Y00279500D02*
D03*
Y00329500D02*
D03*
X02284000Y02127500D02*
D03*
X00009000Y00244500D02*
D03*
X02283000Y01164500D02*
D03*
Y01179500D02*
D03*
Y01202500D02*
D03*
Y01217500D02*
D03*
X02284000Y02112500D02*
D03*
X00009000Y00229500D02*
D03*
Y00344500D02*
D03*
Y00294500D02*
D03*
D187*
X00348350Y01629900D02*
D03*
Y01633900D02*
D03*
Y01637900D02*
D03*
Y01641900D02*
D03*
Y01645900D02*
D03*
Y01649900D02*
D03*
Y01653900D02*
D03*
Y01657900D02*
D03*
Y01661900D02*
D03*
Y01665900D02*
D03*
Y01669900D02*
D03*
Y01673900D02*
D03*
Y01677900D02*
D03*
Y01681900D02*
D03*
Y01685900D02*
D03*
Y01689900D02*
D03*
Y01693900D02*
D03*
Y01697900D02*
D03*
Y01701900D02*
D03*
Y01705900D02*
D03*
Y01709900D02*
D03*
Y01713900D02*
D03*
Y01717900D02*
D03*
Y01721900D02*
D03*
Y01725900D02*
D03*
Y01729900D02*
D03*
Y01733900D02*
D03*
Y01737900D02*
D03*
Y01741900D02*
D03*
Y01745900D02*
D03*
X00301650Y01629900D02*
D03*
Y01633900D02*
D03*
Y01637900D02*
D03*
Y01641900D02*
D03*
Y01645900D02*
D03*
Y01649900D02*
D03*
Y01653900D02*
D03*
Y01657900D02*
D03*
Y01661900D02*
D03*
Y01665900D02*
D03*
Y01669900D02*
D03*
Y01673900D02*
D03*
Y01677900D02*
D03*
Y01681900D02*
D03*
Y01685900D02*
D03*
Y01689900D02*
D03*
Y01693900D02*
D03*
Y01697900D02*
D03*
Y01701900D02*
D03*
Y01705900D02*
D03*
Y01709900D02*
D03*
Y01713900D02*
D03*
Y01717900D02*
D03*
Y01721900D02*
D03*
Y01725900D02*
D03*
Y01729900D02*
D03*
Y01733900D02*
D03*
Y01737900D02*
D03*
Y01741900D02*
D03*
Y01745900D02*
D03*
Y01517300D02*
D03*
Y01513300D02*
D03*
Y01509300D02*
D03*
Y01505300D02*
D03*
Y01501300D02*
D03*
Y01497300D02*
D03*
Y01493300D02*
D03*
Y01489300D02*
D03*
Y01485300D02*
D03*
Y01481300D02*
D03*
Y01477300D02*
D03*
Y01473300D02*
D03*
Y01469300D02*
D03*
Y01465300D02*
D03*
Y01461300D02*
D03*
Y01457300D02*
D03*
Y01453300D02*
D03*
Y01449300D02*
D03*
Y01445300D02*
D03*
Y01441300D02*
D03*
Y01437300D02*
D03*
Y01433300D02*
D03*
Y01429300D02*
D03*
Y01425300D02*
D03*
Y01421300D02*
D03*
Y01417300D02*
D03*
Y01413300D02*
D03*
Y01409300D02*
D03*
Y01405300D02*
D03*
Y01401300D02*
D03*
X00348350Y01517300D02*
D03*
Y01513300D02*
D03*
Y01509300D02*
D03*
Y01505300D02*
D03*
Y01501300D02*
D03*
Y01497300D02*
D03*
Y01493300D02*
D03*
Y01489300D02*
D03*
Y01485300D02*
D03*
Y01481300D02*
D03*
Y01477300D02*
D03*
Y01473300D02*
D03*
Y01469300D02*
D03*
Y01465300D02*
D03*
Y01461300D02*
D03*
Y01457300D02*
D03*
Y01453300D02*
D03*
Y01449300D02*
D03*
Y01445300D02*
D03*
Y01441300D02*
D03*
Y01437300D02*
D03*
Y01433300D02*
D03*
Y01429300D02*
D03*
Y01425300D02*
D03*
Y01421300D02*
D03*
Y01417300D02*
D03*
Y01413300D02*
D03*
Y01409300D02*
D03*
Y01405300D02*
D03*
Y01401300D02*
D03*
D188*
X02079850Y02050000D02*
D03*
X02016150D02*
D03*
D189*
X02178350Y01376000D02*
D03*
X02153650Y01366500D02*
D03*
Y01385500D02*
D03*
X01499300Y01720500D02*
D03*
X01524000Y01730000D02*
D03*
X01524000Y01711000D02*
D03*
X01499300Y01756500D02*
D03*
X01524000Y01766000D02*
D03*
Y01747000D02*
D03*
X02051950Y01911500D02*
D03*
Y01892500D02*
D03*
X02027250Y01902000D02*
D03*
D190*
X01622000Y00504000D02*
D03*
X01632000Y00554000D02*
D03*
Y00499000D02*
D03*
X01637000Y00534000D02*
D03*
Y00524000D02*
D03*
Y00504000D02*
D03*
X01642000Y00564000D02*
D03*
Y00499000D02*
D03*
X01647000Y00544000D02*
D03*
X01652000Y00519000D02*
D03*
X01662000Y00529000D02*
D03*
X01627000Y00499000D02*
D03*
X01632000Y00509000D02*
D03*
Y00504000D02*
D03*
X01637000Y00499000D02*
D03*
X01642000Y00554000D02*
D03*
X01637000Y00539000D02*
D03*
X01642000Y00544000D02*
D03*
X01657000Y00519000D02*
D03*
X01662000Y00524000D02*
D03*
X01682000Y00499000D02*
D03*
Y00504000D02*
D03*
Y00509000D02*
D03*
Y00514000D02*
D03*
Y00519000D02*
D03*
Y00524000D02*
D03*
Y00529000D02*
D03*
Y00534000D02*
D03*
Y00539000D02*
D03*
Y00544000D02*
D03*
Y00549000D02*
D03*
Y00554000D02*
D03*
Y00559000D02*
D03*
Y00564000D02*
D03*
X01677000Y00499000D02*
D03*
Y00504000D02*
D03*
Y00509000D02*
D03*
Y00514000D02*
D03*
Y00519000D02*
D03*
Y00524000D02*
D03*
Y00529000D02*
D03*
Y00534000D02*
D03*
Y00539000D02*
D03*
Y00544000D02*
D03*
Y00549000D02*
D03*
Y00554000D02*
D03*
Y00559000D02*
D03*
Y00564000D02*
D03*
X01672000Y00499000D02*
D03*
Y00504000D02*
D03*
Y00509000D02*
D03*
Y00514000D02*
D03*
Y00519000D02*
D03*
Y00524000D02*
D03*
Y00529000D02*
D03*
Y00534000D02*
D03*
Y00539000D02*
D03*
Y00544000D02*
D03*
Y00549000D02*
D03*
Y00554000D02*
D03*
Y00559000D02*
D03*
Y00564000D02*
D03*
X01667000Y00499000D02*
D03*
Y00504000D02*
D03*
Y00509000D02*
D03*
Y00554000D02*
D03*
Y00559000D02*
D03*
Y00564000D02*
D03*
X01662000Y00499000D02*
D03*
Y00504000D02*
D03*
Y00509000D02*
D03*
Y00519000D02*
D03*
Y00534000D02*
D03*
Y00539000D02*
D03*
Y00544000D02*
D03*
Y00554000D02*
D03*
Y00559000D02*
D03*
Y00564000D02*
D03*
X01657000Y00499000D02*
D03*
Y00504000D02*
D03*
Y00509000D02*
D03*
Y00544000D02*
D03*
Y00554000D02*
D03*
Y00559000D02*
D03*
Y00564000D02*
D03*
X01652000Y00499000D02*
D03*
Y00504000D02*
D03*
Y00509000D02*
D03*
Y00544000D02*
D03*
Y00554000D02*
D03*
Y00559000D02*
D03*
Y00564000D02*
D03*
X01647000Y00499000D02*
D03*
Y00504000D02*
D03*
Y00509000D02*
D03*
Y00519000D02*
D03*
Y00554000D02*
D03*
Y00559000D02*
D03*
Y00564000D02*
D03*
X01642000Y00504000D02*
D03*
Y00509000D02*
D03*
Y00519000D02*
D03*
Y00559000D02*
D03*
X01637000Y00509000D02*
D03*
Y00519000D02*
D03*
Y00529000D02*
D03*
Y00544000D02*
D03*
Y00554000D02*
D03*
Y00559000D02*
D03*
Y00564000D02*
D03*
X01632000Y00549000D02*
D03*
Y00559000D02*
D03*
Y00564000D02*
D03*
X01627000Y00504000D02*
D03*
Y00509000D02*
D03*
Y00514000D02*
D03*
Y00519000D02*
D03*
Y00524000D02*
D03*
Y00529000D02*
D03*
Y00534000D02*
D03*
Y00539000D02*
D03*
Y00544000D02*
D03*
Y00549000D02*
D03*
Y00554000D02*
D03*
Y00559000D02*
D03*
Y00564000D02*
D03*
X01622000Y00499000D02*
D03*
Y00509000D02*
D03*
Y00514000D02*
D03*
Y00519000D02*
D03*
Y00524000D02*
D03*
Y00529000D02*
D03*
Y00534000D02*
D03*
Y00539000D02*
D03*
Y00544000D02*
D03*
Y00549000D02*
D03*
Y00554000D02*
D03*
Y00559000D02*
D03*
Y00564000D02*
D03*
X01617000Y00499000D02*
D03*
Y00504000D02*
D03*
Y00509000D02*
D03*
Y00514000D02*
D03*
Y00519000D02*
D03*
Y00524000D02*
D03*
Y00529000D02*
D03*
Y00534000D02*
D03*
Y00539000D02*
D03*
Y00544000D02*
D03*
Y00549000D02*
D03*
Y00554000D02*
D03*
Y00559000D02*
D03*
Y00564000D02*
D03*
D191*
X01032002Y02052000D02*
D03*
X01032002Y02072000D02*
D03*
X00857998Y02052000D02*
D03*
X00857998Y02072000D02*
D03*
X00667999Y02052000D02*
D03*
Y02072000D02*
D03*
X00842002Y02052000D02*
D03*
Y02072000D02*
D03*
X00642002Y02052000D02*
D03*
X00642002Y02072000D02*
D03*
X00467999Y02052000D02*
D03*
Y02072000D02*
D03*
X01062998D02*
D03*
X01237002Y02072000D02*
D03*
X01662998Y02072000D02*
D03*
X01837002Y02072000D02*
D03*
X01462998Y02072000D02*
D03*
X01637002Y02072000D02*
D03*
X01262998Y02072000D02*
D03*
X01437002Y02072000D02*
D03*
X00723498Y00260500D02*
D03*
X00723502Y00313500D02*
D03*
X00739002D02*
D03*
X00758502D02*
D03*
X00774002D02*
D03*
X00778002Y00250500D02*
D03*
X01958002Y00181000D02*
D03*
X01941998Y00230000D02*
D03*
X01437002Y02052000D02*
D03*
X01837002Y02052000D02*
D03*
X01637002D02*
D03*
X00778002Y00230500D02*
D03*
X01942002Y00181000D02*
D03*
X01062998Y02052000D02*
D03*
X01662998Y02052000D02*
D03*
X01462998Y02052000D02*
D03*
X01262998Y02052000D02*
D03*
X01942002Y00161000D02*
D03*
X01941998Y00250000D02*
D03*
X01958002Y00161000D02*
D03*
X00774002Y00293500D02*
D03*
X00758502Y00293500D02*
D03*
X00739002D02*
D03*
X00723502D02*
D03*
X00723499Y00280500D02*
D03*
X01237002Y02052000D02*
D03*
D192*
X00880000Y02004000D02*
D03*
X00910000D02*
D03*
X00690000D02*
D03*
X00720000D02*
D03*
X00490000Y02004000D02*
D03*
X00520000D02*
D03*
X01515000D02*
D03*
X01115000Y02004000D02*
D03*
X01715000Y02004000D02*
D03*
X01315000Y02004000D02*
D03*
X01485000Y02004000D02*
D03*
X01085000Y02004000D02*
D03*
X01685000Y02004000D02*
D03*
X01285000Y02004000D02*
D03*
D193*
X00919600Y02038500D02*
D03*
X00957700Y02038500D02*
D03*
X00970400Y02038500D02*
D03*
X00983100D02*
D03*
X00995800Y02038500D02*
D03*
X01008500Y02038500D02*
D03*
X00894200Y02038500D02*
D03*
X00881500Y02038500D02*
D03*
X00945000D02*
D03*
X00932300Y02038500D02*
D03*
X00906900Y02038500D02*
D03*
X00729600Y02038500D02*
D03*
X00767700D02*
D03*
X00780400D02*
D03*
X00793100D02*
D03*
X00805800D02*
D03*
X00818500D02*
D03*
X00704200D02*
D03*
X00691500D02*
D03*
X00755000D02*
D03*
X00742300D02*
D03*
X00716900D02*
D03*
X00529600Y02038500D02*
D03*
X00567700D02*
D03*
X00580400D02*
D03*
X00593100D02*
D03*
X00504200D02*
D03*
X00491500D02*
D03*
X00618500D02*
D03*
X00605800D02*
D03*
X00555000D02*
D03*
X00542300D02*
D03*
X00516900Y02038500D02*
D03*
X01311900Y02038500D02*
D03*
X01337300D02*
D03*
X01350000D02*
D03*
X01111900Y02038500D02*
D03*
X01137300Y02038500D02*
D03*
X01150000Y02038500D02*
D03*
X01711900Y02038500D02*
D03*
X01737300Y02038500D02*
D03*
X01750000Y02038500D02*
D03*
X01511900D02*
D03*
X01537300Y02038500D02*
D03*
X01550000Y02038500D02*
D03*
X01400800Y02038500D02*
D03*
X01413500D02*
D03*
X01800800D02*
D03*
X01813500Y02038500D02*
D03*
X01600800Y02038500D02*
D03*
X01613500Y02038500D02*
D03*
X01286500Y02038500D02*
D03*
X01299200D02*
D03*
X01086500D02*
D03*
X01099200Y02038500D02*
D03*
X01686500Y02038500D02*
D03*
X01699200Y02038500D02*
D03*
X01486500Y02038500D02*
D03*
X01499200Y02038500D02*
D03*
X01588100Y02038500D02*
D03*
X01575400D02*
D03*
X01562700Y02038500D02*
D03*
X01524600Y02038500D02*
D03*
X01788100D02*
D03*
X01775400D02*
D03*
X01762700Y02038500D02*
D03*
X01724600Y02038500D02*
D03*
X01213500Y02038500D02*
D03*
X01200800Y02038500D02*
D03*
X01188100Y02038500D02*
D03*
X01175400D02*
D03*
X01162700Y02038500D02*
D03*
X01124600Y02038500D02*
D03*
X01388100Y02038500D02*
D03*
X01375400Y02038500D02*
D03*
X01362700D02*
D03*
X01324600Y02038500D02*
D03*
D194*
X00945000Y02137000D02*
D03*
X00755000Y02137000D02*
D03*
X00555000Y02137000D02*
D03*
X01350000Y02137000D02*
D03*
X01150000D02*
D03*
X01750000D02*
D03*
X01550000D02*
D03*
D195*
X01964500Y01892000D02*
D03*
X01931500D02*
D03*
D196*
X01697000Y00705350D02*
D03*
X01701000Y00705350D02*
D03*
X01697000Y00714650D02*
D03*
X01701000D02*
D03*
X01705000D02*
D03*
X01693000Y00714650D02*
D03*
Y00705350D02*
D03*
X01705000D02*
D03*
D197*
X02253750Y01173500D02*
D03*
Y01160500D02*
D03*
X02232250D02*
D03*
Y01167000D02*
D03*
Y01173500D02*
D03*
D198*
X01876195Y01822299D02*
D03*
X01870609Y01827885D02*
D03*
X01881852Y01827956D02*
D03*
X01876266Y01833542D02*
D03*
X01891044Y01837148D02*
D03*
X01885458Y01842734D02*
D03*
X01899530Y01845633D02*
D03*
X01893943Y01851219D02*
D03*
X01905186Y01851290D02*
D03*
X01899600Y01856876D02*
D03*
X01969947Y01653630D02*
D03*
X01975533Y01648044D02*
D03*
X01975604Y01659287D02*
D03*
X01981190Y01653701D02*
D03*
D199*
X01927207Y01607207D02*
D03*
X01932793Y01612793D02*
D03*
X01933207Y01601207D02*
D03*
X01938793Y01606793D02*
D03*
X01953793Y01769793D02*
D03*
X01948207Y01764207D02*
D03*
D200*
X01039500Y02212125D02*
D03*
X01049500Y02183875D02*
D03*
X01044500D02*
D03*
X01039500D02*
D03*
X01054500D02*
D03*
X01044500Y02212125D02*
D03*
X01049500D02*
D03*
X01054500D02*
D03*
D201*
X01047000Y02198000D02*
D03*
D202*
X02031400Y01856350D02*
D03*
Y01842850D02*
D03*
D203*
X02049650Y01874600D02*
D03*
X02048050Y00769000D02*
D03*
X02047050Y00828000D02*
D03*
X01952750Y00194000D02*
D03*
X00744250Y00278500D02*
D03*
X01939250Y00194000D02*
D03*
X02061550Y00769000D02*
D03*
X00757750Y00278500D02*
D03*
X02060550Y00828000D02*
D03*
X02063150Y01874600D02*
D03*
D204*
X02055000Y00798000D02*
D03*
D205*
X02050000Y00788250D02*
D03*
X02060000Y00788250D02*
D03*
X02055000Y00788250D02*
D03*
X02060000Y00807750D02*
D03*
X02055000D02*
D03*
X02050000D02*
D03*
D206*
X00107500Y00015000D02*
D03*
X00357500D02*
D03*
X00307500D02*
D03*
X00257500D02*
D03*
X00207500D02*
D03*
X00157500D02*
D03*
X00407500D02*
D03*
X00457500D02*
D03*
X00442500D02*
D03*
X00392500D02*
D03*
X00142500D02*
D03*
X00192500D02*
D03*
X00242500D02*
D03*
X00292500D02*
D03*
X00342500D02*
D03*
X00092500D02*
D03*
D207*
X02062500Y01716650D02*
D03*
Y01677300D02*
D03*
X01392500Y01218650D02*
D03*
X01357500D02*
D03*
X02043500Y01716650D02*
D03*
X02053000Y01741350D02*
D03*
X02043500Y01677300D02*
D03*
X02053000Y01702000D02*
D03*
X01376500Y01218650D02*
D03*
X01367000Y01243350D02*
D03*
X01411500Y01218650D02*
D03*
X01402000Y01243350D02*
D03*
D208*
X00488750Y00695500D02*
D03*
X00488750Y00708450D02*
D03*
X00488750Y00945500D02*
D03*
X00488750Y00445500D02*
D03*
X00488750Y00458500D02*
D03*
Y01208500D02*
D03*
Y00958500D02*
D03*
X00488750Y01195500D02*
D03*
X00476250D02*
D03*
Y00958500D02*
D03*
Y01208500D02*
D03*
X00476250Y00458500D02*
D03*
X00476250Y00445500D02*
D03*
Y00945500D02*
D03*
X00476250Y00708450D02*
D03*
X00476250Y00695500D02*
D03*
X02223250Y00094000D02*
D03*
X02210750D02*
D03*
D209*
X01928000Y00250000D02*
D03*
X00563000Y01231000D02*
D03*
X00601000D02*
D03*
X00591000D02*
D03*
X00673000Y01081000D02*
D03*
X00641000Y01259000D02*
D03*
X00903000Y00752000D02*
D03*
X00756000Y00215000D02*
D03*
D210*
X01722500Y00861000D02*
D03*
Y00903000D02*
D03*
X01767500Y00861000D02*
D03*
Y00903000D02*
D03*
D211*
X02230000Y02094600D02*
D03*
Y02145400D02*
D03*
X02169500Y02000000D02*
D03*
X02114500Y02042000D02*
D03*
Y02000000D02*
D03*
Y01958000D02*
D03*
X02169500D02*
D03*
D212*
X02026800Y02120000D02*
D03*
X02103000D02*
D03*
X02064900D02*
D03*
D213*
X02260000Y01075000D02*
D03*
X02260000Y00995000D02*
D03*
X02260000Y01517500D02*
D03*
Y01597500D02*
D03*
X00417000Y01152000D02*
D03*
Y01248000D02*
D03*
X00321000Y01271300D02*
D03*
X00417000Y01200000D02*
D03*
X00371000Y01271300D02*
D03*
Y01128700D02*
D03*
X00321000D02*
D03*
X00274000D02*
D03*
X00274000Y01271300D02*
D03*
X01718450Y00664350D02*
D03*
X01731150D02*
D03*
X01718450Y00651650D02*
D03*
X01731150Y00651650D02*
D03*
X01654950Y00651650D02*
D03*
X01642250Y00651650D02*
D03*
X01654950Y00664350D02*
D03*
X01642250D02*
D03*
X01680350Y00651650D02*
D03*
X01667650D02*
D03*
X01680350Y00664350D02*
D03*
X01693050D02*
D03*
X01705750D02*
D03*
X01693050Y00651650D02*
D03*
X01705750D02*
D03*
X01629550D02*
D03*
X01629550Y00664350D02*
D03*
X01616850Y00664350D02*
D03*
X01667650D02*
D03*
X00350900Y00342000D02*
D03*
X00363600D02*
D03*
X00401700D02*
D03*
X00376300Y00342000D02*
D03*
X00389000Y00342000D02*
D03*
X00401700Y00329300D02*
D03*
X00376300Y00329300D02*
D03*
X00389000Y00329300D02*
D03*
X00363600D02*
D03*
X00274000Y00521300D02*
D03*
X00274000Y00378700D02*
D03*
X00321000Y00378700D02*
D03*
X00371000Y00378700D02*
D03*
X00371000Y00521300D02*
D03*
X00417000Y00450000D02*
D03*
X00321000Y00521300D02*
D03*
X00417000Y00498000D02*
D03*
Y00402000D02*
D03*
X00274000Y00771300D02*
D03*
Y00628700D02*
D03*
X00321000Y00628700D02*
D03*
X00371000Y00628700D02*
D03*
Y00771300D02*
D03*
X00417000Y00700000D02*
D03*
X00321000Y00771300D02*
D03*
X00417000Y00748000D02*
D03*
X00417000Y00652000D02*
D03*
X00274000Y01021300D02*
D03*
X00274000Y00878700D02*
D03*
X00321000D02*
D03*
X00371000D02*
D03*
Y01021300D02*
D03*
X00417000Y00950000D02*
D03*
X00321000Y01021300D02*
D03*
X00417000Y00998000D02*
D03*
Y00902000D02*
D03*
D214*
X02280000Y00938250D02*
D03*
Y00881750D02*
D03*
Y00158250D02*
D03*
Y00101750D02*
D03*
Y00221750D02*
D03*
Y00278250D02*
D03*
D215*
X02257000Y00930000D02*
D03*
Y00890000D02*
D03*
Y00110000D02*
D03*
Y00150000D02*
D03*
X02242300Y01371900D02*
D03*
Y01251900D02*
D03*
X02257000Y00270000D02*
D03*
Y00230000D02*
D03*
D216*
X01350000Y01485000D02*
D03*
X02204300Y00589300D02*
D03*
X02222100Y00599500D02*
D03*
X02204300Y00609700D02*
D03*
X02222100Y00619900D02*
D03*
X02204300Y00630100D02*
D03*
X02222100Y00640300D02*
D03*
X02204300Y00650500D02*
D03*
X02222100Y00660700D02*
D03*
X00967000Y01966000D02*
D03*
X00967000Y01856000D02*
D03*
X00732000Y01911000D02*
D03*
X00777000Y01856000D02*
D03*
Y01966000D02*
D03*
X00532000Y01911000D02*
D03*
X00577000Y01856000D02*
D03*
X00577000Y01966000D02*
D03*
X01195000Y01665000D02*
D03*
X01295000Y01530000D02*
D03*
X01140000Y01710000D02*
D03*
X01085000Y01665000D02*
D03*
X01405000Y01530000D02*
D03*
X01572000Y01856000D02*
D03*
X01527000Y01911000D02*
D03*
X01772000Y01966000D02*
D03*
X01727000Y01911000D02*
D03*
X01172000Y01966000D02*
D03*
X01127000Y01911000D02*
D03*
X00922000D02*
D03*
X01572000Y01966000D02*
D03*
X01772000Y01856000D02*
D03*
X01172000Y01856000D02*
D03*
X01372000D02*
D03*
X01327000Y01911000D02*
D03*
X00203000Y02122000D02*
D03*
X00148000Y02167000D02*
D03*
X01372000Y01966000D02*
D03*
X00093000Y02122000D02*
D03*
X01905000Y02180000D02*
D03*
X01905000Y02070000D02*
D03*
Y01960000D02*
D03*
D217*
X01350000Y01435000D02*
D03*
X01195000Y01615000D02*
D03*
X01295000Y01580000D02*
D03*
X01140000Y01760000D02*
D03*
X01085000Y01615000D02*
D03*
X01405000Y01580000D02*
D03*
X00203000Y02072000D02*
D03*
X00093000Y02072000D02*
D03*
X00148000Y02217000D02*
D03*
D218*
X00635000Y00561000D02*
D03*
X02080000Y01440000D02*
D03*
X01750000Y01440000D02*
D03*
Y00960000D02*
D03*
X02080000Y00960000D02*
D03*
D219*
X01334000Y00400000D02*
D03*
D220*
X00666000D02*
D03*
D221*
X00355000Y01248000D02*
D03*
Y01152000D02*
D03*
X00735000Y01346000D02*
D03*
X00355000Y00402000D02*
D03*
Y00498000D02*
D03*
Y00902000D02*
D03*
Y00998000D02*
D03*
Y00652000D02*
D03*
Y00748000D02*
D03*
D222*
X00535000Y01346000D02*
D03*
D223*
X02156300Y00579300D02*
D03*
Y00670700D02*
D03*
Y00556400D02*
D03*
Y00693600D02*
D03*
X02220000Y01422700D02*
D03*
Y01397300D02*
D03*
Y01371900D02*
D03*
Y01251900D02*
D03*
Y01277300D02*
D03*
Y01302700D02*
D03*
D224*
X02247500Y00688500D02*
D03*
Y00561500D02*
D03*
D225*
X02211900Y00543000D02*
D03*
Y00707000D02*
D03*
D226*
X02190000Y00390000D02*
D03*
Y00415000D02*
D03*
Y00435000D02*
D03*
X02175000Y00465000D02*
D03*
X02175000Y00445000D02*
D03*
Y00405000D02*
D03*
Y00385000D02*
D03*
X02158000Y00390000D02*
D03*
Y00415000D02*
D03*
Y00435000D02*
D03*
X02143000Y00465000D02*
D03*
Y00445000D02*
D03*
Y00405000D02*
D03*
Y00385000D02*
D03*
Y00425000D02*
D03*
X02158000Y00460000D02*
D03*
X02175000Y00425000D02*
D03*
X02190000Y00460000D02*
D03*
X01731000Y00089000D02*
D03*
X01631000D02*
D03*
D227*
X02210000Y00359300D02*
D03*
Y00490700D02*
D03*
X02153200Y00359300D02*
D03*
Y00490700D02*
D03*
D228*
X00578100Y00030050D02*
D03*
D229*
X00552700D02*
D03*
X00527300D02*
D03*
X00501900D02*
D03*
X01552000Y00290900D02*
D03*
X02007000Y00258100D02*
D03*
Y00207300D02*
D03*
Y00232700D02*
D03*
X01552000Y00240100D02*
D03*
Y00265500D02*
D03*
D230*
X02169500Y02042000D02*
D03*
D231*
X00096000Y01128700D02*
D03*
X00196000D02*
D03*
X00296000D02*
D03*
X00396000D02*
D03*
X00046000Y01185500D02*
D03*
Y01271300D02*
D03*
X00146000D02*
D03*
X00246000Y01214500D02*
D03*
X00246000Y01160500D02*
D03*
X00246000Y01271300D02*
D03*
X00346000D02*
D03*
X00346000Y00521300D02*
D03*
X00246000D02*
D03*
X00246000Y00410500D02*
D03*
X00246000Y00464500D02*
D03*
X00146000Y00521300D02*
D03*
X00046000Y00521300D02*
D03*
X00046000Y00435500D02*
D03*
X00396000Y00378700D02*
D03*
X00296000D02*
D03*
X00196000D02*
D03*
X00096000D02*
D03*
X00346000Y01021300D02*
D03*
X00246000D02*
D03*
X00246000Y00910500D02*
D03*
X00246000Y00964500D02*
D03*
X00146000Y01021300D02*
D03*
X00046000D02*
D03*
Y00935500D02*
D03*
X00396000Y00878700D02*
D03*
X00296000D02*
D03*
X00196000D02*
D03*
X00096000D02*
D03*
X00346000Y00771300D02*
D03*
X00246000D02*
D03*
Y00660500D02*
D03*
Y00714500D02*
D03*
X00146000Y00771300D02*
D03*
X00046000Y00771300D02*
D03*
X00046000Y00685500D02*
D03*
X00396000Y00628700D02*
D03*
X00296000D02*
D03*
X00196000D02*
D03*
X00096000D02*
D03*
D232*
X00050000Y00050000D02*
D03*
X00930000Y00680000D02*
D03*
X01370000Y01120000D02*
D03*
X00930000D02*
D03*
X01370000Y00680000D02*
D03*
X02250000Y02200000D02*
D03*
X00050000D02*
D03*
X02250000Y00050000D02*
D03*
D233*
X00050000Y01918600D02*
D03*
X00390000D02*
D03*
X00050000Y01690000D02*
D03*
Y01461400D02*
D03*
X00390000D02*
D03*
Y01690000D02*
D03*
D234*
X02220000Y01448100D02*
D03*
Y01328100D02*
D03*
D235*
X02209480Y01677500D02*
D03*
X02119480D02*
D03*
X02183480Y01742500D02*
D03*
X02088480Y01742500D02*
D03*
X02088480Y00832500D02*
D03*
X02183480D02*
D03*
X02119480Y00767500D02*
D03*
X02209480Y00767500D02*
D03*
X02088480Y01892500D02*
D03*
X02183480Y01892500D02*
D03*
X02119480Y01827500D02*
D03*
X02209480D02*
D03*
D236*
X02088480Y01690000D02*
D03*
X02220980Y01725000D02*
D03*
Y00815000D02*
D03*
X02088480Y00780000D02*
D03*
X02220980Y01875000D02*
D03*
X02088480Y01840000D02*
D03*
D237*
X02201980Y01715000D02*
D03*
X02196200Y01705000D02*
D03*
X02190430Y01715000D02*
D03*
X02184650Y01705000D02*
D03*
X02178880Y01715000D02*
D03*
X02173100Y01705000D02*
D03*
X02167330Y01715000D02*
D03*
X02161550Y01705000D02*
D03*
X02155780Y01715000D02*
D03*
X02150000Y01705000D02*
D03*
X02144220Y01715000D02*
D03*
X02138450Y01705000D02*
D03*
X02132670Y01715000D02*
D03*
X02126900Y01705000D02*
D03*
X02121120Y01715000D02*
D03*
X02115350Y01705000D02*
D03*
X02109570Y01715000D02*
D03*
X02103800Y01705000D02*
D03*
X02098020Y01715000D02*
D03*
Y00805000D02*
D03*
X02103800Y00795000D02*
D03*
X02109570Y00805000D02*
D03*
X02115350Y00795000D02*
D03*
X02121120Y00805000D02*
D03*
X02126900Y00795000D02*
D03*
X02132670Y00805000D02*
D03*
X02138450Y00795000D02*
D03*
X02144220Y00805000D02*
D03*
X02150000Y00795000D02*
D03*
X02155780Y00805000D02*
D03*
X02161550Y00795000D02*
D03*
X02167330Y00805000D02*
D03*
X02173100Y00795000D02*
D03*
X02178880Y00805000D02*
D03*
X02184650Y00795000D02*
D03*
X02190430Y00805000D02*
D03*
X02196200Y00795000D02*
D03*
X02201980Y00805000D02*
D03*
X02098020Y01865000D02*
D03*
X02103800Y01855000D02*
D03*
X02109570Y01865000D02*
D03*
X02115350Y01855000D02*
D03*
X02121120Y01865000D02*
D03*
X02126900Y01855000D02*
D03*
X02132670Y01865000D02*
D03*
X02138450Y01855000D02*
D03*
X02144220Y01865000D02*
D03*
X02150000Y01855000D02*
D03*
X02155780Y01865000D02*
D03*
X02161550Y01855000D02*
D03*
X02167330Y01865000D02*
D03*
X02173100Y01855000D02*
D03*
X02178880Y01865000D02*
D03*
X02184650Y01855000D02*
D03*
X02190430Y01865000D02*
D03*
X02196200Y01855000D02*
D03*
X02201980Y01865000D02*
D03*
D238*
X01017000Y01966000D02*
D03*
X01017000Y01856000D02*
D03*
X00682000Y01911000D02*
D03*
X00827000Y01856000D02*
D03*
X00827000Y01966000D02*
D03*
X00482000Y01911000D02*
D03*
X00627000Y01856000D02*
D03*
Y01966000D02*
D03*
X01422000Y01856000D02*
D03*
Y01966000D02*
D03*
X01822000Y01966000D02*
D03*
Y01856000D02*
D03*
X01622000D02*
D03*
X01622000Y01966000D02*
D03*
X01477000Y01911000D02*
D03*
X01677000D02*
D03*
X01077000Y01911000D02*
D03*
X00872000D02*
D03*
X01277000D02*
D03*
X01955000Y02180000D02*
D03*
Y02070000D02*
D03*
X01955000Y01960000D02*
D03*
X01222000Y01856000D02*
D03*
X01222000Y01966000D02*
D03*
D239*
X02007000Y00181900D02*
D03*
X01552000Y00214700D02*
D03*
M02*
