M48
;Layer_Color=9474304
;FILE_FORMAT=4:4
METRIC
;TYPE=PLATED
T1F00S00C0.2000
T2F00S00C0.3000
T3F00S00C0.6000
T5F00S00C0.7000
T6F00S00C0.9000
T8F00S00C1.0000
T9F00S00C1.1000
T10F00S00C1.6000
T11F00S00C1.8000
T12F00S00C2.3000
T13F00S00C3.0000
T14F00S00C3.7000
T15F00S00C4.4000
%
T01
X00018181Y00018180
X00024999Y00012584
X00032780Y00008426
X00041221Y00005865
X00050000Y00005000
X00060000
X00070000
X00080000
X00090000
X00012584Y00024999
X00008425Y00032779
X00005865Y00041221
X00005000Y00049738
Y00059738
Y00069738
X00005000Y00079738
X00005001Y00089739
X00123000Y00084000
Y00066000
X00109000Y00027000
X00107500Y00015000
X00110000Y00005000
X00120000
X00130000
X00140000Y00005000
X00150000
X00160000
X00170000
X00180000
X00190000Y00004999
X00200000
X00210000
X00220000
X00230000
X00240000Y00004999
X00250000
X00260000
X00270000
X00280000
X00290000Y00004999
X00300000
X00310000
X00320000
X00330000
X00340000Y00004998
X00350000
X00360000
X00370000
X00380000
X00390000Y00004998
X00400000
X00410000
X00420000
X00430000
X00440000Y00004997
X00450000
X00460001
X00470000
X00480000
X00490001Y00004997
X00457500Y00015000
X00459050Y00027000
X00409000Y00027000
X00407500Y00015000
X00357500
X00359000Y00027000
X00309050Y00027000
X00307500Y00015000
X00257500
X00259000Y00027000
X00209000
X00207500Y00015000
X00157500
X00159000Y00027000
X00179000Y00052501
X00186000
X00193000
X00323000Y00054000
Y00080000
X00434500Y00080000
Y00054601
X00100000Y00005000
X00500001Y00004997
X00510001
X00520001
X00530001
X00540001Y00004997
X00550001
X00560001
X00570001
X00580001
X00590001Y00004996
X00600001
X00610001
X00620001
X00630001
X00640001Y00004996
X00650001
X00660001
X00670001
X00680001
X00690001Y00004995
X00700001
X00710001
X00720001
X00730001
X00740001Y00004995
X00750001
X00760001
X00770001
X00780001
X00790001Y00004995
X00800001
X00810001
X00820001
X00830001
X00840001Y00004994
X00850001
X00860001
X00870001
X00880001
X00890001Y00004994
X00527000Y00058000
X00501000
X00900001Y00004994
X00910001
X00920001
X00930001
X00940001Y00004994
X00950000Y00005000
X00960000Y00005000
X00970000
X00980000
X00990000
X01000000
X01010000Y00004999
X01020000
X01030000
X01040000Y00004999
X01050000Y00004999
X01060000Y00004999
X01070000
X01080000
X01090000
X01100000
X01110000Y00004998
X01120000Y00004999
X01130000
X01140000
X01150000Y00004998
X01160000Y00004998
X01170000
X01180000
X01190000
X01200000
X01210001Y00004998
X01220001
X01230001
X01240001
X01250001
X01260001Y00004997
X01270001Y00004997
X01280000
X01290000
X01300000
X01310001Y00004997
X01320001
X01330001
X01340001
X01350001
X01360001Y00004997
X01370001
X01380001
X01390001
X01400001
X01410001Y00004996
X01420001
X01430001
X01440001
X01450001
X01460001Y00004996
X01470001Y00004996
X01480001
X01490001
X01500001Y00004996
X01510001Y00004995
X01520001
X01530001
X01540001
X01550001
X01560001Y00004995
X01570001
X01580001Y00004995
X01590001Y00004995
X01600001
X01610001Y00004995
X01620001
X01630001
X01640001
X01650001
X01660001Y00004994
X01670001
X01680001
X01681000Y00057750
Y00067750
Y00077750
X01661000
Y00067750
Y00057750
X01641000Y00057750
Y00067750
Y00077750
X01621000
Y00067750
Y00057750
X01701000
Y00067750
Y00077750
X01721000Y00077750
Y00067750
Y00057750
X01741000
Y00067750
Y00077750
X01740001Y00004994
X01750001
X01760001Y00004994
X01770001
X01780001
X01790001
X01800001
X01810001
X01820001
X01830001
X01840001Y00004993
X01850000Y00005000
X01860000Y00004999
X01870000
X01880000
X01890000
X01900000
X01910000Y00004999
X01920000
X01930000
X01940000Y00004999
X01950000Y00004999
X01960000Y00004998
X01970000
X01980000
X01990000
X02000000
X02010000Y00004998
X02020000Y00004998
X02030000
X02040000
X02050000Y00004998
X02060000Y00004998
X02070000
X02080000
X01730001Y00004994
X01720001
X01710001Y00004994
X01700001Y00004994
X01690001
X02090000Y00004998
X02100000
X02110001Y00004997
X02120001
X02130000
X02140000
X02150001
X02160001Y00004997
X02170001Y00004997
X02180001
X02190001
X02200001
X02210001Y00004997
X02220001
X02230001
X02240001
X02250001
X02258779Y00005865
X02267221Y00008426
X02275001Y00012585
X02281820Y00018181
X02287416Y00025000
X02291574Y00032780
X02294135Y00041221
X02294996Y00050261
Y00060261
Y00070261
Y00080261
Y00090261
X02177000Y00093000
Y00087000
X02168000
Y00093000
X02163000Y00084000
Y00074000
X02158000Y00079000
X02153000Y00084000
Y00074000
X02143000
Y00084000
X02151000Y00058000
X02155000Y00102000
X02157000Y00111900
X02165000Y00111950
X02141000Y00111950
Y00104050
X02196000Y00102000
X02216000Y00112000
X02224000
X02233000Y00109000
X02207000Y00141000
X02197000
X02187000
X02132000Y00158050
Y00165950
X02124000
Y00158050
X02116000
Y00165950
X02108000Y00158050
X02100000
Y00165950
X02086000Y00158050
X02087000Y00204000
Y00214000
Y00224000
X02097000
X02107000
X02117000
Y00234000
Y00244000
X02127000
Y00234000
Y00224000
Y00214000
X02117000
X02107000
X02097000
Y00204000
X02107000
X02117000
X02127000
X02157000Y00204000
X02172000
Y00223000
Y00231000
X02169450Y00239000
X02169450Y00248000
X02157000Y00248000
X02156000Y00265000
X02139000Y00274000
X02127000Y00274025
X02127000Y00285950
X02115000
Y00274025
X02103000Y00274025
X02103000Y00286000
X02091000Y00285950
Y00274025
X02087000Y00244000
X02097000
X02107000
Y00234000
X02097000
X02087000
X02157000Y00224000
X02217000Y00224950
X02225000Y00224950
X02233750Y00226000
X02233000Y00234750
X02294997Y00230261
Y00220261
X02294997Y00210261
X02294997Y00200261
X02294997Y00190261
X02294997Y00180261
Y00170261
Y00160261
Y00150261
X02294997Y00140261
X02294997Y00130261
Y00120261
Y00110261
Y00100261
X02294997Y00240261
X02294998Y00250261
X02294998Y00260261
Y00270261
Y00280261
X02294998Y00290261
X02294998Y00300261
Y00310261
Y00320261
Y00330261
Y00340261
X02294998Y00350261
X02294998Y00360261
X02294998Y00370261
Y00380261
Y00390261
X02294999Y00400261
Y00410261
Y00420261
Y00430261
Y00440261
X02294999Y00450261
X02294993Y00460260
X02294993Y00470260
Y00480260
X02294993Y00490260
X02204000Y00438000
Y00411500
X02126000Y00408000
X02105000Y00407000
X02096000
X02126000Y00382000
X02228250Y00333000
X02233250
X02238250
X02243250
X02241750Y00301000
X02246750
Y00296000
X02241750
X02234000Y00303000
X02199000Y00301950
X02199000Y00292000
X02079000Y00285950
Y00274025
X02066000Y00265000
X02061000Y00270000
X02054975Y00244000
X02055000Y00232000
X02054975Y00220000
Y00208000
X02055000Y00196000
X02041050Y00197000
Y00208000
Y00220000
Y00233000
Y00244000
X02028000Y00297000
X02000000Y00311000
X01984000Y00322000
X01964000
X01959000Y00305000
X01943000Y00265000
Y00261000
X01925000Y00265000
X01916000Y00265001
X01907000Y00265000
X01892000Y00262002
X01886000
Y00268002
X01892000
X01856950Y00240000
X01811000Y00208750
X01803000
X01796000Y00208750
X01795000Y00189250
X01803000
X01810000Y00189250
X01939250Y00194000
X01943000Y00194000
X01953000Y00196000
Y00190000
X01955000Y00161000
X01945000
X01937000Y00216000
Y00220000
X01939000Y00230000
X01945000
X02064000Y00181000
Y00173000
X02065000Y00161000
X02066000Y00147000
X02078000Y00148000
X02078000Y00158050
X02053660Y00133800
X02053000Y00384000
X02063000
X02073000
Y00404000
X02063000
X02053000
X02009860Y00474991
X01856950Y00367000
X01856950Y00353000
X01810000Y00391250
X01803000Y00391250
X01795000
X01796000Y00410750
X01803000
X01811000
X01642000Y00491000
X01631495Y00491505
X01625500Y00327000
X01625500Y00320000
Y00312000
X01606000Y00313000
Y00320000
Y00328000
Y00288000
Y00280000
Y00273000
X01625500Y00272000
X01625500Y00280000
X01625500Y00287000
X01616000Y00240000
X01533000Y00252000
X01512500Y00247500
Y00237500
X01502500
Y00247500
X01492500
Y00237500
X01486000Y00257000
X01469000Y00267500
Y00277500
X01459000
Y00267500
X01449000
Y00277500
X01449000Y00312500
Y00322500
X01459000
Y00312500
X01469000
Y00322500
X01380000Y00307000
Y00297000
X01370000
X01360000
Y00287000
Y00277000
Y00267000
X01370000
X01380000
Y00277000
X01370000
Y00287000
X01380000
X01370000Y00307000
X01360000
X01328000Y00468000
X01492500Y00202500
Y00192500
X01502500
Y00202500
X01512500
Y00192500
X01476100Y00157900
Y00132500
Y00107100
X01520000Y00107000
X01547000
X01569000
Y00132000
Y00158000
X01621000Y00120250
Y00110250
Y00100250
X00989500Y00340000
X00983500
X00981000Y00377998
X00975000
X00981000Y00383998
X00995000Y00383980
Y00377998
X01001000Y00378000
Y00401000
X01007000
Y00407000
X01001000
Y00413000
X01006980Y00413000
X00977000Y00401000
Y00395000
X00971000
X00951000Y00412000
X01079000Y00459050
X00703000Y00316000
X00695000
X00687000
X00640000Y00307000
Y00297000
X00630000
X00620000
Y00287000
Y00277000
Y00267000
X00630000
X00640000
Y00277000
X00630000
Y00287000
X00640000
X00630000Y00307000
X00620000
X00570000Y00310000
X00565025Y00315975
X00434500Y00285401
Y00260000
Y00234601
X00434500Y00195401
X00434500Y00170000
X00434500Y00144600
X00434500Y00105401
X00323000Y00105000
Y00145000
Y00170000
Y00195000
X00293000Y00197500
X00286000
X00279000
Y00152500
X00286000
X00293000
X00223000Y00166000
Y00184000
X00193000Y00197500
X00186000
X00179000
Y00152500
X00186000
X00193000
Y00097500
X00186000
X00179000
X00123000Y00166000
Y00184000
Y00266000
Y00284000
X00120000Y00335000
X00110000
X00115000Y00340000
X00105000
X00100000Y00335000
X00130000
X00125000Y00340000
X00135000
X00145000
X00155000
X00160000Y00335251
X00150000Y00335000
X00140000
X00179000Y00297500
X00186000
X00193000
Y00252500
X00186000
X00179000
X00323000Y00260000
Y00235000
X00319699Y00284199
X00309000Y00451000
X00315000Y00460000
X00005003Y00459739
Y00469739
Y00479739
X00005004Y00489739
X00005003Y00449739
X00005003Y00439739
X00005003Y00429739
Y00419739
Y00409739
Y00399739
Y00389739
X00005003Y00379739
Y00369739
Y00359739
X00012000Y00329000
X00020000Y00325050
X00005002Y00319739
Y00309739
X00012000Y00280000
X00005002Y00269739
Y00259739
X00020000Y00259000
Y00267000
X00012000Y00245000
X00005002Y00219739
Y00209739
Y00199739
Y00189739
X00005001Y00179739
Y00169739
Y00159739
Y00149739
Y00139739
X00005001Y00129739
Y00119739
Y00109739
Y00099739
X00023000Y00166000
Y00184000
X00079000Y00197500
X00086000
X00093000
Y00152500
X00086000
X00079000
X00095000Y00340000
X00005004Y00499739
Y00509739
Y00519739
Y00529739
X00005004Y00539739
X00012000Y00547500
Y00577500
X00005005Y00599739
Y00609739
Y00619739
Y00629739
X00005005Y00639739
X00005005Y00649739
X00005005Y00659739
Y00669739
Y00679739
X00005005Y00689740
Y00699740
Y00709740
Y00719740
Y00729740
X00005006Y00739740
Y00749740
X00005006Y00759740
Y00769740
X00005006Y00779740
X00005006Y00789740
X00012000Y00797500
Y00827500
X00005006Y00849740
Y00859740
Y00869740
Y00879740
X00005007Y00889740
X00033950Y00836050
Y00806050
Y00586050
Y00556050
X00320000Y00702000
X00315000Y00710000
X00494500Y00523500
X00550000Y00535000
Y00543000
X00571000Y00535000
X00579950Y00535000
X00594975Y00532000
X00572000Y00520000
X00563000Y00507000
X00573200Y00552800
X00793000Y00800000
X00799000Y00805000
X00803500Y00810000
X00807250Y00798250
X00823000Y00802000
Y00810000
X00832000Y00807000
Y00815000
X00840000
X00836000Y00832000
Y00839000
X00823000
X00818000Y00835000
X00851000Y00833000
Y00840000
X00859000Y00838000
X00858848Y00845152
X00795000Y00850000
X00914000Y00741000
X00945000Y00757000
X00955000
X01025000Y00775000
X01035000
Y00784980
X01025000Y00785000
Y00795000
X01032000Y00796020
X01035000Y00805000
X01045000
Y00795000
X01054861Y00795139
X01055000Y00805000
Y00815000
Y00825000
X01045000
Y00835000
X01035000
Y00845000
X01045000
X01055000
Y00835000
X01065000
X01075000Y00835000
X01085000Y00835000
Y00825020
X01075000Y00825000
Y00815000
Y00805000
Y00795000
Y00785000
X01065000
X01055000Y00785000
X01045000Y00785000
Y00775000
X01075000
X01085000
Y00785000
Y00795000
X01095000
Y00805000
X01105000
Y00815000
Y00825000
X01095000Y00824980
X01094980Y00815000
X01085000
Y00805000
X01065000
X01045000Y00815000
X01035000
X01025000Y00825000
Y00835000
Y00845000
Y00855000
Y00865000
X01035000
X01045000
X01055000
Y00875000
X01045000
X01035000Y00885000
X01025000
X01018000Y00885000
X01025000Y00875000
X01035000Y00855000
X01045000
X01055000
X01065000
X01075000
Y00865000
Y00874980
Y00885000
X01085000
Y00875000
X01095000
X01105000
Y00865020
X01095000Y00865000
Y00855000
Y00845000
Y00835000
X01105051Y00835004
X01115000Y00835000
Y00825020
X01114980Y00816980
X01120020Y00810000
X01135000Y00815000
Y00825000
X01125240Y00825239
X01125000Y00835000
Y00845000
X01115000
Y00854980
X01125000Y00855000
X01135000
Y00845000
Y00835000
X01145000
X01155000
X01155000Y00825000
X01145000Y00825000
Y00815000
Y00805000
Y00795000
X01135000
X01125020
Y00785000
X01125000Y00773000
X01155000Y00774980
X01165000Y00775000
Y00785000
Y00795000
Y00805000
Y00815000
Y00825000
X01175000
X01185000
Y00815000
Y00805000
X01175000
Y00795000
Y00785000
Y00775000
X01185000
X01185020Y00785000
Y00795000
X01195000
X01205000
Y00805000
X01214980
X01215000Y00815000
X01225000
X01235000
X01245000
Y00805000
Y00795000
X01255000
Y00805000
X01265000
X01275000
Y00815000
X01265000
Y00825000
Y00835000
Y00845000
X01275000
Y00855000
Y00865000
X01265000
X01255066Y00864934
X01255000Y00855000
X01265000
X01265000Y00875000
X01255000
X01255000Y00885000
X01245000Y00885000
X01235000
X01225000Y00885000
X01230000Y00880000
Y00871000
X01225000Y00875000
X01235000
Y00855000
Y00845000
X01235000Y00835000
X01225000
X01225000Y00825000
X01215000
X01205000
X01195000
Y00835000
X01205000
X01215000Y00845000
X01215000Y00855000
X01205000
X01195000
Y00865000
X01205000Y00875000
Y00885000
X01215000
X01195000Y00885000
X01185000Y00885000
X01175000
Y00875000
X01165000
Y00865000
Y00855000
X01175000
X01185000
Y00845000
Y00835000
X01175000Y00845000
X01165000
X01145000
Y00855000
Y00865000
X01135000
X01125000
Y00875000
X01115000
Y00885000
X01105000
X01095000Y00887000
X01065000Y00885000
Y00865000
X01085000
Y00855000
Y00845000
X01105000
Y00855000
X01115000Y00865000
X01125000Y00885000
X01135000
X01145000
X01155000
X01165000
X01155000Y00875000
X01145000
X01135000
X01155000Y00865000
X01160000Y00860000
X01155000Y00815000
Y00805000
Y00795000
X01154980Y00785000
X01135000Y00805000
X01105000Y00795000
Y00785000
X01075000Y00764750
X01175980Y00764000
X01205000Y00775000
X01214974Y00775002
X01225000Y00775000
X01205000Y00785000
X01195000Y00805000
X01195207Y00814793
X01205000Y00815000
X01175000
X01235000Y00795000
X01255000Y00785000
X01275020Y00775000
X01275000Y00825000
Y00835000
X01255000
X01245000
Y00865000
X01275000Y00875000
X01284950Y00875000
X01014750Y00825000
X01391000Y00836000
X01398000Y00836000
X01406000
Y00848000
X01398000
X01391000Y00849000
Y00862000
X01398000Y00861000
X01406000Y00860000
X01406000Y00872000
X01396000Y00874000
X01403000Y00824000
X01411000
X01425000Y00710000
X01430000Y00707000
X01435000Y00710000
X01440000Y00707000
X01445000Y00710000
X01524000
X01520535Y00715464
X01528000Y00715000
X01532000Y00720000
X01536000Y00710000
X01537000Y00704000
X01545213Y00704787
X01553000Y00704000
X01540000Y00714000
X01524000Y00726000
X01514000Y00720000
X01683000Y00720950
X01683000Y00713050
X01683000Y00706000
X01683000Y00698100
X01681000Y00599000
Y00591050
X01676000Y00595000
X01671000Y00599000
X01666000Y00595000
X01661000Y00599000
X01656000Y00595000
X01651000Y00591050
Y00599000
X01646000Y00595000
X01641000Y00591050
X01636000Y00595000
X01631000Y00591050
X01626000Y00595000
X01621000Y00591050
Y00598950
X01616000Y00595000
X01611000Y00591050
X01606000Y00595000
X01601000Y00591050
Y00598950
X01596000Y00595000
X01591000Y00591050
Y00598950
X01622000Y00559250
Y00553750
X01627000Y00558750
X01632000Y00559250
X01637000Y00558750
X01642000Y00559250
X01645000Y00569000
X01652000Y00571000
X01646000Y00549000
X01637500Y00549000
X01642000Y00539000
X01649000
X01656000Y00531000
X01657043Y00523893
X01650000Y00524000
X01642000
Y00531000
X01632000Y00529000
X01632000Y00521000
X01637000Y00513000
X01644000
X01637000Y00495000
X01627000Y00495000
X01622000Y00504000
X01686000Y00595000
X01691000Y00591000
X01696000Y00595000
X01701000Y00591050
X01713000Y00590000
X01721000Y00579000
X01717000Y00697000
X01705000Y00693000
X01707000Y00687000
X01692000Y00689000
Y00696000
X01701000Y00725000
Y00732000
X01690000Y00734000
X01710000Y00725000
X01715000Y00719950
X01796150Y00685000
X01835000Y00686350
Y00676350
X01828000Y00615000
X01815000Y00625000
X01904000
X01904000Y00648900
X01891250Y00640250
X01891000Y00519000
X01904000Y00524000
X01891500Y00500550
X01827500Y00500550
X01827500Y00508450
X01814500Y00500550
X01815000Y00525000
X01840000Y00524000
X01987865Y00495330
X02020865Y00500996
Y00510996
X02037000Y00615000
Y00621000
X02010000Y00715000
Y00725000
X02045800Y00762000
X02050800Y00762000
X02058800Y00762000
X02063800
X02060000Y00795000
X02055000
X02050000
Y00801000
X02055000
X02060000
X02080000Y00812750
X02200000Y00878000
X02218000
X02229000Y00890000
X02294996Y00890261
Y00880261
Y00870261
Y00860261
Y00850261
X02294996Y00840261
X02294995Y00830261
Y00820261
Y00810261
X02294996Y00800261
X02294995Y00790260
Y00780261
Y00770261
Y00760261
Y00750261
X02294995Y00740260
Y00730260
X02294995Y00720260
X02294995Y00710260
Y00700260
X02294994Y00690260
Y00680260
Y00670260
X02294994Y00660260
X02294994Y00650260
X02294994Y00640260
Y00630260
Y00620260
Y00610260
Y00600260
X02294993Y00590260
X02294994Y00580260
Y00570260
X02294993Y00560260
Y00550260
X02294993Y00540260
Y00530260
X02294993Y00520260
Y00510260
X02294993Y00500260
X02294996Y00900261
Y00910261
Y00920261
Y00930261
Y00940261
X02294997Y00950261
Y00960261
Y00970261
X02294997Y00980261
X02294997Y00990261
X02294997Y01000261
Y01010261
Y01020261
Y01030261
X02294997Y01040261
X02294997Y01050261
Y01060261
Y01070261
Y01080261
Y01090261
X02294998Y01100261
Y01110261
X02294998Y01120261
Y01130261
X02294998Y01140261
X02294998Y01150261
X02294998Y01160261
Y01170261
Y01180261
X02294998Y01190261
X02294998Y01200261
X02294998Y01210261
Y01220261
Y01230261
Y01240261
X02294999Y01250261
X02294999Y01260261
X02294999Y01270261
Y01280261
X02263000Y01210000
Y01173000
X02278000Y01155000
X02232250Y01154800
X02250000Y01125000
X02256000
X02262000
Y01119000
X02256000
X02250000
X02163000Y01116000
X02157000
Y01110000
X02163000
X02162000Y01067000
Y01056000
Y01045000
X02162000Y01034000
X02162000Y01023000
Y01012000
X02162000Y01001000
Y00990000
X02163000Y00970000
X02157000
Y00964000
X02163000
X02186000Y00990000
Y01001000
Y01023000
X02185000Y01035000
X02186000Y01045000
Y01056000
Y01067000
X02099000Y01072000
X02106000Y01081000
Y01093000
X02120000Y01040000
Y01033000
X02250000Y00970000
X02256000
X02262000
Y00964000
X02256000
X02250000
X02144000Y01264000
Y01273000
X02107000
X02108000Y01261830
X02107000Y01249000
X02064000Y01273000
X02080000Y01178000
Y01172000
X01970000Y01040000
X01910000Y01010000
X01891000Y01015000
Y01026000
X01884000Y01020000
Y01000000
X01891000Y00995000
X01874000Y00996000
X01880000Y01037000
X01769000Y01078000
X01770000Y01085000
X01750000Y01090000
X01748000Y01098000
X01742000Y01106000
X01748000Y01114000
X01742000Y01124000
X01740907Y01132999
Y01144998
X01749391
Y01156999
X01740907Y01156999
Y01168998
X01749391Y01172999
X01765707Y01172997
X01774301Y01168002
X01779299Y01174000
X01774000Y01180000
X01779299Y01186000
Y01198000
Y01210000
Y01222000
X01769299Y01228000
X01765707Y01232997
X01749391Y01232999
X01740907Y01228998
X01724592Y01229000
X01717000Y01230000
Y01218000
Y01206000
X01724592Y01209000
X01740907Y01208998
X01749391Y01212999
Y01192999
X01740907Y01188998
X01765707Y01192997
X01773000Y01192000
X01769299Y01204000
Y01216000
X01765299Y01249000
Y01261000
Y01273000
X01725000Y01273000
Y01261000
Y01249000
X01710000Y01224000
Y01212000
Y01200000
Y01188000
Y01176000
X01715000Y01170000
X01724592Y01169000
X01717000Y01158000
X01710000Y01164000
X01717000Y01182000
Y01194000
X01725000Y01119000
Y01114000
Y01108000
Y01103000
X01724000Y01092000
X01740000Y01080000
X01749000
X01767000Y01107000
X01749391Y01128998
X01765707Y01156997
X01774000Y01156000
X01779303Y01162005
X01695000Y01090000
X01685000Y01080000
X01788000Y00902000
X01544000Y00933000
Y00940000
X01473000Y00935000
X01476000Y00930000
X01470000Y00925000
X01465000Y00920000
X01463000Y00943000
X01458000Y00938000
X01452000Y00933000
X01447000Y00928000
X01339000Y00908000
X01333000
X01330000Y00965000
X01325000Y00961000
X01319000Y00965000
X01311000
X01306000Y00961000
X01300000Y00964750
X01295000Y00951000
X01315000Y00960000
X01311000Y00981000
X01304000
X01297000
X01294500Y00995000
X01301000
X01296000Y01001000
X01298000Y01009000
X01307000Y01018000
X01307250Y01043000
X01306559Y01048309
X01297000Y01045000
X01297750Y01055000
Y01073000
X01343000Y01061000
X01348000Y01065000
X01373000Y01055000
X01370000Y01025000
X01377000Y01023000
Y01013000
X01385000
X01364400Y01010000
X01358400
Y01004000
X01364400
X01335000Y00970000
X01319750Y01136746
X01323250Y01140989
X01319773Y01145250
X01320000Y01153000
X01320000Y01161000
Y01169000
Y01177000
Y01186000
Y01194000
Y01202000
X01315000Y01206000
Y01214000
Y01222000
X01310000Y01218000
Y01210000
Y01226000
Y01235000
X01310066Y01242934
X01310000Y01251000
Y01259000
X01315000Y01255000
Y01247000
Y01239000
Y01231000
X01325000Y01198000
Y01190000
X01325303Y01182303
X01325803Y01172197
X01325000Y01165000
Y01157000
Y01149000
X01357500Y01218650
X01392500
X01421250Y01258000
Y01265000
Y01272000
Y01279000
X01435250
Y01272000
Y01265000
Y01258000
X01346750
Y01265000
Y01272000
Y01279000
X01332750
Y01272000
Y01265000
Y01258000
X01262000Y01150000
Y01143000
Y01136000
Y01129000
Y01122000
X01261876Y01114876
X01262000Y01107376
X01261934Y01101066
X01272750Y01081000
X01277250
X01279250Y01051000
X01275000Y01048000
X01275000Y01025000
X01265000
Y01015000
X01255000
X01245000
X01235000
Y01025000
X01225143
X01215000Y01024500
X01215000Y01032000
X01214442Y01054558
X01207000Y01055000
X01209818Y01060541
X01206880Y01065191
X01210000Y01070000
X01207000Y01075000
X01210000Y01080000
X01207000Y01085000
X01210000Y01090000
X01207000Y01095000
X01210000Y01100000
X01213078Y01107176
X01206000Y01111000
X01210000Y01116000
X01205000Y01120000
X01195000Y01025000
Y01015000
X01205000
Y01005000
X01214934Y01005066
X01215000Y00995000
Y00985000
X01205000
Y00975000
X01215000
X01225000
X01215000Y00965000
Y00955000
X01205000
Y00965000
X01195000
Y00955000
X01185000
Y00945000
X01175000
Y00955000
X01165000
Y00965000
X01175000
Y00975000
X01185000
Y00965000
Y00985000
Y00995000
X01175000
Y00985000
X01165000
X01155000
X01145000
X01135000
Y00975000
Y00965000
X01125000
X01115000
Y00955000
Y00945000
X01125000
X01128000Y00952000
X01135000Y00955000
Y00945000
Y00935000
X01145000
Y00925000
Y00915000
Y00905000
Y00895000
X01135000
X01125000
Y00905000
X01135000
Y00915000
X01125000
X01115000
Y00905000
Y00895000
X01105000
X01095000
X01085000
X01075000
Y00905000
X01065000
Y00895000
X01055000
X01045000
X01035000Y00905000
X01025000
Y00925000
X01018000Y00925000
X01035000Y00925000
X01045000Y00935000
X01055000
X01065000
X01075000
X01085000
Y00925000
Y00915000
Y00905000
X01095000
X01105000
Y00915000
Y00925000
Y00935000
X01115000
Y00925000
X01125000
X01135000
X01155000
Y00915000
Y00905000
Y00895000
X01165000
X01175000
X01185000
Y00905000
X01195000
Y00915000
X01205000
X01215000Y00905000
X01225039Y00905000
X01235000Y00905000
Y00895000
X01225000
X01245000
Y00905000
Y00915000
X01235105Y00915000
X01225039
Y00925000
X01205000Y00935000
X01195000
Y00925000
X01185000
X01175000
X01165000
Y00915000
Y00905000
X01185000Y00915000
X01165000Y00935000
Y00945000
X01147000
Y00955000
X01145000Y00965000
Y00975000
X01155000
X01165000
Y00995000
Y01005000
X01175000Y01015000
Y01025000
X01185000
Y01015000
Y01005000
X01195000Y00975000
X01245000Y00965000
Y00955000
X01255000
X01265000
X01270000Y00960000
X01265000Y00945000
X01255000
X01255152Y00935152
X01235105Y00945000
X01235000Y00995000
X01245152Y01004848
X01265000Y01005000
X01274957Y01005038
X01275000Y00995000
Y00975000
X01284000Y00975000
X01255000Y00985000
X01254934Y01025066
X01245000Y01025000
X01238713Y01034297
X01255441Y01039000
X01145000Y01025000
X01135000
X01123164
Y01036000
X01105000Y01025000
X01095000
X01085000
Y01015000
X01095000
Y01005000
X01085000
Y00995000
Y00985000
X01094250Y00984848
X01095000Y00974836
Y00965000
X01085000
Y00974836
X01075000Y00975000
X01065000
Y00965000
Y00955000
X01055000
X01045000
X01035000Y00945000
X01025000Y00945000
X01025000Y00965000
X01035000
Y00985000
X01025000
Y01005000
X01035000
X01045000Y00995000
X01055000
X01065000
Y01005000
X01075000
Y00995000
X01075115Y00985019
X01065000Y00985000
X01052000Y00975000
X01045000Y00975043
Y01015000
X01055000
X01065000Y01025000
X01072000
X01077000Y01042000
X01077000Y01055750
X01074000Y01059000
X01068000Y01058000
X01062000
X01057000Y01055000
X01053000Y01059000
X01047000
X01042920Y01063000
X01057080
X01072000Y01094000
X01072232Y01100000
X01078232
X01078463Y01094000
X01081232Y01087000
X01087232
X01094000Y01088000
X01100824Y01087000
X01106824
X01107000Y01080000
X01116000Y01071000
X01097824Y01095000
X01091824
X01090000Y01140000
X01067232Y01131000
X01061232
X01060232Y01125000
X01058232Y01119000
X01052232
X01051526Y01113000
X01039526Y01120000
X01033526
X01032821Y01114000
X01020116Y01120000
X01014116
X01013191Y01113824
X01000705Y01120000
X00994705
X00994000Y01114000
X00981295Y01120000
X00975295
X00972000Y01125000
X00984000
X00985000Y01131000
X00991000
X01004411
X01010411
X01003290Y01125080
X01022821Y01125000
X01023821Y01131000
X01029821
X01043232
X01049232
X01042232Y01125000
X01068917
X01035000Y01025000
X01026000
X01010000Y01005000
X00994001Y01005033
X00941707Y00994536
Y00987535
X00935343Y00983929
Y00998071
X01075000Y00965000
Y00955000
X01085000
X01095000
X01105000
Y00965000
Y00974836
X01115000Y00975000
Y00985000
Y00995000
Y01005000
X01125000Y00995000
Y00985000
Y00975000
X01105066Y00985066
X01135000Y00995000
X01145000Y01015000
X01155000Y00935000
X01125000
X01095000
Y00925000
Y00915000
X01075000
X01065000
X01055000
X01045000
X01065000Y00925000
X01075000
Y00945000
X01065000
X01085000
X01105000
X01275000Y00925000
Y00915000
Y00905000
X01265000
X00688500Y01066500
Y01071500
X00683500
Y01066500
X00689000Y01104000
X00684000Y01111000
X00668050Y01134050
X00660950
X00653050Y01145950
X00652050Y01166050
X00675000Y01167000
X00679000Y01162000
X00685025Y01159975
X00685000Y01153000
X00675950Y01145950
X00667000Y01187000
X00673000Y01197250
X00651000Y01214750
X00657000Y01225000
X00656500Y01244500
Y01249500
X00651500
Y01244500
X00657000Y01282000
X00667000Y01282000
X00610000Y01236000
X00610000Y01223575
X00599000Y01199000
Y01189000
X00589000
X00579000
Y01179000
X00589000
X00599000
X00589000Y01199000
X00579000
X00550000Y01194000
X00549725Y01186000
X00538750Y01186000
Y01194000
X00539000Y01202000
X00624000Y01189000
X00636000Y01190000
X00589000Y01152000
X00589000Y01142000
X00320000Y01202000
X00315000Y01210000
Y00960000
X00320000Y00952000
X00005001Y00949739
Y00939739
Y00929739
Y00919739
Y00909739
X00005000Y00899738
X00005001Y00959739
Y00969739
Y00979739
X00005001Y00989739
X00005001Y00999739
X00005002Y01009739
Y01019739
Y01029739
Y01039739
X00012000Y01047500
X00005002Y01069739
X00012000Y01077500
X00005002Y01099739
X00005002Y01109739
X00005002Y01119739
Y01129739
X00005002Y01139739
Y01149739
X00005003Y01159739
Y01169739
Y01179739
Y01189739
Y01199739
X00005003Y01209739
X00005003Y01219739
Y01229739
Y01239739
Y01249739
X00005003Y01259739
X00005003Y01269739
X00005003Y01279739
X00033950Y01086050
Y01056050
Y01306050
Y01336050
X00012000Y01327500
X00005000Y01320000
X00012000Y01297500
X00005003Y01289739
X00005004Y01349739
X00005004Y01359739
Y01369739
Y01379739
Y01389739
Y01399739
X00005005Y01409739
X00005005Y01419739
Y01429739
Y01439739
X00005005Y01449739
X00005005Y01459739
Y01469739
Y01479739
Y01489739
Y01499739
X00005005Y01509740
Y01519740
X00005005Y01529740
X00005005Y01539740
Y01549740
X00005006Y01559740
Y01569740
Y01579740
X00005006Y01589740
X00005006Y01599740
X00005006Y01609740
Y01619740
Y01629740
Y01639740
Y01649740
X00005006Y01659740
X00005006Y01669740
Y01679740
X00295000Y01661900
Y01649900
X00289000Y01647600
X00288000Y01641600
X00289000Y01634600
X00288574Y01628174
X00293000Y01623600
X00311300Y01509300
Y01501300
Y01493300
X00317600Y01497300
Y01505300
Y01513300
X00337100
X00358000Y01505300
X00364300Y01501300
Y01509300
Y01517300
X00295000Y01433300
Y01421300
X00289000Y01419000
X00288000Y01413000
X00289000Y01406000
X00288574Y01399574
X00293000Y01395000
X01059000Y01465000
X01069000
X01079000Y01465000
X01079000Y01475000
X01074000Y01470000
X01069000Y01475000
X01064000Y01470000
X01059000Y01475000
Y01485000
X01064000Y01480000
X01069000Y01485000
X01074000Y01480000
X01079000Y01485000
X01084000Y01480000
X01089000Y01485000
X01094000Y01480000
X01099000Y01485000
X01104000Y01480000
X01109000Y01485000
X01114000Y01480000
X01119000Y01485000
X01124000Y01480000
X01129000Y01485000
X01139000
X01144000Y01480000
X01149000Y01485000
X01154000Y01480000
X01159000Y01485000
X01164000Y01480000
Y01490000
X01159000Y01495000
X01154000Y01490000
X01149000Y01495000
X01144000Y01490000
X01139000Y01495000
X01134000Y01490000
X01129000Y01495000
X01124000Y01490000
X01119000Y01495000
X01114000Y01490000
X01109000Y01495000
X01104000Y01490000
X01099000Y01495000
X01094000Y01490000
X01089000Y01495000
X01084000Y01490000
X01079000Y01495000
X01074000Y01490000
X01069000Y01495000
X01064000Y01490000
X01059000Y01495000
Y01505000
X01064000Y01500000
X01069000Y01505000
X01074000Y01500000
X01079000Y01505000
X01084000Y01500000
X01089000Y01505000
X01094000Y01500000
X01099000Y01505000
X01104000Y01500000
X01109000Y01505000
X01114000Y01500000
X01119000Y01505000
X01124000Y01500000
X01129000Y01505000
X01139000
X01134000Y01500000
X01134000Y01510000
X01144000
X01154000
Y01500000
X01164000Y01500000
X01159000Y01505000
X01164000Y01510000
X01169000Y01505000
X01174000Y01500000
X01179000Y01505000
X01184000Y01500000
X01189000Y01505000
Y01495000
X01184000Y01490000
X01179000Y01495000
X01174000Y01490000
X01169000Y01495000
Y01485000
X01174000Y01480000
X01179000Y01485000
X01184000Y01480000
X01189000Y01485000
Y01475000
X01184000Y01470000
X01179000Y01475000
X01174000Y01470000
X01169000Y01475000
X01164000Y01470000
X01159000Y01475000
X01154000Y01470000
X01149000Y01475000
X01144000Y01470000
X01139000Y01475000
X01134000Y01470000
X01129000Y01475000
X01124000Y01470000
X01119000Y01475000
X01114000Y01470000
X01109000Y01475000
X01104000Y01470000
X01099000Y01475000
X01094000Y01470000
X01089000Y01475000
X01084000Y01470000
X01089000Y01465000
X01099000
X01109000
X01119000
X01129000
X01139000
X01149000
X01159000
X01169000
X01179000
X01189000
X01222500Y01469900
X01222500Y01482600
Y01546100
X01189000Y01545000
Y01535000
X01184000Y01540000
X01179000Y01545000
Y01535000
X01174000Y01540000
X01169000Y01535000
X01169000Y01545000
X01164000Y01540000
X01159000Y01535000
X01159000Y01545000
X01154000Y01540000
X01149000Y01545000
Y01535000
X01144000Y01540000
X01139000Y01545000
X01139000Y01535000
X01134000Y01540000
X01129000Y01545000
X01129000Y01535000
X01124000Y01540000
X01119000Y01545000
Y01535000
X01114000Y01540000
X01109000Y01545000
Y01535000
X01104000Y01540000
X01099000Y01535000
Y01545000
X01094000Y01540000
X01089000Y01545000
X01089000Y01535000
X01084000Y01540000
X01079000Y01545000
X01079000Y01535000
X01074000Y01540000
X01069000Y01545000
X01064000Y01540000
X01059000Y01545000
Y01535000
X01064000Y01530000
X01074000
X01084000
X01094000
X01104000
Y01520000
X01109000Y01525000
X01114000Y01520000
X01119000Y01525000
X01124000Y01520000
X01129000Y01525000
X01134000Y01520000
X01139000Y01525000
X01149000
X01154000Y01530000
X01164000
X01174000
X01184000
Y01520000
X01189000Y01525000
Y01515000
X01184000Y01510000
X01179000Y01515000
X01174000Y01510000
Y01520000
X01179000Y01525000
X01169000
X01164000Y01520000
X01154000
X01159000Y01525000
Y01515000
X01169000
X01149000
X01139000
X01129000
X01124000Y01510000
X01119000Y01515000
X01114000Y01510000
X01109000Y01515000
X01104000Y01510000
X01099000Y01515000
X01094000Y01510000
X01089000Y01515000
X01084000Y01510000
X01079000Y01515000
X01074000Y01510000
X01069000Y01515000
X01064000Y01510000
X01059000Y01515000
Y01525000
X01064000Y01520000
X01069000Y01525000
X01074000Y01520000
X01079000Y01525000
X01084000Y01520000
X01089000Y01525000
X01094000Y01520000
X01099000Y01525000
X01114000Y01530000
X01124000
X01134000
X01144000
Y01520000
X01149000Y01505000
X01144000Y01500000
X01134000Y01480000
X01134000Y01550000
X01144000
X01154000
X01164000
X01174000
X01184000
X01124000
X01114000
X01104000
X01094000
X01084000Y01550000
X01074000
X01064000
X01069000Y01535000
X01066000Y01677000
X00947000Y01679000
X00938000Y01679000
X00929000Y01679000
X00920000Y01679050
X00911000
X00902000Y01679050
X01267500Y01648900
X01240000Y01606000
X01306000Y01645000
X01316000
X01326000
X01321000Y01650000
X01326000Y01655000
X01321000Y01660000
X01316000Y01655000
X01311000Y01650000
Y01660000
X01306000Y01655000
X01301000Y01650000
Y01660000
X01306000Y01665000
Y01675000
X01301000Y01670000
Y01680000
X01311000
Y01670000
X01316000Y01675000
Y01665000
X01326000
X01336000
Y01675000
X01326000
X01321000Y01670000
X01331000Y01670000
Y01680000
X01321000
X01341000
Y01670000
X01351000
Y01680000
X01361000
X01361000Y01670000
X01356000Y01675000
Y01665000
X01366000
X01376000
X01386000
Y01675000
X01381000Y01670000
X01376000Y01675000
X01371000Y01670000
X01366000Y01675000
X01371000Y01680000
X01381000
X01391000
Y01670000
X01396000Y01675000
X01401000Y01670000
X01406000Y01675000
X01411000Y01670000
X01416000Y01675000
X01421000Y01670000
X01426000Y01675000
X01431000Y01670000
Y01680000
X01421000
X01411000
X01401000
X01396000Y01665000
Y01655000
X01391000Y01660000
Y01650000
X01386000Y01655000
X01381000Y01650000
Y01660000
X01376000Y01655000
X01371000Y01650000
Y01660000
X01366000Y01655000
X01361000Y01660000
X01356000Y01655000
X01361000Y01650000
X01356000Y01645000
X01346000
Y01655000
X01351000Y01650000
X01351000Y01660000
X01341000
Y01650000
X01336000Y01655000
X01331000Y01650000
X01331000Y01660000
X01336000Y01645000
X01346000Y01665000
Y01675000
X01366000Y01645000
X01376000
X01386000
X01396000
X01401000Y01650000
X01401000Y01660000
X01406000Y01655000
X01411000Y01650000
X01411000Y01660000
X01416000Y01655000
X01421000Y01650000
X01426000Y01655000
X01431000Y01650000
Y01660000
X01426000Y01665000
X01416000
X01406000
X01421000Y01660000
X01416000Y01645000
X01406000
X01426000
X01485000Y01474000
X01490000Y01470000
X01618000Y01423000
X01626000Y01428000
X01320025Y01399975
X01310025
X01365250Y01295000
Y01290000
X01377750
Y01295000
X01693000Y01296000
Y01288000
X01863750Y01482000
Y01489000
Y01496000
Y01503000
X01877750
Y01496000
Y01489000
Y01482000
X01896250Y01514000
Y01519000
X01908750
Y01514000
X01952250Y01503000
Y01496000
Y01489000
Y01482000
X01966250
Y01489000
Y01496000
Y01503000
X02020000Y01536000
Y01546000
Y01556000
Y01566000
Y01576000
Y01586000
X02041000Y01591000
X02055000Y01573000
X02055000Y01565000
Y01557000
X02063000Y01557000
X02071000Y01557000
Y01565000
X02071000Y01573000
X02063000Y01573000
Y01565000
X02063000Y01549000
X02055000Y01549000
X02071000
X02066950Y01531000
X02044050
X01966000Y01606000
X01970000Y01611000
X01935793Y01609793
X01908000Y01637000
X01899000Y01638000
X01989000Y01663000
X02084000Y01591000
X02126000Y01590000
Y01579000
X02126100Y01568000
X02126000Y01556000
X02136000
X02126000Y01545000
Y01525000
Y01512000
X02115000Y01492000
X02143000
X02155000Y01493000
Y01486000
X02165000
Y01493000
X02251000
X02251000Y01486000
X02261000
X02261000Y01493000
X02294994Y01490260
Y01480260
X02294994Y01470260
X02294994Y01460260
Y01450260
Y01440260
Y01430260
Y01420260
X02294993Y01410260
Y01400260
Y01390260
Y01380260
Y01370260
X02294993Y01360260
X02295000Y01350262
X02294999Y01340261
Y01330261
Y01320261
Y01310261
Y01300261
X02294999Y01290261
X02294994Y01500260
Y01510260
X02294995Y01520260
Y01530260
Y01540260
Y01550260
Y01560260
X02294995Y01570261
Y01580261
Y01590260
X02294995Y01600261
X02294995Y01610261
X02294995Y01620261
Y01630261
Y01640261
Y01650261
Y01660261
X02294996Y01670261
Y01680261
X02261000Y01648000
X02261000Y01641000
X02251000
X02251000Y01648000
X02163500Y01640500
X02156500Y01640500
Y01630500
X02163500Y01630500
X02153650Y01385500
Y01366500
X02294996Y01690261
Y01700261
Y01710261
X02294996Y01720261
Y01730261
Y01740261
Y01750261
Y01760261
X02294997Y01770261
Y01780261
Y01790261
X02294997Y01800261
X02294997Y01810261
X02294997Y01820261
Y01830261
Y01840261
Y01850261
Y01860261
X02294997Y01870261
Y01880261
Y01890261
Y01900261
Y01910261
X02294998Y01920261
Y01930261
Y01940261
X02294998Y01950261
X02294998Y01960261
X02294998Y01970261
Y01980261
Y01990261
Y02000261
Y02010261
X02294998Y02020261
X02294998Y02030261
Y02040261
Y02050261
Y02060261
X02294999Y02070261
Y02080261
X02055400Y01852600
Y01847600
Y01842600
X02049400
Y01847600
Y01852600
X01970192Y01840464
X01964192
X01958192
X01962000Y01846000
X01935000Y01860000
X01903105Y01842738
X01900000Y01836000
X01891000Y01827812
X01884000Y01826000
X01865000Y01820000
X01966213Y01782728
X01972213
Y01776728
X01966213Y01776728
X01964000Y01727000
X01964000Y01721000
X01970000
Y01727000
X01981000Y01712000
Y01706000
X01987000
Y01712000
X02014000Y01687000
X02062000Y01686000
X02055000Y01716000
X01839949Y02020051
X01792000Y02077000
X01782000
X01787000Y02072000
X01777000
X01772000Y02077000
X01762000
X01767000Y02072000
X01757000
X01752000Y02077000
X01742000
X01747000Y02072000
X01737000
X01732000Y02077000
X01722000
X01727000Y02072000
X01717000
X01712000Y02077000
X01707000Y02072000
X01639949Y02020051
X01592000Y02077000
X01582000
X01587000Y02072000
X01577000
X01572000Y02077000
X01562000
X01567000Y02072000
X01557000
X01552000Y02077000
X01542000
X01547000Y02072000
X01537000
X01532000Y02077000
X01522000
X01527000Y02072000
X01517000
X01512000Y02077000
X01507000Y02072000
X01439949Y02020051
X01392000Y02077000
X01382000
X01387000Y02072000
X01377000
X01372000Y02077000
X01362000
X01367000Y02072000
X01357000
X01352000Y02077000
X01342000
X01347000Y02072000
X01337000
X01332000Y02077000
X01322000
X01327000Y02072000
X01317000
X01312000Y02077000
X01307000Y02072000
X01311000Y01730000
X01321000
Y01720000
X01326000Y01725000
X01331000Y01720000
X01336000Y01725000
X01341000Y01720000
X01346000Y01725000
X01351000Y01720000
X01356000Y01725000
X01361000Y01720000
X01366000Y01725000
X01371000Y01720000
X01376000Y01725000
X01381000Y01720000
X01386000Y01725000
X01391000Y01720000
X01396000Y01725000
Y01715000
X01391000Y01710000
X01386000Y01715000
X01381000Y01710000
X01376000Y01715000
X01371000Y01710000
X01366000Y01715000
X01361000Y01710000
X01351000
X01346000Y01715000
X01341000Y01710000
X01336000Y01715000
X01331000Y01710000
X01326000Y01715000
Y01705000
X01331000Y01700000
X01336000Y01705000
X01341000Y01700000
X01346000Y01705000
X01351000Y01700000
X01356000Y01705000
X01361000Y01700000
X01366000Y01705000
X01371000Y01700000
X01376000Y01705000
X01381000Y01700000
X01386000Y01705000
X01391000Y01700000
X01396000Y01705000
X01401000Y01700000
X01406000Y01705000
X01411000Y01700000
X01416000Y01705000
X01421000Y01700000
X01426000Y01705000
X01431000Y01700000
Y01710000
X01426000Y01715000
X01421000Y01710000
X01416000Y01715000
X01411000Y01710000
X01406000Y01715000
X01401000Y01710000
X01401000Y01720000
X01406000Y01725000
X01411000Y01720000
X01416000Y01725000
X01421000Y01720000
X01426000Y01725000
X01431000Y01720000
Y01730000
X01421000
X01411000Y01730000
X01401000
X01391000
X01381000
X01371000
X01361000
X01351000
X01341000
X01331000
X01316000Y01725000
X01311000Y01720000
X01306000Y01725000
X01301000Y01720000
Y01710000
X01306000Y01715000
X01311000Y01710000
X01316000Y01715000
X01321000Y01710000
Y01700000
X01316000Y01705000
X01311000Y01700000
X01306000Y01705000
X01301000Y01700000
Y01690000
X01306000Y01695000
X01311000Y01690000
X01316000Y01695000
X01321000Y01690000
X01326000Y01695000
X01331000Y01690000
X01336000Y01685000
Y01695000
X01341000Y01690000
X01351000
X01356000Y01695000
X01361000Y01690000
X01366000Y01695000
X01371000Y01690000
X01376000Y01695000
X01381000Y01690000
X01386000Y01695000
X01391000Y01690000
X01396000Y01695000
X01401000Y01690000
X01406000Y01695000
X01411000Y01690000
X01416000Y01695000
X01421000Y01690000
X01426000Y01695000
X01431000Y01690000
X01426000Y01685000
X01416000
X01406000
X01396000
X01386000
X01376000
X01366000
X01356000Y01685000
X01346000
Y01695000
X01356000Y01715000
X01326000Y01685000
X01316000Y01685000
X01306000
X01301000Y01730000
X01404000Y01774000
X01424000Y01775650
X01430000
Y01781650
X01424000
X01499300Y01756500
X01494650Y01740550
X01499300Y01720500
X01494650Y01704550
X01524000Y01711000
Y01730000
Y01747000
Y01766000
X01080000Y01780948
X01080000Y01738000
X01078000Y01723000
X01030000Y01726000
Y01737000
X01025000Y01765000
Y01773000
X00974000Y01757000
X00974000Y01748000
X00974000Y01739000
Y01730000
X00973950Y01721000
X00974000Y01712000
X00973000Y01695000
X00964000Y01695050
X00955000Y01695000
X00941000Y01696000
X00928000Y01704000
X00921800Y01707000
X00895000Y01704000
Y01696000
X00905000Y01757950
X00921700Y01747000
X00929000Y01766000
X00941000
X00953000
X00947000Y01785000
X00940000
X00930000
X00912000
X00906000
X00900000Y01785000
X00894000Y01785000
X00955000Y01721000
X00952000Y02072000
X00947000Y02077000
X00937000
X00942000Y02072000
X00932000
X00927000Y02077000
X00917000
X00922000Y02072000
X00912000
X00907000Y02077000
X00902000Y02072000
X00962000
X00957000Y02077000
X00967000
X00977000
X00982000Y02072000
X00972000
X00987000Y02077000
X01034949Y02020051
X01107000Y02072000
X01117000
X01112000Y02077000
X01122000
X01127000Y02072000
X01137000
X01132000Y02077000
X01142000
X01147000Y02072000
X01157000
X01152000Y02077000
X01162000
X01167000Y02072000
X01172000Y02077000
X01182000
X01187000Y02072000
X01177000
X01192000Y02077000
X01239949Y02020051
X00844949
X00797000Y02077000
X00787000
X00792000Y02072000
X00782000
X00777000Y02077000
X00767000
X00772000Y02072000
X00762000
X00757000Y02077000
X00747000
X00752000Y02072000
X00742000
X00737000Y02077000
X00727000
X00732000Y02072000
X00722000
X00717000Y02077000
X00712000Y02072000
X00644949Y02020051
X00597000Y02077000
X00587000
X00582000Y02072000
X00592000
X00577000Y02077000
X00567000
X00572000Y02072000
X00562000
X00557000Y02077000
X00547000
X00552000Y02072000
X00542000
X00537000Y02077000
X00527000
X00532000Y02072000
X00522000
X00517000Y02077000
X00512000Y02072000
X00669000Y01863000
X00719500Y01812500
X00729500
Y01802500
X00719500
Y01792500
X00729500
Y01782500
X00719500
Y01772500
X00729500
X00739500Y01773500
X00749500
Y01783500
Y01793500
X00739500
Y01783500
Y01803500
X00749500
Y01813500
X00739500
X00759500
X00769500
Y01803500
X00759500
Y01793500
Y01783500
X00769500
Y01793500
Y01773500
X00759500
X00805000Y01840000
X00876000Y01785000
X00888000
X00880000Y01768050
X00871000Y01768050
X00364300Y01745900
Y01737900
Y01729900
X00358000Y01733900
X00337100Y01741900
X00317600
Y01733900
Y01725900
X00311300Y01721900
Y01729900
Y01737900
X00257051Y02054051
X00005003Y02049739
X00005003Y02039739
X00005003Y02029739
Y02019739
Y02009739
X00005002Y01999739
X00005002Y01989739
Y01979739
Y01969739
X00005002Y01959739
X00005002Y01949739
Y01939739
Y01929739
Y01919739
Y01909739
X00005002Y01899739
X00005002Y01889739
X00005002Y01879739
Y01869739
Y01859739
X00005001Y01849739
Y01839739
Y01829739
Y01819739
Y01809739
X00005001Y01799739
X00005007Y01789740
X00005007Y01779740
Y01769740
X00005007Y01759740
X00005007Y01749740
X00005007Y01739740
Y01729740
X00005007Y01719740
Y01709740
X00005006Y01699740
Y01689740
X00005003Y02059739
X00005003Y02069739
Y02079739
Y02089739
Y02099739
X00005003Y02109739
X00005003Y02119739
Y02129739
Y02139739
Y02149739
X00005004Y02159739
Y02169739
Y02179739
Y02189739
Y02199739
X00005865Y02208779
X00008426Y02217220
X00012584Y02225000
X00018180Y02231819
X00024999Y02237415
X00032779Y02241574
X00041221Y02244135
X00049738Y02245000
X00059738Y02245000
X00069738Y02245000
X00079738
X00089739
X00099739
X00109739
X00119739
X00129739Y02245000
X00139739Y02244999
X00149739
X00159739
X00169739
X00179739
X00189739Y02244999
X00199739
X00209739
X00219739
X00229739
X00239739Y02244998
X00249739
X00259739
X00269739
X00279739Y02244998
X00289739Y02244998
X00299739
X00309739
X00319739
X00329739
X00339739Y02244998
X00349739Y02244998
X00359739Y02244998
X00369739
X00379739
X00389739Y02244997
X00399739
X00409739
X00419739
X00429739
X00439739Y02244997
X00449739
X00459739
X00469739
X00479739
X00489739Y02244997
X00439000Y02187000
X00429000
X00419000Y02187000
X00419000Y02177000
X00424000Y02182000
X00429000Y02177000
X00434000Y02182000
X00439000Y02177000
Y02167000
X00434000Y02172000
X00429000Y02167000
X00424000Y02172000
X00419000Y02167000
X00414000Y02172000
X00409000Y02167000
X00404000Y02172000
X00399000Y02167000
X00394000Y02172000
X00389000Y02167000
X00384000Y02172000
X00379000Y02167000
X00374000Y02172000
X00369000Y02167000
X00359000
X00354000Y02172000
X00349000Y02167000
X00344000Y02172000
X00339000Y02167000
X00334000Y02172000
Y02162000
X00339000Y02157000
X00344000Y02162000
X00349000Y02157000
X00354000Y02162000
X00359000Y02157000
X00364000Y02162000
X00369000Y02157000
X00374000Y02162000
X00379000Y02157000
X00384000Y02162000
X00389000Y02157000
X00394000Y02162000
X00399000Y02157000
X00404000Y02162000
X00409000Y02157000
X00414000Y02162000
X00419000Y02157000
X00424000Y02162000
X00429000Y02157000
X00434000Y02162000
X00439000Y02157000
Y02147000
X00434000Y02152000
X00429000Y02147000
X00424000Y02152000
X00419000Y02147000
X00414000Y02152000
X00409000Y02147000
X00404000Y02152000
X00399000Y02147000
X00394000Y02152000
X00389000Y02147000
X00384000Y02152000
X00379000Y02147000
X00374000Y02152000
X00369000Y02147000
X00359000
X00364000Y02152000
X00364000Y02142000
X00354000
X00344000
Y02152000
X00334000Y02152000
X00339000Y02147000
X00334000Y02142000
X00329000Y02147000
X00324000Y02152000
X00319000Y02147000
X00314000Y02152000
X00309000Y02147000
Y02157000
X00314000Y02162000
X00319000Y02157000
X00324000Y02162000
X00329000Y02157000
Y02167000
X00324000Y02172000
X00319000Y02167000
X00314000Y02172000
X00309000Y02167000
Y02177000
X00314000Y02182000
X00319000Y02177000
X00324000Y02182000
X00329000Y02177000
X00334000Y02182000
X00339000Y02177000
X00344000Y02182000
X00349000Y02177000
X00354000Y02182000
X00359000Y02177000
X00364000Y02182000
X00369000Y02177000
X00374000Y02182000
X00379000Y02177000
X00384000Y02182000
X00389000Y02177000
X00394000Y02182000
X00399000Y02177000
X00404000Y02182000
X00409000Y02177000
X00414000Y02182000
X00409000Y02187000
X00399000
X00389000
X00379000
X00369000
X00359000
X00349000
X00339000
X00329000
X00319000
X00309000
Y02137000
X00314000Y02142000
X00319000Y02137000
X00324000Y02142000
Y02132000
X00319000Y02127000
X00314000Y02132000
X00309000Y02127000
X00314000Y02122000
X00324000
X00334000
X00344000
Y02132000
X00334000
X00329000Y02127000
X00339000Y02127000
Y02137000
X00329000
X00349000
Y02127000
X00359000
Y02137000
X00369000
X00369000Y02127000
X00364000Y02132000
Y02122000
X00374000
X00384000
X00394000
Y02132000
X00389000Y02127000
X00384000Y02132000
X00379000Y02127000
X00374000Y02132000
Y02142000
X00379000Y02137000
X00384000Y02142000
X00389000Y02137000
X00394000Y02142000
X00399000Y02137000
X00404000Y02142000
X00409000Y02137000
X00414000Y02142000
X00419000Y02137000
X00424000Y02142000
X00429000Y02137000
X00434000Y02142000
X00439000Y02137000
Y02127000
X00434000Y02132000
X00429000Y02127000
X00424000Y02132000
X00419000Y02127000
X00414000Y02132000
X00409000Y02127000
X00404000Y02132000
X00399000Y02127000
X00404000Y02122000
Y02112000
X00399000Y02117000
Y02107000
X00394000Y02112000
X00389000Y02107000
Y02117000
X00384000Y02112000
X00379000Y02107000
Y02117000
X00374000Y02112000
X00369000Y02117000
X00364000Y02112000
X00369000Y02107000
X00364000Y02102000
X00354000
Y02112000
X00359000Y02107000
X00359000Y02117000
X00349000
Y02107000
X00344000Y02112000
X00339000Y02107000
X00339000Y02117000
X00334000Y02112000
X00329000Y02107000
X00329000Y02117000
X00324000Y02112000
X00319000Y02107000
Y02117000
X00314000Y02112000
X00309000Y02107000
Y02117000
X00314000Y02102000
X00324000
X00334000
X00344000
X00354000Y02122000
Y02132000
X00349000Y02147000
X00354000Y02152000
X00364000Y02172000
X00374000Y02102000
X00384000
X00394000
X00404000
X00409000Y02107000
X00409000Y02117000
X00414000Y02112000
X00419000Y02107000
X00419000Y02117000
X00424000Y02112000
X00429000Y02107000
X00434000Y02112000
X00439000Y02107000
Y02117000
X00434000Y02122000
X00424000
X00414000
X00429000Y02117000
X00424000Y02102000
X00414000
X00434000
X00512000Y02102000
X00522000
X00517000Y02107000
X00522000Y02112000
X00517000Y02117000
X00522000Y02122000
X00517000Y02127000
X00522000Y02132000
X00517000Y02137000
X00522000Y02142000
X00517000Y02147000
X00522000Y02152000
X00517000Y02157000
X00522000Y02162000
X00517000Y02167000
X00522000Y02172000
X00517000Y02177000
X00522000Y02182000
X00517000Y02187000
X00522000Y02192000
X00517000Y02197000
X00522000Y02202000
X00532000
X00527000Y02197000
X00532000Y02192000
X00527000Y02187000
X00532000Y02182000
X00527000Y02177000
X00532000Y02172000
X00527000Y02167000
X00532000Y02162000
X00527000Y02157000
X00532000Y02152000
X00527000Y02147000
X00532000Y02142000
X00527000Y02137000
X00532000Y02132000
X00527000Y02127000
X00532000Y02122000
X00527000Y02117000
X00532000Y02112000
X00527000Y02107000
X00532000Y02102000
X00527000Y02097000
X00532000Y02092000
X00527000Y02087000
X00532000Y02082000
X00522000
X00517000Y02087000
X00522000Y02092000
X00517000Y02097000
X00512000Y02092000
Y02082000
Y02112000
Y02122000
Y02132000
Y02142000
Y02152000
Y02162000
Y02172000
Y02182000
Y02192000
Y02202000
X00542000
X00537000Y02197000
X00542000Y02192000
X00537000Y02187000
X00542000Y02182000
X00537000Y02177000
X00542000Y02172000
X00537000Y02167000
X00542000Y02162000
X00537000Y02157000
X00542000Y02152000
X00537000Y02147000
X00542000Y02142000
X00537000Y02137000
X00542000Y02132000
X00537000Y02127000
X00542000Y02122000
X00537000Y02117000
X00542000Y02112000
X00537000Y02107000
X00542000Y02102000
X00537000Y02097000
X00542000Y02092000
X00537000Y02087000
X00542000Y02082000
X00552000
X00547000Y02087000
X00552000Y02092000
X00547000Y02097000
X00552000Y02102000
X00547000Y02107000
X00552000Y02112000
X00547000Y02117000
X00552000Y02122000
X00547000Y02127000
X00552000Y02132000
X00547000Y02137000
X00552000Y02142000
X00547000Y02147000
X00552000Y02152000
X00547000Y02157000
X00552000Y02162000
X00547000Y02167000
X00552000Y02172000
X00547000Y02177000
X00552000Y02182000
X00547000Y02187000
X00552000Y02192000
X00547000Y02197000
X00552000Y02202000
X00562000
X00557000Y02197000
X00562000Y02192000
X00557000Y02187000
X00562000Y02182000
X00557000Y02177000
X00562000Y02172000
X00557000Y02167000
X00562000Y02162000
X00557000Y02157000
X00562000Y02152000
X00557000Y02147000
X00562000Y02142000
X00557000Y02137000
X00562000Y02132000
X00557000Y02127000
X00562000Y02122000
X00557000Y02117000
X00562000Y02112000
X00557000Y02107000
X00562000Y02102000
X00557000Y02097000
X00562000Y02092000
X00557000Y02087000
X00562000Y02082000
X00572000
X00567000Y02087000
X00572000Y02092000
X00567000Y02097000
X00572000Y02102000
X00567000Y02107000
X00572000Y02112000
X00567000Y02117000
X00572000Y02122000
X00567000Y02127000
X00572000Y02132000
X00567000Y02137000
X00572000Y02142000
X00567000Y02147000
X00572000Y02152000
X00567000Y02157000
X00572000Y02162000
X00567000Y02167000
X00572000Y02172000
X00567000Y02177000
X00572000Y02182000
X00567000Y02187000
X00572000Y02192000
X00567000Y02197000
X00572000Y02202000
X00577000Y02197000
X00587000
X00592000Y02202000
X00582000
Y02192000
X00592000
X00587000Y02187000
X00592000Y02182000
X00582000
X00587000Y02177000
X00592000Y02172000
X00582000
X00587000Y02167000
X00592000Y02162000
X00582000
X00587000Y02157000
X00582000Y02152000
X00592000
X00587000Y02147000
X00582000Y02142000
X00592000
X00587000Y02137000
X00582000Y02132000
X00592000
X00587000Y02127000
X00582000Y02122000
X00592000
X00587000Y02117000
X00582000Y02112000
X00592000
X00587000Y02107000
X00582000Y02102000
X00592000
X00587000Y02097000
X00582000Y02092000
X00592000
X00587000Y02087000
X00582000Y02082000
X00592000
X00597000Y02087000
Y02097000
Y02107000
Y02117000
Y02127000
Y02137000
Y02147000
Y02157000
Y02167000
Y02177000
Y02187000
Y02197000
X00577000Y02187000
Y02177000
Y02167000
Y02157000
Y02147000
Y02137000
Y02127000
Y02117000
Y02107000
Y02097000
Y02087000
X00712000Y02082000
Y02092000
X00722000
X00717000Y02097000
X00722000Y02102000
X00717000Y02107000
X00722000Y02112000
X00717000Y02117000
X00722000Y02122000
X00717000Y02127000
X00722000Y02132000
X00717000Y02137000
X00722000Y02142000
X00717000Y02147000
X00722000Y02152000
X00717000Y02157000
X00722000Y02162000
X00717000Y02167000
X00722000Y02172000
X00717000Y02177000
X00722000Y02182000
X00717000Y02187000
X00722000Y02192000
X00717000Y02197000
X00722000Y02202000
X00712000
Y02192000
Y02182000
Y02172000
Y02162000
Y02152000
Y02142000
Y02132000
Y02122000
Y02112000
Y02102000
X00732000
X00727000Y02097000
X00732000Y02092000
X00727000Y02087000
X00732000Y02082000
X00742000
X00737000Y02087000
X00742000Y02092000
X00737000Y02097000
X00742000Y02102000
X00737000Y02107000
X00742000Y02112000
X00737000Y02117000
X00742000Y02122000
X00737000Y02127000
X00742000Y02132000
X00737000Y02137000
X00742000Y02142000
X00737000Y02147000
X00742000Y02152000
X00737000Y02157000
X00742000Y02162000
X00737000Y02167000
X00742000Y02172000
X00737000Y02177000
X00742000Y02182000
X00737000Y02187000
X00742000Y02192000
X00737000Y02197000
X00742000Y02202000
X00732000
X00727000Y02197000
X00732000Y02192000
X00727000Y02187000
X00732000Y02182000
X00727000Y02177000
X00732000Y02172000
X00727000Y02167000
X00732000Y02162000
X00727000Y02157000
X00732000Y02152000
X00727000Y02147000
X00732000Y02142000
X00727000Y02137000
X00732000Y02132000
X00727000Y02127000
X00732000Y02122000
X00727000Y02117000
X00732000Y02112000
X00727000Y02107000
X00747000
X00752000Y02102000
X00747000Y02097000
X00752000Y02092000
X00747000Y02087000
X00752000Y02082000
X00762000
X00757000Y02087000
X00762000Y02092000
X00757000Y02097000
X00762000Y02102000
X00757000Y02107000
X00762000Y02112000
X00757000Y02117000
X00762000Y02122000
X00757000Y02127000
X00762000Y02132000
X00757000Y02137000
X00762000Y02142000
X00757000Y02147000
X00762000Y02152000
X00757000Y02157000
X00762000Y02162000
X00757000Y02167000
X00762000Y02172000
X00757000Y02177000
X00762000Y02182000
X00757000Y02187000
X00762000Y02192000
X00757000Y02197000
X00762000Y02202000
X00772000
X00767000Y02197000
X00772000Y02192000
X00767000Y02187000
X00772000Y02182000
X00767000Y02177000
X00772000Y02172000
X00767000Y02167000
X00772000Y02162000
X00767000Y02157000
X00772000Y02152000
X00767000Y02147000
X00772000Y02142000
X00767000Y02137000
X00772000Y02132000
X00767000Y02127000
X00772000Y02122000
X00767000Y02117000
X00772000Y02112000
X00767000Y02107000
X00772000Y02102000
X00767000Y02097000
X00772000Y02092000
X00767000Y02087000
X00772000Y02082000
X00777000Y02087000
Y02097000
Y02107000
Y02117000
Y02127000
Y02137000
Y02147000
Y02157000
X00787000
X00792000Y02152000
X00782000
X00787000Y02147000
X00792000Y02142000
X00782000
X00787000Y02137000
X00792000Y02132000
X00782000
X00787000Y02127000
X00792000Y02122000
X00782000
X00787000Y02117000
X00792000Y02112000
X00782000
X00787000Y02107000
X00792000Y02102000
X00782000
X00787000Y02097000
X00792000Y02092000
X00782000
X00787000Y02087000
X00792000Y02082000
X00782000
X00797000Y02087000
Y02097000
Y02107000
Y02117000
Y02127000
Y02137000
Y02147000
Y02157000
Y02167000
Y02177000
Y02187000
X00787000
X00782000Y02182000
X00792000
X00787000Y02177000
X00782000Y02172000
X00792000
X00787000Y02167000
X00782000Y02162000
X00792000
X00777000Y02167000
Y02177000
Y02187000
Y02197000
X00787000
X00792000Y02192000
X00782000
Y02202000
X00792000
X00797000Y02197000
X00747000
X00752000Y02192000
X00747000Y02187000
X00752000Y02182000
X00747000Y02177000
X00752000Y02172000
X00747000Y02167000
X00752000Y02162000
X00747000Y02157000
X00752000Y02152000
X00747000Y02147000
X00752000Y02142000
X00747000Y02137000
X00752000Y02132000
X00747000Y02127000
X00752000Y02122000
X00747000Y02117000
X00752000Y02112000
X00717000Y02087000
X00722000Y02082000
X00752000Y02202000
X00749740Y02244995
X00759740
X00769740
X00779740
X00789740Y02244994
X00799740
X00809740Y02244994
X00819740
X00829740Y02244994
X00839740Y02244994
X00849740
X00859740
X00869740
X00879740
X00889740Y02244993
X00739740Y02244995
X00729739Y02244995
X00719739
X00709739
X00699739Y02244995
X00689739Y02244995
X00679739Y02244995
X00669739
X00659739
X00649739
X00639739
X00629739Y02244996
X00619739
X00609739
X00599739
X00589739
X00579739Y02244996
X00569739
X00559739
X00549739
X00539739
X00529739Y02244997
X00519739
X00509739
X00499739Y02244997
X00899740Y02244993
X00909740
X00919740
X00929740
X00939740Y02244993
X00949738Y02245000
X00959739Y02244999
X00969739
X00979739
X00989739
X00999739
X01009739Y02244999
X01019739
X01029739
X01039739Y02244999
X01049739Y02244999
X01059739Y02244998
X01069739
X01079739
X01089739
X01099739Y02244998
X01109739Y02244998
X01119739Y02244998
X01129739
X01139739
X01149739Y02244998
X01159739Y02244998
X01169739Y02244998
X01179739
X01189739Y02244998
X01199739
X01209739Y02244997
X01219739
X01229739
X01239739
X01249739
X01259739Y02244997
X01269739Y02244997
X01279739
X01192000Y02197000
Y02187000
X01182000
X01177000Y02182000
X01187000
X01182000Y02177000
X01177000Y02172000
X01187000
X01182000Y02167000
X01177000Y02162000
X01187000
X01182000Y02157000
X01187000Y02152000
X01177000
X01182000Y02147000
X01187000Y02142000
X01177000
X01182000Y02137000
X01187000Y02132000
X01177000
X01182000Y02127000
X01187000Y02122000
X01177000
X01182000Y02117000
X01187000Y02112000
X01177000
X01182000Y02107000
X01187000Y02102000
X01177000
X01182000Y02097000
X01187000Y02092000
X01177000
X01182000Y02087000
X01187000Y02082000
X01177000
X01172000Y02087000
X01162000
X01167000Y02082000
X01157000
X01152000Y02087000
X01157000Y02092000
X01152000Y02097000
X01157000Y02102000
X01152000Y02107000
X01157000Y02112000
X01152000Y02117000
X01157000Y02122000
X01152000Y02127000
X01157000Y02132000
X01152000Y02137000
X01157000Y02142000
X01152000Y02147000
X01157000Y02152000
X01152000Y02157000
X01157000Y02162000
X01152000Y02167000
X01157000Y02172000
X01152000Y02177000
X01157000Y02182000
X01152000Y02187000
X01157000Y02192000
X01152000Y02197000
X01157000Y02202000
X01167000
X01162000Y02197000
X01167000Y02192000
X01162000Y02187000
X01167000Y02182000
X01162000Y02177000
X01167000Y02172000
X01162000Y02167000
X01167000Y02162000
X01162000Y02157000
X01167000Y02152000
X01162000Y02147000
X01167000Y02142000
X01162000Y02137000
X01167000Y02132000
X01162000Y02127000
X01167000Y02122000
X01162000Y02117000
X01167000Y02112000
X01162000Y02107000
X01167000Y02102000
X01162000Y02097000
X01167000Y02092000
X01172000Y02097000
Y02107000
Y02117000
Y02127000
Y02137000
Y02147000
Y02157000
Y02167000
Y02177000
Y02187000
Y02197000
X01182000
X01187000Y02192000
X01177000
Y02202000
X01187000
X01192000Y02177000
Y02167000
Y02157000
Y02147000
Y02137000
Y02127000
Y02117000
Y02107000
Y02097000
Y02087000
X01142000
X01147000Y02082000
X01137000
X01132000Y02087000
X01137000Y02092000
X01132000Y02097000
X01137000Y02102000
X01132000Y02107000
X01137000Y02112000
X01132000Y02117000
X01137000Y02122000
X01132000Y02127000
X01137000Y02132000
X01132000Y02137000
X01137000Y02142000
X01132000Y02147000
X01137000Y02152000
X01132000Y02157000
X01137000Y02162000
X01132000Y02167000
X01137000Y02172000
X01132000Y02177000
X01137000Y02182000
X01132000Y02187000
X01137000Y02192000
X01132000Y02197000
X01137000Y02202000
X01127000
X01122000Y02197000
X01127000Y02192000
X01122000Y02187000
X01127000Y02182000
X01122000Y02177000
X01127000Y02172000
X01122000Y02167000
X01127000Y02162000
X01122000Y02157000
X01127000Y02152000
X01122000Y02147000
X01127000Y02142000
X01122000Y02137000
X01127000Y02132000
X01122000Y02127000
X01127000Y02122000
X01122000Y02117000
X01127000Y02112000
X01122000Y02107000
X01127000Y02102000
X01122000Y02097000
X01127000Y02092000
X01122000Y02087000
X01127000Y02082000
X01117000
X01112000Y02087000
X01117000Y02092000
X01112000Y02097000
X01117000Y02102000
X01112000Y02107000
X01117000Y02112000
X01112000Y02117000
X01117000Y02122000
X01112000Y02127000
X01117000Y02132000
X01112000Y02137000
X01117000Y02142000
X01112000Y02147000
X01117000Y02152000
X01112000Y02157000
X01117000Y02162000
X01112000Y02167000
X01117000Y02172000
X01112000Y02177000
X01117000Y02182000
X01112000Y02187000
X01117000Y02192000
X01112000Y02197000
X01117000Y02202000
X01107000
Y02192000
Y02182000
Y02172000
Y02162000
Y02152000
Y02142000
Y02132000
Y02122000
Y02112000
Y02102000
Y02092000
Y02082000
X01147000Y02092000
X01142000Y02097000
X01147000Y02102000
X01142000Y02107000
X01147000Y02112000
X01142000Y02117000
X01147000Y02122000
X01142000Y02127000
X01147000Y02132000
X01142000Y02137000
X01147000Y02142000
X01142000Y02147000
X01147000Y02152000
X01142000Y02157000
X01147000Y02162000
X01142000Y02167000
X01147000Y02172000
X01142000Y02177000
X01147000Y02182000
X01142000Y02187000
X01147000Y02192000
X01142000Y02197000
X01147000Y02202000
X01056000Y02221000
X01048000
X01043050Y02175000
X01051000Y02168000
X00987000Y02167000
Y02157000
Y02147000
Y02137000
X00977000
X00982000Y02132000
X00972000
X00977000Y02127000
X00982000Y02122000
X00972000
X00977000Y02117000
X00982000Y02112000
X00972000
X00977000Y02107000
X00982000Y02102000
X00972000
X00977000Y02097000
X00982000Y02092000
X00972000
X00977000Y02087000
X00982000Y02082000
X00972000
X00967000Y02087000
X00957000
X00962000Y02082000
X00952000
X00947000Y02087000
X00952000Y02092000
X00947000Y02097000
X00952000Y02102000
X00947000Y02107000
X00952000Y02112000
X00947000Y02117000
X00952000Y02122000
X00947000Y02127000
X00952000Y02132000
X00947000Y02137000
X00952000Y02142000
X00947000Y02147000
X00952000Y02152000
X00947000Y02157000
X00952000Y02162000
X00947000Y02167000
X00952000Y02172000
X00947000Y02177000
X00952000Y02182000
X00947000Y02187000
X00952000Y02192000
X00947000Y02197000
X00952000Y02202000
X00962000
X00957000Y02197000
X00962000Y02192000
X00957000Y02187000
X00962000Y02182000
X00957000Y02177000
X00962000Y02172000
X00957000Y02167000
X00962000Y02162000
X00957000Y02157000
X00962000Y02152000
X00957000Y02147000
X00962000Y02142000
X00957000Y02137000
X00962000Y02132000
X00957000Y02127000
X00962000Y02122000
X00957000Y02117000
X00962000Y02112000
X00957000Y02107000
X00962000Y02102000
X00957000Y02097000
X00962000Y02092000
X00967000Y02097000
Y02107000
Y02117000
Y02127000
Y02137000
Y02147000
Y02157000
X00977000
X00982000Y02152000
X00972000
X00977000Y02147000
X00982000Y02142000
X00972000
Y02162000
X00982000
X00977000Y02167000
X00972000Y02172000
X00982000
X00977000Y02177000
X00972000Y02182000
X00982000
X00977000Y02187000
X00982000Y02192000
X00972000
X00977000Y02197000
X00972000Y02202000
X00982000
X00987000Y02197000
Y02187000
Y02177000
X00967000
Y02167000
Y02187000
Y02197000
X00937000
X00942000Y02192000
X00937000Y02187000
X00942000Y02182000
X00937000Y02177000
X00942000Y02172000
X00937000Y02167000
X00942000Y02162000
X00937000Y02157000
X00942000Y02152000
X00937000Y02147000
X00942000Y02142000
X00937000Y02137000
X00942000Y02132000
X00937000Y02127000
X00942000Y02122000
X00937000Y02117000
X00942000Y02112000
X00937000Y02107000
X00942000Y02102000
X00937000Y02097000
X00942000Y02092000
X00937000Y02087000
X00942000Y02082000
X00932000
X00927000Y02087000
X00932000Y02092000
X00927000Y02097000
X00932000Y02102000
X00927000Y02107000
X00932000Y02112000
X00927000Y02117000
X00932000Y02122000
X00927000Y02127000
X00932000Y02132000
X00927000Y02137000
X00932000Y02142000
X00927000Y02147000
X00932000Y02152000
X00927000Y02157000
X00932000Y02162000
X00927000Y02167000
X00932000Y02172000
X00927000Y02177000
X00932000Y02182000
X00927000Y02187000
X00932000Y02192000
X00927000Y02197000
X00932000Y02202000
X00922000
X00917000Y02197000
X00922000Y02192000
X00917000Y02187000
X00922000Y02182000
X00917000Y02177000
X00922000Y02172000
X00917000Y02167000
X00922000Y02162000
X00917000Y02157000
X00922000Y02152000
X00917000Y02147000
X00922000Y02142000
X00917000Y02137000
X00922000Y02132000
X00917000Y02127000
X00922000Y02122000
X00917000Y02117000
X00922000Y02112000
X00917000Y02107000
X00922000Y02102000
X00917000Y02097000
X00922000Y02092000
X00917000Y02087000
X00922000Y02082000
X00912000
X00907000Y02087000
X00912000Y02092000
X00907000Y02097000
X00912000Y02102000
X00907000Y02107000
X00912000Y02112000
X00907000Y02117000
X00912000Y02122000
X00907000Y02127000
X00912000Y02132000
X00907000Y02137000
X00912000Y02142000
X00907000Y02147000
X00912000Y02152000
X00907000Y02157000
X00912000Y02162000
X00907000Y02167000
X00912000Y02172000
X00907000Y02177000
X00912000Y02182000
X00907000Y02187000
X00912000Y02192000
X00907000Y02197000
X00912000Y02202000
X00902000
Y02192000
Y02182000
Y02172000
Y02162000
Y02152000
Y02142000
Y02132000
Y02122000
Y02112000
Y02102000
Y02092000
Y02082000
X00987000Y02087000
Y02097000
Y02107000
Y02117000
Y02127000
X00942000Y02202000
X01307000
Y02192000
Y02182000
X01317000
X01312000Y02187000
X01317000Y02192000
X01312000Y02197000
X01317000Y02202000
X01327000
X01322000Y02197000
X01327000Y02192000
X01322000Y02187000
X01327000Y02182000
X01322000Y02177000
X01327000Y02172000
X01322000Y02167000
X01327000Y02162000
X01322000Y02157000
X01327000Y02152000
X01322000Y02147000
X01327000Y02142000
X01322000Y02137000
X01327000Y02132000
X01322000Y02127000
X01327000Y02122000
X01322000Y02117000
X01327000Y02112000
X01322000Y02107000
X01327000Y02102000
X01322000Y02097000
X01327000Y02092000
X01322000Y02087000
X01327000Y02082000
X01337000
X01332000Y02087000
X01337000Y02092000
X01332000Y02097000
X01337000Y02102000
X01332000Y02107000
X01337000Y02112000
X01332000Y02117000
X01337000Y02122000
X01332000Y02127000
X01337000Y02132000
X01332000Y02137000
X01337000Y02142000
X01332000Y02147000
X01337000Y02152000
X01332000Y02157000
X01337000Y02162000
X01332000Y02167000
X01337000Y02172000
X01332000Y02177000
X01337000Y02182000
X01332000Y02187000
X01337000Y02192000
X01332000Y02197000
X01337000Y02202000
X01347000
X01342000Y02197000
X01347000Y02192000
X01342000Y02187000
X01347000Y02182000
X01342000Y02177000
X01347000Y02172000
X01342000Y02167000
X01347000Y02162000
X01342000Y02157000
X01347000Y02152000
X01342000Y02147000
X01347000Y02142000
X01342000Y02137000
X01347000Y02132000
X01342000Y02127000
X01347000Y02122000
X01342000Y02117000
X01347000Y02112000
X01342000Y02107000
X01347000Y02102000
X01342000Y02097000
X01347000Y02092000
X01342000Y02087000
X01347000Y02082000
X01357000
X01352000Y02087000
X01357000Y02092000
X01352000Y02097000
X01357000Y02102000
X01352000Y02107000
X01357000Y02112000
X01352000Y02117000
X01357000Y02122000
X01352000Y02127000
X01357000Y02132000
X01352000Y02137000
X01357000Y02142000
X01352000Y02147000
X01357000Y02152000
X01352000Y02157000
X01357000Y02162000
X01352000Y02167000
X01357000Y02172000
X01352000Y02177000
X01357000Y02182000
X01352000Y02187000
X01357000Y02192000
X01352000Y02197000
X01357000Y02202000
X01367000
X01362000Y02197000
X01367000Y02192000
X01362000Y02187000
X01367000Y02182000
X01362000Y02177000
X01367000Y02172000
X01362000Y02167000
X01367000Y02162000
X01362000Y02157000
X01367000Y02152000
X01362000Y02147000
X01367000Y02142000
X01362000Y02137000
X01367000Y02132000
X01362000Y02127000
X01367000Y02122000
X01362000Y02117000
X01367000Y02112000
X01362000Y02107000
X01367000Y02102000
X01362000Y02097000
X01367000Y02092000
X01362000Y02087000
X01367000Y02082000
X01372000Y02087000
Y02097000
Y02107000
Y02117000
Y02127000
Y02137000
Y02147000
Y02157000
X01382000
X01387000Y02152000
X01377000
X01382000Y02147000
X01387000Y02142000
X01377000
X01382000Y02137000
X01387000Y02132000
X01377000
X01382000Y02127000
X01387000Y02122000
X01377000
X01382000Y02117000
X01387000Y02112000
X01377000
X01382000Y02107000
X01387000Y02102000
X01377000
X01382000Y02097000
X01387000Y02092000
X01377000
X01382000Y02087000
X01387000Y02082000
X01377000
X01392000Y02087000
Y02097000
Y02107000
Y02117000
Y02127000
Y02137000
Y02147000
Y02157000
Y02167000
Y02177000
Y02187000
X01382000
X01377000Y02182000
X01387000
X01382000Y02177000
X01377000Y02172000
X01387000
X01382000Y02167000
X01377000Y02162000
X01387000
X01372000Y02167000
Y02177000
Y02187000
Y02197000
X01382000
X01387000Y02192000
X01377000
Y02202000
X01387000
X01392000Y02197000
X01389739Y02244996
X01379739
X01369739
X01359739
X01349739Y02244997
X01339739
X01329739
X01319739Y02244997
X01309739Y02244997
X01299739Y02244997
X01289739
X01307000Y02172000
X01317000
X01312000Y02177000
Y02167000
X01317000Y02162000
X01312000Y02157000
X01317000Y02152000
X01312000Y02147000
X01317000Y02142000
X01312000Y02137000
X01317000Y02132000
X01312000Y02127000
X01317000Y02122000
X01312000Y02117000
X01317000Y02112000
X01312000Y02107000
X01317000Y02102000
X01312000Y02097000
X01317000Y02092000
X01312000Y02087000
X01317000Y02082000
X01307000
Y02092000
Y02102000
Y02112000
Y02122000
Y02132000
Y02142000
Y02152000
Y02162000
X01399739Y02244996
X01409739Y02244996
X01419739
X01429739
X01439739
X01449739
X01459739Y02244996
X01469739Y02244995
X01479739
X01489739
X01499739Y02244996
X01509739Y02244995
X01519739
X01529739
X01539739
X01549739
X01559740Y02244995
X01569740
X01579740Y02244995
X01589740Y02244995
X01599740
X01609740Y02244994
X01619740
X01629740
X01639740Y02244994
X01649740Y02244994
X01659740Y02244994
X01669740
X01679740
X01592000Y02197000
Y02187000
X01582000
X01577000Y02182000
X01587000
X01582000Y02177000
X01577000Y02172000
X01587000
X01582000Y02167000
X01577000Y02162000
X01587000
X01582000Y02157000
X01587000Y02152000
X01577000
X01582000Y02147000
X01587000Y02142000
X01577000
X01582000Y02137000
X01587000Y02132000
X01577000
X01582000Y02127000
X01587000Y02122000
X01577000
X01582000Y02117000
X01587000Y02112000
X01577000
X01582000Y02107000
X01587000Y02102000
X01577000
X01582000Y02097000
X01587000Y02092000
X01577000
X01582000Y02087000
X01587000Y02082000
X01577000
X01572000Y02087000
X01562000
X01567000Y02082000
X01557000
X01552000Y02087000
X01557000Y02092000
X01552000Y02097000
X01557000Y02102000
X01552000Y02107000
X01557000Y02112000
X01552000Y02117000
X01557000Y02122000
X01552000Y02127000
X01557000Y02132000
X01552000Y02137000
X01557000Y02142000
X01552000Y02147000
X01557000Y02152000
X01552000Y02157000
X01557000Y02162000
X01552000Y02167000
X01557000Y02172000
X01552000Y02177000
X01557000Y02182000
X01552000Y02187000
X01557000Y02192000
X01552000Y02197000
X01557000Y02202000
X01567000
X01562000Y02197000
X01567000Y02192000
X01562000Y02187000
X01567000Y02182000
X01562000Y02177000
X01567000Y02172000
X01562000Y02167000
X01567000Y02162000
X01562000Y02157000
X01567000Y02152000
X01562000Y02147000
X01567000Y02142000
X01562000Y02137000
X01567000Y02132000
X01562000Y02127000
X01567000Y02122000
X01562000Y02117000
X01567000Y02112000
X01562000Y02107000
X01567000Y02102000
X01562000Y02097000
X01567000Y02092000
X01572000Y02097000
Y02107000
Y02117000
Y02127000
Y02137000
Y02147000
Y02157000
Y02167000
Y02177000
Y02187000
Y02197000
X01582000
X01587000Y02192000
X01577000
Y02202000
X01587000
X01592000Y02177000
Y02167000
Y02157000
Y02147000
Y02137000
Y02127000
Y02117000
Y02107000
Y02097000
Y02087000
X01542000
X01547000Y02082000
X01537000
X01532000Y02087000
X01537000Y02092000
X01532000Y02097000
X01537000Y02102000
X01532000Y02107000
X01537000Y02112000
X01532000Y02117000
X01537000Y02122000
X01532000Y02127000
X01537000Y02132000
X01532000Y02137000
X01537000Y02142000
X01532000Y02147000
X01537000Y02152000
X01532000Y02157000
X01537000Y02162000
X01532000Y02167000
X01537000Y02172000
X01532000Y02177000
X01537000Y02182000
X01532000Y02187000
X01537000Y02192000
X01532000Y02197000
X01537000Y02202000
X01527000
X01522000Y02197000
X01527000Y02192000
X01522000Y02187000
X01527000Y02182000
X01522000Y02177000
X01527000Y02172000
X01522000Y02167000
X01527000Y02162000
X01522000Y02157000
X01527000Y02152000
X01522000Y02147000
X01527000Y02142000
X01522000Y02137000
X01527000Y02132000
X01522000Y02127000
X01527000Y02122000
X01522000Y02117000
X01527000Y02112000
X01522000Y02107000
X01527000Y02102000
X01522000Y02097000
X01527000Y02092000
X01522000Y02087000
X01527000Y02082000
X01517000
X01512000Y02087000
X01517000Y02092000
X01512000Y02097000
X01517000Y02102000
X01512000Y02107000
X01517000Y02112000
X01512000Y02117000
X01517000Y02122000
X01512000Y02127000
X01517000Y02132000
X01512000Y02137000
X01517000Y02142000
X01512000Y02147000
X01517000Y02152000
X01512000Y02157000
X01517000Y02162000
X01512000Y02167000
X01517000Y02172000
X01512000Y02177000
X01517000Y02182000
X01512000Y02187000
X01517000Y02192000
X01512000Y02197000
X01517000Y02202000
X01507000
Y02192000
Y02182000
Y02172000
Y02162000
Y02152000
Y02142000
Y02132000
Y02122000
Y02112000
Y02102000
Y02092000
Y02082000
X01547000Y02092000
X01542000Y02097000
X01547000Y02102000
X01542000Y02107000
X01547000Y02112000
X01542000Y02117000
X01547000Y02122000
X01542000Y02127000
X01547000Y02132000
X01542000Y02137000
X01547000Y02142000
X01542000Y02147000
X01547000Y02152000
X01542000Y02157000
X01547000Y02162000
X01542000Y02167000
X01547000Y02172000
X01542000Y02177000
X01547000Y02182000
X01542000Y02187000
X01547000Y02192000
X01542000Y02197000
X01547000Y02202000
X01707000
Y02192000
Y02182000
X01717000
X01712000Y02187000
X01717000Y02192000
X01712000Y02197000
X01717000Y02202000
X01727000
X01722000Y02197000
X01727000Y02192000
X01722000Y02187000
X01727000Y02182000
X01722000Y02177000
X01727000Y02172000
X01722000Y02167000
X01727000Y02162000
X01722000Y02157000
X01727000Y02152000
X01722000Y02147000
X01727000Y02142000
X01722000Y02137000
X01727000Y02132000
X01722000Y02127000
X01727000Y02122000
X01722000Y02117000
X01727000Y02112000
X01722000Y02107000
X01727000Y02102000
X01722000Y02097000
X01727000Y02092000
X01722000Y02087000
X01727000Y02082000
X01737000
X01732000Y02087000
X01737000Y02092000
X01732000Y02097000
X01737000Y02102000
X01732000Y02107000
X01737000Y02112000
X01732000Y02117000
X01737000Y02122000
X01732000Y02127000
X01737000Y02132000
X01732000Y02137000
X01737000Y02142000
X01732000Y02147000
X01737000Y02152000
X01732000Y02157000
X01737000Y02162000
X01732000Y02167000
X01737000Y02172000
X01732000Y02177000
X01737000Y02182000
X01732000Y02187000
X01737000Y02192000
X01732000Y02197000
X01737000Y02202000
X01747000
X01742000Y02197000
X01747000Y02192000
X01742000Y02187000
X01747000Y02182000
X01742000Y02177000
X01747000Y02172000
X01742000Y02167000
X01747000Y02162000
X01742000Y02157000
X01747000Y02152000
X01742000Y02147000
X01747000Y02142000
X01742000Y02137000
X01747000Y02132000
X01742000Y02127000
X01747000Y02122000
X01742000Y02117000
X01747000Y02112000
X01742000Y02107000
X01747000Y02102000
X01742000Y02097000
X01747000Y02092000
X01742000Y02087000
X01747000Y02082000
X01757000
X01752000Y02087000
X01757000Y02092000
X01752000Y02097000
X01757000Y02102000
X01752000Y02107000
X01757000Y02112000
X01752000Y02117000
X01757000Y02122000
X01752000Y02127000
X01757000Y02132000
X01752000Y02137000
X01757000Y02142000
X01752000Y02147000
X01757000Y02152000
X01752000Y02157000
X01757000Y02162000
X01752000Y02167000
X01757000Y02172000
X01752000Y02177000
X01757000Y02182000
X01752000Y02187000
X01757000Y02192000
X01752000Y02197000
X01757000Y02202000
X01767000
X01762000Y02197000
X01767000Y02192000
X01762000Y02187000
X01767000Y02182000
X01762000Y02177000
X01767000Y02172000
X01762000Y02167000
X01767000Y02162000
X01762000Y02157000
X01767000Y02152000
X01762000Y02147000
X01767000Y02142000
X01762000Y02137000
X01767000Y02132000
X01762000Y02127000
X01767000Y02122000
X01762000Y02117000
X01767000Y02112000
X01762000Y02107000
X01767000Y02102000
X01762000Y02097000
X01767000Y02092000
X01762000Y02087000
X01767000Y02082000
X01772000Y02087000
Y02097000
Y02107000
Y02117000
Y02127000
Y02137000
Y02147000
Y02157000
X01782000
X01787000Y02152000
X01777000
X01782000Y02147000
X01787000Y02142000
X01777000
X01782000Y02137000
X01787000Y02132000
X01777000
X01782000Y02127000
X01787000Y02122000
X01777000
X01782000Y02117000
X01787000Y02112000
X01777000
X01782000Y02107000
X01787000Y02102000
X01777000
X01782000Y02097000
X01787000Y02092000
X01777000
X01782000Y02087000
X01787000Y02082000
X01777000
X01792000Y02087000
Y02097000
Y02107000
Y02117000
Y02127000
Y02137000
Y02147000
Y02157000
Y02167000
Y02177000
Y02187000
X01782000
X01777000Y02182000
X01787000
X01782000Y02177000
X01777000Y02172000
X01787000
X01782000Y02167000
X01777000Y02162000
X01787000
X01772000Y02167000
Y02177000
Y02187000
Y02197000
X01782000
X01787000Y02192000
X01777000
Y02202000
X01787000
X01792000Y02197000
X01789740Y02244993
X01779740
X01769740Y02244993
X01759740
X01749740Y02244993
X01739740
X01729740Y02244994
X01719740
X01709740Y02244993
X01699740Y02244994
X01689740
X01707000Y02172000
X01717000
X01712000Y02177000
Y02167000
X01717000Y02162000
X01712000Y02157000
X01717000Y02152000
X01712000Y02147000
X01717000Y02142000
X01712000Y02137000
X01717000Y02132000
X01712000Y02127000
X01717000Y02122000
X01712000Y02117000
X01717000Y02112000
X01712000Y02107000
X01717000Y02102000
X01712000Y02097000
X01717000Y02092000
X01712000Y02087000
X01717000Y02082000
X01707000
Y02092000
Y02102000
Y02112000
Y02122000
Y02132000
Y02142000
Y02152000
Y02162000
X01799740Y02244993
X01809740Y02244993
X01819740Y02244993
X01829740
X01839740Y02244993
X01849739Y02244999
X01859739Y02244999
X01869739
X01879739
X01889739
X01899739
X01909739Y02244998
X01919739
X01929739
X01939739Y02244998
X01949739Y02244998
X01959739Y02244998
X01969739
X01979739
X01989739
X01999739
X02009739Y02244998
X02019739Y02244998
X02029739
X02039739
X02049739Y02244998
X02059739Y02244997
X02069739
X02079739
X02089739Y02244997
X02099739Y02244997
X02109739Y02244997
X02119739Y02244997
X02129739
X02139739
X02149739
X02159739Y02244997
X02169739Y02244997
X02179739
X02189739
X02199739
X02209739Y02244996
X02219739
X02229739
X02239739
X02249739
X02258779Y02244135
X02267220Y02241574
X02275000Y02237416
X02281819Y02231820
X02287415Y02225001
X02291574Y02217221
X02294135Y02208779
X02295000Y02200262
Y02190262
Y02180262
X02295000Y02170262
X02294999Y02160261
Y02150261
Y02140261
Y02130261
Y02120261
X02294999Y02110261
Y02100261
Y02090261
T02
X02105535Y00295707
X02112536
X02116071Y00302071
X02101929
X02080071
X02076535Y00295707
X02069536
X02065929Y00302071
X01313500Y00335500
X01307500Y00340500
X01301500Y00335500
X01295500Y00340500
X01298500Y00417500
X01292500Y00422500
X01304500
X01310500Y00417500
X01329000Y00460000
X01256500Y00459500
X01250500Y00464500
X01244500Y00454500
X01226500
X01220500Y00464500
X01214500Y00459500
X01203000Y00426000
X01208500Y00417500
X01196500
X01190500Y00422500
X01172500Y00427500
X01166500Y00417500
X01160500Y00422500
X01163000Y00378000
X01157000Y00372000
X01151000Y00377000
X01143000Y00382000
X01139000Y00374500
X01122000Y00374000
X01109000
X01115000Y00380000
X01100000Y00379000
X01063000Y00381000
X01055000Y00376000
X01038000Y00375000
X01008000Y00376000
X00966000Y00378000
X00959000Y00411000
X00951000Y00404000
X00938500Y00422500
X00966250Y00422500
X00975000Y00425000
X01001000
X01009000Y00422000
X01028500Y00422500
X01038250Y00422500
X01041000Y00414000
X01026000
X01056250Y00422500
X01077000Y00414000
X01061000Y00459000
Y00468000
X01043020
Y00459000
X01025020
Y00468000
X01007020
Y00459000
X00971000
Y00468000
X00953000
Y00459000
X00935000
Y00468000
X00914500Y00469500
X00908500Y00459500
X00902500Y00464500
X00896500Y00454500
X00893500Y00382500
X00899500Y00376500
X00905500Y00381500
X00918000Y00381000
X00912000Y00375000
X00926000Y00392000
X00935000Y00343000
X00953000
X00948000Y00337000
X00951000Y00326000
Y00317000
X00933000
Y00326000
X00915000
Y00317000
X00893500Y00340500
X00971500
X00969000Y00326000
Y00317000
X00987000
Y00326000
X01005000
Y00317000
X01023000
Y00326000
X01019500Y00335500
X01025500Y00340500
X01043500
X01041000Y00326000
Y00317000
X01059000
Y00326000
X01074975Y00330025
X01103500Y00340500
X01121500
X01139500
X01157500
X01175500Y00340500
X01187500
X01205500Y00335500
X01211500Y00340500
X01217500Y00335500
X01223500Y00340500
X01235500Y00335500
X01241500Y00340500
X01247500Y00335500
X01253500Y00340500
X01259500Y00335500
X01271500
X01277500Y00340500
X01265000Y00343000
X01229500Y00377500
X01205500Y00377500
X01202000Y00385000
X01193000
X01182000
X01171000
X01175500Y00377500
X01188255Y00378106
X01275000Y00404000
X01287000
X01280500Y00422500
X01268000Y00419000
X01260000Y00420000
X01154500Y00464500
X01148500Y00459500
X01142500Y00464500
X01130500
X01118500
X01112500Y00459500
X01106500Y00464500
X01124500Y00454500
X01136500
X01001500Y00335500
X00881500Y00340500
X00863500Y00335500
X00845500Y00340500
X00827500
X00809500Y00335500
X00791500Y00340500
X00779500
X00761500Y00335500
X00743500Y00340500
X00725500
X00707500Y00335500
X00701500Y00340500
X00695500Y00335500
X00689500Y00340500
X00715000Y00316000
Y00309000
X00749000
Y00316000
X00783000
Y00309000
Y00296000
Y00289000
X00759000Y00256500
X00751000
X00743000
Y00246500
X00751000
X00759000
X00767000Y00235000
Y00227000
X00744000Y00224000
X00735275Y00237500
X00741071Y00375343
X00737465Y00381707
X00730464Y00381707
X00726929Y00375343
X00719000Y00381000
X00713000Y00376000
X00705000Y00375000
X00701000Y00383000
Y00389000
X00685000Y00391000
X00679000Y00395000
Y00404000
X00685000Y00408000
X00701000Y00410000
Y00416000
X00716000Y00425000
X00724000
X00727000Y00458000
X00721000Y00464000
X00710500Y00464500
X00705000Y00456000
X00692000
X00691000Y00466000
X00727000Y00473000
X00735536Y00479293
X00742535Y00479293
X00746071Y00485657
X00731929
X00746500Y00464500
X00741000Y00459000
X00752500Y00459500
X00758500Y00469500
X00773245Y00468000
X00776500Y00459500
X00794500
X00800500Y00464500
X00806230Y00459500
X00818500
X00829445Y00457000
X00834000Y00464000
X00837535Y00472293
X00844536Y00472293
X00848071Y00478657
X00833929
X00849000Y00465000
X00859770Y00469500
X00875000Y00467000
X00878500Y00459500
X00840230Y00454476
X00845000Y00421000
X00828000Y00419000
X00824000Y00426000
X00868000Y00420000
Y00409000
X00869500Y00381500
X00875500Y00376500
X00881500Y00382500
X00887500Y00376500
X00863500Y00374500
X00857500Y00379500
X00851500Y00374500
X00843071Y00375343
X00839464Y00381707
X00832465Y00381707
X00828929Y00375343
X00821500Y00374500
X00815500Y00379500
X00809500Y00374500
X00803500Y00379500
X00797500Y00374500
X00785500
X00773500
X00767500Y00379500
X00760000Y00385000
X00755000Y00376000
X00749000Y00381000
X00779500Y00382500
X00791500Y00382500
X00764000Y00410000
Y00419000
X00812000Y00471000
X00497550Y00461000
X00497300Y00452000
X00497550Y00443000
X00468000Y00432000
X00460000Y00426000
X00450000
X00440000
X00411000Y00436000
X00411000Y00416000
X00379000
X00379000Y00440000
Y00464000
Y00488000
X00358000Y00480000
X00332000Y00484000
Y00468000
X00331000Y00445000
X00344750Y00444750
X00331000Y00415000
X00315000Y00404000
X00295000Y00412000
Y00420000
X00301000Y00428000
X00295000Y00436000
X00301000Y00444000
X00295000Y00452000
X00301000Y00460000
X00295000Y00468000
X00301000Y00476000
X00295000Y00484000
X00281000Y00485000
X00411000Y00488000
X00411000Y00468000
X00440000Y00478000
X00450000
X00460000
X00468000Y00472000
X00325000Y00331000
X00315000Y00340000
Y00654000
X00331000Y00665000
Y00695000
X00344750Y00694750
X00332000Y00718000
Y00734000
X00358000Y00730000
X00379000Y00738000
Y00714000
Y00690000
X00379000Y00666000
X00411000
X00411000Y00686000
Y00718000
X00411000Y00738000
X00440000Y00726000
X00450000Y00728000
X00460000
X00468000Y00722000
X00468000Y00682000
X00460000Y00676000
X00450000
X00440000Y00674000
X00301000Y00678000
X00295000Y00686000
X00301000Y00694000
X00295000Y00702000
X00301000Y00710000
X00295000Y00718000
X00301000Y00726000
X00295000Y00734000
X00281000Y00735000
X00295000Y00670000
Y00662000
X00497550Y00693000
X00497300Y00702000
X00497550Y00711000
X00988000Y00771000
X00996000
X01004000
Y00801000
X00996000
X00988000
X01957000Y00663000
Y00633000
X01957050Y00603000
X01957000Y00573000
X02110000
X02110000Y00603000
Y00633000
Y00663000
X02108000Y01120000
X02089392Y01129000
Y01141000
Y01153000
Y01165000
Y01177000
Y01189000
Y01201000
Y01213000
Y01225000
X02089000Y01237000
Y01105000
X02064000
Y01117000
Y01093000
Y01081000
X02069000Y01072200
X02080908Y01129000
Y01141000
Y01153000
Y01165000
Y01201000
Y01213000
Y01225000
Y01237000
Y01249000
X02062000Y01258000
X01315000Y00938000
X01307000
X01299000
Y00908000
X01307000
X01315000
X00497550Y00943000
X00497300Y00952000
X00497550Y00961000
Y01193000
X00497300Y01202000
X00497550Y01211000
X00526000Y01276250
X00535000Y01276000
X00544000Y01276250
X00706000Y01276250
X00715000Y01276000
X00724000Y01276250
X00468000Y01222000
X00460000Y01228000
X00450000
X00440000
X00411000Y01238000
X00411000Y01218000
Y01186000
X00411000Y01166000
X00379000
X00379000Y01190000
Y01214000
Y01238000
X00358000Y01230000
X00332000Y01234000
Y01218000
X00331000Y01195000
X00344750Y01194750
X00331000Y01165000
X00315000Y01154000
X00295000Y01162000
Y01170000
X00301000Y01178000
X00295000Y01186000
X00301000Y01194000
X00295000Y01202000
X00301000Y01210000
X00295000Y01218000
X00301000Y01226000
X00295000Y01234000
X00281000Y01235000
X00440000Y01176000
X00450000
X00460000
X00468000Y01182000
X00468000Y00972000
X00460000Y00978000
X00450000
X00440000
X00411000Y00988000
X00411000Y00968000
Y00936000
X00411000Y00916000
X00379000
X00379000Y00940000
Y00964000
Y00988000
X00358000Y00980000
X00332000Y00984000
Y00968000
X00331000Y00945000
X00344750Y00944750
X00331000Y00915000
X00315000Y00904000
X00295000Y00912000
Y00920000
X00301000Y00928000
X00295000Y00936000
X00301000Y00944000
X00295000Y00952000
X00301000Y00960000
X00295000Y00968000
X00301000Y00976000
X00295000Y00984000
X00281000Y00985000
X00440000Y00926000
X00450000
X00460000
X00468000Y00932000
X00358000Y01403400
Y01413400
Y01425400
Y01437400
X00358000Y01449400
X00358000Y01461400
Y01473400
Y01485400
Y01494000
X00292000Y01493300
X00292050Y01481250
Y01469250
X00292025Y01457275
X00292050Y01445250
X00257000Y01511000
X00292050Y01673850
X00358000Y01678000
X00358000Y01666000
Y01654000
Y01642000
Y01632000
X00544000Y01405000
X00556000
X00567500Y01404500
X00607500
X00622500
X00637500
X00652500
X00667500
X00682500
X00714000Y01405000
X00726000
X00724000Y01306250
X00715000Y01306000
X00706000Y01306250
X00544000
X00535000Y01306000
X00526000Y01306250
X01256000Y01606000
X01244000Y01665000
X01266000Y01674000
X01881000Y01675000
X01901515Y01675100
X01915657
X01929799
X01943941
X01936870Y01668029
X01922728
X01915657Y01660958
X01929799
X01922728Y01653887
Y01682171
X01936870
X01908586
Y01668029
X01896192Y01645707
X01876581Y01641581
X01878000Y01654000
X01908000Y01630000
X01932000
X01938089Y01635089
X01954000Y01653000
X01965000Y01658000
X01967891Y01667000
X01971000Y01640000
X01984000Y01634000
X01700821Y01359321
X01694457Y01355715
Y01348714
Y01341572
Y01334572
Y01327430
Y01320430
X01694000Y01311000
X01700821Y01316895
Y01331037
Y01345179
X02164000Y01535000
X02087000Y01872000
X02051000Y01901000
X02015000Y01886000
X02030000Y01835000
X02034000Y01832000
X01966213Y01816787
X01943598Y01804100
X01936527Y01797029
X01929456Y01789958
X01915314
X01908243Y01797029
X01901172Y01804100
X01908243Y01811172
X01915314Y01818243
X01922385Y01825314
X01929456Y01818243
X01936527Y01811172
X01929456Y01804100
X01922385Y01797029
Y01782887
X01915314Y01804100
X01922385Y01811172
X01878000Y01814000
X01891000Y01784000
X01909991Y01760565
X01943000Y01769000
X01951986Y01779000
X01960000Y01776000
X01945000Y01838000
X01905724Y01863000
X01931500Y01892000
X01934736Y01719607
X01951000Y01701000
X01929799Y01689243
X01915657
X01922728Y01696314
X01892657Y01701929
X01903264Y01712536
X01824000Y02020000
X01772000Y02015000
X01762700Y02038500
X01724600Y02038500
X01624000Y02020000
X01572000Y02015000
X01562700Y02038500
X01524600Y02038500
X01424000Y02020000
X01372000Y02015000
X01362700Y02038500
X01324600Y02038500
X01224000Y02020000
X01172000Y02015000
X01162700Y02038500
X01124600Y02038500
X01019000Y02020000
X00967000Y02015000
X00957700Y02038500
X00919600Y02038500
X01241734Y01709709
X01267000Y01725000
X00829000Y02020000
X00777000Y02015000
X00767700Y02038500
X00729600Y02038500
X00629000Y02020000
X00577000Y02015000
X00567700Y02038500
X00529600Y02038500
X00257000Y02070000
X00257000Y01739600
X00292000Y01721900
X00292050Y01709850
Y01697850
X00292025Y01685875
X00358000Y01690000
Y01702000
Y01714000
Y01722600
X00275500Y02131300
X00252000Y02122000
X00275500Y02169400
X02284000Y02127500
T03
X02103800Y00795000
X02115350
X02126900
X02138450Y00795000
X02150000Y00795000
X02161550
X02173100Y00795000
X02184650Y00795000
X02196200
X02190430Y00805000
X02178880
X02167330
X02155780
X02144220
X02132670
X02121120
X02109570
X02098020
X02201980
X02196200Y01705000
X02184650Y01705000
X02173100
X02161550
X02150000
X02138450
X02126900
X02115350
X02103800
X02109570Y01715000
X02121120
X02132670Y01715000
X02144220Y01715000
X02155780
X02167330
X02178880Y01715000
X02190430Y01715000
X02201980
X02098020
X02103800Y01855000
X02115350Y01855000
X02126900Y01855000
X02138450
X02150000Y01855000
X02161550Y01855000
X02173100
X02184650Y01855000
X02196200Y01855000
X02190430Y01865000
X02178880Y01865000
X02167330
X02155780Y01865000
X02144220
X02132670Y01865000
X02121120
X02109570Y01865000
X02098020
X02201980
T05
X02143000Y00385000
Y00405000
Y00425000
Y00445000
Y00465000
X02158000Y00460000
X02175000Y00465000
X02190000Y00460000
Y00435000
Y00415000
X02175000Y00425000
X02175000Y00405000
Y00385000
X02190000Y00390000
X02158000Y00390000
Y00415000
Y00435000
X02175000Y00445000
X00401700Y00342000
Y00329300
X00389000
X00389000Y00342000
X00376300Y00342000
Y00329300
X00363600Y00329300
X00363600Y00342000
X00350900
Y00329300
X01616850Y00651650
Y00664350
X01629550Y00664350
X01642250Y00664350
X01642250Y00651650
X01654950Y00651650
X01654950Y00664350
X01667650
Y00651650
X01680350
Y00664350
X01629550Y00651650
X01693050
Y00664350
X01705750
Y00651650
X01718450
X01718450Y00664350
X01731150
Y00651650
T06
X02156300Y00556400
Y00579300
X02204300Y00589300
Y00609700
Y00630100
Y00650500
X02222100Y00640300
Y00619900
Y00599500
Y00660700
X02156300Y00670700
Y00693600
X01195000Y01615000
Y01665000
X01085000
Y01615000
X01295000Y01580000
Y01530000
X01350000Y01485000
Y01435000
X01405000Y01530000
Y01580000
X01772000Y01856000
X01822000
Y01966000
X01772000
X01727000Y01911000
X01905000Y01960000
X01955000
X01955000Y02070000
X01905000
X01622000Y01966000
X01572000
X01527000Y01911000
X01477000
X01422000Y01856000
X01372000
X01327000Y01911000
X01372000Y01966000
X01422000
X01572000Y01856000
X01622000
X01677000Y01911000
X01277000Y01911000
X01222000Y01966000
X01172000
X01127000Y01911000
X01077000Y01911000
X01017000Y01966000
X00967000
X00922000Y01911000
X00967000Y01856000
X01017000
X01172000
X01222000
X01140000Y01760000
Y01710000
X00827000Y01856000
X00777000
X00732000Y01911000
X00682000
X00627000Y01966000
X00577000
X00532000Y01911000
X00577000Y01856000
X00627000
X00777000Y01966000
X00827000
X00872000Y01911000
X00482000Y01911000
X00203000Y02072000
X00093000Y02072000
X00093000Y02122000
X00148000Y02167000
Y02217000
X00203000Y02122000
X01905000Y02180000
X01955000
T08
X02220000Y01251900
Y01277300
Y01302700
Y01328100
Y01371900
Y01397300
Y01422700
Y01448100
T09
X00501900Y00030050
X00527300
X00552700
X00578100
X02007000Y00181900
Y00207300
Y00232700
Y00258100
X01552000Y00265500
Y00290900
Y00240100
Y00214700
X00396000Y00378700
X00296000
X00246000Y00410500
X00246000Y00464500
X00196000Y00378700
X00096000
X00046000Y00435500
X00046000Y00521300
X00096000Y00628700
X00046000Y00685500
X00046000Y00771300
X00096000Y00878700
X00196000
X00296000
X00396000
X00346000Y00771300
X00246000
Y00714500
Y00660500
X00296000Y00628700
X00396000
X00346000Y00521300
X00246000
X00146000
X00196000Y00628700
X00146000Y00771300
X00246000Y00910500
X00246000Y00964500
Y01021300
X00346000
X00296000Y01128700
X00246000Y01160500
X00246000Y01214500
Y01271300
X00346000
X00396000Y01128700
X00196000
X00146000Y01021300
Y01271300
X00046000
Y01185500
X00096000Y01128700
X00046000Y01021300
Y00935500
T10
X02026800Y02120000
X02064900
X02103000
X02230000Y02094600
Y02145400
T11
X02211900Y00543000
Y00707000
X02169500Y01958000
X02169500Y02000000
X02169500Y02042000
X02114500
Y02000000
Y01958000
T12
X02153200Y00359300
X02210000
Y00490700
X02153200Y00490700
T13
X00050000Y01461400
X00390000
Y01690000
Y01918600
X00050000
Y01690000
T14
X00635000Y00561000
X01750000Y00960000
X02080000Y00960000
Y01440000
X01750000Y01440000
T15
X00050000Y00050000
X02250000
X00930000Y00680000
X01370000
Y01120000
X00930000
X00050000Y02200000
X02250000
M30
