M48
;Layer_Color=9474304
;FILE_FORMAT=4:4
METRIC
;TYPE=NON_PLATED
T16F00S00C0.6000
T17F00S00C1.0000
T18F00S00C1.1000
T19F00S00C1.1500
T20F00S00C1.2000
T21F00S00C1.6000
T22F00S00C1.6500
T23F00S00C1.8000
T24F00S00C3.2000
%
T16
X02257000Y00110000
Y00150000
Y00230000
Y00270000
Y00890000
Y00930000
T17
X00274000Y00378700
X00321000Y00378700
X00371000Y00378700
X00417000Y00402000
Y00450000
Y00498000
X00371000Y00521300
X00321000Y00521300
X00274000Y00521300
X00274000Y00628700
X00321000Y00628700
X00371000Y00628700
X00417000Y00652000
Y00700000
X00417000Y00748000
X00371000Y00771300
X00321000Y00771300
X00274000Y00771300
Y00878700
X00321000
X00371000
X02260000Y00995000
X02260000Y01075000
X00417000Y00998000
Y00950000
Y00902000
X00371000Y01021300
X00321000
X00274000
X00274000Y01128700
X00321000
X00371000
X00417000Y01152000
Y01200000
Y01248000
X00371000Y01271300
X00321000
X00274000
X02260000Y01517500
Y01597500
T18
X02242300Y01251900
X00535000Y01346000
X02242300Y01371900
T19
X00666000Y00400000
T20
X01631000Y00089000
X01731000
T21
X00355000Y00402000
Y00498000
Y00652000
Y00748000
Y00902000
Y00998000
Y01152000
Y01248000
X00735000Y01346000
T22
X01334000Y00400000
T23
X02088480Y00780000
X02220980Y00815000
Y01725000
Y01875000
X02088480Y01840000
X02088480Y01690000
T24
X02247500Y00561500
Y00688500
M30
