G04*
G04 #@! TF.GenerationSoftware,Altium Limited,Altium Designer,22.10.1 (41)*
G04*
G04 Layer_Color=32896*
%FSAX44Y44*%
%MOMM*%
G71*
G04*
G04 #@! TF.SameCoordinates,5DDCA6B8-CE55-411C-979C-A3AAA62AB61D*
G04*
G04*
G04 #@! TF.FilePolarity,Positive*
G04*
G01*
G75*
%ADD10C,0.2000*%
%ADD11C,0.2500*%
%ADD17R,0.6000X0.2000*%
%ADD18R,0.2000X1.6000*%
%ADD23R,0.2000X0.6000*%
%ADD24R,1.6000X0.2000*%
%ADD26R,0.3000X0.7500*%
%ADD27R,0.7500X0.3000*%
%ADD317R,1.6000X0.2000*%
G04:AMPARAMS|DCode=318|XSize=0.25mm|YSize=1.5499mm|CornerRadius=0mm|HoleSize=0mm|Usage=FLASHONLY|Rotation=315.000|XOffset=0mm|YOffset=0mm|HoleType=Round|Shape=Rectangle|*
%AMROTATEDRECTD318*
4,1,4,-0.6363,-0.4596,0.4596,0.6363,0.6363,0.4596,-0.4596,-0.6363,-0.6363,-0.4596,0.0*
%
%ADD318ROTATEDRECTD318*%

G04:AMPARAMS|DCode=319|XSize=0.75mm|YSize=0.3mm|CornerRadius=0mm|HoleSize=0mm|Usage=FLASHONLY|Rotation=135.000|XOffset=0mm|YOffset=0mm|HoleType=Round|Shape=Rectangle|*
%AMROTATEDRECTD319*
4,1,4,0.3712,-0.1591,0.1591,-0.3712,-0.3712,0.1591,-0.1591,0.3712,0.3712,-0.1591,0.0*
%
%ADD319ROTATEDRECTD319*%

%ADD320R,0.1000X0.9500*%
%ADD321R,0.2500X1.4000*%
%ADD322R,0.2000X0.4000*%
%ADD323R,0.4000X0.2000*%
G04:AMPARAMS|DCode=324|XSize=0.2mm|YSize=0.6mm|CornerRadius=0mm|HoleSize=0mm|Usage=FLASHONLY|Rotation=135.000|XOffset=0mm|YOffset=0mm|HoleType=Round|Shape=Rectangle|*
%AMROTATEDRECTD324*
4,1,4,0.2828,0.1414,-0.1414,-0.2828,-0.2828,-0.1414,0.1414,0.2828,0.2828,0.1414,0.0*
%
%ADD324ROTATEDRECTD324*%

G36*
X01981402Y01631921D02*
X01970443Y01620962D01*
X01967083Y01635281D01*
X01981402Y01631921D01*
D02*
G37*
G36*
X01968674Y01619193D02*
X01957715Y01608234D01*
X01954355Y01622553D01*
X01968674Y01619193D01*
D02*
G37*
D10*
X01805150Y00669500D02*
X01814150D01*
X01805150Y00700500D02*
X01814150Y00700500D01*
X01805150Y00669500D02*
Y00700500D01*
X01814150Y00669500D02*
Y00700500D01*
X00779500Y01760000D02*
X00791000D01*
X00791000Y01827000D01*
X00779500Y01827000D02*
X00791000Y01827000D01*
X00327400Y01233000D02*
X00338400Y01233000D01*
X00327400Y01225250D02*
Y01233000D01*
Y01203000D02*
X00338400Y01203000D01*
X00327400Y01203000D02*
Y01210750D01*
Y00983000D02*
X00338400Y00983000D01*
X00327400Y00975250D02*
Y00983000D01*
Y00953000D02*
X00338400Y00953000D01*
X00327400Y00953000D02*
Y00960750D01*
Y00733000D02*
X00338400Y00733000D01*
X00327400Y00725250D02*
Y00733000D01*
Y00703000D02*
X00338400Y00703000D01*
X00327400Y00703000D02*
Y00710750D01*
Y00483000D02*
X00338400Y00483000D01*
X00327400Y00475250D02*
Y00483000D01*
Y00453000D02*
X00338400Y00453000D01*
X00327400Y00453000D02*
Y00460750D01*
D11*
X01797400Y00667500D02*
G03*
X01797400Y00667500I-00001250J00000000D01*
G01*
X00540000Y00508500D02*
G03*
X00540000Y00508500I-00000500J00000000D01*
G01*
X00812250Y01829750D02*
G03*
X00812250Y01829750I-00001250J00000000D01*
G01*
X00348600Y01236250D02*
G03*
X00348600Y01236250I-00001250J00000000D01*
G01*
Y00986250D02*
G03*
X00348600Y00986250I-00001250J00000000D01*
G01*
Y00736250D02*
G03*
X00348600Y00736250I-00001250J00000000D01*
G01*
Y00486250D02*
G03*
X00348600Y00486250I-00001250J00000000D01*
G01*
D17*
X00987997Y00375752D02*
D03*
X00988000Y00386252D02*
D03*
D18*
X01106503Y01735000D02*
D03*
X01129500Y01735000D02*
D03*
X01205503Y01640001D02*
D03*
X01228500D02*
D03*
X01284497Y01555000D02*
D03*
X01261500Y01555000D02*
D03*
X01339497Y01460000D02*
D03*
X01316500Y01460000D02*
D03*
X01150503Y01735000D02*
D03*
X01173500Y01734999D02*
D03*
X01161502Y01640000D02*
D03*
X01184500Y01640000D02*
D03*
X01328498Y01555000D02*
D03*
X01305500Y01555001D02*
D03*
X01383497Y01460000D02*
D03*
X01360500Y01460000D02*
D03*
X01007499Y00785998D02*
D03*
X00984502Y00786002D02*
D03*
X01290499Y01066000D02*
D03*
X01267503Y01066000D02*
D03*
X01295501Y00923000D02*
D03*
X01318497Y00923000D02*
D03*
X02075497Y01712000D02*
D03*
X02052500D02*
D03*
X00181497Y02192000D02*
D03*
X00158506D02*
D03*
X00137497Y02192000D02*
D03*
X00114506D02*
D03*
X00236500Y02097003D02*
D03*
X00213506Y02097000D02*
D03*
X00192500Y02096997D02*
D03*
X00169506Y02097000D02*
D03*
D23*
X00830750Y01777498D02*
D03*
X00841253Y01777501D02*
D03*
X00841247Y01810501D02*
D03*
X00830750Y01810504D02*
D03*
X00676750Y00383000D02*
D03*
X00687250D02*
D03*
X00676750Y00416000D02*
D03*
X00687250D02*
D03*
D24*
X00989003Y00415500D02*
D03*
Y00392503D02*
D03*
X00897000Y01921506D02*
D03*
X00896998Y01944500D02*
D03*
X00897000Y01877503D02*
D03*
X00897000Y01900500D02*
D03*
X00992000Y01932504D02*
D03*
X00992000Y01955500D02*
D03*
X00992000Y01976503D02*
D03*
X00992000Y01999499D02*
D03*
X00602003Y01976503D02*
D03*
Y01999500D02*
D03*
X00506999Y01921503D02*
D03*
Y01944500D02*
D03*
X00507003Y01877503D02*
D03*
Y01900500D02*
D03*
X00602003Y01932503D02*
D03*
Y01955500D02*
D03*
X01302000Y01900502D02*
D03*
Y01877501D02*
D03*
X01302000Y01944500D02*
D03*
X01302000Y01921504D02*
D03*
X01397000Y01999500D02*
D03*
X01397000Y01976504D02*
D03*
X01397000Y01955502D02*
D03*
X01397000Y01932502D02*
D03*
X01502000Y01900500D02*
D03*
Y01877503D02*
D03*
X01501998Y01944500D02*
D03*
Y01921503D02*
D03*
X01597000Y01999500D02*
D03*
Y01976503D02*
D03*
Y01955500D02*
D03*
Y01932503D02*
D03*
X01797002Y01999500D02*
D03*
Y01976503D02*
D03*
Y01955500D02*
D03*
Y01932503D02*
D03*
X01701997Y01944500D02*
D03*
Y01921503D02*
D03*
X01702002Y01900500D02*
D03*
Y01877503D02*
D03*
X01197000Y01955498D02*
D03*
Y01932501D02*
D03*
X01196998Y01999500D02*
D03*
X01197000Y01976505D02*
D03*
X01101997Y01944500D02*
D03*
X01102003Y01921503D02*
D03*
X01102000Y01900499D02*
D03*
X01102002Y01877503D02*
D03*
X00801997Y01999500D02*
D03*
Y01976503D02*
D03*
Y01955500D02*
D03*
Y01932503D02*
D03*
X00706997Y01900500D02*
D03*
Y01877503D02*
D03*
X00707001Y01944500D02*
D03*
Y01921503D02*
D03*
D26*
X01138003Y00885000D02*
D03*
X01001000Y01004997D02*
D03*
D27*
X01015000Y00896999D02*
D03*
X01017000Y00937997D02*
D03*
X01077000Y01049000D02*
D03*
D317*
X02050000Y00611000D02*
D03*
X02050000Y00625000D02*
D03*
D318*
X01953471Y01623437D02*
D03*
X01966199Y01636165D02*
D03*
D319*
X01881000Y01645999D02*
D03*
X01897787Y01662151D02*
D03*
D320*
X00338000Y01174001D02*
D03*
X00338000Y01186001D02*
D03*
X00338000Y00936002D02*
D03*
X00338000Y00924001D02*
D03*
Y00686002D02*
D03*
X00338000Y00674001D02*
D03*
X00338000Y00424001D02*
D03*
X00338000Y00436001D02*
D03*
D321*
X02089000Y00573000D02*
D03*
X02088999Y00663000D02*
D03*
X02089000Y00603000D02*
D03*
X02089250Y00633000D02*
D03*
D322*
X00500500Y00505500D02*
D03*
X00500500Y00546500D02*
D03*
X00543500Y00546500D02*
D03*
Y00505500D02*
D03*
D323*
X00501500Y00504500D02*
D03*
X00501500Y00547500D02*
D03*
X00542500Y00547500D02*
D03*
X00542500Y00504500D02*
D03*
D324*
X01884712Y01672287D02*
D03*
X01877288Y01679712D02*
D03*
M02*
