G04*
G04 #@! TF.GenerationSoftware,Altium Limited,Altium Designer,22.10.1 (41)*
G04*
G04 Layer_Color=128*
%FSAX44Y44*%
%MOMM*%
G71*
G04*
G04 #@! TF.SameCoordinates,5DDCA6B8-CE55-411C-979C-A3AAA62AB61D*
G04*
G04*
G04 #@! TF.FilePolarity,Positive*
G04*
G01*
G75*
%ADD40R,0.3800X0.4800*%
%ADD48R,0.4800X0.3800*%
%ADD49R,0.4100X0.3600*%
%ADD50R,0.3600X0.4100*%
%ADD52R,1.0000X1.2500*%
%ADD53R,2.5000X1.0000*%
%ADD97R,1.0000X0.5000*%
%ADD105R,0.9500X0.6500*%
%ADD107R,1.2500X1.0000*%
%ADD108R,1.0000X2.5000*%
G04:AMPARAMS|DCode=114|XSize=0.48mm|YSize=0.38mm|CornerRadius=0mm|HoleSize=0mm|Usage=FLASHONLY|Rotation=45.000|XOffset=0mm|YOffset=0mm|HoleType=Round|Shape=Rectangle|*
%AMROTATEDRECTD114*
4,1,4,-0.0354,-0.3041,-0.3041,-0.0354,0.0354,0.3041,0.3041,0.0354,-0.0354,-0.3041,0.0*
%
%ADD114ROTATEDRECTD114*%

G04:AMPARAMS|DCode=115|XSize=0.48mm|YSize=0.38mm|CornerRadius=0mm|HoleSize=0mm|Usage=FLASHONLY|Rotation=135.000|XOffset=0mm|YOffset=0mm|HoleType=Round|Shape=Rectangle|*
%AMROTATEDRECTD115*
4,1,4,0.3041,-0.0354,0.0354,-0.3041,-0.3041,0.0354,-0.0354,0.3041,0.3041,-0.0354,0.0*
%
%ADD115ROTATEDRECTD115*%

%ADD118R,0.8000X0.6300*%
%ADD119R,0.6300X0.8000*%
%ADD230R,2.6000X2.6000*%
%ADD292R,1.0000X1.6000*%
G04:AMPARAMS|DCode=293|XSize=0.91mm|YSize=1.22mm|CornerRadius=0mm|HoleSize=0mm|Usage=FLASHONLY|Rotation=315.000|XOffset=0mm|YOffset=0mm|HoleType=Round|Shape=Rectangle|*
%AMROTATEDRECTD293*
4,1,4,-0.7531,-0.1096,0.1096,0.7531,0.7531,0.1096,-0.1096,-0.7531,-0.7531,-0.1096,0.0*
%
%ADD293ROTATEDRECTD293*%

G04:AMPARAMS|DCode=294|XSize=0.55mm|YSize=1mm|CornerRadius=0mm|HoleSize=0mm|Usage=FLASHONLY|Rotation=225.000|XOffset=0mm|YOffset=0mm|HoleType=Round|Shape=Rectangle|*
%AMROTATEDRECTD294*
4,1,4,-0.1591,0.5480,0.5480,-0.1591,0.1591,-0.5480,-0.5480,0.1591,-0.1591,0.5480,0.0*
%
%ADD294ROTATEDRECTD294*%

%ADD295R,0.6500X0.9000*%
%ADD296R,1.1000X1.4000*%
%ADD297R,0.2500X0.6000*%
%ADD298R,0.6000X0.2500*%
%ADD301R,3.0000X1.6000*%
G04:AMPARAMS|DCode=302|XSize=0.8mm|YSize=0.63mm|CornerRadius=0mm|HoleSize=0mm|Usage=FLASHONLY|Rotation=315.000|XOffset=0mm|YOffset=0mm|HoleType=Round|Shape=Rectangle|*
%AMROTATEDRECTD302*
4,1,4,-0.5056,0.0601,-0.0601,0.5056,0.5056,-0.0601,0.0601,-0.5056,-0.5056,0.0601,0.0*
%
%ADD302ROTATEDRECTD302*%

G04:AMPARAMS|DCode=303|XSize=1mm|YSize=1.25mm|CornerRadius=0mm|HoleSize=0mm|Usage=FLASHONLY|Rotation=225.000|XOffset=0mm|YOffset=0mm|HoleType=Round|Shape=Rectangle|*
%AMROTATEDRECTD303*
4,1,4,-0.0884,0.7955,0.7955,-0.0884,0.0884,-0.7955,-0.7955,0.0884,-0.0884,0.7955,0.0*
%
%ADD303ROTATEDRECTD303*%

%ADD316R,2.5000X2.5000*%
G36*
X00046000Y00027500D02*
X00044299Y00027870D01*
X00041006Y00028991D01*
X00037922Y00030600D01*
X00035117Y00032658D01*
X00032658Y00035117D01*
X00030600Y00037922D01*
X00028991Y00041006D01*
X00027870Y00044299D01*
X00027500Y00046000D01*
D01*
Y00046000D01*
X00015500Y00046000D01*
X00015835Y00043104D01*
X00017463Y00037505D01*
X00020001Y00032256D01*
X00023379Y00027503D01*
X00027502Y00023380D01*
X00032255Y00020002D01*
X00037504Y00017463D01*
X00043103Y00015835D01*
X00045999Y00015500D01*
X00045999Y00015500D01*
X00046000Y00027500D01*
D02*
G37*
G36*
X00027500Y00054000D02*
X00027870Y00055701D01*
X00028991Y00058994D01*
X00030600Y00062078D01*
X00032658Y00064883D01*
X00035117Y00067342D01*
X00037922Y00069400D01*
X00041006Y00071009D01*
X00044299Y00072130D01*
X00046000Y00072500D01*
Y00072500D01*
X00046000D01*
X00046000Y00084500D01*
X00043104Y00084165D01*
X00037505Y00082537D01*
X00032256Y00079999D01*
X00027503Y00076621D01*
X00023380Y00072498D01*
X00020002Y00067745D01*
X00017463Y00062496D01*
X00015835Y00056897D01*
X00015500Y00054001D01*
X00015500D01*
X00027500Y00054000D01*
D02*
G37*
G36*
X00072500Y00046000D02*
X00072130Y00044299D01*
X00071009Y00041006D01*
X00069400Y00037922D01*
X00067342Y00035117D01*
X00064883Y00032658D01*
X00062078Y00030600D01*
X00058994Y00028991D01*
X00055701Y00027870D01*
X00054000Y00027500D01*
X00054000D01*
X00054000D01*
Y00015500D01*
X00056896Y00015835D01*
X00062495Y00017463D01*
X00067744Y00020001D01*
X00072497Y00023379D01*
X00076620Y00027502D01*
X00079998Y00032255D01*
X00082537Y00037504D01*
X00084164Y00043103D01*
X00084500Y00045999D01*
Y00046000D01*
X00072500Y00046000D01*
D02*
G37*
G36*
X00054000Y00072500D02*
X00055701Y00072130D01*
X00058994Y00071009D01*
X00062078Y00069400D01*
X00064882Y00067342D01*
X00067342Y00064883D01*
X00069400Y00062078D01*
X00071009Y00058994D01*
X00072130Y00055701D01*
X00072500Y00054000D01*
X00072500Y00054000D01*
Y00054000D01*
X00084500D01*
X00084165Y00056896D01*
X00082537Y00062495D01*
X00079999Y00067744D01*
X00076621Y00072497D01*
X00072498Y00076620D01*
X00067745Y00079998D01*
X00062495Y00082537D01*
X00056897Y00084164D01*
X00054000Y00084500D01*
D01*
X00054000Y00072500D01*
D02*
G37*
G36*
X00046000Y02177500D02*
X00044299Y02177870D01*
X00041006Y02178991D01*
X00037922Y02180600D01*
X00035117Y02182658D01*
X00032658Y02185117D01*
X00030600Y02187922D01*
X00028991Y02191006D01*
X00027870Y02194299D01*
X00027500Y02196000D01*
D01*
Y02196000D01*
X00015500Y02196000D01*
X00015835Y02193104D01*
X00017463Y02187505D01*
X00020001Y02182256D01*
X00023379Y02177503D01*
X00027502Y02173380D01*
X00032255Y02170002D01*
X00037504Y02167463D01*
X00043103Y02165836D01*
X00045999Y02165500D01*
X00045999Y02165500D01*
X00046000Y02177500D01*
D02*
G37*
G36*
X00027500Y02204000D02*
X00027870Y02205701D01*
X00028991Y02208994D01*
X00030600Y02212078D01*
X00032658Y02214883D01*
X00035117Y02217342D01*
X00037922Y02219400D01*
X00041006Y02221009D01*
X00044299Y02222130D01*
X00046000Y02222500D01*
Y02222500D01*
X00046000D01*
X00046000Y02234500D01*
X00043104Y02234165D01*
X00037505Y02232537D01*
X00032256Y02229999D01*
X00027503Y02226621D01*
X00023380Y02222498D01*
X00020002Y02217745D01*
X00017463Y02212496D01*
X00015835Y02206897D01*
X00015500Y02204001D01*
X00015500D01*
X00027500Y02204000D01*
D02*
G37*
G36*
X00072500Y02196000D02*
X00072130Y02194299D01*
X00071009Y02191006D01*
X00069400Y02187922D01*
X00067342Y02185117D01*
X00064883Y02182658D01*
X00062078Y02180600D01*
X00058994Y02178991D01*
X00055701Y02177870D01*
X00054000Y02177500D01*
X00054000D01*
X00054000D01*
Y02165500D01*
X00056896Y02165835D01*
X00062495Y02167463D01*
X00067744Y02170001D01*
X00072497Y02173379D01*
X00076620Y02177502D01*
X00079998Y02182255D01*
X00082537Y02187504D01*
X00084164Y02193103D01*
X00084500Y02195999D01*
Y02196000D01*
X00072500Y02196000D01*
D02*
G37*
G36*
X00054000Y02222500D02*
X00055701Y02222130D01*
X00058994Y02221009D01*
X00062078Y02219400D01*
X00064882Y02217342D01*
X00067342Y02214883D01*
X00069400Y02212078D01*
X00071009Y02208994D01*
X00072130Y02205701D01*
X00072500Y02204000D01*
X00072500Y02204000D01*
Y02204000D01*
X00084500D01*
X00084165Y02206896D01*
X00082537Y02212495D01*
X00079999Y02217744D01*
X00076621Y02222497D01*
X00072498Y02226620D01*
X00067745Y02229998D01*
X00062495Y02232537D01*
X00056897Y02234164D01*
X00054000Y02234500D01*
D01*
X00054000Y02222500D01*
D02*
G37*
G36*
X02246000Y00027500D02*
X02244299Y00027870D01*
X02241006Y00028991D01*
X02237922Y00030600D01*
X02235117Y00032658D01*
X02232658Y00035117D01*
X02230600Y00037922D01*
X02228991Y00041006D01*
X02227870Y00044299D01*
X02227500Y00046000D01*
D01*
Y00046000D01*
X02215500Y00046000D01*
X02215835Y00043104D01*
X02217463Y00037505D01*
X02220001Y00032256D01*
X02223379Y00027503D01*
X02227502Y00023380D01*
X02232255Y00020002D01*
X02237504Y00017463D01*
X02243103Y00015835D01*
X02245999Y00015500D01*
X02245999Y00015500D01*
X02246000Y00027500D01*
D02*
G37*
G36*
X02227500Y00054000D02*
X02227870Y00055701D01*
X02228991Y00058994D01*
X02230600Y00062078D01*
X02232658Y00064883D01*
X02235117Y00067342D01*
X02237922Y00069400D01*
X02241006Y00071009D01*
X02244299Y00072130D01*
X02246000Y00072500D01*
Y00072500D01*
X02246000D01*
X02246000Y00084500D01*
X02243104Y00084165D01*
X02237505Y00082537D01*
X02232256Y00079999D01*
X02227503Y00076621D01*
X02223380Y00072498D01*
X02220002Y00067745D01*
X02217463Y00062496D01*
X02215836Y00056897D01*
X02215500Y00054001D01*
X02215500D01*
X02227500Y00054000D01*
D02*
G37*
G36*
X02272500Y00046000D02*
X02272130Y00044299D01*
X02271009Y00041006D01*
X02269400Y00037922D01*
X02267342Y00035117D01*
X02264883Y00032658D01*
X02262078Y00030600D01*
X02258994Y00028991D01*
X02255701Y00027870D01*
X02254000Y00027500D01*
X02254000D01*
X02254000D01*
Y00015500D01*
X02256896Y00015835D01*
X02262495Y00017463D01*
X02267744Y00020001D01*
X02272497Y00023379D01*
X02276620Y00027502D01*
X02279998Y00032255D01*
X02282537Y00037504D01*
X02284164Y00043103D01*
X02284500Y00045999D01*
Y00046000D01*
X02272500Y00046000D01*
D02*
G37*
G36*
X02254000Y00072500D02*
X02255701Y00072130D01*
X02258994Y00071009D01*
X02262078Y00069400D01*
X02264883Y00067342D01*
X02267342Y00064883D01*
X02269400Y00062078D01*
X02271009Y00058994D01*
X02272130Y00055701D01*
X02272500Y00054000D01*
X02272500Y00054000D01*
Y00054000D01*
X02284500D01*
X02284165Y00056896D01*
X02282537Y00062495D01*
X02279999Y00067744D01*
X02276621Y00072497D01*
X02272498Y00076620D01*
X02267745Y00079998D01*
X02262496Y00082537D01*
X02256897Y00084164D01*
X02254000Y00084500D01*
D01*
X02254000Y00072500D01*
D02*
G37*
G36*
X02246000Y02177500D02*
X02244299Y02177870D01*
X02241006Y02178991D01*
X02237922Y02180600D01*
X02235117Y02182658D01*
X02232658Y02185117D01*
X02230600Y02187922D01*
X02228991Y02191006D01*
X02227870Y02194299D01*
X02227500Y02196000D01*
D01*
Y02196000D01*
X02215500Y02196000D01*
X02215835Y02193104D01*
X02217463Y02187505D01*
X02220001Y02182256D01*
X02223379Y02177503D01*
X02227502Y02173380D01*
X02232255Y02170002D01*
X02237504Y02167463D01*
X02243103Y02165836D01*
X02245999Y02165500D01*
X02245999Y02165500D01*
X02246000Y02177500D01*
D02*
G37*
G36*
X02227500Y02204000D02*
X02227870Y02205701D01*
X02228991Y02208994D01*
X02230600Y02212078D01*
X02232658Y02214883D01*
X02235117Y02217342D01*
X02237922Y02219400D01*
X02241006Y02221009D01*
X02244299Y02222130D01*
X02246000Y02222500D01*
Y02222500D01*
X02246000D01*
X02246000Y02234500D01*
X02243104Y02234165D01*
X02237505Y02232537D01*
X02232256Y02229999D01*
X02227503Y02226621D01*
X02223380Y02222498D01*
X02220002Y02217745D01*
X02217463Y02212496D01*
X02215836Y02206897D01*
X02215500Y02204001D01*
X02215500D01*
X02227500Y02204000D01*
D02*
G37*
G36*
X02272500Y02196000D02*
X02272130Y02194299D01*
X02271009Y02191006D01*
X02269400Y02187922D01*
X02267342Y02185117D01*
X02264883Y02182658D01*
X02262078Y02180600D01*
X02258994Y02178991D01*
X02255701Y02177870D01*
X02254000Y02177500D01*
X02254000D01*
X02254000D01*
Y02165500D01*
X02256896Y02165835D01*
X02262495Y02167463D01*
X02267744Y02170001D01*
X02272497Y02173379D01*
X02276620Y02177502D01*
X02279998Y02182255D01*
X02282537Y02187504D01*
X02284164Y02193103D01*
X02284500Y02195999D01*
Y02196000D01*
X02272500Y02196000D01*
D02*
G37*
G36*
X02254000Y02222500D02*
X02255701Y02222130D01*
X02258994Y02221009D01*
X02262078Y02219400D01*
X02264883Y02217342D01*
X02267342Y02214883D01*
X02269400Y02212078D01*
X02271009Y02208994D01*
X02272130Y02205701D01*
X02272500Y02204000D01*
X02272500Y02204000D01*
Y02204000D01*
X02284500D01*
X02284165Y02206896D01*
X02282537Y02212495D01*
X02279999Y02217744D01*
X02276621Y02222497D01*
X02272498Y02226620D01*
X02267745Y02229998D01*
X02262496Y02232537D01*
X02256897Y02234164D01*
X02254000Y02234500D01*
D01*
X02254000Y02222500D01*
D02*
G37*
D40*
X02170050Y01036000D02*
D03*
X02177950D02*
D03*
X01226050Y00925000D02*
D03*
X01233950D02*
D03*
X01840950Y00695000D02*
D03*
X01833050Y00695000D02*
D03*
X00966050Y02006000D02*
D03*
X00973950D02*
D03*
X00576050Y02006000D02*
D03*
X00583950D02*
D03*
X00579950Y00515000D02*
D03*
X00572050Y00515000D02*
D03*
X01784950Y00681000D02*
D03*
X01777050Y00681000D02*
D03*
X01784950Y00673000D02*
D03*
X01777050D02*
D03*
X02146050Y00595000D02*
D03*
X02153950D02*
D03*
X02148050Y00707000D02*
D03*
X02155950D02*
D03*
X01106050Y00925000D02*
D03*
X01113950D02*
D03*
X01143950Y00925000D02*
D03*
X01136050D02*
D03*
X01163950D02*
D03*
X01156050D02*
D03*
X01116050Y00915000D02*
D03*
X01123950Y00915000D02*
D03*
X01093950Y00935000D02*
D03*
X01086050D02*
D03*
X01116050Y00935000D02*
D03*
X01123950D02*
D03*
X01096050Y00915000D02*
D03*
X01103950D02*
D03*
X01143950Y00905000D02*
D03*
X01136050D02*
D03*
X01136050Y00935000D02*
D03*
X01143950D02*
D03*
X01153950Y00875000D02*
D03*
X01146050D02*
D03*
X01106050Y00905000D02*
D03*
X01113950D02*
D03*
X01163950Y00905000D02*
D03*
X01156050D02*
D03*
Y00885000D02*
D03*
X01163950D02*
D03*
X01155050Y00915000D02*
D03*
X01162950D02*
D03*
X01146050Y00865000D02*
D03*
X01153950D02*
D03*
X01096050Y00875000D02*
D03*
X01103950D02*
D03*
X01095050Y00895000D02*
D03*
X01102950D02*
D03*
X01133950Y00875000D02*
D03*
X01126050Y00875000D02*
D03*
X01116050Y00895000D02*
D03*
X01123950Y00895000D02*
D03*
X01103950Y00885000D02*
D03*
X01096050D02*
D03*
X01066050Y00965000D02*
D03*
X01073950D02*
D03*
X01083950Y00985000D02*
D03*
X01076050D02*
D03*
X01073950Y00915000D02*
D03*
X01066050D02*
D03*
X01016050Y00825000D02*
D03*
X01023950D02*
D03*
X01122950Y00958000D02*
D03*
X01115050D02*
D03*
X01086050Y01015000D02*
D03*
X01093950D02*
D03*
X01166050Y00875000D02*
D03*
X01173950D02*
D03*
X01246050Y00935000D02*
D03*
X01253950D02*
D03*
X01284950Y00875000D02*
D03*
X01277050D02*
D03*
X01239950Y00825000D02*
D03*
X01232050D02*
D03*
X01283950Y00975000D02*
D03*
X01276050D02*
D03*
X02141950Y01264000D02*
D03*
X00783950Y02006000D02*
D03*
X01178950Y02006000D02*
D03*
X01778950D02*
D03*
X01578950D02*
D03*
X01378950D02*
D03*
X01136050Y00845000D02*
D03*
X01203950Y00835000D02*
D03*
X01053950Y00955000D02*
D03*
X01066050Y00905000D02*
D03*
X01053950Y00915000D02*
D03*
X01026050Y00925000D02*
D03*
X01053950Y01015000D02*
D03*
X01026050Y00965000D02*
D03*
Y01005000D02*
D03*
X01066050Y00945000D02*
D03*
X01053950Y00995000D02*
D03*
X01066050Y00925000D02*
D03*
X01083950Y01005000D02*
D03*
X00572050Y00525000D02*
D03*
Y00555000D02*
D03*
X00579950Y00535000D02*
D03*
X01629950Y00547000D02*
D03*
X01638050Y00549000D02*
D03*
X01650050Y00524000D02*
D03*
X01649950Y00539000D02*
D03*
X01641950Y00484000D02*
D03*
X01073950Y00905000D02*
D03*
X00594950Y00555000D02*
D03*
Y00515000D02*
D03*
X00594950Y00525000D02*
D03*
X00594950Y00507000D02*
D03*
X00594950Y00547000D02*
D03*
Y00539000D02*
D03*
X00572050Y00535000D02*
D03*
X01645950Y00549000D02*
D03*
X01634050Y00484000D02*
D03*
X02141950Y01273000D02*
D03*
X00281050Y00428000D02*
D03*
Y00420000D02*
D03*
Y00436000D02*
D03*
Y00444000D02*
D03*
Y00452000D02*
D03*
Y00460000D02*
D03*
Y00468000D02*
D03*
Y00476000D02*
D03*
Y00726000D02*
D03*
Y00694000D02*
D03*
Y00702000D02*
D03*
Y00710000D02*
D03*
Y00686000D02*
D03*
Y00678000D02*
D03*
Y00718000D02*
D03*
Y00670000D02*
D03*
Y00928000D02*
D03*
Y00944000D02*
D03*
Y00920000D02*
D03*
Y00976000D02*
D03*
Y00952000D02*
D03*
Y00936000D02*
D03*
Y00960000D02*
D03*
Y00968000D02*
D03*
Y01178000D02*
D03*
Y01194000D02*
D03*
Y01186000D02*
D03*
Y01170000D02*
D03*
Y01226000D02*
D03*
Y01210000D02*
D03*
Y01218000D02*
D03*
Y01202000D02*
D03*
X01657950Y00524000D02*
D03*
X01642050Y00539000D02*
D03*
X01073950Y00945000D02*
D03*
X01076050Y01005000D02*
D03*
X01073950Y00925000D02*
D03*
X01046050Y00955000D02*
D03*
Y01015000D02*
D03*
X01033950Y00925000D02*
D03*
Y00965000D02*
D03*
X01046050Y00995000D02*
D03*
X01033950Y01005000D02*
D03*
X01046050Y00915000D02*
D03*
X00579950Y00525000D02*
D03*
X00587050Y00515000D02*
D03*
X00587050Y00507000D02*
D03*
Y00547000D02*
D03*
X00579950Y00555000D02*
D03*
X00587050Y00539000D02*
D03*
X00587050Y00525000D02*
D03*
X00587050Y00555000D02*
D03*
X01073950Y00955000D02*
D03*
X01066050D02*
D03*
X01073950Y00975000D02*
D03*
X01066050Y00975000D02*
D03*
X01073950Y00935000D02*
D03*
X01066050D02*
D03*
X01622050Y00547000D02*
D03*
X00288950Y01202000D02*
D03*
Y01218000D02*
D03*
Y01210000D02*
D03*
Y01226000D02*
D03*
Y01170000D02*
D03*
Y01186000D02*
D03*
Y01194000D02*
D03*
Y01178000D02*
D03*
Y00968000D02*
D03*
Y00960000D02*
D03*
Y00936000D02*
D03*
Y00952000D02*
D03*
Y00976000D02*
D03*
Y00920000D02*
D03*
Y00944000D02*
D03*
Y00928000D02*
D03*
Y00670000D02*
D03*
Y00718000D02*
D03*
Y00678000D02*
D03*
Y00686000D02*
D03*
Y00710000D02*
D03*
Y00702000D02*
D03*
Y00694000D02*
D03*
Y00726000D02*
D03*
Y00476000D02*
D03*
Y00468000D02*
D03*
Y00460000D02*
D03*
Y00452000D02*
D03*
Y00444000D02*
D03*
Y00436000D02*
D03*
Y00420000D02*
D03*
Y00428000D02*
D03*
X01196050Y00835000D02*
D03*
X01146050Y00855000D02*
D03*
X01153950D02*
D03*
X01143950Y00845000D02*
D03*
X01053950Y00865000D02*
D03*
X01046050D02*
D03*
X01371050Y02006000D02*
D03*
X01571050Y02006000D02*
D03*
X01771050D02*
D03*
X01171050Y02006000D02*
D03*
X00776050D02*
D03*
X02134050Y01264000D02*
D03*
X02134050Y01273000D02*
D03*
D48*
X01621000Y00606950D02*
D03*
X01621000Y00599050D02*
D03*
X01671000Y00607950D02*
D03*
Y00600050D02*
D03*
X01661000Y00607950D02*
D03*
Y00600050D02*
D03*
X01601000Y00606950D02*
D03*
X01601000Y00599050D02*
D03*
X01651000Y00607950D02*
D03*
X01651000Y00600050D02*
D03*
X01681000Y00607950D02*
D03*
Y00600050D02*
D03*
X01835000Y00677050D02*
D03*
Y00684950D02*
D03*
X00654000Y00422950D02*
D03*
Y00415050D02*
D03*
Y00383950D02*
D03*
Y00376050D02*
D03*
X01115000Y00876050D02*
D03*
X01115000Y00883950D02*
D03*
X01175000Y00766050D02*
D03*
Y00773950D02*
D03*
X01157000Y00843950D02*
D03*
Y00836050D02*
D03*
X01075000Y00766050D02*
D03*
Y00773950D02*
D03*
X01065000Y00796050D02*
D03*
Y00803950D02*
D03*
X01185000Y00937050D02*
D03*
Y00944950D02*
D03*
X01166000Y01014950D02*
D03*
Y01007050D02*
D03*
X01125000Y01033950D02*
D03*
Y01026050D02*
D03*
X01245000Y00857050D02*
D03*
Y00864950D02*
D03*
X01085000Y00903950D02*
D03*
Y00896050D02*
D03*
X01085000Y00916050D02*
D03*
X01085000Y00923950D02*
D03*
X00243000Y02115050D02*
D03*
X01135000Y00863950D02*
D03*
X01235000Y01658050D02*
D03*
X01125000Y00776050D02*
D03*
X00357000Y00464050D02*
D03*
X00357000Y00714050D02*
D03*
Y00964050D02*
D03*
Y01214050D02*
D03*
X00670000Y00422950D02*
D03*
X00662000D02*
D03*
X01223000Y00358050D02*
D03*
X01624000Y00503950D02*
D03*
Y00496050D02*
D03*
X00687000Y00317050D02*
D03*
X00695000Y00317050D02*
D03*
X01105000Y00803950D02*
D03*
X01105000Y00796050D02*
D03*
X00703000Y00324950D02*
D03*
Y00317050D02*
D03*
X01223000Y00365950D02*
D03*
X00687000Y00324950D02*
D03*
X00695000D02*
D03*
X00670000Y00415050D02*
D03*
X00662000D02*
D03*
X00670000Y00383950D02*
D03*
Y00376050D02*
D03*
X00662000Y00383950D02*
D03*
Y00376050D02*
D03*
X00357000Y01221950D02*
D03*
Y00971950D02*
D03*
Y00721950D02*
D03*
X00357000Y00471950D02*
D03*
X01125000Y00783950D02*
D03*
X01235000Y01665950D02*
D03*
X01135000Y00856050D02*
D03*
X00243000Y02122950D02*
D03*
D49*
X02169750Y00990000D02*
D03*
X02178250D02*
D03*
X02169750Y01001000D02*
D03*
X02178250D02*
D03*
X02169750Y01023000D02*
D03*
X02178250D02*
D03*
X02169750Y01045000D02*
D03*
X02178250D02*
D03*
X02169750Y01056000D02*
D03*
X02178250D02*
D03*
X02169750Y01067000D02*
D03*
X02178250D02*
D03*
X02094750Y01729000D02*
D03*
X02103250D02*
D03*
X02175000Y00819000D02*
D03*
X02191250Y00782000D02*
D03*
X02165750Y00782000D02*
D03*
X02148750Y00819000D02*
D03*
X02103250Y00819000D02*
D03*
X02120250Y00782000D02*
D03*
X02112750Y00819000D02*
D03*
X02185750Y00819000D02*
D03*
X02156250Y00782000D02*
D03*
X02129750D02*
D03*
X02139250Y00819000D02*
D03*
X02103250Y01879000D02*
D03*
X02121500Y01842000D02*
D03*
X02112750Y01879000D02*
D03*
X02139250D02*
D03*
X02130750Y01842000D02*
D03*
X02157250D02*
D03*
X02148750Y01879000D02*
D03*
X02175000Y01879000D02*
D03*
X02166750Y01842000D02*
D03*
X02193250D02*
D03*
X02185750Y01879000D02*
D03*
X02112750Y01729000D02*
D03*
X02139250D02*
D03*
X02122250Y01692000D02*
D03*
X02131750D02*
D03*
X02186750Y01729000D02*
D03*
X02194250Y01692000D02*
D03*
X02175000Y01729000D02*
D03*
X02167750Y01692000D02*
D03*
X02158250D02*
D03*
X02148750Y01729000D02*
D03*
X02194250Y01879000D02*
D03*
X02184750Y01842000D02*
D03*
X02130750Y01879000D02*
D03*
X02113000Y01842000D02*
D03*
X02121250Y01879000D02*
D03*
X02094750D02*
D03*
X02148750Y01842000D02*
D03*
X02139250D02*
D03*
X02175250D02*
D03*
X02166500Y01879000D02*
D03*
X02157250Y01879000D02*
D03*
Y01729000D02*
D03*
X02149750Y01692000D02*
D03*
X02176250D02*
D03*
X02166500Y01729000D02*
D03*
X02121250Y01729000D02*
D03*
X02140250Y01692000D02*
D03*
X02113750D02*
D03*
X02130750Y01729000D02*
D03*
X02185750Y01692000D02*
D03*
X02195250Y01729000D02*
D03*
X02130750Y00819000D02*
D03*
X02138250Y00782000D02*
D03*
X02147750D02*
D03*
X02194250Y00819000D02*
D03*
X02121250Y00819000D02*
D03*
X02111750Y00782000D02*
D03*
X02094750Y00819000D02*
D03*
X02157250Y00819000D02*
D03*
X02174250Y00782000D02*
D03*
X02182750Y00782000D02*
D03*
X02166500Y00819000D02*
D03*
D50*
X02205000Y00828250D02*
D03*
X02086000Y00812000D02*
D03*
X02124000Y00381750D02*
D03*
X02124000Y00408250D02*
D03*
X02202000Y00438250D02*
D03*
Y00411750D02*
D03*
X02085000Y01864250D02*
D03*
X02206000Y01874750D02*
D03*
X02085000Y01714250D02*
D03*
X02204000Y01738250D02*
D03*
X02085000Y01705750D02*
D03*
X02206000Y01883250D02*
D03*
X02085000Y01855750D02*
D03*
X02204000Y01729750D02*
D03*
X02202000Y00420250D02*
D03*
Y00429750D02*
D03*
X02124000Y00399750D02*
D03*
X02124000Y00390250D02*
D03*
X02086000Y00803500D02*
D03*
X02205000Y00819750D02*
D03*
D52*
X00998000Y00380998D02*
D03*
X00978000D02*
D03*
D53*
X01118000Y01750000D02*
D03*
Y01720000D02*
D03*
X01217000Y01625000D02*
D03*
X01217000Y01655000D02*
D03*
X01273000Y01570000D02*
D03*
Y01540000D02*
D03*
X01328000Y01445000D02*
D03*
Y01475000D02*
D03*
X01162000Y01750000D02*
D03*
X01162000Y01720000D02*
D03*
X01173000Y01625000D02*
D03*
Y01655000D02*
D03*
X01317000Y01570000D02*
D03*
Y01540000D02*
D03*
X01372000Y01445000D02*
D03*
Y01475000D02*
D03*
X00996000Y00801000D02*
D03*
Y00771000D02*
D03*
X01279000Y01081000D02*
D03*
Y01051000D02*
D03*
X01307000Y00908000D02*
D03*
Y00938000D02*
D03*
X00181000Y02112000D02*
D03*
X00225000D02*
D03*
X00126000Y02177000D02*
D03*
X00170000D02*
D03*
X02064000Y01727000D02*
D03*
Y01697000D02*
D03*
X00181000Y02082000D02*
D03*
X00225000Y02082000D02*
D03*
X00126000Y02207000D02*
D03*
X00170000D02*
D03*
D97*
X01796150Y00675500D02*
D03*
Y00694500D02*
D03*
X01823150Y00694500D02*
D03*
X01823150Y00675500D02*
D03*
X01823150Y00685000D02*
D03*
X01796150Y00685000D02*
D03*
D105*
X00347350Y00458500D02*
D03*
Y00708500D02*
D03*
Y00958500D02*
D03*
Y01208500D02*
D03*
Y01227500D02*
D03*
X00322650Y01218000D02*
D03*
X00347350Y00977500D02*
D03*
X00322650Y00968000D02*
D03*
X00347350Y00727500D02*
D03*
X00322650Y00718000D02*
D03*
X00347350Y00477500D02*
D03*
X00322650Y00468000D02*
D03*
D107*
X00835999Y01767500D02*
D03*
X00835999Y01787500D02*
D03*
X00836002Y01820500D02*
D03*
X00836002Y01800500D02*
D03*
X00681998Y00426000D02*
D03*
Y00393000D02*
D03*
Y00373000D02*
D03*
Y00406000D02*
D03*
D108*
X00974000Y00404000D02*
D03*
X01004000D02*
D03*
X00882000Y01933000D02*
D03*
X00912000Y01933000D02*
D03*
X00882000Y01889000D02*
D03*
X00912000D02*
D03*
X01007000Y01944000D02*
D03*
X00977000Y01944000D02*
D03*
X01007000Y01988000D02*
D03*
X00977000Y01988000D02*
D03*
X00617000Y01988000D02*
D03*
X00587000D02*
D03*
X00492000Y01933000D02*
D03*
X00522000D02*
D03*
X00492000Y01889000D02*
D03*
X00522000D02*
D03*
X00617000Y01944000D02*
D03*
X00587000D02*
D03*
X00722000Y01933000D02*
D03*
Y01889000D02*
D03*
X00787000Y01944000D02*
D03*
Y01988000D02*
D03*
X01117000Y01889000D02*
D03*
X01117000Y01933000D02*
D03*
X01182000Y01988000D02*
D03*
Y01944000D02*
D03*
X01717000Y01889000D02*
D03*
Y01933000D02*
D03*
X01782000Y01944000D02*
D03*
Y01988000D02*
D03*
X01582000Y01944000D02*
D03*
Y01988000D02*
D03*
X01517000Y01933000D02*
D03*
Y01889000D02*
D03*
X01382000Y01944000D02*
D03*
X01382000Y01988000D02*
D03*
X01317000Y01933000D02*
D03*
Y01889000D02*
D03*
X01412000Y01944000D02*
D03*
X01412000Y01988000D02*
D03*
X01812000Y01944000D02*
D03*
Y01988000D02*
D03*
X01612000Y01944000D02*
D03*
Y01988000D02*
D03*
X00692000Y01933000D02*
D03*
Y01889000D02*
D03*
X01087000D02*
D03*
Y01933000D02*
D03*
X01687000Y01889000D02*
D03*
Y01933000D02*
D03*
X01487000D02*
D03*
Y01889000D02*
D03*
X01287000Y01933000D02*
D03*
Y01889000D02*
D03*
X01212000Y01944000D02*
D03*
Y01988000D02*
D03*
X00817000D02*
D03*
Y01944000D02*
D03*
D114*
X01130793Y00819207D02*
D03*
X01125207Y00824793D02*
D03*
X01090793Y00839207D02*
D03*
X01085207Y00844793D02*
D03*
X01199793Y00810207D02*
D03*
X01194207Y00815793D02*
D03*
X01931693Y01640973D02*
D03*
X01926106Y01646559D02*
D03*
X01945835Y01655115D02*
D03*
X01940249Y01660701D02*
D03*
X01937349Y01646630D02*
D03*
X01931763Y01652216D02*
D03*
X01937713Y01777751D02*
D03*
X01932127Y01783337D02*
D03*
X01950441Y01790479D02*
D03*
X01944855Y01796065D02*
D03*
X01944785Y01784822D02*
D03*
X01939198Y01790408D02*
D03*
X01895358Y01820107D02*
D03*
X01900944Y01814521D02*
D03*
X01906707Y01831385D02*
D03*
X01912293Y01825799D02*
D03*
X01887580Y01812328D02*
D03*
X01893166Y01806742D02*
D03*
X01219207Y01033793D02*
D03*
X01224793Y01028207D02*
D03*
X01067207Y00882793D02*
D03*
X01072793Y00877207D02*
D03*
X01092793Y00867207D02*
D03*
X01087207Y00872793D02*
D03*
X01107207Y00862793D02*
D03*
X01112793Y00857207D02*
D03*
D115*
X01913379Y01643801D02*
D03*
X01918965Y01649387D02*
D03*
X01907722Y01649458D02*
D03*
X01913308Y01655044D02*
D03*
X01928864Y01710199D02*
D03*
X01923278Y01704612D02*
D03*
X01958220Y01810914D02*
D03*
X01952634Y01805328D02*
D03*
X01938421Y01830713D02*
D03*
X01932834Y01825127D02*
D03*
X01915207Y01769207D02*
D03*
X01920793Y01774793D02*
D03*
X01896065Y01788358D02*
D03*
X01901651Y01793944D02*
D03*
X01272793Y01022793D02*
D03*
X01267207Y01017207D02*
D03*
X01062793Y00852793D02*
D03*
X01057207Y00847207D02*
D03*
D118*
X01015000Y00890250D02*
D03*
Y00903750D02*
D03*
X01017000Y00944750D02*
D03*
Y00931250D02*
D03*
X01077000Y01055750D02*
D03*
Y01042250D02*
D03*
D119*
X01131250Y00885000D02*
D03*
X01144750D02*
D03*
X00994250Y01005000D02*
D03*
X01007750D02*
D03*
D230*
X00728000Y01810001D02*
D03*
Y01777001D02*
D03*
X00761002Y01777000D02*
D03*
X00761000Y01809998D02*
D03*
D292*
X02065000Y00618000D02*
D03*
X02035000D02*
D03*
D293*
X01969558Y01607350D02*
D03*
X01946224Y01630685D02*
D03*
X01958952Y01643412D02*
D03*
X01982286Y01620078D02*
D03*
D294*
X01876581Y01641581D02*
D03*
X01885419Y01650419D02*
D03*
D295*
X00331250Y01174000D02*
D03*
X00344750D02*
D03*
Y00436000D02*
D03*
Y00424000D02*
D03*
Y00674000D02*
D03*
Y00686000D02*
D03*
Y00924000D02*
D03*
Y00936000D02*
D03*
Y01186000D02*
D03*
X00331250D02*
D03*
Y00936000D02*
D03*
Y00924000D02*
D03*
Y00686000D02*
D03*
Y00674000D02*
D03*
Y00424000D02*
D03*
Y00436000D02*
D03*
D296*
X02097750Y00573000D02*
D03*
X02080250D02*
D03*
Y00663000D02*
D03*
X02097750D02*
D03*
X02080250Y00603000D02*
D03*
X02097750D02*
D03*
X02080500Y00633000D02*
D03*
X02098000D02*
D03*
D297*
X00534500Y00506875D02*
D03*
X00529500D02*
D03*
X00524500Y00506875D02*
D03*
X00519500D02*
D03*
X00514500D02*
D03*
X00509500Y00506875D02*
D03*
Y00545130D02*
D03*
X00514500D02*
D03*
X00519500Y00545130D02*
D03*
X00524500D02*
D03*
X00529500D02*
D03*
X00534500D02*
D03*
D298*
X00502870Y00513500D02*
D03*
Y00518500D02*
D03*
Y00528500D02*
D03*
X00502870Y00533500D02*
D03*
Y00538500D02*
D03*
X00541130D02*
D03*
Y00533500D02*
D03*
X00541130Y00523500D02*
D03*
Y00518500D02*
D03*
Y00513500D02*
D03*
Y00528500D02*
D03*
X00502870Y00523500D02*
D03*
D301*
X00811000Y01770500D02*
D03*
X00811000Y01816500D02*
D03*
D302*
X01893014Y01657378D02*
D03*
X01902560Y01666924D02*
D03*
D303*
X01873930Y01668928D02*
D03*
X01888072Y01683070D02*
D03*
D316*
X00522000Y00526000D02*
D03*
M02*
